%TF.GenerationSoftware,KiCad,Pcbnew,7.0.5*%
%TF.CreationDate,2023-12-24T17:16:59+05:30*%
%TF.ProjectId,TSALv3,5453414c-7633-42e6-9b69-6361645f7063,rev?*%
%TF.SameCoordinates,Original*%
%TF.FileFunction,Legend,Bot*%
%TF.FilePolarity,Positive*%
%FSLAX46Y46*%
G04 Gerber Fmt 4.6, Leading zero omitted, Abs format (unit mm)*
G04 Created by KiCad (PCBNEW 7.0.5) date 2023-12-24 17:16:59*
%MOMM*%
%LPD*%
G01*
G04 APERTURE LIST*
%ADD10C,0.300000*%
G04 APERTURE END LIST*
D10*
X128860079Y-83134200D02*
X128574365Y-83229438D01*
X128574365Y-83229438D02*
X128098174Y-83229438D01*
X128098174Y-83229438D02*
X127907698Y-83134200D01*
X127907698Y-83134200D02*
X127812460Y-83038961D01*
X127812460Y-83038961D02*
X127717222Y-82848485D01*
X127717222Y-82848485D02*
X127717222Y-82658009D01*
X127717222Y-82658009D02*
X127812460Y-82467533D01*
X127812460Y-82467533D02*
X127907698Y-82372295D01*
X127907698Y-82372295D02*
X128098174Y-82277057D01*
X128098174Y-82277057D02*
X128479127Y-82181819D01*
X128479127Y-82181819D02*
X128669603Y-82086580D01*
X128669603Y-82086580D02*
X128764841Y-81991342D01*
X128764841Y-81991342D02*
X128860079Y-81800866D01*
X128860079Y-81800866D02*
X128860079Y-81610390D01*
X128860079Y-81610390D02*
X128764841Y-81419914D01*
X128764841Y-81419914D02*
X128669603Y-81324676D01*
X128669603Y-81324676D02*
X128479127Y-81229438D01*
X128479127Y-81229438D02*
X128002936Y-81229438D01*
X128002936Y-81229438D02*
X127717222Y-81324676D01*
X126955317Y-82658009D02*
X126002936Y-82658009D01*
X127145793Y-83229438D02*
X126479127Y-81229438D01*
X126479127Y-81229438D02*
X125812460Y-83229438D01*
X124479126Y-82181819D02*
X125145793Y-82181819D01*
X125145793Y-83229438D02*
X125145793Y-81229438D01*
X125145793Y-81229438D02*
X124193412Y-81229438D01*
X123431507Y-82181819D02*
X122764840Y-82181819D01*
X122479126Y-83229438D02*
X123431507Y-83229438D01*
X123431507Y-83229438D02*
X123431507Y-81229438D01*
X123431507Y-81229438D02*
X122479126Y-81229438D01*
X121907697Y-81229438D02*
X120764840Y-81229438D01*
X121336269Y-83229438D02*
X121336269Y-81229438D01*
X119717221Y-82277057D02*
X119717221Y-83229438D01*
X120383887Y-81229438D02*
X119717221Y-82277057D01*
X119717221Y-82277057D02*
X119050554Y-81229438D01*
X116955315Y-83134200D02*
X116669601Y-83229438D01*
X116669601Y-83229438D02*
X116193410Y-83229438D01*
X116193410Y-83229438D02*
X116002934Y-83134200D01*
X116002934Y-83134200D02*
X115907696Y-83038961D01*
X115907696Y-83038961D02*
X115812458Y-82848485D01*
X115812458Y-82848485D02*
X115812458Y-82658009D01*
X115812458Y-82658009D02*
X115907696Y-82467533D01*
X115907696Y-82467533D02*
X116002934Y-82372295D01*
X116002934Y-82372295D02*
X116193410Y-82277057D01*
X116193410Y-82277057D02*
X116574363Y-82181819D01*
X116574363Y-82181819D02*
X116764839Y-82086580D01*
X116764839Y-82086580D02*
X116860077Y-81991342D01*
X116860077Y-81991342D02*
X116955315Y-81800866D01*
X116955315Y-81800866D02*
X116955315Y-81610390D01*
X116955315Y-81610390D02*
X116860077Y-81419914D01*
X116860077Y-81419914D02*
X116764839Y-81324676D01*
X116764839Y-81324676D02*
X116574363Y-81229438D01*
X116574363Y-81229438D02*
X116098172Y-81229438D01*
X116098172Y-81229438D02*
X115812458Y-81324676D01*
X115241029Y-81229438D02*
X114098172Y-81229438D01*
X114669601Y-83229438D02*
X114669601Y-81229438D01*
X113431505Y-81229438D02*
X113431505Y-82848485D01*
X113431505Y-82848485D02*
X113336267Y-83038961D01*
X113336267Y-83038961D02*
X113241029Y-83134200D01*
X113241029Y-83134200D02*
X113050553Y-83229438D01*
X113050553Y-83229438D02*
X112669600Y-83229438D01*
X112669600Y-83229438D02*
X112479124Y-83134200D01*
X112479124Y-83134200D02*
X112383886Y-83038961D01*
X112383886Y-83038961D02*
X112288648Y-82848485D01*
X112288648Y-82848485D02*
X112288648Y-81229438D01*
X111336267Y-83229438D02*
X111336267Y-81229438D01*
X111336267Y-81229438D02*
X110860077Y-81229438D01*
X110860077Y-81229438D02*
X110574362Y-81324676D01*
X110574362Y-81324676D02*
X110383886Y-81515152D01*
X110383886Y-81515152D02*
X110288648Y-81705628D01*
X110288648Y-81705628D02*
X110193410Y-82086580D01*
X110193410Y-82086580D02*
X110193410Y-82372295D01*
X110193410Y-82372295D02*
X110288648Y-82753247D01*
X110288648Y-82753247D02*
X110383886Y-82943723D01*
X110383886Y-82943723D02*
X110574362Y-83134200D01*
X110574362Y-83134200D02*
X110860077Y-83229438D01*
X110860077Y-83229438D02*
X111336267Y-83229438D01*
X109431505Y-83134200D02*
X109145791Y-83229438D01*
X109145791Y-83229438D02*
X108669600Y-83229438D01*
X108669600Y-83229438D02*
X108479124Y-83134200D01*
X108479124Y-83134200D02*
X108383886Y-83038961D01*
X108383886Y-83038961D02*
X108288648Y-82848485D01*
X108288648Y-82848485D02*
X108288648Y-82658009D01*
X108288648Y-82658009D02*
X108383886Y-82467533D01*
X108383886Y-82467533D02*
X108479124Y-82372295D01*
X108479124Y-82372295D02*
X108669600Y-82277057D01*
X108669600Y-82277057D02*
X109050553Y-82181819D01*
X109050553Y-82181819D02*
X109241029Y-82086580D01*
X109241029Y-82086580D02*
X109336267Y-81991342D01*
X109336267Y-81991342D02*
X109431505Y-81800866D01*
X109431505Y-81800866D02*
X109431505Y-81610390D01*
X109431505Y-81610390D02*
X109336267Y-81419914D01*
X109336267Y-81419914D02*
X109241029Y-81324676D01*
X109241029Y-81324676D02*
X109050553Y-81229438D01*
X109050553Y-81229438D02*
X108574362Y-81229438D01*
X108574362Y-81229438D02*
X108288648Y-81324676D01*
X121227355Y-78003638D02*
X120084498Y-78003638D01*
X120655927Y-80003638D02*
X120655927Y-78003638D01*
X119513069Y-79908400D02*
X119227355Y-80003638D01*
X119227355Y-80003638D02*
X118751164Y-80003638D01*
X118751164Y-80003638D02*
X118560688Y-79908400D01*
X118560688Y-79908400D02*
X118465450Y-79813161D01*
X118465450Y-79813161D02*
X118370212Y-79622685D01*
X118370212Y-79622685D02*
X118370212Y-79432209D01*
X118370212Y-79432209D02*
X118465450Y-79241733D01*
X118465450Y-79241733D02*
X118560688Y-79146495D01*
X118560688Y-79146495D02*
X118751164Y-79051257D01*
X118751164Y-79051257D02*
X119132117Y-78956019D01*
X119132117Y-78956019D02*
X119322593Y-78860780D01*
X119322593Y-78860780D02*
X119417831Y-78765542D01*
X119417831Y-78765542D02*
X119513069Y-78575066D01*
X119513069Y-78575066D02*
X119513069Y-78384590D01*
X119513069Y-78384590D02*
X119417831Y-78194114D01*
X119417831Y-78194114D02*
X119322593Y-78098876D01*
X119322593Y-78098876D02*
X119132117Y-78003638D01*
X119132117Y-78003638D02*
X118655926Y-78003638D01*
X118655926Y-78003638D02*
X118370212Y-78098876D01*
X117608307Y-79432209D02*
X116655926Y-79432209D01*
X117798783Y-80003638D02*
X117132117Y-78003638D01*
X117132117Y-78003638D02*
X116465450Y-80003638D01*
X114846402Y-80003638D02*
X115798783Y-80003638D01*
X115798783Y-80003638D02*
X115798783Y-78003638D01*
M02*
