%TF.GenerationSoftware,KiCad,Pcbnew,7.0.5*%
%TF.CreationDate,2023-12-12T17:16:25+05:30*%
%TF.ProjectId,charger ShutDown Circuit,63686172-6765-4722-9053-687574446f77,rev?*%
%TF.SameCoordinates,Original*%
%TF.FileFunction,Soldermask,Bot*%
%TF.FilePolarity,Negative*%
%FSLAX46Y46*%
G04 Gerber Fmt 4.6, Leading zero omitted, Abs format (unit mm)*
G04 Created by KiCad (PCBNEW 7.0.5) date 2023-12-12 17:16:25*
%MOMM*%
%LPD*%
G01*
G04 APERTURE LIST*
G04 Aperture macros list*
%AMRoundRect*
0 Rectangle with rounded corners*
0 $1 Rounding radius*
0 $2 $3 $4 $5 $6 $7 $8 $9 X,Y pos of 4 corners*
0 Add a 4 corners polygon primitive as box body*
4,1,4,$2,$3,$4,$5,$6,$7,$8,$9,$2,$3,0*
0 Add four circle primitives for the rounded corners*
1,1,$1+$1,$2,$3*
1,1,$1+$1,$4,$5*
1,1,$1+$1,$6,$7*
1,1,$1+$1,$8,$9*
0 Add four rect primitives between the rounded corners*
20,1,$1+$1,$2,$3,$4,$5,0*
20,1,$1+$1,$4,$5,$6,$7,0*
20,1,$1+$1,$6,$7,$8,$9,0*
20,1,$1+$1,$8,$9,$2,$3,0*%
G04 Aperture macros list end*
%ADD10RoundRect,0.102000X0.585000X-0.585000X0.585000X0.585000X-0.585000X0.585000X-0.585000X-0.585000X0*%
%ADD11C,1.374000*%
%ADD12R,2.000000X1.905000*%
%ADD13O,2.000000X1.905000*%
%ADD14R,1.050000X1.500000*%
%ADD15O,1.050000X1.500000*%
%ADD16R,2.200000X2.200000*%
%ADD17O,2.200000X2.200000*%
%ADD18C,1.600000*%
%ADD19O,1.600000X1.600000*%
%ADD20C,3.500000*%
%ADD21RoundRect,0.102000X0.754000X0.754000X-0.754000X0.754000X-0.754000X-0.754000X0.754000X-0.754000X0*%
%ADD22C,1.712000*%
%ADD23R,2.600000X2.600000*%
%ADD24C,2.600000*%
%ADD25C,3.000000*%
%ADD26R,3.000000X3.000000*%
%ADD27C,1.512000*%
%ADD28C,2.154000*%
%ADD29C,2.004000*%
%ADD30RoundRect,0.102000X-0.787500X-0.787500X0.787500X-0.787500X0.787500X0.787500X-0.787500X0.787500X0*%
%ADD31C,1.779000*%
G04 APERTURE END LIST*
D10*
%TO.C,U1*%
X81711800Y-61239400D03*
D11*
X84251800Y-61239400D03*
X86791800Y-61239400D03*
X89331800Y-61239400D03*
X91871800Y-61239400D03*
X94411800Y-61239400D03*
X96951800Y-61239400D03*
X96951800Y-53299400D03*
X94411800Y-53299400D03*
X91871800Y-53299400D03*
X89331800Y-53299400D03*
X86791800Y-53299400D03*
X84251800Y-53299400D03*
X81711800Y-53299400D03*
%TD*%
D12*
%TO.C,U2*%
X83134200Y-47853600D03*
D13*
X83134200Y-45313600D03*
X83134200Y-42773600D03*
%TD*%
D14*
%TO.C,Q2*%
X48183800Y-63419400D03*
D15*
X46913800Y-63419400D03*
X45643800Y-63419400D03*
%TD*%
D16*
%TO.C,D1*%
X47294800Y-23799800D03*
D17*
X57454800Y-23799800D03*
%TD*%
D18*
%TO.C,R7*%
X55600600Y-48082200D03*
D19*
X55600600Y-58242200D03*
%TD*%
D20*
%TO.C,REF\u002A\u002A*%
X133070600Y-23799800D03*
%TD*%
D21*
%TO.C,J3*%
X104209200Y-54864000D03*
D22*
X106709200Y-54864000D03*
X109209200Y-54864000D03*
X111709200Y-54864000D03*
%TD*%
D20*
%TO.C,REF\u002A\u002A*%
X132969000Y-72161400D03*
%TD*%
D18*
%TO.C,R8*%
X60325000Y-50520600D03*
D19*
X60325000Y-60680600D03*
%TD*%
D18*
%TO.C,R2*%
X90881200Y-37820600D03*
D19*
X90881200Y-27660600D03*
%TD*%
D18*
%TO.C,R5*%
X38303200Y-37744400D03*
D19*
X38303200Y-27584400D03*
%TD*%
D23*
%TO.C,J11*%
X65993000Y-69392800D03*
D24*
X70993000Y-69392800D03*
%TD*%
D18*
%TO.C,R3*%
X41376600Y-50012600D03*
D19*
X51536600Y-50012600D03*
%TD*%
D12*
%TO.C,Q3*%
X83108800Y-36423600D03*
D13*
X83108800Y-33883600D03*
X83108800Y-31343600D03*
%TD*%
D18*
%TO.C,R6*%
X41427400Y-56108600D03*
D19*
X51587400Y-56108600D03*
%TD*%
D18*
%TO.C,R4*%
X38379400Y-50495200D03*
D19*
X38379400Y-40335200D03*
%TD*%
D25*
%TO.C,K2*%
X74167100Y-52844100D03*
X74167100Y-47844100D03*
X74167100Y-57844100D03*
X66667100Y-52844100D03*
X66667100Y-47844100D03*
X66667100Y-57844100D03*
D26*
X74167100Y-32844100D03*
D25*
X66667100Y-32844100D03*
%TD*%
D27*
%TO.C,K5*%
X111918000Y-29616900D03*
X99918000Y-29616900D03*
D28*
X105798000Y-27616900D03*
D29*
X111918000Y-41816900D03*
X99918000Y-41816900D03*
%TD*%
D23*
%TO.C,J10*%
X53862600Y-69266000D03*
D24*
X58862600Y-69266000D03*
%TD*%
D27*
%TO.C,K1*%
X57816000Y-29997900D03*
X45816000Y-29997900D03*
D28*
X51696000Y-27997900D03*
D29*
X57816000Y-42197900D03*
X45816000Y-42197900D03*
%TD*%
D23*
%TO.C,J7*%
X35676200Y-65176600D03*
D24*
X40676200Y-65176600D03*
%TD*%
D14*
%TO.C,Q4*%
X36728400Y-54991000D03*
D15*
X35458400Y-54991000D03*
X34188400Y-54991000D03*
%TD*%
D12*
%TO.C,Q1*%
X32588200Y-43256200D03*
D13*
X32588200Y-40716200D03*
X32588200Y-38176200D03*
%TD*%
D18*
%TO.C,R1*%
X90830400Y-50546000D03*
D19*
X90830400Y-40386000D03*
%TD*%
D23*
%TO.C,J1*%
X120385200Y-64719400D03*
D24*
X125385200Y-64719400D03*
%TD*%
D20*
%TO.C,REF\u002A\u002A*%
X29438600Y-72898000D03*
%TD*%
D30*
%TO.C,J4*%
X83362800Y-69291200D03*
D31*
X80862800Y-69291200D03*
%TD*%
D16*
%TO.C,D2*%
X100304600Y-23291800D03*
D17*
X110464600Y-23291800D03*
%TD*%
D23*
%TO.C,J6*%
X104829600Y-69519800D03*
D24*
X109829600Y-69519800D03*
%TD*%
D25*
%TO.C,K3*%
X126999100Y-51066100D03*
X126999100Y-46066100D03*
X126999100Y-56066100D03*
X119499100Y-51066100D03*
X119499100Y-46066100D03*
X119499100Y-56066100D03*
D26*
X126999100Y-31066100D03*
D25*
X119499100Y-31066100D03*
%TD*%
D23*
%TO.C,J2*%
X91784800Y-69418400D03*
D24*
X96784800Y-69418400D03*
%TD*%
D20*
%TO.C,REF\u002A\u002A*%
X29794200Y-24333200D03*
%TD*%
M02*
