%TF.GenerationSoftware,KiCad,Pcbnew,7.0.5*%
%TF.CreationDate,2023-12-12T17:16:22+05:30*%
%TF.ProjectId,charger ShutDown Circuit,63686172-6765-4722-9053-687574446f77,rev?*%
%TF.SameCoordinates,Original*%
%TF.FileFunction,Drillmap*%
%TF.FilePolarity,Positive*%
%FSLAX45Y45*%
G04 Gerber Fmt 4.5, Leading zero omitted, Abs format (unit mm)*
G04 Created by KiCad (PCBNEW 7.0.5) date 2023-12-12 17:16:22*
%MOMM*%
%LPD*%
G01*
G04 APERTURE LIST*
%ADD10C,0.050000*%
%ADD11C,0.200000*%
%ADD12C,0.030000*%
%ADD13C,0.075000*%
%ADD14C,0.077000*%
%ADD15C,0.080000*%
%ADD16C,0.100000*%
%ADD17C,0.105000*%
%ADD18C,0.110000*%
%ADD19C,0.120000*%
%ADD20C,0.130000*%
%ADD21C,0.150000*%
G04 APERTURE END LIST*
D10*
X2486660Y-1844040D02*
X13804900Y-1844040D01*
X13804900Y-7762240D01*
X2486660Y-7762240D01*
X2486660Y-1844040D01*
D11*
D12*
X5037060Y-5887960D02*
X5067060Y-5917960D01*
X5067060Y-5887960D02*
X5037060Y-5917960D01*
X5039600Y-6007340D02*
X5069600Y-6037340D01*
X5069600Y-6007340D02*
X5039600Y-6037340D01*
X8028170Y-5589410D02*
X8058170Y-5619410D01*
X8058170Y-5589410D02*
X8028170Y-5619410D01*
X10028160Y-6053060D02*
X10058160Y-6083060D01*
X10058160Y-6053060D02*
X10028160Y-6083060D01*
X10368520Y-6136880D02*
X10398520Y-6166880D01*
X10398520Y-6136880D02*
X10368520Y-6166880D01*
D13*
X3456340Y-5499100D02*
G75*
G03*
X3456340Y-5499100I-37500J0D01*
G01*
X3583340Y-5499100D02*
G75*
G03*
X3583340Y-5499100I-37500J0D01*
G01*
X3710340Y-5499100D02*
G75*
G03*
X3710340Y-5499100I-37500J0D01*
G01*
X4601880Y-6341940D02*
G75*
G03*
X4601880Y-6341940I-37500J0D01*
G01*
X4728880Y-6341940D02*
G75*
G03*
X4728880Y-6341940I-37500J0D01*
G01*
X4855880Y-6341940D02*
G75*
G03*
X4855880Y-6341940I-37500J0D01*
G01*
D14*
X8171180Y-5291440D02*
X8171180Y-5368440D01*
X8132680Y-5329940D02*
X8209680Y-5329940D01*
X8171180Y-6085440D02*
X8171180Y-6162440D01*
X8132680Y-6123940D02*
X8209680Y-6123940D01*
X8425180Y-5291440D02*
X8425180Y-5368440D01*
X8386680Y-5329940D02*
X8463680Y-5329940D01*
X8425180Y-6085440D02*
X8425180Y-6162440D01*
X8386680Y-6123940D02*
X8463680Y-6123940D01*
X8679180Y-5291440D02*
X8679180Y-5368440D01*
X8640680Y-5329940D02*
X8717680Y-5329940D01*
X8679180Y-6085440D02*
X8679180Y-6162440D01*
X8640680Y-6123940D02*
X8717680Y-6123940D01*
X8933180Y-5291440D02*
X8933180Y-5368440D01*
X8894680Y-5329940D02*
X8971680Y-5329940D01*
X8933180Y-6085440D02*
X8933180Y-6162440D01*
X8894680Y-6123940D02*
X8971680Y-6123940D01*
X9187180Y-5291440D02*
X9187180Y-5368440D01*
X9148680Y-5329940D02*
X9225680Y-5329940D01*
X9187180Y-6085440D02*
X9187180Y-6162440D01*
X9148680Y-6123940D02*
X9225680Y-6123940D01*
X9441180Y-5291440D02*
X9441180Y-5368440D01*
X9402680Y-5329940D02*
X9479680Y-5329940D01*
X9441180Y-6085440D02*
X9441180Y-6162440D01*
X9402680Y-6123940D02*
X9479680Y-6123940D01*
X9695180Y-5291440D02*
X9695180Y-5368440D01*
X9656680Y-5329940D02*
X9733680Y-5329940D01*
X9695180Y-6085440D02*
X9695180Y-6162440D01*
X9656680Y-6123940D02*
X9733680Y-6123940D01*
D15*
X3858604Y-2786725D02*
X3858604Y-2730156D01*
X3802035Y-2730156D01*
X3802035Y-2786725D01*
X3858604Y-2786725D01*
X3858604Y-3802724D02*
X3858604Y-3746155D01*
X3802035Y-3746155D01*
X3802035Y-3802724D01*
X3858604Y-3802724D01*
X3866224Y-4061804D02*
X3866224Y-4005235D01*
X3809655Y-4005235D01*
X3809655Y-4061804D01*
X3866224Y-4061804D01*
X3866224Y-5077805D02*
X3866224Y-5021236D01*
X3809655Y-5021236D01*
X3809655Y-5077805D01*
X3866224Y-5077805D01*
X4165944Y-5029545D02*
X4165944Y-4972976D01*
X4109375Y-4972976D01*
X4109375Y-5029545D01*
X4165944Y-5029545D01*
X4171024Y-5639144D02*
X4171024Y-5582576D01*
X4114455Y-5582576D01*
X4114455Y-5639144D01*
X4171024Y-5639144D01*
X4609885Y-3028074D02*
X4609885Y-2971505D01*
X4553316Y-2971505D01*
X4553316Y-3028074D01*
X4609885Y-3028074D01*
X5181945Y-5029545D02*
X5181945Y-4972976D01*
X5125376Y-4972976D01*
X5125376Y-5029545D01*
X5181945Y-5029545D01*
X5187025Y-5639144D02*
X5187025Y-5582576D01*
X5130456Y-5582576D01*
X5130456Y-5639144D01*
X5187025Y-5639144D01*
X5588345Y-4836505D02*
X5588345Y-4779936D01*
X5531776Y-4779936D01*
X5531776Y-4836505D01*
X5588345Y-4836505D01*
X5588345Y-5852504D02*
X5588345Y-5795935D01*
X5531776Y-5795935D01*
X5531776Y-5852504D01*
X5588345Y-5852504D01*
X5809884Y-3028074D02*
X5809884Y-2971505D01*
X5753315Y-2971505D01*
X5753315Y-3028074D01*
X5809884Y-3028074D01*
X6060784Y-5080345D02*
X6060784Y-5023776D01*
X6004215Y-5023776D01*
X6004215Y-5080345D01*
X6060784Y-5080345D01*
X6060784Y-6096344D02*
X6060784Y-6039775D01*
X6004215Y-6039775D01*
X6004215Y-6096344D01*
X6060784Y-6096344D01*
X9111325Y-4066884D02*
X9111325Y-4010315D01*
X9054756Y-4010315D01*
X9054756Y-4066884D01*
X9111325Y-4066884D01*
X9111325Y-5082885D02*
X9111325Y-5026316D01*
X9054756Y-5026316D01*
X9054756Y-5082885D01*
X9111325Y-5082885D01*
X9116405Y-2794345D02*
X9116405Y-2737776D01*
X9059836Y-2737776D01*
X9059836Y-2794345D01*
X9116405Y-2794345D01*
X9116405Y-3810344D02*
X9116405Y-3753775D01*
X9059836Y-3753775D01*
X9059836Y-3810344D01*
X9116405Y-3810344D01*
X10020085Y-2989974D02*
X10020085Y-2933405D01*
X9963516Y-2933405D01*
X9963516Y-2989974D01*
X10020085Y-2989974D01*
X11220084Y-2989974D02*
X11220084Y-2933405D01*
X11163516Y-2933405D01*
X11163516Y-2989974D01*
X11220084Y-2989974D01*
D16*
X10420920Y-5536400D02*
X10470920Y-5486400D01*
X10420920Y-5436400D01*
X10370920Y-5486400D01*
X10420920Y-5536400D01*
X10670920Y-5536400D02*
X10720920Y-5486400D01*
X10670920Y-5436400D01*
X10620920Y-5486400D01*
X10670920Y-5536400D01*
X10920920Y-5536400D02*
X10970920Y-5486400D01*
X10920920Y-5436400D01*
X10870920Y-5486400D01*
X10920920Y-5536400D01*
X11170920Y-5536400D02*
X11220920Y-5486400D01*
X11170920Y-5436400D01*
X11120920Y-5486400D01*
X11170920Y-5536400D01*
D17*
X8033780Y-6876620D02*
X8138780Y-6981620D01*
X8138780Y-6876620D02*
X8033780Y-6981620D01*
X8138780Y-6929120D02*
G75*
G03*
X8138780Y-6929120I-52500J0D01*
G01*
X8283780Y-6876620D02*
X8388780Y-6981620D01*
X8388780Y-6876620D02*
X8283780Y-6981620D01*
X8388780Y-6929120D02*
G75*
G03*
X8388780Y-6929120I-52500J0D01*
G01*
D18*
X3203820Y-3762620D02*
X3313820Y-3872620D01*
X3313820Y-3762620D02*
X3203820Y-3872620D01*
X3258820Y-3762620D02*
X3258820Y-3872620D01*
X3203820Y-3817620D02*
X3313820Y-3817620D01*
X3203820Y-4016620D02*
X3313820Y-4126620D01*
X3313820Y-4016620D02*
X3203820Y-4126620D01*
X3258820Y-4016620D02*
X3258820Y-4126620D01*
X3203820Y-4071620D02*
X3313820Y-4071620D01*
X3203820Y-4270620D02*
X3313820Y-4380620D01*
X3313820Y-4270620D02*
X3203820Y-4380620D01*
X3258820Y-4270620D02*
X3258820Y-4380620D01*
X3203820Y-4325620D02*
X3313820Y-4325620D01*
X4674480Y-2324980D02*
X4784480Y-2434980D01*
X4784480Y-2324980D02*
X4674480Y-2434980D01*
X4729480Y-2324980D02*
X4729480Y-2434980D01*
X4674480Y-2379980D02*
X4784480Y-2379980D01*
X5690480Y-2324980D02*
X5800480Y-2434980D01*
X5800480Y-2324980D02*
X5690480Y-2434980D01*
X5745480Y-2324980D02*
X5745480Y-2434980D01*
X5690480Y-2379980D02*
X5800480Y-2379980D01*
X8255880Y-3079360D02*
X8365880Y-3189360D01*
X8365880Y-3079360D02*
X8255880Y-3189360D01*
X8310880Y-3079360D02*
X8310880Y-3189360D01*
X8255880Y-3134360D02*
X8365880Y-3134360D01*
X8255880Y-3333360D02*
X8365880Y-3443360D01*
X8365880Y-3333360D02*
X8255880Y-3443360D01*
X8310880Y-3333360D02*
X8310880Y-3443360D01*
X8255880Y-3388360D02*
X8365880Y-3388360D01*
X8255880Y-3587360D02*
X8365880Y-3697360D01*
X8365880Y-3587360D02*
X8255880Y-3697360D01*
X8310880Y-3587360D02*
X8310880Y-3697360D01*
X8255880Y-3642360D02*
X8365880Y-3642360D01*
X8258420Y-4222360D02*
X8368420Y-4332360D01*
X8368420Y-4222360D02*
X8258420Y-4332360D01*
X8313420Y-4222360D02*
X8313420Y-4332360D01*
X8258420Y-4277360D02*
X8368420Y-4277360D01*
X8258420Y-4476360D02*
X8368420Y-4586360D01*
X8368420Y-4476360D02*
X8258420Y-4586360D01*
X8313420Y-4476360D02*
X8313420Y-4586360D01*
X8258420Y-4531360D02*
X8368420Y-4531360D01*
X8258420Y-4730360D02*
X8368420Y-4840360D01*
X8368420Y-4730360D02*
X8258420Y-4840360D01*
X8313420Y-4730360D02*
X8313420Y-4840360D01*
X8258420Y-4785360D02*
X8368420Y-4785360D01*
X9975460Y-2274180D02*
X10085460Y-2384180D01*
X10085460Y-2274180D02*
X9975460Y-2384180D01*
X10030460Y-2274180D02*
X10030460Y-2384180D01*
X9975460Y-2329180D02*
X10085460Y-2329180D01*
X10991460Y-2274180D02*
X11101460Y-2384180D01*
X11101460Y-2274180D02*
X10991460Y-2384180D01*
X11046460Y-2274180D02*
X11046460Y-2384180D01*
X10991460Y-2329180D02*
X11101460Y-2329180D01*
D19*
X4521600Y-4159790D02*
X4641600Y-4279790D01*
X4641600Y-4159790D02*
X4521600Y-4279790D01*
X4624027Y-4262217D02*
X4624027Y-4177363D01*
X4539173Y-4177363D01*
X4539173Y-4262217D01*
X4624027Y-4262217D01*
X5721600Y-4159790D02*
X5841600Y-4279790D01*
X5841600Y-4159790D02*
X5721600Y-4279790D01*
X5824027Y-4262217D02*
X5824027Y-4177363D01*
X5739173Y-4177363D01*
X5739173Y-4262217D01*
X5824027Y-4262217D01*
X9931800Y-4121690D02*
X10051800Y-4241690D01*
X10051800Y-4121690D02*
X9931800Y-4241690D01*
X10034227Y-4224117D02*
X10034227Y-4139263D01*
X9949373Y-4139263D01*
X9949373Y-4224117D01*
X10034227Y-4224117D01*
X11131800Y-4121690D02*
X11251800Y-4241690D01*
X11251800Y-4121690D02*
X11131800Y-4241690D01*
X11234227Y-4224117D02*
X11234227Y-4139263D01*
X11149373Y-4139263D01*
X11149373Y-4224117D01*
X11234227Y-4224117D01*
D20*
X3502620Y-6452660D02*
X3632620Y-6582660D01*
X3632620Y-6452660D02*
X3502620Y-6582660D01*
X3567620Y-6582660D02*
X3632620Y-6517660D01*
X3567620Y-6452660D01*
X3502620Y-6517660D01*
X3567620Y-6582660D01*
X4002620Y-6452660D02*
X4132620Y-6582660D01*
X4132620Y-6452660D02*
X4002620Y-6582660D01*
X4067620Y-6582660D02*
X4132620Y-6517660D01*
X4067620Y-6452660D01*
X4002620Y-6517660D01*
X4067620Y-6582660D01*
X5104600Y-2734790D02*
X5234600Y-2864790D01*
X5234600Y-2734790D02*
X5104600Y-2864790D01*
X5169600Y-2864790D02*
X5234600Y-2799790D01*
X5169600Y-2734790D01*
X5104600Y-2799790D01*
X5169600Y-2864790D01*
X5321260Y-6861600D02*
X5451260Y-6991600D01*
X5451260Y-6861600D02*
X5321260Y-6991600D01*
X5386260Y-6991600D02*
X5451260Y-6926600D01*
X5386260Y-6861600D01*
X5321260Y-6926600D01*
X5386260Y-6991600D01*
X5821260Y-6861600D02*
X5951260Y-6991600D01*
X5951260Y-6861600D02*
X5821260Y-6991600D01*
X5886260Y-6991600D02*
X5951260Y-6926600D01*
X5886260Y-6861600D01*
X5821260Y-6926600D01*
X5886260Y-6991600D01*
X6534300Y-6874280D02*
X6664300Y-7004280D01*
X6664300Y-6874280D02*
X6534300Y-7004280D01*
X6599300Y-7004280D02*
X6664300Y-6939280D01*
X6599300Y-6874280D01*
X6534300Y-6939280D01*
X6599300Y-7004280D01*
X7034300Y-6874280D02*
X7164300Y-7004280D01*
X7164300Y-6874280D02*
X7034300Y-7004280D01*
X7099300Y-7004280D02*
X7164300Y-6939280D01*
X7099300Y-6874280D01*
X7034300Y-6939280D01*
X7099300Y-7004280D01*
X9113480Y-6876840D02*
X9243480Y-7006840D01*
X9243480Y-6876840D02*
X9113480Y-7006840D01*
X9178480Y-7006840D02*
X9243480Y-6941840D01*
X9178480Y-6876840D01*
X9113480Y-6941840D01*
X9178480Y-7006840D01*
X9613480Y-6876840D02*
X9743480Y-7006840D01*
X9743480Y-6876840D02*
X9613480Y-7006840D01*
X9678480Y-7006840D02*
X9743480Y-6941840D01*
X9678480Y-6876840D01*
X9613480Y-6941840D01*
X9678480Y-7006840D01*
X10417960Y-6886980D02*
X10547960Y-7016980D01*
X10547960Y-6886980D02*
X10417960Y-7016980D01*
X10482960Y-7016980D02*
X10547960Y-6951980D01*
X10482960Y-6886980D01*
X10417960Y-6951980D01*
X10482960Y-7016980D01*
X10514800Y-2696690D02*
X10644800Y-2826690D01*
X10644800Y-2696690D02*
X10514800Y-2826690D01*
X10579800Y-2826690D02*
X10644800Y-2761690D01*
X10579800Y-2696690D01*
X10514800Y-2761690D01*
X10579800Y-2826690D01*
X10917960Y-6886980D02*
X11047960Y-7016980D01*
X11047960Y-6886980D02*
X10917960Y-7016980D01*
X10982960Y-7016980D02*
X11047960Y-6951980D01*
X10982960Y-6886980D01*
X10917960Y-6951980D01*
X10982960Y-7016980D01*
X11973520Y-6406940D02*
X12103520Y-6536940D01*
X12103520Y-6406940D02*
X11973520Y-6536940D01*
X12038520Y-6536940D02*
X12103520Y-6471940D01*
X12038520Y-6406940D01*
X11973520Y-6471940D01*
X12038520Y-6536940D01*
X12473520Y-6406940D02*
X12603520Y-6536940D01*
X12603520Y-6406940D02*
X12473520Y-6536940D01*
X12538520Y-6536940D02*
X12603520Y-6471940D01*
X12538520Y-6406940D01*
X12473520Y-6471940D01*
X12538520Y-6536940D01*
D21*
X6666710Y-3209410D02*
X6666710Y-3359410D01*
X6591710Y-3284410D02*
X6741710Y-3284410D01*
X6741710Y-3284410D02*
G75*
G03*
X6741710Y-3284410I-75000J0D01*
G01*
X6666710Y-4709410D02*
X6666710Y-4859410D01*
X6591710Y-4784410D02*
X6741710Y-4784410D01*
X6741710Y-4784410D02*
G75*
G03*
X6741710Y-4784410I-75000J0D01*
G01*
X6666710Y-5209410D02*
X6666710Y-5359410D01*
X6591710Y-5284410D02*
X6741710Y-5284410D01*
X6741710Y-5284410D02*
G75*
G03*
X6741710Y-5284410I-75000J0D01*
G01*
X6666710Y-5709410D02*
X6666710Y-5859410D01*
X6591710Y-5784410D02*
X6741710Y-5784410D01*
X6741710Y-5784410D02*
G75*
G03*
X6741710Y-5784410I-75000J0D01*
G01*
X7416710Y-3209410D02*
X7416710Y-3359410D01*
X7341710Y-3284410D02*
X7491710Y-3284410D01*
X7491710Y-3284410D02*
G75*
G03*
X7491710Y-3284410I-75000J0D01*
G01*
X7416710Y-4709410D02*
X7416710Y-4859410D01*
X7341710Y-4784410D02*
X7491710Y-4784410D01*
X7491710Y-4784410D02*
G75*
G03*
X7491710Y-4784410I-75000J0D01*
G01*
X7416710Y-5209410D02*
X7416710Y-5359410D01*
X7341710Y-5284410D02*
X7491710Y-5284410D01*
X7491710Y-5284410D02*
G75*
G03*
X7491710Y-5284410I-75000J0D01*
G01*
X7416710Y-5709410D02*
X7416710Y-5859410D01*
X7341710Y-5784410D02*
X7491710Y-5784410D01*
X7491710Y-5784410D02*
G75*
G03*
X7491710Y-5784410I-75000J0D01*
G01*
X11949910Y-3031610D02*
X11949910Y-3181610D01*
X11874910Y-3106610D02*
X12024910Y-3106610D01*
X12024910Y-3106610D02*
G75*
G03*
X12024910Y-3106610I-75000J0D01*
G01*
X11949910Y-4531610D02*
X11949910Y-4681610D01*
X11874910Y-4606610D02*
X12024910Y-4606610D01*
X12024910Y-4606610D02*
G75*
G03*
X12024910Y-4606610I-75000J0D01*
G01*
X11949910Y-5031610D02*
X11949910Y-5181610D01*
X11874910Y-5106610D02*
X12024910Y-5106610D01*
X12024910Y-5106610D02*
G75*
G03*
X12024910Y-5106610I-75000J0D01*
G01*
X11949910Y-5531610D02*
X11949910Y-5681610D01*
X11874910Y-5606610D02*
X12024910Y-5606610D01*
X12024910Y-5606610D02*
G75*
G03*
X12024910Y-5606610I-75000J0D01*
G01*
X12699910Y-3031610D02*
X12699910Y-3181610D01*
X12624910Y-3106610D02*
X12774910Y-3106610D01*
X12774910Y-3106610D02*
G75*
G03*
X12774910Y-3106610I-75000J0D01*
G01*
X12699910Y-4531610D02*
X12699910Y-4681610D01*
X12624910Y-4606610D02*
X12774910Y-4606610D01*
X12774910Y-4606610D02*
G75*
G03*
X12774910Y-4606610I-75000J0D01*
G01*
X12699910Y-5031610D02*
X12699910Y-5181610D01*
X12624910Y-5106610D02*
X12774910Y-5106610D01*
X12774910Y-5106610D02*
G75*
G03*
X12774910Y-5106610I-75000J0D01*
G01*
X12699910Y-5531610D02*
X12699910Y-5681610D01*
X12624910Y-5606610D02*
X12774910Y-5606610D01*
X12774910Y-5606610D02*
G75*
G03*
X12774910Y-5606610I-75000J0D01*
G01*
D11*
X2744937Y-8076224D02*
X2744937Y-7876224D01*
X2744937Y-7876224D02*
X2792556Y-7876224D01*
X2792556Y-7876224D02*
X2821127Y-7885748D01*
X2821127Y-7885748D02*
X2840175Y-7904795D01*
X2840175Y-7904795D02*
X2849699Y-7923843D01*
X2849699Y-7923843D02*
X2859222Y-7961938D01*
X2859222Y-7961938D02*
X2859222Y-7990509D01*
X2859222Y-7990509D02*
X2849699Y-8028605D01*
X2849699Y-8028605D02*
X2840175Y-8047652D01*
X2840175Y-8047652D02*
X2821127Y-8066700D01*
X2821127Y-8066700D02*
X2792556Y-8076224D01*
X2792556Y-8076224D02*
X2744937Y-8076224D01*
X2944937Y-8076224D02*
X2944937Y-7942890D01*
X2944937Y-7980986D02*
X2954461Y-7961938D01*
X2954461Y-7961938D02*
X2963984Y-7952414D01*
X2963984Y-7952414D02*
X2983032Y-7942890D01*
X2983032Y-7942890D02*
X3002080Y-7942890D01*
X3068746Y-8076224D02*
X3068746Y-7942890D01*
X3068746Y-7876224D02*
X3059222Y-7885748D01*
X3059222Y-7885748D02*
X3068746Y-7895271D01*
X3068746Y-7895271D02*
X3078270Y-7885748D01*
X3078270Y-7885748D02*
X3068746Y-7876224D01*
X3068746Y-7876224D02*
X3068746Y-7895271D01*
X3192556Y-8076224D02*
X3173508Y-8066700D01*
X3173508Y-8066700D02*
X3163984Y-8047652D01*
X3163984Y-8047652D02*
X3163984Y-7876224D01*
X3297318Y-8076224D02*
X3278270Y-8066700D01*
X3278270Y-8066700D02*
X3268746Y-8047652D01*
X3268746Y-8047652D02*
X3268746Y-7876224D01*
X3525889Y-8076224D02*
X3525889Y-7876224D01*
X3525889Y-7876224D02*
X3592556Y-8019081D01*
X3592556Y-8019081D02*
X3659222Y-7876224D01*
X3659222Y-7876224D02*
X3659222Y-8076224D01*
X3840175Y-8076224D02*
X3840175Y-7971462D01*
X3840175Y-7971462D02*
X3830651Y-7952414D01*
X3830651Y-7952414D02*
X3811603Y-7942890D01*
X3811603Y-7942890D02*
X3773508Y-7942890D01*
X3773508Y-7942890D02*
X3754461Y-7952414D01*
X3840175Y-8066700D02*
X3821127Y-8076224D01*
X3821127Y-8076224D02*
X3773508Y-8076224D01*
X3773508Y-8076224D02*
X3754461Y-8066700D01*
X3754461Y-8066700D02*
X3744937Y-8047652D01*
X3744937Y-8047652D02*
X3744937Y-8028605D01*
X3744937Y-8028605D02*
X3754461Y-8009557D01*
X3754461Y-8009557D02*
X3773508Y-8000033D01*
X3773508Y-8000033D02*
X3821127Y-8000033D01*
X3821127Y-8000033D02*
X3840175Y-7990509D01*
X3935413Y-7942890D02*
X3935413Y-8142890D01*
X3935413Y-7952414D02*
X3954461Y-7942890D01*
X3954461Y-7942890D02*
X3992556Y-7942890D01*
X3992556Y-7942890D02*
X4011603Y-7952414D01*
X4011603Y-7952414D02*
X4021127Y-7961938D01*
X4021127Y-7961938D02*
X4030651Y-7980986D01*
X4030651Y-7980986D02*
X4030651Y-8038128D01*
X4030651Y-8038128D02*
X4021127Y-8057176D01*
X4021127Y-8057176D02*
X4011603Y-8066700D01*
X4011603Y-8066700D02*
X3992556Y-8076224D01*
X3992556Y-8076224D02*
X3954461Y-8076224D01*
X3954461Y-8076224D02*
X3935413Y-8066700D01*
X4116365Y-8057176D02*
X4125889Y-8066700D01*
X4125889Y-8066700D02*
X4116365Y-8076224D01*
X4116365Y-8076224D02*
X4106842Y-8066700D01*
X4106842Y-8066700D02*
X4116365Y-8057176D01*
X4116365Y-8057176D02*
X4116365Y-8076224D01*
X4116365Y-7952414D02*
X4125889Y-7961938D01*
X4125889Y-7961938D02*
X4116365Y-7971462D01*
X4116365Y-7971462D02*
X4106842Y-7961938D01*
X4106842Y-7961938D02*
X4116365Y-7952414D01*
X4116365Y-7952414D02*
X4116365Y-7971462D01*
D12*
X2454160Y-8389740D02*
X2484160Y-8419740D01*
X2484160Y-8389740D02*
X2454160Y-8419740D01*
D11*
X2783032Y-8296224D02*
X2802080Y-8296224D01*
X2802080Y-8296224D02*
X2821127Y-8305748D01*
X2821127Y-8305748D02*
X2830651Y-8315271D01*
X2830651Y-8315271D02*
X2840175Y-8334319D01*
X2840175Y-8334319D02*
X2849699Y-8372414D01*
X2849699Y-8372414D02*
X2849699Y-8420033D01*
X2849699Y-8420033D02*
X2840175Y-8458129D01*
X2840175Y-8458129D02*
X2830651Y-8477176D01*
X2830651Y-8477176D02*
X2821127Y-8486700D01*
X2821127Y-8486700D02*
X2802080Y-8496224D01*
X2802080Y-8496224D02*
X2783032Y-8496224D01*
X2783032Y-8496224D02*
X2763984Y-8486700D01*
X2763984Y-8486700D02*
X2754461Y-8477176D01*
X2754461Y-8477176D02*
X2744937Y-8458129D01*
X2744937Y-8458129D02*
X2735413Y-8420033D01*
X2735413Y-8420033D02*
X2735413Y-8372414D01*
X2735413Y-8372414D02*
X2744937Y-8334319D01*
X2744937Y-8334319D02*
X2754461Y-8315271D01*
X2754461Y-8315271D02*
X2763984Y-8305748D01*
X2763984Y-8305748D02*
X2783032Y-8296224D01*
X2935413Y-8477176D02*
X2944937Y-8486700D01*
X2944937Y-8486700D02*
X2935413Y-8496224D01*
X2935413Y-8496224D02*
X2925889Y-8486700D01*
X2925889Y-8486700D02*
X2935413Y-8477176D01*
X2935413Y-8477176D02*
X2935413Y-8496224D01*
X3011603Y-8296224D02*
X3135413Y-8296224D01*
X3135413Y-8296224D02*
X3068746Y-8372414D01*
X3068746Y-8372414D02*
X3097318Y-8372414D01*
X3097318Y-8372414D02*
X3116365Y-8381938D01*
X3116365Y-8381938D02*
X3125889Y-8391462D01*
X3125889Y-8391462D02*
X3135413Y-8410510D01*
X3135413Y-8410510D02*
X3135413Y-8458129D01*
X3135413Y-8458129D02*
X3125889Y-8477176D01*
X3125889Y-8477176D02*
X3116365Y-8486700D01*
X3116365Y-8486700D02*
X3097318Y-8496224D01*
X3097318Y-8496224D02*
X3040175Y-8496224D01*
X3040175Y-8496224D02*
X3021127Y-8486700D01*
X3021127Y-8486700D02*
X3011603Y-8477176D01*
X3259222Y-8296224D02*
X3278270Y-8296224D01*
X3278270Y-8296224D02*
X3297318Y-8305748D01*
X3297318Y-8305748D02*
X3306842Y-8315271D01*
X3306842Y-8315271D02*
X3316365Y-8334319D01*
X3316365Y-8334319D02*
X3325889Y-8372414D01*
X3325889Y-8372414D02*
X3325889Y-8420033D01*
X3325889Y-8420033D02*
X3316365Y-8458129D01*
X3316365Y-8458129D02*
X3306842Y-8477176D01*
X3306842Y-8477176D02*
X3297318Y-8486700D01*
X3297318Y-8486700D02*
X3278270Y-8496224D01*
X3278270Y-8496224D02*
X3259222Y-8496224D01*
X3259222Y-8496224D02*
X3240175Y-8486700D01*
X3240175Y-8486700D02*
X3230651Y-8477176D01*
X3230651Y-8477176D02*
X3221127Y-8458129D01*
X3221127Y-8458129D02*
X3211603Y-8420033D01*
X3211603Y-8420033D02*
X3211603Y-8372414D01*
X3211603Y-8372414D02*
X3221127Y-8334319D01*
X3221127Y-8334319D02*
X3230651Y-8315271D01*
X3230651Y-8315271D02*
X3240175Y-8305748D01*
X3240175Y-8305748D02*
X3259222Y-8296224D01*
X3449699Y-8296224D02*
X3468746Y-8296224D01*
X3468746Y-8296224D02*
X3487794Y-8305748D01*
X3487794Y-8305748D02*
X3497318Y-8315271D01*
X3497318Y-8315271D02*
X3506842Y-8334319D01*
X3506842Y-8334319D02*
X3516365Y-8372414D01*
X3516365Y-8372414D02*
X3516365Y-8420033D01*
X3516365Y-8420033D02*
X3506842Y-8458129D01*
X3506842Y-8458129D02*
X3497318Y-8477176D01*
X3497318Y-8477176D02*
X3487794Y-8486700D01*
X3487794Y-8486700D02*
X3468746Y-8496224D01*
X3468746Y-8496224D02*
X3449699Y-8496224D01*
X3449699Y-8496224D02*
X3430651Y-8486700D01*
X3430651Y-8486700D02*
X3421127Y-8477176D01*
X3421127Y-8477176D02*
X3411603Y-8458129D01*
X3411603Y-8458129D02*
X3402080Y-8420033D01*
X3402080Y-8420033D02*
X3402080Y-8372414D01*
X3402080Y-8372414D02*
X3411603Y-8334319D01*
X3411603Y-8334319D02*
X3421127Y-8315271D01*
X3421127Y-8315271D02*
X3430651Y-8305748D01*
X3430651Y-8305748D02*
X3449699Y-8296224D01*
X3602080Y-8496224D02*
X3602080Y-8362890D01*
X3602080Y-8381938D02*
X3611603Y-8372414D01*
X3611603Y-8372414D02*
X3630651Y-8362890D01*
X3630651Y-8362890D02*
X3659223Y-8362890D01*
X3659223Y-8362890D02*
X3678270Y-8372414D01*
X3678270Y-8372414D02*
X3687794Y-8391462D01*
X3687794Y-8391462D02*
X3687794Y-8496224D01*
X3687794Y-8391462D02*
X3697318Y-8372414D01*
X3697318Y-8372414D02*
X3716365Y-8362890D01*
X3716365Y-8362890D02*
X3744937Y-8362890D01*
X3744937Y-8362890D02*
X3763984Y-8372414D01*
X3763984Y-8372414D02*
X3773508Y-8391462D01*
X3773508Y-8391462D02*
X3773508Y-8496224D01*
X3868746Y-8496224D02*
X3868746Y-8362890D01*
X3868746Y-8381938D02*
X3878270Y-8372414D01*
X3878270Y-8372414D02*
X3897318Y-8362890D01*
X3897318Y-8362890D02*
X3925889Y-8362890D01*
X3925889Y-8362890D02*
X3944937Y-8372414D01*
X3944937Y-8372414D02*
X3954461Y-8391462D01*
X3954461Y-8391462D02*
X3954461Y-8496224D01*
X3954461Y-8391462D02*
X3963984Y-8372414D01*
X3963984Y-8372414D02*
X3983032Y-8362890D01*
X3983032Y-8362890D02*
X4011603Y-8362890D01*
X4011603Y-8362890D02*
X4030651Y-8372414D01*
X4030651Y-8372414D02*
X4040175Y-8391462D01*
X4040175Y-8391462D02*
X4040175Y-8496224D01*
X4430651Y-8286700D02*
X4259223Y-8543843D01*
X4687794Y-8296224D02*
X4706842Y-8296224D01*
X4706842Y-8296224D02*
X4725889Y-8305748D01*
X4725889Y-8305748D02*
X4735413Y-8315271D01*
X4735413Y-8315271D02*
X4744937Y-8334319D01*
X4744937Y-8334319D02*
X4754461Y-8372414D01*
X4754461Y-8372414D02*
X4754461Y-8420033D01*
X4754461Y-8420033D02*
X4744937Y-8458129D01*
X4744937Y-8458129D02*
X4735413Y-8477176D01*
X4735413Y-8477176D02*
X4725889Y-8486700D01*
X4725889Y-8486700D02*
X4706842Y-8496224D01*
X4706842Y-8496224D02*
X4687794Y-8496224D01*
X4687794Y-8496224D02*
X4668747Y-8486700D01*
X4668747Y-8486700D02*
X4659223Y-8477176D01*
X4659223Y-8477176D02*
X4649699Y-8458129D01*
X4649699Y-8458129D02*
X4640175Y-8420033D01*
X4640175Y-8420033D02*
X4640175Y-8372414D01*
X4640175Y-8372414D02*
X4649699Y-8334319D01*
X4649699Y-8334319D02*
X4659223Y-8315271D01*
X4659223Y-8315271D02*
X4668747Y-8305748D01*
X4668747Y-8305748D02*
X4687794Y-8296224D01*
X4840175Y-8477176D02*
X4849699Y-8486700D01*
X4849699Y-8486700D02*
X4840175Y-8496224D01*
X4840175Y-8496224D02*
X4830651Y-8486700D01*
X4830651Y-8486700D02*
X4840175Y-8477176D01*
X4840175Y-8477176D02*
X4840175Y-8496224D01*
X4973508Y-8296224D02*
X4992556Y-8296224D01*
X4992556Y-8296224D02*
X5011604Y-8305748D01*
X5011604Y-8305748D02*
X5021128Y-8315271D01*
X5021128Y-8315271D02*
X5030651Y-8334319D01*
X5030651Y-8334319D02*
X5040175Y-8372414D01*
X5040175Y-8372414D02*
X5040175Y-8420033D01*
X5040175Y-8420033D02*
X5030651Y-8458129D01*
X5030651Y-8458129D02*
X5021128Y-8477176D01*
X5021128Y-8477176D02*
X5011604Y-8486700D01*
X5011604Y-8486700D02*
X4992556Y-8496224D01*
X4992556Y-8496224D02*
X4973508Y-8496224D01*
X4973508Y-8496224D02*
X4954461Y-8486700D01*
X4954461Y-8486700D02*
X4944937Y-8477176D01*
X4944937Y-8477176D02*
X4935413Y-8458129D01*
X4935413Y-8458129D02*
X4925889Y-8420033D01*
X4925889Y-8420033D02*
X4925889Y-8372414D01*
X4925889Y-8372414D02*
X4935413Y-8334319D01*
X4935413Y-8334319D02*
X4944937Y-8315271D01*
X4944937Y-8315271D02*
X4954461Y-8305748D01*
X4954461Y-8305748D02*
X4973508Y-8296224D01*
X5230651Y-8496224D02*
X5116366Y-8496224D01*
X5173508Y-8496224D02*
X5173508Y-8296224D01*
X5173508Y-8296224D02*
X5154461Y-8324795D01*
X5154461Y-8324795D02*
X5135413Y-8343843D01*
X5135413Y-8343843D02*
X5116366Y-8353367D01*
X5421128Y-8496224D02*
X5306842Y-8496224D01*
X5363985Y-8496224D02*
X5363985Y-8296224D01*
X5363985Y-8296224D02*
X5344937Y-8324795D01*
X5344937Y-8324795D02*
X5325889Y-8343843D01*
X5325889Y-8343843D02*
X5306842Y-8353367D01*
X5535413Y-8381938D02*
X5516366Y-8372414D01*
X5516366Y-8372414D02*
X5506842Y-8362890D01*
X5506842Y-8362890D02*
X5497318Y-8343843D01*
X5497318Y-8343843D02*
X5497318Y-8334319D01*
X5497318Y-8334319D02*
X5506842Y-8315271D01*
X5506842Y-8315271D02*
X5516366Y-8305748D01*
X5516366Y-8305748D02*
X5535413Y-8296224D01*
X5535413Y-8296224D02*
X5573509Y-8296224D01*
X5573509Y-8296224D02*
X5592556Y-8305748D01*
X5592556Y-8305748D02*
X5602080Y-8315271D01*
X5602080Y-8315271D02*
X5611604Y-8334319D01*
X5611604Y-8334319D02*
X5611604Y-8343843D01*
X5611604Y-8343843D02*
X5602080Y-8362890D01*
X5602080Y-8362890D02*
X5592556Y-8372414D01*
X5592556Y-8372414D02*
X5573509Y-8381938D01*
X5573509Y-8381938D02*
X5535413Y-8381938D01*
X5535413Y-8381938D02*
X5516366Y-8391462D01*
X5516366Y-8391462D02*
X5506842Y-8400986D01*
X5506842Y-8400986D02*
X5497318Y-8420033D01*
X5497318Y-8420033D02*
X5497318Y-8458129D01*
X5497318Y-8458129D02*
X5506842Y-8477176D01*
X5506842Y-8477176D02*
X5516366Y-8486700D01*
X5516366Y-8486700D02*
X5535413Y-8496224D01*
X5535413Y-8496224D02*
X5573509Y-8496224D01*
X5573509Y-8496224D02*
X5592556Y-8486700D01*
X5592556Y-8486700D02*
X5602080Y-8477176D01*
X5602080Y-8477176D02*
X5611604Y-8458129D01*
X5611604Y-8458129D02*
X5611604Y-8420033D01*
X5611604Y-8420033D02*
X5602080Y-8400986D01*
X5602080Y-8400986D02*
X5592556Y-8391462D01*
X5592556Y-8391462D02*
X5573509Y-8381938D01*
X5687794Y-8296224D02*
X5687794Y-8334319D01*
X5763985Y-8296224D02*
X5763985Y-8334319D01*
X6059223Y-8572414D02*
X6049699Y-8562890D01*
X6049699Y-8562890D02*
X6030651Y-8534319D01*
X6030651Y-8534319D02*
X6021128Y-8515271D01*
X6021128Y-8515271D02*
X6011604Y-8486700D01*
X6011604Y-8486700D02*
X6002080Y-8439081D01*
X6002080Y-8439081D02*
X6002080Y-8400986D01*
X6002080Y-8400986D02*
X6011604Y-8353367D01*
X6011604Y-8353367D02*
X6021128Y-8324795D01*
X6021128Y-8324795D02*
X6030651Y-8305748D01*
X6030651Y-8305748D02*
X6049699Y-8277176D01*
X6049699Y-8277176D02*
X6059223Y-8267652D01*
X6230651Y-8296224D02*
X6135413Y-8296224D01*
X6135413Y-8296224D02*
X6125889Y-8391462D01*
X6125889Y-8391462D02*
X6135413Y-8381938D01*
X6135413Y-8381938D02*
X6154461Y-8372414D01*
X6154461Y-8372414D02*
X6202080Y-8372414D01*
X6202080Y-8372414D02*
X6221128Y-8381938D01*
X6221128Y-8381938D02*
X6230651Y-8391462D01*
X6230651Y-8391462D02*
X6240175Y-8410510D01*
X6240175Y-8410510D02*
X6240175Y-8458129D01*
X6240175Y-8458129D02*
X6230651Y-8477176D01*
X6230651Y-8477176D02*
X6221128Y-8486700D01*
X6221128Y-8486700D02*
X6202080Y-8496224D01*
X6202080Y-8496224D02*
X6154461Y-8496224D01*
X6154461Y-8496224D02*
X6135413Y-8486700D01*
X6135413Y-8486700D02*
X6125889Y-8477176D01*
X6478270Y-8496224D02*
X6478270Y-8296224D01*
X6563985Y-8496224D02*
X6563985Y-8391462D01*
X6563985Y-8391462D02*
X6554461Y-8372414D01*
X6554461Y-8372414D02*
X6535413Y-8362890D01*
X6535413Y-8362890D02*
X6506842Y-8362890D01*
X6506842Y-8362890D02*
X6487794Y-8372414D01*
X6487794Y-8372414D02*
X6478270Y-8381938D01*
X6687794Y-8496224D02*
X6668747Y-8486700D01*
X6668747Y-8486700D02*
X6659223Y-8477176D01*
X6659223Y-8477176D02*
X6649699Y-8458129D01*
X6649699Y-8458129D02*
X6649699Y-8400986D01*
X6649699Y-8400986D02*
X6659223Y-8381938D01*
X6659223Y-8381938D02*
X6668747Y-8372414D01*
X6668747Y-8372414D02*
X6687794Y-8362890D01*
X6687794Y-8362890D02*
X6716366Y-8362890D01*
X6716366Y-8362890D02*
X6735413Y-8372414D01*
X6735413Y-8372414D02*
X6744937Y-8381938D01*
X6744937Y-8381938D02*
X6754461Y-8400986D01*
X6754461Y-8400986D02*
X6754461Y-8458129D01*
X6754461Y-8458129D02*
X6744937Y-8477176D01*
X6744937Y-8477176D02*
X6735413Y-8486700D01*
X6735413Y-8486700D02*
X6716366Y-8496224D01*
X6716366Y-8496224D02*
X6687794Y-8496224D01*
X6868747Y-8496224D02*
X6849699Y-8486700D01*
X6849699Y-8486700D02*
X6840175Y-8467652D01*
X6840175Y-8467652D02*
X6840175Y-8296224D01*
X7021128Y-8486700D02*
X7002080Y-8496224D01*
X7002080Y-8496224D02*
X6963985Y-8496224D01*
X6963985Y-8496224D02*
X6944937Y-8486700D01*
X6944937Y-8486700D02*
X6935413Y-8467652D01*
X6935413Y-8467652D02*
X6935413Y-8391462D01*
X6935413Y-8391462D02*
X6944937Y-8372414D01*
X6944937Y-8372414D02*
X6963985Y-8362890D01*
X6963985Y-8362890D02*
X7002080Y-8362890D01*
X7002080Y-8362890D02*
X7021128Y-8372414D01*
X7021128Y-8372414D02*
X7030651Y-8391462D01*
X7030651Y-8391462D02*
X7030651Y-8410510D01*
X7030651Y-8410510D02*
X6935413Y-8429557D01*
X7106842Y-8486700D02*
X7125890Y-8496224D01*
X7125890Y-8496224D02*
X7163985Y-8496224D01*
X7163985Y-8496224D02*
X7183032Y-8486700D01*
X7183032Y-8486700D02*
X7192556Y-8467652D01*
X7192556Y-8467652D02*
X7192556Y-8458129D01*
X7192556Y-8458129D02*
X7183032Y-8439081D01*
X7183032Y-8439081D02*
X7163985Y-8429557D01*
X7163985Y-8429557D02*
X7135413Y-8429557D01*
X7135413Y-8429557D02*
X7116366Y-8420033D01*
X7116366Y-8420033D02*
X7106842Y-8400986D01*
X7106842Y-8400986D02*
X7106842Y-8391462D01*
X7106842Y-8391462D02*
X7116366Y-8372414D01*
X7116366Y-8372414D02*
X7135413Y-8362890D01*
X7135413Y-8362890D02*
X7163985Y-8362890D01*
X7163985Y-8362890D02*
X7183032Y-8372414D01*
X7259223Y-8572414D02*
X7268747Y-8562890D01*
X7268747Y-8562890D02*
X7287794Y-8534319D01*
X7287794Y-8534319D02*
X7297318Y-8515271D01*
X7297318Y-8515271D02*
X7306842Y-8486700D01*
X7306842Y-8486700D02*
X7316366Y-8439081D01*
X7316366Y-8439081D02*
X7316366Y-8400986D01*
X7316366Y-8400986D02*
X7306842Y-8353367D01*
X7306842Y-8353367D02*
X7297318Y-8324795D01*
X7297318Y-8324795D02*
X7287794Y-8305748D01*
X7287794Y-8305748D02*
X7268747Y-8277176D01*
X7268747Y-8277176D02*
X7259223Y-8267652D01*
D13*
X2484160Y-8668740D02*
G75*
G03*
X2484160Y-8668740I-37500J0D01*
G01*
D11*
X2783032Y-8560224D02*
X2802080Y-8560224D01*
X2802080Y-8560224D02*
X2821127Y-8569748D01*
X2821127Y-8569748D02*
X2830651Y-8579271D01*
X2830651Y-8579271D02*
X2840175Y-8598319D01*
X2840175Y-8598319D02*
X2849699Y-8636414D01*
X2849699Y-8636414D02*
X2849699Y-8684033D01*
X2849699Y-8684033D02*
X2840175Y-8722129D01*
X2840175Y-8722129D02*
X2830651Y-8741176D01*
X2830651Y-8741176D02*
X2821127Y-8750700D01*
X2821127Y-8750700D02*
X2802080Y-8760224D01*
X2802080Y-8760224D02*
X2783032Y-8760224D01*
X2783032Y-8760224D02*
X2763984Y-8750700D01*
X2763984Y-8750700D02*
X2754461Y-8741176D01*
X2754461Y-8741176D02*
X2744937Y-8722129D01*
X2744937Y-8722129D02*
X2735413Y-8684033D01*
X2735413Y-8684033D02*
X2735413Y-8636414D01*
X2735413Y-8636414D02*
X2744937Y-8598319D01*
X2744937Y-8598319D02*
X2754461Y-8579271D01*
X2754461Y-8579271D02*
X2763984Y-8569748D01*
X2763984Y-8569748D02*
X2783032Y-8560224D01*
X2935413Y-8741176D02*
X2944937Y-8750700D01*
X2944937Y-8750700D02*
X2935413Y-8760224D01*
X2935413Y-8760224D02*
X2925889Y-8750700D01*
X2925889Y-8750700D02*
X2935413Y-8741176D01*
X2935413Y-8741176D02*
X2935413Y-8760224D01*
X3011603Y-8560224D02*
X3144937Y-8560224D01*
X3144937Y-8560224D02*
X3059222Y-8760224D01*
X3316365Y-8560224D02*
X3221127Y-8560224D01*
X3221127Y-8560224D02*
X3211603Y-8655462D01*
X3211603Y-8655462D02*
X3221127Y-8645938D01*
X3221127Y-8645938D02*
X3240175Y-8636414D01*
X3240175Y-8636414D02*
X3287794Y-8636414D01*
X3287794Y-8636414D02*
X3306842Y-8645938D01*
X3306842Y-8645938D02*
X3316365Y-8655462D01*
X3316365Y-8655462D02*
X3325889Y-8674510D01*
X3325889Y-8674510D02*
X3325889Y-8722129D01*
X3325889Y-8722129D02*
X3316365Y-8741176D01*
X3316365Y-8741176D02*
X3306842Y-8750700D01*
X3306842Y-8750700D02*
X3287794Y-8760224D01*
X3287794Y-8760224D02*
X3240175Y-8760224D01*
X3240175Y-8760224D02*
X3221127Y-8750700D01*
X3221127Y-8750700D02*
X3211603Y-8741176D01*
X3449699Y-8560224D02*
X3468746Y-8560224D01*
X3468746Y-8560224D02*
X3487794Y-8569748D01*
X3487794Y-8569748D02*
X3497318Y-8579271D01*
X3497318Y-8579271D02*
X3506842Y-8598319D01*
X3506842Y-8598319D02*
X3516365Y-8636414D01*
X3516365Y-8636414D02*
X3516365Y-8684033D01*
X3516365Y-8684033D02*
X3506842Y-8722129D01*
X3506842Y-8722129D02*
X3497318Y-8741176D01*
X3497318Y-8741176D02*
X3487794Y-8750700D01*
X3487794Y-8750700D02*
X3468746Y-8760224D01*
X3468746Y-8760224D02*
X3449699Y-8760224D01*
X3449699Y-8760224D02*
X3430651Y-8750700D01*
X3430651Y-8750700D02*
X3421127Y-8741176D01*
X3421127Y-8741176D02*
X3411603Y-8722129D01*
X3411603Y-8722129D02*
X3402080Y-8684033D01*
X3402080Y-8684033D02*
X3402080Y-8636414D01*
X3402080Y-8636414D02*
X3411603Y-8598319D01*
X3411603Y-8598319D02*
X3421127Y-8579271D01*
X3421127Y-8579271D02*
X3430651Y-8569748D01*
X3430651Y-8569748D02*
X3449699Y-8560224D01*
X3602080Y-8760224D02*
X3602080Y-8626890D01*
X3602080Y-8645938D02*
X3611603Y-8636414D01*
X3611603Y-8636414D02*
X3630651Y-8626890D01*
X3630651Y-8626890D02*
X3659223Y-8626890D01*
X3659223Y-8626890D02*
X3678270Y-8636414D01*
X3678270Y-8636414D02*
X3687794Y-8655462D01*
X3687794Y-8655462D02*
X3687794Y-8760224D01*
X3687794Y-8655462D02*
X3697318Y-8636414D01*
X3697318Y-8636414D02*
X3716365Y-8626890D01*
X3716365Y-8626890D02*
X3744937Y-8626890D01*
X3744937Y-8626890D02*
X3763984Y-8636414D01*
X3763984Y-8636414D02*
X3773508Y-8655462D01*
X3773508Y-8655462D02*
X3773508Y-8760224D01*
X3868746Y-8760224D02*
X3868746Y-8626890D01*
X3868746Y-8645938D02*
X3878270Y-8636414D01*
X3878270Y-8636414D02*
X3897318Y-8626890D01*
X3897318Y-8626890D02*
X3925889Y-8626890D01*
X3925889Y-8626890D02*
X3944937Y-8636414D01*
X3944937Y-8636414D02*
X3954461Y-8655462D01*
X3954461Y-8655462D02*
X3954461Y-8760224D01*
X3954461Y-8655462D02*
X3963984Y-8636414D01*
X3963984Y-8636414D02*
X3983032Y-8626890D01*
X3983032Y-8626890D02*
X4011603Y-8626890D01*
X4011603Y-8626890D02*
X4030651Y-8636414D01*
X4030651Y-8636414D02*
X4040175Y-8655462D01*
X4040175Y-8655462D02*
X4040175Y-8760224D01*
X4430651Y-8550700D02*
X4259223Y-8807843D01*
X4687794Y-8560224D02*
X4706842Y-8560224D01*
X4706842Y-8560224D02*
X4725889Y-8569748D01*
X4725889Y-8569748D02*
X4735413Y-8579271D01*
X4735413Y-8579271D02*
X4744937Y-8598319D01*
X4744937Y-8598319D02*
X4754461Y-8636414D01*
X4754461Y-8636414D02*
X4754461Y-8684033D01*
X4754461Y-8684033D02*
X4744937Y-8722129D01*
X4744937Y-8722129D02*
X4735413Y-8741176D01*
X4735413Y-8741176D02*
X4725889Y-8750700D01*
X4725889Y-8750700D02*
X4706842Y-8760224D01*
X4706842Y-8760224D02*
X4687794Y-8760224D01*
X4687794Y-8760224D02*
X4668747Y-8750700D01*
X4668747Y-8750700D02*
X4659223Y-8741176D01*
X4659223Y-8741176D02*
X4649699Y-8722129D01*
X4649699Y-8722129D02*
X4640175Y-8684033D01*
X4640175Y-8684033D02*
X4640175Y-8636414D01*
X4640175Y-8636414D02*
X4649699Y-8598319D01*
X4649699Y-8598319D02*
X4659223Y-8579271D01*
X4659223Y-8579271D02*
X4668747Y-8569748D01*
X4668747Y-8569748D02*
X4687794Y-8560224D01*
X4840175Y-8741176D02*
X4849699Y-8750700D01*
X4849699Y-8750700D02*
X4840175Y-8760224D01*
X4840175Y-8760224D02*
X4830651Y-8750700D01*
X4830651Y-8750700D02*
X4840175Y-8741176D01*
X4840175Y-8741176D02*
X4840175Y-8760224D01*
X4973508Y-8560224D02*
X4992556Y-8560224D01*
X4992556Y-8560224D02*
X5011604Y-8569748D01*
X5011604Y-8569748D02*
X5021128Y-8579271D01*
X5021128Y-8579271D02*
X5030651Y-8598319D01*
X5030651Y-8598319D02*
X5040175Y-8636414D01*
X5040175Y-8636414D02*
X5040175Y-8684033D01*
X5040175Y-8684033D02*
X5030651Y-8722129D01*
X5030651Y-8722129D02*
X5021128Y-8741176D01*
X5021128Y-8741176D02*
X5011604Y-8750700D01*
X5011604Y-8750700D02*
X4992556Y-8760224D01*
X4992556Y-8760224D02*
X4973508Y-8760224D01*
X4973508Y-8760224D02*
X4954461Y-8750700D01*
X4954461Y-8750700D02*
X4944937Y-8741176D01*
X4944937Y-8741176D02*
X4935413Y-8722129D01*
X4935413Y-8722129D02*
X4925889Y-8684033D01*
X4925889Y-8684033D02*
X4925889Y-8636414D01*
X4925889Y-8636414D02*
X4935413Y-8598319D01*
X4935413Y-8598319D02*
X4944937Y-8579271D01*
X4944937Y-8579271D02*
X4954461Y-8569748D01*
X4954461Y-8569748D02*
X4973508Y-8560224D01*
X5116366Y-8579271D02*
X5125889Y-8569748D01*
X5125889Y-8569748D02*
X5144937Y-8560224D01*
X5144937Y-8560224D02*
X5192556Y-8560224D01*
X5192556Y-8560224D02*
X5211604Y-8569748D01*
X5211604Y-8569748D02*
X5221128Y-8579271D01*
X5221128Y-8579271D02*
X5230651Y-8598319D01*
X5230651Y-8598319D02*
X5230651Y-8617367D01*
X5230651Y-8617367D02*
X5221128Y-8645938D01*
X5221128Y-8645938D02*
X5106842Y-8760224D01*
X5106842Y-8760224D02*
X5230651Y-8760224D01*
X5325889Y-8760224D02*
X5363985Y-8760224D01*
X5363985Y-8760224D02*
X5383032Y-8750700D01*
X5383032Y-8750700D02*
X5392556Y-8741176D01*
X5392556Y-8741176D02*
X5411604Y-8712605D01*
X5411604Y-8712605D02*
X5421128Y-8674510D01*
X5421128Y-8674510D02*
X5421128Y-8598319D01*
X5421128Y-8598319D02*
X5411604Y-8579271D01*
X5411604Y-8579271D02*
X5402080Y-8569748D01*
X5402080Y-8569748D02*
X5383032Y-8560224D01*
X5383032Y-8560224D02*
X5344937Y-8560224D01*
X5344937Y-8560224D02*
X5325889Y-8569748D01*
X5325889Y-8569748D02*
X5316366Y-8579271D01*
X5316366Y-8579271D02*
X5306842Y-8598319D01*
X5306842Y-8598319D02*
X5306842Y-8645938D01*
X5306842Y-8645938D02*
X5316366Y-8664986D01*
X5316366Y-8664986D02*
X5325889Y-8674510D01*
X5325889Y-8674510D02*
X5344937Y-8684033D01*
X5344937Y-8684033D02*
X5383032Y-8684033D01*
X5383032Y-8684033D02*
X5402080Y-8674510D01*
X5402080Y-8674510D02*
X5411604Y-8664986D01*
X5411604Y-8664986D02*
X5421128Y-8645938D01*
X5602080Y-8560224D02*
X5506842Y-8560224D01*
X5506842Y-8560224D02*
X5497318Y-8655462D01*
X5497318Y-8655462D02*
X5506842Y-8645938D01*
X5506842Y-8645938D02*
X5525889Y-8636414D01*
X5525889Y-8636414D02*
X5573509Y-8636414D01*
X5573509Y-8636414D02*
X5592556Y-8645938D01*
X5592556Y-8645938D02*
X5602080Y-8655462D01*
X5602080Y-8655462D02*
X5611604Y-8674510D01*
X5611604Y-8674510D02*
X5611604Y-8722129D01*
X5611604Y-8722129D02*
X5602080Y-8741176D01*
X5602080Y-8741176D02*
X5592556Y-8750700D01*
X5592556Y-8750700D02*
X5573509Y-8760224D01*
X5573509Y-8760224D02*
X5525889Y-8760224D01*
X5525889Y-8760224D02*
X5506842Y-8750700D01*
X5506842Y-8750700D02*
X5497318Y-8741176D01*
X5687794Y-8560224D02*
X5687794Y-8598319D01*
X5763985Y-8560224D02*
X5763985Y-8598319D01*
X6059223Y-8836414D02*
X6049699Y-8826890D01*
X6049699Y-8826890D02*
X6030651Y-8798319D01*
X6030651Y-8798319D02*
X6021128Y-8779271D01*
X6021128Y-8779271D02*
X6011604Y-8750700D01*
X6011604Y-8750700D02*
X6002080Y-8703081D01*
X6002080Y-8703081D02*
X6002080Y-8664986D01*
X6002080Y-8664986D02*
X6011604Y-8617367D01*
X6011604Y-8617367D02*
X6021128Y-8588795D01*
X6021128Y-8588795D02*
X6030651Y-8569748D01*
X6030651Y-8569748D02*
X6049699Y-8541176D01*
X6049699Y-8541176D02*
X6059223Y-8531652D01*
X6221128Y-8560224D02*
X6183032Y-8560224D01*
X6183032Y-8560224D02*
X6163985Y-8569748D01*
X6163985Y-8569748D02*
X6154461Y-8579271D01*
X6154461Y-8579271D02*
X6135413Y-8607843D01*
X6135413Y-8607843D02*
X6125889Y-8645938D01*
X6125889Y-8645938D02*
X6125889Y-8722129D01*
X6125889Y-8722129D02*
X6135413Y-8741176D01*
X6135413Y-8741176D02*
X6144937Y-8750700D01*
X6144937Y-8750700D02*
X6163985Y-8760224D01*
X6163985Y-8760224D02*
X6202080Y-8760224D01*
X6202080Y-8760224D02*
X6221128Y-8750700D01*
X6221128Y-8750700D02*
X6230651Y-8741176D01*
X6230651Y-8741176D02*
X6240175Y-8722129D01*
X6240175Y-8722129D02*
X6240175Y-8674510D01*
X6240175Y-8674510D02*
X6230651Y-8655462D01*
X6230651Y-8655462D02*
X6221128Y-8645938D01*
X6221128Y-8645938D02*
X6202080Y-8636414D01*
X6202080Y-8636414D02*
X6163985Y-8636414D01*
X6163985Y-8636414D02*
X6144937Y-8645938D01*
X6144937Y-8645938D02*
X6135413Y-8655462D01*
X6135413Y-8655462D02*
X6125889Y-8674510D01*
X6478270Y-8760224D02*
X6478270Y-8560224D01*
X6563985Y-8760224D02*
X6563985Y-8655462D01*
X6563985Y-8655462D02*
X6554461Y-8636414D01*
X6554461Y-8636414D02*
X6535413Y-8626890D01*
X6535413Y-8626890D02*
X6506842Y-8626890D01*
X6506842Y-8626890D02*
X6487794Y-8636414D01*
X6487794Y-8636414D02*
X6478270Y-8645938D01*
X6687794Y-8760224D02*
X6668747Y-8750700D01*
X6668747Y-8750700D02*
X6659223Y-8741176D01*
X6659223Y-8741176D02*
X6649699Y-8722129D01*
X6649699Y-8722129D02*
X6649699Y-8664986D01*
X6649699Y-8664986D02*
X6659223Y-8645938D01*
X6659223Y-8645938D02*
X6668747Y-8636414D01*
X6668747Y-8636414D02*
X6687794Y-8626890D01*
X6687794Y-8626890D02*
X6716366Y-8626890D01*
X6716366Y-8626890D02*
X6735413Y-8636414D01*
X6735413Y-8636414D02*
X6744937Y-8645938D01*
X6744937Y-8645938D02*
X6754461Y-8664986D01*
X6754461Y-8664986D02*
X6754461Y-8722129D01*
X6754461Y-8722129D02*
X6744937Y-8741176D01*
X6744937Y-8741176D02*
X6735413Y-8750700D01*
X6735413Y-8750700D02*
X6716366Y-8760224D01*
X6716366Y-8760224D02*
X6687794Y-8760224D01*
X6868747Y-8760224D02*
X6849699Y-8750700D01*
X6849699Y-8750700D02*
X6840175Y-8731652D01*
X6840175Y-8731652D02*
X6840175Y-8560224D01*
X7021128Y-8750700D02*
X7002080Y-8760224D01*
X7002080Y-8760224D02*
X6963985Y-8760224D01*
X6963985Y-8760224D02*
X6944937Y-8750700D01*
X6944937Y-8750700D02*
X6935413Y-8731652D01*
X6935413Y-8731652D02*
X6935413Y-8655462D01*
X6935413Y-8655462D02*
X6944937Y-8636414D01*
X6944937Y-8636414D02*
X6963985Y-8626890D01*
X6963985Y-8626890D02*
X7002080Y-8626890D01*
X7002080Y-8626890D02*
X7021128Y-8636414D01*
X7021128Y-8636414D02*
X7030651Y-8655462D01*
X7030651Y-8655462D02*
X7030651Y-8674510D01*
X7030651Y-8674510D02*
X6935413Y-8693557D01*
X7106842Y-8750700D02*
X7125890Y-8760224D01*
X7125890Y-8760224D02*
X7163985Y-8760224D01*
X7163985Y-8760224D02*
X7183032Y-8750700D01*
X7183032Y-8750700D02*
X7192556Y-8731652D01*
X7192556Y-8731652D02*
X7192556Y-8722129D01*
X7192556Y-8722129D02*
X7183032Y-8703081D01*
X7183032Y-8703081D02*
X7163985Y-8693557D01*
X7163985Y-8693557D02*
X7135413Y-8693557D01*
X7135413Y-8693557D02*
X7116366Y-8684033D01*
X7116366Y-8684033D02*
X7106842Y-8664986D01*
X7106842Y-8664986D02*
X7106842Y-8655462D01*
X7106842Y-8655462D02*
X7116366Y-8636414D01*
X7116366Y-8636414D02*
X7135413Y-8626890D01*
X7135413Y-8626890D02*
X7163985Y-8626890D01*
X7163985Y-8626890D02*
X7183032Y-8636414D01*
X7259223Y-8836414D02*
X7268747Y-8826890D01*
X7268747Y-8826890D02*
X7287794Y-8798319D01*
X7287794Y-8798319D02*
X7297318Y-8779271D01*
X7297318Y-8779271D02*
X7306842Y-8750700D01*
X7306842Y-8750700D02*
X7316366Y-8703081D01*
X7316366Y-8703081D02*
X7316366Y-8664986D01*
X7316366Y-8664986D02*
X7306842Y-8617367D01*
X7306842Y-8617367D02*
X7297318Y-8588795D01*
X7297318Y-8588795D02*
X7287794Y-8569748D01*
X7287794Y-8569748D02*
X7268747Y-8541176D01*
X7268747Y-8541176D02*
X7259223Y-8531652D01*
D14*
X2445660Y-8894240D02*
X2445660Y-8971240D01*
X2407160Y-8932740D02*
X2484160Y-8932740D01*
D11*
X2783032Y-8824224D02*
X2802080Y-8824224D01*
X2802080Y-8824224D02*
X2821127Y-8833748D01*
X2821127Y-8833748D02*
X2830651Y-8843271D01*
X2830651Y-8843271D02*
X2840175Y-8862319D01*
X2840175Y-8862319D02*
X2849699Y-8900414D01*
X2849699Y-8900414D02*
X2849699Y-8948033D01*
X2849699Y-8948033D02*
X2840175Y-8986129D01*
X2840175Y-8986129D02*
X2830651Y-9005176D01*
X2830651Y-9005176D02*
X2821127Y-9014700D01*
X2821127Y-9014700D02*
X2802080Y-9024224D01*
X2802080Y-9024224D02*
X2783032Y-9024224D01*
X2783032Y-9024224D02*
X2763984Y-9014700D01*
X2763984Y-9014700D02*
X2754461Y-9005176D01*
X2754461Y-9005176D02*
X2744937Y-8986129D01*
X2744937Y-8986129D02*
X2735413Y-8948033D01*
X2735413Y-8948033D02*
X2735413Y-8900414D01*
X2735413Y-8900414D02*
X2744937Y-8862319D01*
X2744937Y-8862319D02*
X2754461Y-8843271D01*
X2754461Y-8843271D02*
X2763984Y-8833748D01*
X2763984Y-8833748D02*
X2783032Y-8824224D01*
X2935413Y-9005176D02*
X2944937Y-9014700D01*
X2944937Y-9014700D02*
X2935413Y-9024224D01*
X2935413Y-9024224D02*
X2925889Y-9014700D01*
X2925889Y-9014700D02*
X2935413Y-9005176D01*
X2935413Y-9005176D02*
X2935413Y-9024224D01*
X3011603Y-8824224D02*
X3144937Y-8824224D01*
X3144937Y-8824224D02*
X3059222Y-9024224D01*
X3202080Y-8824224D02*
X3335413Y-8824224D01*
X3335413Y-8824224D02*
X3249699Y-9024224D01*
X3449699Y-8824224D02*
X3468746Y-8824224D01*
X3468746Y-8824224D02*
X3487794Y-8833748D01*
X3487794Y-8833748D02*
X3497318Y-8843271D01*
X3497318Y-8843271D02*
X3506842Y-8862319D01*
X3506842Y-8862319D02*
X3516365Y-8900414D01*
X3516365Y-8900414D02*
X3516365Y-8948033D01*
X3516365Y-8948033D02*
X3506842Y-8986129D01*
X3506842Y-8986129D02*
X3497318Y-9005176D01*
X3497318Y-9005176D02*
X3487794Y-9014700D01*
X3487794Y-9014700D02*
X3468746Y-9024224D01*
X3468746Y-9024224D02*
X3449699Y-9024224D01*
X3449699Y-9024224D02*
X3430651Y-9014700D01*
X3430651Y-9014700D02*
X3421127Y-9005176D01*
X3421127Y-9005176D02*
X3411603Y-8986129D01*
X3411603Y-8986129D02*
X3402080Y-8948033D01*
X3402080Y-8948033D02*
X3402080Y-8900414D01*
X3402080Y-8900414D02*
X3411603Y-8862319D01*
X3411603Y-8862319D02*
X3421127Y-8843271D01*
X3421127Y-8843271D02*
X3430651Y-8833748D01*
X3430651Y-8833748D02*
X3449699Y-8824224D01*
X3602080Y-9024224D02*
X3602080Y-8890890D01*
X3602080Y-8909938D02*
X3611603Y-8900414D01*
X3611603Y-8900414D02*
X3630651Y-8890890D01*
X3630651Y-8890890D02*
X3659223Y-8890890D01*
X3659223Y-8890890D02*
X3678270Y-8900414D01*
X3678270Y-8900414D02*
X3687794Y-8919462D01*
X3687794Y-8919462D02*
X3687794Y-9024224D01*
X3687794Y-8919462D02*
X3697318Y-8900414D01*
X3697318Y-8900414D02*
X3716365Y-8890890D01*
X3716365Y-8890890D02*
X3744937Y-8890890D01*
X3744937Y-8890890D02*
X3763984Y-8900414D01*
X3763984Y-8900414D02*
X3773508Y-8919462D01*
X3773508Y-8919462D02*
X3773508Y-9024224D01*
X3868746Y-9024224D02*
X3868746Y-8890890D01*
X3868746Y-8909938D02*
X3878270Y-8900414D01*
X3878270Y-8900414D02*
X3897318Y-8890890D01*
X3897318Y-8890890D02*
X3925889Y-8890890D01*
X3925889Y-8890890D02*
X3944937Y-8900414D01*
X3944937Y-8900414D02*
X3954461Y-8919462D01*
X3954461Y-8919462D02*
X3954461Y-9024224D01*
X3954461Y-8919462D02*
X3963984Y-8900414D01*
X3963984Y-8900414D02*
X3983032Y-8890890D01*
X3983032Y-8890890D02*
X4011603Y-8890890D01*
X4011603Y-8890890D02*
X4030651Y-8900414D01*
X4030651Y-8900414D02*
X4040175Y-8919462D01*
X4040175Y-8919462D02*
X4040175Y-9024224D01*
X4430651Y-8814700D02*
X4259223Y-9071843D01*
X4687794Y-8824224D02*
X4706842Y-8824224D01*
X4706842Y-8824224D02*
X4725889Y-8833748D01*
X4725889Y-8833748D02*
X4735413Y-8843271D01*
X4735413Y-8843271D02*
X4744937Y-8862319D01*
X4744937Y-8862319D02*
X4754461Y-8900414D01*
X4754461Y-8900414D02*
X4754461Y-8948033D01*
X4754461Y-8948033D02*
X4744937Y-8986129D01*
X4744937Y-8986129D02*
X4735413Y-9005176D01*
X4735413Y-9005176D02*
X4725889Y-9014700D01*
X4725889Y-9014700D02*
X4706842Y-9024224D01*
X4706842Y-9024224D02*
X4687794Y-9024224D01*
X4687794Y-9024224D02*
X4668747Y-9014700D01*
X4668747Y-9014700D02*
X4659223Y-9005176D01*
X4659223Y-9005176D02*
X4649699Y-8986129D01*
X4649699Y-8986129D02*
X4640175Y-8948033D01*
X4640175Y-8948033D02*
X4640175Y-8900414D01*
X4640175Y-8900414D02*
X4649699Y-8862319D01*
X4649699Y-8862319D02*
X4659223Y-8843271D01*
X4659223Y-8843271D02*
X4668747Y-8833748D01*
X4668747Y-8833748D02*
X4687794Y-8824224D01*
X4840175Y-9005176D02*
X4849699Y-9014700D01*
X4849699Y-9014700D02*
X4840175Y-9024224D01*
X4840175Y-9024224D02*
X4830651Y-9014700D01*
X4830651Y-9014700D02*
X4840175Y-9005176D01*
X4840175Y-9005176D02*
X4840175Y-9024224D01*
X4973508Y-8824224D02*
X4992556Y-8824224D01*
X4992556Y-8824224D02*
X5011604Y-8833748D01*
X5011604Y-8833748D02*
X5021128Y-8843271D01*
X5021128Y-8843271D02*
X5030651Y-8862319D01*
X5030651Y-8862319D02*
X5040175Y-8900414D01*
X5040175Y-8900414D02*
X5040175Y-8948033D01*
X5040175Y-8948033D02*
X5030651Y-8986129D01*
X5030651Y-8986129D02*
X5021128Y-9005176D01*
X5021128Y-9005176D02*
X5011604Y-9014700D01*
X5011604Y-9014700D02*
X4992556Y-9024224D01*
X4992556Y-9024224D02*
X4973508Y-9024224D01*
X4973508Y-9024224D02*
X4954461Y-9014700D01*
X4954461Y-9014700D02*
X4944937Y-9005176D01*
X4944937Y-9005176D02*
X4935413Y-8986129D01*
X4935413Y-8986129D02*
X4925889Y-8948033D01*
X4925889Y-8948033D02*
X4925889Y-8900414D01*
X4925889Y-8900414D02*
X4935413Y-8862319D01*
X4935413Y-8862319D02*
X4944937Y-8843271D01*
X4944937Y-8843271D02*
X4954461Y-8833748D01*
X4954461Y-8833748D02*
X4973508Y-8824224D01*
X5106842Y-8824224D02*
X5230651Y-8824224D01*
X5230651Y-8824224D02*
X5163985Y-8900414D01*
X5163985Y-8900414D02*
X5192556Y-8900414D01*
X5192556Y-8900414D02*
X5211604Y-8909938D01*
X5211604Y-8909938D02*
X5221128Y-8919462D01*
X5221128Y-8919462D02*
X5230651Y-8938510D01*
X5230651Y-8938510D02*
X5230651Y-8986129D01*
X5230651Y-8986129D02*
X5221128Y-9005176D01*
X5221128Y-9005176D02*
X5211604Y-9014700D01*
X5211604Y-9014700D02*
X5192556Y-9024224D01*
X5192556Y-9024224D02*
X5135413Y-9024224D01*
X5135413Y-9024224D02*
X5116366Y-9014700D01*
X5116366Y-9014700D02*
X5106842Y-9005176D01*
X5354461Y-8824224D02*
X5373509Y-8824224D01*
X5373509Y-8824224D02*
X5392556Y-8833748D01*
X5392556Y-8833748D02*
X5402080Y-8843271D01*
X5402080Y-8843271D02*
X5411604Y-8862319D01*
X5411604Y-8862319D02*
X5421128Y-8900414D01*
X5421128Y-8900414D02*
X5421128Y-8948033D01*
X5421128Y-8948033D02*
X5411604Y-8986129D01*
X5411604Y-8986129D02*
X5402080Y-9005176D01*
X5402080Y-9005176D02*
X5392556Y-9014700D01*
X5392556Y-9014700D02*
X5373509Y-9024224D01*
X5373509Y-9024224D02*
X5354461Y-9024224D01*
X5354461Y-9024224D02*
X5335413Y-9014700D01*
X5335413Y-9014700D02*
X5325889Y-9005176D01*
X5325889Y-9005176D02*
X5316366Y-8986129D01*
X5316366Y-8986129D02*
X5306842Y-8948033D01*
X5306842Y-8948033D02*
X5306842Y-8900414D01*
X5306842Y-8900414D02*
X5316366Y-8862319D01*
X5316366Y-8862319D02*
X5325889Y-8843271D01*
X5325889Y-8843271D02*
X5335413Y-8833748D01*
X5335413Y-8833748D02*
X5354461Y-8824224D01*
X5487794Y-8824224D02*
X5611604Y-8824224D01*
X5611604Y-8824224D02*
X5544937Y-8900414D01*
X5544937Y-8900414D02*
X5573509Y-8900414D01*
X5573509Y-8900414D02*
X5592556Y-8909938D01*
X5592556Y-8909938D02*
X5602080Y-8919462D01*
X5602080Y-8919462D02*
X5611604Y-8938510D01*
X5611604Y-8938510D02*
X5611604Y-8986129D01*
X5611604Y-8986129D02*
X5602080Y-9005176D01*
X5602080Y-9005176D02*
X5592556Y-9014700D01*
X5592556Y-9014700D02*
X5573509Y-9024224D01*
X5573509Y-9024224D02*
X5516366Y-9024224D01*
X5516366Y-9024224D02*
X5497318Y-9014700D01*
X5497318Y-9014700D02*
X5487794Y-9005176D01*
X5687794Y-8824224D02*
X5687794Y-8862319D01*
X5763985Y-8824224D02*
X5763985Y-8862319D01*
X6059223Y-9100414D02*
X6049699Y-9090890D01*
X6049699Y-9090890D02*
X6030651Y-9062319D01*
X6030651Y-9062319D02*
X6021128Y-9043271D01*
X6021128Y-9043271D02*
X6011604Y-9014700D01*
X6011604Y-9014700D02*
X6002080Y-8967081D01*
X6002080Y-8967081D02*
X6002080Y-8928986D01*
X6002080Y-8928986D02*
X6011604Y-8881367D01*
X6011604Y-8881367D02*
X6021128Y-8852795D01*
X6021128Y-8852795D02*
X6030651Y-8833748D01*
X6030651Y-8833748D02*
X6049699Y-8805176D01*
X6049699Y-8805176D02*
X6059223Y-8795652D01*
X6240175Y-9024224D02*
X6125889Y-9024224D01*
X6183032Y-9024224D02*
X6183032Y-8824224D01*
X6183032Y-8824224D02*
X6163985Y-8852795D01*
X6163985Y-8852795D02*
X6144937Y-8871843D01*
X6144937Y-8871843D02*
X6125889Y-8881367D01*
X6411604Y-8890890D02*
X6411604Y-9024224D01*
X6363985Y-8814700D02*
X6316366Y-8957557D01*
X6316366Y-8957557D02*
X6440175Y-8957557D01*
X6668747Y-9024224D02*
X6668747Y-8824224D01*
X6754461Y-9024224D02*
X6754461Y-8919462D01*
X6754461Y-8919462D02*
X6744937Y-8900414D01*
X6744937Y-8900414D02*
X6725890Y-8890890D01*
X6725890Y-8890890D02*
X6697318Y-8890890D01*
X6697318Y-8890890D02*
X6678270Y-8900414D01*
X6678270Y-8900414D02*
X6668747Y-8909938D01*
X6878270Y-9024224D02*
X6859223Y-9014700D01*
X6859223Y-9014700D02*
X6849699Y-9005176D01*
X6849699Y-9005176D02*
X6840175Y-8986129D01*
X6840175Y-8986129D02*
X6840175Y-8928986D01*
X6840175Y-8928986D02*
X6849699Y-8909938D01*
X6849699Y-8909938D02*
X6859223Y-8900414D01*
X6859223Y-8900414D02*
X6878270Y-8890890D01*
X6878270Y-8890890D02*
X6906842Y-8890890D01*
X6906842Y-8890890D02*
X6925890Y-8900414D01*
X6925890Y-8900414D02*
X6935413Y-8909938D01*
X6935413Y-8909938D02*
X6944937Y-8928986D01*
X6944937Y-8928986D02*
X6944937Y-8986129D01*
X6944937Y-8986129D02*
X6935413Y-9005176D01*
X6935413Y-9005176D02*
X6925890Y-9014700D01*
X6925890Y-9014700D02*
X6906842Y-9024224D01*
X6906842Y-9024224D02*
X6878270Y-9024224D01*
X7059223Y-9024224D02*
X7040175Y-9014700D01*
X7040175Y-9014700D02*
X7030651Y-8995652D01*
X7030651Y-8995652D02*
X7030651Y-8824224D01*
X7211604Y-9014700D02*
X7192556Y-9024224D01*
X7192556Y-9024224D02*
X7154461Y-9024224D01*
X7154461Y-9024224D02*
X7135413Y-9014700D01*
X7135413Y-9014700D02*
X7125890Y-8995652D01*
X7125890Y-8995652D02*
X7125890Y-8919462D01*
X7125890Y-8919462D02*
X7135413Y-8900414D01*
X7135413Y-8900414D02*
X7154461Y-8890890D01*
X7154461Y-8890890D02*
X7192556Y-8890890D01*
X7192556Y-8890890D02*
X7211604Y-8900414D01*
X7211604Y-8900414D02*
X7221128Y-8919462D01*
X7221128Y-8919462D02*
X7221128Y-8938510D01*
X7221128Y-8938510D02*
X7125890Y-8957557D01*
X7297318Y-9014700D02*
X7316366Y-9024224D01*
X7316366Y-9024224D02*
X7354461Y-9024224D01*
X7354461Y-9024224D02*
X7373509Y-9014700D01*
X7373509Y-9014700D02*
X7383032Y-8995652D01*
X7383032Y-8995652D02*
X7383032Y-8986129D01*
X7383032Y-8986129D02*
X7373509Y-8967081D01*
X7373509Y-8967081D02*
X7354461Y-8957557D01*
X7354461Y-8957557D02*
X7325890Y-8957557D01*
X7325890Y-8957557D02*
X7306842Y-8948033D01*
X7306842Y-8948033D02*
X7297318Y-8928986D01*
X7297318Y-8928986D02*
X7297318Y-8919462D01*
X7297318Y-8919462D02*
X7306842Y-8900414D01*
X7306842Y-8900414D02*
X7325890Y-8890890D01*
X7325890Y-8890890D02*
X7354461Y-8890890D01*
X7354461Y-8890890D02*
X7373509Y-8900414D01*
X7449699Y-9100414D02*
X7459223Y-9090890D01*
X7459223Y-9090890D02*
X7478271Y-9062319D01*
X7478271Y-9062319D02*
X7487794Y-9043271D01*
X7487794Y-9043271D02*
X7497318Y-9014700D01*
X7497318Y-9014700D02*
X7506842Y-8967081D01*
X7506842Y-8967081D02*
X7506842Y-8928986D01*
X7506842Y-8928986D02*
X7497318Y-8881367D01*
X7497318Y-8881367D02*
X7487794Y-8852795D01*
X7487794Y-8852795D02*
X7478271Y-8833748D01*
X7478271Y-8833748D02*
X7459223Y-8805176D01*
X7459223Y-8805176D02*
X7449699Y-8795652D01*
D15*
X2472445Y-9225025D02*
X2472445Y-9168456D01*
X2415876Y-9168456D01*
X2415876Y-9225025D01*
X2472445Y-9225025D01*
D11*
X2783032Y-9088224D02*
X2802080Y-9088224D01*
X2802080Y-9088224D02*
X2821127Y-9097748D01*
X2821127Y-9097748D02*
X2830651Y-9107271D01*
X2830651Y-9107271D02*
X2840175Y-9126319D01*
X2840175Y-9126319D02*
X2849699Y-9164414D01*
X2849699Y-9164414D02*
X2849699Y-9212033D01*
X2849699Y-9212033D02*
X2840175Y-9250129D01*
X2840175Y-9250129D02*
X2830651Y-9269176D01*
X2830651Y-9269176D02*
X2821127Y-9278700D01*
X2821127Y-9278700D02*
X2802080Y-9288224D01*
X2802080Y-9288224D02*
X2783032Y-9288224D01*
X2783032Y-9288224D02*
X2763984Y-9278700D01*
X2763984Y-9278700D02*
X2754461Y-9269176D01*
X2754461Y-9269176D02*
X2744937Y-9250129D01*
X2744937Y-9250129D02*
X2735413Y-9212033D01*
X2735413Y-9212033D02*
X2735413Y-9164414D01*
X2735413Y-9164414D02*
X2744937Y-9126319D01*
X2744937Y-9126319D02*
X2754461Y-9107271D01*
X2754461Y-9107271D02*
X2763984Y-9097748D01*
X2763984Y-9097748D02*
X2783032Y-9088224D01*
X2935413Y-9269176D02*
X2944937Y-9278700D01*
X2944937Y-9278700D02*
X2935413Y-9288224D01*
X2935413Y-9288224D02*
X2925889Y-9278700D01*
X2925889Y-9278700D02*
X2935413Y-9269176D01*
X2935413Y-9269176D02*
X2935413Y-9288224D01*
X3059222Y-9173938D02*
X3040175Y-9164414D01*
X3040175Y-9164414D02*
X3030651Y-9154890D01*
X3030651Y-9154890D02*
X3021127Y-9135843D01*
X3021127Y-9135843D02*
X3021127Y-9126319D01*
X3021127Y-9126319D02*
X3030651Y-9107271D01*
X3030651Y-9107271D02*
X3040175Y-9097748D01*
X3040175Y-9097748D02*
X3059222Y-9088224D01*
X3059222Y-9088224D02*
X3097318Y-9088224D01*
X3097318Y-9088224D02*
X3116365Y-9097748D01*
X3116365Y-9097748D02*
X3125889Y-9107271D01*
X3125889Y-9107271D02*
X3135413Y-9126319D01*
X3135413Y-9126319D02*
X3135413Y-9135843D01*
X3135413Y-9135843D02*
X3125889Y-9154890D01*
X3125889Y-9154890D02*
X3116365Y-9164414D01*
X3116365Y-9164414D02*
X3097318Y-9173938D01*
X3097318Y-9173938D02*
X3059222Y-9173938D01*
X3059222Y-9173938D02*
X3040175Y-9183462D01*
X3040175Y-9183462D02*
X3030651Y-9192986D01*
X3030651Y-9192986D02*
X3021127Y-9212033D01*
X3021127Y-9212033D02*
X3021127Y-9250129D01*
X3021127Y-9250129D02*
X3030651Y-9269176D01*
X3030651Y-9269176D02*
X3040175Y-9278700D01*
X3040175Y-9278700D02*
X3059222Y-9288224D01*
X3059222Y-9288224D02*
X3097318Y-9288224D01*
X3097318Y-9288224D02*
X3116365Y-9278700D01*
X3116365Y-9278700D02*
X3125889Y-9269176D01*
X3125889Y-9269176D02*
X3135413Y-9250129D01*
X3135413Y-9250129D02*
X3135413Y-9212033D01*
X3135413Y-9212033D02*
X3125889Y-9192986D01*
X3125889Y-9192986D02*
X3116365Y-9183462D01*
X3116365Y-9183462D02*
X3097318Y-9173938D01*
X3259222Y-9088224D02*
X3278270Y-9088224D01*
X3278270Y-9088224D02*
X3297318Y-9097748D01*
X3297318Y-9097748D02*
X3306842Y-9107271D01*
X3306842Y-9107271D02*
X3316365Y-9126319D01*
X3316365Y-9126319D02*
X3325889Y-9164414D01*
X3325889Y-9164414D02*
X3325889Y-9212033D01*
X3325889Y-9212033D02*
X3316365Y-9250129D01*
X3316365Y-9250129D02*
X3306842Y-9269176D01*
X3306842Y-9269176D02*
X3297318Y-9278700D01*
X3297318Y-9278700D02*
X3278270Y-9288224D01*
X3278270Y-9288224D02*
X3259222Y-9288224D01*
X3259222Y-9288224D02*
X3240175Y-9278700D01*
X3240175Y-9278700D02*
X3230651Y-9269176D01*
X3230651Y-9269176D02*
X3221127Y-9250129D01*
X3221127Y-9250129D02*
X3211603Y-9212033D01*
X3211603Y-9212033D02*
X3211603Y-9164414D01*
X3211603Y-9164414D02*
X3221127Y-9126319D01*
X3221127Y-9126319D02*
X3230651Y-9107271D01*
X3230651Y-9107271D02*
X3240175Y-9097748D01*
X3240175Y-9097748D02*
X3259222Y-9088224D01*
X3449699Y-9088224D02*
X3468746Y-9088224D01*
X3468746Y-9088224D02*
X3487794Y-9097748D01*
X3487794Y-9097748D02*
X3497318Y-9107271D01*
X3497318Y-9107271D02*
X3506842Y-9126319D01*
X3506842Y-9126319D02*
X3516365Y-9164414D01*
X3516365Y-9164414D02*
X3516365Y-9212033D01*
X3516365Y-9212033D02*
X3506842Y-9250129D01*
X3506842Y-9250129D02*
X3497318Y-9269176D01*
X3497318Y-9269176D02*
X3487794Y-9278700D01*
X3487794Y-9278700D02*
X3468746Y-9288224D01*
X3468746Y-9288224D02*
X3449699Y-9288224D01*
X3449699Y-9288224D02*
X3430651Y-9278700D01*
X3430651Y-9278700D02*
X3421127Y-9269176D01*
X3421127Y-9269176D02*
X3411603Y-9250129D01*
X3411603Y-9250129D02*
X3402080Y-9212033D01*
X3402080Y-9212033D02*
X3402080Y-9164414D01*
X3402080Y-9164414D02*
X3411603Y-9126319D01*
X3411603Y-9126319D02*
X3421127Y-9107271D01*
X3421127Y-9107271D02*
X3430651Y-9097748D01*
X3430651Y-9097748D02*
X3449699Y-9088224D01*
X3602080Y-9288224D02*
X3602080Y-9154890D01*
X3602080Y-9173938D02*
X3611603Y-9164414D01*
X3611603Y-9164414D02*
X3630651Y-9154890D01*
X3630651Y-9154890D02*
X3659223Y-9154890D01*
X3659223Y-9154890D02*
X3678270Y-9164414D01*
X3678270Y-9164414D02*
X3687794Y-9183462D01*
X3687794Y-9183462D02*
X3687794Y-9288224D01*
X3687794Y-9183462D02*
X3697318Y-9164414D01*
X3697318Y-9164414D02*
X3716365Y-9154890D01*
X3716365Y-9154890D02*
X3744937Y-9154890D01*
X3744937Y-9154890D02*
X3763984Y-9164414D01*
X3763984Y-9164414D02*
X3773508Y-9183462D01*
X3773508Y-9183462D02*
X3773508Y-9288224D01*
X3868746Y-9288224D02*
X3868746Y-9154890D01*
X3868746Y-9173938D02*
X3878270Y-9164414D01*
X3878270Y-9164414D02*
X3897318Y-9154890D01*
X3897318Y-9154890D02*
X3925889Y-9154890D01*
X3925889Y-9154890D02*
X3944937Y-9164414D01*
X3944937Y-9164414D02*
X3954461Y-9183462D01*
X3954461Y-9183462D02*
X3954461Y-9288224D01*
X3954461Y-9183462D02*
X3963984Y-9164414D01*
X3963984Y-9164414D02*
X3983032Y-9154890D01*
X3983032Y-9154890D02*
X4011603Y-9154890D01*
X4011603Y-9154890D02*
X4030651Y-9164414D01*
X4030651Y-9164414D02*
X4040175Y-9183462D01*
X4040175Y-9183462D02*
X4040175Y-9288224D01*
X4430651Y-9078700D02*
X4259223Y-9335843D01*
X4687794Y-9088224D02*
X4706842Y-9088224D01*
X4706842Y-9088224D02*
X4725889Y-9097748D01*
X4725889Y-9097748D02*
X4735413Y-9107271D01*
X4735413Y-9107271D02*
X4744937Y-9126319D01*
X4744937Y-9126319D02*
X4754461Y-9164414D01*
X4754461Y-9164414D02*
X4754461Y-9212033D01*
X4754461Y-9212033D02*
X4744937Y-9250129D01*
X4744937Y-9250129D02*
X4735413Y-9269176D01*
X4735413Y-9269176D02*
X4725889Y-9278700D01*
X4725889Y-9278700D02*
X4706842Y-9288224D01*
X4706842Y-9288224D02*
X4687794Y-9288224D01*
X4687794Y-9288224D02*
X4668747Y-9278700D01*
X4668747Y-9278700D02*
X4659223Y-9269176D01*
X4659223Y-9269176D02*
X4649699Y-9250129D01*
X4649699Y-9250129D02*
X4640175Y-9212033D01*
X4640175Y-9212033D02*
X4640175Y-9164414D01*
X4640175Y-9164414D02*
X4649699Y-9126319D01*
X4649699Y-9126319D02*
X4659223Y-9107271D01*
X4659223Y-9107271D02*
X4668747Y-9097748D01*
X4668747Y-9097748D02*
X4687794Y-9088224D01*
X4840175Y-9269176D02*
X4849699Y-9278700D01*
X4849699Y-9278700D02*
X4840175Y-9288224D01*
X4840175Y-9288224D02*
X4830651Y-9278700D01*
X4830651Y-9278700D02*
X4840175Y-9269176D01*
X4840175Y-9269176D02*
X4840175Y-9288224D01*
X4973508Y-9088224D02*
X4992556Y-9088224D01*
X4992556Y-9088224D02*
X5011604Y-9097748D01*
X5011604Y-9097748D02*
X5021128Y-9107271D01*
X5021128Y-9107271D02*
X5030651Y-9126319D01*
X5030651Y-9126319D02*
X5040175Y-9164414D01*
X5040175Y-9164414D02*
X5040175Y-9212033D01*
X5040175Y-9212033D02*
X5030651Y-9250129D01*
X5030651Y-9250129D02*
X5021128Y-9269176D01*
X5021128Y-9269176D02*
X5011604Y-9278700D01*
X5011604Y-9278700D02*
X4992556Y-9288224D01*
X4992556Y-9288224D02*
X4973508Y-9288224D01*
X4973508Y-9288224D02*
X4954461Y-9278700D01*
X4954461Y-9278700D02*
X4944937Y-9269176D01*
X4944937Y-9269176D02*
X4935413Y-9250129D01*
X4935413Y-9250129D02*
X4925889Y-9212033D01*
X4925889Y-9212033D02*
X4925889Y-9164414D01*
X4925889Y-9164414D02*
X4935413Y-9126319D01*
X4935413Y-9126319D02*
X4944937Y-9107271D01*
X4944937Y-9107271D02*
X4954461Y-9097748D01*
X4954461Y-9097748D02*
X4973508Y-9088224D01*
X5106842Y-9088224D02*
X5230651Y-9088224D01*
X5230651Y-9088224D02*
X5163985Y-9164414D01*
X5163985Y-9164414D02*
X5192556Y-9164414D01*
X5192556Y-9164414D02*
X5211604Y-9173938D01*
X5211604Y-9173938D02*
X5221128Y-9183462D01*
X5221128Y-9183462D02*
X5230651Y-9202510D01*
X5230651Y-9202510D02*
X5230651Y-9250129D01*
X5230651Y-9250129D02*
X5221128Y-9269176D01*
X5221128Y-9269176D02*
X5211604Y-9278700D01*
X5211604Y-9278700D02*
X5192556Y-9288224D01*
X5192556Y-9288224D02*
X5135413Y-9288224D01*
X5135413Y-9288224D02*
X5116366Y-9278700D01*
X5116366Y-9278700D02*
X5106842Y-9269176D01*
X5421128Y-9288224D02*
X5306842Y-9288224D01*
X5363985Y-9288224D02*
X5363985Y-9088224D01*
X5363985Y-9088224D02*
X5344937Y-9116795D01*
X5344937Y-9116795D02*
X5325889Y-9135843D01*
X5325889Y-9135843D02*
X5306842Y-9145367D01*
X5602080Y-9088224D02*
X5506842Y-9088224D01*
X5506842Y-9088224D02*
X5497318Y-9183462D01*
X5497318Y-9183462D02*
X5506842Y-9173938D01*
X5506842Y-9173938D02*
X5525889Y-9164414D01*
X5525889Y-9164414D02*
X5573509Y-9164414D01*
X5573509Y-9164414D02*
X5592556Y-9173938D01*
X5592556Y-9173938D02*
X5602080Y-9183462D01*
X5602080Y-9183462D02*
X5611604Y-9202510D01*
X5611604Y-9202510D02*
X5611604Y-9250129D01*
X5611604Y-9250129D02*
X5602080Y-9269176D01*
X5602080Y-9269176D02*
X5592556Y-9278700D01*
X5592556Y-9278700D02*
X5573509Y-9288224D01*
X5573509Y-9288224D02*
X5525889Y-9288224D01*
X5525889Y-9288224D02*
X5506842Y-9278700D01*
X5506842Y-9278700D02*
X5497318Y-9269176D01*
X5687794Y-9088224D02*
X5687794Y-9126319D01*
X5763985Y-9088224D02*
X5763985Y-9126319D01*
X6059223Y-9364414D02*
X6049699Y-9354890D01*
X6049699Y-9354890D02*
X6030651Y-9326319D01*
X6030651Y-9326319D02*
X6021128Y-9307271D01*
X6021128Y-9307271D02*
X6011604Y-9278700D01*
X6011604Y-9278700D02*
X6002080Y-9231081D01*
X6002080Y-9231081D02*
X6002080Y-9192986D01*
X6002080Y-9192986D02*
X6011604Y-9145367D01*
X6011604Y-9145367D02*
X6021128Y-9116795D01*
X6021128Y-9116795D02*
X6030651Y-9097748D01*
X6030651Y-9097748D02*
X6049699Y-9069176D01*
X6049699Y-9069176D02*
X6059223Y-9059652D01*
X6125889Y-9107271D02*
X6135413Y-9097748D01*
X6135413Y-9097748D02*
X6154461Y-9088224D01*
X6154461Y-9088224D02*
X6202080Y-9088224D01*
X6202080Y-9088224D02*
X6221128Y-9097748D01*
X6221128Y-9097748D02*
X6230651Y-9107271D01*
X6230651Y-9107271D02*
X6240175Y-9126319D01*
X6240175Y-9126319D02*
X6240175Y-9145367D01*
X6240175Y-9145367D02*
X6230651Y-9173938D01*
X6230651Y-9173938D02*
X6116366Y-9288224D01*
X6116366Y-9288224D02*
X6240175Y-9288224D01*
X6363985Y-9088224D02*
X6383032Y-9088224D01*
X6383032Y-9088224D02*
X6402080Y-9097748D01*
X6402080Y-9097748D02*
X6411604Y-9107271D01*
X6411604Y-9107271D02*
X6421128Y-9126319D01*
X6421128Y-9126319D02*
X6430651Y-9164414D01*
X6430651Y-9164414D02*
X6430651Y-9212033D01*
X6430651Y-9212033D02*
X6421128Y-9250129D01*
X6421128Y-9250129D02*
X6411604Y-9269176D01*
X6411604Y-9269176D02*
X6402080Y-9278700D01*
X6402080Y-9278700D02*
X6383032Y-9288224D01*
X6383032Y-9288224D02*
X6363985Y-9288224D01*
X6363985Y-9288224D02*
X6344937Y-9278700D01*
X6344937Y-9278700D02*
X6335413Y-9269176D01*
X6335413Y-9269176D02*
X6325889Y-9250129D01*
X6325889Y-9250129D02*
X6316366Y-9212033D01*
X6316366Y-9212033D02*
X6316366Y-9164414D01*
X6316366Y-9164414D02*
X6325889Y-9126319D01*
X6325889Y-9126319D02*
X6335413Y-9107271D01*
X6335413Y-9107271D02*
X6344937Y-9097748D01*
X6344937Y-9097748D02*
X6363985Y-9088224D01*
X6668747Y-9288224D02*
X6668747Y-9088224D01*
X6754461Y-9288224D02*
X6754461Y-9183462D01*
X6754461Y-9183462D02*
X6744937Y-9164414D01*
X6744937Y-9164414D02*
X6725890Y-9154890D01*
X6725890Y-9154890D02*
X6697318Y-9154890D01*
X6697318Y-9154890D02*
X6678270Y-9164414D01*
X6678270Y-9164414D02*
X6668747Y-9173938D01*
X6878270Y-9288224D02*
X6859223Y-9278700D01*
X6859223Y-9278700D02*
X6849699Y-9269176D01*
X6849699Y-9269176D02*
X6840175Y-9250129D01*
X6840175Y-9250129D02*
X6840175Y-9192986D01*
X6840175Y-9192986D02*
X6849699Y-9173938D01*
X6849699Y-9173938D02*
X6859223Y-9164414D01*
X6859223Y-9164414D02*
X6878270Y-9154890D01*
X6878270Y-9154890D02*
X6906842Y-9154890D01*
X6906842Y-9154890D02*
X6925890Y-9164414D01*
X6925890Y-9164414D02*
X6935413Y-9173938D01*
X6935413Y-9173938D02*
X6944937Y-9192986D01*
X6944937Y-9192986D02*
X6944937Y-9250129D01*
X6944937Y-9250129D02*
X6935413Y-9269176D01*
X6935413Y-9269176D02*
X6925890Y-9278700D01*
X6925890Y-9278700D02*
X6906842Y-9288224D01*
X6906842Y-9288224D02*
X6878270Y-9288224D01*
X7059223Y-9288224D02*
X7040175Y-9278700D01*
X7040175Y-9278700D02*
X7030651Y-9259652D01*
X7030651Y-9259652D02*
X7030651Y-9088224D01*
X7211604Y-9278700D02*
X7192556Y-9288224D01*
X7192556Y-9288224D02*
X7154461Y-9288224D01*
X7154461Y-9288224D02*
X7135413Y-9278700D01*
X7135413Y-9278700D02*
X7125890Y-9259652D01*
X7125890Y-9259652D02*
X7125890Y-9183462D01*
X7125890Y-9183462D02*
X7135413Y-9164414D01*
X7135413Y-9164414D02*
X7154461Y-9154890D01*
X7154461Y-9154890D02*
X7192556Y-9154890D01*
X7192556Y-9154890D02*
X7211604Y-9164414D01*
X7211604Y-9164414D02*
X7221128Y-9183462D01*
X7221128Y-9183462D02*
X7221128Y-9202510D01*
X7221128Y-9202510D02*
X7125890Y-9221557D01*
X7297318Y-9278700D02*
X7316366Y-9288224D01*
X7316366Y-9288224D02*
X7354461Y-9288224D01*
X7354461Y-9288224D02*
X7373509Y-9278700D01*
X7373509Y-9278700D02*
X7383032Y-9259652D01*
X7383032Y-9259652D02*
X7383032Y-9250129D01*
X7383032Y-9250129D02*
X7373509Y-9231081D01*
X7373509Y-9231081D02*
X7354461Y-9221557D01*
X7354461Y-9221557D02*
X7325890Y-9221557D01*
X7325890Y-9221557D02*
X7306842Y-9212033D01*
X7306842Y-9212033D02*
X7297318Y-9192986D01*
X7297318Y-9192986D02*
X7297318Y-9183462D01*
X7297318Y-9183462D02*
X7306842Y-9164414D01*
X7306842Y-9164414D02*
X7325890Y-9154890D01*
X7325890Y-9154890D02*
X7354461Y-9154890D01*
X7354461Y-9154890D02*
X7373509Y-9164414D01*
X7449699Y-9364414D02*
X7459223Y-9354890D01*
X7459223Y-9354890D02*
X7478271Y-9326319D01*
X7478271Y-9326319D02*
X7487794Y-9307271D01*
X7487794Y-9307271D02*
X7497318Y-9278700D01*
X7497318Y-9278700D02*
X7506842Y-9231081D01*
X7506842Y-9231081D02*
X7506842Y-9192986D01*
X7506842Y-9192986D02*
X7497318Y-9145367D01*
X7497318Y-9145367D02*
X7487794Y-9116795D01*
X7487794Y-9116795D02*
X7478271Y-9097748D01*
X7478271Y-9097748D02*
X7459223Y-9069176D01*
X7459223Y-9069176D02*
X7449699Y-9059652D01*
D16*
X2434160Y-9510740D02*
X2484160Y-9460740D01*
X2434160Y-9410740D01*
X2384160Y-9460740D01*
X2434160Y-9510740D01*
D11*
X2849699Y-9552224D02*
X2735413Y-9552224D01*
X2792556Y-9552224D02*
X2792556Y-9352224D01*
X2792556Y-9352224D02*
X2773508Y-9380795D01*
X2773508Y-9380795D02*
X2754461Y-9399843D01*
X2754461Y-9399843D02*
X2735413Y-9409367D01*
X2935413Y-9533176D02*
X2944937Y-9542700D01*
X2944937Y-9542700D02*
X2935413Y-9552224D01*
X2935413Y-9552224D02*
X2925889Y-9542700D01*
X2925889Y-9542700D02*
X2935413Y-9533176D01*
X2935413Y-9533176D02*
X2935413Y-9552224D01*
X3068746Y-9352224D02*
X3087794Y-9352224D01*
X3087794Y-9352224D02*
X3106842Y-9361748D01*
X3106842Y-9361748D02*
X3116365Y-9371271D01*
X3116365Y-9371271D02*
X3125889Y-9390319D01*
X3125889Y-9390319D02*
X3135413Y-9428414D01*
X3135413Y-9428414D02*
X3135413Y-9476033D01*
X3135413Y-9476033D02*
X3125889Y-9514129D01*
X3125889Y-9514129D02*
X3116365Y-9533176D01*
X3116365Y-9533176D02*
X3106842Y-9542700D01*
X3106842Y-9542700D02*
X3087794Y-9552224D01*
X3087794Y-9552224D02*
X3068746Y-9552224D01*
X3068746Y-9552224D02*
X3049699Y-9542700D01*
X3049699Y-9542700D02*
X3040175Y-9533176D01*
X3040175Y-9533176D02*
X3030651Y-9514129D01*
X3030651Y-9514129D02*
X3021127Y-9476033D01*
X3021127Y-9476033D02*
X3021127Y-9428414D01*
X3021127Y-9428414D02*
X3030651Y-9390319D01*
X3030651Y-9390319D02*
X3040175Y-9371271D01*
X3040175Y-9371271D02*
X3049699Y-9361748D01*
X3049699Y-9361748D02*
X3068746Y-9352224D01*
X3259222Y-9352224D02*
X3278270Y-9352224D01*
X3278270Y-9352224D02*
X3297318Y-9361748D01*
X3297318Y-9361748D02*
X3306842Y-9371271D01*
X3306842Y-9371271D02*
X3316365Y-9390319D01*
X3316365Y-9390319D02*
X3325889Y-9428414D01*
X3325889Y-9428414D02*
X3325889Y-9476033D01*
X3325889Y-9476033D02*
X3316365Y-9514129D01*
X3316365Y-9514129D02*
X3306842Y-9533176D01*
X3306842Y-9533176D02*
X3297318Y-9542700D01*
X3297318Y-9542700D02*
X3278270Y-9552224D01*
X3278270Y-9552224D02*
X3259222Y-9552224D01*
X3259222Y-9552224D02*
X3240175Y-9542700D01*
X3240175Y-9542700D02*
X3230651Y-9533176D01*
X3230651Y-9533176D02*
X3221127Y-9514129D01*
X3221127Y-9514129D02*
X3211603Y-9476033D01*
X3211603Y-9476033D02*
X3211603Y-9428414D01*
X3211603Y-9428414D02*
X3221127Y-9390319D01*
X3221127Y-9390319D02*
X3230651Y-9371271D01*
X3230651Y-9371271D02*
X3240175Y-9361748D01*
X3240175Y-9361748D02*
X3259222Y-9352224D01*
X3449699Y-9352224D02*
X3468746Y-9352224D01*
X3468746Y-9352224D02*
X3487794Y-9361748D01*
X3487794Y-9361748D02*
X3497318Y-9371271D01*
X3497318Y-9371271D02*
X3506842Y-9390319D01*
X3506842Y-9390319D02*
X3516365Y-9428414D01*
X3516365Y-9428414D02*
X3516365Y-9476033D01*
X3516365Y-9476033D02*
X3506842Y-9514129D01*
X3506842Y-9514129D02*
X3497318Y-9533176D01*
X3497318Y-9533176D02*
X3487794Y-9542700D01*
X3487794Y-9542700D02*
X3468746Y-9552224D01*
X3468746Y-9552224D02*
X3449699Y-9552224D01*
X3449699Y-9552224D02*
X3430651Y-9542700D01*
X3430651Y-9542700D02*
X3421127Y-9533176D01*
X3421127Y-9533176D02*
X3411603Y-9514129D01*
X3411603Y-9514129D02*
X3402080Y-9476033D01*
X3402080Y-9476033D02*
X3402080Y-9428414D01*
X3402080Y-9428414D02*
X3411603Y-9390319D01*
X3411603Y-9390319D02*
X3421127Y-9371271D01*
X3421127Y-9371271D02*
X3430651Y-9361748D01*
X3430651Y-9361748D02*
X3449699Y-9352224D01*
X3602080Y-9552224D02*
X3602080Y-9418890D01*
X3602080Y-9437938D02*
X3611603Y-9428414D01*
X3611603Y-9428414D02*
X3630651Y-9418890D01*
X3630651Y-9418890D02*
X3659223Y-9418890D01*
X3659223Y-9418890D02*
X3678270Y-9428414D01*
X3678270Y-9428414D02*
X3687794Y-9447462D01*
X3687794Y-9447462D02*
X3687794Y-9552224D01*
X3687794Y-9447462D02*
X3697318Y-9428414D01*
X3697318Y-9428414D02*
X3716365Y-9418890D01*
X3716365Y-9418890D02*
X3744937Y-9418890D01*
X3744937Y-9418890D02*
X3763984Y-9428414D01*
X3763984Y-9428414D02*
X3773508Y-9447462D01*
X3773508Y-9447462D02*
X3773508Y-9552224D01*
X3868746Y-9552224D02*
X3868746Y-9418890D01*
X3868746Y-9437938D02*
X3878270Y-9428414D01*
X3878270Y-9428414D02*
X3897318Y-9418890D01*
X3897318Y-9418890D02*
X3925889Y-9418890D01*
X3925889Y-9418890D02*
X3944937Y-9428414D01*
X3944937Y-9428414D02*
X3954461Y-9447462D01*
X3954461Y-9447462D02*
X3954461Y-9552224D01*
X3954461Y-9447462D02*
X3963984Y-9428414D01*
X3963984Y-9428414D02*
X3983032Y-9418890D01*
X3983032Y-9418890D02*
X4011603Y-9418890D01*
X4011603Y-9418890D02*
X4030651Y-9428414D01*
X4030651Y-9428414D02*
X4040175Y-9447462D01*
X4040175Y-9447462D02*
X4040175Y-9552224D01*
X4430651Y-9342700D02*
X4259223Y-9599843D01*
X4687794Y-9352224D02*
X4706842Y-9352224D01*
X4706842Y-9352224D02*
X4725889Y-9361748D01*
X4725889Y-9361748D02*
X4735413Y-9371271D01*
X4735413Y-9371271D02*
X4744937Y-9390319D01*
X4744937Y-9390319D02*
X4754461Y-9428414D01*
X4754461Y-9428414D02*
X4754461Y-9476033D01*
X4754461Y-9476033D02*
X4744937Y-9514129D01*
X4744937Y-9514129D02*
X4735413Y-9533176D01*
X4735413Y-9533176D02*
X4725889Y-9542700D01*
X4725889Y-9542700D02*
X4706842Y-9552224D01*
X4706842Y-9552224D02*
X4687794Y-9552224D01*
X4687794Y-9552224D02*
X4668747Y-9542700D01*
X4668747Y-9542700D02*
X4659223Y-9533176D01*
X4659223Y-9533176D02*
X4649699Y-9514129D01*
X4649699Y-9514129D02*
X4640175Y-9476033D01*
X4640175Y-9476033D02*
X4640175Y-9428414D01*
X4640175Y-9428414D02*
X4649699Y-9390319D01*
X4649699Y-9390319D02*
X4659223Y-9371271D01*
X4659223Y-9371271D02*
X4668747Y-9361748D01*
X4668747Y-9361748D02*
X4687794Y-9352224D01*
X4840175Y-9533176D02*
X4849699Y-9542700D01*
X4849699Y-9542700D02*
X4840175Y-9552224D01*
X4840175Y-9552224D02*
X4830651Y-9542700D01*
X4830651Y-9542700D02*
X4840175Y-9533176D01*
X4840175Y-9533176D02*
X4840175Y-9552224D01*
X4973508Y-9352224D02*
X4992556Y-9352224D01*
X4992556Y-9352224D02*
X5011604Y-9361748D01*
X5011604Y-9361748D02*
X5021128Y-9371271D01*
X5021128Y-9371271D02*
X5030651Y-9390319D01*
X5030651Y-9390319D02*
X5040175Y-9428414D01*
X5040175Y-9428414D02*
X5040175Y-9476033D01*
X5040175Y-9476033D02*
X5030651Y-9514129D01*
X5030651Y-9514129D02*
X5021128Y-9533176D01*
X5021128Y-9533176D02*
X5011604Y-9542700D01*
X5011604Y-9542700D02*
X4992556Y-9552224D01*
X4992556Y-9552224D02*
X4973508Y-9552224D01*
X4973508Y-9552224D02*
X4954461Y-9542700D01*
X4954461Y-9542700D02*
X4944937Y-9533176D01*
X4944937Y-9533176D02*
X4935413Y-9514129D01*
X4935413Y-9514129D02*
X4925889Y-9476033D01*
X4925889Y-9476033D02*
X4925889Y-9428414D01*
X4925889Y-9428414D02*
X4935413Y-9390319D01*
X4935413Y-9390319D02*
X4944937Y-9371271D01*
X4944937Y-9371271D02*
X4954461Y-9361748D01*
X4954461Y-9361748D02*
X4973508Y-9352224D01*
X5106842Y-9352224D02*
X5230651Y-9352224D01*
X5230651Y-9352224D02*
X5163985Y-9428414D01*
X5163985Y-9428414D02*
X5192556Y-9428414D01*
X5192556Y-9428414D02*
X5211604Y-9437938D01*
X5211604Y-9437938D02*
X5221128Y-9447462D01*
X5221128Y-9447462D02*
X5230651Y-9466510D01*
X5230651Y-9466510D02*
X5230651Y-9514129D01*
X5230651Y-9514129D02*
X5221128Y-9533176D01*
X5221128Y-9533176D02*
X5211604Y-9542700D01*
X5211604Y-9542700D02*
X5192556Y-9552224D01*
X5192556Y-9552224D02*
X5135413Y-9552224D01*
X5135413Y-9552224D02*
X5116366Y-9542700D01*
X5116366Y-9542700D02*
X5106842Y-9533176D01*
X5325889Y-9552224D02*
X5363985Y-9552224D01*
X5363985Y-9552224D02*
X5383032Y-9542700D01*
X5383032Y-9542700D02*
X5392556Y-9533176D01*
X5392556Y-9533176D02*
X5411604Y-9504605D01*
X5411604Y-9504605D02*
X5421128Y-9466510D01*
X5421128Y-9466510D02*
X5421128Y-9390319D01*
X5421128Y-9390319D02*
X5411604Y-9371271D01*
X5411604Y-9371271D02*
X5402080Y-9361748D01*
X5402080Y-9361748D02*
X5383032Y-9352224D01*
X5383032Y-9352224D02*
X5344937Y-9352224D01*
X5344937Y-9352224D02*
X5325889Y-9361748D01*
X5325889Y-9361748D02*
X5316366Y-9371271D01*
X5316366Y-9371271D02*
X5306842Y-9390319D01*
X5306842Y-9390319D02*
X5306842Y-9437938D01*
X5306842Y-9437938D02*
X5316366Y-9456986D01*
X5316366Y-9456986D02*
X5325889Y-9466510D01*
X5325889Y-9466510D02*
X5344937Y-9476033D01*
X5344937Y-9476033D02*
X5383032Y-9476033D01*
X5383032Y-9476033D02*
X5402080Y-9466510D01*
X5402080Y-9466510D02*
X5411604Y-9456986D01*
X5411604Y-9456986D02*
X5421128Y-9437938D01*
X5592556Y-9418890D02*
X5592556Y-9552224D01*
X5544937Y-9342700D02*
X5497318Y-9485557D01*
X5497318Y-9485557D02*
X5621127Y-9485557D01*
X5687794Y-9352224D02*
X5687794Y-9390319D01*
X5763985Y-9352224D02*
X5763985Y-9390319D01*
X6059223Y-9628414D02*
X6049699Y-9618890D01*
X6049699Y-9618890D02*
X6030651Y-9590319D01*
X6030651Y-9590319D02*
X6021128Y-9571271D01*
X6021128Y-9571271D02*
X6011604Y-9542700D01*
X6011604Y-9542700D02*
X6002080Y-9495081D01*
X6002080Y-9495081D02*
X6002080Y-9456986D01*
X6002080Y-9456986D02*
X6011604Y-9409367D01*
X6011604Y-9409367D02*
X6021128Y-9380795D01*
X6021128Y-9380795D02*
X6030651Y-9361748D01*
X6030651Y-9361748D02*
X6049699Y-9333176D01*
X6049699Y-9333176D02*
X6059223Y-9323652D01*
X6221128Y-9418890D02*
X6221128Y-9552224D01*
X6173508Y-9342700D02*
X6125889Y-9485557D01*
X6125889Y-9485557D02*
X6249699Y-9485557D01*
X6478270Y-9552224D02*
X6478270Y-9352224D01*
X6563985Y-9552224D02*
X6563985Y-9447462D01*
X6563985Y-9447462D02*
X6554461Y-9428414D01*
X6554461Y-9428414D02*
X6535413Y-9418890D01*
X6535413Y-9418890D02*
X6506842Y-9418890D01*
X6506842Y-9418890D02*
X6487794Y-9428414D01*
X6487794Y-9428414D02*
X6478270Y-9437938D01*
X6687794Y-9552224D02*
X6668747Y-9542700D01*
X6668747Y-9542700D02*
X6659223Y-9533176D01*
X6659223Y-9533176D02*
X6649699Y-9514129D01*
X6649699Y-9514129D02*
X6649699Y-9456986D01*
X6649699Y-9456986D02*
X6659223Y-9437938D01*
X6659223Y-9437938D02*
X6668747Y-9428414D01*
X6668747Y-9428414D02*
X6687794Y-9418890D01*
X6687794Y-9418890D02*
X6716366Y-9418890D01*
X6716366Y-9418890D02*
X6735413Y-9428414D01*
X6735413Y-9428414D02*
X6744937Y-9437938D01*
X6744937Y-9437938D02*
X6754461Y-9456986D01*
X6754461Y-9456986D02*
X6754461Y-9514129D01*
X6754461Y-9514129D02*
X6744937Y-9533176D01*
X6744937Y-9533176D02*
X6735413Y-9542700D01*
X6735413Y-9542700D02*
X6716366Y-9552224D01*
X6716366Y-9552224D02*
X6687794Y-9552224D01*
X6868747Y-9552224D02*
X6849699Y-9542700D01*
X6849699Y-9542700D02*
X6840175Y-9523652D01*
X6840175Y-9523652D02*
X6840175Y-9352224D01*
X7021128Y-9542700D02*
X7002080Y-9552224D01*
X7002080Y-9552224D02*
X6963985Y-9552224D01*
X6963985Y-9552224D02*
X6944937Y-9542700D01*
X6944937Y-9542700D02*
X6935413Y-9523652D01*
X6935413Y-9523652D02*
X6935413Y-9447462D01*
X6935413Y-9447462D02*
X6944937Y-9428414D01*
X6944937Y-9428414D02*
X6963985Y-9418890D01*
X6963985Y-9418890D02*
X7002080Y-9418890D01*
X7002080Y-9418890D02*
X7021128Y-9428414D01*
X7021128Y-9428414D02*
X7030651Y-9447462D01*
X7030651Y-9447462D02*
X7030651Y-9466510D01*
X7030651Y-9466510D02*
X6935413Y-9485557D01*
X7106842Y-9542700D02*
X7125890Y-9552224D01*
X7125890Y-9552224D02*
X7163985Y-9552224D01*
X7163985Y-9552224D02*
X7183032Y-9542700D01*
X7183032Y-9542700D02*
X7192556Y-9523652D01*
X7192556Y-9523652D02*
X7192556Y-9514129D01*
X7192556Y-9514129D02*
X7183032Y-9495081D01*
X7183032Y-9495081D02*
X7163985Y-9485557D01*
X7163985Y-9485557D02*
X7135413Y-9485557D01*
X7135413Y-9485557D02*
X7116366Y-9476033D01*
X7116366Y-9476033D02*
X7106842Y-9456986D01*
X7106842Y-9456986D02*
X7106842Y-9447462D01*
X7106842Y-9447462D02*
X7116366Y-9428414D01*
X7116366Y-9428414D02*
X7135413Y-9418890D01*
X7135413Y-9418890D02*
X7163985Y-9418890D01*
X7163985Y-9418890D02*
X7183032Y-9428414D01*
X7259223Y-9628414D02*
X7268747Y-9618890D01*
X7268747Y-9618890D02*
X7287794Y-9590319D01*
X7287794Y-9590319D02*
X7297318Y-9571271D01*
X7297318Y-9571271D02*
X7306842Y-9542700D01*
X7306842Y-9542700D02*
X7316366Y-9495081D01*
X7316366Y-9495081D02*
X7316366Y-9456986D01*
X7316366Y-9456986D02*
X7306842Y-9409367D01*
X7306842Y-9409367D02*
X7297318Y-9380795D01*
X7297318Y-9380795D02*
X7287794Y-9361748D01*
X7287794Y-9361748D02*
X7268747Y-9333176D01*
X7268747Y-9333176D02*
X7259223Y-9323652D01*
D17*
X2379160Y-9672240D02*
X2484160Y-9777240D01*
X2484160Y-9672240D02*
X2379160Y-9777240D01*
X2484160Y-9724740D02*
G75*
G03*
X2484160Y-9724740I-52500J0D01*
G01*
D11*
X2849699Y-9816224D02*
X2735413Y-9816224D01*
X2792556Y-9816224D02*
X2792556Y-9616224D01*
X2792556Y-9616224D02*
X2773508Y-9644795D01*
X2773508Y-9644795D02*
X2754461Y-9663843D01*
X2754461Y-9663843D02*
X2735413Y-9673367D01*
X2935413Y-9797176D02*
X2944937Y-9806700D01*
X2944937Y-9806700D02*
X2935413Y-9816224D01*
X2935413Y-9816224D02*
X2925889Y-9806700D01*
X2925889Y-9806700D02*
X2935413Y-9797176D01*
X2935413Y-9797176D02*
X2935413Y-9816224D01*
X3068746Y-9616224D02*
X3087794Y-9616224D01*
X3087794Y-9616224D02*
X3106842Y-9625748D01*
X3106842Y-9625748D02*
X3116365Y-9635271D01*
X3116365Y-9635271D02*
X3125889Y-9654319D01*
X3125889Y-9654319D02*
X3135413Y-9692414D01*
X3135413Y-9692414D02*
X3135413Y-9740033D01*
X3135413Y-9740033D02*
X3125889Y-9778129D01*
X3125889Y-9778129D02*
X3116365Y-9797176D01*
X3116365Y-9797176D02*
X3106842Y-9806700D01*
X3106842Y-9806700D02*
X3087794Y-9816224D01*
X3087794Y-9816224D02*
X3068746Y-9816224D01*
X3068746Y-9816224D02*
X3049699Y-9806700D01*
X3049699Y-9806700D02*
X3040175Y-9797176D01*
X3040175Y-9797176D02*
X3030651Y-9778129D01*
X3030651Y-9778129D02*
X3021127Y-9740033D01*
X3021127Y-9740033D02*
X3021127Y-9692414D01*
X3021127Y-9692414D02*
X3030651Y-9654319D01*
X3030651Y-9654319D02*
X3040175Y-9635271D01*
X3040175Y-9635271D02*
X3049699Y-9625748D01*
X3049699Y-9625748D02*
X3068746Y-9616224D01*
X3316365Y-9616224D02*
X3221127Y-9616224D01*
X3221127Y-9616224D02*
X3211603Y-9711462D01*
X3211603Y-9711462D02*
X3221127Y-9701938D01*
X3221127Y-9701938D02*
X3240175Y-9692414D01*
X3240175Y-9692414D02*
X3287794Y-9692414D01*
X3287794Y-9692414D02*
X3306842Y-9701938D01*
X3306842Y-9701938D02*
X3316365Y-9711462D01*
X3316365Y-9711462D02*
X3325889Y-9730510D01*
X3325889Y-9730510D02*
X3325889Y-9778129D01*
X3325889Y-9778129D02*
X3316365Y-9797176D01*
X3316365Y-9797176D02*
X3306842Y-9806700D01*
X3306842Y-9806700D02*
X3287794Y-9816224D01*
X3287794Y-9816224D02*
X3240175Y-9816224D01*
X3240175Y-9816224D02*
X3221127Y-9806700D01*
X3221127Y-9806700D02*
X3211603Y-9797176D01*
X3449699Y-9616224D02*
X3468746Y-9616224D01*
X3468746Y-9616224D02*
X3487794Y-9625748D01*
X3487794Y-9625748D02*
X3497318Y-9635271D01*
X3497318Y-9635271D02*
X3506842Y-9654319D01*
X3506842Y-9654319D02*
X3516365Y-9692414D01*
X3516365Y-9692414D02*
X3516365Y-9740033D01*
X3516365Y-9740033D02*
X3506842Y-9778129D01*
X3506842Y-9778129D02*
X3497318Y-9797176D01*
X3497318Y-9797176D02*
X3487794Y-9806700D01*
X3487794Y-9806700D02*
X3468746Y-9816224D01*
X3468746Y-9816224D02*
X3449699Y-9816224D01*
X3449699Y-9816224D02*
X3430651Y-9806700D01*
X3430651Y-9806700D02*
X3421127Y-9797176D01*
X3421127Y-9797176D02*
X3411603Y-9778129D01*
X3411603Y-9778129D02*
X3402080Y-9740033D01*
X3402080Y-9740033D02*
X3402080Y-9692414D01*
X3402080Y-9692414D02*
X3411603Y-9654319D01*
X3411603Y-9654319D02*
X3421127Y-9635271D01*
X3421127Y-9635271D02*
X3430651Y-9625748D01*
X3430651Y-9625748D02*
X3449699Y-9616224D01*
X3602080Y-9816224D02*
X3602080Y-9682890D01*
X3602080Y-9701938D02*
X3611603Y-9692414D01*
X3611603Y-9692414D02*
X3630651Y-9682890D01*
X3630651Y-9682890D02*
X3659223Y-9682890D01*
X3659223Y-9682890D02*
X3678270Y-9692414D01*
X3678270Y-9692414D02*
X3687794Y-9711462D01*
X3687794Y-9711462D02*
X3687794Y-9816224D01*
X3687794Y-9711462D02*
X3697318Y-9692414D01*
X3697318Y-9692414D02*
X3716365Y-9682890D01*
X3716365Y-9682890D02*
X3744937Y-9682890D01*
X3744937Y-9682890D02*
X3763984Y-9692414D01*
X3763984Y-9692414D02*
X3773508Y-9711462D01*
X3773508Y-9711462D02*
X3773508Y-9816224D01*
X3868746Y-9816224D02*
X3868746Y-9682890D01*
X3868746Y-9701938D02*
X3878270Y-9692414D01*
X3878270Y-9692414D02*
X3897318Y-9682890D01*
X3897318Y-9682890D02*
X3925889Y-9682890D01*
X3925889Y-9682890D02*
X3944937Y-9692414D01*
X3944937Y-9692414D02*
X3954461Y-9711462D01*
X3954461Y-9711462D02*
X3954461Y-9816224D01*
X3954461Y-9711462D02*
X3963984Y-9692414D01*
X3963984Y-9692414D02*
X3983032Y-9682890D01*
X3983032Y-9682890D02*
X4011603Y-9682890D01*
X4011603Y-9682890D02*
X4030651Y-9692414D01*
X4030651Y-9692414D02*
X4040175Y-9711462D01*
X4040175Y-9711462D02*
X4040175Y-9816224D01*
X4430651Y-9606700D02*
X4259223Y-9863843D01*
X4687794Y-9616224D02*
X4706842Y-9616224D01*
X4706842Y-9616224D02*
X4725889Y-9625748D01*
X4725889Y-9625748D02*
X4735413Y-9635271D01*
X4735413Y-9635271D02*
X4744937Y-9654319D01*
X4744937Y-9654319D02*
X4754461Y-9692414D01*
X4754461Y-9692414D02*
X4754461Y-9740033D01*
X4754461Y-9740033D02*
X4744937Y-9778129D01*
X4744937Y-9778129D02*
X4735413Y-9797176D01*
X4735413Y-9797176D02*
X4725889Y-9806700D01*
X4725889Y-9806700D02*
X4706842Y-9816224D01*
X4706842Y-9816224D02*
X4687794Y-9816224D01*
X4687794Y-9816224D02*
X4668747Y-9806700D01*
X4668747Y-9806700D02*
X4659223Y-9797176D01*
X4659223Y-9797176D02*
X4649699Y-9778129D01*
X4649699Y-9778129D02*
X4640175Y-9740033D01*
X4640175Y-9740033D02*
X4640175Y-9692414D01*
X4640175Y-9692414D02*
X4649699Y-9654319D01*
X4649699Y-9654319D02*
X4659223Y-9635271D01*
X4659223Y-9635271D02*
X4668747Y-9625748D01*
X4668747Y-9625748D02*
X4687794Y-9616224D01*
X4840175Y-9797176D02*
X4849699Y-9806700D01*
X4849699Y-9806700D02*
X4840175Y-9816224D01*
X4840175Y-9816224D02*
X4830651Y-9806700D01*
X4830651Y-9806700D02*
X4840175Y-9797176D01*
X4840175Y-9797176D02*
X4840175Y-9816224D01*
X4973508Y-9616224D02*
X4992556Y-9616224D01*
X4992556Y-9616224D02*
X5011604Y-9625748D01*
X5011604Y-9625748D02*
X5021128Y-9635271D01*
X5021128Y-9635271D02*
X5030651Y-9654319D01*
X5030651Y-9654319D02*
X5040175Y-9692414D01*
X5040175Y-9692414D02*
X5040175Y-9740033D01*
X5040175Y-9740033D02*
X5030651Y-9778129D01*
X5030651Y-9778129D02*
X5021128Y-9797176D01*
X5021128Y-9797176D02*
X5011604Y-9806700D01*
X5011604Y-9806700D02*
X4992556Y-9816224D01*
X4992556Y-9816224D02*
X4973508Y-9816224D01*
X4973508Y-9816224D02*
X4954461Y-9806700D01*
X4954461Y-9806700D02*
X4944937Y-9797176D01*
X4944937Y-9797176D02*
X4935413Y-9778129D01*
X4935413Y-9778129D02*
X4925889Y-9740033D01*
X4925889Y-9740033D02*
X4925889Y-9692414D01*
X4925889Y-9692414D02*
X4935413Y-9654319D01*
X4935413Y-9654319D02*
X4944937Y-9635271D01*
X4944937Y-9635271D02*
X4954461Y-9625748D01*
X4954461Y-9625748D02*
X4973508Y-9616224D01*
X5211604Y-9682890D02*
X5211604Y-9816224D01*
X5163985Y-9606700D02*
X5116366Y-9749557D01*
X5116366Y-9749557D02*
X5240175Y-9749557D01*
X5421128Y-9816224D02*
X5306842Y-9816224D01*
X5363985Y-9816224D02*
X5363985Y-9616224D01*
X5363985Y-9616224D02*
X5344937Y-9644795D01*
X5344937Y-9644795D02*
X5325889Y-9663843D01*
X5325889Y-9663843D02*
X5306842Y-9673367D01*
X5487794Y-9616224D02*
X5611604Y-9616224D01*
X5611604Y-9616224D02*
X5544937Y-9692414D01*
X5544937Y-9692414D02*
X5573509Y-9692414D01*
X5573509Y-9692414D02*
X5592556Y-9701938D01*
X5592556Y-9701938D02*
X5602080Y-9711462D01*
X5602080Y-9711462D02*
X5611604Y-9730510D01*
X5611604Y-9730510D02*
X5611604Y-9778129D01*
X5611604Y-9778129D02*
X5602080Y-9797176D01*
X5602080Y-9797176D02*
X5592556Y-9806700D01*
X5592556Y-9806700D02*
X5573509Y-9816224D01*
X5573509Y-9816224D02*
X5516366Y-9816224D01*
X5516366Y-9816224D02*
X5497318Y-9806700D01*
X5497318Y-9806700D02*
X5487794Y-9797176D01*
X5687794Y-9616224D02*
X5687794Y-9654319D01*
X5763985Y-9616224D02*
X5763985Y-9654319D01*
X6059223Y-9892414D02*
X6049699Y-9882890D01*
X6049699Y-9882890D02*
X6030651Y-9854319D01*
X6030651Y-9854319D02*
X6021128Y-9835271D01*
X6021128Y-9835271D02*
X6011604Y-9806700D01*
X6011604Y-9806700D02*
X6002080Y-9759081D01*
X6002080Y-9759081D02*
X6002080Y-9720986D01*
X6002080Y-9720986D02*
X6011604Y-9673367D01*
X6011604Y-9673367D02*
X6021128Y-9644795D01*
X6021128Y-9644795D02*
X6030651Y-9625748D01*
X6030651Y-9625748D02*
X6049699Y-9597176D01*
X6049699Y-9597176D02*
X6059223Y-9587652D01*
X6125889Y-9635271D02*
X6135413Y-9625748D01*
X6135413Y-9625748D02*
X6154461Y-9616224D01*
X6154461Y-9616224D02*
X6202080Y-9616224D01*
X6202080Y-9616224D02*
X6221128Y-9625748D01*
X6221128Y-9625748D02*
X6230651Y-9635271D01*
X6230651Y-9635271D02*
X6240175Y-9654319D01*
X6240175Y-9654319D02*
X6240175Y-9673367D01*
X6240175Y-9673367D02*
X6230651Y-9701938D01*
X6230651Y-9701938D02*
X6116366Y-9816224D01*
X6116366Y-9816224D02*
X6240175Y-9816224D01*
X6478270Y-9816224D02*
X6478270Y-9616224D01*
X6563985Y-9816224D02*
X6563985Y-9711462D01*
X6563985Y-9711462D02*
X6554461Y-9692414D01*
X6554461Y-9692414D02*
X6535413Y-9682890D01*
X6535413Y-9682890D02*
X6506842Y-9682890D01*
X6506842Y-9682890D02*
X6487794Y-9692414D01*
X6487794Y-9692414D02*
X6478270Y-9701938D01*
X6687794Y-9816224D02*
X6668747Y-9806700D01*
X6668747Y-9806700D02*
X6659223Y-9797176D01*
X6659223Y-9797176D02*
X6649699Y-9778129D01*
X6649699Y-9778129D02*
X6649699Y-9720986D01*
X6649699Y-9720986D02*
X6659223Y-9701938D01*
X6659223Y-9701938D02*
X6668747Y-9692414D01*
X6668747Y-9692414D02*
X6687794Y-9682890D01*
X6687794Y-9682890D02*
X6716366Y-9682890D01*
X6716366Y-9682890D02*
X6735413Y-9692414D01*
X6735413Y-9692414D02*
X6744937Y-9701938D01*
X6744937Y-9701938D02*
X6754461Y-9720986D01*
X6754461Y-9720986D02*
X6754461Y-9778129D01*
X6754461Y-9778129D02*
X6744937Y-9797176D01*
X6744937Y-9797176D02*
X6735413Y-9806700D01*
X6735413Y-9806700D02*
X6716366Y-9816224D01*
X6716366Y-9816224D02*
X6687794Y-9816224D01*
X6868747Y-9816224D02*
X6849699Y-9806700D01*
X6849699Y-9806700D02*
X6840175Y-9787652D01*
X6840175Y-9787652D02*
X6840175Y-9616224D01*
X7021128Y-9806700D02*
X7002080Y-9816224D01*
X7002080Y-9816224D02*
X6963985Y-9816224D01*
X6963985Y-9816224D02*
X6944937Y-9806700D01*
X6944937Y-9806700D02*
X6935413Y-9787652D01*
X6935413Y-9787652D02*
X6935413Y-9711462D01*
X6935413Y-9711462D02*
X6944937Y-9692414D01*
X6944937Y-9692414D02*
X6963985Y-9682890D01*
X6963985Y-9682890D02*
X7002080Y-9682890D01*
X7002080Y-9682890D02*
X7021128Y-9692414D01*
X7021128Y-9692414D02*
X7030651Y-9711462D01*
X7030651Y-9711462D02*
X7030651Y-9730510D01*
X7030651Y-9730510D02*
X6935413Y-9749557D01*
X7106842Y-9806700D02*
X7125890Y-9816224D01*
X7125890Y-9816224D02*
X7163985Y-9816224D01*
X7163985Y-9816224D02*
X7183032Y-9806700D01*
X7183032Y-9806700D02*
X7192556Y-9787652D01*
X7192556Y-9787652D02*
X7192556Y-9778129D01*
X7192556Y-9778129D02*
X7183032Y-9759081D01*
X7183032Y-9759081D02*
X7163985Y-9749557D01*
X7163985Y-9749557D02*
X7135413Y-9749557D01*
X7135413Y-9749557D02*
X7116366Y-9740033D01*
X7116366Y-9740033D02*
X7106842Y-9720986D01*
X7106842Y-9720986D02*
X7106842Y-9711462D01*
X7106842Y-9711462D02*
X7116366Y-9692414D01*
X7116366Y-9692414D02*
X7135413Y-9682890D01*
X7135413Y-9682890D02*
X7163985Y-9682890D01*
X7163985Y-9682890D02*
X7183032Y-9692414D01*
X7259223Y-9892414D02*
X7268747Y-9882890D01*
X7268747Y-9882890D02*
X7287794Y-9854319D01*
X7287794Y-9854319D02*
X7297318Y-9835271D01*
X7297318Y-9835271D02*
X7306842Y-9806700D01*
X7306842Y-9806700D02*
X7316366Y-9759081D01*
X7316366Y-9759081D02*
X7316366Y-9720986D01*
X7316366Y-9720986D02*
X7306842Y-9673367D01*
X7306842Y-9673367D02*
X7297318Y-9644795D01*
X7297318Y-9644795D02*
X7287794Y-9625748D01*
X7287794Y-9625748D02*
X7268747Y-9597176D01*
X7268747Y-9597176D02*
X7259223Y-9587652D01*
D18*
X2374160Y-9933740D02*
X2484160Y-10043740D01*
X2484160Y-9933740D02*
X2374160Y-10043740D01*
X2429160Y-9933740D02*
X2429160Y-10043740D01*
X2374160Y-9988740D02*
X2484160Y-9988740D01*
D11*
X2849699Y-10080224D02*
X2735413Y-10080224D01*
X2792556Y-10080224D02*
X2792556Y-9880224D01*
X2792556Y-9880224D02*
X2773508Y-9908795D01*
X2773508Y-9908795D02*
X2754461Y-9927843D01*
X2754461Y-9927843D02*
X2735413Y-9937367D01*
X2935413Y-10061176D02*
X2944937Y-10070700D01*
X2944937Y-10070700D02*
X2935413Y-10080224D01*
X2935413Y-10080224D02*
X2925889Y-10070700D01*
X2925889Y-10070700D02*
X2935413Y-10061176D01*
X2935413Y-10061176D02*
X2935413Y-10080224D01*
X3135413Y-10080224D02*
X3021127Y-10080224D01*
X3078270Y-10080224D02*
X3078270Y-9880224D01*
X3078270Y-9880224D02*
X3059222Y-9908795D01*
X3059222Y-9908795D02*
X3040175Y-9927843D01*
X3040175Y-9927843D02*
X3021127Y-9937367D01*
X3259222Y-9880224D02*
X3278270Y-9880224D01*
X3278270Y-9880224D02*
X3297318Y-9889748D01*
X3297318Y-9889748D02*
X3306842Y-9899271D01*
X3306842Y-9899271D02*
X3316365Y-9918319D01*
X3316365Y-9918319D02*
X3325889Y-9956414D01*
X3325889Y-9956414D02*
X3325889Y-10004033D01*
X3325889Y-10004033D02*
X3316365Y-10042129D01*
X3316365Y-10042129D02*
X3306842Y-10061176D01*
X3306842Y-10061176D02*
X3297318Y-10070700D01*
X3297318Y-10070700D02*
X3278270Y-10080224D01*
X3278270Y-10080224D02*
X3259222Y-10080224D01*
X3259222Y-10080224D02*
X3240175Y-10070700D01*
X3240175Y-10070700D02*
X3230651Y-10061176D01*
X3230651Y-10061176D02*
X3221127Y-10042129D01*
X3221127Y-10042129D02*
X3211603Y-10004033D01*
X3211603Y-10004033D02*
X3211603Y-9956414D01*
X3211603Y-9956414D02*
X3221127Y-9918319D01*
X3221127Y-9918319D02*
X3230651Y-9899271D01*
X3230651Y-9899271D02*
X3240175Y-9889748D01*
X3240175Y-9889748D02*
X3259222Y-9880224D01*
X3449699Y-9880224D02*
X3468746Y-9880224D01*
X3468746Y-9880224D02*
X3487794Y-9889748D01*
X3487794Y-9889748D02*
X3497318Y-9899271D01*
X3497318Y-9899271D02*
X3506842Y-9918319D01*
X3506842Y-9918319D02*
X3516365Y-9956414D01*
X3516365Y-9956414D02*
X3516365Y-10004033D01*
X3516365Y-10004033D02*
X3506842Y-10042129D01*
X3506842Y-10042129D02*
X3497318Y-10061176D01*
X3497318Y-10061176D02*
X3487794Y-10070700D01*
X3487794Y-10070700D02*
X3468746Y-10080224D01*
X3468746Y-10080224D02*
X3449699Y-10080224D01*
X3449699Y-10080224D02*
X3430651Y-10070700D01*
X3430651Y-10070700D02*
X3421127Y-10061176D01*
X3421127Y-10061176D02*
X3411603Y-10042129D01*
X3411603Y-10042129D02*
X3402080Y-10004033D01*
X3402080Y-10004033D02*
X3402080Y-9956414D01*
X3402080Y-9956414D02*
X3411603Y-9918319D01*
X3411603Y-9918319D02*
X3421127Y-9899271D01*
X3421127Y-9899271D02*
X3430651Y-9889748D01*
X3430651Y-9889748D02*
X3449699Y-9880224D01*
X3602080Y-10080224D02*
X3602080Y-9946890D01*
X3602080Y-9965938D02*
X3611603Y-9956414D01*
X3611603Y-9956414D02*
X3630651Y-9946890D01*
X3630651Y-9946890D02*
X3659223Y-9946890D01*
X3659223Y-9946890D02*
X3678270Y-9956414D01*
X3678270Y-9956414D02*
X3687794Y-9975462D01*
X3687794Y-9975462D02*
X3687794Y-10080224D01*
X3687794Y-9975462D02*
X3697318Y-9956414D01*
X3697318Y-9956414D02*
X3716365Y-9946890D01*
X3716365Y-9946890D02*
X3744937Y-9946890D01*
X3744937Y-9946890D02*
X3763984Y-9956414D01*
X3763984Y-9956414D02*
X3773508Y-9975462D01*
X3773508Y-9975462D02*
X3773508Y-10080224D01*
X3868746Y-10080224D02*
X3868746Y-9946890D01*
X3868746Y-9965938D02*
X3878270Y-9956414D01*
X3878270Y-9956414D02*
X3897318Y-9946890D01*
X3897318Y-9946890D02*
X3925889Y-9946890D01*
X3925889Y-9946890D02*
X3944937Y-9956414D01*
X3944937Y-9956414D02*
X3954461Y-9975462D01*
X3954461Y-9975462D02*
X3954461Y-10080224D01*
X3954461Y-9975462D02*
X3963984Y-9956414D01*
X3963984Y-9956414D02*
X3983032Y-9946890D01*
X3983032Y-9946890D02*
X4011603Y-9946890D01*
X4011603Y-9946890D02*
X4030651Y-9956414D01*
X4030651Y-9956414D02*
X4040175Y-9975462D01*
X4040175Y-9975462D02*
X4040175Y-10080224D01*
X4430651Y-9870700D02*
X4259223Y-10127843D01*
X4687794Y-9880224D02*
X4706842Y-9880224D01*
X4706842Y-9880224D02*
X4725889Y-9889748D01*
X4725889Y-9889748D02*
X4735413Y-9899271D01*
X4735413Y-9899271D02*
X4744937Y-9918319D01*
X4744937Y-9918319D02*
X4754461Y-9956414D01*
X4754461Y-9956414D02*
X4754461Y-10004033D01*
X4754461Y-10004033D02*
X4744937Y-10042129D01*
X4744937Y-10042129D02*
X4735413Y-10061176D01*
X4735413Y-10061176D02*
X4725889Y-10070700D01*
X4725889Y-10070700D02*
X4706842Y-10080224D01*
X4706842Y-10080224D02*
X4687794Y-10080224D01*
X4687794Y-10080224D02*
X4668747Y-10070700D01*
X4668747Y-10070700D02*
X4659223Y-10061176D01*
X4659223Y-10061176D02*
X4649699Y-10042129D01*
X4649699Y-10042129D02*
X4640175Y-10004033D01*
X4640175Y-10004033D02*
X4640175Y-9956414D01*
X4640175Y-9956414D02*
X4649699Y-9918319D01*
X4649699Y-9918319D02*
X4659223Y-9899271D01*
X4659223Y-9899271D02*
X4668747Y-9889748D01*
X4668747Y-9889748D02*
X4687794Y-9880224D01*
X4840175Y-10061176D02*
X4849699Y-10070700D01*
X4849699Y-10070700D02*
X4840175Y-10080224D01*
X4840175Y-10080224D02*
X4830651Y-10070700D01*
X4830651Y-10070700D02*
X4840175Y-10061176D01*
X4840175Y-10061176D02*
X4840175Y-10080224D01*
X4973508Y-9880224D02*
X4992556Y-9880224D01*
X4992556Y-9880224D02*
X5011604Y-9889748D01*
X5011604Y-9889748D02*
X5021128Y-9899271D01*
X5021128Y-9899271D02*
X5030651Y-9918319D01*
X5030651Y-9918319D02*
X5040175Y-9956414D01*
X5040175Y-9956414D02*
X5040175Y-10004033D01*
X5040175Y-10004033D02*
X5030651Y-10042129D01*
X5030651Y-10042129D02*
X5021128Y-10061176D01*
X5021128Y-10061176D02*
X5011604Y-10070700D01*
X5011604Y-10070700D02*
X4992556Y-10080224D01*
X4992556Y-10080224D02*
X4973508Y-10080224D01*
X4973508Y-10080224D02*
X4954461Y-10070700D01*
X4954461Y-10070700D02*
X4944937Y-10061176D01*
X4944937Y-10061176D02*
X4935413Y-10042129D01*
X4935413Y-10042129D02*
X4925889Y-10004033D01*
X4925889Y-10004033D02*
X4925889Y-9956414D01*
X4925889Y-9956414D02*
X4935413Y-9918319D01*
X4935413Y-9918319D02*
X4944937Y-9899271D01*
X4944937Y-9899271D02*
X4954461Y-9889748D01*
X4954461Y-9889748D02*
X4973508Y-9880224D01*
X5211604Y-9946890D02*
X5211604Y-10080224D01*
X5163985Y-9870700D02*
X5116366Y-10013557D01*
X5116366Y-10013557D02*
X5240175Y-10013557D01*
X5297318Y-9880224D02*
X5421128Y-9880224D01*
X5421128Y-9880224D02*
X5354461Y-9956414D01*
X5354461Y-9956414D02*
X5383032Y-9956414D01*
X5383032Y-9956414D02*
X5402080Y-9965938D01*
X5402080Y-9965938D02*
X5411604Y-9975462D01*
X5411604Y-9975462D02*
X5421128Y-9994510D01*
X5421128Y-9994510D02*
X5421128Y-10042129D01*
X5421128Y-10042129D02*
X5411604Y-10061176D01*
X5411604Y-10061176D02*
X5402080Y-10070700D01*
X5402080Y-10070700D02*
X5383032Y-10080224D01*
X5383032Y-10080224D02*
X5325889Y-10080224D01*
X5325889Y-10080224D02*
X5306842Y-10070700D01*
X5306842Y-10070700D02*
X5297318Y-10061176D01*
X5487794Y-9880224D02*
X5611604Y-9880224D01*
X5611604Y-9880224D02*
X5544937Y-9956414D01*
X5544937Y-9956414D02*
X5573509Y-9956414D01*
X5573509Y-9956414D02*
X5592556Y-9965938D01*
X5592556Y-9965938D02*
X5602080Y-9975462D01*
X5602080Y-9975462D02*
X5611604Y-9994510D01*
X5611604Y-9994510D02*
X5611604Y-10042129D01*
X5611604Y-10042129D02*
X5602080Y-10061176D01*
X5602080Y-10061176D02*
X5592556Y-10070700D01*
X5592556Y-10070700D02*
X5573509Y-10080224D01*
X5573509Y-10080224D02*
X5516366Y-10080224D01*
X5516366Y-10080224D02*
X5497318Y-10070700D01*
X5497318Y-10070700D02*
X5487794Y-10061176D01*
X5687794Y-9880224D02*
X5687794Y-9918319D01*
X5763985Y-9880224D02*
X5763985Y-9918319D01*
X6059223Y-10156414D02*
X6049699Y-10146890D01*
X6049699Y-10146890D02*
X6030651Y-10118319D01*
X6030651Y-10118319D02*
X6021128Y-10099271D01*
X6021128Y-10099271D02*
X6011604Y-10070700D01*
X6011604Y-10070700D02*
X6002080Y-10023081D01*
X6002080Y-10023081D02*
X6002080Y-9984986D01*
X6002080Y-9984986D02*
X6011604Y-9937367D01*
X6011604Y-9937367D02*
X6021128Y-9908795D01*
X6021128Y-9908795D02*
X6030651Y-9889748D01*
X6030651Y-9889748D02*
X6049699Y-9861176D01*
X6049699Y-9861176D02*
X6059223Y-9851652D01*
X6240175Y-10080224D02*
X6125889Y-10080224D01*
X6183032Y-10080224D02*
X6183032Y-9880224D01*
X6183032Y-9880224D02*
X6163985Y-9908795D01*
X6163985Y-9908795D02*
X6144937Y-9927843D01*
X6144937Y-9927843D02*
X6125889Y-9937367D01*
X6306842Y-9880224D02*
X6430651Y-9880224D01*
X6430651Y-9880224D02*
X6363985Y-9956414D01*
X6363985Y-9956414D02*
X6392556Y-9956414D01*
X6392556Y-9956414D02*
X6411604Y-9965938D01*
X6411604Y-9965938D02*
X6421128Y-9975462D01*
X6421128Y-9975462D02*
X6430651Y-9994510D01*
X6430651Y-9994510D02*
X6430651Y-10042129D01*
X6430651Y-10042129D02*
X6421128Y-10061176D01*
X6421128Y-10061176D02*
X6411604Y-10070700D01*
X6411604Y-10070700D02*
X6392556Y-10080224D01*
X6392556Y-10080224D02*
X6335413Y-10080224D01*
X6335413Y-10080224D02*
X6316366Y-10070700D01*
X6316366Y-10070700D02*
X6306842Y-10061176D01*
X6668747Y-10080224D02*
X6668747Y-9880224D01*
X6754461Y-10080224D02*
X6754461Y-9975462D01*
X6754461Y-9975462D02*
X6744937Y-9956414D01*
X6744937Y-9956414D02*
X6725890Y-9946890D01*
X6725890Y-9946890D02*
X6697318Y-9946890D01*
X6697318Y-9946890D02*
X6678270Y-9956414D01*
X6678270Y-9956414D02*
X6668747Y-9965938D01*
X6878270Y-10080224D02*
X6859223Y-10070700D01*
X6859223Y-10070700D02*
X6849699Y-10061176D01*
X6849699Y-10061176D02*
X6840175Y-10042129D01*
X6840175Y-10042129D02*
X6840175Y-9984986D01*
X6840175Y-9984986D02*
X6849699Y-9965938D01*
X6849699Y-9965938D02*
X6859223Y-9956414D01*
X6859223Y-9956414D02*
X6878270Y-9946890D01*
X6878270Y-9946890D02*
X6906842Y-9946890D01*
X6906842Y-9946890D02*
X6925890Y-9956414D01*
X6925890Y-9956414D02*
X6935413Y-9965938D01*
X6935413Y-9965938D02*
X6944937Y-9984986D01*
X6944937Y-9984986D02*
X6944937Y-10042129D01*
X6944937Y-10042129D02*
X6935413Y-10061176D01*
X6935413Y-10061176D02*
X6925890Y-10070700D01*
X6925890Y-10070700D02*
X6906842Y-10080224D01*
X6906842Y-10080224D02*
X6878270Y-10080224D01*
X7059223Y-10080224D02*
X7040175Y-10070700D01*
X7040175Y-10070700D02*
X7030651Y-10051652D01*
X7030651Y-10051652D02*
X7030651Y-9880224D01*
X7211604Y-10070700D02*
X7192556Y-10080224D01*
X7192556Y-10080224D02*
X7154461Y-10080224D01*
X7154461Y-10080224D02*
X7135413Y-10070700D01*
X7135413Y-10070700D02*
X7125890Y-10051652D01*
X7125890Y-10051652D02*
X7125890Y-9975462D01*
X7125890Y-9975462D02*
X7135413Y-9956414D01*
X7135413Y-9956414D02*
X7154461Y-9946890D01*
X7154461Y-9946890D02*
X7192556Y-9946890D01*
X7192556Y-9946890D02*
X7211604Y-9956414D01*
X7211604Y-9956414D02*
X7221128Y-9975462D01*
X7221128Y-9975462D02*
X7221128Y-9994510D01*
X7221128Y-9994510D02*
X7125890Y-10013557D01*
X7297318Y-10070700D02*
X7316366Y-10080224D01*
X7316366Y-10080224D02*
X7354461Y-10080224D01*
X7354461Y-10080224D02*
X7373509Y-10070700D01*
X7373509Y-10070700D02*
X7383032Y-10051652D01*
X7383032Y-10051652D02*
X7383032Y-10042129D01*
X7383032Y-10042129D02*
X7373509Y-10023081D01*
X7373509Y-10023081D02*
X7354461Y-10013557D01*
X7354461Y-10013557D02*
X7325890Y-10013557D01*
X7325890Y-10013557D02*
X7306842Y-10004033D01*
X7306842Y-10004033D02*
X7297318Y-9984986D01*
X7297318Y-9984986D02*
X7297318Y-9975462D01*
X7297318Y-9975462D02*
X7306842Y-9956414D01*
X7306842Y-9956414D02*
X7325890Y-9946890D01*
X7325890Y-9946890D02*
X7354461Y-9946890D01*
X7354461Y-9946890D02*
X7373509Y-9956414D01*
X7449699Y-10156414D02*
X7459223Y-10146890D01*
X7459223Y-10146890D02*
X7478271Y-10118319D01*
X7478271Y-10118319D02*
X7487794Y-10099271D01*
X7487794Y-10099271D02*
X7497318Y-10070700D01*
X7497318Y-10070700D02*
X7506842Y-10023081D01*
X7506842Y-10023081D02*
X7506842Y-9984986D01*
X7506842Y-9984986D02*
X7497318Y-9937367D01*
X7497318Y-9937367D02*
X7487794Y-9908795D01*
X7487794Y-9908795D02*
X7478271Y-9889748D01*
X7478271Y-9889748D02*
X7459223Y-9861176D01*
X7459223Y-9861176D02*
X7449699Y-9851652D01*
D19*
X2364160Y-10192740D02*
X2484160Y-10312740D01*
X2484160Y-10192740D02*
X2364160Y-10312740D01*
X2466587Y-10295167D02*
X2466587Y-10210313D01*
X2381733Y-10210313D01*
X2381733Y-10295167D01*
X2466587Y-10295167D01*
D11*
X2849699Y-10344224D02*
X2735413Y-10344224D01*
X2792556Y-10344224D02*
X2792556Y-10144224D01*
X2792556Y-10144224D02*
X2773508Y-10172795D01*
X2773508Y-10172795D02*
X2754461Y-10191843D01*
X2754461Y-10191843D02*
X2735413Y-10201367D01*
X2935413Y-10325176D02*
X2944937Y-10334700D01*
X2944937Y-10334700D02*
X2935413Y-10344224D01*
X2935413Y-10344224D02*
X2925889Y-10334700D01*
X2925889Y-10334700D02*
X2935413Y-10325176D01*
X2935413Y-10325176D02*
X2935413Y-10344224D01*
X3021127Y-10163271D02*
X3030651Y-10153748D01*
X3030651Y-10153748D02*
X3049699Y-10144224D01*
X3049699Y-10144224D02*
X3097318Y-10144224D01*
X3097318Y-10144224D02*
X3116365Y-10153748D01*
X3116365Y-10153748D02*
X3125889Y-10163271D01*
X3125889Y-10163271D02*
X3135413Y-10182319D01*
X3135413Y-10182319D02*
X3135413Y-10201367D01*
X3135413Y-10201367D02*
X3125889Y-10229938D01*
X3125889Y-10229938D02*
X3011603Y-10344224D01*
X3011603Y-10344224D02*
X3135413Y-10344224D01*
X3259222Y-10144224D02*
X3278270Y-10144224D01*
X3278270Y-10144224D02*
X3297318Y-10153748D01*
X3297318Y-10153748D02*
X3306842Y-10163271D01*
X3306842Y-10163271D02*
X3316365Y-10182319D01*
X3316365Y-10182319D02*
X3325889Y-10220414D01*
X3325889Y-10220414D02*
X3325889Y-10268033D01*
X3325889Y-10268033D02*
X3316365Y-10306129D01*
X3316365Y-10306129D02*
X3306842Y-10325176D01*
X3306842Y-10325176D02*
X3297318Y-10334700D01*
X3297318Y-10334700D02*
X3278270Y-10344224D01*
X3278270Y-10344224D02*
X3259222Y-10344224D01*
X3259222Y-10344224D02*
X3240175Y-10334700D01*
X3240175Y-10334700D02*
X3230651Y-10325176D01*
X3230651Y-10325176D02*
X3221127Y-10306129D01*
X3221127Y-10306129D02*
X3211603Y-10268033D01*
X3211603Y-10268033D02*
X3211603Y-10220414D01*
X3211603Y-10220414D02*
X3221127Y-10182319D01*
X3221127Y-10182319D02*
X3230651Y-10163271D01*
X3230651Y-10163271D02*
X3240175Y-10153748D01*
X3240175Y-10153748D02*
X3259222Y-10144224D01*
X3449699Y-10144224D02*
X3468746Y-10144224D01*
X3468746Y-10144224D02*
X3487794Y-10153748D01*
X3487794Y-10153748D02*
X3497318Y-10163271D01*
X3497318Y-10163271D02*
X3506842Y-10182319D01*
X3506842Y-10182319D02*
X3516365Y-10220414D01*
X3516365Y-10220414D02*
X3516365Y-10268033D01*
X3516365Y-10268033D02*
X3506842Y-10306129D01*
X3506842Y-10306129D02*
X3497318Y-10325176D01*
X3497318Y-10325176D02*
X3487794Y-10334700D01*
X3487794Y-10334700D02*
X3468746Y-10344224D01*
X3468746Y-10344224D02*
X3449699Y-10344224D01*
X3449699Y-10344224D02*
X3430651Y-10334700D01*
X3430651Y-10334700D02*
X3421127Y-10325176D01*
X3421127Y-10325176D02*
X3411603Y-10306129D01*
X3411603Y-10306129D02*
X3402080Y-10268033D01*
X3402080Y-10268033D02*
X3402080Y-10220414D01*
X3402080Y-10220414D02*
X3411603Y-10182319D01*
X3411603Y-10182319D02*
X3421127Y-10163271D01*
X3421127Y-10163271D02*
X3430651Y-10153748D01*
X3430651Y-10153748D02*
X3449699Y-10144224D01*
X3602080Y-10344224D02*
X3602080Y-10210890D01*
X3602080Y-10229938D02*
X3611603Y-10220414D01*
X3611603Y-10220414D02*
X3630651Y-10210890D01*
X3630651Y-10210890D02*
X3659223Y-10210890D01*
X3659223Y-10210890D02*
X3678270Y-10220414D01*
X3678270Y-10220414D02*
X3687794Y-10239462D01*
X3687794Y-10239462D02*
X3687794Y-10344224D01*
X3687794Y-10239462D02*
X3697318Y-10220414D01*
X3697318Y-10220414D02*
X3716365Y-10210890D01*
X3716365Y-10210890D02*
X3744937Y-10210890D01*
X3744937Y-10210890D02*
X3763984Y-10220414D01*
X3763984Y-10220414D02*
X3773508Y-10239462D01*
X3773508Y-10239462D02*
X3773508Y-10344224D01*
X3868746Y-10344224D02*
X3868746Y-10210890D01*
X3868746Y-10229938D02*
X3878270Y-10220414D01*
X3878270Y-10220414D02*
X3897318Y-10210890D01*
X3897318Y-10210890D02*
X3925889Y-10210890D01*
X3925889Y-10210890D02*
X3944937Y-10220414D01*
X3944937Y-10220414D02*
X3954461Y-10239462D01*
X3954461Y-10239462D02*
X3954461Y-10344224D01*
X3954461Y-10239462D02*
X3963984Y-10220414D01*
X3963984Y-10220414D02*
X3983032Y-10210890D01*
X3983032Y-10210890D02*
X4011603Y-10210890D01*
X4011603Y-10210890D02*
X4030651Y-10220414D01*
X4030651Y-10220414D02*
X4040175Y-10239462D01*
X4040175Y-10239462D02*
X4040175Y-10344224D01*
X4430651Y-10134700D02*
X4259223Y-10391843D01*
X4687794Y-10144224D02*
X4706842Y-10144224D01*
X4706842Y-10144224D02*
X4725889Y-10153748D01*
X4725889Y-10153748D02*
X4735413Y-10163271D01*
X4735413Y-10163271D02*
X4744937Y-10182319D01*
X4744937Y-10182319D02*
X4754461Y-10220414D01*
X4754461Y-10220414D02*
X4754461Y-10268033D01*
X4754461Y-10268033D02*
X4744937Y-10306129D01*
X4744937Y-10306129D02*
X4735413Y-10325176D01*
X4735413Y-10325176D02*
X4725889Y-10334700D01*
X4725889Y-10334700D02*
X4706842Y-10344224D01*
X4706842Y-10344224D02*
X4687794Y-10344224D01*
X4687794Y-10344224D02*
X4668747Y-10334700D01*
X4668747Y-10334700D02*
X4659223Y-10325176D01*
X4659223Y-10325176D02*
X4649699Y-10306129D01*
X4649699Y-10306129D02*
X4640175Y-10268033D01*
X4640175Y-10268033D02*
X4640175Y-10220414D01*
X4640175Y-10220414D02*
X4649699Y-10182319D01*
X4649699Y-10182319D02*
X4659223Y-10163271D01*
X4659223Y-10163271D02*
X4668747Y-10153748D01*
X4668747Y-10153748D02*
X4687794Y-10144224D01*
X4840175Y-10325176D02*
X4849699Y-10334700D01*
X4849699Y-10334700D02*
X4840175Y-10344224D01*
X4840175Y-10344224D02*
X4830651Y-10334700D01*
X4830651Y-10334700D02*
X4840175Y-10325176D01*
X4840175Y-10325176D02*
X4840175Y-10344224D01*
X4973508Y-10144224D02*
X4992556Y-10144224D01*
X4992556Y-10144224D02*
X5011604Y-10153748D01*
X5011604Y-10153748D02*
X5021128Y-10163271D01*
X5021128Y-10163271D02*
X5030651Y-10182319D01*
X5030651Y-10182319D02*
X5040175Y-10220414D01*
X5040175Y-10220414D02*
X5040175Y-10268033D01*
X5040175Y-10268033D02*
X5030651Y-10306129D01*
X5030651Y-10306129D02*
X5021128Y-10325176D01*
X5021128Y-10325176D02*
X5011604Y-10334700D01*
X5011604Y-10334700D02*
X4992556Y-10344224D01*
X4992556Y-10344224D02*
X4973508Y-10344224D01*
X4973508Y-10344224D02*
X4954461Y-10334700D01*
X4954461Y-10334700D02*
X4944937Y-10325176D01*
X4944937Y-10325176D02*
X4935413Y-10306129D01*
X4935413Y-10306129D02*
X4925889Y-10268033D01*
X4925889Y-10268033D02*
X4925889Y-10220414D01*
X4925889Y-10220414D02*
X4935413Y-10182319D01*
X4935413Y-10182319D02*
X4944937Y-10163271D01*
X4944937Y-10163271D02*
X4954461Y-10153748D01*
X4954461Y-10153748D02*
X4973508Y-10144224D01*
X5211604Y-10210890D02*
X5211604Y-10344224D01*
X5163985Y-10134700D02*
X5116366Y-10277557D01*
X5116366Y-10277557D02*
X5240175Y-10277557D01*
X5297318Y-10144224D02*
X5430651Y-10144224D01*
X5430651Y-10144224D02*
X5344937Y-10344224D01*
X5497318Y-10163271D02*
X5506842Y-10153748D01*
X5506842Y-10153748D02*
X5525889Y-10144224D01*
X5525889Y-10144224D02*
X5573509Y-10144224D01*
X5573509Y-10144224D02*
X5592556Y-10153748D01*
X5592556Y-10153748D02*
X5602080Y-10163271D01*
X5602080Y-10163271D02*
X5611604Y-10182319D01*
X5611604Y-10182319D02*
X5611604Y-10201367D01*
X5611604Y-10201367D02*
X5602080Y-10229938D01*
X5602080Y-10229938D02*
X5487794Y-10344224D01*
X5487794Y-10344224D02*
X5611604Y-10344224D01*
X5687794Y-10144224D02*
X5687794Y-10182319D01*
X5763985Y-10144224D02*
X5763985Y-10182319D01*
X6059223Y-10420414D02*
X6049699Y-10410890D01*
X6049699Y-10410890D02*
X6030651Y-10382319D01*
X6030651Y-10382319D02*
X6021128Y-10363271D01*
X6021128Y-10363271D02*
X6011604Y-10334700D01*
X6011604Y-10334700D02*
X6002080Y-10287081D01*
X6002080Y-10287081D02*
X6002080Y-10248986D01*
X6002080Y-10248986D02*
X6011604Y-10201367D01*
X6011604Y-10201367D02*
X6021128Y-10172795D01*
X6021128Y-10172795D02*
X6030651Y-10153748D01*
X6030651Y-10153748D02*
X6049699Y-10125176D01*
X6049699Y-10125176D02*
X6059223Y-10115652D01*
X6221128Y-10210890D02*
X6221128Y-10344224D01*
X6173508Y-10134700D02*
X6125889Y-10277557D01*
X6125889Y-10277557D02*
X6249699Y-10277557D01*
X6478270Y-10344224D02*
X6478270Y-10144224D01*
X6563985Y-10344224D02*
X6563985Y-10239462D01*
X6563985Y-10239462D02*
X6554461Y-10220414D01*
X6554461Y-10220414D02*
X6535413Y-10210890D01*
X6535413Y-10210890D02*
X6506842Y-10210890D01*
X6506842Y-10210890D02*
X6487794Y-10220414D01*
X6487794Y-10220414D02*
X6478270Y-10229938D01*
X6687794Y-10344224D02*
X6668747Y-10334700D01*
X6668747Y-10334700D02*
X6659223Y-10325176D01*
X6659223Y-10325176D02*
X6649699Y-10306129D01*
X6649699Y-10306129D02*
X6649699Y-10248986D01*
X6649699Y-10248986D02*
X6659223Y-10229938D01*
X6659223Y-10229938D02*
X6668747Y-10220414D01*
X6668747Y-10220414D02*
X6687794Y-10210890D01*
X6687794Y-10210890D02*
X6716366Y-10210890D01*
X6716366Y-10210890D02*
X6735413Y-10220414D01*
X6735413Y-10220414D02*
X6744937Y-10229938D01*
X6744937Y-10229938D02*
X6754461Y-10248986D01*
X6754461Y-10248986D02*
X6754461Y-10306129D01*
X6754461Y-10306129D02*
X6744937Y-10325176D01*
X6744937Y-10325176D02*
X6735413Y-10334700D01*
X6735413Y-10334700D02*
X6716366Y-10344224D01*
X6716366Y-10344224D02*
X6687794Y-10344224D01*
X6868747Y-10344224D02*
X6849699Y-10334700D01*
X6849699Y-10334700D02*
X6840175Y-10315652D01*
X6840175Y-10315652D02*
X6840175Y-10144224D01*
X7021128Y-10334700D02*
X7002080Y-10344224D01*
X7002080Y-10344224D02*
X6963985Y-10344224D01*
X6963985Y-10344224D02*
X6944937Y-10334700D01*
X6944937Y-10334700D02*
X6935413Y-10315652D01*
X6935413Y-10315652D02*
X6935413Y-10239462D01*
X6935413Y-10239462D02*
X6944937Y-10220414D01*
X6944937Y-10220414D02*
X6963985Y-10210890D01*
X6963985Y-10210890D02*
X7002080Y-10210890D01*
X7002080Y-10210890D02*
X7021128Y-10220414D01*
X7021128Y-10220414D02*
X7030651Y-10239462D01*
X7030651Y-10239462D02*
X7030651Y-10258510D01*
X7030651Y-10258510D02*
X6935413Y-10277557D01*
X7106842Y-10334700D02*
X7125890Y-10344224D01*
X7125890Y-10344224D02*
X7163985Y-10344224D01*
X7163985Y-10344224D02*
X7183032Y-10334700D01*
X7183032Y-10334700D02*
X7192556Y-10315652D01*
X7192556Y-10315652D02*
X7192556Y-10306129D01*
X7192556Y-10306129D02*
X7183032Y-10287081D01*
X7183032Y-10287081D02*
X7163985Y-10277557D01*
X7163985Y-10277557D02*
X7135413Y-10277557D01*
X7135413Y-10277557D02*
X7116366Y-10268033D01*
X7116366Y-10268033D02*
X7106842Y-10248986D01*
X7106842Y-10248986D02*
X7106842Y-10239462D01*
X7106842Y-10239462D02*
X7116366Y-10220414D01*
X7116366Y-10220414D02*
X7135413Y-10210890D01*
X7135413Y-10210890D02*
X7163985Y-10210890D01*
X7163985Y-10210890D02*
X7183032Y-10220414D01*
X7259223Y-10420414D02*
X7268747Y-10410890D01*
X7268747Y-10410890D02*
X7287794Y-10382319D01*
X7287794Y-10382319D02*
X7297318Y-10363271D01*
X7297318Y-10363271D02*
X7306842Y-10334700D01*
X7306842Y-10334700D02*
X7316366Y-10287081D01*
X7316366Y-10287081D02*
X7316366Y-10248986D01*
X7316366Y-10248986D02*
X7306842Y-10201367D01*
X7306842Y-10201367D02*
X7297318Y-10172795D01*
X7297318Y-10172795D02*
X7287794Y-10153748D01*
X7287794Y-10153748D02*
X7268747Y-10125176D01*
X7268747Y-10125176D02*
X7259223Y-10115652D01*
D20*
X2354160Y-10451740D02*
X2484160Y-10581740D01*
X2484160Y-10451740D02*
X2354160Y-10581740D01*
X2419160Y-10581740D02*
X2484160Y-10516740D01*
X2419160Y-10451740D01*
X2354160Y-10516740D01*
X2419160Y-10581740D01*
D11*
X2849699Y-10608224D02*
X2735413Y-10608224D01*
X2792556Y-10608224D02*
X2792556Y-10408224D01*
X2792556Y-10408224D02*
X2773508Y-10436795D01*
X2773508Y-10436795D02*
X2754461Y-10455843D01*
X2754461Y-10455843D02*
X2735413Y-10465367D01*
X2935413Y-10589176D02*
X2944937Y-10598700D01*
X2944937Y-10598700D02*
X2935413Y-10608224D01*
X2935413Y-10608224D02*
X2925889Y-10598700D01*
X2925889Y-10598700D02*
X2935413Y-10589176D01*
X2935413Y-10589176D02*
X2935413Y-10608224D01*
X3011603Y-10408224D02*
X3135413Y-10408224D01*
X3135413Y-10408224D02*
X3068746Y-10484414D01*
X3068746Y-10484414D02*
X3097318Y-10484414D01*
X3097318Y-10484414D02*
X3116365Y-10493938D01*
X3116365Y-10493938D02*
X3125889Y-10503462D01*
X3125889Y-10503462D02*
X3135413Y-10522510D01*
X3135413Y-10522510D02*
X3135413Y-10570129D01*
X3135413Y-10570129D02*
X3125889Y-10589176D01*
X3125889Y-10589176D02*
X3116365Y-10598700D01*
X3116365Y-10598700D02*
X3097318Y-10608224D01*
X3097318Y-10608224D02*
X3040175Y-10608224D01*
X3040175Y-10608224D02*
X3021127Y-10598700D01*
X3021127Y-10598700D02*
X3011603Y-10589176D01*
X3259222Y-10408224D02*
X3278270Y-10408224D01*
X3278270Y-10408224D02*
X3297318Y-10417748D01*
X3297318Y-10417748D02*
X3306842Y-10427271D01*
X3306842Y-10427271D02*
X3316365Y-10446319D01*
X3316365Y-10446319D02*
X3325889Y-10484414D01*
X3325889Y-10484414D02*
X3325889Y-10532033D01*
X3325889Y-10532033D02*
X3316365Y-10570129D01*
X3316365Y-10570129D02*
X3306842Y-10589176D01*
X3306842Y-10589176D02*
X3297318Y-10598700D01*
X3297318Y-10598700D02*
X3278270Y-10608224D01*
X3278270Y-10608224D02*
X3259222Y-10608224D01*
X3259222Y-10608224D02*
X3240175Y-10598700D01*
X3240175Y-10598700D02*
X3230651Y-10589176D01*
X3230651Y-10589176D02*
X3221127Y-10570129D01*
X3221127Y-10570129D02*
X3211603Y-10532033D01*
X3211603Y-10532033D02*
X3211603Y-10484414D01*
X3211603Y-10484414D02*
X3221127Y-10446319D01*
X3221127Y-10446319D02*
X3230651Y-10427271D01*
X3230651Y-10427271D02*
X3240175Y-10417748D01*
X3240175Y-10417748D02*
X3259222Y-10408224D01*
X3449699Y-10408224D02*
X3468746Y-10408224D01*
X3468746Y-10408224D02*
X3487794Y-10417748D01*
X3487794Y-10417748D02*
X3497318Y-10427271D01*
X3497318Y-10427271D02*
X3506842Y-10446319D01*
X3506842Y-10446319D02*
X3516365Y-10484414D01*
X3516365Y-10484414D02*
X3516365Y-10532033D01*
X3516365Y-10532033D02*
X3506842Y-10570129D01*
X3506842Y-10570129D02*
X3497318Y-10589176D01*
X3497318Y-10589176D02*
X3487794Y-10598700D01*
X3487794Y-10598700D02*
X3468746Y-10608224D01*
X3468746Y-10608224D02*
X3449699Y-10608224D01*
X3449699Y-10608224D02*
X3430651Y-10598700D01*
X3430651Y-10598700D02*
X3421127Y-10589176D01*
X3421127Y-10589176D02*
X3411603Y-10570129D01*
X3411603Y-10570129D02*
X3402080Y-10532033D01*
X3402080Y-10532033D02*
X3402080Y-10484414D01*
X3402080Y-10484414D02*
X3411603Y-10446319D01*
X3411603Y-10446319D02*
X3421127Y-10427271D01*
X3421127Y-10427271D02*
X3430651Y-10417748D01*
X3430651Y-10417748D02*
X3449699Y-10408224D01*
X3602080Y-10608224D02*
X3602080Y-10474890D01*
X3602080Y-10493938D02*
X3611603Y-10484414D01*
X3611603Y-10484414D02*
X3630651Y-10474890D01*
X3630651Y-10474890D02*
X3659223Y-10474890D01*
X3659223Y-10474890D02*
X3678270Y-10484414D01*
X3678270Y-10484414D02*
X3687794Y-10503462D01*
X3687794Y-10503462D02*
X3687794Y-10608224D01*
X3687794Y-10503462D02*
X3697318Y-10484414D01*
X3697318Y-10484414D02*
X3716365Y-10474890D01*
X3716365Y-10474890D02*
X3744937Y-10474890D01*
X3744937Y-10474890D02*
X3763984Y-10484414D01*
X3763984Y-10484414D02*
X3773508Y-10503462D01*
X3773508Y-10503462D02*
X3773508Y-10608224D01*
X3868746Y-10608224D02*
X3868746Y-10474890D01*
X3868746Y-10493938D02*
X3878270Y-10484414D01*
X3878270Y-10484414D02*
X3897318Y-10474890D01*
X3897318Y-10474890D02*
X3925889Y-10474890D01*
X3925889Y-10474890D02*
X3944937Y-10484414D01*
X3944937Y-10484414D02*
X3954461Y-10503462D01*
X3954461Y-10503462D02*
X3954461Y-10608224D01*
X3954461Y-10503462D02*
X3963984Y-10484414D01*
X3963984Y-10484414D02*
X3983032Y-10474890D01*
X3983032Y-10474890D02*
X4011603Y-10474890D01*
X4011603Y-10474890D02*
X4030651Y-10484414D01*
X4030651Y-10484414D02*
X4040175Y-10503462D01*
X4040175Y-10503462D02*
X4040175Y-10608224D01*
X4430651Y-10398700D02*
X4259223Y-10655843D01*
X4687794Y-10408224D02*
X4706842Y-10408224D01*
X4706842Y-10408224D02*
X4725889Y-10417748D01*
X4725889Y-10417748D02*
X4735413Y-10427271D01*
X4735413Y-10427271D02*
X4744937Y-10446319D01*
X4744937Y-10446319D02*
X4754461Y-10484414D01*
X4754461Y-10484414D02*
X4754461Y-10532033D01*
X4754461Y-10532033D02*
X4744937Y-10570129D01*
X4744937Y-10570129D02*
X4735413Y-10589176D01*
X4735413Y-10589176D02*
X4725889Y-10598700D01*
X4725889Y-10598700D02*
X4706842Y-10608224D01*
X4706842Y-10608224D02*
X4687794Y-10608224D01*
X4687794Y-10608224D02*
X4668747Y-10598700D01*
X4668747Y-10598700D02*
X4659223Y-10589176D01*
X4659223Y-10589176D02*
X4649699Y-10570129D01*
X4649699Y-10570129D02*
X4640175Y-10532033D01*
X4640175Y-10532033D02*
X4640175Y-10484414D01*
X4640175Y-10484414D02*
X4649699Y-10446319D01*
X4649699Y-10446319D02*
X4659223Y-10427271D01*
X4659223Y-10427271D02*
X4668747Y-10417748D01*
X4668747Y-10417748D02*
X4687794Y-10408224D01*
X4840175Y-10589176D02*
X4849699Y-10598700D01*
X4849699Y-10598700D02*
X4840175Y-10608224D01*
X4840175Y-10608224D02*
X4830651Y-10598700D01*
X4830651Y-10598700D02*
X4840175Y-10589176D01*
X4840175Y-10589176D02*
X4840175Y-10608224D01*
X4973508Y-10408224D02*
X4992556Y-10408224D01*
X4992556Y-10408224D02*
X5011604Y-10417748D01*
X5011604Y-10417748D02*
X5021128Y-10427271D01*
X5021128Y-10427271D02*
X5030651Y-10446319D01*
X5030651Y-10446319D02*
X5040175Y-10484414D01*
X5040175Y-10484414D02*
X5040175Y-10532033D01*
X5040175Y-10532033D02*
X5030651Y-10570129D01*
X5030651Y-10570129D02*
X5021128Y-10589176D01*
X5021128Y-10589176D02*
X5011604Y-10598700D01*
X5011604Y-10598700D02*
X4992556Y-10608224D01*
X4992556Y-10608224D02*
X4973508Y-10608224D01*
X4973508Y-10608224D02*
X4954461Y-10598700D01*
X4954461Y-10598700D02*
X4944937Y-10589176D01*
X4944937Y-10589176D02*
X4935413Y-10570129D01*
X4935413Y-10570129D02*
X4925889Y-10532033D01*
X4925889Y-10532033D02*
X4925889Y-10484414D01*
X4925889Y-10484414D02*
X4935413Y-10446319D01*
X4935413Y-10446319D02*
X4944937Y-10427271D01*
X4944937Y-10427271D02*
X4954461Y-10417748D01*
X4954461Y-10417748D02*
X4973508Y-10408224D01*
X5221128Y-10408224D02*
X5125889Y-10408224D01*
X5125889Y-10408224D02*
X5116366Y-10503462D01*
X5116366Y-10503462D02*
X5125889Y-10493938D01*
X5125889Y-10493938D02*
X5144937Y-10484414D01*
X5144937Y-10484414D02*
X5192556Y-10484414D01*
X5192556Y-10484414D02*
X5211604Y-10493938D01*
X5211604Y-10493938D02*
X5221128Y-10503462D01*
X5221128Y-10503462D02*
X5230651Y-10522510D01*
X5230651Y-10522510D02*
X5230651Y-10570129D01*
X5230651Y-10570129D02*
X5221128Y-10589176D01*
X5221128Y-10589176D02*
X5211604Y-10598700D01*
X5211604Y-10598700D02*
X5192556Y-10608224D01*
X5192556Y-10608224D02*
X5144937Y-10608224D01*
X5144937Y-10608224D02*
X5125889Y-10598700D01*
X5125889Y-10598700D02*
X5116366Y-10589176D01*
X5421128Y-10608224D02*
X5306842Y-10608224D01*
X5363985Y-10608224D02*
X5363985Y-10408224D01*
X5363985Y-10408224D02*
X5344937Y-10436795D01*
X5344937Y-10436795D02*
X5325889Y-10455843D01*
X5325889Y-10455843D02*
X5306842Y-10465367D01*
X5497318Y-10427271D02*
X5506842Y-10417748D01*
X5506842Y-10417748D02*
X5525889Y-10408224D01*
X5525889Y-10408224D02*
X5573509Y-10408224D01*
X5573509Y-10408224D02*
X5592556Y-10417748D01*
X5592556Y-10417748D02*
X5602080Y-10427271D01*
X5602080Y-10427271D02*
X5611604Y-10446319D01*
X5611604Y-10446319D02*
X5611604Y-10465367D01*
X5611604Y-10465367D02*
X5602080Y-10493938D01*
X5602080Y-10493938D02*
X5487794Y-10608224D01*
X5487794Y-10608224D02*
X5611604Y-10608224D01*
X5687794Y-10408224D02*
X5687794Y-10446319D01*
X5763985Y-10408224D02*
X5763985Y-10446319D01*
X6059223Y-10684414D02*
X6049699Y-10674890D01*
X6049699Y-10674890D02*
X6030651Y-10646319D01*
X6030651Y-10646319D02*
X6021128Y-10627271D01*
X6021128Y-10627271D02*
X6011604Y-10598700D01*
X6011604Y-10598700D02*
X6002080Y-10551081D01*
X6002080Y-10551081D02*
X6002080Y-10512986D01*
X6002080Y-10512986D02*
X6011604Y-10465367D01*
X6011604Y-10465367D02*
X6021128Y-10436795D01*
X6021128Y-10436795D02*
X6030651Y-10417748D01*
X6030651Y-10417748D02*
X6049699Y-10389176D01*
X6049699Y-10389176D02*
X6059223Y-10379652D01*
X6240175Y-10608224D02*
X6125889Y-10608224D01*
X6183032Y-10608224D02*
X6183032Y-10408224D01*
X6183032Y-10408224D02*
X6163985Y-10436795D01*
X6163985Y-10436795D02*
X6144937Y-10455843D01*
X6144937Y-10455843D02*
X6125889Y-10465367D01*
X6411604Y-10474890D02*
X6411604Y-10608224D01*
X6363985Y-10398700D02*
X6316366Y-10541557D01*
X6316366Y-10541557D02*
X6440175Y-10541557D01*
X6668747Y-10608224D02*
X6668747Y-10408224D01*
X6754461Y-10608224D02*
X6754461Y-10503462D01*
X6754461Y-10503462D02*
X6744937Y-10484414D01*
X6744937Y-10484414D02*
X6725890Y-10474890D01*
X6725890Y-10474890D02*
X6697318Y-10474890D01*
X6697318Y-10474890D02*
X6678270Y-10484414D01*
X6678270Y-10484414D02*
X6668747Y-10493938D01*
X6878270Y-10608224D02*
X6859223Y-10598700D01*
X6859223Y-10598700D02*
X6849699Y-10589176D01*
X6849699Y-10589176D02*
X6840175Y-10570129D01*
X6840175Y-10570129D02*
X6840175Y-10512986D01*
X6840175Y-10512986D02*
X6849699Y-10493938D01*
X6849699Y-10493938D02*
X6859223Y-10484414D01*
X6859223Y-10484414D02*
X6878270Y-10474890D01*
X6878270Y-10474890D02*
X6906842Y-10474890D01*
X6906842Y-10474890D02*
X6925890Y-10484414D01*
X6925890Y-10484414D02*
X6935413Y-10493938D01*
X6935413Y-10493938D02*
X6944937Y-10512986D01*
X6944937Y-10512986D02*
X6944937Y-10570129D01*
X6944937Y-10570129D02*
X6935413Y-10589176D01*
X6935413Y-10589176D02*
X6925890Y-10598700D01*
X6925890Y-10598700D02*
X6906842Y-10608224D01*
X6906842Y-10608224D02*
X6878270Y-10608224D01*
X7059223Y-10608224D02*
X7040175Y-10598700D01*
X7040175Y-10598700D02*
X7030651Y-10579652D01*
X7030651Y-10579652D02*
X7030651Y-10408224D01*
X7211604Y-10598700D02*
X7192556Y-10608224D01*
X7192556Y-10608224D02*
X7154461Y-10608224D01*
X7154461Y-10608224D02*
X7135413Y-10598700D01*
X7135413Y-10598700D02*
X7125890Y-10579652D01*
X7125890Y-10579652D02*
X7125890Y-10503462D01*
X7125890Y-10503462D02*
X7135413Y-10484414D01*
X7135413Y-10484414D02*
X7154461Y-10474890D01*
X7154461Y-10474890D02*
X7192556Y-10474890D01*
X7192556Y-10474890D02*
X7211604Y-10484414D01*
X7211604Y-10484414D02*
X7221128Y-10503462D01*
X7221128Y-10503462D02*
X7221128Y-10522510D01*
X7221128Y-10522510D02*
X7125890Y-10541557D01*
X7297318Y-10598700D02*
X7316366Y-10608224D01*
X7316366Y-10608224D02*
X7354461Y-10608224D01*
X7354461Y-10608224D02*
X7373509Y-10598700D01*
X7373509Y-10598700D02*
X7383032Y-10579652D01*
X7383032Y-10579652D02*
X7383032Y-10570129D01*
X7383032Y-10570129D02*
X7373509Y-10551081D01*
X7373509Y-10551081D02*
X7354461Y-10541557D01*
X7354461Y-10541557D02*
X7325890Y-10541557D01*
X7325890Y-10541557D02*
X7306842Y-10532033D01*
X7306842Y-10532033D02*
X7297318Y-10512986D01*
X7297318Y-10512986D02*
X7297318Y-10503462D01*
X7297318Y-10503462D02*
X7306842Y-10484414D01*
X7306842Y-10484414D02*
X7325890Y-10474890D01*
X7325890Y-10474890D02*
X7354461Y-10474890D01*
X7354461Y-10474890D02*
X7373509Y-10484414D01*
X7449699Y-10684414D02*
X7459223Y-10674890D01*
X7459223Y-10674890D02*
X7478271Y-10646319D01*
X7478271Y-10646319D02*
X7487794Y-10627271D01*
X7487794Y-10627271D02*
X7497318Y-10598700D01*
X7497318Y-10598700D02*
X7506842Y-10551081D01*
X7506842Y-10551081D02*
X7506842Y-10512986D01*
X7506842Y-10512986D02*
X7497318Y-10465367D01*
X7497318Y-10465367D02*
X7487794Y-10436795D01*
X7487794Y-10436795D02*
X7478271Y-10417748D01*
X7478271Y-10417748D02*
X7459223Y-10389176D01*
X7459223Y-10389176D02*
X7449699Y-10379652D01*
D21*
X2409160Y-10705740D02*
X2409160Y-10855740D01*
X2334160Y-10780740D02*
X2484160Y-10780740D01*
X2484160Y-10780740D02*
G75*
G03*
X2484160Y-10780740I-75000J0D01*
G01*
D11*
X2849699Y-10872224D02*
X2735413Y-10872224D01*
X2792556Y-10872224D02*
X2792556Y-10672224D01*
X2792556Y-10672224D02*
X2773508Y-10700795D01*
X2773508Y-10700795D02*
X2754461Y-10719843D01*
X2754461Y-10719843D02*
X2735413Y-10729367D01*
X2935413Y-10853176D02*
X2944937Y-10862700D01*
X2944937Y-10862700D02*
X2935413Y-10872224D01*
X2935413Y-10872224D02*
X2925889Y-10862700D01*
X2925889Y-10862700D02*
X2935413Y-10853176D01*
X2935413Y-10853176D02*
X2935413Y-10872224D01*
X3125889Y-10672224D02*
X3030651Y-10672224D01*
X3030651Y-10672224D02*
X3021127Y-10767462D01*
X3021127Y-10767462D02*
X3030651Y-10757938D01*
X3030651Y-10757938D02*
X3049699Y-10748414D01*
X3049699Y-10748414D02*
X3097318Y-10748414D01*
X3097318Y-10748414D02*
X3116365Y-10757938D01*
X3116365Y-10757938D02*
X3125889Y-10767462D01*
X3125889Y-10767462D02*
X3135413Y-10786510D01*
X3135413Y-10786510D02*
X3135413Y-10834129D01*
X3135413Y-10834129D02*
X3125889Y-10853176D01*
X3125889Y-10853176D02*
X3116365Y-10862700D01*
X3116365Y-10862700D02*
X3097318Y-10872224D01*
X3097318Y-10872224D02*
X3049699Y-10872224D01*
X3049699Y-10872224D02*
X3030651Y-10862700D01*
X3030651Y-10862700D02*
X3021127Y-10853176D01*
X3259222Y-10672224D02*
X3278270Y-10672224D01*
X3278270Y-10672224D02*
X3297318Y-10681748D01*
X3297318Y-10681748D02*
X3306842Y-10691271D01*
X3306842Y-10691271D02*
X3316365Y-10710319D01*
X3316365Y-10710319D02*
X3325889Y-10748414D01*
X3325889Y-10748414D02*
X3325889Y-10796033D01*
X3325889Y-10796033D02*
X3316365Y-10834129D01*
X3316365Y-10834129D02*
X3306842Y-10853176D01*
X3306842Y-10853176D02*
X3297318Y-10862700D01*
X3297318Y-10862700D02*
X3278270Y-10872224D01*
X3278270Y-10872224D02*
X3259222Y-10872224D01*
X3259222Y-10872224D02*
X3240175Y-10862700D01*
X3240175Y-10862700D02*
X3230651Y-10853176D01*
X3230651Y-10853176D02*
X3221127Y-10834129D01*
X3221127Y-10834129D02*
X3211603Y-10796033D01*
X3211603Y-10796033D02*
X3211603Y-10748414D01*
X3211603Y-10748414D02*
X3221127Y-10710319D01*
X3221127Y-10710319D02*
X3230651Y-10691271D01*
X3230651Y-10691271D02*
X3240175Y-10681748D01*
X3240175Y-10681748D02*
X3259222Y-10672224D01*
X3449699Y-10672224D02*
X3468746Y-10672224D01*
X3468746Y-10672224D02*
X3487794Y-10681748D01*
X3487794Y-10681748D02*
X3497318Y-10691271D01*
X3497318Y-10691271D02*
X3506842Y-10710319D01*
X3506842Y-10710319D02*
X3516365Y-10748414D01*
X3516365Y-10748414D02*
X3516365Y-10796033D01*
X3516365Y-10796033D02*
X3506842Y-10834129D01*
X3506842Y-10834129D02*
X3497318Y-10853176D01*
X3497318Y-10853176D02*
X3487794Y-10862700D01*
X3487794Y-10862700D02*
X3468746Y-10872224D01*
X3468746Y-10872224D02*
X3449699Y-10872224D01*
X3449699Y-10872224D02*
X3430651Y-10862700D01*
X3430651Y-10862700D02*
X3421127Y-10853176D01*
X3421127Y-10853176D02*
X3411603Y-10834129D01*
X3411603Y-10834129D02*
X3402080Y-10796033D01*
X3402080Y-10796033D02*
X3402080Y-10748414D01*
X3402080Y-10748414D02*
X3411603Y-10710319D01*
X3411603Y-10710319D02*
X3421127Y-10691271D01*
X3421127Y-10691271D02*
X3430651Y-10681748D01*
X3430651Y-10681748D02*
X3449699Y-10672224D01*
X3602080Y-10872224D02*
X3602080Y-10738890D01*
X3602080Y-10757938D02*
X3611603Y-10748414D01*
X3611603Y-10748414D02*
X3630651Y-10738890D01*
X3630651Y-10738890D02*
X3659223Y-10738890D01*
X3659223Y-10738890D02*
X3678270Y-10748414D01*
X3678270Y-10748414D02*
X3687794Y-10767462D01*
X3687794Y-10767462D02*
X3687794Y-10872224D01*
X3687794Y-10767462D02*
X3697318Y-10748414D01*
X3697318Y-10748414D02*
X3716365Y-10738890D01*
X3716365Y-10738890D02*
X3744937Y-10738890D01*
X3744937Y-10738890D02*
X3763984Y-10748414D01*
X3763984Y-10748414D02*
X3773508Y-10767462D01*
X3773508Y-10767462D02*
X3773508Y-10872224D01*
X3868746Y-10872224D02*
X3868746Y-10738890D01*
X3868746Y-10757938D02*
X3878270Y-10748414D01*
X3878270Y-10748414D02*
X3897318Y-10738890D01*
X3897318Y-10738890D02*
X3925889Y-10738890D01*
X3925889Y-10738890D02*
X3944937Y-10748414D01*
X3944937Y-10748414D02*
X3954461Y-10767462D01*
X3954461Y-10767462D02*
X3954461Y-10872224D01*
X3954461Y-10767462D02*
X3963984Y-10748414D01*
X3963984Y-10748414D02*
X3983032Y-10738890D01*
X3983032Y-10738890D02*
X4011603Y-10738890D01*
X4011603Y-10738890D02*
X4030651Y-10748414D01*
X4030651Y-10748414D02*
X4040175Y-10767462D01*
X4040175Y-10767462D02*
X4040175Y-10872224D01*
X4430651Y-10662700D02*
X4259223Y-10919843D01*
X4687794Y-10672224D02*
X4706842Y-10672224D01*
X4706842Y-10672224D02*
X4725889Y-10681748D01*
X4725889Y-10681748D02*
X4735413Y-10691271D01*
X4735413Y-10691271D02*
X4744937Y-10710319D01*
X4744937Y-10710319D02*
X4754461Y-10748414D01*
X4754461Y-10748414D02*
X4754461Y-10796033D01*
X4754461Y-10796033D02*
X4744937Y-10834129D01*
X4744937Y-10834129D02*
X4735413Y-10853176D01*
X4735413Y-10853176D02*
X4725889Y-10862700D01*
X4725889Y-10862700D02*
X4706842Y-10872224D01*
X4706842Y-10872224D02*
X4687794Y-10872224D01*
X4687794Y-10872224D02*
X4668747Y-10862700D01*
X4668747Y-10862700D02*
X4659223Y-10853176D01*
X4659223Y-10853176D02*
X4649699Y-10834129D01*
X4649699Y-10834129D02*
X4640175Y-10796033D01*
X4640175Y-10796033D02*
X4640175Y-10748414D01*
X4640175Y-10748414D02*
X4649699Y-10710319D01*
X4649699Y-10710319D02*
X4659223Y-10691271D01*
X4659223Y-10691271D02*
X4668747Y-10681748D01*
X4668747Y-10681748D02*
X4687794Y-10672224D01*
X4840175Y-10853176D02*
X4849699Y-10862700D01*
X4849699Y-10862700D02*
X4840175Y-10872224D01*
X4840175Y-10872224D02*
X4830651Y-10862700D01*
X4830651Y-10862700D02*
X4840175Y-10853176D01*
X4840175Y-10853176D02*
X4840175Y-10872224D01*
X4973508Y-10672224D02*
X4992556Y-10672224D01*
X4992556Y-10672224D02*
X5011604Y-10681748D01*
X5011604Y-10681748D02*
X5021128Y-10691271D01*
X5021128Y-10691271D02*
X5030651Y-10710319D01*
X5030651Y-10710319D02*
X5040175Y-10748414D01*
X5040175Y-10748414D02*
X5040175Y-10796033D01*
X5040175Y-10796033D02*
X5030651Y-10834129D01*
X5030651Y-10834129D02*
X5021128Y-10853176D01*
X5021128Y-10853176D02*
X5011604Y-10862700D01*
X5011604Y-10862700D02*
X4992556Y-10872224D01*
X4992556Y-10872224D02*
X4973508Y-10872224D01*
X4973508Y-10872224D02*
X4954461Y-10862700D01*
X4954461Y-10862700D02*
X4944937Y-10853176D01*
X4944937Y-10853176D02*
X4935413Y-10834129D01*
X4935413Y-10834129D02*
X4925889Y-10796033D01*
X4925889Y-10796033D02*
X4925889Y-10748414D01*
X4925889Y-10748414D02*
X4935413Y-10710319D01*
X4935413Y-10710319D02*
X4944937Y-10691271D01*
X4944937Y-10691271D02*
X4954461Y-10681748D01*
X4954461Y-10681748D02*
X4973508Y-10672224D01*
X5221128Y-10672224D02*
X5125889Y-10672224D01*
X5125889Y-10672224D02*
X5116366Y-10767462D01*
X5116366Y-10767462D02*
X5125889Y-10757938D01*
X5125889Y-10757938D02*
X5144937Y-10748414D01*
X5144937Y-10748414D02*
X5192556Y-10748414D01*
X5192556Y-10748414D02*
X5211604Y-10757938D01*
X5211604Y-10757938D02*
X5221128Y-10767462D01*
X5221128Y-10767462D02*
X5230651Y-10786510D01*
X5230651Y-10786510D02*
X5230651Y-10834129D01*
X5230651Y-10834129D02*
X5221128Y-10853176D01*
X5221128Y-10853176D02*
X5211604Y-10862700D01*
X5211604Y-10862700D02*
X5192556Y-10872224D01*
X5192556Y-10872224D02*
X5144937Y-10872224D01*
X5144937Y-10872224D02*
X5125889Y-10862700D01*
X5125889Y-10862700D02*
X5116366Y-10853176D01*
X5325889Y-10872224D02*
X5363985Y-10872224D01*
X5363985Y-10872224D02*
X5383032Y-10862700D01*
X5383032Y-10862700D02*
X5392556Y-10853176D01*
X5392556Y-10853176D02*
X5411604Y-10824605D01*
X5411604Y-10824605D02*
X5421128Y-10786510D01*
X5421128Y-10786510D02*
X5421128Y-10710319D01*
X5421128Y-10710319D02*
X5411604Y-10691271D01*
X5411604Y-10691271D02*
X5402080Y-10681748D01*
X5402080Y-10681748D02*
X5383032Y-10672224D01*
X5383032Y-10672224D02*
X5344937Y-10672224D01*
X5344937Y-10672224D02*
X5325889Y-10681748D01*
X5325889Y-10681748D02*
X5316366Y-10691271D01*
X5316366Y-10691271D02*
X5306842Y-10710319D01*
X5306842Y-10710319D02*
X5306842Y-10757938D01*
X5306842Y-10757938D02*
X5316366Y-10776986D01*
X5316366Y-10776986D02*
X5325889Y-10786510D01*
X5325889Y-10786510D02*
X5344937Y-10796033D01*
X5344937Y-10796033D02*
X5383032Y-10796033D01*
X5383032Y-10796033D02*
X5402080Y-10786510D01*
X5402080Y-10786510D02*
X5411604Y-10776986D01*
X5411604Y-10776986D02*
X5421128Y-10757938D01*
X5611604Y-10872224D02*
X5497318Y-10872224D01*
X5554461Y-10872224D02*
X5554461Y-10672224D01*
X5554461Y-10672224D02*
X5535413Y-10700795D01*
X5535413Y-10700795D02*
X5516366Y-10719843D01*
X5516366Y-10719843D02*
X5497318Y-10729367D01*
X5687794Y-10672224D02*
X5687794Y-10710319D01*
X5763985Y-10672224D02*
X5763985Y-10710319D01*
X6059223Y-10948414D02*
X6049699Y-10938890D01*
X6049699Y-10938890D02*
X6030651Y-10910319D01*
X6030651Y-10910319D02*
X6021128Y-10891271D01*
X6021128Y-10891271D02*
X6011604Y-10862700D01*
X6011604Y-10862700D02*
X6002080Y-10815081D01*
X6002080Y-10815081D02*
X6002080Y-10776986D01*
X6002080Y-10776986D02*
X6011604Y-10729367D01*
X6011604Y-10729367D02*
X6021128Y-10700795D01*
X6021128Y-10700795D02*
X6030651Y-10681748D01*
X6030651Y-10681748D02*
X6049699Y-10653176D01*
X6049699Y-10653176D02*
X6059223Y-10643652D01*
X6240175Y-10872224D02*
X6125889Y-10872224D01*
X6183032Y-10872224D02*
X6183032Y-10672224D01*
X6183032Y-10672224D02*
X6163985Y-10700795D01*
X6163985Y-10700795D02*
X6144937Y-10719843D01*
X6144937Y-10719843D02*
X6125889Y-10729367D01*
X6411604Y-10672224D02*
X6373508Y-10672224D01*
X6373508Y-10672224D02*
X6354461Y-10681748D01*
X6354461Y-10681748D02*
X6344937Y-10691271D01*
X6344937Y-10691271D02*
X6325889Y-10719843D01*
X6325889Y-10719843D02*
X6316366Y-10757938D01*
X6316366Y-10757938D02*
X6316366Y-10834129D01*
X6316366Y-10834129D02*
X6325889Y-10853176D01*
X6325889Y-10853176D02*
X6335413Y-10862700D01*
X6335413Y-10862700D02*
X6354461Y-10872224D01*
X6354461Y-10872224D02*
X6392556Y-10872224D01*
X6392556Y-10872224D02*
X6411604Y-10862700D01*
X6411604Y-10862700D02*
X6421128Y-10853176D01*
X6421128Y-10853176D02*
X6430651Y-10834129D01*
X6430651Y-10834129D02*
X6430651Y-10786510D01*
X6430651Y-10786510D02*
X6421128Y-10767462D01*
X6421128Y-10767462D02*
X6411604Y-10757938D01*
X6411604Y-10757938D02*
X6392556Y-10748414D01*
X6392556Y-10748414D02*
X6354461Y-10748414D01*
X6354461Y-10748414D02*
X6335413Y-10757938D01*
X6335413Y-10757938D02*
X6325889Y-10767462D01*
X6325889Y-10767462D02*
X6316366Y-10786510D01*
X6668747Y-10872224D02*
X6668747Y-10672224D01*
X6754461Y-10872224D02*
X6754461Y-10767462D01*
X6754461Y-10767462D02*
X6744937Y-10748414D01*
X6744937Y-10748414D02*
X6725890Y-10738890D01*
X6725890Y-10738890D02*
X6697318Y-10738890D01*
X6697318Y-10738890D02*
X6678270Y-10748414D01*
X6678270Y-10748414D02*
X6668747Y-10757938D01*
X6878270Y-10872224D02*
X6859223Y-10862700D01*
X6859223Y-10862700D02*
X6849699Y-10853176D01*
X6849699Y-10853176D02*
X6840175Y-10834129D01*
X6840175Y-10834129D02*
X6840175Y-10776986D01*
X6840175Y-10776986D02*
X6849699Y-10757938D01*
X6849699Y-10757938D02*
X6859223Y-10748414D01*
X6859223Y-10748414D02*
X6878270Y-10738890D01*
X6878270Y-10738890D02*
X6906842Y-10738890D01*
X6906842Y-10738890D02*
X6925890Y-10748414D01*
X6925890Y-10748414D02*
X6935413Y-10757938D01*
X6935413Y-10757938D02*
X6944937Y-10776986D01*
X6944937Y-10776986D02*
X6944937Y-10834129D01*
X6944937Y-10834129D02*
X6935413Y-10853176D01*
X6935413Y-10853176D02*
X6925890Y-10862700D01*
X6925890Y-10862700D02*
X6906842Y-10872224D01*
X6906842Y-10872224D02*
X6878270Y-10872224D01*
X7059223Y-10872224D02*
X7040175Y-10862700D01*
X7040175Y-10862700D02*
X7030651Y-10843652D01*
X7030651Y-10843652D02*
X7030651Y-10672224D01*
X7211604Y-10862700D02*
X7192556Y-10872224D01*
X7192556Y-10872224D02*
X7154461Y-10872224D01*
X7154461Y-10872224D02*
X7135413Y-10862700D01*
X7135413Y-10862700D02*
X7125890Y-10843652D01*
X7125890Y-10843652D02*
X7125890Y-10767462D01*
X7125890Y-10767462D02*
X7135413Y-10748414D01*
X7135413Y-10748414D02*
X7154461Y-10738890D01*
X7154461Y-10738890D02*
X7192556Y-10738890D01*
X7192556Y-10738890D02*
X7211604Y-10748414D01*
X7211604Y-10748414D02*
X7221128Y-10767462D01*
X7221128Y-10767462D02*
X7221128Y-10786510D01*
X7221128Y-10786510D02*
X7125890Y-10805557D01*
X7297318Y-10862700D02*
X7316366Y-10872224D01*
X7316366Y-10872224D02*
X7354461Y-10872224D01*
X7354461Y-10872224D02*
X7373509Y-10862700D01*
X7373509Y-10862700D02*
X7383032Y-10843652D01*
X7383032Y-10843652D02*
X7383032Y-10834129D01*
X7383032Y-10834129D02*
X7373509Y-10815081D01*
X7373509Y-10815081D02*
X7354461Y-10805557D01*
X7354461Y-10805557D02*
X7325890Y-10805557D01*
X7325890Y-10805557D02*
X7306842Y-10796033D01*
X7306842Y-10796033D02*
X7297318Y-10776986D01*
X7297318Y-10776986D02*
X7297318Y-10767462D01*
X7297318Y-10767462D02*
X7306842Y-10748414D01*
X7306842Y-10748414D02*
X7325890Y-10738890D01*
X7325890Y-10738890D02*
X7354461Y-10738890D01*
X7354461Y-10738890D02*
X7373509Y-10748414D01*
X7449699Y-10948414D02*
X7459223Y-10938890D01*
X7459223Y-10938890D02*
X7478271Y-10910319D01*
X7478271Y-10910319D02*
X7487794Y-10891271D01*
X7487794Y-10891271D02*
X7497318Y-10862700D01*
X7497318Y-10862700D02*
X7506842Y-10815081D01*
X7506842Y-10815081D02*
X7506842Y-10776986D01*
X7506842Y-10776986D02*
X7497318Y-10729367D01*
X7497318Y-10729367D02*
X7487794Y-10700795D01*
X7487794Y-10700795D02*
X7478271Y-10681748D01*
X7478271Y-10681748D02*
X7459223Y-10653176D01*
X7459223Y-10653176D02*
X7449699Y-10643652D01*
M02*
