%TF.GenerationSoftware,KiCad,Pcbnew,7.0.5*%
%TF.CreationDate,2023-12-12T17:16:25+05:30*%
%TF.ProjectId,charger ShutDown Circuit,63686172-6765-4722-9053-687574446f77,rev?*%
%TF.SameCoordinates,Original*%
%TF.FileFunction,Legend,Top*%
%TF.FilePolarity,Positive*%
%FSLAX46Y46*%
G04 Gerber Fmt 4.6, Leading zero omitted, Abs format (unit mm)*
G04 Created by KiCad (PCBNEW 7.0.5) date 2023-12-12 17:16:25*
%MOMM*%
%LPD*%
G01*
G04 APERTURE LIST*
%ADD10C,0.100000*%
%ADD11C,0.150000*%
%ADD12C,0.127000*%
%ADD13C,0.200000*%
%ADD14C,0.120000*%
G04 APERTURE END LIST*
D10*
X53643884Y-76910619D02*
X53643884Y-75910619D01*
X54120074Y-76910619D02*
X54120074Y-75910619D01*
X54120074Y-75910619D02*
X54453407Y-76624904D01*
X54453407Y-76624904D02*
X54786740Y-75910619D01*
X54786740Y-75910619D02*
X54786740Y-76910619D01*
X55262931Y-76910619D02*
X55262931Y-75910619D01*
X55262931Y-75910619D02*
X55501026Y-75910619D01*
X55501026Y-75910619D02*
X55643883Y-75958238D01*
X55643883Y-75958238D02*
X55739121Y-76053476D01*
X55739121Y-76053476D02*
X55786740Y-76148714D01*
X55786740Y-76148714D02*
X55834359Y-76339190D01*
X55834359Y-76339190D02*
X55834359Y-76482047D01*
X55834359Y-76482047D02*
X55786740Y-76672523D01*
X55786740Y-76672523D02*
X55739121Y-76767761D01*
X55739121Y-76767761D02*
X55643883Y-76863000D01*
X55643883Y-76863000D02*
X55501026Y-76910619D01*
X55501026Y-76910619D02*
X55262931Y-76910619D01*
X57501026Y-76910619D02*
X57024836Y-76910619D01*
X57024836Y-76910619D02*
X57024836Y-75910619D01*
X57834360Y-76386809D02*
X58167693Y-76386809D01*
X58310550Y-76910619D02*
X57834360Y-76910619D01*
X57834360Y-76910619D02*
X57834360Y-75910619D01*
X57834360Y-75910619D02*
X58310550Y-75910619D01*
X58739122Y-76910619D02*
X58739122Y-75910619D01*
X58739122Y-75910619D02*
X58977217Y-75910619D01*
X58977217Y-75910619D02*
X59120074Y-75958238D01*
X59120074Y-75958238D02*
X59215312Y-76053476D01*
X59215312Y-76053476D02*
X59262931Y-76148714D01*
X59262931Y-76148714D02*
X59310550Y-76339190D01*
X59310550Y-76339190D02*
X59310550Y-76482047D01*
X59310550Y-76482047D02*
X59262931Y-76672523D01*
X59262931Y-76672523D02*
X59215312Y-76767761D01*
X59215312Y-76767761D02*
X59120074Y-76863000D01*
X59120074Y-76863000D02*
X58977217Y-76910619D01*
X58977217Y-76910619D02*
X58739122Y-76910619D01*
X39016665Y-71468704D02*
X39492855Y-71468704D01*
X38921427Y-71754419D02*
X39254760Y-70754419D01*
X39254760Y-70754419D02*
X39588093Y-71754419D01*
X40349998Y-71087752D02*
X40349998Y-71754419D01*
X39921427Y-71087752D02*
X39921427Y-71611561D01*
X39921427Y-71611561D02*
X39969046Y-71706800D01*
X39969046Y-71706800D02*
X40064284Y-71754419D01*
X40064284Y-71754419D02*
X40207141Y-71754419D01*
X40207141Y-71754419D02*
X40302379Y-71706800D01*
X40302379Y-71706800D02*
X40349998Y-71659180D01*
X40730951Y-71754419D02*
X41254760Y-71087752D01*
X40730951Y-71087752D02*
X41254760Y-71754419D01*
X42730951Y-71230609D02*
X42873808Y-71278228D01*
X42873808Y-71278228D02*
X42921427Y-71325847D01*
X42921427Y-71325847D02*
X42969046Y-71421085D01*
X42969046Y-71421085D02*
X42969046Y-71563942D01*
X42969046Y-71563942D02*
X42921427Y-71659180D01*
X42921427Y-71659180D02*
X42873808Y-71706800D01*
X42873808Y-71706800D02*
X42778570Y-71754419D01*
X42778570Y-71754419D02*
X42397618Y-71754419D01*
X42397618Y-71754419D02*
X42397618Y-70754419D01*
X42397618Y-70754419D02*
X42730951Y-70754419D01*
X42730951Y-70754419D02*
X42826189Y-70802038D01*
X42826189Y-70802038D02*
X42873808Y-70849657D01*
X42873808Y-70849657D02*
X42921427Y-70944895D01*
X42921427Y-70944895D02*
X42921427Y-71040133D01*
X42921427Y-71040133D02*
X42873808Y-71135371D01*
X42873808Y-71135371D02*
X42826189Y-71182990D01*
X42826189Y-71182990D02*
X42730951Y-71230609D01*
X42730951Y-71230609D02*
X42397618Y-71230609D01*
X43397618Y-71373466D02*
X44159523Y-71373466D01*
X108225303Y-59082304D02*
X108296731Y-59106114D01*
X108296731Y-59106114D02*
X108320541Y-59129923D01*
X108320541Y-59129923D02*
X108344350Y-59177542D01*
X108344350Y-59177542D02*
X108344350Y-59248971D01*
X108344350Y-59248971D02*
X108320541Y-59296590D01*
X108320541Y-59296590D02*
X108296731Y-59320400D01*
X108296731Y-59320400D02*
X108249112Y-59344209D01*
X108249112Y-59344209D02*
X108058636Y-59344209D01*
X108058636Y-59344209D02*
X108058636Y-58844209D01*
X108058636Y-58844209D02*
X108225303Y-58844209D01*
X108225303Y-58844209D02*
X108272922Y-58868019D01*
X108272922Y-58868019D02*
X108296731Y-58891828D01*
X108296731Y-58891828D02*
X108320541Y-58939447D01*
X108320541Y-58939447D02*
X108320541Y-58987066D01*
X108320541Y-58987066D02*
X108296731Y-59034685D01*
X108296731Y-59034685D02*
X108272922Y-59058495D01*
X108272922Y-59058495D02*
X108225303Y-59082304D01*
X108225303Y-59082304D02*
X108058636Y-59082304D01*
X108558636Y-59344209D02*
X108558636Y-58844209D01*
X108558636Y-58844209D02*
X108725303Y-59201352D01*
X108725303Y-59201352D02*
X108891969Y-58844209D01*
X108891969Y-58844209D02*
X108891969Y-59344209D01*
X109106256Y-59320400D02*
X109177684Y-59344209D01*
X109177684Y-59344209D02*
X109296732Y-59344209D01*
X109296732Y-59344209D02*
X109344351Y-59320400D01*
X109344351Y-59320400D02*
X109368160Y-59296590D01*
X109368160Y-59296590D02*
X109391970Y-59248971D01*
X109391970Y-59248971D02*
X109391970Y-59201352D01*
X109391970Y-59201352D02*
X109368160Y-59153733D01*
X109368160Y-59153733D02*
X109344351Y-59129923D01*
X109344351Y-59129923D02*
X109296732Y-59106114D01*
X109296732Y-59106114D02*
X109201494Y-59082304D01*
X109201494Y-59082304D02*
X109153875Y-59058495D01*
X109153875Y-59058495D02*
X109130065Y-59034685D01*
X109130065Y-59034685D02*
X109106256Y-58987066D01*
X109106256Y-58987066D02*
X109106256Y-58939447D01*
X109106256Y-58939447D02*
X109130065Y-58891828D01*
X109130065Y-58891828D02*
X109153875Y-58868019D01*
X109153875Y-58868019D02*
X109201494Y-58844209D01*
X109201494Y-58844209D02*
X109320541Y-58844209D01*
X109320541Y-58844209D02*
X109391970Y-58868019D01*
X109558636Y-58844209D02*
X109868160Y-58844209D01*
X109868160Y-58844209D02*
X109701493Y-59034685D01*
X109701493Y-59034685D02*
X109772922Y-59034685D01*
X109772922Y-59034685D02*
X109820541Y-59058495D01*
X109820541Y-59058495D02*
X109844350Y-59082304D01*
X109844350Y-59082304D02*
X109868160Y-59129923D01*
X109868160Y-59129923D02*
X109868160Y-59248971D01*
X109868160Y-59248971D02*
X109844350Y-59296590D01*
X109844350Y-59296590D02*
X109820541Y-59320400D01*
X109820541Y-59320400D02*
X109772922Y-59344209D01*
X109772922Y-59344209D02*
X109630065Y-59344209D01*
X109630065Y-59344209D02*
X109582446Y-59320400D01*
X109582446Y-59320400D02*
X109558636Y-59296590D01*
X33530265Y-71544904D02*
X34006455Y-71544904D01*
X33435027Y-71830619D02*
X33768360Y-70830619D01*
X33768360Y-70830619D02*
X34101693Y-71830619D01*
X34863598Y-71163952D02*
X34863598Y-71830619D01*
X34435027Y-71163952D02*
X34435027Y-71687761D01*
X34435027Y-71687761D02*
X34482646Y-71783000D01*
X34482646Y-71783000D02*
X34577884Y-71830619D01*
X34577884Y-71830619D02*
X34720741Y-71830619D01*
X34720741Y-71830619D02*
X34815979Y-71783000D01*
X34815979Y-71783000D02*
X34863598Y-71735380D01*
X35244551Y-71830619D02*
X35768360Y-71163952D01*
X35244551Y-71163952D02*
X35768360Y-71830619D01*
X37244551Y-71306809D02*
X37387408Y-71354428D01*
X37387408Y-71354428D02*
X37435027Y-71402047D01*
X37435027Y-71402047D02*
X37482646Y-71497285D01*
X37482646Y-71497285D02*
X37482646Y-71640142D01*
X37482646Y-71640142D02*
X37435027Y-71735380D01*
X37435027Y-71735380D02*
X37387408Y-71783000D01*
X37387408Y-71783000D02*
X37292170Y-71830619D01*
X37292170Y-71830619D02*
X36911218Y-71830619D01*
X36911218Y-71830619D02*
X36911218Y-70830619D01*
X36911218Y-70830619D02*
X37244551Y-70830619D01*
X37244551Y-70830619D02*
X37339789Y-70878238D01*
X37339789Y-70878238D02*
X37387408Y-70925857D01*
X37387408Y-70925857D02*
X37435027Y-71021095D01*
X37435027Y-71021095D02*
X37435027Y-71116333D01*
X37435027Y-71116333D02*
X37387408Y-71211571D01*
X37387408Y-71211571D02*
X37339789Y-71259190D01*
X37339789Y-71259190D02*
X37244551Y-71306809D01*
X37244551Y-71306809D02*
X36911218Y-71306809D01*
X37911218Y-71449666D02*
X38673123Y-71449666D01*
X38292170Y-71830619D02*
X38292170Y-71068714D01*
X111120903Y-59107704D02*
X111192331Y-59131514D01*
X111192331Y-59131514D02*
X111216141Y-59155323D01*
X111216141Y-59155323D02*
X111239950Y-59202942D01*
X111239950Y-59202942D02*
X111239950Y-59274371D01*
X111239950Y-59274371D02*
X111216141Y-59321990D01*
X111216141Y-59321990D02*
X111192331Y-59345800D01*
X111192331Y-59345800D02*
X111144712Y-59369609D01*
X111144712Y-59369609D02*
X110954236Y-59369609D01*
X110954236Y-59369609D02*
X110954236Y-58869609D01*
X110954236Y-58869609D02*
X111120903Y-58869609D01*
X111120903Y-58869609D02*
X111168522Y-58893419D01*
X111168522Y-58893419D02*
X111192331Y-58917228D01*
X111192331Y-58917228D02*
X111216141Y-58964847D01*
X111216141Y-58964847D02*
X111216141Y-59012466D01*
X111216141Y-59012466D02*
X111192331Y-59060085D01*
X111192331Y-59060085D02*
X111168522Y-59083895D01*
X111168522Y-59083895D02*
X111120903Y-59107704D01*
X111120903Y-59107704D02*
X110954236Y-59107704D01*
X111454236Y-59369609D02*
X111454236Y-58869609D01*
X111454236Y-58869609D02*
X111620903Y-59226752D01*
X111620903Y-59226752D02*
X111787569Y-58869609D01*
X111787569Y-58869609D02*
X111787569Y-59369609D01*
X112001856Y-59345800D02*
X112073284Y-59369609D01*
X112073284Y-59369609D02*
X112192332Y-59369609D01*
X112192332Y-59369609D02*
X112239951Y-59345800D01*
X112239951Y-59345800D02*
X112263760Y-59321990D01*
X112263760Y-59321990D02*
X112287570Y-59274371D01*
X112287570Y-59274371D02*
X112287570Y-59226752D01*
X112287570Y-59226752D02*
X112263760Y-59179133D01*
X112263760Y-59179133D02*
X112239951Y-59155323D01*
X112239951Y-59155323D02*
X112192332Y-59131514D01*
X112192332Y-59131514D02*
X112097094Y-59107704D01*
X112097094Y-59107704D02*
X112049475Y-59083895D01*
X112049475Y-59083895D02*
X112025665Y-59060085D01*
X112025665Y-59060085D02*
X112001856Y-59012466D01*
X112001856Y-59012466D02*
X112001856Y-58964847D01*
X112001856Y-58964847D02*
X112025665Y-58917228D01*
X112025665Y-58917228D02*
X112049475Y-58893419D01*
X112049475Y-58893419D02*
X112097094Y-58869609D01*
X112097094Y-58869609D02*
X112216141Y-58869609D01*
X112216141Y-58869609D02*
X112287570Y-58893419D01*
X112716141Y-59036276D02*
X112716141Y-59369609D01*
X112597093Y-58845800D02*
X112478046Y-59202942D01*
X112478046Y-59202942D02*
X112787569Y-59202942D01*
X65889865Y-76624904D02*
X66366055Y-76624904D01*
X65794627Y-76910619D02*
X66127960Y-75910619D01*
X66127960Y-75910619D02*
X66461293Y-76910619D01*
X66794627Y-76910619D02*
X66794627Y-75910619D01*
X66794627Y-75910619D02*
X67127960Y-76624904D01*
X67127960Y-76624904D02*
X67461293Y-75910619D01*
X67461293Y-75910619D02*
X67461293Y-76910619D01*
X67889865Y-76863000D02*
X68032722Y-76910619D01*
X68032722Y-76910619D02*
X68270817Y-76910619D01*
X68270817Y-76910619D02*
X68366055Y-76863000D01*
X68366055Y-76863000D02*
X68413674Y-76815380D01*
X68413674Y-76815380D02*
X68461293Y-76720142D01*
X68461293Y-76720142D02*
X68461293Y-76624904D01*
X68461293Y-76624904D02*
X68413674Y-76529666D01*
X68413674Y-76529666D02*
X68366055Y-76482047D01*
X68366055Y-76482047D02*
X68270817Y-76434428D01*
X68270817Y-76434428D02*
X68080341Y-76386809D01*
X68080341Y-76386809D02*
X67985103Y-76339190D01*
X67985103Y-76339190D02*
X67937484Y-76291571D01*
X67937484Y-76291571D02*
X67889865Y-76196333D01*
X67889865Y-76196333D02*
X67889865Y-76101095D01*
X67889865Y-76101095D02*
X67937484Y-76005857D01*
X67937484Y-76005857D02*
X67985103Y-75958238D01*
X67985103Y-75958238D02*
X68080341Y-75910619D01*
X68080341Y-75910619D02*
X68318436Y-75910619D01*
X68318436Y-75910619D02*
X68461293Y-75958238D01*
X70127960Y-76910619D02*
X69651770Y-76910619D01*
X69651770Y-76910619D02*
X69651770Y-75910619D01*
X70461294Y-76386809D02*
X70794627Y-76386809D01*
X70937484Y-76910619D02*
X70461294Y-76910619D01*
X70461294Y-76910619D02*
X70461294Y-75910619D01*
X70461294Y-75910619D02*
X70937484Y-75910619D01*
X71366056Y-76910619D02*
X71366056Y-75910619D01*
X71366056Y-75910619D02*
X71604151Y-75910619D01*
X71604151Y-75910619D02*
X71747008Y-75958238D01*
X71747008Y-75958238D02*
X71842246Y-76053476D01*
X71842246Y-76053476D02*
X71889865Y-76148714D01*
X71889865Y-76148714D02*
X71937484Y-76339190D01*
X71937484Y-76339190D02*
X71937484Y-76482047D01*
X71937484Y-76482047D02*
X71889865Y-76672523D01*
X71889865Y-76672523D02*
X71842246Y-76767761D01*
X71842246Y-76767761D02*
X71747008Y-76863000D01*
X71747008Y-76863000D02*
X71604151Y-76910619D01*
X71604151Y-76910619D02*
X71366056Y-76910619D01*
X103577103Y-59031504D02*
X103648531Y-59055314D01*
X103648531Y-59055314D02*
X103672341Y-59079123D01*
X103672341Y-59079123D02*
X103696150Y-59126742D01*
X103696150Y-59126742D02*
X103696150Y-59198171D01*
X103696150Y-59198171D02*
X103672341Y-59245790D01*
X103672341Y-59245790D02*
X103648531Y-59269600D01*
X103648531Y-59269600D02*
X103600912Y-59293409D01*
X103600912Y-59293409D02*
X103410436Y-59293409D01*
X103410436Y-59293409D02*
X103410436Y-58793409D01*
X103410436Y-58793409D02*
X103577103Y-58793409D01*
X103577103Y-58793409D02*
X103624722Y-58817219D01*
X103624722Y-58817219D02*
X103648531Y-58841028D01*
X103648531Y-58841028D02*
X103672341Y-58888647D01*
X103672341Y-58888647D02*
X103672341Y-58936266D01*
X103672341Y-58936266D02*
X103648531Y-58983885D01*
X103648531Y-58983885D02*
X103624722Y-59007695D01*
X103624722Y-59007695D02*
X103577103Y-59031504D01*
X103577103Y-59031504D02*
X103410436Y-59031504D01*
X103910436Y-59293409D02*
X103910436Y-58793409D01*
X103910436Y-58793409D02*
X104077103Y-59150552D01*
X104077103Y-59150552D02*
X104243769Y-58793409D01*
X104243769Y-58793409D02*
X104243769Y-59293409D01*
X104458056Y-59269600D02*
X104529484Y-59293409D01*
X104529484Y-59293409D02*
X104648532Y-59293409D01*
X104648532Y-59293409D02*
X104696151Y-59269600D01*
X104696151Y-59269600D02*
X104719960Y-59245790D01*
X104719960Y-59245790D02*
X104743770Y-59198171D01*
X104743770Y-59198171D02*
X104743770Y-59150552D01*
X104743770Y-59150552D02*
X104719960Y-59102933D01*
X104719960Y-59102933D02*
X104696151Y-59079123D01*
X104696151Y-59079123D02*
X104648532Y-59055314D01*
X104648532Y-59055314D02*
X104553294Y-59031504D01*
X104553294Y-59031504D02*
X104505675Y-59007695D01*
X104505675Y-59007695D02*
X104481865Y-58983885D01*
X104481865Y-58983885D02*
X104458056Y-58936266D01*
X104458056Y-58936266D02*
X104458056Y-58888647D01*
X104458056Y-58888647D02*
X104481865Y-58841028D01*
X104481865Y-58841028D02*
X104505675Y-58817219D01*
X104505675Y-58817219D02*
X104553294Y-58793409D01*
X104553294Y-58793409D02*
X104672341Y-58793409D01*
X104672341Y-58793409D02*
X104743770Y-58817219D01*
X105219960Y-59293409D02*
X104934246Y-59293409D01*
X105077103Y-59293409D02*
X105077103Y-58793409D01*
X105077103Y-58793409D02*
X105029484Y-58864838D01*
X105029484Y-58864838D02*
X104981865Y-58912457D01*
X104981865Y-58912457D02*
X104934246Y-58936266D01*
X82371284Y-73253019D02*
X82371284Y-72253019D01*
X82847474Y-73253019D02*
X82847474Y-72253019D01*
X82847474Y-72253019D02*
X83180807Y-72967304D01*
X83180807Y-72967304D02*
X83514140Y-72253019D01*
X83514140Y-72253019D02*
X83514140Y-73253019D01*
X83990331Y-73253019D02*
X83990331Y-72253019D01*
X83990331Y-72253019D02*
X84228426Y-72253019D01*
X84228426Y-72253019D02*
X84371283Y-72300638D01*
X84371283Y-72300638D02*
X84466521Y-72395876D01*
X84466521Y-72395876D02*
X84514140Y-72491114D01*
X84514140Y-72491114D02*
X84561759Y-72681590D01*
X84561759Y-72681590D02*
X84561759Y-72824447D01*
X84561759Y-72824447D02*
X84514140Y-73014923D01*
X84514140Y-73014923D02*
X84466521Y-73110161D01*
X84466521Y-73110161D02*
X84371283Y-73205400D01*
X84371283Y-73205400D02*
X84228426Y-73253019D01*
X84228426Y-73253019D02*
X83990331Y-73253019D01*
X86085569Y-72729209D02*
X85752236Y-72729209D01*
X85752236Y-73253019D02*
X85752236Y-72253019D01*
X85752236Y-72253019D02*
X86228426Y-72253019D01*
X87037950Y-73253019D02*
X87037950Y-72729209D01*
X87037950Y-72729209D02*
X86990331Y-72633971D01*
X86990331Y-72633971D02*
X86895093Y-72586352D01*
X86895093Y-72586352D02*
X86704617Y-72586352D01*
X86704617Y-72586352D02*
X86609379Y-72633971D01*
X87037950Y-73205400D02*
X86942712Y-73253019D01*
X86942712Y-73253019D02*
X86704617Y-73253019D01*
X86704617Y-73253019D02*
X86609379Y-73205400D01*
X86609379Y-73205400D02*
X86561760Y-73110161D01*
X86561760Y-73110161D02*
X86561760Y-73014923D01*
X86561760Y-73014923D02*
X86609379Y-72919685D01*
X86609379Y-72919685D02*
X86704617Y-72872066D01*
X86704617Y-72872066D02*
X86942712Y-72872066D01*
X86942712Y-72872066D02*
X87037950Y-72824447D01*
X87942712Y-72586352D02*
X87942712Y-73253019D01*
X87514141Y-72586352D02*
X87514141Y-73110161D01*
X87514141Y-73110161D02*
X87561760Y-73205400D01*
X87561760Y-73205400D02*
X87656998Y-73253019D01*
X87656998Y-73253019D02*
X87799855Y-73253019D01*
X87799855Y-73253019D02*
X87895093Y-73205400D01*
X87895093Y-73205400D02*
X87942712Y-73157780D01*
X88561760Y-73253019D02*
X88466522Y-73205400D01*
X88466522Y-73205400D02*
X88418903Y-73110161D01*
X88418903Y-73110161D02*
X88418903Y-72253019D01*
X88799856Y-72586352D02*
X89180808Y-72586352D01*
X88942713Y-72253019D02*
X88942713Y-73110161D01*
X88942713Y-73110161D02*
X88990332Y-73205400D01*
X88990332Y-73205400D02*
X89085570Y-73253019D01*
X89085570Y-73253019D02*
X89180808Y-73253019D01*
X122049265Y-71122600D02*
X122192122Y-71170219D01*
X122192122Y-71170219D02*
X122430217Y-71170219D01*
X122430217Y-71170219D02*
X122525455Y-71122600D01*
X122525455Y-71122600D02*
X122573074Y-71074980D01*
X122573074Y-71074980D02*
X122620693Y-70979742D01*
X122620693Y-70979742D02*
X122620693Y-70884504D01*
X122620693Y-70884504D02*
X122573074Y-70789266D01*
X122573074Y-70789266D02*
X122525455Y-70741647D01*
X122525455Y-70741647D02*
X122430217Y-70694028D01*
X122430217Y-70694028D02*
X122239741Y-70646409D01*
X122239741Y-70646409D02*
X122144503Y-70598790D01*
X122144503Y-70598790D02*
X122096884Y-70551171D01*
X122096884Y-70551171D02*
X122049265Y-70455933D01*
X122049265Y-70455933D02*
X122049265Y-70360695D01*
X122049265Y-70360695D02*
X122096884Y-70265457D01*
X122096884Y-70265457D02*
X122144503Y-70217838D01*
X122144503Y-70217838D02*
X122239741Y-70170219D01*
X122239741Y-70170219D02*
X122477836Y-70170219D01*
X122477836Y-70170219D02*
X122620693Y-70217838D01*
X123049265Y-71170219D02*
X123049265Y-70170219D01*
X123049265Y-70170219D02*
X123287360Y-70170219D01*
X123287360Y-70170219D02*
X123430217Y-70217838D01*
X123430217Y-70217838D02*
X123525455Y-70313076D01*
X123525455Y-70313076D02*
X123573074Y-70408314D01*
X123573074Y-70408314D02*
X123620693Y-70598790D01*
X123620693Y-70598790D02*
X123620693Y-70741647D01*
X123620693Y-70741647D02*
X123573074Y-70932123D01*
X123573074Y-70932123D02*
X123525455Y-71027361D01*
X123525455Y-71027361D02*
X123430217Y-71122600D01*
X123430217Y-71122600D02*
X123287360Y-71170219D01*
X123287360Y-71170219D02*
X123049265Y-71170219D01*
X124382598Y-70646409D02*
X124525455Y-70694028D01*
X124525455Y-70694028D02*
X124573074Y-70741647D01*
X124573074Y-70741647D02*
X124620693Y-70836885D01*
X124620693Y-70836885D02*
X124620693Y-70979742D01*
X124620693Y-70979742D02*
X124573074Y-71074980D01*
X124573074Y-71074980D02*
X124525455Y-71122600D01*
X124525455Y-71122600D02*
X124430217Y-71170219D01*
X124430217Y-71170219D02*
X124049265Y-71170219D01*
X124049265Y-71170219D02*
X124049265Y-70170219D01*
X124049265Y-70170219D02*
X124382598Y-70170219D01*
X124382598Y-70170219D02*
X124477836Y-70217838D01*
X124477836Y-70217838D02*
X124525455Y-70265457D01*
X124525455Y-70265457D02*
X124573074Y-70360695D01*
X124573074Y-70360695D02*
X124573074Y-70455933D01*
X124573074Y-70455933D02*
X124525455Y-70551171D01*
X124525455Y-70551171D02*
X124477836Y-70598790D01*
X124477836Y-70598790D02*
X124382598Y-70646409D01*
X124382598Y-70646409D02*
X124049265Y-70646409D01*
X103491312Y-75748580D02*
X103443693Y-75796200D01*
X103443693Y-75796200D02*
X103300836Y-75843819D01*
X103300836Y-75843819D02*
X103205598Y-75843819D01*
X103205598Y-75843819D02*
X103062741Y-75796200D01*
X103062741Y-75796200D02*
X102967503Y-75700961D01*
X102967503Y-75700961D02*
X102919884Y-75605723D01*
X102919884Y-75605723D02*
X102872265Y-75415247D01*
X102872265Y-75415247D02*
X102872265Y-75272390D01*
X102872265Y-75272390D02*
X102919884Y-75081914D01*
X102919884Y-75081914D02*
X102967503Y-74986676D01*
X102967503Y-74986676D02*
X103062741Y-74891438D01*
X103062741Y-74891438D02*
X103205598Y-74843819D01*
X103205598Y-74843819D02*
X103300836Y-74843819D01*
X103300836Y-74843819D02*
X103443693Y-74891438D01*
X103443693Y-74891438D02*
X103491312Y-74939057D01*
X103872265Y-75796200D02*
X104015122Y-75843819D01*
X104015122Y-75843819D02*
X104253217Y-75843819D01*
X104253217Y-75843819D02*
X104348455Y-75796200D01*
X104348455Y-75796200D02*
X104396074Y-75748580D01*
X104396074Y-75748580D02*
X104443693Y-75653342D01*
X104443693Y-75653342D02*
X104443693Y-75558104D01*
X104443693Y-75558104D02*
X104396074Y-75462866D01*
X104396074Y-75462866D02*
X104348455Y-75415247D01*
X104348455Y-75415247D02*
X104253217Y-75367628D01*
X104253217Y-75367628D02*
X104062741Y-75320009D01*
X104062741Y-75320009D02*
X103967503Y-75272390D01*
X103967503Y-75272390D02*
X103919884Y-75224771D01*
X103919884Y-75224771D02*
X103872265Y-75129533D01*
X103872265Y-75129533D02*
X103872265Y-75034295D01*
X103872265Y-75034295D02*
X103919884Y-74939057D01*
X103919884Y-74939057D02*
X103967503Y-74891438D01*
X103967503Y-74891438D02*
X104062741Y-74843819D01*
X104062741Y-74843819D02*
X104300836Y-74843819D01*
X104300836Y-74843819D02*
X104443693Y-74891438D01*
X104872265Y-75843819D02*
X104872265Y-74843819D01*
X104872265Y-74843819D02*
X105110360Y-74843819D01*
X105110360Y-74843819D02*
X105253217Y-74891438D01*
X105253217Y-74891438D02*
X105348455Y-74986676D01*
X105348455Y-74986676D02*
X105396074Y-75081914D01*
X105396074Y-75081914D02*
X105443693Y-75272390D01*
X105443693Y-75272390D02*
X105443693Y-75415247D01*
X105443693Y-75415247D02*
X105396074Y-75605723D01*
X105396074Y-75605723D02*
X105348455Y-75700961D01*
X105348455Y-75700961D02*
X105253217Y-75796200D01*
X105253217Y-75796200D02*
X105110360Y-75843819D01*
X105110360Y-75843819D02*
X104872265Y-75843819D01*
X106443693Y-75748580D02*
X106396074Y-75796200D01*
X106396074Y-75796200D02*
X106253217Y-75843819D01*
X106253217Y-75843819D02*
X106157979Y-75843819D01*
X106157979Y-75843819D02*
X106015122Y-75796200D01*
X106015122Y-75796200D02*
X105919884Y-75700961D01*
X105919884Y-75700961D02*
X105872265Y-75605723D01*
X105872265Y-75605723D02*
X105824646Y-75415247D01*
X105824646Y-75415247D02*
X105824646Y-75272390D01*
X105824646Y-75272390D02*
X105872265Y-75081914D01*
X105872265Y-75081914D02*
X105919884Y-74986676D01*
X105919884Y-74986676D02*
X106015122Y-74891438D01*
X106015122Y-74891438D02*
X106157979Y-74843819D01*
X106157979Y-74843819D02*
X106253217Y-74843819D01*
X106253217Y-74843819D02*
X106396074Y-74891438D01*
X106396074Y-74891438D02*
X106443693Y-74939057D01*
X106872265Y-75462866D02*
X107634170Y-75462866D01*
X107253217Y-75843819D02*
X107253217Y-75081914D01*
X58419084Y-74980266D02*
X59180989Y-74980266D01*
X92848712Y-75767619D02*
X92515379Y-75291428D01*
X92277284Y-75767619D02*
X92277284Y-74767619D01*
X92277284Y-74767619D02*
X92658236Y-74767619D01*
X92658236Y-74767619D02*
X92753474Y-74815238D01*
X92753474Y-74815238D02*
X92801093Y-74862857D01*
X92801093Y-74862857D02*
X92848712Y-74958095D01*
X92848712Y-74958095D02*
X92848712Y-75100952D01*
X92848712Y-75100952D02*
X92801093Y-75196190D01*
X92801093Y-75196190D02*
X92753474Y-75243809D01*
X92753474Y-75243809D02*
X92658236Y-75291428D01*
X92658236Y-75291428D02*
X92277284Y-75291428D01*
X93277284Y-75243809D02*
X93610617Y-75243809D01*
X93753474Y-75767619D02*
X93277284Y-75767619D01*
X93277284Y-75767619D02*
X93277284Y-74767619D01*
X93277284Y-74767619D02*
X93753474Y-74767619D01*
X94134427Y-75720000D02*
X94277284Y-75767619D01*
X94277284Y-75767619D02*
X94515379Y-75767619D01*
X94515379Y-75767619D02*
X94610617Y-75720000D01*
X94610617Y-75720000D02*
X94658236Y-75672380D01*
X94658236Y-75672380D02*
X94705855Y-75577142D01*
X94705855Y-75577142D02*
X94705855Y-75481904D01*
X94705855Y-75481904D02*
X94658236Y-75386666D01*
X94658236Y-75386666D02*
X94610617Y-75339047D01*
X94610617Y-75339047D02*
X94515379Y-75291428D01*
X94515379Y-75291428D02*
X94324903Y-75243809D01*
X94324903Y-75243809D02*
X94229665Y-75196190D01*
X94229665Y-75196190D02*
X94182046Y-75148571D01*
X94182046Y-75148571D02*
X94134427Y-75053333D01*
X94134427Y-75053333D02*
X94134427Y-74958095D01*
X94134427Y-74958095D02*
X94182046Y-74862857D01*
X94182046Y-74862857D02*
X94229665Y-74815238D01*
X94229665Y-74815238D02*
X94324903Y-74767619D01*
X94324903Y-74767619D02*
X94562998Y-74767619D01*
X94562998Y-74767619D02*
X94705855Y-74815238D01*
X95134427Y-75243809D02*
X95467760Y-75243809D01*
X95610617Y-75767619D02*
X95134427Y-75767619D01*
X95134427Y-75767619D02*
X95134427Y-74767619D01*
X95134427Y-74767619D02*
X95610617Y-74767619D01*
X95896332Y-74767619D02*
X96467760Y-74767619D01*
X96182046Y-75767619D02*
X96182046Y-74767619D01*
X65632684Y-75056466D02*
X66394589Y-75056466D01*
X66013636Y-75437419D02*
X66013636Y-74675514D01*
X108799912Y-75723180D02*
X108752293Y-75770800D01*
X108752293Y-75770800D02*
X108609436Y-75818419D01*
X108609436Y-75818419D02*
X108514198Y-75818419D01*
X108514198Y-75818419D02*
X108371341Y-75770800D01*
X108371341Y-75770800D02*
X108276103Y-75675561D01*
X108276103Y-75675561D02*
X108228484Y-75580323D01*
X108228484Y-75580323D02*
X108180865Y-75389847D01*
X108180865Y-75389847D02*
X108180865Y-75246990D01*
X108180865Y-75246990D02*
X108228484Y-75056514D01*
X108228484Y-75056514D02*
X108276103Y-74961276D01*
X108276103Y-74961276D02*
X108371341Y-74866038D01*
X108371341Y-74866038D02*
X108514198Y-74818419D01*
X108514198Y-74818419D02*
X108609436Y-74818419D01*
X108609436Y-74818419D02*
X108752293Y-74866038D01*
X108752293Y-74866038D02*
X108799912Y-74913657D01*
X109180865Y-75770800D02*
X109323722Y-75818419D01*
X109323722Y-75818419D02*
X109561817Y-75818419D01*
X109561817Y-75818419D02*
X109657055Y-75770800D01*
X109657055Y-75770800D02*
X109704674Y-75723180D01*
X109704674Y-75723180D02*
X109752293Y-75627942D01*
X109752293Y-75627942D02*
X109752293Y-75532704D01*
X109752293Y-75532704D02*
X109704674Y-75437466D01*
X109704674Y-75437466D02*
X109657055Y-75389847D01*
X109657055Y-75389847D02*
X109561817Y-75342228D01*
X109561817Y-75342228D02*
X109371341Y-75294609D01*
X109371341Y-75294609D02*
X109276103Y-75246990D01*
X109276103Y-75246990D02*
X109228484Y-75199371D01*
X109228484Y-75199371D02*
X109180865Y-75104133D01*
X109180865Y-75104133D02*
X109180865Y-75008895D01*
X109180865Y-75008895D02*
X109228484Y-74913657D01*
X109228484Y-74913657D02*
X109276103Y-74866038D01*
X109276103Y-74866038D02*
X109371341Y-74818419D01*
X109371341Y-74818419D02*
X109609436Y-74818419D01*
X109609436Y-74818419D02*
X109752293Y-74866038D01*
X110180865Y-75818419D02*
X110180865Y-74818419D01*
X110180865Y-74818419D02*
X110418960Y-74818419D01*
X110418960Y-74818419D02*
X110561817Y-74866038D01*
X110561817Y-74866038D02*
X110657055Y-74961276D01*
X110657055Y-74961276D02*
X110704674Y-75056514D01*
X110704674Y-75056514D02*
X110752293Y-75246990D01*
X110752293Y-75246990D02*
X110752293Y-75389847D01*
X110752293Y-75389847D02*
X110704674Y-75580323D01*
X110704674Y-75580323D02*
X110657055Y-75675561D01*
X110657055Y-75675561D02*
X110561817Y-75770800D01*
X110561817Y-75770800D02*
X110418960Y-75818419D01*
X110418960Y-75818419D02*
X110180865Y-75818419D01*
X111752293Y-75723180D02*
X111704674Y-75770800D01*
X111704674Y-75770800D02*
X111561817Y-75818419D01*
X111561817Y-75818419D02*
X111466579Y-75818419D01*
X111466579Y-75818419D02*
X111323722Y-75770800D01*
X111323722Y-75770800D02*
X111228484Y-75675561D01*
X111228484Y-75675561D02*
X111180865Y-75580323D01*
X111180865Y-75580323D02*
X111133246Y-75389847D01*
X111133246Y-75389847D02*
X111133246Y-75246990D01*
X111133246Y-75246990D02*
X111180865Y-75056514D01*
X111180865Y-75056514D02*
X111228484Y-74961276D01*
X111228484Y-74961276D02*
X111323722Y-74866038D01*
X111323722Y-74866038D02*
X111466579Y-74818419D01*
X111466579Y-74818419D02*
X111561817Y-74818419D01*
X111561817Y-74818419D02*
X111704674Y-74866038D01*
X111704674Y-74866038D02*
X111752293Y-74913657D01*
X112180865Y-75437466D02*
X112942770Y-75437466D01*
X70992084Y-75056466D02*
X71753989Y-75056466D01*
X53440684Y-74853266D02*
X54202589Y-74853266D01*
X53821636Y-75234219D02*
X53821636Y-74472314D01*
X78513617Y-72729209D02*
X78656474Y-72776828D01*
X78656474Y-72776828D02*
X78704093Y-72824447D01*
X78704093Y-72824447D02*
X78751712Y-72919685D01*
X78751712Y-72919685D02*
X78751712Y-73062542D01*
X78751712Y-73062542D02*
X78704093Y-73157780D01*
X78704093Y-73157780D02*
X78656474Y-73205400D01*
X78656474Y-73205400D02*
X78561236Y-73253019D01*
X78561236Y-73253019D02*
X78180284Y-73253019D01*
X78180284Y-73253019D02*
X78180284Y-72253019D01*
X78180284Y-72253019D02*
X78513617Y-72253019D01*
X78513617Y-72253019D02*
X78608855Y-72300638D01*
X78608855Y-72300638D02*
X78656474Y-72348257D01*
X78656474Y-72348257D02*
X78704093Y-72443495D01*
X78704093Y-72443495D02*
X78704093Y-72538733D01*
X78704093Y-72538733D02*
X78656474Y-72633971D01*
X78656474Y-72633971D02*
X78608855Y-72681590D01*
X78608855Y-72681590D02*
X78513617Y-72729209D01*
X78513617Y-72729209D02*
X78180284Y-72729209D01*
X79180284Y-73253019D02*
X79180284Y-72253019D01*
X79180284Y-72253019D02*
X79513617Y-72967304D01*
X79513617Y-72967304D02*
X79846950Y-72253019D01*
X79846950Y-72253019D02*
X79846950Y-73253019D01*
X80275522Y-73205400D02*
X80418379Y-73253019D01*
X80418379Y-73253019D02*
X80656474Y-73253019D01*
X80656474Y-73253019D02*
X80751712Y-73205400D01*
X80751712Y-73205400D02*
X80799331Y-73157780D01*
X80799331Y-73157780D02*
X80846950Y-73062542D01*
X80846950Y-73062542D02*
X80846950Y-72967304D01*
X80846950Y-72967304D02*
X80799331Y-72872066D01*
X80799331Y-72872066D02*
X80751712Y-72824447D01*
X80751712Y-72824447D02*
X80656474Y-72776828D01*
X80656474Y-72776828D02*
X80465998Y-72729209D01*
X80465998Y-72729209D02*
X80370760Y-72681590D01*
X80370760Y-72681590D02*
X80323141Y-72633971D01*
X80323141Y-72633971D02*
X80275522Y-72538733D01*
X80275522Y-72538733D02*
X80275522Y-72443495D01*
X80275522Y-72443495D02*
X80323141Y-72348257D01*
X80323141Y-72348257D02*
X80370760Y-72300638D01*
X80370760Y-72300638D02*
X80465998Y-72253019D01*
X80465998Y-72253019D02*
X80704093Y-72253019D01*
X80704093Y-72253019D02*
X80846950Y-72300638D01*
X81751712Y-72253019D02*
X81275522Y-72253019D01*
X81275522Y-72253019D02*
X81227903Y-72729209D01*
X81227903Y-72729209D02*
X81275522Y-72681590D01*
X81275522Y-72681590D02*
X81370760Y-72633971D01*
X81370760Y-72633971D02*
X81608855Y-72633971D01*
X81608855Y-72633971D02*
X81704093Y-72681590D01*
X81704093Y-72681590D02*
X81751712Y-72729209D01*
X81751712Y-72729209D02*
X81799331Y-72824447D01*
X81799331Y-72824447D02*
X81799331Y-73062542D01*
X81799331Y-73062542D02*
X81751712Y-73157780D01*
X81751712Y-73157780D02*
X81704093Y-73205400D01*
X81704093Y-73205400D02*
X81608855Y-73253019D01*
X81608855Y-73253019D02*
X81370760Y-73253019D01*
X81370760Y-73253019D02*
X81275522Y-73205400D01*
X81275522Y-73205400D02*
X81227903Y-73157780D01*
X105939303Y-59056904D02*
X106010731Y-59080714D01*
X106010731Y-59080714D02*
X106034541Y-59104523D01*
X106034541Y-59104523D02*
X106058350Y-59152142D01*
X106058350Y-59152142D02*
X106058350Y-59223571D01*
X106058350Y-59223571D02*
X106034541Y-59271190D01*
X106034541Y-59271190D02*
X106010731Y-59295000D01*
X106010731Y-59295000D02*
X105963112Y-59318809D01*
X105963112Y-59318809D02*
X105772636Y-59318809D01*
X105772636Y-59318809D02*
X105772636Y-58818809D01*
X105772636Y-58818809D02*
X105939303Y-58818809D01*
X105939303Y-58818809D02*
X105986922Y-58842619D01*
X105986922Y-58842619D02*
X106010731Y-58866428D01*
X106010731Y-58866428D02*
X106034541Y-58914047D01*
X106034541Y-58914047D02*
X106034541Y-58961666D01*
X106034541Y-58961666D02*
X106010731Y-59009285D01*
X106010731Y-59009285D02*
X105986922Y-59033095D01*
X105986922Y-59033095D02*
X105939303Y-59056904D01*
X105939303Y-59056904D02*
X105772636Y-59056904D01*
X106272636Y-59318809D02*
X106272636Y-58818809D01*
X106272636Y-58818809D02*
X106439303Y-59175952D01*
X106439303Y-59175952D02*
X106605969Y-58818809D01*
X106605969Y-58818809D02*
X106605969Y-59318809D01*
X106820256Y-59295000D02*
X106891684Y-59318809D01*
X106891684Y-59318809D02*
X107010732Y-59318809D01*
X107010732Y-59318809D02*
X107058351Y-59295000D01*
X107058351Y-59295000D02*
X107082160Y-59271190D01*
X107082160Y-59271190D02*
X107105970Y-59223571D01*
X107105970Y-59223571D02*
X107105970Y-59175952D01*
X107105970Y-59175952D02*
X107082160Y-59128333D01*
X107082160Y-59128333D02*
X107058351Y-59104523D01*
X107058351Y-59104523D02*
X107010732Y-59080714D01*
X107010732Y-59080714D02*
X106915494Y-59056904D01*
X106915494Y-59056904D02*
X106867875Y-59033095D01*
X106867875Y-59033095D02*
X106844065Y-59009285D01*
X106844065Y-59009285D02*
X106820256Y-58961666D01*
X106820256Y-58961666D02*
X106820256Y-58914047D01*
X106820256Y-58914047D02*
X106844065Y-58866428D01*
X106844065Y-58866428D02*
X106867875Y-58842619D01*
X106867875Y-58842619D02*
X106915494Y-58818809D01*
X106915494Y-58818809D02*
X107034541Y-58818809D01*
X107034541Y-58818809D02*
X107105970Y-58842619D01*
X107296446Y-58866428D02*
X107320255Y-58842619D01*
X107320255Y-58842619D02*
X107367874Y-58818809D01*
X107367874Y-58818809D02*
X107486922Y-58818809D01*
X107486922Y-58818809D02*
X107534541Y-58842619D01*
X107534541Y-58842619D02*
X107558350Y-58866428D01*
X107558350Y-58866428D02*
X107582160Y-58914047D01*
X107582160Y-58914047D02*
X107582160Y-58961666D01*
X107582160Y-58961666D02*
X107558350Y-59033095D01*
X107558350Y-59033095D02*
X107272636Y-59318809D01*
X107272636Y-59318809D02*
X107582160Y-59318809D01*
D11*
%TO.C,U1*%
X77651619Y-58856304D02*
X78461142Y-58856304D01*
X78461142Y-58856304D02*
X78556380Y-58808685D01*
X78556380Y-58808685D02*
X78604000Y-58761066D01*
X78604000Y-58761066D02*
X78651619Y-58665828D01*
X78651619Y-58665828D02*
X78651619Y-58475352D01*
X78651619Y-58475352D02*
X78604000Y-58380114D01*
X78604000Y-58380114D02*
X78556380Y-58332495D01*
X78556380Y-58332495D02*
X78461142Y-58284876D01*
X78461142Y-58284876D02*
X77651619Y-58284876D01*
X78651619Y-57284876D02*
X78651619Y-57856304D01*
X78651619Y-57570590D02*
X77651619Y-57570590D01*
X77651619Y-57570590D02*
X77794476Y-57665828D01*
X77794476Y-57665828D02*
X77889714Y-57761066D01*
X77889714Y-57761066D02*
X77937333Y-57856304D01*
%TO.C,U2*%
X78319019Y-46075504D02*
X79128542Y-46075504D01*
X79128542Y-46075504D02*
X79223780Y-46027885D01*
X79223780Y-46027885D02*
X79271400Y-45980266D01*
X79271400Y-45980266D02*
X79319019Y-45885028D01*
X79319019Y-45885028D02*
X79319019Y-45694552D01*
X79319019Y-45694552D02*
X79271400Y-45599314D01*
X79271400Y-45599314D02*
X79223780Y-45551695D01*
X79223780Y-45551695D02*
X79128542Y-45504076D01*
X79128542Y-45504076D02*
X78319019Y-45504076D01*
X78414257Y-45075504D02*
X78366638Y-45027885D01*
X78366638Y-45027885D02*
X78319019Y-44932647D01*
X78319019Y-44932647D02*
X78319019Y-44694552D01*
X78319019Y-44694552D02*
X78366638Y-44599314D01*
X78366638Y-44599314D02*
X78414257Y-44551695D01*
X78414257Y-44551695D02*
X78509495Y-44504076D01*
X78509495Y-44504076D02*
X78604733Y-44504076D01*
X78604733Y-44504076D02*
X78747590Y-44551695D01*
X78747590Y-44551695D02*
X79319019Y-45123123D01*
X79319019Y-45123123D02*
X79319019Y-44504076D01*
%TO.C,Q2*%
X46818561Y-67529457D02*
X46723323Y-67481838D01*
X46723323Y-67481838D02*
X46628085Y-67386600D01*
X46628085Y-67386600D02*
X46485228Y-67243742D01*
X46485228Y-67243742D02*
X46389990Y-67196123D01*
X46389990Y-67196123D02*
X46294752Y-67196123D01*
X46342371Y-67434219D02*
X46247133Y-67386600D01*
X46247133Y-67386600D02*
X46151895Y-67291361D01*
X46151895Y-67291361D02*
X46104276Y-67100885D01*
X46104276Y-67100885D02*
X46104276Y-66767552D01*
X46104276Y-66767552D02*
X46151895Y-66577076D01*
X46151895Y-66577076D02*
X46247133Y-66481838D01*
X46247133Y-66481838D02*
X46342371Y-66434219D01*
X46342371Y-66434219D02*
X46532847Y-66434219D01*
X46532847Y-66434219D02*
X46628085Y-66481838D01*
X46628085Y-66481838D02*
X46723323Y-66577076D01*
X46723323Y-66577076D02*
X46770942Y-66767552D01*
X46770942Y-66767552D02*
X46770942Y-67100885D01*
X46770942Y-67100885D02*
X46723323Y-67291361D01*
X46723323Y-67291361D02*
X46628085Y-67386600D01*
X46628085Y-67386600D02*
X46532847Y-67434219D01*
X46532847Y-67434219D02*
X46342371Y-67434219D01*
X47151895Y-66529457D02*
X47199514Y-66481838D01*
X47199514Y-66481838D02*
X47294752Y-66434219D01*
X47294752Y-66434219D02*
X47532847Y-66434219D01*
X47532847Y-66434219D02*
X47628085Y-66481838D01*
X47628085Y-66481838D02*
X47675704Y-66529457D01*
X47675704Y-66529457D02*
X47723323Y-66624695D01*
X47723323Y-66624695D02*
X47723323Y-66719933D01*
X47723323Y-66719933D02*
X47675704Y-66862790D01*
X47675704Y-66862790D02*
X47104276Y-67434219D01*
X47104276Y-67434219D02*
X47723323Y-67434219D01*
%TO.C,D1*%
X51636705Y-21784619D02*
X51636705Y-20784619D01*
X51636705Y-20784619D02*
X51874800Y-20784619D01*
X51874800Y-20784619D02*
X52017657Y-20832238D01*
X52017657Y-20832238D02*
X52112895Y-20927476D01*
X52112895Y-20927476D02*
X52160514Y-21022714D01*
X52160514Y-21022714D02*
X52208133Y-21213190D01*
X52208133Y-21213190D02*
X52208133Y-21356047D01*
X52208133Y-21356047D02*
X52160514Y-21546523D01*
X52160514Y-21546523D02*
X52112895Y-21641761D01*
X52112895Y-21641761D02*
X52017657Y-21737000D01*
X52017657Y-21737000D02*
X51874800Y-21784619D01*
X51874800Y-21784619D02*
X51636705Y-21784619D01*
X53160514Y-21784619D02*
X52589086Y-21784619D01*
X52874800Y-21784619D02*
X52874800Y-20784619D01*
X52874800Y-20784619D02*
X52779562Y-20927476D01*
X52779562Y-20927476D02*
X52684324Y-21022714D01*
X52684324Y-21022714D02*
X52589086Y-21070333D01*
X47032895Y-22154619D02*
X47032895Y-21154619D01*
X47604323Y-22154619D02*
X47175752Y-21583190D01*
X47604323Y-21154619D02*
X47032895Y-21726047D01*
%TO.C,R7*%
X58425419Y-53328866D02*
X57949228Y-53662199D01*
X58425419Y-53900294D02*
X57425419Y-53900294D01*
X57425419Y-53900294D02*
X57425419Y-53519342D01*
X57425419Y-53519342D02*
X57473038Y-53424104D01*
X57473038Y-53424104D02*
X57520657Y-53376485D01*
X57520657Y-53376485D02*
X57615895Y-53328866D01*
X57615895Y-53328866D02*
X57758752Y-53328866D01*
X57758752Y-53328866D02*
X57853990Y-53376485D01*
X57853990Y-53376485D02*
X57901609Y-53424104D01*
X57901609Y-53424104D02*
X57949228Y-53519342D01*
X57949228Y-53519342D02*
X57949228Y-53900294D01*
X57425419Y-52995532D02*
X57425419Y-52328866D01*
X57425419Y-52328866D02*
X58425419Y-52757437D01*
%TO.C,J3*%
X107584239Y-50944839D02*
X107584239Y-51619755D01*
X107584239Y-51619755D02*
X107539244Y-51754738D01*
X107539244Y-51754738D02*
X107449256Y-51844727D01*
X107449256Y-51844727D02*
X107314272Y-51889721D01*
X107314272Y-51889721D02*
X107224284Y-51889721D01*
X107944194Y-50944839D02*
X108529121Y-50944839D01*
X108529121Y-50944839D02*
X108214160Y-51304794D01*
X108214160Y-51304794D02*
X108349143Y-51304794D01*
X108349143Y-51304794D02*
X108439132Y-51349788D01*
X108439132Y-51349788D02*
X108484126Y-51394783D01*
X108484126Y-51394783D02*
X108529121Y-51484771D01*
X108529121Y-51484771D02*
X108529121Y-51709743D01*
X108529121Y-51709743D02*
X108484126Y-51799732D01*
X108484126Y-51799732D02*
X108439132Y-51844727D01*
X108439132Y-51844727D02*
X108349143Y-51889721D01*
X108349143Y-51889721D02*
X108079177Y-51889721D01*
X108079177Y-51889721D02*
X107989188Y-51844727D01*
X107989188Y-51844727D02*
X107944194Y-51799732D01*
%TO.C,R8*%
X63149819Y-55767266D02*
X62673628Y-56100599D01*
X63149819Y-56338694D02*
X62149819Y-56338694D01*
X62149819Y-56338694D02*
X62149819Y-55957742D01*
X62149819Y-55957742D02*
X62197438Y-55862504D01*
X62197438Y-55862504D02*
X62245057Y-55814885D01*
X62245057Y-55814885D02*
X62340295Y-55767266D01*
X62340295Y-55767266D02*
X62483152Y-55767266D01*
X62483152Y-55767266D02*
X62578390Y-55814885D01*
X62578390Y-55814885D02*
X62626009Y-55862504D01*
X62626009Y-55862504D02*
X62673628Y-55957742D01*
X62673628Y-55957742D02*
X62673628Y-56338694D01*
X62578390Y-55195837D02*
X62530771Y-55291075D01*
X62530771Y-55291075D02*
X62483152Y-55338694D01*
X62483152Y-55338694D02*
X62387914Y-55386313D01*
X62387914Y-55386313D02*
X62340295Y-55386313D01*
X62340295Y-55386313D02*
X62245057Y-55338694D01*
X62245057Y-55338694D02*
X62197438Y-55291075D01*
X62197438Y-55291075D02*
X62149819Y-55195837D01*
X62149819Y-55195837D02*
X62149819Y-55005361D01*
X62149819Y-55005361D02*
X62197438Y-54910123D01*
X62197438Y-54910123D02*
X62245057Y-54862504D01*
X62245057Y-54862504D02*
X62340295Y-54814885D01*
X62340295Y-54814885D02*
X62387914Y-54814885D01*
X62387914Y-54814885D02*
X62483152Y-54862504D01*
X62483152Y-54862504D02*
X62530771Y-54910123D01*
X62530771Y-54910123D02*
X62578390Y-55005361D01*
X62578390Y-55005361D02*
X62578390Y-55195837D01*
X62578390Y-55195837D02*
X62626009Y-55291075D01*
X62626009Y-55291075D02*
X62673628Y-55338694D01*
X62673628Y-55338694D02*
X62768866Y-55386313D01*
X62768866Y-55386313D02*
X62959342Y-55386313D01*
X62959342Y-55386313D02*
X63054580Y-55338694D01*
X63054580Y-55338694D02*
X63102200Y-55291075D01*
X63102200Y-55291075D02*
X63149819Y-55195837D01*
X63149819Y-55195837D02*
X63149819Y-55005361D01*
X63149819Y-55005361D02*
X63102200Y-54910123D01*
X63102200Y-54910123D02*
X63054580Y-54862504D01*
X63054580Y-54862504D02*
X62959342Y-54814885D01*
X62959342Y-54814885D02*
X62768866Y-54814885D01*
X62768866Y-54814885D02*
X62673628Y-54862504D01*
X62673628Y-54862504D02*
X62626009Y-54910123D01*
X62626009Y-54910123D02*
X62578390Y-55005361D01*
%TO.C,R2*%
X88966019Y-32907266D02*
X88489828Y-33240599D01*
X88966019Y-33478694D02*
X87966019Y-33478694D01*
X87966019Y-33478694D02*
X87966019Y-33097742D01*
X87966019Y-33097742D02*
X88013638Y-33002504D01*
X88013638Y-33002504D02*
X88061257Y-32954885D01*
X88061257Y-32954885D02*
X88156495Y-32907266D01*
X88156495Y-32907266D02*
X88299352Y-32907266D01*
X88299352Y-32907266D02*
X88394590Y-32954885D01*
X88394590Y-32954885D02*
X88442209Y-33002504D01*
X88442209Y-33002504D02*
X88489828Y-33097742D01*
X88489828Y-33097742D02*
X88489828Y-33478694D01*
X88061257Y-32526313D02*
X88013638Y-32478694D01*
X88013638Y-32478694D02*
X87966019Y-32383456D01*
X87966019Y-32383456D02*
X87966019Y-32145361D01*
X87966019Y-32145361D02*
X88013638Y-32050123D01*
X88013638Y-32050123D02*
X88061257Y-32002504D01*
X88061257Y-32002504D02*
X88156495Y-31954885D01*
X88156495Y-31954885D02*
X88251733Y-31954885D01*
X88251733Y-31954885D02*
X88394590Y-32002504D01*
X88394590Y-32002504D02*
X88966019Y-32573932D01*
X88966019Y-32573932D02*
X88966019Y-31954885D01*
%TO.C,R5*%
X36388019Y-32831066D02*
X35911828Y-33164399D01*
X36388019Y-33402494D02*
X35388019Y-33402494D01*
X35388019Y-33402494D02*
X35388019Y-33021542D01*
X35388019Y-33021542D02*
X35435638Y-32926304D01*
X35435638Y-32926304D02*
X35483257Y-32878685D01*
X35483257Y-32878685D02*
X35578495Y-32831066D01*
X35578495Y-32831066D02*
X35721352Y-32831066D01*
X35721352Y-32831066D02*
X35816590Y-32878685D01*
X35816590Y-32878685D02*
X35864209Y-32926304D01*
X35864209Y-32926304D02*
X35911828Y-33021542D01*
X35911828Y-33021542D02*
X35911828Y-33402494D01*
X35388019Y-31926304D02*
X35388019Y-32402494D01*
X35388019Y-32402494D02*
X35864209Y-32450113D01*
X35864209Y-32450113D02*
X35816590Y-32402494D01*
X35816590Y-32402494D02*
X35768971Y-32307256D01*
X35768971Y-32307256D02*
X35768971Y-32069161D01*
X35768971Y-32069161D02*
X35816590Y-31973923D01*
X35816590Y-31973923D02*
X35864209Y-31926304D01*
X35864209Y-31926304D02*
X35959447Y-31878685D01*
X35959447Y-31878685D02*
X36197542Y-31878685D01*
X36197542Y-31878685D02*
X36292780Y-31926304D01*
X36292780Y-31926304D02*
X36340400Y-31973923D01*
X36340400Y-31973923D02*
X36388019Y-32069161D01*
X36388019Y-32069161D02*
X36388019Y-32307256D01*
X36388019Y-32307256D02*
X36340400Y-32402494D01*
X36340400Y-32402494D02*
X36292780Y-32450113D01*
%TO.C,J11*%
X67683476Y-62587619D02*
X67683476Y-63301904D01*
X67683476Y-63301904D02*
X67635857Y-63444761D01*
X67635857Y-63444761D02*
X67540619Y-63540000D01*
X67540619Y-63540000D02*
X67397762Y-63587619D01*
X67397762Y-63587619D02*
X67302524Y-63587619D01*
X68683476Y-63587619D02*
X68112048Y-63587619D01*
X68397762Y-63587619D02*
X68397762Y-62587619D01*
X68397762Y-62587619D02*
X68302524Y-62730476D01*
X68302524Y-62730476D02*
X68207286Y-62825714D01*
X68207286Y-62825714D02*
X68112048Y-62873333D01*
X69635857Y-63587619D02*
X69064429Y-63587619D01*
X69350143Y-63587619D02*
X69350143Y-62587619D01*
X69350143Y-62587619D02*
X69254905Y-62730476D01*
X69254905Y-62730476D02*
X69159667Y-62825714D01*
X69159667Y-62825714D02*
X69064429Y-62873333D01*
%TO.C,R3*%
X46289933Y-48097419D02*
X45956600Y-47621228D01*
X45718505Y-48097419D02*
X45718505Y-47097419D01*
X45718505Y-47097419D02*
X46099457Y-47097419D01*
X46099457Y-47097419D02*
X46194695Y-47145038D01*
X46194695Y-47145038D02*
X46242314Y-47192657D01*
X46242314Y-47192657D02*
X46289933Y-47287895D01*
X46289933Y-47287895D02*
X46289933Y-47430752D01*
X46289933Y-47430752D02*
X46242314Y-47525990D01*
X46242314Y-47525990D02*
X46194695Y-47573609D01*
X46194695Y-47573609D02*
X46099457Y-47621228D01*
X46099457Y-47621228D02*
X45718505Y-47621228D01*
X46623267Y-47097419D02*
X47242314Y-47097419D01*
X47242314Y-47097419D02*
X46908981Y-47478371D01*
X46908981Y-47478371D02*
X47051838Y-47478371D01*
X47051838Y-47478371D02*
X47147076Y-47525990D01*
X47147076Y-47525990D02*
X47194695Y-47573609D01*
X47194695Y-47573609D02*
X47242314Y-47668847D01*
X47242314Y-47668847D02*
X47242314Y-47906942D01*
X47242314Y-47906942D02*
X47194695Y-48002180D01*
X47194695Y-48002180D02*
X47147076Y-48049800D01*
X47147076Y-48049800D02*
X47051838Y-48097419D01*
X47051838Y-48097419D02*
X46766124Y-48097419D01*
X46766124Y-48097419D02*
X46670886Y-48049800D01*
X46670886Y-48049800D02*
X46623267Y-48002180D01*
%TO.C,Q3*%
X79388857Y-33978838D02*
X79341238Y-34074076D01*
X79341238Y-34074076D02*
X79246000Y-34169314D01*
X79246000Y-34169314D02*
X79103142Y-34312171D01*
X79103142Y-34312171D02*
X79055523Y-34407409D01*
X79055523Y-34407409D02*
X79055523Y-34502647D01*
X79293619Y-34455028D02*
X79246000Y-34550266D01*
X79246000Y-34550266D02*
X79150761Y-34645504D01*
X79150761Y-34645504D02*
X78960285Y-34693123D01*
X78960285Y-34693123D02*
X78626952Y-34693123D01*
X78626952Y-34693123D02*
X78436476Y-34645504D01*
X78436476Y-34645504D02*
X78341238Y-34550266D01*
X78341238Y-34550266D02*
X78293619Y-34455028D01*
X78293619Y-34455028D02*
X78293619Y-34264552D01*
X78293619Y-34264552D02*
X78341238Y-34169314D01*
X78341238Y-34169314D02*
X78436476Y-34074076D01*
X78436476Y-34074076D02*
X78626952Y-34026457D01*
X78626952Y-34026457D02*
X78960285Y-34026457D01*
X78960285Y-34026457D02*
X79150761Y-34074076D01*
X79150761Y-34074076D02*
X79246000Y-34169314D01*
X79246000Y-34169314D02*
X79293619Y-34264552D01*
X79293619Y-34264552D02*
X79293619Y-34455028D01*
X78293619Y-33693123D02*
X78293619Y-33074076D01*
X78293619Y-33074076D02*
X78674571Y-33407409D01*
X78674571Y-33407409D02*
X78674571Y-33264552D01*
X78674571Y-33264552D02*
X78722190Y-33169314D01*
X78722190Y-33169314D02*
X78769809Y-33121695D01*
X78769809Y-33121695D02*
X78865047Y-33074076D01*
X78865047Y-33074076D02*
X79103142Y-33074076D01*
X79103142Y-33074076D02*
X79198380Y-33121695D01*
X79198380Y-33121695D02*
X79246000Y-33169314D01*
X79246000Y-33169314D02*
X79293619Y-33264552D01*
X79293619Y-33264552D02*
X79293619Y-33550266D01*
X79293619Y-33550266D02*
X79246000Y-33645504D01*
X79246000Y-33645504D02*
X79198380Y-33693123D01*
%TO.C,R6*%
X46340733Y-54193419D02*
X46007400Y-53717228D01*
X45769305Y-54193419D02*
X45769305Y-53193419D01*
X45769305Y-53193419D02*
X46150257Y-53193419D01*
X46150257Y-53193419D02*
X46245495Y-53241038D01*
X46245495Y-53241038D02*
X46293114Y-53288657D01*
X46293114Y-53288657D02*
X46340733Y-53383895D01*
X46340733Y-53383895D02*
X46340733Y-53526752D01*
X46340733Y-53526752D02*
X46293114Y-53621990D01*
X46293114Y-53621990D02*
X46245495Y-53669609D01*
X46245495Y-53669609D02*
X46150257Y-53717228D01*
X46150257Y-53717228D02*
X45769305Y-53717228D01*
X47197876Y-53193419D02*
X47007400Y-53193419D01*
X47007400Y-53193419D02*
X46912162Y-53241038D01*
X46912162Y-53241038D02*
X46864543Y-53288657D01*
X46864543Y-53288657D02*
X46769305Y-53431514D01*
X46769305Y-53431514D02*
X46721686Y-53621990D01*
X46721686Y-53621990D02*
X46721686Y-54002942D01*
X46721686Y-54002942D02*
X46769305Y-54098180D01*
X46769305Y-54098180D02*
X46816924Y-54145800D01*
X46816924Y-54145800D02*
X46912162Y-54193419D01*
X46912162Y-54193419D02*
X47102638Y-54193419D01*
X47102638Y-54193419D02*
X47197876Y-54145800D01*
X47197876Y-54145800D02*
X47245495Y-54098180D01*
X47245495Y-54098180D02*
X47293114Y-54002942D01*
X47293114Y-54002942D02*
X47293114Y-53764847D01*
X47293114Y-53764847D02*
X47245495Y-53669609D01*
X47245495Y-53669609D02*
X47197876Y-53621990D01*
X47197876Y-53621990D02*
X47102638Y-53574371D01*
X47102638Y-53574371D02*
X46912162Y-53574371D01*
X46912162Y-53574371D02*
X46816924Y-53621990D01*
X46816924Y-53621990D02*
X46769305Y-53669609D01*
X46769305Y-53669609D02*
X46721686Y-53764847D01*
%TO.C,R4*%
X36464219Y-45581866D02*
X35988028Y-45915199D01*
X36464219Y-46153294D02*
X35464219Y-46153294D01*
X35464219Y-46153294D02*
X35464219Y-45772342D01*
X35464219Y-45772342D02*
X35511838Y-45677104D01*
X35511838Y-45677104D02*
X35559457Y-45629485D01*
X35559457Y-45629485D02*
X35654695Y-45581866D01*
X35654695Y-45581866D02*
X35797552Y-45581866D01*
X35797552Y-45581866D02*
X35892790Y-45629485D01*
X35892790Y-45629485D02*
X35940409Y-45677104D01*
X35940409Y-45677104D02*
X35988028Y-45772342D01*
X35988028Y-45772342D02*
X35988028Y-46153294D01*
X35797552Y-44724723D02*
X36464219Y-44724723D01*
X35416600Y-44962818D02*
X36130885Y-45200913D01*
X36130885Y-45200913D02*
X36130885Y-44581866D01*
%TO.C,K2*%
X78221919Y-43582194D02*
X77221919Y-43582194D01*
X78221919Y-43010766D02*
X77650490Y-43439337D01*
X77221919Y-43010766D02*
X77793347Y-43582194D01*
X77317157Y-42629813D02*
X77269538Y-42582194D01*
X77269538Y-42582194D02*
X77221919Y-42486956D01*
X77221919Y-42486956D02*
X77221919Y-42248861D01*
X77221919Y-42248861D02*
X77269538Y-42153623D01*
X77269538Y-42153623D02*
X77317157Y-42106004D01*
X77317157Y-42106004D02*
X77412395Y-42058385D01*
X77412395Y-42058385D02*
X77507633Y-42058385D01*
X77507633Y-42058385D02*
X77650490Y-42106004D01*
X77650490Y-42106004D02*
X78221919Y-42677432D01*
X78221919Y-42677432D02*
X78221919Y-42058385D01*
%TO.C,K5*%
X116007819Y-29879994D02*
X115007819Y-29879994D01*
X116007819Y-29308566D02*
X115436390Y-29737137D01*
X115007819Y-29308566D02*
X115579247Y-29879994D01*
X115007819Y-28403804D02*
X115007819Y-28879994D01*
X115007819Y-28879994D02*
X115484009Y-28927613D01*
X115484009Y-28927613D02*
X115436390Y-28879994D01*
X115436390Y-28879994D02*
X115388771Y-28784756D01*
X115388771Y-28784756D02*
X115388771Y-28546661D01*
X115388771Y-28546661D02*
X115436390Y-28451423D01*
X115436390Y-28451423D02*
X115484009Y-28403804D01*
X115484009Y-28403804D02*
X115579247Y-28356185D01*
X115579247Y-28356185D02*
X115817342Y-28356185D01*
X115817342Y-28356185D02*
X115912580Y-28403804D01*
X115912580Y-28403804D02*
X115960200Y-28451423D01*
X115960200Y-28451423D02*
X116007819Y-28546661D01*
X116007819Y-28546661D02*
X116007819Y-28784756D01*
X116007819Y-28784756D02*
X115960200Y-28879994D01*
X115960200Y-28879994D02*
X115912580Y-28927613D01*
%TO.C,J10*%
X55553076Y-62460819D02*
X55553076Y-63175104D01*
X55553076Y-63175104D02*
X55505457Y-63317961D01*
X55505457Y-63317961D02*
X55410219Y-63413200D01*
X55410219Y-63413200D02*
X55267362Y-63460819D01*
X55267362Y-63460819D02*
X55172124Y-63460819D01*
X56553076Y-63460819D02*
X55981648Y-63460819D01*
X56267362Y-63460819D02*
X56267362Y-62460819D01*
X56267362Y-62460819D02*
X56172124Y-62603676D01*
X56172124Y-62603676D02*
X56076886Y-62698914D01*
X56076886Y-62698914D02*
X55981648Y-62746533D01*
X57172124Y-62460819D02*
X57267362Y-62460819D01*
X57267362Y-62460819D02*
X57362600Y-62508438D01*
X57362600Y-62508438D02*
X57410219Y-62556057D01*
X57410219Y-62556057D02*
X57457838Y-62651295D01*
X57457838Y-62651295D02*
X57505457Y-62841771D01*
X57505457Y-62841771D02*
X57505457Y-63079866D01*
X57505457Y-63079866D02*
X57457838Y-63270342D01*
X57457838Y-63270342D02*
X57410219Y-63365580D01*
X57410219Y-63365580D02*
X57362600Y-63413200D01*
X57362600Y-63413200D02*
X57267362Y-63460819D01*
X57267362Y-63460819D02*
X57172124Y-63460819D01*
X57172124Y-63460819D02*
X57076886Y-63413200D01*
X57076886Y-63413200D02*
X57029267Y-63365580D01*
X57029267Y-63365580D02*
X56981648Y-63270342D01*
X56981648Y-63270342D02*
X56934029Y-63079866D01*
X56934029Y-63079866D02*
X56934029Y-62841771D01*
X56934029Y-62841771D02*
X56981648Y-62651295D01*
X56981648Y-62651295D02*
X57029267Y-62556057D01*
X57029267Y-62556057D02*
X57076886Y-62508438D01*
X57076886Y-62508438D02*
X57172124Y-62460819D01*
%TO.C,K1*%
X61905819Y-30260994D02*
X60905819Y-30260994D01*
X61905819Y-29689566D02*
X61334390Y-30118137D01*
X60905819Y-29689566D02*
X61477247Y-30260994D01*
X61905819Y-28737185D02*
X61905819Y-29308613D01*
X61905819Y-29022899D02*
X60905819Y-29022899D01*
X60905819Y-29022899D02*
X61048676Y-29118137D01*
X61048676Y-29118137D02*
X61143914Y-29213375D01*
X61143914Y-29213375D02*
X61191533Y-29308613D01*
%TO.C,J7*%
X37842866Y-58371419D02*
X37842866Y-59085704D01*
X37842866Y-59085704D02*
X37795247Y-59228561D01*
X37795247Y-59228561D02*
X37700009Y-59323800D01*
X37700009Y-59323800D02*
X37557152Y-59371419D01*
X37557152Y-59371419D02*
X37461914Y-59371419D01*
X38223819Y-58371419D02*
X38890485Y-58371419D01*
X38890485Y-58371419D02*
X38461914Y-59371419D01*
%TO.C,Q4*%
X35363161Y-59101057D02*
X35267923Y-59053438D01*
X35267923Y-59053438D02*
X35172685Y-58958200D01*
X35172685Y-58958200D02*
X35029828Y-58815342D01*
X35029828Y-58815342D02*
X34934590Y-58767723D01*
X34934590Y-58767723D02*
X34839352Y-58767723D01*
X34886971Y-59005819D02*
X34791733Y-58958200D01*
X34791733Y-58958200D02*
X34696495Y-58862961D01*
X34696495Y-58862961D02*
X34648876Y-58672485D01*
X34648876Y-58672485D02*
X34648876Y-58339152D01*
X34648876Y-58339152D02*
X34696495Y-58148676D01*
X34696495Y-58148676D02*
X34791733Y-58053438D01*
X34791733Y-58053438D02*
X34886971Y-58005819D01*
X34886971Y-58005819D02*
X35077447Y-58005819D01*
X35077447Y-58005819D02*
X35172685Y-58053438D01*
X35172685Y-58053438D02*
X35267923Y-58148676D01*
X35267923Y-58148676D02*
X35315542Y-58339152D01*
X35315542Y-58339152D02*
X35315542Y-58672485D01*
X35315542Y-58672485D02*
X35267923Y-58862961D01*
X35267923Y-58862961D02*
X35172685Y-58958200D01*
X35172685Y-58958200D02*
X35077447Y-59005819D01*
X35077447Y-59005819D02*
X34886971Y-59005819D01*
X36172685Y-58339152D02*
X36172685Y-59005819D01*
X35934590Y-57958200D02*
X35696495Y-58672485D01*
X35696495Y-58672485D02*
X36315542Y-58672485D01*
%TO.C,Q1*%
X28868257Y-40811438D02*
X28820638Y-40906676D01*
X28820638Y-40906676D02*
X28725400Y-41001914D01*
X28725400Y-41001914D02*
X28582542Y-41144771D01*
X28582542Y-41144771D02*
X28534923Y-41240009D01*
X28534923Y-41240009D02*
X28534923Y-41335247D01*
X28773019Y-41287628D02*
X28725400Y-41382866D01*
X28725400Y-41382866D02*
X28630161Y-41478104D01*
X28630161Y-41478104D02*
X28439685Y-41525723D01*
X28439685Y-41525723D02*
X28106352Y-41525723D01*
X28106352Y-41525723D02*
X27915876Y-41478104D01*
X27915876Y-41478104D02*
X27820638Y-41382866D01*
X27820638Y-41382866D02*
X27773019Y-41287628D01*
X27773019Y-41287628D02*
X27773019Y-41097152D01*
X27773019Y-41097152D02*
X27820638Y-41001914D01*
X27820638Y-41001914D02*
X27915876Y-40906676D01*
X27915876Y-40906676D02*
X28106352Y-40859057D01*
X28106352Y-40859057D02*
X28439685Y-40859057D01*
X28439685Y-40859057D02*
X28630161Y-40906676D01*
X28630161Y-40906676D02*
X28725400Y-41001914D01*
X28725400Y-41001914D02*
X28773019Y-41097152D01*
X28773019Y-41097152D02*
X28773019Y-41287628D01*
X28773019Y-39906676D02*
X28773019Y-40478104D01*
X28773019Y-40192390D02*
X27773019Y-40192390D01*
X27773019Y-40192390D02*
X27915876Y-40287628D01*
X27915876Y-40287628D02*
X28011114Y-40382866D01*
X28011114Y-40382866D02*
X28058733Y-40478104D01*
%TO.C,R1*%
X88915219Y-45632666D02*
X88439028Y-45965999D01*
X88915219Y-46204094D02*
X87915219Y-46204094D01*
X87915219Y-46204094D02*
X87915219Y-45823142D01*
X87915219Y-45823142D02*
X87962838Y-45727904D01*
X87962838Y-45727904D02*
X88010457Y-45680285D01*
X88010457Y-45680285D02*
X88105695Y-45632666D01*
X88105695Y-45632666D02*
X88248552Y-45632666D01*
X88248552Y-45632666D02*
X88343790Y-45680285D01*
X88343790Y-45680285D02*
X88391409Y-45727904D01*
X88391409Y-45727904D02*
X88439028Y-45823142D01*
X88439028Y-45823142D02*
X88439028Y-46204094D01*
X88915219Y-44680285D02*
X88915219Y-45251713D01*
X88915219Y-44965999D02*
X87915219Y-44965999D01*
X87915219Y-44965999D02*
X88058076Y-45061237D01*
X88058076Y-45061237D02*
X88153314Y-45156475D01*
X88153314Y-45156475D02*
X88200933Y-45251713D01*
%TO.C,J1*%
X122551866Y-57914219D02*
X122551866Y-58628504D01*
X122551866Y-58628504D02*
X122504247Y-58771361D01*
X122504247Y-58771361D02*
X122409009Y-58866600D01*
X122409009Y-58866600D02*
X122266152Y-58914219D01*
X122266152Y-58914219D02*
X122170914Y-58914219D01*
X123551866Y-58914219D02*
X122980438Y-58914219D01*
X123266152Y-58914219D02*
X123266152Y-57914219D01*
X123266152Y-57914219D02*
X123170914Y-58057076D01*
X123170914Y-58057076D02*
X123075676Y-58152314D01*
X123075676Y-58152314D02*
X122980438Y-58199933D01*
%TO.C,J4*%
X81004466Y-63461019D02*
X81004466Y-64175304D01*
X81004466Y-64175304D02*
X80956847Y-64318161D01*
X80956847Y-64318161D02*
X80861609Y-64413400D01*
X80861609Y-64413400D02*
X80718752Y-64461019D01*
X80718752Y-64461019D02*
X80623514Y-64461019D01*
X81909228Y-63794352D02*
X81909228Y-64461019D01*
X81671133Y-63413400D02*
X81433038Y-64127685D01*
X81433038Y-64127685D02*
X82052085Y-64127685D01*
%TO.C,D2*%
X104646505Y-21276619D02*
X104646505Y-20276619D01*
X104646505Y-20276619D02*
X104884600Y-20276619D01*
X104884600Y-20276619D02*
X105027457Y-20324238D01*
X105027457Y-20324238D02*
X105122695Y-20419476D01*
X105122695Y-20419476D02*
X105170314Y-20514714D01*
X105170314Y-20514714D02*
X105217933Y-20705190D01*
X105217933Y-20705190D02*
X105217933Y-20848047D01*
X105217933Y-20848047D02*
X105170314Y-21038523D01*
X105170314Y-21038523D02*
X105122695Y-21133761D01*
X105122695Y-21133761D02*
X105027457Y-21229000D01*
X105027457Y-21229000D02*
X104884600Y-21276619D01*
X104884600Y-21276619D02*
X104646505Y-21276619D01*
X105598886Y-20371857D02*
X105646505Y-20324238D01*
X105646505Y-20324238D02*
X105741743Y-20276619D01*
X105741743Y-20276619D02*
X105979838Y-20276619D01*
X105979838Y-20276619D02*
X106075076Y-20324238D01*
X106075076Y-20324238D02*
X106122695Y-20371857D01*
X106122695Y-20371857D02*
X106170314Y-20467095D01*
X106170314Y-20467095D02*
X106170314Y-20562333D01*
X106170314Y-20562333D02*
X106122695Y-20705190D01*
X106122695Y-20705190D02*
X105551267Y-21276619D01*
X105551267Y-21276619D02*
X106170314Y-21276619D01*
X100042695Y-21646619D02*
X100042695Y-20646619D01*
X100614123Y-21646619D02*
X100185552Y-21075190D01*
X100614123Y-20646619D02*
X100042695Y-21218047D01*
%TO.C,J6*%
X106996266Y-62714619D02*
X106996266Y-63428904D01*
X106996266Y-63428904D02*
X106948647Y-63571761D01*
X106948647Y-63571761D02*
X106853409Y-63667000D01*
X106853409Y-63667000D02*
X106710552Y-63714619D01*
X106710552Y-63714619D02*
X106615314Y-63714619D01*
X107901028Y-62714619D02*
X107710552Y-62714619D01*
X107710552Y-62714619D02*
X107615314Y-62762238D01*
X107615314Y-62762238D02*
X107567695Y-62809857D01*
X107567695Y-62809857D02*
X107472457Y-62952714D01*
X107472457Y-62952714D02*
X107424838Y-63143190D01*
X107424838Y-63143190D02*
X107424838Y-63524142D01*
X107424838Y-63524142D02*
X107472457Y-63619380D01*
X107472457Y-63619380D02*
X107520076Y-63667000D01*
X107520076Y-63667000D02*
X107615314Y-63714619D01*
X107615314Y-63714619D02*
X107805790Y-63714619D01*
X107805790Y-63714619D02*
X107901028Y-63667000D01*
X107901028Y-63667000D02*
X107948647Y-63619380D01*
X107948647Y-63619380D02*
X107996266Y-63524142D01*
X107996266Y-63524142D02*
X107996266Y-63286047D01*
X107996266Y-63286047D02*
X107948647Y-63190809D01*
X107948647Y-63190809D02*
X107901028Y-63143190D01*
X107901028Y-63143190D02*
X107805790Y-63095571D01*
X107805790Y-63095571D02*
X107615314Y-63095571D01*
X107615314Y-63095571D02*
X107520076Y-63143190D01*
X107520076Y-63143190D02*
X107472457Y-63190809D01*
X107472457Y-63190809D02*
X107424838Y-63286047D01*
%TO.C,K3*%
X131053919Y-41804194D02*
X130053919Y-41804194D01*
X131053919Y-41232766D02*
X130482490Y-41661337D01*
X130053919Y-41232766D02*
X130625347Y-41804194D01*
X130053919Y-40899432D02*
X130053919Y-40280385D01*
X130053919Y-40280385D02*
X130434871Y-40613718D01*
X130434871Y-40613718D02*
X130434871Y-40470861D01*
X130434871Y-40470861D02*
X130482490Y-40375623D01*
X130482490Y-40375623D02*
X130530109Y-40328004D01*
X130530109Y-40328004D02*
X130625347Y-40280385D01*
X130625347Y-40280385D02*
X130863442Y-40280385D01*
X130863442Y-40280385D02*
X130958680Y-40328004D01*
X130958680Y-40328004D02*
X131006300Y-40375623D01*
X131006300Y-40375623D02*
X131053919Y-40470861D01*
X131053919Y-40470861D02*
X131053919Y-40756575D01*
X131053919Y-40756575D02*
X131006300Y-40851813D01*
X131006300Y-40851813D02*
X130958680Y-40899432D01*
%TO.C,J2*%
X93951466Y-62613219D02*
X93951466Y-63327504D01*
X93951466Y-63327504D02*
X93903847Y-63470361D01*
X93903847Y-63470361D02*
X93808609Y-63565600D01*
X93808609Y-63565600D02*
X93665752Y-63613219D01*
X93665752Y-63613219D02*
X93570514Y-63613219D01*
X94380038Y-62708457D02*
X94427657Y-62660838D01*
X94427657Y-62660838D02*
X94522895Y-62613219D01*
X94522895Y-62613219D02*
X94760990Y-62613219D01*
X94760990Y-62613219D02*
X94856228Y-62660838D01*
X94856228Y-62660838D02*
X94903847Y-62708457D01*
X94903847Y-62708457D02*
X94951466Y-62803695D01*
X94951466Y-62803695D02*
X94951466Y-62898933D01*
X94951466Y-62898933D02*
X94903847Y-63041790D01*
X94903847Y-63041790D02*
X94332419Y-63613219D01*
X94332419Y-63613219D02*
X94951466Y-63613219D01*
D12*
%TO.C,U1*%
X79486800Y-60569400D02*
X79486800Y-53969400D01*
X80806800Y-60569400D02*
X79486800Y-60569400D01*
X99176800Y-60569400D02*
X97856800Y-60569400D01*
X79486800Y-53969400D02*
X80806800Y-53969400D01*
X97856800Y-53969400D02*
X99176800Y-53969400D01*
X99176800Y-53969400D02*
X99176800Y-60569400D01*
D13*
X81811800Y-62324400D02*
G75*
G03*
X81811800Y-62324400I-100000J0D01*
G01*
D14*
%TO.C,U2*%
X79864200Y-50433600D02*
X84505200Y-50433600D01*
X79864200Y-50433600D02*
X79864200Y-40193600D01*
X81374200Y-50433600D02*
X81374200Y-40193600D01*
X84505200Y-50433600D02*
X84505200Y-40193600D01*
X79864200Y-47163600D02*
X81374200Y-47163600D01*
X79864200Y-43462600D02*
X81374200Y-43462600D01*
X79864200Y-40193600D02*
X84505200Y-40193600D01*
%TO.C,Q2*%
X48713800Y-61569400D02*
X45113800Y-61569400D01*
X46913800Y-66019400D02*
G75*
G03*
X48752278Y-61580922I0J2600000D01*
G01*
X45075322Y-61580922D02*
G75*
G03*
X46913800Y-66019400I1838478J-1838478D01*
G01*
%TO.C,D1*%
X48634800Y-23799800D02*
X49654800Y-23799800D01*
X49654800Y-22329800D02*
X49654800Y-25269800D01*
X49654800Y-25269800D02*
X55094800Y-25269800D01*
X50434800Y-22329800D02*
X50434800Y-25269800D01*
X50554800Y-22329800D02*
X50554800Y-25269800D01*
X50674800Y-22329800D02*
X50674800Y-25269800D01*
X55094800Y-22329800D02*
X49654800Y-22329800D01*
X55094800Y-25269800D02*
X55094800Y-22329800D01*
X56114800Y-23799800D02*
X55094800Y-23799800D01*
%TO.C,R7*%
X55600600Y-49122200D02*
X55600600Y-49892200D01*
X56970600Y-49892200D02*
X54230600Y-49892200D01*
X54230600Y-49892200D02*
X54230600Y-56432200D01*
X56970600Y-56432200D02*
X56970600Y-49892200D01*
X54230600Y-56432200D02*
X56970600Y-56432200D01*
X55600600Y-57202200D02*
X55600600Y-56432200D01*
D12*
%TO.C,J3*%
X114159200Y-58264000D02*
X101759200Y-58264000D01*
X114159200Y-52514000D02*
X114159200Y-58264000D01*
X101759200Y-58264000D02*
X101759200Y-52514000D01*
X101759200Y-52514000D02*
X114159200Y-52514000D01*
D13*
X101059200Y-54864000D02*
G75*
G03*
X101059200Y-54864000I-100000J0D01*
G01*
D14*
%TO.C,R8*%
X60325000Y-51560600D02*
X60325000Y-52330600D01*
X61695000Y-52330600D02*
X58955000Y-52330600D01*
X58955000Y-52330600D02*
X58955000Y-58870600D01*
X61695000Y-58870600D02*
X61695000Y-52330600D01*
X58955000Y-58870600D02*
X61695000Y-58870600D01*
X60325000Y-59640600D02*
X60325000Y-58870600D01*
%TO.C,R2*%
X90881200Y-36780600D02*
X90881200Y-36010600D01*
X89511200Y-36010600D02*
X92251200Y-36010600D01*
X92251200Y-36010600D02*
X92251200Y-29470600D01*
X89511200Y-29470600D02*
X89511200Y-36010600D01*
X92251200Y-29470600D02*
X89511200Y-29470600D01*
X90881200Y-28700600D02*
X90881200Y-29470600D01*
%TO.C,R5*%
X38303200Y-36704400D02*
X38303200Y-35934400D01*
X36933200Y-35934400D02*
X39673200Y-35934400D01*
X39673200Y-35934400D02*
X39673200Y-29394400D01*
X36933200Y-29394400D02*
X36933200Y-35934400D01*
X39673200Y-29394400D02*
X36933200Y-29394400D01*
X38303200Y-28624400D02*
X38303200Y-29394400D01*
%TO.C,J11*%
X63193000Y-73552800D02*
X63193000Y-74292800D01*
X63193000Y-74292800D02*
X63693000Y-74292800D01*
X63433000Y-64131800D02*
X63433000Y-74052800D01*
X63433000Y-64131800D02*
X73553000Y-64131800D01*
X63433000Y-67091800D02*
X73553000Y-67091800D01*
X63433000Y-71992800D02*
X73553000Y-71992800D01*
X63433000Y-73492800D02*
X73553000Y-73492800D01*
X63433000Y-74052800D02*
X73553000Y-74052800D01*
X69766000Y-70415800D02*
X69719000Y-70461800D01*
X69959000Y-70631800D02*
X69924000Y-70666800D01*
X72063000Y-68117800D02*
X72028000Y-68153800D01*
X72268000Y-68323800D02*
X72221000Y-68369800D01*
X73553000Y-64131800D02*
X73553000Y-74052800D01*
X64458001Y-68708801D02*
G75*
G03*
X64457574Y-70075842I1534992J-684000D01*
G01*
X66676999Y-67857801D02*
G75*
G03*
X65309958Y-67857374I-684000J-1534992D01*
G01*
X65309000Y-70927799D02*
G75*
G03*
X66021805Y-71073052I683999J1535000D01*
G01*
X65993000Y-71072799D02*
G75*
G03*
X66676318Y-70927555I0J1679999D01*
G01*
X67528000Y-70076800D02*
G75*
G03*
X67528426Y-68709758I-1535000J684000D01*
G01*
X72673000Y-69392800D02*
G75*
G03*
X72673000Y-69392800I-1680000J0D01*
G01*
%TO.C,R3*%
X42416600Y-50012600D02*
X43186600Y-50012600D01*
X43186600Y-48642600D02*
X43186600Y-51382600D01*
X43186600Y-51382600D02*
X49726600Y-51382600D01*
X49726600Y-48642600D02*
X43186600Y-48642600D01*
X49726600Y-51382600D02*
X49726600Y-48642600D01*
X50496600Y-50012600D02*
X49726600Y-50012600D01*
%TO.C,Q3*%
X79838800Y-39003600D02*
X84479800Y-39003600D01*
X79838800Y-39003600D02*
X79838800Y-28763600D01*
X81348800Y-39003600D02*
X81348800Y-28763600D01*
X84479800Y-39003600D02*
X84479800Y-28763600D01*
X79838800Y-35733600D02*
X81348800Y-35733600D01*
X79838800Y-32032600D02*
X81348800Y-32032600D01*
X79838800Y-28763600D02*
X84479800Y-28763600D01*
%TO.C,R6*%
X42467400Y-56108600D02*
X43237400Y-56108600D01*
X43237400Y-54738600D02*
X43237400Y-57478600D01*
X43237400Y-57478600D02*
X49777400Y-57478600D01*
X49777400Y-54738600D02*
X43237400Y-54738600D01*
X49777400Y-57478600D02*
X49777400Y-54738600D01*
X50547400Y-56108600D02*
X49777400Y-56108600D01*
%TO.C,R4*%
X38379400Y-49455200D02*
X38379400Y-48685200D01*
X37009400Y-48685200D02*
X39749400Y-48685200D01*
X39749400Y-48685200D02*
X39749400Y-42145200D01*
X37009400Y-42145200D02*
X37009400Y-48685200D01*
X39749400Y-42145200D02*
X37009400Y-42145200D01*
X38379400Y-41375200D02*
X38379400Y-42145200D01*
%TO.C,K2*%
X74567100Y-29544100D02*
X76967100Y-29544100D01*
X76767100Y-29744100D02*
X76767100Y-58944100D01*
X64067100Y-29744100D02*
X76767100Y-29744100D01*
X76967100Y-31944100D02*
X76967100Y-29544100D01*
X74167100Y-35384100D02*
X74167100Y-36654100D01*
X72897100Y-35384100D02*
X72897100Y-36654100D01*
X71627100Y-35384100D02*
X70357100Y-37924100D01*
X67817100Y-35384100D02*
X72897100Y-35384100D01*
X74167100Y-36654100D02*
X72897100Y-36654100D01*
X72897100Y-36654100D02*
X72897100Y-37924100D01*
X67817100Y-36654100D02*
X66547100Y-36654100D01*
X66547100Y-36654100D02*
X66547100Y-35384100D01*
X72897100Y-37924100D02*
X67817100Y-37924100D01*
X67817100Y-37924100D02*
X67817100Y-35384100D01*
X76767100Y-58944100D02*
X75567100Y-58944100D01*
X72767100Y-58944100D02*
X68067100Y-58944100D01*
X65267100Y-58944100D02*
X64067100Y-58944100D01*
X64067100Y-58944100D02*
X64067100Y-29744100D01*
D12*
%TO.C,K5*%
X113718000Y-26016900D02*
X98118000Y-26016900D01*
X98118000Y-26016900D02*
X98118000Y-45216900D01*
X113718000Y-45216900D02*
X113718000Y-26016900D01*
X98118000Y-45216900D02*
X113718000Y-45216900D01*
D13*
X112018000Y-25116900D02*
G75*
G03*
X112018000Y-25116900I-100000J0D01*
G01*
D14*
%TO.C,J10*%
X51062600Y-73426000D02*
X51062600Y-74166000D01*
X51062600Y-74166000D02*
X51562600Y-74166000D01*
X51302600Y-64005000D02*
X51302600Y-73926000D01*
X51302600Y-64005000D02*
X61422600Y-64005000D01*
X51302600Y-66965000D02*
X61422600Y-66965000D01*
X51302600Y-71866000D02*
X61422600Y-71866000D01*
X51302600Y-73366000D02*
X61422600Y-73366000D01*
X51302600Y-73926000D02*
X61422600Y-73926000D01*
X57635600Y-70289000D02*
X57588600Y-70335000D01*
X57828600Y-70505000D02*
X57793600Y-70540000D01*
X59932600Y-67991000D02*
X59897600Y-68027000D01*
X60137600Y-68197000D02*
X60090600Y-68243000D01*
X61422600Y-64005000D02*
X61422600Y-73926000D01*
X52327601Y-68582001D02*
G75*
G03*
X52327174Y-69949042I1534992J-684000D01*
G01*
X54546599Y-67731001D02*
G75*
G03*
X53179558Y-67730574I-684000J-1534992D01*
G01*
X53178600Y-70800999D02*
G75*
G03*
X53891405Y-70946252I683999J1535000D01*
G01*
X53862600Y-70945999D02*
G75*
G03*
X54545918Y-70800755I0J1679999D01*
G01*
X55397600Y-69950000D02*
G75*
G03*
X55398026Y-68582958I-1535000J684000D01*
G01*
X60542600Y-69266000D02*
G75*
G03*
X60542600Y-69266000I-1680000J0D01*
G01*
D12*
%TO.C,K1*%
X59616000Y-26397900D02*
X44016000Y-26397900D01*
X44016000Y-26397900D02*
X44016000Y-45597900D01*
X59616000Y-45597900D02*
X59616000Y-26397900D01*
X44016000Y-45597900D02*
X59616000Y-45597900D01*
D13*
X57916000Y-25497900D02*
G75*
G03*
X57916000Y-25497900I-100000J0D01*
G01*
D14*
%TO.C,J7*%
X32876200Y-69336600D02*
X32876200Y-70076600D01*
X32876200Y-70076600D02*
X33376200Y-70076600D01*
X33116200Y-59915600D02*
X33116200Y-69836600D01*
X33116200Y-59915600D02*
X43236200Y-59915600D01*
X33116200Y-62875600D02*
X43236200Y-62875600D01*
X33116200Y-67776600D02*
X43236200Y-67776600D01*
X33116200Y-69276600D02*
X43236200Y-69276600D01*
X33116200Y-69836600D02*
X43236200Y-69836600D01*
X39449200Y-66199600D02*
X39402200Y-66245600D01*
X39642200Y-66415600D02*
X39607200Y-66450600D01*
X41746200Y-63901600D02*
X41711200Y-63937600D01*
X41951200Y-64107600D02*
X41904200Y-64153600D01*
X43236200Y-59915600D02*
X43236200Y-69836600D01*
X34141201Y-64492601D02*
G75*
G03*
X34140774Y-65859642I1534992J-684000D01*
G01*
X36360199Y-63641601D02*
G75*
G03*
X34993158Y-63641174I-684000J-1534992D01*
G01*
X34992200Y-66711599D02*
G75*
G03*
X35705005Y-66856852I683999J1535000D01*
G01*
X35676200Y-66856599D02*
G75*
G03*
X36359518Y-66711355I0J1679999D01*
G01*
X37211200Y-65860600D02*
G75*
G03*
X37211626Y-64493558I-1535000J684000D01*
G01*
X42356200Y-65176600D02*
G75*
G03*
X42356200Y-65176600I-1680000J0D01*
G01*
%TO.C,Q4*%
X37258400Y-53141000D02*
X33658400Y-53141000D01*
X35458400Y-57591000D02*
G75*
G03*
X37296878Y-53152522I0J2600000D01*
G01*
X33619922Y-53152522D02*
G75*
G03*
X35458400Y-57591000I1838478J-1838478D01*
G01*
%TO.C,Q1*%
X29318200Y-45836200D02*
X33959200Y-45836200D01*
X29318200Y-45836200D02*
X29318200Y-35596200D01*
X30828200Y-45836200D02*
X30828200Y-35596200D01*
X33959200Y-45836200D02*
X33959200Y-35596200D01*
X29318200Y-42566200D02*
X30828200Y-42566200D01*
X29318200Y-38865200D02*
X30828200Y-38865200D01*
X29318200Y-35596200D02*
X33959200Y-35596200D01*
%TO.C,R1*%
X90830400Y-49506000D02*
X90830400Y-48736000D01*
X89460400Y-48736000D02*
X92200400Y-48736000D01*
X92200400Y-48736000D02*
X92200400Y-42196000D01*
X89460400Y-42196000D02*
X89460400Y-48736000D01*
X92200400Y-42196000D02*
X89460400Y-42196000D01*
X90830400Y-41426000D02*
X90830400Y-42196000D01*
%TO.C,J1*%
X117585200Y-68879400D02*
X117585200Y-69619400D01*
X117585200Y-69619400D02*
X118085200Y-69619400D01*
X117825200Y-59458400D02*
X117825200Y-69379400D01*
X117825200Y-59458400D02*
X127945200Y-59458400D01*
X117825200Y-62418400D02*
X127945200Y-62418400D01*
X117825200Y-67319400D02*
X127945200Y-67319400D01*
X117825200Y-68819400D02*
X127945200Y-68819400D01*
X117825200Y-69379400D02*
X127945200Y-69379400D01*
X124158200Y-65742400D02*
X124111200Y-65788400D01*
X124351200Y-65958400D02*
X124316200Y-65993400D01*
X126455200Y-63444400D02*
X126420200Y-63480400D01*
X126660200Y-63650400D02*
X126613200Y-63696400D01*
X127945200Y-59458400D02*
X127945200Y-69379400D01*
X118850201Y-64035401D02*
G75*
G03*
X118849774Y-65402442I1534992J-684000D01*
G01*
X121069199Y-63184401D02*
G75*
G03*
X119702158Y-63183974I-684000J-1534992D01*
G01*
X119701200Y-66254399D02*
G75*
G03*
X120414005Y-66399652I683999J1535000D01*
G01*
X120385200Y-66399399D02*
G75*
G03*
X121068518Y-66254155I0J1679999D01*
G01*
X121920200Y-65403400D02*
G75*
G03*
X121920626Y-64036358I-1535000J684000D01*
G01*
X127065200Y-64719400D02*
G75*
G03*
X127065200Y-64719400I-1680000J0D01*
G01*
D12*
%TO.C,J4*%
X78412800Y-65891200D02*
X85812800Y-65891200D01*
X78412800Y-71641200D02*
X78412800Y-65891200D01*
X85812800Y-65891200D02*
X85812800Y-71641200D01*
X85812800Y-71641200D02*
X78412800Y-71641200D01*
D13*
X86652800Y-69291200D02*
G75*
G03*
X86652800Y-69291200I-100000J0D01*
G01*
D14*
%TO.C,D2*%
X101644600Y-23291800D02*
X102664600Y-23291800D01*
X102664600Y-21821800D02*
X102664600Y-24761800D01*
X102664600Y-24761800D02*
X108104600Y-24761800D01*
X103444600Y-21821800D02*
X103444600Y-24761800D01*
X103564600Y-21821800D02*
X103564600Y-24761800D01*
X103684600Y-21821800D02*
X103684600Y-24761800D01*
X108104600Y-21821800D02*
X102664600Y-21821800D01*
X108104600Y-24761800D02*
X108104600Y-21821800D01*
X109124600Y-23291800D02*
X108104600Y-23291800D01*
%TO.C,J6*%
X102029600Y-73679800D02*
X102029600Y-74419800D01*
X102029600Y-74419800D02*
X102529600Y-74419800D01*
X102269600Y-64258800D02*
X102269600Y-74179800D01*
X102269600Y-64258800D02*
X112389600Y-64258800D01*
X102269600Y-67218800D02*
X112389600Y-67218800D01*
X102269600Y-72119800D02*
X112389600Y-72119800D01*
X102269600Y-73619800D02*
X112389600Y-73619800D01*
X102269600Y-74179800D02*
X112389600Y-74179800D01*
X108602600Y-70542800D02*
X108555600Y-70588800D01*
X108795600Y-70758800D02*
X108760600Y-70793800D01*
X110899600Y-68244800D02*
X110864600Y-68280800D01*
X111104600Y-68450800D02*
X111057600Y-68496800D01*
X112389600Y-64258800D02*
X112389600Y-74179800D01*
X103294601Y-68835801D02*
G75*
G03*
X103294174Y-70202842I1534992J-684000D01*
G01*
X105513599Y-67984801D02*
G75*
G03*
X104146558Y-67984374I-684000J-1534992D01*
G01*
X104145600Y-71054799D02*
G75*
G03*
X104858405Y-71200052I683999J1535000D01*
G01*
X104829600Y-71199799D02*
G75*
G03*
X105512918Y-71054555I0J1679999D01*
G01*
X106364600Y-70203800D02*
G75*
G03*
X106365026Y-68836758I-1535000J684000D01*
G01*
X111509600Y-69519800D02*
G75*
G03*
X111509600Y-69519800I-1680000J0D01*
G01*
%TO.C,K3*%
X127399100Y-27766100D02*
X129799100Y-27766100D01*
X129599100Y-27966100D02*
X129599100Y-57166100D01*
X116899100Y-27966100D02*
X129599100Y-27966100D01*
X129799100Y-30166100D02*
X129799100Y-27766100D01*
X126999100Y-33606100D02*
X126999100Y-34876100D01*
X125729100Y-33606100D02*
X125729100Y-34876100D01*
X124459100Y-33606100D02*
X123189100Y-36146100D01*
X120649100Y-33606100D02*
X125729100Y-33606100D01*
X126999100Y-34876100D02*
X125729100Y-34876100D01*
X125729100Y-34876100D02*
X125729100Y-36146100D01*
X120649100Y-34876100D02*
X119379100Y-34876100D01*
X119379100Y-34876100D02*
X119379100Y-33606100D01*
X125729100Y-36146100D02*
X120649100Y-36146100D01*
X120649100Y-36146100D02*
X120649100Y-33606100D01*
X129599100Y-57166100D02*
X128399100Y-57166100D01*
X125599100Y-57166100D02*
X120899100Y-57166100D01*
X118099100Y-57166100D02*
X116899100Y-57166100D01*
X116899100Y-57166100D02*
X116899100Y-27966100D01*
%TO.C,J2*%
X88984800Y-73578400D02*
X88984800Y-74318400D01*
X88984800Y-74318400D02*
X89484800Y-74318400D01*
X89224800Y-64157400D02*
X89224800Y-74078400D01*
X89224800Y-64157400D02*
X99344800Y-64157400D01*
X89224800Y-67117400D02*
X99344800Y-67117400D01*
X89224800Y-72018400D02*
X99344800Y-72018400D01*
X89224800Y-73518400D02*
X99344800Y-73518400D01*
X89224800Y-74078400D02*
X99344800Y-74078400D01*
X95557800Y-70441400D02*
X95510800Y-70487400D01*
X95750800Y-70657400D02*
X95715800Y-70692400D01*
X97854800Y-68143400D02*
X97819800Y-68179400D01*
X98059800Y-68349400D02*
X98012800Y-68395400D01*
X99344800Y-64157400D02*
X99344800Y-74078400D01*
X90249801Y-68734401D02*
G75*
G03*
X90249374Y-70101442I1534992J-684000D01*
G01*
X92468799Y-67883401D02*
G75*
G03*
X91101758Y-67882974I-684000J-1534992D01*
G01*
X91100800Y-70953399D02*
G75*
G03*
X91813605Y-71098652I683999J1535000D01*
G01*
X91784800Y-71098399D02*
G75*
G03*
X92468118Y-70953155I0J1679999D01*
G01*
X93319800Y-70102400D02*
G75*
G03*
X93320226Y-68735358I-1535000J684000D01*
G01*
X98464800Y-69418400D02*
G75*
G03*
X98464800Y-69418400I-1680000J0D01*
G01*
%TD*%
M02*
