M48
; DRILL file {KiCad 7.0.5} date Tue Dec 12 17:16:21 2023
; FORMAT={-:-/ absolute / inch / decimal}
; #@! TF.CreationDate,2023-12-12T17:16:21+05:30
; #@! TF.GenerationSoftware,Kicad,Pcbnew,7.0.5
; #@! TF.FileFunction,Plated,1,2,PTH
FMAT,2
INCH
; #@! TA.AperFunction,Plated,PTH,ViaDrill
T1C0.0118
; #@! TA.AperFunction,Plated,PTH,ComponentDrill
T2C0.0295
; #@! TA.AperFunction,Plated,PTH,ComponentDrill
T3C0.0303
; #@! TA.AperFunction,Plated,PTH,ComponentDrill
T4C0.0315
; #@! TA.AperFunction,Plated,PTH,ComponentDrill
T5C0.0394
; #@! TA.AperFunction,Plated,PTH,ComponentDrill
T6C0.0413
; #@! TA.AperFunction,Plated,PTH,ComponentDrill
T7C0.0433
; #@! TA.AperFunction,Plated,PTH,ComponentDrill
T8C0.0472
; #@! TA.AperFunction,Plated,PTH,ComponentDrill
T9C0.0512
; #@! TA.AperFunction,Plated,PTH,ComponentDrill
T10C0.0591
%
G90
G05
T1
X1.989Y-2.324
X1.99Y-2.371
X3.1666Y-2.2065
X3.954Y-2.389
X4.088Y-2.422
T2
X1.346Y-2.165
X1.396Y-2.165
X1.446Y-2.165
X1.797Y-2.4968
X1.847Y-2.4968
X1.897Y-2.4968
T3
X3.217Y-2.0984
X3.217Y-2.411
X3.317Y-2.0984
X3.317Y-2.411
X3.417Y-2.0984
X3.417Y-2.411
X3.517Y-2.0984
X3.517Y-2.411
X3.617Y-2.0984
X3.617Y-2.411
X3.717Y-2.0984
X3.717Y-2.411
X3.817Y-2.0984
X3.817Y-2.411
T4
X1.508Y-1.086
X1.508Y-1.486
X1.511Y-1.588
X1.511Y-1.988
X1.629Y-1.969
X1.631Y-2.209
X1.8038Y-1.181
X2.029Y-1.969
X2.031Y-2.209
X2.189Y-1.893
X2.189Y-2.293
X2.2762Y-1.181
X2.375Y-1.989
X2.375Y-2.389
X3.576Y-1.59
X3.576Y-1.99
X3.578Y-1.089
X3.578Y-1.489
X3.9338Y-1.166
X4.4062Y-1.166
T5
X4.1027Y-2.16
X4.2011Y-2.16
X4.2996Y-2.16
X4.398Y-2.16
T6
X3.1836Y-2.728
X3.282Y-2.728
T7
X1.283Y-1.503
X1.283Y-1.603
X1.283Y-1.703
X1.862Y-0.937
X2.262Y-0.937
X3.272Y-1.234
X3.272Y-1.334
X3.272Y-1.434
X3.273Y-1.684
X3.273Y-1.784
X3.273Y-1.884
X3.949Y-0.917
X4.349Y-0.917
T8
X1.8038Y-1.6613
X2.2762Y-1.6613
X3.9338Y-1.6463
X4.4062Y-1.6463
T9
X1.4046Y-2.566
X1.6014Y-2.566
X2.0353Y-1.1023
X2.1206Y-2.727
X2.3174Y-2.727
X2.5981Y-2.732
X2.795Y-2.732
X3.6136Y-2.733
X3.8104Y-2.733
X4.1271Y-2.737
X4.1653Y-1.0873
X4.324Y-2.737
X4.7396Y-2.548
X4.9364Y-2.548
T10
X2.6247Y-1.2931
X2.6247Y-1.8836
X2.6247Y-2.0805
X2.6247Y-2.2773
X2.92Y-1.2931
X2.92Y-1.8836
X2.92Y-2.0805
X2.92Y-2.2773
X4.7047Y-1.2231
X4.7047Y-1.8136
X4.7047Y-2.0105
X4.7047Y-2.2073
X5.0Y-1.2231
X5.0Y-1.8136
X5.0Y-2.0105
X5.0Y-2.2073
T0
M30
