%TF.GenerationSoftware,KiCad,Pcbnew,7.0.5*%
%TF.CreationDate,2023-12-12T17:16:22+05:30*%
%TF.ProjectId,charger ShutDown Circuit,63686172-6765-4722-9053-687574446f77,rev?*%
%TF.SameCoordinates,Original*%
%TF.FileFunction,Drillmap*%
%TF.FilePolarity,Positive*%
%FSLAX45Y45*%
G04 Gerber Fmt 4.5, Leading zero omitted, Abs format (unit mm)*
G04 Created by KiCad (PCBNEW 7.0.5) date 2023-12-12 17:16:22*
%MOMM*%
%LPD*%
G01*
G04 APERTURE LIST*
%ADD10C,0.050000*%
%ADD11C,0.200000*%
%ADD12C,0.350000*%
G04 APERTURE END LIST*
D10*
X2486660Y-1844040D02*
X13804900Y-1844040D01*
X13804900Y-7762240D01*
X2486660Y-7762240D01*
X2486660Y-1844040D01*
D11*
D12*
X2768860Y-7114800D02*
X3118860Y-7464800D01*
X3118860Y-7114800D02*
X2768860Y-7464800D01*
X2804420Y-2258320D02*
X3154420Y-2608320D01*
X3154420Y-2258320D02*
X2804420Y-2608320D01*
X13121900Y-7041140D02*
X13471900Y-7391140D01*
X13471900Y-7041140D02*
X13121900Y-7391140D01*
X13132060Y-2204980D02*
X13482060Y-2554980D01*
X13482060Y-2204980D02*
X13132060Y-2554980D01*
D11*
X2744937Y-8076224D02*
X2744937Y-7876224D01*
X2744937Y-7876224D02*
X2792556Y-7876224D01*
X2792556Y-7876224D02*
X2821127Y-7885748D01*
X2821127Y-7885748D02*
X2840175Y-7904795D01*
X2840175Y-7904795D02*
X2849699Y-7923843D01*
X2849699Y-7923843D02*
X2859222Y-7961938D01*
X2859222Y-7961938D02*
X2859222Y-7990509D01*
X2859222Y-7990509D02*
X2849699Y-8028605D01*
X2849699Y-8028605D02*
X2840175Y-8047652D01*
X2840175Y-8047652D02*
X2821127Y-8066700D01*
X2821127Y-8066700D02*
X2792556Y-8076224D01*
X2792556Y-8076224D02*
X2744937Y-8076224D01*
X2944937Y-8076224D02*
X2944937Y-7942890D01*
X2944937Y-7980986D02*
X2954461Y-7961938D01*
X2954461Y-7961938D02*
X2963984Y-7952414D01*
X2963984Y-7952414D02*
X2983032Y-7942890D01*
X2983032Y-7942890D02*
X3002080Y-7942890D01*
X3068746Y-8076224D02*
X3068746Y-7942890D01*
X3068746Y-7876224D02*
X3059222Y-7885748D01*
X3059222Y-7885748D02*
X3068746Y-7895271D01*
X3068746Y-7895271D02*
X3078270Y-7885748D01*
X3078270Y-7885748D02*
X3068746Y-7876224D01*
X3068746Y-7876224D02*
X3068746Y-7895271D01*
X3192556Y-8076224D02*
X3173508Y-8066700D01*
X3173508Y-8066700D02*
X3163984Y-8047652D01*
X3163984Y-8047652D02*
X3163984Y-7876224D01*
X3297318Y-8076224D02*
X3278270Y-8066700D01*
X3278270Y-8066700D02*
X3268746Y-8047652D01*
X3268746Y-8047652D02*
X3268746Y-7876224D01*
X3525889Y-8076224D02*
X3525889Y-7876224D01*
X3525889Y-7876224D02*
X3592556Y-8019081D01*
X3592556Y-8019081D02*
X3659222Y-7876224D01*
X3659222Y-7876224D02*
X3659222Y-8076224D01*
X3840175Y-8076224D02*
X3840175Y-7971462D01*
X3840175Y-7971462D02*
X3830651Y-7952414D01*
X3830651Y-7952414D02*
X3811603Y-7942890D01*
X3811603Y-7942890D02*
X3773508Y-7942890D01*
X3773508Y-7942890D02*
X3754461Y-7952414D01*
X3840175Y-8066700D02*
X3821127Y-8076224D01*
X3821127Y-8076224D02*
X3773508Y-8076224D01*
X3773508Y-8076224D02*
X3754461Y-8066700D01*
X3754461Y-8066700D02*
X3744937Y-8047652D01*
X3744937Y-8047652D02*
X3744937Y-8028605D01*
X3744937Y-8028605D02*
X3754461Y-8009557D01*
X3754461Y-8009557D02*
X3773508Y-8000033D01*
X3773508Y-8000033D02*
X3821127Y-8000033D01*
X3821127Y-8000033D02*
X3840175Y-7990509D01*
X3935413Y-7942890D02*
X3935413Y-8142890D01*
X3935413Y-7952414D02*
X3954461Y-7942890D01*
X3954461Y-7942890D02*
X3992556Y-7942890D01*
X3992556Y-7942890D02*
X4011603Y-7952414D01*
X4011603Y-7952414D02*
X4021127Y-7961938D01*
X4021127Y-7961938D02*
X4030651Y-7980986D01*
X4030651Y-7980986D02*
X4030651Y-8038128D01*
X4030651Y-8038128D02*
X4021127Y-8057176D01*
X4021127Y-8057176D02*
X4011603Y-8066700D01*
X4011603Y-8066700D02*
X3992556Y-8076224D01*
X3992556Y-8076224D02*
X3954461Y-8076224D01*
X3954461Y-8076224D02*
X3935413Y-8066700D01*
X4116365Y-8057176D02*
X4125889Y-8066700D01*
X4125889Y-8066700D02*
X4116365Y-8076224D01*
X4116365Y-8076224D02*
X4106842Y-8066700D01*
X4106842Y-8066700D02*
X4116365Y-8057176D01*
X4116365Y-8057176D02*
X4116365Y-8076224D01*
X4116365Y-7952414D02*
X4125889Y-7961938D01*
X4125889Y-7961938D02*
X4116365Y-7971462D01*
X4116365Y-7971462D02*
X4106842Y-7961938D01*
X4106842Y-7961938D02*
X4116365Y-7952414D01*
X4116365Y-7952414D02*
X4116365Y-7971462D01*
X2284160Y-8304740D02*
X2484160Y-8504740D01*
X2484160Y-8304740D02*
X2284160Y-8504740D01*
X2725889Y-8296224D02*
X2849699Y-8296224D01*
X2849699Y-8296224D02*
X2783032Y-8372414D01*
X2783032Y-8372414D02*
X2811603Y-8372414D01*
X2811603Y-8372414D02*
X2830651Y-8381938D01*
X2830651Y-8381938D02*
X2840175Y-8391462D01*
X2840175Y-8391462D02*
X2849699Y-8410510D01*
X2849699Y-8410510D02*
X2849699Y-8458129D01*
X2849699Y-8458129D02*
X2840175Y-8477176D01*
X2840175Y-8477176D02*
X2830651Y-8486700D01*
X2830651Y-8486700D02*
X2811603Y-8496224D01*
X2811603Y-8496224D02*
X2754461Y-8496224D01*
X2754461Y-8496224D02*
X2735413Y-8486700D01*
X2735413Y-8486700D02*
X2725889Y-8477176D01*
X2935413Y-8477176D02*
X2944937Y-8486700D01*
X2944937Y-8486700D02*
X2935413Y-8496224D01*
X2935413Y-8496224D02*
X2925889Y-8486700D01*
X2925889Y-8486700D02*
X2935413Y-8477176D01*
X2935413Y-8477176D02*
X2935413Y-8496224D01*
X3125889Y-8296224D02*
X3030651Y-8296224D01*
X3030651Y-8296224D02*
X3021127Y-8391462D01*
X3021127Y-8391462D02*
X3030651Y-8381938D01*
X3030651Y-8381938D02*
X3049699Y-8372414D01*
X3049699Y-8372414D02*
X3097318Y-8372414D01*
X3097318Y-8372414D02*
X3116365Y-8381938D01*
X3116365Y-8381938D02*
X3125889Y-8391462D01*
X3125889Y-8391462D02*
X3135413Y-8410510D01*
X3135413Y-8410510D02*
X3135413Y-8458129D01*
X3135413Y-8458129D02*
X3125889Y-8477176D01*
X3125889Y-8477176D02*
X3116365Y-8486700D01*
X3116365Y-8486700D02*
X3097318Y-8496224D01*
X3097318Y-8496224D02*
X3049699Y-8496224D01*
X3049699Y-8496224D02*
X3030651Y-8486700D01*
X3030651Y-8486700D02*
X3021127Y-8477176D01*
X3259222Y-8296224D02*
X3278270Y-8296224D01*
X3278270Y-8296224D02*
X3297318Y-8305748D01*
X3297318Y-8305748D02*
X3306842Y-8315271D01*
X3306842Y-8315271D02*
X3316365Y-8334319D01*
X3316365Y-8334319D02*
X3325889Y-8372414D01*
X3325889Y-8372414D02*
X3325889Y-8420033D01*
X3325889Y-8420033D02*
X3316365Y-8458129D01*
X3316365Y-8458129D02*
X3306842Y-8477176D01*
X3306842Y-8477176D02*
X3297318Y-8486700D01*
X3297318Y-8486700D02*
X3278270Y-8496224D01*
X3278270Y-8496224D02*
X3259222Y-8496224D01*
X3259222Y-8496224D02*
X3240175Y-8486700D01*
X3240175Y-8486700D02*
X3230651Y-8477176D01*
X3230651Y-8477176D02*
X3221127Y-8458129D01*
X3221127Y-8458129D02*
X3211603Y-8420033D01*
X3211603Y-8420033D02*
X3211603Y-8372414D01*
X3211603Y-8372414D02*
X3221127Y-8334319D01*
X3221127Y-8334319D02*
X3230651Y-8315271D01*
X3230651Y-8315271D02*
X3240175Y-8305748D01*
X3240175Y-8305748D02*
X3259222Y-8296224D01*
X3449699Y-8296224D02*
X3468746Y-8296224D01*
X3468746Y-8296224D02*
X3487794Y-8305748D01*
X3487794Y-8305748D02*
X3497318Y-8315271D01*
X3497318Y-8315271D02*
X3506842Y-8334319D01*
X3506842Y-8334319D02*
X3516365Y-8372414D01*
X3516365Y-8372414D02*
X3516365Y-8420033D01*
X3516365Y-8420033D02*
X3506842Y-8458129D01*
X3506842Y-8458129D02*
X3497318Y-8477176D01*
X3497318Y-8477176D02*
X3487794Y-8486700D01*
X3487794Y-8486700D02*
X3468746Y-8496224D01*
X3468746Y-8496224D02*
X3449699Y-8496224D01*
X3449699Y-8496224D02*
X3430651Y-8486700D01*
X3430651Y-8486700D02*
X3421127Y-8477176D01*
X3421127Y-8477176D02*
X3411603Y-8458129D01*
X3411603Y-8458129D02*
X3402080Y-8420033D01*
X3402080Y-8420033D02*
X3402080Y-8372414D01*
X3402080Y-8372414D02*
X3411603Y-8334319D01*
X3411603Y-8334319D02*
X3421127Y-8315271D01*
X3421127Y-8315271D02*
X3430651Y-8305748D01*
X3430651Y-8305748D02*
X3449699Y-8296224D01*
X3602080Y-8496224D02*
X3602080Y-8362890D01*
X3602080Y-8381938D02*
X3611603Y-8372414D01*
X3611603Y-8372414D02*
X3630651Y-8362890D01*
X3630651Y-8362890D02*
X3659223Y-8362890D01*
X3659223Y-8362890D02*
X3678270Y-8372414D01*
X3678270Y-8372414D02*
X3687794Y-8391462D01*
X3687794Y-8391462D02*
X3687794Y-8496224D01*
X3687794Y-8391462D02*
X3697318Y-8372414D01*
X3697318Y-8372414D02*
X3716365Y-8362890D01*
X3716365Y-8362890D02*
X3744937Y-8362890D01*
X3744937Y-8362890D02*
X3763984Y-8372414D01*
X3763984Y-8372414D02*
X3773508Y-8391462D01*
X3773508Y-8391462D02*
X3773508Y-8496224D01*
X3868746Y-8496224D02*
X3868746Y-8362890D01*
X3868746Y-8381938D02*
X3878270Y-8372414D01*
X3878270Y-8372414D02*
X3897318Y-8362890D01*
X3897318Y-8362890D02*
X3925889Y-8362890D01*
X3925889Y-8362890D02*
X3944937Y-8372414D01*
X3944937Y-8372414D02*
X3954461Y-8391462D01*
X3954461Y-8391462D02*
X3954461Y-8496224D01*
X3954461Y-8391462D02*
X3963984Y-8372414D01*
X3963984Y-8372414D02*
X3983032Y-8362890D01*
X3983032Y-8362890D02*
X4011603Y-8362890D01*
X4011603Y-8362890D02*
X4030651Y-8372414D01*
X4030651Y-8372414D02*
X4040175Y-8391462D01*
X4040175Y-8391462D02*
X4040175Y-8496224D01*
X4430651Y-8286700D02*
X4259223Y-8543843D01*
X4687794Y-8296224D02*
X4706842Y-8296224D01*
X4706842Y-8296224D02*
X4725889Y-8305748D01*
X4725889Y-8305748D02*
X4735413Y-8315271D01*
X4735413Y-8315271D02*
X4744937Y-8334319D01*
X4744937Y-8334319D02*
X4754461Y-8372414D01*
X4754461Y-8372414D02*
X4754461Y-8420033D01*
X4754461Y-8420033D02*
X4744937Y-8458129D01*
X4744937Y-8458129D02*
X4735413Y-8477176D01*
X4735413Y-8477176D02*
X4725889Y-8486700D01*
X4725889Y-8486700D02*
X4706842Y-8496224D01*
X4706842Y-8496224D02*
X4687794Y-8496224D01*
X4687794Y-8496224D02*
X4668747Y-8486700D01*
X4668747Y-8486700D02*
X4659223Y-8477176D01*
X4659223Y-8477176D02*
X4649699Y-8458129D01*
X4649699Y-8458129D02*
X4640175Y-8420033D01*
X4640175Y-8420033D02*
X4640175Y-8372414D01*
X4640175Y-8372414D02*
X4649699Y-8334319D01*
X4649699Y-8334319D02*
X4659223Y-8315271D01*
X4659223Y-8315271D02*
X4668747Y-8305748D01*
X4668747Y-8305748D02*
X4687794Y-8296224D01*
X4840175Y-8477176D02*
X4849699Y-8486700D01*
X4849699Y-8486700D02*
X4840175Y-8496224D01*
X4840175Y-8496224D02*
X4830651Y-8486700D01*
X4830651Y-8486700D02*
X4840175Y-8477176D01*
X4840175Y-8477176D02*
X4840175Y-8496224D01*
X5040175Y-8496224D02*
X4925889Y-8496224D01*
X4983032Y-8496224D02*
X4983032Y-8296224D01*
X4983032Y-8296224D02*
X4963985Y-8324795D01*
X4963985Y-8324795D02*
X4944937Y-8343843D01*
X4944937Y-8343843D02*
X4925889Y-8353367D01*
X5106842Y-8296224D02*
X5230651Y-8296224D01*
X5230651Y-8296224D02*
X5163985Y-8372414D01*
X5163985Y-8372414D02*
X5192556Y-8372414D01*
X5192556Y-8372414D02*
X5211604Y-8381938D01*
X5211604Y-8381938D02*
X5221128Y-8391462D01*
X5221128Y-8391462D02*
X5230651Y-8410510D01*
X5230651Y-8410510D02*
X5230651Y-8458129D01*
X5230651Y-8458129D02*
X5221128Y-8477176D01*
X5221128Y-8477176D02*
X5211604Y-8486700D01*
X5211604Y-8486700D02*
X5192556Y-8496224D01*
X5192556Y-8496224D02*
X5135413Y-8496224D01*
X5135413Y-8496224D02*
X5116366Y-8486700D01*
X5116366Y-8486700D02*
X5106842Y-8477176D01*
X5297318Y-8296224D02*
X5430651Y-8296224D01*
X5430651Y-8296224D02*
X5344937Y-8496224D01*
X5535413Y-8381938D02*
X5516366Y-8372414D01*
X5516366Y-8372414D02*
X5506842Y-8362890D01*
X5506842Y-8362890D02*
X5497318Y-8343843D01*
X5497318Y-8343843D02*
X5497318Y-8334319D01*
X5497318Y-8334319D02*
X5506842Y-8315271D01*
X5506842Y-8315271D02*
X5516366Y-8305748D01*
X5516366Y-8305748D02*
X5535413Y-8296224D01*
X5535413Y-8296224D02*
X5573509Y-8296224D01*
X5573509Y-8296224D02*
X5592556Y-8305748D01*
X5592556Y-8305748D02*
X5602080Y-8315271D01*
X5602080Y-8315271D02*
X5611604Y-8334319D01*
X5611604Y-8334319D02*
X5611604Y-8343843D01*
X5611604Y-8343843D02*
X5602080Y-8362890D01*
X5602080Y-8362890D02*
X5592556Y-8372414D01*
X5592556Y-8372414D02*
X5573509Y-8381938D01*
X5573509Y-8381938D02*
X5535413Y-8381938D01*
X5535413Y-8381938D02*
X5516366Y-8391462D01*
X5516366Y-8391462D02*
X5506842Y-8400986D01*
X5506842Y-8400986D02*
X5497318Y-8420033D01*
X5497318Y-8420033D02*
X5497318Y-8458129D01*
X5497318Y-8458129D02*
X5506842Y-8477176D01*
X5506842Y-8477176D02*
X5516366Y-8486700D01*
X5516366Y-8486700D02*
X5535413Y-8496224D01*
X5535413Y-8496224D02*
X5573509Y-8496224D01*
X5573509Y-8496224D02*
X5592556Y-8486700D01*
X5592556Y-8486700D02*
X5602080Y-8477176D01*
X5602080Y-8477176D02*
X5611604Y-8458129D01*
X5611604Y-8458129D02*
X5611604Y-8420033D01*
X5611604Y-8420033D02*
X5602080Y-8400986D01*
X5602080Y-8400986D02*
X5592556Y-8391462D01*
X5592556Y-8391462D02*
X5573509Y-8381938D01*
X5687794Y-8296224D02*
X5687794Y-8334319D01*
X5763985Y-8296224D02*
X5763985Y-8334319D01*
X6059223Y-8572414D02*
X6049699Y-8562890D01*
X6049699Y-8562890D02*
X6030651Y-8534319D01*
X6030651Y-8534319D02*
X6021128Y-8515271D01*
X6021128Y-8515271D02*
X6011604Y-8486700D01*
X6011604Y-8486700D02*
X6002080Y-8439081D01*
X6002080Y-8439081D02*
X6002080Y-8400986D01*
X6002080Y-8400986D02*
X6011604Y-8353367D01*
X6011604Y-8353367D02*
X6021128Y-8324795D01*
X6021128Y-8324795D02*
X6030651Y-8305748D01*
X6030651Y-8305748D02*
X6049699Y-8277176D01*
X6049699Y-8277176D02*
X6059223Y-8267652D01*
X6221128Y-8362890D02*
X6221128Y-8496224D01*
X6173508Y-8286700D02*
X6125889Y-8429557D01*
X6125889Y-8429557D02*
X6249699Y-8429557D01*
X6478270Y-8496224D02*
X6478270Y-8296224D01*
X6563985Y-8496224D02*
X6563985Y-8391462D01*
X6563985Y-8391462D02*
X6554461Y-8372414D01*
X6554461Y-8372414D02*
X6535413Y-8362890D01*
X6535413Y-8362890D02*
X6506842Y-8362890D01*
X6506842Y-8362890D02*
X6487794Y-8372414D01*
X6487794Y-8372414D02*
X6478270Y-8381938D01*
X6687794Y-8496224D02*
X6668747Y-8486700D01*
X6668747Y-8486700D02*
X6659223Y-8477176D01*
X6659223Y-8477176D02*
X6649699Y-8458129D01*
X6649699Y-8458129D02*
X6649699Y-8400986D01*
X6649699Y-8400986D02*
X6659223Y-8381938D01*
X6659223Y-8381938D02*
X6668747Y-8372414D01*
X6668747Y-8372414D02*
X6687794Y-8362890D01*
X6687794Y-8362890D02*
X6716366Y-8362890D01*
X6716366Y-8362890D02*
X6735413Y-8372414D01*
X6735413Y-8372414D02*
X6744937Y-8381938D01*
X6744937Y-8381938D02*
X6754461Y-8400986D01*
X6754461Y-8400986D02*
X6754461Y-8458129D01*
X6754461Y-8458129D02*
X6744937Y-8477176D01*
X6744937Y-8477176D02*
X6735413Y-8486700D01*
X6735413Y-8486700D02*
X6716366Y-8496224D01*
X6716366Y-8496224D02*
X6687794Y-8496224D01*
X6868747Y-8496224D02*
X6849699Y-8486700D01*
X6849699Y-8486700D02*
X6840175Y-8467652D01*
X6840175Y-8467652D02*
X6840175Y-8296224D01*
X7021128Y-8486700D02*
X7002080Y-8496224D01*
X7002080Y-8496224D02*
X6963985Y-8496224D01*
X6963985Y-8496224D02*
X6944937Y-8486700D01*
X6944937Y-8486700D02*
X6935413Y-8467652D01*
X6935413Y-8467652D02*
X6935413Y-8391462D01*
X6935413Y-8391462D02*
X6944937Y-8372414D01*
X6944937Y-8372414D02*
X6963985Y-8362890D01*
X6963985Y-8362890D02*
X7002080Y-8362890D01*
X7002080Y-8362890D02*
X7021128Y-8372414D01*
X7021128Y-8372414D02*
X7030651Y-8391462D01*
X7030651Y-8391462D02*
X7030651Y-8410510D01*
X7030651Y-8410510D02*
X6935413Y-8429557D01*
X7106842Y-8486700D02*
X7125890Y-8496224D01*
X7125890Y-8496224D02*
X7163985Y-8496224D01*
X7163985Y-8496224D02*
X7183032Y-8486700D01*
X7183032Y-8486700D02*
X7192556Y-8467652D01*
X7192556Y-8467652D02*
X7192556Y-8458129D01*
X7192556Y-8458129D02*
X7183032Y-8439081D01*
X7183032Y-8439081D02*
X7163985Y-8429557D01*
X7163985Y-8429557D02*
X7135413Y-8429557D01*
X7135413Y-8429557D02*
X7116366Y-8420033D01*
X7116366Y-8420033D02*
X7106842Y-8400986D01*
X7106842Y-8400986D02*
X7106842Y-8391462D01*
X7106842Y-8391462D02*
X7116366Y-8372414D01*
X7116366Y-8372414D02*
X7135413Y-8362890D01*
X7135413Y-8362890D02*
X7163985Y-8362890D01*
X7163985Y-8362890D02*
X7183032Y-8372414D01*
X7259223Y-8572414D02*
X7268747Y-8562890D01*
X7268747Y-8562890D02*
X7287794Y-8534319D01*
X7287794Y-8534319D02*
X7297318Y-8515271D01*
X7297318Y-8515271D02*
X7306842Y-8486700D01*
X7306842Y-8486700D02*
X7316366Y-8439081D01*
X7316366Y-8439081D02*
X7316366Y-8400986D01*
X7316366Y-8400986D02*
X7306842Y-8353367D01*
X7306842Y-8353367D02*
X7297318Y-8324795D01*
X7297318Y-8324795D02*
X7287794Y-8305748D01*
X7287794Y-8305748D02*
X7268747Y-8277176D01*
X7268747Y-8277176D02*
X7259223Y-8267652D01*
X7621128Y-8572414D02*
X7611604Y-8562890D01*
X7611604Y-8562890D02*
X7592556Y-8534319D01*
X7592556Y-8534319D02*
X7583032Y-8515271D01*
X7583032Y-8515271D02*
X7573509Y-8486700D01*
X7573509Y-8486700D02*
X7563985Y-8439081D01*
X7563985Y-8439081D02*
X7563985Y-8400986D01*
X7563985Y-8400986D02*
X7573509Y-8353367D01*
X7573509Y-8353367D02*
X7583032Y-8324795D01*
X7583032Y-8324795D02*
X7592556Y-8305748D01*
X7592556Y-8305748D02*
X7611604Y-8277176D01*
X7611604Y-8277176D02*
X7621128Y-8267652D01*
X7697318Y-8362890D02*
X7697318Y-8496224D01*
X7697318Y-8381938D02*
X7706842Y-8372414D01*
X7706842Y-8372414D02*
X7725890Y-8362890D01*
X7725890Y-8362890D02*
X7754461Y-8362890D01*
X7754461Y-8362890D02*
X7773509Y-8372414D01*
X7773509Y-8372414D02*
X7783032Y-8391462D01*
X7783032Y-8391462D02*
X7783032Y-8496224D01*
X7906842Y-8496224D02*
X7887794Y-8486700D01*
X7887794Y-8486700D02*
X7878271Y-8477176D01*
X7878271Y-8477176D02*
X7868747Y-8458129D01*
X7868747Y-8458129D02*
X7868747Y-8400986D01*
X7868747Y-8400986D02*
X7878271Y-8381938D01*
X7878271Y-8381938D02*
X7887794Y-8372414D01*
X7887794Y-8372414D02*
X7906842Y-8362890D01*
X7906842Y-8362890D02*
X7935413Y-8362890D01*
X7935413Y-8362890D02*
X7954461Y-8372414D01*
X7954461Y-8372414D02*
X7963985Y-8381938D01*
X7963985Y-8381938D02*
X7973509Y-8400986D01*
X7973509Y-8400986D02*
X7973509Y-8458129D01*
X7973509Y-8458129D02*
X7963985Y-8477176D01*
X7963985Y-8477176D02*
X7954461Y-8486700D01*
X7954461Y-8486700D02*
X7935413Y-8496224D01*
X7935413Y-8496224D02*
X7906842Y-8496224D01*
X8030652Y-8362890D02*
X8106842Y-8362890D01*
X8059223Y-8296224D02*
X8059223Y-8467652D01*
X8059223Y-8467652D02*
X8068747Y-8486700D01*
X8068747Y-8486700D02*
X8087794Y-8496224D01*
X8087794Y-8496224D02*
X8106842Y-8496224D01*
X8325890Y-8362890D02*
X8325890Y-8562890D01*
X8325890Y-8372414D02*
X8344937Y-8362890D01*
X8344937Y-8362890D02*
X8383033Y-8362890D01*
X8383033Y-8362890D02*
X8402080Y-8372414D01*
X8402080Y-8372414D02*
X8411604Y-8381938D01*
X8411604Y-8381938D02*
X8421128Y-8400986D01*
X8421128Y-8400986D02*
X8421128Y-8458129D01*
X8421128Y-8458129D02*
X8411604Y-8477176D01*
X8411604Y-8477176D02*
X8402080Y-8486700D01*
X8402080Y-8486700D02*
X8383033Y-8496224D01*
X8383033Y-8496224D02*
X8344937Y-8496224D01*
X8344937Y-8496224D02*
X8325890Y-8486700D01*
X8535414Y-8496224D02*
X8516366Y-8486700D01*
X8516366Y-8486700D02*
X8506842Y-8467652D01*
X8506842Y-8467652D02*
X8506842Y-8296224D01*
X8697318Y-8496224D02*
X8697318Y-8391462D01*
X8697318Y-8391462D02*
X8687795Y-8372414D01*
X8687795Y-8372414D02*
X8668747Y-8362890D01*
X8668747Y-8362890D02*
X8630652Y-8362890D01*
X8630652Y-8362890D02*
X8611604Y-8372414D01*
X8697318Y-8486700D02*
X8678271Y-8496224D01*
X8678271Y-8496224D02*
X8630652Y-8496224D01*
X8630652Y-8496224D02*
X8611604Y-8486700D01*
X8611604Y-8486700D02*
X8602080Y-8467652D01*
X8602080Y-8467652D02*
X8602080Y-8448605D01*
X8602080Y-8448605D02*
X8611604Y-8429557D01*
X8611604Y-8429557D02*
X8630652Y-8420033D01*
X8630652Y-8420033D02*
X8678271Y-8420033D01*
X8678271Y-8420033D02*
X8697318Y-8410510D01*
X8763985Y-8362890D02*
X8840175Y-8362890D01*
X8792556Y-8296224D02*
X8792556Y-8467652D01*
X8792556Y-8467652D02*
X8802080Y-8486700D01*
X8802080Y-8486700D02*
X8821128Y-8496224D01*
X8821128Y-8496224D02*
X8840175Y-8496224D01*
X8983033Y-8486700D02*
X8963985Y-8496224D01*
X8963985Y-8496224D02*
X8925890Y-8496224D01*
X8925890Y-8496224D02*
X8906842Y-8486700D01*
X8906842Y-8486700D02*
X8897318Y-8467652D01*
X8897318Y-8467652D02*
X8897318Y-8391462D01*
X8897318Y-8391462D02*
X8906842Y-8372414D01*
X8906842Y-8372414D02*
X8925890Y-8362890D01*
X8925890Y-8362890D02*
X8963985Y-8362890D01*
X8963985Y-8362890D02*
X8983033Y-8372414D01*
X8983033Y-8372414D02*
X8992556Y-8391462D01*
X8992556Y-8391462D02*
X8992556Y-8410510D01*
X8992556Y-8410510D02*
X8897318Y-8429557D01*
X9163985Y-8496224D02*
X9163985Y-8296224D01*
X9163985Y-8486700D02*
X9144937Y-8496224D01*
X9144937Y-8496224D02*
X9106842Y-8496224D01*
X9106842Y-8496224D02*
X9087795Y-8486700D01*
X9087795Y-8486700D02*
X9078271Y-8477176D01*
X9078271Y-8477176D02*
X9068747Y-8458129D01*
X9068747Y-8458129D02*
X9068747Y-8400986D01*
X9068747Y-8400986D02*
X9078271Y-8381938D01*
X9078271Y-8381938D02*
X9087795Y-8372414D01*
X9087795Y-8372414D02*
X9106842Y-8362890D01*
X9106842Y-8362890D02*
X9144937Y-8362890D01*
X9144937Y-8362890D02*
X9163985Y-8372414D01*
X9240176Y-8572414D02*
X9249699Y-8562890D01*
X9249699Y-8562890D02*
X9268747Y-8534319D01*
X9268747Y-8534319D02*
X9278271Y-8515271D01*
X9278271Y-8515271D02*
X9287795Y-8486700D01*
X9287795Y-8486700D02*
X9297318Y-8439081D01*
X9297318Y-8439081D02*
X9297318Y-8400986D01*
X9297318Y-8400986D02*
X9287795Y-8353367D01*
X9287795Y-8353367D02*
X9278271Y-8324795D01*
X9278271Y-8324795D02*
X9268747Y-8305748D01*
X9268747Y-8305748D02*
X9249699Y-8277176D01*
X9249699Y-8277176D02*
X9240176Y-8267652D01*
M02*
