%TF.GenerationSoftware,KiCad,Pcbnew,7.0.5*%
%TF.CreationDate,2023-12-12T17:16:25+05:30*%
%TF.ProjectId,charger ShutDown Circuit,63686172-6765-4722-9053-687574446f77,rev?*%
%TF.SameCoordinates,Original*%
%TF.FileFunction,Copper,L2,Bot*%
%TF.FilePolarity,Positive*%
%FSLAX46Y46*%
G04 Gerber Fmt 4.6, Leading zero omitted, Abs format (unit mm)*
G04 Created by KiCad (PCBNEW 7.0.5) date 2023-12-12 17:16:25*
%MOMM*%
%LPD*%
G01*
G04 APERTURE LIST*
%TA.AperFunction,ComponentPad*%
%ADD10R,1.170000X1.170000*%
%TD*%
%TA.AperFunction,ComponentPad*%
%ADD11C,1.170000*%
%TD*%
%TA.AperFunction,ComponentPad*%
%ADD12R,2.000000X1.905000*%
%TD*%
%TA.AperFunction,ComponentPad*%
%ADD13O,2.000000X1.905000*%
%TD*%
%TA.AperFunction,ComponentPad*%
%ADD14R,1.050000X1.500000*%
%TD*%
%TA.AperFunction,ComponentPad*%
%ADD15O,1.050000X1.500000*%
%TD*%
%TA.AperFunction,ComponentPad*%
%ADD16R,2.200000X2.200000*%
%TD*%
%TA.AperFunction,ComponentPad*%
%ADD17O,2.200000X2.200000*%
%TD*%
%TA.AperFunction,ComponentPad*%
%ADD18C,1.600000*%
%TD*%
%TA.AperFunction,ComponentPad*%
%ADD19O,1.600000X1.600000*%
%TD*%
%TA.AperFunction,ComponentPad*%
%ADD20R,1.508000X1.508000*%
%TD*%
%TA.AperFunction,ComponentPad*%
%ADD21C,1.508000*%
%TD*%
%TA.AperFunction,ComponentPad*%
%ADD22R,2.600000X2.600000*%
%TD*%
%TA.AperFunction,ComponentPad*%
%ADD23C,2.600000*%
%TD*%
%TA.AperFunction,ComponentPad*%
%ADD24C,3.000000*%
%TD*%
%TA.AperFunction,ComponentPad*%
%ADD25R,3.000000X3.000000*%
%TD*%
%TA.AperFunction,ComponentPad*%
%ADD26C,1.308000*%
%TD*%
%TA.AperFunction,ComponentPad*%
%ADD27C,1.950000*%
%TD*%
%TA.AperFunction,ComponentPad*%
%ADD28C,1.800000*%
%TD*%
%TA.AperFunction,ComponentPad*%
%ADD29R,1.575000X1.575000*%
%TD*%
%TA.AperFunction,ComponentPad*%
%ADD30C,1.575000*%
%TD*%
%TA.AperFunction,ViaPad*%
%ADD31C,0.600000*%
%TD*%
%TA.AperFunction,Conductor*%
%ADD32C,0.200000*%
%TD*%
G04 APERTURE END LIST*
D10*
%TO.P,U1,1,1A*%
%TO.N,BMS1*%
X81711800Y-61239400D03*
D11*
%TO.P,U1,2,1B*%
%TO.N,BMS2*%
X84251800Y-61239400D03*
%TO.P,U1,3,1Y*%
%TO.N,out1*%
X86791800Y-61239400D03*
%TO.P,U1,4,2A*%
%TO.N,BMS3*%
X89331800Y-61239400D03*
%TO.P,U1,5,2B*%
%TO.N,BMS4*%
X91871800Y-61239400D03*
%TO.P,U1,6,2Y*%
%TO.N,out2*%
X94411800Y-61239400D03*
%TO.P,U1,7,GND*%
%TO.N,CSDC-*%
X96951800Y-61239400D03*
%TO.P,U1,8,3Y*%
%TO.N,out3*%
X96951800Y-53299400D03*
%TO.P,U1,9,3A*%
%TO.N,out2*%
X94411800Y-53299400D03*
%TO.P,U1,10,3B*%
%TO.N,out1*%
X91871800Y-53299400D03*
%TO.P,U1,11,4Y*%
%TO.N,AMS Fault*%
X89331800Y-53299400D03*
%TO.P,U1,12,4A*%
%TO.N,BMS5*%
X86791800Y-53299400D03*
%TO.P,U1,13,4B*%
%TO.N,out3*%
X84251800Y-53299400D03*
%TO.P,U1,14,VCC*%
%TO.N,+5V*%
X81711800Y-53299400D03*
%TD*%
D12*
%TO.P,U2,1,IN*%
%TO.N,Aux Battery in*%
X83134200Y-47853600D03*
D13*
%TO.P,U2,2,GND*%
%TO.N,CSDC-*%
X83134200Y-45313600D03*
%TO.P,U2,3,OUT*%
%TO.N,+5V*%
X83134200Y-42773600D03*
%TD*%
D14*
%TO.P,Q2,1,C*%
%TO.N,Net-(J10-Pin_1)*%
X48183800Y-63419400D03*
D15*
%TO.P,Q2,2,B*%
%TO.N,Net-(Q2-B)*%
X46913800Y-63419400D03*
%TO.P,Q2,3,E*%
%TO.N,CSDC-*%
X45643800Y-63419400D03*
%TD*%
D16*
%TO.P,D1,1,K*%
%TO.N,reset*%
X47294800Y-23799800D03*
D17*
%TO.P,D1,2,A*%
%TO.N,CSDC-*%
X57454800Y-23799800D03*
%TD*%
D18*
%TO.P,R7,1*%
%TO.N,Aux Battery in*%
X55600600Y-48082200D03*
D19*
%TO.P,R7,2*%
%TO.N,Net-(J10-Pin_1)*%
X55600600Y-58242200D03*
%TD*%
D20*
%TO.P,J3,1,1*%
%TO.N,BMS1*%
X104209200Y-54864000D03*
D21*
%TO.P,J3,2,2*%
%TO.N,BMS2*%
X106709200Y-54864000D03*
%TO.P,J3,3,3*%
%TO.N,BMS3*%
X109209200Y-54864000D03*
%TO.P,J3,4,4*%
%TO.N,BMS4*%
X111709200Y-54864000D03*
%TD*%
D18*
%TO.P,R8,1*%
%TO.N,Aux Battery in*%
X60325000Y-50520600D03*
D19*
%TO.P,R8,2*%
%TO.N,Net-(J11-Pin_1)*%
X60325000Y-60680600D03*
%TD*%
D18*
%TO.P,R2,1*%
%TO.N,Net-(Q3-G)*%
X90881200Y-37820600D03*
D19*
%TO.P,R2,2*%
%TO.N,CSDC-*%
X90881200Y-27660600D03*
%TD*%
D18*
%TO.P,R5,1*%
%TO.N,Net-(Q1-G)*%
X38303200Y-37744400D03*
D19*
%TO.P,R5,2*%
%TO.N,CSDC-*%
X38303200Y-27584400D03*
%TD*%
D22*
%TO.P,J11,1,Pin_1*%
%TO.N,Net-(J11-Pin_1)*%
X65993000Y-69392800D03*
D23*
%TO.P,J11,2,Pin_2*%
%TO.N,CSDC-*%
X70993000Y-69392800D03*
%TD*%
D18*
%TO.P,R3,1*%
%TO.N,IMD Fault*%
X41376600Y-50012600D03*
D19*
%TO.P,R3,2*%
%TO.N,Net-(Q2-B)*%
X51536600Y-50012600D03*
%TD*%
D12*
%TO.P,Q3,1,G*%
%TO.N,Net-(Q3-G)*%
X83108800Y-36423600D03*
D13*
%TO.P,Q3,2,D*%
%TO.N,Net-(Q3-D)*%
X83108800Y-33883600D03*
%TO.P,Q3,3,S*%
%TO.N,CSDC-*%
X83108800Y-31343600D03*
%TD*%
D18*
%TO.P,R6,1*%
%TO.N,AMS Fault*%
X41427400Y-56108600D03*
D19*
%TO.P,R6,2*%
%TO.N,Net-(Q4-B)*%
X51587400Y-56108600D03*
%TD*%
D18*
%TO.P,R4,1*%
%TO.N,AMS Fault*%
X38379400Y-50495200D03*
D19*
%TO.P,R4,2*%
%TO.N,Net-(Q1-G)*%
X38379400Y-40335200D03*
%TD*%
D24*
%TO.P,K2,11*%
%TO.N,Net-(K1-PadCOM)*%
X74167100Y-52844100D03*
%TO.P,K2,12*%
%TO.N,unconnected-(K2-Pad12)*%
X74167100Y-47844100D03*
%TO.P,K2,14*%
%TO.N,Net-(Q1-D)*%
X74167100Y-57844100D03*
%TO.P,K2,21*%
%TO.N,AMS In*%
X66667100Y-52844100D03*
%TO.P,K2,22*%
%TO.N,unconnected-(K2-Pad22)*%
X66667100Y-47844100D03*
%TO.P,K2,24*%
%TO.N,CSDC+*%
X66667100Y-57844100D03*
D25*
%TO.P,K2,A1*%
%TO.N,Aux Battery in*%
X74167100Y-32844100D03*
D24*
%TO.P,K2,A2*%
%TO.N,Net-(K1-PadCOM)*%
X66667100Y-32844100D03*
%TD*%
D26*
%TO.P,K5,COIL1*%
%TO.N,CSDC-*%
X111918000Y-29616900D03*
%TO.P,K5,COIL2*%
%TO.N,reset*%
X99918000Y-29616900D03*
D27*
%TO.P,K5,COM*%
%TO.N,Net-(K3-Pad11)*%
X105798000Y-27616900D03*
D28*
%TO.P,K5,NC*%
%TO.N,unconnected-(K5-PadNC)*%
X111918000Y-41816900D03*
%TO.P,K5,NO*%
%TO.N,Net-(Q3-D)*%
X99918000Y-41816900D03*
%TD*%
D22*
%TO.P,J10,1,Pin_1*%
%TO.N,Net-(J10-Pin_1)*%
X53862600Y-69266000D03*
D23*
%TO.P,J10,2,Pin_2*%
%TO.N,CSDC-*%
X58862600Y-69266000D03*
%TD*%
D26*
%TO.P,K1,COIL1*%
%TO.N,CSDC-*%
X57816000Y-29997900D03*
%TO.P,K1,COIL2*%
%TO.N,reset*%
X45816000Y-29997900D03*
D27*
%TO.P,K1,COM*%
%TO.N,Net-(K1-PadCOM)*%
X51696000Y-27997900D03*
D28*
%TO.P,K1,NC*%
%TO.N,unconnected-(K1-PadNC)*%
X57816000Y-42197900D03*
%TO.P,K1,NO*%
%TO.N,Net-(Q1-D)*%
X45816000Y-42197900D03*
%TD*%
D22*
%TO.P,J7,1,Pin_1*%
%TO.N,Aux Battery in*%
X35676200Y-65176600D03*
D23*
%TO.P,J7,2,Pin_2*%
%TO.N,CSDC-*%
X40676200Y-65176600D03*
%TD*%
D14*
%TO.P,Q4,1,C*%
%TO.N,Net-(J11-Pin_1)*%
X36728400Y-54991000D03*
D15*
%TO.P,Q4,2,B*%
%TO.N,Net-(Q4-B)*%
X35458400Y-54991000D03*
%TO.P,Q4,3,E*%
%TO.N,CSDC-*%
X34188400Y-54991000D03*
%TD*%
D12*
%TO.P,Q1,1,G*%
%TO.N,Net-(Q1-G)*%
X32588200Y-43256200D03*
D13*
%TO.P,Q1,2,D*%
%TO.N,Net-(Q1-D)*%
X32588200Y-40716200D03*
%TO.P,Q1,3,S*%
%TO.N,CSDC-*%
X32588200Y-38176200D03*
%TD*%
D18*
%TO.P,R1,1*%
%TO.N,IMD Fault*%
X90830400Y-50546000D03*
D19*
%TO.P,R1,2*%
%TO.N,Net-(Q3-G)*%
X90830400Y-40386000D03*
%TD*%
D22*
%TO.P,J1,1,Pin_1*%
%TO.N,Aux Battery in*%
X120385200Y-64719400D03*
D23*
%TO.P,J1,2,Pin_2*%
%TO.N,IMD In*%
X125385200Y-64719400D03*
%TD*%
D29*
%TO.P,J4,1,1*%
%TO.N,IMD Fault*%
X83362800Y-69291200D03*
D30*
%TO.P,J4,2,2*%
%TO.N,BMS5*%
X80862800Y-69291200D03*
%TD*%
D16*
%TO.P,D2,1,K*%
%TO.N,reset*%
X100304600Y-23291800D03*
D17*
%TO.P,D2,2,A*%
%TO.N,CSDC-*%
X110464600Y-23291800D03*
%TD*%
D22*
%TO.P,J6,1,Pin_1*%
%TO.N,CSDC+*%
X104829600Y-69519800D03*
D23*
%TO.P,J6,2,Pin_2*%
%TO.N,CSDC-*%
X109829600Y-69519800D03*
%TD*%
D24*
%TO.P,K3,11*%
%TO.N,Net-(K3-Pad11)*%
X126999100Y-51066100D03*
%TO.P,K3,12*%
%TO.N,unconnected-(K3-Pad12)*%
X126999100Y-46066100D03*
%TO.P,K3,14*%
%TO.N,Net-(Q3-D)*%
X126999100Y-56066100D03*
%TO.P,K3,21*%
%TO.N,IMD In*%
X119499100Y-51066100D03*
%TO.P,K3,22*%
%TO.N,unconnected-(K3-Pad22)*%
X119499100Y-46066100D03*
%TO.P,K3,24*%
%TO.N,AMS In*%
X119499100Y-56066100D03*
D25*
%TO.P,K3,A1*%
%TO.N,Aux Battery in*%
X126999100Y-31066100D03*
D24*
%TO.P,K3,A2*%
%TO.N,Net-(K3-Pad11)*%
X119499100Y-31066100D03*
%TD*%
D22*
%TO.P,J2,1,Pin_1*%
%TO.N,Aux Battery in*%
X91784800Y-69418400D03*
D23*
%TO.P,J2,2,Pin_2*%
%TO.N,reset*%
X96784800Y-69418400D03*
%TD*%
D31*
%TO.N,CSDC-*%
X100431600Y-60680600D03*
X103835200Y-61518800D03*
%TO.N,Net-(J11-Pin_1)*%
X50546000Y-60223400D03*
%TO.N,AMS Fault*%
X50520600Y-59029600D03*
X80431700Y-56044100D03*
%TD*%
D32*
%TO.N,Aux Battery in*%
X44805600Y-40538400D02*
X32283400Y-53060600D01*
X91784800Y-69418400D02*
X88120800Y-69418400D01*
X32283400Y-53060600D02*
X32283400Y-61783800D01*
X88120800Y-69418400D02*
X79832200Y-61129800D01*
X79832200Y-51155600D02*
X83134200Y-47853600D01*
X32283400Y-61783800D02*
X35676200Y-65176600D01*
X48056800Y-40538400D02*
X44805600Y-40538400D01*
X55600600Y-48082200D02*
X48056800Y-40538400D01*
X79832200Y-61129800D02*
X79832200Y-51155600D01*
%TO.N,reset*%
X101777800Y-31476700D02*
X101777800Y-64425400D01*
X101777800Y-64425400D02*
X96784800Y-69418400D01*
X99918000Y-29616900D02*
X101777800Y-31476700D01*
%TO.N,IMD Fault*%
X80518000Y-66446400D02*
X83362800Y-69291200D01*
X42507970Y-50012600D02*
X58941770Y-66446400D01*
X41376600Y-50012600D02*
X42507970Y-50012600D01*
X58941770Y-66446400D02*
X80518000Y-66446400D01*
%TO.N,CSDC-*%
X103835200Y-61518800D02*
X103835200Y-63525400D01*
X60844000Y-67284600D02*
X69265800Y-67284600D01*
X103835200Y-63525400D02*
X109829600Y-69519800D01*
X58862600Y-69266000D02*
X60844000Y-67284600D01*
X93243400Y-25298400D02*
X107599500Y-25298400D01*
X70827314Y-68846114D02*
X70827314Y-68992800D01*
X100431600Y-60655200D02*
X100431600Y-60680600D01*
X98983800Y-49790235D02*
X98983800Y-59207400D01*
X98983800Y-59207400D02*
X100431600Y-60655200D01*
X98983800Y-59207400D02*
X96951800Y-61239400D01*
X90881200Y-27660600D02*
X93243400Y-25298400D01*
X107599500Y-25298400D02*
X111918000Y-29616900D01*
X70827314Y-68992800D02*
X70710157Y-69109957D01*
X94507165Y-45313600D02*
X98983800Y-49790235D01*
X69265800Y-67284600D02*
X70827314Y-68846114D01*
X83134200Y-45313600D02*
X94507165Y-45313600D01*
%TO.N,Net-(J10-Pin_1)*%
X53862600Y-69266000D02*
X48183800Y-63587200D01*
X48183800Y-63587200D02*
X48183800Y-63419400D01*
%TO.N,Net-(J11-Pin_1)*%
X42189400Y-60223400D02*
X37128400Y-55162400D01*
X36728400Y-54991000D02*
X36728400Y-55941000D01*
X37128400Y-55162400D02*
X37128400Y-54825315D01*
X37128400Y-54825315D02*
X37011242Y-54708157D01*
X50546000Y-60223400D02*
X42189400Y-60223400D01*
%TO.N,Net-(Q1-D)*%
X63993900Y-60375800D02*
X71635400Y-60375800D01*
X71635400Y-60375800D02*
X74167100Y-57844100D01*
X45816000Y-42197900D02*
X63993900Y-60375800D01*
%TO.N,Net-(K1-PadCOM)*%
X51696000Y-27997900D02*
X61820900Y-27997900D01*
X61820900Y-27997900D02*
X66667100Y-32844100D01*
%TO.N,AMS Fault*%
X89331800Y-53299400D02*
X86587100Y-56044100D01*
X80431700Y-56044100D02*
X80431700Y-56200100D01*
X49580800Y-59029600D02*
X46659800Y-56108600D01*
X46659800Y-56108600D02*
X41427400Y-56108600D01*
X86587100Y-56044100D02*
X80431700Y-56044100D01*
X50520600Y-59029600D02*
X49580800Y-59029600D01*
%TO.N,out1*%
X86791800Y-58379400D02*
X91871800Y-53299400D01*
X86791800Y-61239400D02*
X86791800Y-58379400D01*
%TO.N,out2*%
X94411800Y-61239400D02*
X94411800Y-53299400D01*
%TO.N,out3*%
X85684400Y-51866800D02*
X84251800Y-53299400D01*
X95519200Y-51866800D02*
X85684400Y-51866800D01*
X96951800Y-53299400D02*
X95519200Y-51866800D01*
%TD*%
M02*
