%TF.GenerationSoftware,KiCad,Pcbnew,7.0.5*%
%TF.CreationDate,2023-12-17T15:08:01+05:30*%
%TF.ProjectId,LV conn,4c562063-6f6e-46e2-9e6b-696361645f70,rev?*%
%TF.SameCoordinates,Original*%
%TF.FileFunction,Drillmap*%
%TF.FilePolarity,Positive*%
%FSLAX45Y45*%
G04 Gerber Fmt 4.5, Leading zero omitted, Abs format (unit mm)*
G04 Created by KiCad (PCBNEW 7.0.5) date 2023-12-17 15:08:01*
%MOMM*%
%LPD*%
G01*
G04 APERTURE LIST*
%ADD10C,0.100000*%
%ADD11C,0.200000*%
%ADD12C,0.350000*%
G04 APERTURE END LIST*
D10*
X9504680Y-3017520D02*
X19575780Y-3017520D01*
X19575780Y-11744960D01*
X9504680Y-11744960D01*
X9504680Y-3017520D01*
D11*
D12*
X9781800Y-3330200D02*
X10131800Y-3680200D01*
X10131800Y-3330200D02*
X9781800Y-3680200D01*
X9827520Y-11054340D02*
X10177520Y-11404340D01*
X10177520Y-11054340D02*
X9827520Y-11404340D01*
X18831820Y-11023860D02*
X19181820Y-11373860D01*
X19181820Y-11023860D02*
X18831820Y-11373860D01*
X18958820Y-3274320D02*
X19308820Y-3624320D01*
X19308820Y-3274320D02*
X18958820Y-3624320D01*
D11*
X9760457Y-12061444D02*
X9760457Y-11861444D01*
X9760457Y-11861444D02*
X9808076Y-11861444D01*
X9808076Y-11861444D02*
X9836647Y-11870968D01*
X9836647Y-11870968D02*
X9855695Y-11890015D01*
X9855695Y-11890015D02*
X9865219Y-11909063D01*
X9865219Y-11909063D02*
X9874743Y-11947158D01*
X9874743Y-11947158D02*
X9874743Y-11975729D01*
X9874743Y-11975729D02*
X9865219Y-12013825D01*
X9865219Y-12013825D02*
X9855695Y-12032872D01*
X9855695Y-12032872D02*
X9836647Y-12051920D01*
X9836647Y-12051920D02*
X9808076Y-12061444D01*
X9808076Y-12061444D02*
X9760457Y-12061444D01*
X9960457Y-12061444D02*
X9960457Y-11928110D01*
X9960457Y-11966206D02*
X9969981Y-11947158D01*
X9969981Y-11947158D02*
X9979504Y-11937634D01*
X9979504Y-11937634D02*
X9998552Y-11928110D01*
X9998552Y-11928110D02*
X10017600Y-11928110D01*
X10084266Y-12061444D02*
X10084266Y-11928110D01*
X10084266Y-11861444D02*
X10074743Y-11870968D01*
X10074743Y-11870968D02*
X10084266Y-11880491D01*
X10084266Y-11880491D02*
X10093790Y-11870968D01*
X10093790Y-11870968D02*
X10084266Y-11861444D01*
X10084266Y-11861444D02*
X10084266Y-11880491D01*
X10208076Y-12061444D02*
X10189028Y-12051920D01*
X10189028Y-12051920D02*
X10179504Y-12032872D01*
X10179504Y-12032872D02*
X10179504Y-11861444D01*
X10312838Y-12061444D02*
X10293790Y-12051920D01*
X10293790Y-12051920D02*
X10284266Y-12032872D01*
X10284266Y-12032872D02*
X10284266Y-11861444D01*
X10541409Y-12061444D02*
X10541409Y-11861444D01*
X10541409Y-11861444D02*
X10608076Y-12004301D01*
X10608076Y-12004301D02*
X10674743Y-11861444D01*
X10674743Y-11861444D02*
X10674743Y-12061444D01*
X10855695Y-12061444D02*
X10855695Y-11956682D01*
X10855695Y-11956682D02*
X10846171Y-11937634D01*
X10846171Y-11937634D02*
X10827124Y-11928110D01*
X10827124Y-11928110D02*
X10789028Y-11928110D01*
X10789028Y-11928110D02*
X10769981Y-11937634D01*
X10855695Y-12051920D02*
X10836647Y-12061444D01*
X10836647Y-12061444D02*
X10789028Y-12061444D01*
X10789028Y-12061444D02*
X10769981Y-12051920D01*
X10769981Y-12051920D02*
X10760457Y-12032872D01*
X10760457Y-12032872D02*
X10760457Y-12013825D01*
X10760457Y-12013825D02*
X10769981Y-11994777D01*
X10769981Y-11994777D02*
X10789028Y-11985253D01*
X10789028Y-11985253D02*
X10836647Y-11985253D01*
X10836647Y-11985253D02*
X10855695Y-11975729D01*
X10950933Y-11928110D02*
X10950933Y-12128110D01*
X10950933Y-11937634D02*
X10969981Y-11928110D01*
X10969981Y-11928110D02*
X11008076Y-11928110D01*
X11008076Y-11928110D02*
X11027124Y-11937634D01*
X11027124Y-11937634D02*
X11036647Y-11947158D01*
X11036647Y-11947158D02*
X11046171Y-11966206D01*
X11046171Y-11966206D02*
X11046171Y-12023348D01*
X11046171Y-12023348D02*
X11036647Y-12042396D01*
X11036647Y-12042396D02*
X11027124Y-12051920D01*
X11027124Y-12051920D02*
X11008076Y-12061444D01*
X11008076Y-12061444D02*
X10969981Y-12061444D01*
X10969981Y-12061444D02*
X10950933Y-12051920D01*
X11131885Y-12042396D02*
X11141409Y-12051920D01*
X11141409Y-12051920D02*
X11131885Y-12061444D01*
X11131885Y-12061444D02*
X11122362Y-12051920D01*
X11122362Y-12051920D02*
X11131885Y-12042396D01*
X11131885Y-12042396D02*
X11131885Y-12061444D01*
X11131885Y-11937634D02*
X11141409Y-11947158D01*
X11141409Y-11947158D02*
X11131885Y-11956682D01*
X11131885Y-11956682D02*
X11122362Y-11947158D01*
X11122362Y-11947158D02*
X11131885Y-11937634D01*
X11131885Y-11937634D02*
X11131885Y-11956682D01*
X9299680Y-12289960D02*
X9499680Y-12489960D01*
X9499680Y-12289960D02*
X9299680Y-12489960D01*
X9741409Y-12281444D02*
X9865219Y-12281444D01*
X9865219Y-12281444D02*
X9798552Y-12357634D01*
X9798552Y-12357634D02*
X9827124Y-12357634D01*
X9827124Y-12357634D02*
X9846171Y-12367158D01*
X9846171Y-12367158D02*
X9855695Y-12376682D01*
X9855695Y-12376682D02*
X9865219Y-12395729D01*
X9865219Y-12395729D02*
X9865219Y-12443348D01*
X9865219Y-12443348D02*
X9855695Y-12462396D01*
X9855695Y-12462396D02*
X9846171Y-12471920D01*
X9846171Y-12471920D02*
X9827124Y-12481444D01*
X9827124Y-12481444D02*
X9769981Y-12481444D01*
X9769981Y-12481444D02*
X9750933Y-12471920D01*
X9750933Y-12471920D02*
X9741409Y-12462396D01*
X9950933Y-12462396D02*
X9960457Y-12471920D01*
X9960457Y-12471920D02*
X9950933Y-12481444D01*
X9950933Y-12481444D02*
X9941409Y-12471920D01*
X9941409Y-12471920D02*
X9950933Y-12462396D01*
X9950933Y-12462396D02*
X9950933Y-12481444D01*
X10141409Y-12281444D02*
X10046171Y-12281444D01*
X10046171Y-12281444D02*
X10036647Y-12376682D01*
X10036647Y-12376682D02*
X10046171Y-12367158D01*
X10046171Y-12367158D02*
X10065219Y-12357634D01*
X10065219Y-12357634D02*
X10112838Y-12357634D01*
X10112838Y-12357634D02*
X10131885Y-12367158D01*
X10131885Y-12367158D02*
X10141409Y-12376682D01*
X10141409Y-12376682D02*
X10150933Y-12395729D01*
X10150933Y-12395729D02*
X10150933Y-12443348D01*
X10150933Y-12443348D02*
X10141409Y-12462396D01*
X10141409Y-12462396D02*
X10131885Y-12471920D01*
X10131885Y-12471920D02*
X10112838Y-12481444D01*
X10112838Y-12481444D02*
X10065219Y-12481444D01*
X10065219Y-12481444D02*
X10046171Y-12471920D01*
X10046171Y-12471920D02*
X10036647Y-12462396D01*
X10274743Y-12281444D02*
X10293790Y-12281444D01*
X10293790Y-12281444D02*
X10312838Y-12290968D01*
X10312838Y-12290968D02*
X10322362Y-12300491D01*
X10322362Y-12300491D02*
X10331885Y-12319539D01*
X10331885Y-12319539D02*
X10341409Y-12357634D01*
X10341409Y-12357634D02*
X10341409Y-12405253D01*
X10341409Y-12405253D02*
X10331885Y-12443348D01*
X10331885Y-12443348D02*
X10322362Y-12462396D01*
X10322362Y-12462396D02*
X10312838Y-12471920D01*
X10312838Y-12471920D02*
X10293790Y-12481444D01*
X10293790Y-12481444D02*
X10274743Y-12481444D01*
X10274743Y-12481444D02*
X10255695Y-12471920D01*
X10255695Y-12471920D02*
X10246171Y-12462396D01*
X10246171Y-12462396D02*
X10236647Y-12443348D01*
X10236647Y-12443348D02*
X10227124Y-12405253D01*
X10227124Y-12405253D02*
X10227124Y-12357634D01*
X10227124Y-12357634D02*
X10236647Y-12319539D01*
X10236647Y-12319539D02*
X10246171Y-12300491D01*
X10246171Y-12300491D02*
X10255695Y-12290968D01*
X10255695Y-12290968D02*
X10274743Y-12281444D01*
X10465219Y-12281444D02*
X10484266Y-12281444D01*
X10484266Y-12281444D02*
X10503314Y-12290968D01*
X10503314Y-12290968D02*
X10512838Y-12300491D01*
X10512838Y-12300491D02*
X10522362Y-12319539D01*
X10522362Y-12319539D02*
X10531885Y-12357634D01*
X10531885Y-12357634D02*
X10531885Y-12405253D01*
X10531885Y-12405253D02*
X10522362Y-12443348D01*
X10522362Y-12443348D02*
X10512838Y-12462396D01*
X10512838Y-12462396D02*
X10503314Y-12471920D01*
X10503314Y-12471920D02*
X10484266Y-12481444D01*
X10484266Y-12481444D02*
X10465219Y-12481444D01*
X10465219Y-12481444D02*
X10446171Y-12471920D01*
X10446171Y-12471920D02*
X10436647Y-12462396D01*
X10436647Y-12462396D02*
X10427124Y-12443348D01*
X10427124Y-12443348D02*
X10417600Y-12405253D01*
X10417600Y-12405253D02*
X10417600Y-12357634D01*
X10417600Y-12357634D02*
X10427124Y-12319539D01*
X10427124Y-12319539D02*
X10436647Y-12300491D01*
X10436647Y-12300491D02*
X10446171Y-12290968D01*
X10446171Y-12290968D02*
X10465219Y-12281444D01*
X10617600Y-12481444D02*
X10617600Y-12348110D01*
X10617600Y-12367158D02*
X10627124Y-12357634D01*
X10627124Y-12357634D02*
X10646171Y-12348110D01*
X10646171Y-12348110D02*
X10674743Y-12348110D01*
X10674743Y-12348110D02*
X10693790Y-12357634D01*
X10693790Y-12357634D02*
X10703314Y-12376682D01*
X10703314Y-12376682D02*
X10703314Y-12481444D01*
X10703314Y-12376682D02*
X10712838Y-12357634D01*
X10712838Y-12357634D02*
X10731885Y-12348110D01*
X10731885Y-12348110D02*
X10760457Y-12348110D01*
X10760457Y-12348110D02*
X10779505Y-12357634D01*
X10779505Y-12357634D02*
X10789028Y-12376682D01*
X10789028Y-12376682D02*
X10789028Y-12481444D01*
X10884266Y-12481444D02*
X10884266Y-12348110D01*
X10884266Y-12367158D02*
X10893790Y-12357634D01*
X10893790Y-12357634D02*
X10912838Y-12348110D01*
X10912838Y-12348110D02*
X10941409Y-12348110D01*
X10941409Y-12348110D02*
X10960457Y-12357634D01*
X10960457Y-12357634D02*
X10969981Y-12376682D01*
X10969981Y-12376682D02*
X10969981Y-12481444D01*
X10969981Y-12376682D02*
X10979505Y-12357634D01*
X10979505Y-12357634D02*
X10998552Y-12348110D01*
X10998552Y-12348110D02*
X11027124Y-12348110D01*
X11027124Y-12348110D02*
X11046171Y-12357634D01*
X11046171Y-12357634D02*
X11055695Y-12376682D01*
X11055695Y-12376682D02*
X11055695Y-12481444D01*
X11446171Y-12271920D02*
X11274743Y-12529063D01*
X11703314Y-12281444D02*
X11722362Y-12281444D01*
X11722362Y-12281444D02*
X11741409Y-12290968D01*
X11741409Y-12290968D02*
X11750933Y-12300491D01*
X11750933Y-12300491D02*
X11760457Y-12319539D01*
X11760457Y-12319539D02*
X11769981Y-12357634D01*
X11769981Y-12357634D02*
X11769981Y-12405253D01*
X11769981Y-12405253D02*
X11760457Y-12443348D01*
X11760457Y-12443348D02*
X11750933Y-12462396D01*
X11750933Y-12462396D02*
X11741409Y-12471920D01*
X11741409Y-12471920D02*
X11722362Y-12481444D01*
X11722362Y-12481444D02*
X11703314Y-12481444D01*
X11703314Y-12481444D02*
X11684266Y-12471920D01*
X11684266Y-12471920D02*
X11674743Y-12462396D01*
X11674743Y-12462396D02*
X11665219Y-12443348D01*
X11665219Y-12443348D02*
X11655695Y-12405253D01*
X11655695Y-12405253D02*
X11655695Y-12357634D01*
X11655695Y-12357634D02*
X11665219Y-12319539D01*
X11665219Y-12319539D02*
X11674743Y-12300491D01*
X11674743Y-12300491D02*
X11684266Y-12290968D01*
X11684266Y-12290968D02*
X11703314Y-12281444D01*
X11855695Y-12462396D02*
X11865219Y-12471920D01*
X11865219Y-12471920D02*
X11855695Y-12481444D01*
X11855695Y-12481444D02*
X11846171Y-12471920D01*
X11846171Y-12471920D02*
X11855695Y-12462396D01*
X11855695Y-12462396D02*
X11855695Y-12481444D01*
X12055695Y-12481444D02*
X11941409Y-12481444D01*
X11998552Y-12481444D02*
X11998552Y-12281444D01*
X11998552Y-12281444D02*
X11979505Y-12310015D01*
X11979505Y-12310015D02*
X11960457Y-12329063D01*
X11960457Y-12329063D02*
X11941409Y-12338587D01*
X12122362Y-12281444D02*
X12246171Y-12281444D01*
X12246171Y-12281444D02*
X12179505Y-12357634D01*
X12179505Y-12357634D02*
X12208076Y-12357634D01*
X12208076Y-12357634D02*
X12227124Y-12367158D01*
X12227124Y-12367158D02*
X12236647Y-12376682D01*
X12236647Y-12376682D02*
X12246171Y-12395729D01*
X12246171Y-12395729D02*
X12246171Y-12443348D01*
X12246171Y-12443348D02*
X12236647Y-12462396D01*
X12236647Y-12462396D02*
X12227124Y-12471920D01*
X12227124Y-12471920D02*
X12208076Y-12481444D01*
X12208076Y-12481444D02*
X12150933Y-12481444D01*
X12150933Y-12481444D02*
X12131886Y-12471920D01*
X12131886Y-12471920D02*
X12122362Y-12462396D01*
X12312838Y-12281444D02*
X12446171Y-12281444D01*
X12446171Y-12281444D02*
X12360457Y-12481444D01*
X12550933Y-12367158D02*
X12531886Y-12357634D01*
X12531886Y-12357634D02*
X12522362Y-12348110D01*
X12522362Y-12348110D02*
X12512838Y-12329063D01*
X12512838Y-12329063D02*
X12512838Y-12319539D01*
X12512838Y-12319539D02*
X12522362Y-12300491D01*
X12522362Y-12300491D02*
X12531886Y-12290968D01*
X12531886Y-12290968D02*
X12550933Y-12281444D01*
X12550933Y-12281444D02*
X12589028Y-12281444D01*
X12589028Y-12281444D02*
X12608076Y-12290968D01*
X12608076Y-12290968D02*
X12617600Y-12300491D01*
X12617600Y-12300491D02*
X12627124Y-12319539D01*
X12627124Y-12319539D02*
X12627124Y-12329063D01*
X12627124Y-12329063D02*
X12617600Y-12348110D01*
X12617600Y-12348110D02*
X12608076Y-12357634D01*
X12608076Y-12357634D02*
X12589028Y-12367158D01*
X12589028Y-12367158D02*
X12550933Y-12367158D01*
X12550933Y-12367158D02*
X12531886Y-12376682D01*
X12531886Y-12376682D02*
X12522362Y-12386206D01*
X12522362Y-12386206D02*
X12512838Y-12405253D01*
X12512838Y-12405253D02*
X12512838Y-12443348D01*
X12512838Y-12443348D02*
X12522362Y-12462396D01*
X12522362Y-12462396D02*
X12531886Y-12471920D01*
X12531886Y-12471920D02*
X12550933Y-12481444D01*
X12550933Y-12481444D02*
X12589028Y-12481444D01*
X12589028Y-12481444D02*
X12608076Y-12471920D01*
X12608076Y-12471920D02*
X12617600Y-12462396D01*
X12617600Y-12462396D02*
X12627124Y-12443348D01*
X12627124Y-12443348D02*
X12627124Y-12405253D01*
X12627124Y-12405253D02*
X12617600Y-12386206D01*
X12617600Y-12386206D02*
X12608076Y-12376682D01*
X12608076Y-12376682D02*
X12589028Y-12367158D01*
X12703314Y-12281444D02*
X12703314Y-12319539D01*
X12779505Y-12281444D02*
X12779505Y-12319539D01*
X13074743Y-12557634D02*
X13065219Y-12548110D01*
X13065219Y-12548110D02*
X13046171Y-12519539D01*
X13046171Y-12519539D02*
X13036648Y-12500491D01*
X13036648Y-12500491D02*
X13027124Y-12471920D01*
X13027124Y-12471920D02*
X13017600Y-12424301D01*
X13017600Y-12424301D02*
X13017600Y-12386206D01*
X13017600Y-12386206D02*
X13027124Y-12338587D01*
X13027124Y-12338587D02*
X13036648Y-12310015D01*
X13036648Y-12310015D02*
X13046171Y-12290968D01*
X13046171Y-12290968D02*
X13065219Y-12262396D01*
X13065219Y-12262396D02*
X13074743Y-12252872D01*
X13236648Y-12348110D02*
X13236648Y-12481444D01*
X13189028Y-12271920D02*
X13141409Y-12414777D01*
X13141409Y-12414777D02*
X13265219Y-12414777D01*
X13493790Y-12481444D02*
X13493790Y-12281444D01*
X13579505Y-12481444D02*
X13579505Y-12376682D01*
X13579505Y-12376682D02*
X13569981Y-12357634D01*
X13569981Y-12357634D02*
X13550933Y-12348110D01*
X13550933Y-12348110D02*
X13522362Y-12348110D01*
X13522362Y-12348110D02*
X13503314Y-12357634D01*
X13503314Y-12357634D02*
X13493790Y-12367158D01*
X13703314Y-12481444D02*
X13684267Y-12471920D01*
X13684267Y-12471920D02*
X13674743Y-12462396D01*
X13674743Y-12462396D02*
X13665219Y-12443348D01*
X13665219Y-12443348D02*
X13665219Y-12386206D01*
X13665219Y-12386206D02*
X13674743Y-12367158D01*
X13674743Y-12367158D02*
X13684267Y-12357634D01*
X13684267Y-12357634D02*
X13703314Y-12348110D01*
X13703314Y-12348110D02*
X13731886Y-12348110D01*
X13731886Y-12348110D02*
X13750933Y-12357634D01*
X13750933Y-12357634D02*
X13760457Y-12367158D01*
X13760457Y-12367158D02*
X13769981Y-12386206D01*
X13769981Y-12386206D02*
X13769981Y-12443348D01*
X13769981Y-12443348D02*
X13760457Y-12462396D01*
X13760457Y-12462396D02*
X13750933Y-12471920D01*
X13750933Y-12471920D02*
X13731886Y-12481444D01*
X13731886Y-12481444D02*
X13703314Y-12481444D01*
X13884267Y-12481444D02*
X13865219Y-12471920D01*
X13865219Y-12471920D02*
X13855695Y-12452872D01*
X13855695Y-12452872D02*
X13855695Y-12281444D01*
X14036648Y-12471920D02*
X14017600Y-12481444D01*
X14017600Y-12481444D02*
X13979505Y-12481444D01*
X13979505Y-12481444D02*
X13960457Y-12471920D01*
X13960457Y-12471920D02*
X13950933Y-12452872D01*
X13950933Y-12452872D02*
X13950933Y-12376682D01*
X13950933Y-12376682D02*
X13960457Y-12357634D01*
X13960457Y-12357634D02*
X13979505Y-12348110D01*
X13979505Y-12348110D02*
X14017600Y-12348110D01*
X14017600Y-12348110D02*
X14036648Y-12357634D01*
X14036648Y-12357634D02*
X14046171Y-12376682D01*
X14046171Y-12376682D02*
X14046171Y-12395729D01*
X14046171Y-12395729D02*
X13950933Y-12414777D01*
X14122362Y-12471920D02*
X14141410Y-12481444D01*
X14141410Y-12481444D02*
X14179505Y-12481444D01*
X14179505Y-12481444D02*
X14198552Y-12471920D01*
X14198552Y-12471920D02*
X14208076Y-12452872D01*
X14208076Y-12452872D02*
X14208076Y-12443348D01*
X14208076Y-12443348D02*
X14198552Y-12424301D01*
X14198552Y-12424301D02*
X14179505Y-12414777D01*
X14179505Y-12414777D02*
X14150933Y-12414777D01*
X14150933Y-12414777D02*
X14131886Y-12405253D01*
X14131886Y-12405253D02*
X14122362Y-12386206D01*
X14122362Y-12386206D02*
X14122362Y-12376682D01*
X14122362Y-12376682D02*
X14131886Y-12357634D01*
X14131886Y-12357634D02*
X14150933Y-12348110D01*
X14150933Y-12348110D02*
X14179505Y-12348110D01*
X14179505Y-12348110D02*
X14198552Y-12357634D01*
X14274743Y-12557634D02*
X14284267Y-12548110D01*
X14284267Y-12548110D02*
X14303314Y-12519539D01*
X14303314Y-12519539D02*
X14312838Y-12500491D01*
X14312838Y-12500491D02*
X14322362Y-12471920D01*
X14322362Y-12471920D02*
X14331886Y-12424301D01*
X14331886Y-12424301D02*
X14331886Y-12386206D01*
X14331886Y-12386206D02*
X14322362Y-12338587D01*
X14322362Y-12338587D02*
X14312838Y-12310015D01*
X14312838Y-12310015D02*
X14303314Y-12290968D01*
X14303314Y-12290968D02*
X14284267Y-12262396D01*
X14284267Y-12262396D02*
X14274743Y-12252872D01*
X14636648Y-12557634D02*
X14627124Y-12548110D01*
X14627124Y-12548110D02*
X14608076Y-12519539D01*
X14608076Y-12519539D02*
X14598552Y-12500491D01*
X14598552Y-12500491D02*
X14589029Y-12471920D01*
X14589029Y-12471920D02*
X14579505Y-12424301D01*
X14579505Y-12424301D02*
X14579505Y-12386206D01*
X14579505Y-12386206D02*
X14589029Y-12338587D01*
X14589029Y-12338587D02*
X14598552Y-12310015D01*
X14598552Y-12310015D02*
X14608076Y-12290968D01*
X14608076Y-12290968D02*
X14627124Y-12262396D01*
X14627124Y-12262396D02*
X14636648Y-12252872D01*
X14712838Y-12348110D02*
X14712838Y-12481444D01*
X14712838Y-12367158D02*
X14722362Y-12357634D01*
X14722362Y-12357634D02*
X14741410Y-12348110D01*
X14741410Y-12348110D02*
X14769981Y-12348110D01*
X14769981Y-12348110D02*
X14789029Y-12357634D01*
X14789029Y-12357634D02*
X14798552Y-12376682D01*
X14798552Y-12376682D02*
X14798552Y-12481444D01*
X14922362Y-12481444D02*
X14903314Y-12471920D01*
X14903314Y-12471920D02*
X14893791Y-12462396D01*
X14893791Y-12462396D02*
X14884267Y-12443348D01*
X14884267Y-12443348D02*
X14884267Y-12386206D01*
X14884267Y-12386206D02*
X14893791Y-12367158D01*
X14893791Y-12367158D02*
X14903314Y-12357634D01*
X14903314Y-12357634D02*
X14922362Y-12348110D01*
X14922362Y-12348110D02*
X14950933Y-12348110D01*
X14950933Y-12348110D02*
X14969981Y-12357634D01*
X14969981Y-12357634D02*
X14979505Y-12367158D01*
X14979505Y-12367158D02*
X14989029Y-12386206D01*
X14989029Y-12386206D02*
X14989029Y-12443348D01*
X14989029Y-12443348D02*
X14979505Y-12462396D01*
X14979505Y-12462396D02*
X14969981Y-12471920D01*
X14969981Y-12471920D02*
X14950933Y-12481444D01*
X14950933Y-12481444D02*
X14922362Y-12481444D01*
X15046172Y-12348110D02*
X15122362Y-12348110D01*
X15074743Y-12281444D02*
X15074743Y-12452872D01*
X15074743Y-12452872D02*
X15084267Y-12471920D01*
X15084267Y-12471920D02*
X15103314Y-12481444D01*
X15103314Y-12481444D02*
X15122362Y-12481444D01*
X15341410Y-12348110D02*
X15341410Y-12548110D01*
X15341410Y-12357634D02*
X15360457Y-12348110D01*
X15360457Y-12348110D02*
X15398553Y-12348110D01*
X15398553Y-12348110D02*
X15417600Y-12357634D01*
X15417600Y-12357634D02*
X15427124Y-12367158D01*
X15427124Y-12367158D02*
X15436648Y-12386206D01*
X15436648Y-12386206D02*
X15436648Y-12443348D01*
X15436648Y-12443348D02*
X15427124Y-12462396D01*
X15427124Y-12462396D02*
X15417600Y-12471920D01*
X15417600Y-12471920D02*
X15398553Y-12481444D01*
X15398553Y-12481444D02*
X15360457Y-12481444D01*
X15360457Y-12481444D02*
X15341410Y-12471920D01*
X15550933Y-12481444D02*
X15531886Y-12471920D01*
X15531886Y-12471920D02*
X15522362Y-12452872D01*
X15522362Y-12452872D02*
X15522362Y-12281444D01*
X15712838Y-12481444D02*
X15712838Y-12376682D01*
X15712838Y-12376682D02*
X15703314Y-12357634D01*
X15703314Y-12357634D02*
X15684267Y-12348110D01*
X15684267Y-12348110D02*
X15646172Y-12348110D01*
X15646172Y-12348110D02*
X15627124Y-12357634D01*
X15712838Y-12471920D02*
X15693791Y-12481444D01*
X15693791Y-12481444D02*
X15646172Y-12481444D01*
X15646172Y-12481444D02*
X15627124Y-12471920D01*
X15627124Y-12471920D02*
X15617600Y-12452872D01*
X15617600Y-12452872D02*
X15617600Y-12433825D01*
X15617600Y-12433825D02*
X15627124Y-12414777D01*
X15627124Y-12414777D02*
X15646172Y-12405253D01*
X15646172Y-12405253D02*
X15693791Y-12405253D01*
X15693791Y-12405253D02*
X15712838Y-12395729D01*
X15779505Y-12348110D02*
X15855695Y-12348110D01*
X15808076Y-12281444D02*
X15808076Y-12452872D01*
X15808076Y-12452872D02*
X15817600Y-12471920D01*
X15817600Y-12471920D02*
X15836648Y-12481444D01*
X15836648Y-12481444D02*
X15855695Y-12481444D01*
X15998553Y-12471920D02*
X15979505Y-12481444D01*
X15979505Y-12481444D02*
X15941410Y-12481444D01*
X15941410Y-12481444D02*
X15922362Y-12471920D01*
X15922362Y-12471920D02*
X15912838Y-12452872D01*
X15912838Y-12452872D02*
X15912838Y-12376682D01*
X15912838Y-12376682D02*
X15922362Y-12357634D01*
X15922362Y-12357634D02*
X15941410Y-12348110D01*
X15941410Y-12348110D02*
X15979505Y-12348110D01*
X15979505Y-12348110D02*
X15998553Y-12357634D01*
X15998553Y-12357634D02*
X16008076Y-12376682D01*
X16008076Y-12376682D02*
X16008076Y-12395729D01*
X16008076Y-12395729D02*
X15912838Y-12414777D01*
X16179505Y-12481444D02*
X16179505Y-12281444D01*
X16179505Y-12471920D02*
X16160457Y-12481444D01*
X16160457Y-12481444D02*
X16122362Y-12481444D01*
X16122362Y-12481444D02*
X16103314Y-12471920D01*
X16103314Y-12471920D02*
X16093791Y-12462396D01*
X16093791Y-12462396D02*
X16084267Y-12443348D01*
X16084267Y-12443348D02*
X16084267Y-12386206D01*
X16084267Y-12386206D02*
X16093791Y-12367158D01*
X16093791Y-12367158D02*
X16103314Y-12357634D01*
X16103314Y-12357634D02*
X16122362Y-12348110D01*
X16122362Y-12348110D02*
X16160457Y-12348110D01*
X16160457Y-12348110D02*
X16179505Y-12357634D01*
X16255695Y-12557634D02*
X16265219Y-12548110D01*
X16265219Y-12548110D02*
X16284267Y-12519539D01*
X16284267Y-12519539D02*
X16293791Y-12500491D01*
X16293791Y-12500491D02*
X16303314Y-12471920D01*
X16303314Y-12471920D02*
X16312838Y-12424301D01*
X16312838Y-12424301D02*
X16312838Y-12386206D01*
X16312838Y-12386206D02*
X16303314Y-12338587D01*
X16303314Y-12338587D02*
X16293791Y-12310015D01*
X16293791Y-12310015D02*
X16284267Y-12290968D01*
X16284267Y-12290968D02*
X16265219Y-12262396D01*
X16265219Y-12262396D02*
X16255695Y-12252872D01*
M02*
