M48
; DRILL file {KiCad 7.0.5} date Sun Dec 17 15:07:59 2023
; FORMAT={-:-/ absolute / inch / decimal}
; #@! TF.CreationDate,2023-12-17T15:07:59+05:30
; #@! TF.GenerationSoftware,Kicad,Pcbnew,7.0.5
; #@! TF.FileFunction,Plated,1,2,PTH
FMAT,2
INCH
; #@! TA.AperFunction,Plated,PTH,ComponentDrill
T1C0.0315
; #@! TA.AperFunction,Plated,PTH,ComponentDrill
T2C0.0394
; #@! TA.AperFunction,Plated,PTH,ComponentDrill
T3C0.0512
%
G90
G05
T1
X5.856Y-1.398
X5.856Y-1.798
X6.092Y-1.397
X6.092Y-1.797
X6.242Y-1.397
X6.242Y-1.797
X6.369Y-4.155
X6.769Y-4.155
T2
X4.8903Y-3.8653
X4.9903Y-3.8653
X5.0903Y-3.8653
X5.1903Y-3.8653
X5.2501Y-1.9653
X5.2903Y-3.8653
X5.3501Y-1.9653
X5.3903Y-3.8653
X5.4501Y-1.9653
X5.4903Y-3.8653
X5.5501Y-1.9653
X5.5903Y-3.8653
X5.6501Y-1.9653
X5.6903Y-3.8653
X5.7501Y-1.9653
X5.7874Y-4.274
X5.7903Y-3.8653
X5.8501Y-1.9653
X5.9501Y-1.9653
X5.9501Y-3.8653
X6.0501Y-3.8653
X6.0866Y-4.274
X6.1501Y-1.9653
X6.1501Y-3.8653
X6.2501Y-1.9653
X6.2501Y-3.8653
X6.3501Y-1.9653
X6.3501Y-3.8653
X6.4501Y-1.9653
X6.4501Y-3.8653
X6.5501Y-1.9653
X6.5501Y-3.8653
X6.6501Y-1.9653
X6.6501Y-3.8653
T3
X4.8772Y-1.566
X5.0772Y-1.566
X5.438Y-1.567
X5.638Y-1.567
X6.5032Y-1.561
X6.7032Y-1.561
X7.147Y-1.466
X7.147Y-1.666
X7.147Y-1.866
X7.159Y-2.194
X7.159Y-2.394
X7.159Y-2.594
X7.166Y-2.958
X7.166Y-3.158
X7.171Y-3.527
X7.171Y-3.727
X7.171Y-3.927
T0
M30
