%TF.GenerationSoftware,KiCad,Pcbnew,7.0.5*%
%TF.CreationDate,2023-12-17T15:08:04+05:30*%
%TF.ProjectId,LV conn,4c562063-6f6e-46e2-9e6b-696361645f70,rev?*%
%TF.SameCoordinates,Original*%
%TF.FileFunction,Soldermask,Bot*%
%TF.FilePolarity,Negative*%
%FSLAX46Y46*%
G04 Gerber Fmt 4.6, Leading zero omitted, Abs format (unit mm)*
G04 Created by KiCad (PCBNEW 7.0.5) date 2023-12-17 15:08:04*
%MOMM*%
%LPD*%
G01*
G04 APERTURE LIST*
%ADD10C,1.600000*%
%ADD11O,1.600000X1.600000*%
%ADD12C,3.500000*%
%ADD13R,2.600000X2.600000*%
%ADD14C,2.600000*%
%ADD15R,2.000000X2.000000*%
%ADD16C,2.000000*%
%ADD17R,1.600000X1.600000*%
G04 APERTURE END LIST*
D10*
%TO.C,R3_RTD1*%
X148742400Y-35509200D03*
D11*
X148742400Y-45669200D03*
%TD*%
D12*
%TO.C,REF\u002A\u002A*%
X99568000Y-35052000D03*
%TD*%
%TO.C,REF\u002A\u002A*%
X190068200Y-111988600D03*
%TD*%
D13*
%TO.C,J1_Buck_Con_Ar1*%
X143205200Y-39801800D03*
D14*
X138125200Y-39801800D03*
%TD*%
D13*
%TO.C,J3_POT1*%
X181533800Y-47396400D03*
D14*
X181533800Y-42316400D03*
X181533800Y-37236400D03*
%TD*%
D12*
%TO.C,REF\u002A\u002A*%
X100025200Y-112293400D03*
%TD*%
D10*
%TO.C,R1_POT1*%
X158546800Y-35483800D03*
D11*
X158546800Y-45643800D03*
%TD*%
D13*
%TO.C,J7_Brake_Switch1*%
X128960800Y-39776200D03*
D14*
X123880800Y-39776200D03*
%TD*%
D13*
%TO.C,J6_RTD_Switch1*%
X170261200Y-39649200D03*
D14*
X165181200Y-39649200D03*
%TD*%
D15*
%TO.C,BZ1_Buzzer1*%
X146999800Y-108559600D03*
D16*
X154599800Y-108559600D03*
%TD*%
D10*
%TO.C,R2_POT2*%
X154736800Y-45643800D03*
D11*
X154736800Y-35483800D03*
%TD*%
D17*
%TO.C,A1*%
X133353400Y-49917400D03*
D11*
X135893400Y-49917400D03*
X138433400Y-49917400D03*
X140973400Y-49917400D03*
X143513400Y-49917400D03*
X146053400Y-49917400D03*
X148593400Y-49917400D03*
X151133400Y-49917400D03*
X156213400Y-49917400D03*
X158753400Y-49917400D03*
X161293400Y-49917400D03*
X163833400Y-49917400D03*
X166373400Y-49917400D03*
X168913400Y-49917400D03*
X168913400Y-98177400D03*
X166373400Y-98177400D03*
X163833400Y-98177400D03*
X161293400Y-98177400D03*
X158753400Y-98177400D03*
X156213400Y-98177400D03*
X153673400Y-98177400D03*
X151133400Y-98177400D03*
X147073400Y-98177400D03*
X144533400Y-98177400D03*
X141993400Y-98177400D03*
X139453400Y-98177400D03*
X136913400Y-98177400D03*
X134373400Y-98177400D03*
X131833400Y-98177400D03*
X129293400Y-98177400D03*
X126753400Y-98177400D03*
X124213400Y-98177400D03*
%TD*%
D13*
%TO.C,J5_Relay_Module1*%
X182143400Y-99745800D03*
D14*
X182143400Y-94665800D03*
X182143400Y-89585800D03*
%TD*%
D13*
%TO.C,J4_POT2*%
X181838600Y-65887600D03*
D14*
X181838600Y-60807600D03*
X181838600Y-55727600D03*
%TD*%
D13*
%TO.C,J2_Buck_con_relay1*%
X182016400Y-80213200D03*
D14*
X182016400Y-75133200D03*
%TD*%
D10*
%TO.C,R4_Brake1*%
X161772600Y-105537000D03*
D11*
X171932600Y-105537000D03*
%TD*%
D12*
%TO.C,REF\u002A\u002A*%
X191338200Y-34493200D03*
%TD*%
M02*
