%TF.GenerationSoftware,KiCad,Pcbnew,7.0.5*%
%TF.CreationDate,2023-12-17T15:08:04+05:30*%
%TF.ProjectId,LV conn,4c562063-6f6e-46e2-9e6b-696361645f70,rev?*%
%TF.SameCoordinates,Original*%
%TF.FileFunction,Legend,Top*%
%TF.FilePolarity,Positive*%
%FSLAX46Y46*%
G04 Gerber Fmt 4.6, Leading zero omitted, Abs format (unit mm)*
G04 Created by KiCad (PCBNEW 7.0.5) date 2023-12-17 15:08:04*
%MOMM*%
%LPD*%
G01*
G04 APERTURE LIST*
%ADD10C,0.150000*%
%ADD11C,0.120000*%
G04 APERTURE END LIST*
D10*
X164547779Y-33245419D02*
X164547779Y-32245419D01*
X164547779Y-32245419D02*
X164785874Y-32245419D01*
X164785874Y-32245419D02*
X164928731Y-32293038D01*
X164928731Y-32293038D02*
X165023969Y-32388276D01*
X165023969Y-32388276D02*
X165071588Y-32483514D01*
X165071588Y-32483514D02*
X165119207Y-32673990D01*
X165119207Y-32673990D02*
X165119207Y-32816847D01*
X165119207Y-32816847D02*
X165071588Y-33007323D01*
X165071588Y-33007323D02*
X165023969Y-33102561D01*
X165023969Y-33102561D02*
X164928731Y-33197800D01*
X164928731Y-33197800D02*
X164785874Y-33245419D01*
X164785874Y-33245419D02*
X164547779Y-33245419D01*
X165452541Y-32245419D02*
X166071588Y-32245419D01*
X166071588Y-32245419D02*
X165738255Y-32626371D01*
X165738255Y-32626371D02*
X165881112Y-32626371D01*
X165881112Y-32626371D02*
X165976350Y-32673990D01*
X165976350Y-32673990D02*
X166023969Y-32721609D01*
X166023969Y-32721609D02*
X166071588Y-32816847D01*
X166071588Y-32816847D02*
X166071588Y-33054942D01*
X166071588Y-33054942D02*
X166023969Y-33150180D01*
X166023969Y-33150180D02*
X165976350Y-33197800D01*
X165976350Y-33197800D02*
X165881112Y-33245419D01*
X165881112Y-33245419D02*
X165595398Y-33245419D01*
X165595398Y-33245419D02*
X165500160Y-33197800D01*
X165500160Y-33197800D02*
X165452541Y-33150180D01*
X188550779Y-95145219D02*
X188550779Y-94145219D01*
X188550779Y-94145219D02*
X188788874Y-94145219D01*
X188788874Y-94145219D02*
X188931731Y-94192838D01*
X188931731Y-94192838D02*
X189026969Y-94288076D01*
X189026969Y-94288076D02*
X189074588Y-94383314D01*
X189074588Y-94383314D02*
X189122207Y-94573790D01*
X189122207Y-94573790D02*
X189122207Y-94716647D01*
X189122207Y-94716647D02*
X189074588Y-94907123D01*
X189074588Y-94907123D02*
X189026969Y-95002361D01*
X189026969Y-95002361D02*
X188931731Y-95097600D01*
X188931731Y-95097600D02*
X188788874Y-95145219D01*
X188788874Y-95145219D02*
X188550779Y-95145219D01*
X189979350Y-94478552D02*
X189979350Y-95145219D01*
X189741255Y-94097600D02*
X189503160Y-94811885D01*
X189503160Y-94811885D02*
X190122207Y-94811885D01*
X188245979Y-100149066D02*
X189007884Y-100149066D01*
X188626931Y-100530019D02*
X188626931Y-99768114D01*
X189960264Y-99530019D02*
X189484074Y-99530019D01*
X189484074Y-99530019D02*
X189436455Y-100006209D01*
X189436455Y-100006209D02*
X189484074Y-99958590D01*
X189484074Y-99958590D02*
X189579312Y-99910971D01*
X189579312Y-99910971D02*
X189817407Y-99910971D01*
X189817407Y-99910971D02*
X189912645Y-99958590D01*
X189912645Y-99958590D02*
X189960264Y-100006209D01*
X189960264Y-100006209D02*
X190007883Y-100101447D01*
X190007883Y-100101447D02*
X190007883Y-100339542D01*
X190007883Y-100339542D02*
X189960264Y-100434780D01*
X189960264Y-100434780D02*
X189912645Y-100482400D01*
X189912645Y-100482400D02*
X189817407Y-100530019D01*
X189817407Y-100530019D02*
X189579312Y-100530019D01*
X189579312Y-100530019D02*
X189484074Y-100482400D01*
X189484074Y-100482400D02*
X189436455Y-100434780D01*
X190293598Y-99530019D02*
X190626931Y-100530019D01*
X190626931Y-100530019D02*
X190960264Y-99530019D01*
X123145779Y-33321619D02*
X123145779Y-32321619D01*
X123145779Y-32321619D02*
X123383874Y-32321619D01*
X123383874Y-32321619D02*
X123526731Y-32369238D01*
X123526731Y-32369238D02*
X123621969Y-32464476D01*
X123621969Y-32464476D02*
X123669588Y-32559714D01*
X123669588Y-32559714D02*
X123717207Y-32750190D01*
X123717207Y-32750190D02*
X123717207Y-32893047D01*
X123717207Y-32893047D02*
X123669588Y-33083523D01*
X123669588Y-33083523D02*
X123621969Y-33178761D01*
X123621969Y-33178761D02*
X123526731Y-33274000D01*
X123526731Y-33274000D02*
X123383874Y-33321619D01*
X123383874Y-33321619D02*
X123145779Y-33321619D01*
X124098160Y-32416857D02*
X124145779Y-32369238D01*
X124145779Y-32369238D02*
X124241017Y-32321619D01*
X124241017Y-32321619D02*
X124479112Y-32321619D01*
X124479112Y-32321619D02*
X124574350Y-32369238D01*
X124574350Y-32369238D02*
X124621969Y-32416857D01*
X124621969Y-32416857D02*
X124669588Y-32512095D01*
X124669588Y-32512095D02*
X124669588Y-32607333D01*
X124669588Y-32607333D02*
X124621969Y-32750190D01*
X124621969Y-32750190D02*
X124050541Y-33321619D01*
X124050541Y-33321619D02*
X124669588Y-33321619D01*
X188950769Y-47231419D02*
X188474579Y-47231419D01*
X188474579Y-47231419D02*
X188426960Y-47707609D01*
X188426960Y-47707609D02*
X188474579Y-47659990D01*
X188474579Y-47659990D02*
X188569817Y-47612371D01*
X188569817Y-47612371D02*
X188807912Y-47612371D01*
X188807912Y-47612371D02*
X188903150Y-47659990D01*
X188903150Y-47659990D02*
X188950769Y-47707609D01*
X188950769Y-47707609D02*
X188998388Y-47802847D01*
X188998388Y-47802847D02*
X188998388Y-48040942D01*
X188998388Y-48040942D02*
X188950769Y-48136180D01*
X188950769Y-48136180D02*
X188903150Y-48183800D01*
X188903150Y-48183800D02*
X188807912Y-48231419D01*
X188807912Y-48231419D02*
X188569817Y-48231419D01*
X188569817Y-48231419D02*
X188474579Y-48183800D01*
X188474579Y-48183800D02*
X188426960Y-48136180D01*
X189284103Y-47231419D02*
X189617436Y-48231419D01*
X189617436Y-48231419D02*
X189950769Y-47231419D01*
X188198360Y-42662504D02*
X188674550Y-42662504D01*
X188103122Y-42948219D02*
X188436455Y-41948219D01*
X188436455Y-41948219D02*
X188769788Y-42948219D01*
X189293598Y-41948219D02*
X189388836Y-41948219D01*
X189388836Y-41948219D02*
X189484074Y-41995838D01*
X189484074Y-41995838D02*
X189531693Y-42043457D01*
X189531693Y-42043457D02*
X189579312Y-42138695D01*
X189579312Y-42138695D02*
X189626931Y-42329171D01*
X189626931Y-42329171D02*
X189626931Y-42567266D01*
X189626931Y-42567266D02*
X189579312Y-42757742D01*
X189579312Y-42757742D02*
X189531693Y-42852980D01*
X189531693Y-42852980D02*
X189484074Y-42900600D01*
X189484074Y-42900600D02*
X189388836Y-42948219D01*
X189388836Y-42948219D02*
X189293598Y-42948219D01*
X189293598Y-42948219D02*
X189198360Y-42900600D01*
X189198360Y-42900600D02*
X189150741Y-42852980D01*
X189150741Y-42852980D02*
X189103122Y-42757742D01*
X189103122Y-42757742D02*
X189055503Y-42567266D01*
X189055503Y-42567266D02*
X189055503Y-42329171D01*
X189055503Y-42329171D02*
X189103122Y-42138695D01*
X189103122Y-42138695D02*
X189150741Y-42043457D01*
X189150741Y-42043457D02*
X189198360Y-41995838D01*
X189198360Y-41995838D02*
X189293598Y-41948219D01*
X188379341Y-65824219D02*
X188998388Y-65824219D01*
X188998388Y-65824219D02*
X188665055Y-66205171D01*
X188665055Y-66205171D02*
X188807912Y-66205171D01*
X188807912Y-66205171D02*
X188903150Y-66252790D01*
X188903150Y-66252790D02*
X188950769Y-66300409D01*
X188950769Y-66300409D02*
X188998388Y-66395647D01*
X188998388Y-66395647D02*
X188998388Y-66633742D01*
X188998388Y-66633742D02*
X188950769Y-66728980D01*
X188950769Y-66728980D02*
X188903150Y-66776600D01*
X188903150Y-66776600D02*
X188807912Y-66824219D01*
X188807912Y-66824219D02*
X188522198Y-66824219D01*
X188522198Y-66824219D02*
X188426960Y-66776600D01*
X188426960Y-66776600D02*
X188379341Y-66728980D01*
X189426960Y-66728980D02*
X189474579Y-66776600D01*
X189474579Y-66776600D02*
X189426960Y-66824219D01*
X189426960Y-66824219D02*
X189379341Y-66776600D01*
X189379341Y-66776600D02*
X189426960Y-66728980D01*
X189426960Y-66728980D02*
X189426960Y-66824219D01*
X189807912Y-65824219D02*
X190426959Y-65824219D01*
X190426959Y-65824219D02*
X190093626Y-66205171D01*
X190093626Y-66205171D02*
X190236483Y-66205171D01*
X190236483Y-66205171D02*
X190331721Y-66252790D01*
X190331721Y-66252790D02*
X190379340Y-66300409D01*
X190379340Y-66300409D02*
X190426959Y-66395647D01*
X190426959Y-66395647D02*
X190426959Y-66633742D01*
X190426959Y-66633742D02*
X190379340Y-66728980D01*
X190379340Y-66728980D02*
X190331721Y-66776600D01*
X190331721Y-66776600D02*
X190236483Y-66824219D01*
X190236483Y-66824219D02*
X189950769Y-66824219D01*
X189950769Y-66824219D02*
X189855531Y-66776600D01*
X189855531Y-66776600D02*
X189807912Y-66728980D01*
X190712674Y-65824219D02*
X191046007Y-66824219D01*
X191046007Y-66824219D02*
X191379340Y-65824219D01*
X188426960Y-61026704D02*
X188903150Y-61026704D01*
X188331722Y-61312419D02*
X188665055Y-60312419D01*
X188665055Y-60312419D02*
X188998388Y-61312419D01*
X189855531Y-61312419D02*
X189284103Y-61312419D01*
X189569817Y-61312419D02*
X189569817Y-60312419D01*
X189569817Y-60312419D02*
X189474579Y-60455276D01*
X189474579Y-60455276D02*
X189379341Y-60550514D01*
X189379341Y-60550514D02*
X189284103Y-60598133D01*
X129006769Y-32397819D02*
X128530579Y-32397819D01*
X128530579Y-32397819D02*
X128482960Y-32874009D01*
X128482960Y-32874009D02*
X128530579Y-32826390D01*
X128530579Y-32826390D02*
X128625817Y-32778771D01*
X128625817Y-32778771D02*
X128863912Y-32778771D01*
X128863912Y-32778771D02*
X128959150Y-32826390D01*
X128959150Y-32826390D02*
X129006769Y-32874009D01*
X129006769Y-32874009D02*
X129054388Y-32969247D01*
X129054388Y-32969247D02*
X129054388Y-33207342D01*
X129054388Y-33207342D02*
X129006769Y-33302580D01*
X129006769Y-33302580D02*
X128959150Y-33350200D01*
X128959150Y-33350200D02*
X128863912Y-33397819D01*
X128863912Y-33397819D02*
X128625817Y-33397819D01*
X128625817Y-33397819D02*
X128530579Y-33350200D01*
X128530579Y-33350200D02*
X128482960Y-33302580D01*
X129340103Y-32397819D02*
X129673436Y-33397819D01*
X129673436Y-33397819D02*
X130006769Y-32397819D01*
X137563388Y-32420038D02*
X137468150Y-32372419D01*
X137468150Y-32372419D02*
X137325293Y-32372419D01*
X137325293Y-32372419D02*
X137182436Y-32420038D01*
X137182436Y-32420038D02*
X137087198Y-32515276D01*
X137087198Y-32515276D02*
X137039579Y-32610514D01*
X137039579Y-32610514D02*
X136991960Y-32800990D01*
X136991960Y-32800990D02*
X136991960Y-32943847D01*
X136991960Y-32943847D02*
X137039579Y-33134323D01*
X137039579Y-33134323D02*
X137087198Y-33229561D01*
X137087198Y-33229561D02*
X137182436Y-33324800D01*
X137182436Y-33324800D02*
X137325293Y-33372419D01*
X137325293Y-33372419D02*
X137420531Y-33372419D01*
X137420531Y-33372419D02*
X137563388Y-33324800D01*
X137563388Y-33324800D02*
X137611007Y-33277180D01*
X137611007Y-33277180D02*
X137611007Y-32943847D01*
X137611007Y-32943847D02*
X137420531Y-32943847D01*
X138039579Y-33372419D02*
X138039579Y-32372419D01*
X138039579Y-32372419D02*
X138611007Y-33372419D01*
X138611007Y-33372419D02*
X138611007Y-32372419D01*
X139087198Y-33372419D02*
X139087198Y-32372419D01*
X139087198Y-32372419D02*
X139325293Y-32372419D01*
X139325293Y-32372419D02*
X139468150Y-32420038D01*
X139468150Y-32420038D02*
X139563388Y-32515276D01*
X139563388Y-32515276D02*
X139611007Y-32610514D01*
X139611007Y-32610514D02*
X139658626Y-32800990D01*
X139658626Y-32800990D02*
X139658626Y-32943847D01*
X139658626Y-32943847D02*
X139611007Y-33134323D01*
X139611007Y-33134323D02*
X139563388Y-33229561D01*
X139563388Y-33229561D02*
X139468150Y-33324800D01*
X139468150Y-33324800D02*
X139325293Y-33372419D01*
X139325293Y-33372419D02*
X139087198Y-33372419D01*
X188693588Y-55432438D02*
X188598350Y-55384819D01*
X188598350Y-55384819D02*
X188455493Y-55384819D01*
X188455493Y-55384819D02*
X188312636Y-55432438D01*
X188312636Y-55432438D02*
X188217398Y-55527676D01*
X188217398Y-55527676D02*
X188169779Y-55622914D01*
X188169779Y-55622914D02*
X188122160Y-55813390D01*
X188122160Y-55813390D02*
X188122160Y-55956247D01*
X188122160Y-55956247D02*
X188169779Y-56146723D01*
X188169779Y-56146723D02*
X188217398Y-56241961D01*
X188217398Y-56241961D02*
X188312636Y-56337200D01*
X188312636Y-56337200D02*
X188455493Y-56384819D01*
X188455493Y-56384819D02*
X188550731Y-56384819D01*
X188550731Y-56384819D02*
X188693588Y-56337200D01*
X188693588Y-56337200D02*
X188741207Y-56289580D01*
X188741207Y-56289580D02*
X188741207Y-55956247D01*
X188741207Y-55956247D02*
X188550731Y-55956247D01*
X189169779Y-56384819D02*
X189169779Y-55384819D01*
X189169779Y-55384819D02*
X189741207Y-56384819D01*
X189741207Y-56384819D02*
X189741207Y-55384819D01*
X190217398Y-56384819D02*
X190217398Y-55384819D01*
X190217398Y-55384819D02*
X190455493Y-55384819D01*
X190455493Y-55384819D02*
X190598350Y-55432438D01*
X190598350Y-55432438D02*
X190693588Y-55527676D01*
X190693588Y-55527676D02*
X190741207Y-55622914D01*
X190741207Y-55622914D02*
X190788826Y-55813390D01*
X190788826Y-55813390D02*
X190788826Y-55956247D01*
X190788826Y-55956247D02*
X190741207Y-56146723D01*
X190741207Y-56146723D02*
X190693588Y-56241961D01*
X190693588Y-56241961D02*
X190598350Y-56337200D01*
X190598350Y-56337200D02*
X190455493Y-56384819D01*
X190455493Y-56384819D02*
X190217398Y-56384819D01*
X189176188Y-89265238D02*
X189080950Y-89217619D01*
X189080950Y-89217619D02*
X188938093Y-89217619D01*
X188938093Y-89217619D02*
X188795236Y-89265238D01*
X188795236Y-89265238D02*
X188699998Y-89360476D01*
X188699998Y-89360476D02*
X188652379Y-89455714D01*
X188652379Y-89455714D02*
X188604760Y-89646190D01*
X188604760Y-89646190D02*
X188604760Y-89789047D01*
X188604760Y-89789047D02*
X188652379Y-89979523D01*
X188652379Y-89979523D02*
X188699998Y-90074761D01*
X188699998Y-90074761D02*
X188795236Y-90170000D01*
X188795236Y-90170000D02*
X188938093Y-90217619D01*
X188938093Y-90217619D02*
X189033331Y-90217619D01*
X189033331Y-90217619D02*
X189176188Y-90170000D01*
X189176188Y-90170000D02*
X189223807Y-90122380D01*
X189223807Y-90122380D02*
X189223807Y-89789047D01*
X189223807Y-89789047D02*
X189033331Y-89789047D01*
X189652379Y-90217619D02*
X189652379Y-89217619D01*
X189652379Y-89217619D02*
X190223807Y-90217619D01*
X190223807Y-90217619D02*
X190223807Y-89217619D01*
X190699998Y-90217619D02*
X190699998Y-89217619D01*
X190699998Y-89217619D02*
X190938093Y-89217619D01*
X190938093Y-89217619D02*
X191080950Y-89265238D01*
X191080950Y-89265238D02*
X191176188Y-89360476D01*
X191176188Y-89360476D02*
X191223807Y-89455714D01*
X191223807Y-89455714D02*
X191271426Y-89646190D01*
X191271426Y-89646190D02*
X191271426Y-89789047D01*
X191271426Y-89789047D02*
X191223807Y-89979523D01*
X191223807Y-89979523D02*
X191176188Y-90074761D01*
X191176188Y-90074761D02*
X191080950Y-90170000D01*
X191080950Y-90170000D02*
X190938093Y-90217619D01*
X190938093Y-90217619D02*
X190699998Y-90217619D01*
X189099988Y-74634838D02*
X189004750Y-74587219D01*
X189004750Y-74587219D02*
X188861893Y-74587219D01*
X188861893Y-74587219D02*
X188719036Y-74634838D01*
X188719036Y-74634838D02*
X188623798Y-74730076D01*
X188623798Y-74730076D02*
X188576179Y-74825314D01*
X188576179Y-74825314D02*
X188528560Y-75015790D01*
X188528560Y-75015790D02*
X188528560Y-75158647D01*
X188528560Y-75158647D02*
X188576179Y-75349123D01*
X188576179Y-75349123D02*
X188623798Y-75444361D01*
X188623798Y-75444361D02*
X188719036Y-75539600D01*
X188719036Y-75539600D02*
X188861893Y-75587219D01*
X188861893Y-75587219D02*
X188957131Y-75587219D01*
X188957131Y-75587219D02*
X189099988Y-75539600D01*
X189099988Y-75539600D02*
X189147607Y-75491980D01*
X189147607Y-75491980D02*
X189147607Y-75158647D01*
X189147607Y-75158647D02*
X188957131Y-75158647D01*
X189576179Y-75587219D02*
X189576179Y-74587219D01*
X189576179Y-74587219D02*
X190147607Y-75587219D01*
X190147607Y-75587219D02*
X190147607Y-74587219D01*
X190623798Y-75587219D02*
X190623798Y-74587219D01*
X190623798Y-74587219D02*
X190861893Y-74587219D01*
X190861893Y-74587219D02*
X191004750Y-74634838D01*
X191004750Y-74634838D02*
X191099988Y-74730076D01*
X191099988Y-74730076D02*
X191147607Y-74825314D01*
X191147607Y-74825314D02*
X191195226Y-75015790D01*
X191195226Y-75015790D02*
X191195226Y-75158647D01*
X191195226Y-75158647D02*
X191147607Y-75349123D01*
X191147607Y-75349123D02*
X191099988Y-75444361D01*
X191099988Y-75444361D02*
X191004750Y-75539600D01*
X191004750Y-75539600D02*
X190861893Y-75587219D01*
X190861893Y-75587219D02*
X190623798Y-75587219D01*
X188347579Y-80540266D02*
X189109484Y-80540266D01*
X188728531Y-80921219D02*
X188728531Y-80159314D01*
X190061864Y-79921219D02*
X189585674Y-79921219D01*
X189585674Y-79921219D02*
X189538055Y-80397409D01*
X189538055Y-80397409D02*
X189585674Y-80349790D01*
X189585674Y-80349790D02*
X189680912Y-80302171D01*
X189680912Y-80302171D02*
X189919007Y-80302171D01*
X189919007Y-80302171D02*
X190014245Y-80349790D01*
X190014245Y-80349790D02*
X190061864Y-80397409D01*
X190061864Y-80397409D02*
X190109483Y-80492647D01*
X190109483Y-80492647D02*
X190109483Y-80730742D01*
X190109483Y-80730742D02*
X190061864Y-80825980D01*
X190061864Y-80825980D02*
X190014245Y-80873600D01*
X190014245Y-80873600D02*
X189919007Y-80921219D01*
X189919007Y-80921219D02*
X189680912Y-80921219D01*
X189680912Y-80921219D02*
X189585674Y-80873600D01*
X189585674Y-80873600D02*
X189538055Y-80825980D01*
X190395198Y-79921219D02*
X190728531Y-80921219D01*
X190728531Y-80921219D02*
X191061864Y-79921219D01*
X170662769Y-32194619D02*
X170186579Y-32194619D01*
X170186579Y-32194619D02*
X170138960Y-32670809D01*
X170138960Y-32670809D02*
X170186579Y-32623190D01*
X170186579Y-32623190D02*
X170281817Y-32575571D01*
X170281817Y-32575571D02*
X170519912Y-32575571D01*
X170519912Y-32575571D02*
X170615150Y-32623190D01*
X170615150Y-32623190D02*
X170662769Y-32670809D01*
X170662769Y-32670809D02*
X170710388Y-32766047D01*
X170710388Y-32766047D02*
X170710388Y-33004142D01*
X170710388Y-33004142D02*
X170662769Y-33099380D01*
X170662769Y-33099380D02*
X170615150Y-33147000D01*
X170615150Y-33147000D02*
X170519912Y-33194619D01*
X170519912Y-33194619D02*
X170281817Y-33194619D01*
X170281817Y-33194619D02*
X170186579Y-33147000D01*
X170186579Y-33147000D02*
X170138960Y-33099380D01*
X170996103Y-32194619D02*
X171329436Y-33194619D01*
X171329436Y-33194619D02*
X171662769Y-32194619D01*
X141814779Y-32991466D02*
X142576684Y-32991466D01*
X142195731Y-33372419D02*
X142195731Y-32610514D01*
X143100493Y-33372419D02*
X143290969Y-33372419D01*
X143290969Y-33372419D02*
X143386207Y-33324800D01*
X143386207Y-33324800D02*
X143433826Y-33277180D01*
X143433826Y-33277180D02*
X143529064Y-33134323D01*
X143529064Y-33134323D02*
X143576683Y-32943847D01*
X143576683Y-32943847D02*
X143576683Y-32562895D01*
X143576683Y-32562895D02*
X143529064Y-32467657D01*
X143529064Y-32467657D02*
X143481445Y-32420038D01*
X143481445Y-32420038D02*
X143386207Y-32372419D01*
X143386207Y-32372419D02*
X143195731Y-32372419D01*
X143195731Y-32372419D02*
X143100493Y-32420038D01*
X143100493Y-32420038D02*
X143052874Y-32467657D01*
X143052874Y-32467657D02*
X143005255Y-32562895D01*
X143005255Y-32562895D02*
X143005255Y-32800990D01*
X143005255Y-32800990D02*
X143052874Y-32896228D01*
X143052874Y-32896228D02*
X143100493Y-32943847D01*
X143100493Y-32943847D02*
X143195731Y-32991466D01*
X143195731Y-32991466D02*
X143386207Y-32991466D01*
X143386207Y-32991466D02*
X143481445Y-32943847D01*
X143481445Y-32943847D02*
X143529064Y-32896228D01*
X143529064Y-32896228D02*
X143576683Y-32800990D01*
X143862398Y-32372419D02*
X144195731Y-33372419D01*
X144195731Y-33372419D02*
X144529064Y-32372419D01*
X188617388Y-36890438D02*
X188522150Y-36842819D01*
X188522150Y-36842819D02*
X188379293Y-36842819D01*
X188379293Y-36842819D02*
X188236436Y-36890438D01*
X188236436Y-36890438D02*
X188141198Y-36985676D01*
X188141198Y-36985676D02*
X188093579Y-37080914D01*
X188093579Y-37080914D02*
X188045960Y-37271390D01*
X188045960Y-37271390D02*
X188045960Y-37414247D01*
X188045960Y-37414247D02*
X188093579Y-37604723D01*
X188093579Y-37604723D02*
X188141198Y-37699961D01*
X188141198Y-37699961D02*
X188236436Y-37795200D01*
X188236436Y-37795200D02*
X188379293Y-37842819D01*
X188379293Y-37842819D02*
X188474531Y-37842819D01*
X188474531Y-37842819D02*
X188617388Y-37795200D01*
X188617388Y-37795200D02*
X188665007Y-37747580D01*
X188665007Y-37747580D02*
X188665007Y-37414247D01*
X188665007Y-37414247D02*
X188474531Y-37414247D01*
X189093579Y-37842819D02*
X189093579Y-36842819D01*
X189093579Y-36842819D02*
X189665007Y-37842819D01*
X189665007Y-37842819D02*
X189665007Y-36842819D01*
X190141198Y-37842819D02*
X190141198Y-36842819D01*
X190141198Y-36842819D02*
X190379293Y-36842819D01*
X190379293Y-36842819D02*
X190522150Y-36890438D01*
X190522150Y-36890438D02*
X190617388Y-36985676D01*
X190617388Y-36985676D02*
X190665007Y-37080914D01*
X190665007Y-37080914D02*
X190712626Y-37271390D01*
X190712626Y-37271390D02*
X190712626Y-37414247D01*
X190712626Y-37414247D02*
X190665007Y-37604723D01*
X190665007Y-37604723D02*
X190617388Y-37699961D01*
X190617388Y-37699961D02*
X190522150Y-37795200D01*
X190522150Y-37795200D02*
X190379293Y-37842819D01*
X190379293Y-37842819D02*
X190141198Y-37842819D01*
%TO.C,R3_RTD1*%
X151567219Y-42993962D02*
X151091028Y-43327295D01*
X151567219Y-43565390D02*
X150567219Y-43565390D01*
X150567219Y-43565390D02*
X150567219Y-43184438D01*
X150567219Y-43184438D02*
X150614838Y-43089200D01*
X150614838Y-43089200D02*
X150662457Y-43041581D01*
X150662457Y-43041581D02*
X150757695Y-42993962D01*
X150757695Y-42993962D02*
X150900552Y-42993962D01*
X150900552Y-42993962D02*
X150995790Y-43041581D01*
X150995790Y-43041581D02*
X151043409Y-43089200D01*
X151043409Y-43089200D02*
X151091028Y-43184438D01*
X151091028Y-43184438D02*
X151091028Y-43565390D01*
X150567219Y-42660628D02*
X150567219Y-42041581D01*
X150567219Y-42041581D02*
X150948171Y-42374914D01*
X150948171Y-42374914D02*
X150948171Y-42232057D01*
X150948171Y-42232057D02*
X150995790Y-42136819D01*
X150995790Y-42136819D02*
X151043409Y-42089200D01*
X151043409Y-42089200D02*
X151138647Y-42041581D01*
X151138647Y-42041581D02*
X151376742Y-42041581D01*
X151376742Y-42041581D02*
X151471980Y-42089200D01*
X151471980Y-42089200D02*
X151519600Y-42136819D01*
X151519600Y-42136819D02*
X151567219Y-42232057D01*
X151567219Y-42232057D02*
X151567219Y-42517771D01*
X151567219Y-42517771D02*
X151519600Y-42613009D01*
X151519600Y-42613009D02*
X151471980Y-42660628D01*
X151662457Y-41851105D02*
X151662457Y-41089200D01*
X151567219Y-40279676D02*
X151091028Y-40613009D01*
X151567219Y-40851104D02*
X150567219Y-40851104D01*
X150567219Y-40851104D02*
X150567219Y-40470152D01*
X150567219Y-40470152D02*
X150614838Y-40374914D01*
X150614838Y-40374914D02*
X150662457Y-40327295D01*
X150662457Y-40327295D02*
X150757695Y-40279676D01*
X150757695Y-40279676D02*
X150900552Y-40279676D01*
X150900552Y-40279676D02*
X150995790Y-40327295D01*
X150995790Y-40327295D02*
X151043409Y-40374914D01*
X151043409Y-40374914D02*
X151091028Y-40470152D01*
X151091028Y-40470152D02*
X151091028Y-40851104D01*
X150567219Y-39993961D02*
X150567219Y-39422533D01*
X151567219Y-39708247D02*
X150567219Y-39708247D01*
X151567219Y-39089199D02*
X150567219Y-39089199D01*
X150567219Y-39089199D02*
X150567219Y-38851104D01*
X150567219Y-38851104D02*
X150614838Y-38708247D01*
X150614838Y-38708247D02*
X150710076Y-38613009D01*
X150710076Y-38613009D02*
X150805314Y-38565390D01*
X150805314Y-38565390D02*
X150995790Y-38517771D01*
X150995790Y-38517771D02*
X151138647Y-38517771D01*
X151138647Y-38517771D02*
X151329123Y-38565390D01*
X151329123Y-38565390D02*
X151424361Y-38613009D01*
X151424361Y-38613009D02*
X151519600Y-38708247D01*
X151519600Y-38708247D02*
X151567219Y-38851104D01*
X151567219Y-38851104D02*
X151567219Y-39089199D01*
X151567219Y-37565390D02*
X151567219Y-38136818D01*
X151567219Y-37851104D02*
X150567219Y-37851104D01*
X150567219Y-37851104D02*
X150710076Y-37946342D01*
X150710076Y-37946342D02*
X150805314Y-38041580D01*
X150805314Y-38041580D02*
X150852933Y-38136818D01*
%TO.C,REF\u002A\u002A*%
X188734866Y-107943419D02*
X188401533Y-107467228D01*
X188163438Y-107943419D02*
X188163438Y-106943419D01*
X188163438Y-106943419D02*
X188544390Y-106943419D01*
X188544390Y-106943419D02*
X188639628Y-106991038D01*
X188639628Y-106991038D02*
X188687247Y-107038657D01*
X188687247Y-107038657D02*
X188734866Y-107133895D01*
X188734866Y-107133895D02*
X188734866Y-107276752D01*
X188734866Y-107276752D02*
X188687247Y-107371990D01*
X188687247Y-107371990D02*
X188639628Y-107419609D01*
X188639628Y-107419609D02*
X188544390Y-107467228D01*
X188544390Y-107467228D02*
X188163438Y-107467228D01*
X189163438Y-107419609D02*
X189496771Y-107419609D01*
X189639628Y-107943419D02*
X189163438Y-107943419D01*
X189163438Y-107943419D02*
X189163438Y-106943419D01*
X189163438Y-106943419D02*
X189639628Y-106943419D01*
X190401533Y-107419609D02*
X190068200Y-107419609D01*
X190068200Y-107943419D02*
X190068200Y-106943419D01*
X190068200Y-106943419D02*
X190544390Y-106943419D01*
X191068200Y-106943419D02*
X191068200Y-107181514D01*
X190830105Y-107086276D02*
X191068200Y-107181514D01*
X191068200Y-107181514D02*
X191306295Y-107086276D01*
X190925343Y-107371990D02*
X191068200Y-107181514D01*
X191068200Y-107181514D02*
X191211057Y-107371990D01*
X191830105Y-106943419D02*
X191830105Y-107181514D01*
X191592010Y-107086276D02*
X191830105Y-107181514D01*
X191830105Y-107181514D02*
X192068200Y-107086276D01*
X191687248Y-107371990D02*
X191830105Y-107181514D01*
X191830105Y-107181514D02*
X191972962Y-107371990D01*
%TO.C,J1_Buck_Con_Ar1*%
X134784246Y-45516619D02*
X134784246Y-46230904D01*
X134784246Y-46230904D02*
X134736627Y-46373761D01*
X134736627Y-46373761D02*
X134641389Y-46469000D01*
X134641389Y-46469000D02*
X134498532Y-46516619D01*
X134498532Y-46516619D02*
X134403294Y-46516619D01*
X135784246Y-46516619D02*
X135212818Y-46516619D01*
X135498532Y-46516619D02*
X135498532Y-45516619D01*
X135498532Y-45516619D02*
X135403294Y-45659476D01*
X135403294Y-45659476D02*
X135308056Y-45754714D01*
X135308056Y-45754714D02*
X135212818Y-45802333D01*
X135974723Y-46611857D02*
X136736627Y-46611857D01*
X137308056Y-45992809D02*
X137450913Y-46040428D01*
X137450913Y-46040428D02*
X137498532Y-46088047D01*
X137498532Y-46088047D02*
X137546151Y-46183285D01*
X137546151Y-46183285D02*
X137546151Y-46326142D01*
X137546151Y-46326142D02*
X137498532Y-46421380D01*
X137498532Y-46421380D02*
X137450913Y-46469000D01*
X137450913Y-46469000D02*
X137355675Y-46516619D01*
X137355675Y-46516619D02*
X136974723Y-46516619D01*
X136974723Y-46516619D02*
X136974723Y-45516619D01*
X136974723Y-45516619D02*
X137308056Y-45516619D01*
X137308056Y-45516619D02*
X137403294Y-45564238D01*
X137403294Y-45564238D02*
X137450913Y-45611857D01*
X137450913Y-45611857D02*
X137498532Y-45707095D01*
X137498532Y-45707095D02*
X137498532Y-45802333D01*
X137498532Y-45802333D02*
X137450913Y-45897571D01*
X137450913Y-45897571D02*
X137403294Y-45945190D01*
X137403294Y-45945190D02*
X137308056Y-45992809D01*
X137308056Y-45992809D02*
X136974723Y-45992809D01*
X138403294Y-45849952D02*
X138403294Y-46516619D01*
X137974723Y-45849952D02*
X137974723Y-46373761D01*
X137974723Y-46373761D02*
X138022342Y-46469000D01*
X138022342Y-46469000D02*
X138117580Y-46516619D01*
X138117580Y-46516619D02*
X138260437Y-46516619D01*
X138260437Y-46516619D02*
X138355675Y-46469000D01*
X138355675Y-46469000D02*
X138403294Y-46421380D01*
X139308056Y-46469000D02*
X139212818Y-46516619D01*
X139212818Y-46516619D02*
X139022342Y-46516619D01*
X139022342Y-46516619D02*
X138927104Y-46469000D01*
X138927104Y-46469000D02*
X138879485Y-46421380D01*
X138879485Y-46421380D02*
X138831866Y-46326142D01*
X138831866Y-46326142D02*
X138831866Y-46040428D01*
X138831866Y-46040428D02*
X138879485Y-45945190D01*
X138879485Y-45945190D02*
X138927104Y-45897571D01*
X138927104Y-45897571D02*
X139022342Y-45849952D01*
X139022342Y-45849952D02*
X139212818Y-45849952D01*
X139212818Y-45849952D02*
X139308056Y-45897571D01*
X139736628Y-46516619D02*
X139736628Y-45516619D01*
X139831866Y-46135666D02*
X140117580Y-46516619D01*
X140117580Y-45849952D02*
X139736628Y-46230904D01*
X140308057Y-46611857D02*
X141069961Y-46611857D01*
X141879485Y-46421380D02*
X141831866Y-46469000D01*
X141831866Y-46469000D02*
X141689009Y-46516619D01*
X141689009Y-46516619D02*
X141593771Y-46516619D01*
X141593771Y-46516619D02*
X141450914Y-46469000D01*
X141450914Y-46469000D02*
X141355676Y-46373761D01*
X141355676Y-46373761D02*
X141308057Y-46278523D01*
X141308057Y-46278523D02*
X141260438Y-46088047D01*
X141260438Y-46088047D02*
X141260438Y-45945190D01*
X141260438Y-45945190D02*
X141308057Y-45754714D01*
X141308057Y-45754714D02*
X141355676Y-45659476D01*
X141355676Y-45659476D02*
X141450914Y-45564238D01*
X141450914Y-45564238D02*
X141593771Y-45516619D01*
X141593771Y-45516619D02*
X141689009Y-45516619D01*
X141689009Y-45516619D02*
X141831866Y-45564238D01*
X141831866Y-45564238D02*
X141879485Y-45611857D01*
X142450914Y-46516619D02*
X142355676Y-46469000D01*
X142355676Y-46469000D02*
X142308057Y-46421380D01*
X142308057Y-46421380D02*
X142260438Y-46326142D01*
X142260438Y-46326142D02*
X142260438Y-46040428D01*
X142260438Y-46040428D02*
X142308057Y-45945190D01*
X142308057Y-45945190D02*
X142355676Y-45897571D01*
X142355676Y-45897571D02*
X142450914Y-45849952D01*
X142450914Y-45849952D02*
X142593771Y-45849952D01*
X142593771Y-45849952D02*
X142689009Y-45897571D01*
X142689009Y-45897571D02*
X142736628Y-45945190D01*
X142736628Y-45945190D02*
X142784247Y-46040428D01*
X142784247Y-46040428D02*
X142784247Y-46326142D01*
X142784247Y-46326142D02*
X142736628Y-46421380D01*
X142736628Y-46421380D02*
X142689009Y-46469000D01*
X142689009Y-46469000D02*
X142593771Y-46516619D01*
X142593771Y-46516619D02*
X142450914Y-46516619D01*
X143212819Y-45849952D02*
X143212819Y-46516619D01*
X143212819Y-45945190D02*
X143260438Y-45897571D01*
X143260438Y-45897571D02*
X143355676Y-45849952D01*
X143355676Y-45849952D02*
X143498533Y-45849952D01*
X143498533Y-45849952D02*
X143593771Y-45897571D01*
X143593771Y-45897571D02*
X143641390Y-45992809D01*
X143641390Y-45992809D02*
X143641390Y-46516619D01*
X143879486Y-46611857D02*
X144641390Y-46611857D01*
X144831867Y-46230904D02*
X145308057Y-46230904D01*
X144736629Y-46516619D02*
X145069962Y-45516619D01*
X145069962Y-45516619D02*
X145403295Y-46516619D01*
X145736629Y-46516619D02*
X145736629Y-45849952D01*
X145736629Y-46040428D02*
X145784248Y-45945190D01*
X145784248Y-45945190D02*
X145831867Y-45897571D01*
X145831867Y-45897571D02*
X145927105Y-45849952D01*
X145927105Y-45849952D02*
X146022343Y-45849952D01*
X146879486Y-46516619D02*
X146308058Y-46516619D01*
X146593772Y-46516619D02*
X146593772Y-45516619D01*
X146593772Y-45516619D02*
X146498534Y-45659476D01*
X146498534Y-45659476D02*
X146403296Y-45754714D01*
X146403296Y-45754714D02*
X146308058Y-45802333D01*
%TO.C,J3_POT1*%
X174728619Y-44911638D02*
X175442904Y-44911638D01*
X175442904Y-44911638D02*
X175585761Y-44959257D01*
X175585761Y-44959257D02*
X175681000Y-45054495D01*
X175681000Y-45054495D02*
X175728619Y-45197352D01*
X175728619Y-45197352D02*
X175728619Y-45292590D01*
X174728619Y-44530685D02*
X174728619Y-43911638D01*
X174728619Y-43911638D02*
X175109571Y-44244971D01*
X175109571Y-44244971D02*
X175109571Y-44102114D01*
X175109571Y-44102114D02*
X175157190Y-44006876D01*
X175157190Y-44006876D02*
X175204809Y-43959257D01*
X175204809Y-43959257D02*
X175300047Y-43911638D01*
X175300047Y-43911638D02*
X175538142Y-43911638D01*
X175538142Y-43911638D02*
X175633380Y-43959257D01*
X175633380Y-43959257D02*
X175681000Y-44006876D01*
X175681000Y-44006876D02*
X175728619Y-44102114D01*
X175728619Y-44102114D02*
X175728619Y-44387828D01*
X175728619Y-44387828D02*
X175681000Y-44483066D01*
X175681000Y-44483066D02*
X175633380Y-44530685D01*
X175823857Y-43721162D02*
X175823857Y-42959257D01*
X175728619Y-42721161D02*
X174728619Y-42721161D01*
X174728619Y-42721161D02*
X174728619Y-42340209D01*
X174728619Y-42340209D02*
X174776238Y-42244971D01*
X174776238Y-42244971D02*
X174823857Y-42197352D01*
X174823857Y-42197352D02*
X174919095Y-42149733D01*
X174919095Y-42149733D02*
X175061952Y-42149733D01*
X175061952Y-42149733D02*
X175157190Y-42197352D01*
X175157190Y-42197352D02*
X175204809Y-42244971D01*
X175204809Y-42244971D02*
X175252428Y-42340209D01*
X175252428Y-42340209D02*
X175252428Y-42721161D01*
X174728619Y-41530685D02*
X174728619Y-41340209D01*
X174728619Y-41340209D02*
X174776238Y-41244971D01*
X174776238Y-41244971D02*
X174871476Y-41149733D01*
X174871476Y-41149733D02*
X175061952Y-41102114D01*
X175061952Y-41102114D02*
X175395285Y-41102114D01*
X175395285Y-41102114D02*
X175585761Y-41149733D01*
X175585761Y-41149733D02*
X175681000Y-41244971D01*
X175681000Y-41244971D02*
X175728619Y-41340209D01*
X175728619Y-41340209D02*
X175728619Y-41530685D01*
X175728619Y-41530685D02*
X175681000Y-41625923D01*
X175681000Y-41625923D02*
X175585761Y-41721161D01*
X175585761Y-41721161D02*
X175395285Y-41768780D01*
X175395285Y-41768780D02*
X175061952Y-41768780D01*
X175061952Y-41768780D02*
X174871476Y-41721161D01*
X174871476Y-41721161D02*
X174776238Y-41625923D01*
X174776238Y-41625923D02*
X174728619Y-41530685D01*
X174728619Y-40816399D02*
X174728619Y-40244971D01*
X175728619Y-40530685D02*
X174728619Y-40530685D01*
X175728619Y-39387828D02*
X175728619Y-39959256D01*
X175728619Y-39673542D02*
X174728619Y-39673542D01*
X174728619Y-39673542D02*
X174871476Y-39768780D01*
X174871476Y-39768780D02*
X174966714Y-39864018D01*
X174966714Y-39864018D02*
X175014333Y-39959256D01*
%TO.C,R1_POT1*%
X161371619Y-42992371D02*
X160895428Y-43325704D01*
X161371619Y-43563799D02*
X160371619Y-43563799D01*
X160371619Y-43563799D02*
X160371619Y-43182847D01*
X160371619Y-43182847D02*
X160419238Y-43087609D01*
X160419238Y-43087609D02*
X160466857Y-43039990D01*
X160466857Y-43039990D02*
X160562095Y-42992371D01*
X160562095Y-42992371D02*
X160704952Y-42992371D01*
X160704952Y-42992371D02*
X160800190Y-43039990D01*
X160800190Y-43039990D02*
X160847809Y-43087609D01*
X160847809Y-43087609D02*
X160895428Y-43182847D01*
X160895428Y-43182847D02*
X160895428Y-43563799D01*
X161371619Y-42039990D02*
X161371619Y-42611418D01*
X161371619Y-42325704D02*
X160371619Y-42325704D01*
X160371619Y-42325704D02*
X160514476Y-42420942D01*
X160514476Y-42420942D02*
X160609714Y-42516180D01*
X160609714Y-42516180D02*
X160657333Y-42611418D01*
X161466857Y-41849514D02*
X161466857Y-41087609D01*
X161371619Y-40849513D02*
X160371619Y-40849513D01*
X160371619Y-40849513D02*
X160371619Y-40468561D01*
X160371619Y-40468561D02*
X160419238Y-40373323D01*
X160419238Y-40373323D02*
X160466857Y-40325704D01*
X160466857Y-40325704D02*
X160562095Y-40278085D01*
X160562095Y-40278085D02*
X160704952Y-40278085D01*
X160704952Y-40278085D02*
X160800190Y-40325704D01*
X160800190Y-40325704D02*
X160847809Y-40373323D01*
X160847809Y-40373323D02*
X160895428Y-40468561D01*
X160895428Y-40468561D02*
X160895428Y-40849513D01*
X160371619Y-39659037D02*
X160371619Y-39468561D01*
X160371619Y-39468561D02*
X160419238Y-39373323D01*
X160419238Y-39373323D02*
X160514476Y-39278085D01*
X160514476Y-39278085D02*
X160704952Y-39230466D01*
X160704952Y-39230466D02*
X161038285Y-39230466D01*
X161038285Y-39230466D02*
X161228761Y-39278085D01*
X161228761Y-39278085D02*
X161324000Y-39373323D01*
X161324000Y-39373323D02*
X161371619Y-39468561D01*
X161371619Y-39468561D02*
X161371619Y-39659037D01*
X161371619Y-39659037D02*
X161324000Y-39754275D01*
X161324000Y-39754275D02*
X161228761Y-39849513D01*
X161228761Y-39849513D02*
X161038285Y-39897132D01*
X161038285Y-39897132D02*
X160704952Y-39897132D01*
X160704952Y-39897132D02*
X160514476Y-39849513D01*
X160514476Y-39849513D02*
X160419238Y-39754275D01*
X160419238Y-39754275D02*
X160371619Y-39659037D01*
X160371619Y-38944751D02*
X160371619Y-38373323D01*
X161371619Y-38659037D02*
X160371619Y-38659037D01*
X161371619Y-37516180D02*
X161371619Y-38087608D01*
X161371619Y-37801894D02*
X160371619Y-37801894D01*
X160371619Y-37801894D02*
X160514476Y-37897132D01*
X160514476Y-37897132D02*
X160609714Y-37992370D01*
X160609714Y-37992370D02*
X160657333Y-38087608D01*
%TO.C,J7_Brake_Switch1*%
X120349370Y-45491019D02*
X120349370Y-46205304D01*
X120349370Y-46205304D02*
X120301751Y-46348161D01*
X120301751Y-46348161D02*
X120206513Y-46443400D01*
X120206513Y-46443400D02*
X120063656Y-46491019D01*
X120063656Y-46491019D02*
X119968418Y-46491019D01*
X120730323Y-45491019D02*
X121396989Y-45491019D01*
X121396989Y-45491019D02*
X120968418Y-46491019D01*
X121539847Y-46586257D02*
X122301751Y-46586257D01*
X122873180Y-45967209D02*
X123016037Y-46014828D01*
X123016037Y-46014828D02*
X123063656Y-46062447D01*
X123063656Y-46062447D02*
X123111275Y-46157685D01*
X123111275Y-46157685D02*
X123111275Y-46300542D01*
X123111275Y-46300542D02*
X123063656Y-46395780D01*
X123063656Y-46395780D02*
X123016037Y-46443400D01*
X123016037Y-46443400D02*
X122920799Y-46491019D01*
X122920799Y-46491019D02*
X122539847Y-46491019D01*
X122539847Y-46491019D02*
X122539847Y-45491019D01*
X122539847Y-45491019D02*
X122873180Y-45491019D01*
X122873180Y-45491019D02*
X122968418Y-45538638D01*
X122968418Y-45538638D02*
X123016037Y-45586257D01*
X123016037Y-45586257D02*
X123063656Y-45681495D01*
X123063656Y-45681495D02*
X123063656Y-45776733D01*
X123063656Y-45776733D02*
X123016037Y-45871971D01*
X123016037Y-45871971D02*
X122968418Y-45919590D01*
X122968418Y-45919590D02*
X122873180Y-45967209D01*
X122873180Y-45967209D02*
X122539847Y-45967209D01*
X123539847Y-46491019D02*
X123539847Y-45824352D01*
X123539847Y-46014828D02*
X123587466Y-45919590D01*
X123587466Y-45919590D02*
X123635085Y-45871971D01*
X123635085Y-45871971D02*
X123730323Y-45824352D01*
X123730323Y-45824352D02*
X123825561Y-45824352D01*
X124587466Y-46491019D02*
X124587466Y-45967209D01*
X124587466Y-45967209D02*
X124539847Y-45871971D01*
X124539847Y-45871971D02*
X124444609Y-45824352D01*
X124444609Y-45824352D02*
X124254133Y-45824352D01*
X124254133Y-45824352D02*
X124158895Y-45871971D01*
X124587466Y-46443400D02*
X124492228Y-46491019D01*
X124492228Y-46491019D02*
X124254133Y-46491019D01*
X124254133Y-46491019D02*
X124158895Y-46443400D01*
X124158895Y-46443400D02*
X124111276Y-46348161D01*
X124111276Y-46348161D02*
X124111276Y-46252923D01*
X124111276Y-46252923D02*
X124158895Y-46157685D01*
X124158895Y-46157685D02*
X124254133Y-46110066D01*
X124254133Y-46110066D02*
X124492228Y-46110066D01*
X124492228Y-46110066D02*
X124587466Y-46062447D01*
X125063657Y-46491019D02*
X125063657Y-45491019D01*
X125158895Y-46110066D02*
X125444609Y-46491019D01*
X125444609Y-45824352D02*
X125063657Y-46205304D01*
X126254133Y-46443400D02*
X126158895Y-46491019D01*
X126158895Y-46491019D02*
X125968419Y-46491019D01*
X125968419Y-46491019D02*
X125873181Y-46443400D01*
X125873181Y-46443400D02*
X125825562Y-46348161D01*
X125825562Y-46348161D02*
X125825562Y-45967209D01*
X125825562Y-45967209D02*
X125873181Y-45871971D01*
X125873181Y-45871971D02*
X125968419Y-45824352D01*
X125968419Y-45824352D02*
X126158895Y-45824352D01*
X126158895Y-45824352D02*
X126254133Y-45871971D01*
X126254133Y-45871971D02*
X126301752Y-45967209D01*
X126301752Y-45967209D02*
X126301752Y-46062447D01*
X126301752Y-46062447D02*
X125825562Y-46157685D01*
X126492229Y-46586257D02*
X127254133Y-46586257D01*
X127444610Y-46443400D02*
X127587467Y-46491019D01*
X127587467Y-46491019D02*
X127825562Y-46491019D01*
X127825562Y-46491019D02*
X127920800Y-46443400D01*
X127920800Y-46443400D02*
X127968419Y-46395780D01*
X127968419Y-46395780D02*
X128016038Y-46300542D01*
X128016038Y-46300542D02*
X128016038Y-46205304D01*
X128016038Y-46205304D02*
X127968419Y-46110066D01*
X127968419Y-46110066D02*
X127920800Y-46062447D01*
X127920800Y-46062447D02*
X127825562Y-46014828D01*
X127825562Y-46014828D02*
X127635086Y-45967209D01*
X127635086Y-45967209D02*
X127539848Y-45919590D01*
X127539848Y-45919590D02*
X127492229Y-45871971D01*
X127492229Y-45871971D02*
X127444610Y-45776733D01*
X127444610Y-45776733D02*
X127444610Y-45681495D01*
X127444610Y-45681495D02*
X127492229Y-45586257D01*
X127492229Y-45586257D02*
X127539848Y-45538638D01*
X127539848Y-45538638D02*
X127635086Y-45491019D01*
X127635086Y-45491019D02*
X127873181Y-45491019D01*
X127873181Y-45491019D02*
X128016038Y-45538638D01*
X128349372Y-45824352D02*
X128539848Y-46491019D01*
X128539848Y-46491019D02*
X128730324Y-46014828D01*
X128730324Y-46014828D02*
X128920800Y-46491019D01*
X128920800Y-46491019D02*
X129111276Y-45824352D01*
X129492229Y-46491019D02*
X129492229Y-45824352D01*
X129492229Y-45491019D02*
X129444610Y-45538638D01*
X129444610Y-45538638D02*
X129492229Y-45586257D01*
X129492229Y-45586257D02*
X129539848Y-45538638D01*
X129539848Y-45538638D02*
X129492229Y-45491019D01*
X129492229Y-45491019D02*
X129492229Y-45586257D01*
X129825562Y-45824352D02*
X130206514Y-45824352D01*
X129968419Y-45491019D02*
X129968419Y-46348161D01*
X129968419Y-46348161D02*
X130016038Y-46443400D01*
X130016038Y-46443400D02*
X130111276Y-46491019D01*
X130111276Y-46491019D02*
X130206514Y-46491019D01*
X130968419Y-46443400D02*
X130873181Y-46491019D01*
X130873181Y-46491019D02*
X130682705Y-46491019D01*
X130682705Y-46491019D02*
X130587467Y-46443400D01*
X130587467Y-46443400D02*
X130539848Y-46395780D01*
X130539848Y-46395780D02*
X130492229Y-46300542D01*
X130492229Y-46300542D02*
X130492229Y-46014828D01*
X130492229Y-46014828D02*
X130539848Y-45919590D01*
X130539848Y-45919590D02*
X130587467Y-45871971D01*
X130587467Y-45871971D02*
X130682705Y-45824352D01*
X130682705Y-45824352D02*
X130873181Y-45824352D01*
X130873181Y-45824352D02*
X130968419Y-45871971D01*
X131396991Y-46491019D02*
X131396991Y-45491019D01*
X131825562Y-46491019D02*
X131825562Y-45967209D01*
X131825562Y-45967209D02*
X131777943Y-45871971D01*
X131777943Y-45871971D02*
X131682705Y-45824352D01*
X131682705Y-45824352D02*
X131539848Y-45824352D01*
X131539848Y-45824352D02*
X131444610Y-45871971D01*
X131444610Y-45871971D02*
X131396991Y-45919590D01*
X132825562Y-46491019D02*
X132254134Y-46491019D01*
X132539848Y-46491019D02*
X132539848Y-45491019D01*
X132539848Y-45491019D02*
X132444610Y-45633876D01*
X132444610Y-45633876D02*
X132349372Y-45729114D01*
X132349372Y-45729114D02*
X132254134Y-45776733D01*
%TO.C,J6_RTD_Switch1*%
X162364056Y-45364019D02*
X162364056Y-46078304D01*
X162364056Y-46078304D02*
X162316437Y-46221161D01*
X162316437Y-46221161D02*
X162221199Y-46316400D01*
X162221199Y-46316400D02*
X162078342Y-46364019D01*
X162078342Y-46364019D02*
X161983104Y-46364019D01*
X163268818Y-45364019D02*
X163078342Y-45364019D01*
X163078342Y-45364019D02*
X162983104Y-45411638D01*
X162983104Y-45411638D02*
X162935485Y-45459257D01*
X162935485Y-45459257D02*
X162840247Y-45602114D01*
X162840247Y-45602114D02*
X162792628Y-45792590D01*
X162792628Y-45792590D02*
X162792628Y-46173542D01*
X162792628Y-46173542D02*
X162840247Y-46268780D01*
X162840247Y-46268780D02*
X162887866Y-46316400D01*
X162887866Y-46316400D02*
X162983104Y-46364019D01*
X162983104Y-46364019D02*
X163173580Y-46364019D01*
X163173580Y-46364019D02*
X163268818Y-46316400D01*
X163268818Y-46316400D02*
X163316437Y-46268780D01*
X163316437Y-46268780D02*
X163364056Y-46173542D01*
X163364056Y-46173542D02*
X163364056Y-45935447D01*
X163364056Y-45935447D02*
X163316437Y-45840209D01*
X163316437Y-45840209D02*
X163268818Y-45792590D01*
X163268818Y-45792590D02*
X163173580Y-45744971D01*
X163173580Y-45744971D02*
X162983104Y-45744971D01*
X162983104Y-45744971D02*
X162887866Y-45792590D01*
X162887866Y-45792590D02*
X162840247Y-45840209D01*
X162840247Y-45840209D02*
X162792628Y-45935447D01*
X163554533Y-46459257D02*
X164316437Y-46459257D01*
X165125961Y-46364019D02*
X164792628Y-45887828D01*
X164554533Y-46364019D02*
X164554533Y-45364019D01*
X164554533Y-45364019D02*
X164935485Y-45364019D01*
X164935485Y-45364019D02*
X165030723Y-45411638D01*
X165030723Y-45411638D02*
X165078342Y-45459257D01*
X165078342Y-45459257D02*
X165125961Y-45554495D01*
X165125961Y-45554495D02*
X165125961Y-45697352D01*
X165125961Y-45697352D02*
X165078342Y-45792590D01*
X165078342Y-45792590D02*
X165030723Y-45840209D01*
X165030723Y-45840209D02*
X164935485Y-45887828D01*
X164935485Y-45887828D02*
X164554533Y-45887828D01*
X165411676Y-45364019D02*
X165983104Y-45364019D01*
X165697390Y-46364019D02*
X165697390Y-45364019D01*
X166316438Y-46364019D02*
X166316438Y-45364019D01*
X166316438Y-45364019D02*
X166554533Y-45364019D01*
X166554533Y-45364019D02*
X166697390Y-45411638D01*
X166697390Y-45411638D02*
X166792628Y-45506876D01*
X166792628Y-45506876D02*
X166840247Y-45602114D01*
X166840247Y-45602114D02*
X166887866Y-45792590D01*
X166887866Y-45792590D02*
X166887866Y-45935447D01*
X166887866Y-45935447D02*
X166840247Y-46125923D01*
X166840247Y-46125923D02*
X166792628Y-46221161D01*
X166792628Y-46221161D02*
X166697390Y-46316400D01*
X166697390Y-46316400D02*
X166554533Y-46364019D01*
X166554533Y-46364019D02*
X166316438Y-46364019D01*
X167078343Y-46459257D02*
X167840247Y-46459257D01*
X168030724Y-46316400D02*
X168173581Y-46364019D01*
X168173581Y-46364019D02*
X168411676Y-46364019D01*
X168411676Y-46364019D02*
X168506914Y-46316400D01*
X168506914Y-46316400D02*
X168554533Y-46268780D01*
X168554533Y-46268780D02*
X168602152Y-46173542D01*
X168602152Y-46173542D02*
X168602152Y-46078304D01*
X168602152Y-46078304D02*
X168554533Y-45983066D01*
X168554533Y-45983066D02*
X168506914Y-45935447D01*
X168506914Y-45935447D02*
X168411676Y-45887828D01*
X168411676Y-45887828D02*
X168221200Y-45840209D01*
X168221200Y-45840209D02*
X168125962Y-45792590D01*
X168125962Y-45792590D02*
X168078343Y-45744971D01*
X168078343Y-45744971D02*
X168030724Y-45649733D01*
X168030724Y-45649733D02*
X168030724Y-45554495D01*
X168030724Y-45554495D02*
X168078343Y-45459257D01*
X168078343Y-45459257D02*
X168125962Y-45411638D01*
X168125962Y-45411638D02*
X168221200Y-45364019D01*
X168221200Y-45364019D02*
X168459295Y-45364019D01*
X168459295Y-45364019D02*
X168602152Y-45411638D01*
X168935486Y-45697352D02*
X169125962Y-46364019D01*
X169125962Y-46364019D02*
X169316438Y-45887828D01*
X169316438Y-45887828D02*
X169506914Y-46364019D01*
X169506914Y-46364019D02*
X169697390Y-45697352D01*
X170078343Y-46364019D02*
X170078343Y-45697352D01*
X170078343Y-45364019D02*
X170030724Y-45411638D01*
X170030724Y-45411638D02*
X170078343Y-45459257D01*
X170078343Y-45459257D02*
X170125962Y-45411638D01*
X170125962Y-45411638D02*
X170078343Y-45364019D01*
X170078343Y-45364019D02*
X170078343Y-45459257D01*
X170411676Y-45697352D02*
X170792628Y-45697352D01*
X170554533Y-45364019D02*
X170554533Y-46221161D01*
X170554533Y-46221161D02*
X170602152Y-46316400D01*
X170602152Y-46316400D02*
X170697390Y-46364019D01*
X170697390Y-46364019D02*
X170792628Y-46364019D01*
X171554533Y-46316400D02*
X171459295Y-46364019D01*
X171459295Y-46364019D02*
X171268819Y-46364019D01*
X171268819Y-46364019D02*
X171173581Y-46316400D01*
X171173581Y-46316400D02*
X171125962Y-46268780D01*
X171125962Y-46268780D02*
X171078343Y-46173542D01*
X171078343Y-46173542D02*
X171078343Y-45887828D01*
X171078343Y-45887828D02*
X171125962Y-45792590D01*
X171125962Y-45792590D02*
X171173581Y-45744971D01*
X171173581Y-45744971D02*
X171268819Y-45697352D01*
X171268819Y-45697352D02*
X171459295Y-45697352D01*
X171459295Y-45697352D02*
X171554533Y-45744971D01*
X171983105Y-46364019D02*
X171983105Y-45364019D01*
X172411676Y-46364019D02*
X172411676Y-45840209D01*
X172411676Y-45840209D02*
X172364057Y-45744971D01*
X172364057Y-45744971D02*
X172268819Y-45697352D01*
X172268819Y-45697352D02*
X172125962Y-45697352D01*
X172125962Y-45697352D02*
X172030724Y-45744971D01*
X172030724Y-45744971D02*
X171983105Y-45792590D01*
X173411676Y-46364019D02*
X172840248Y-46364019D01*
X173125962Y-46364019D02*
X173125962Y-45364019D01*
X173125962Y-45364019D02*
X173030724Y-45506876D01*
X173030724Y-45506876D02*
X172935486Y-45602114D01*
X172935486Y-45602114D02*
X172840248Y-45649733D01*
%TO.C,BZ1_Buzzer1*%
X143085409Y-112772295D02*
X143133028Y-112629438D01*
X143133028Y-112629438D02*
X143180647Y-112581819D01*
X143180647Y-112581819D02*
X143275885Y-112534200D01*
X143275885Y-112534200D02*
X143418742Y-112534200D01*
X143418742Y-112534200D02*
X143513980Y-112581819D01*
X143513980Y-112581819D02*
X143561600Y-112629438D01*
X143561600Y-112629438D02*
X143609219Y-112724676D01*
X143609219Y-112724676D02*
X143609219Y-113105628D01*
X143609219Y-113105628D02*
X142609219Y-113105628D01*
X142609219Y-113105628D02*
X142609219Y-112772295D01*
X142609219Y-112772295D02*
X142656838Y-112677057D01*
X142656838Y-112677057D02*
X142704457Y-112629438D01*
X142704457Y-112629438D02*
X142799695Y-112581819D01*
X142799695Y-112581819D02*
X142894933Y-112581819D01*
X142894933Y-112581819D02*
X142990171Y-112629438D01*
X142990171Y-112629438D02*
X143037790Y-112677057D01*
X143037790Y-112677057D02*
X143085409Y-112772295D01*
X143085409Y-112772295D02*
X143085409Y-113105628D01*
X142609219Y-112200866D02*
X142609219Y-111534200D01*
X142609219Y-111534200D02*
X143609219Y-112200866D01*
X143609219Y-112200866D02*
X143609219Y-111534200D01*
X143609219Y-110629438D02*
X143609219Y-111200866D01*
X143609219Y-110915152D02*
X142609219Y-110915152D01*
X142609219Y-110915152D02*
X142752076Y-111010390D01*
X142752076Y-111010390D02*
X142847314Y-111105628D01*
X142847314Y-111105628D02*
X142894933Y-111200866D01*
X143704457Y-110438962D02*
X143704457Y-109677057D01*
X143085409Y-109105628D02*
X143133028Y-108962771D01*
X143133028Y-108962771D02*
X143180647Y-108915152D01*
X143180647Y-108915152D02*
X143275885Y-108867533D01*
X143275885Y-108867533D02*
X143418742Y-108867533D01*
X143418742Y-108867533D02*
X143513980Y-108915152D01*
X143513980Y-108915152D02*
X143561600Y-108962771D01*
X143561600Y-108962771D02*
X143609219Y-109058009D01*
X143609219Y-109058009D02*
X143609219Y-109438961D01*
X143609219Y-109438961D02*
X142609219Y-109438961D01*
X142609219Y-109438961D02*
X142609219Y-109105628D01*
X142609219Y-109105628D02*
X142656838Y-109010390D01*
X142656838Y-109010390D02*
X142704457Y-108962771D01*
X142704457Y-108962771D02*
X142799695Y-108915152D01*
X142799695Y-108915152D02*
X142894933Y-108915152D01*
X142894933Y-108915152D02*
X142990171Y-108962771D01*
X142990171Y-108962771D02*
X143037790Y-109010390D01*
X143037790Y-109010390D02*
X143085409Y-109105628D01*
X143085409Y-109105628D02*
X143085409Y-109438961D01*
X142942552Y-108010390D02*
X143609219Y-108010390D01*
X142942552Y-108438961D02*
X143466361Y-108438961D01*
X143466361Y-108438961D02*
X143561600Y-108391342D01*
X143561600Y-108391342D02*
X143609219Y-108296104D01*
X143609219Y-108296104D02*
X143609219Y-108153247D01*
X143609219Y-108153247D02*
X143561600Y-108058009D01*
X143561600Y-108058009D02*
X143513980Y-108010390D01*
X142942552Y-107629437D02*
X142942552Y-107105628D01*
X142942552Y-107105628D02*
X143609219Y-107629437D01*
X143609219Y-107629437D02*
X143609219Y-107105628D01*
X142942552Y-106819913D02*
X142942552Y-106296104D01*
X142942552Y-106296104D02*
X143609219Y-106819913D01*
X143609219Y-106819913D02*
X143609219Y-106296104D01*
X143561600Y-105534199D02*
X143609219Y-105629437D01*
X143609219Y-105629437D02*
X143609219Y-105819913D01*
X143609219Y-105819913D02*
X143561600Y-105915151D01*
X143561600Y-105915151D02*
X143466361Y-105962770D01*
X143466361Y-105962770D02*
X143085409Y-105962770D01*
X143085409Y-105962770D02*
X142990171Y-105915151D01*
X142990171Y-105915151D02*
X142942552Y-105819913D01*
X142942552Y-105819913D02*
X142942552Y-105629437D01*
X142942552Y-105629437D02*
X142990171Y-105534199D01*
X142990171Y-105534199D02*
X143085409Y-105486580D01*
X143085409Y-105486580D02*
X143180647Y-105486580D01*
X143180647Y-105486580D02*
X143275885Y-105962770D01*
X143609219Y-105058008D02*
X142942552Y-105058008D01*
X143133028Y-105058008D02*
X143037790Y-105010389D01*
X143037790Y-105010389D02*
X142990171Y-104962770D01*
X142990171Y-104962770D02*
X142942552Y-104867532D01*
X142942552Y-104867532D02*
X142942552Y-104772294D01*
X143609219Y-103915151D02*
X143609219Y-104486579D01*
X143609219Y-104200865D02*
X142609219Y-104200865D01*
X142609219Y-104200865D02*
X142752076Y-104296103D01*
X142752076Y-104296103D02*
X142847314Y-104391341D01*
X142847314Y-104391341D02*
X142894933Y-104486579D01*
X146608848Y-106093466D02*
X147370753Y-106093466D01*
X146989800Y-106474419D02*
X146989800Y-105712514D01*
%TO.C,R2_POT2*%
X152821619Y-42992371D02*
X152345428Y-43325704D01*
X152821619Y-43563799D02*
X151821619Y-43563799D01*
X151821619Y-43563799D02*
X151821619Y-43182847D01*
X151821619Y-43182847D02*
X151869238Y-43087609D01*
X151869238Y-43087609D02*
X151916857Y-43039990D01*
X151916857Y-43039990D02*
X152012095Y-42992371D01*
X152012095Y-42992371D02*
X152154952Y-42992371D01*
X152154952Y-42992371D02*
X152250190Y-43039990D01*
X152250190Y-43039990D02*
X152297809Y-43087609D01*
X152297809Y-43087609D02*
X152345428Y-43182847D01*
X152345428Y-43182847D02*
X152345428Y-43563799D01*
X151916857Y-42611418D02*
X151869238Y-42563799D01*
X151869238Y-42563799D02*
X151821619Y-42468561D01*
X151821619Y-42468561D02*
X151821619Y-42230466D01*
X151821619Y-42230466D02*
X151869238Y-42135228D01*
X151869238Y-42135228D02*
X151916857Y-42087609D01*
X151916857Y-42087609D02*
X152012095Y-42039990D01*
X152012095Y-42039990D02*
X152107333Y-42039990D01*
X152107333Y-42039990D02*
X152250190Y-42087609D01*
X152250190Y-42087609D02*
X152821619Y-42659037D01*
X152821619Y-42659037D02*
X152821619Y-42039990D01*
X152916857Y-41849514D02*
X152916857Y-41087609D01*
X152821619Y-40849513D02*
X151821619Y-40849513D01*
X151821619Y-40849513D02*
X151821619Y-40468561D01*
X151821619Y-40468561D02*
X151869238Y-40373323D01*
X151869238Y-40373323D02*
X151916857Y-40325704D01*
X151916857Y-40325704D02*
X152012095Y-40278085D01*
X152012095Y-40278085D02*
X152154952Y-40278085D01*
X152154952Y-40278085D02*
X152250190Y-40325704D01*
X152250190Y-40325704D02*
X152297809Y-40373323D01*
X152297809Y-40373323D02*
X152345428Y-40468561D01*
X152345428Y-40468561D02*
X152345428Y-40849513D01*
X151821619Y-39659037D02*
X151821619Y-39468561D01*
X151821619Y-39468561D02*
X151869238Y-39373323D01*
X151869238Y-39373323D02*
X151964476Y-39278085D01*
X151964476Y-39278085D02*
X152154952Y-39230466D01*
X152154952Y-39230466D02*
X152488285Y-39230466D01*
X152488285Y-39230466D02*
X152678761Y-39278085D01*
X152678761Y-39278085D02*
X152774000Y-39373323D01*
X152774000Y-39373323D02*
X152821619Y-39468561D01*
X152821619Y-39468561D02*
X152821619Y-39659037D01*
X152821619Y-39659037D02*
X152774000Y-39754275D01*
X152774000Y-39754275D02*
X152678761Y-39849513D01*
X152678761Y-39849513D02*
X152488285Y-39897132D01*
X152488285Y-39897132D02*
X152154952Y-39897132D01*
X152154952Y-39897132D02*
X151964476Y-39849513D01*
X151964476Y-39849513D02*
X151869238Y-39754275D01*
X151869238Y-39754275D02*
X151821619Y-39659037D01*
X151821619Y-38944751D02*
X151821619Y-38373323D01*
X152821619Y-38659037D02*
X151821619Y-38659037D01*
X151916857Y-38087608D02*
X151869238Y-38039989D01*
X151869238Y-38039989D02*
X151821619Y-37944751D01*
X151821619Y-37944751D02*
X151821619Y-37706656D01*
X151821619Y-37706656D02*
X151869238Y-37611418D01*
X151869238Y-37611418D02*
X151916857Y-37563799D01*
X151916857Y-37563799D02*
X152012095Y-37516180D01*
X152012095Y-37516180D02*
X152107333Y-37516180D01*
X152107333Y-37516180D02*
X152250190Y-37563799D01*
X152250190Y-37563799D02*
X152821619Y-38135227D01*
X152821619Y-38135227D02*
X152821619Y-37516180D01*
%TO.C,A1*%
X108353314Y-46676504D02*
X108829504Y-46676504D01*
X108258076Y-46962219D02*
X108591409Y-45962219D01*
X108591409Y-45962219D02*
X108924742Y-46962219D01*
X109781885Y-46962219D02*
X109210457Y-46962219D01*
X109496171Y-46962219D02*
X109496171Y-45962219D01*
X109496171Y-45962219D02*
X109400933Y-46105076D01*
X109400933Y-46105076D02*
X109305695Y-46200314D01*
X109305695Y-46200314D02*
X109210457Y-46247933D01*
%TO.C,J5_Relay_Module1*%
X175338219Y-100880086D02*
X176052504Y-100880086D01*
X176052504Y-100880086D02*
X176195361Y-100927705D01*
X176195361Y-100927705D02*
X176290600Y-101022943D01*
X176290600Y-101022943D02*
X176338219Y-101165800D01*
X176338219Y-101165800D02*
X176338219Y-101261038D01*
X175338219Y-99927705D02*
X175338219Y-100403895D01*
X175338219Y-100403895D02*
X175814409Y-100451514D01*
X175814409Y-100451514D02*
X175766790Y-100403895D01*
X175766790Y-100403895D02*
X175719171Y-100308657D01*
X175719171Y-100308657D02*
X175719171Y-100070562D01*
X175719171Y-100070562D02*
X175766790Y-99975324D01*
X175766790Y-99975324D02*
X175814409Y-99927705D01*
X175814409Y-99927705D02*
X175909647Y-99880086D01*
X175909647Y-99880086D02*
X176147742Y-99880086D01*
X176147742Y-99880086D02*
X176242980Y-99927705D01*
X176242980Y-99927705D02*
X176290600Y-99975324D01*
X176290600Y-99975324D02*
X176338219Y-100070562D01*
X176338219Y-100070562D02*
X176338219Y-100308657D01*
X176338219Y-100308657D02*
X176290600Y-100403895D01*
X176290600Y-100403895D02*
X176242980Y-100451514D01*
X176433457Y-99689610D02*
X176433457Y-98927705D01*
X176338219Y-98118181D02*
X175862028Y-98451514D01*
X176338219Y-98689609D02*
X175338219Y-98689609D01*
X175338219Y-98689609D02*
X175338219Y-98308657D01*
X175338219Y-98308657D02*
X175385838Y-98213419D01*
X175385838Y-98213419D02*
X175433457Y-98165800D01*
X175433457Y-98165800D02*
X175528695Y-98118181D01*
X175528695Y-98118181D02*
X175671552Y-98118181D01*
X175671552Y-98118181D02*
X175766790Y-98165800D01*
X175766790Y-98165800D02*
X175814409Y-98213419D01*
X175814409Y-98213419D02*
X175862028Y-98308657D01*
X175862028Y-98308657D02*
X175862028Y-98689609D01*
X176290600Y-97308657D02*
X176338219Y-97403895D01*
X176338219Y-97403895D02*
X176338219Y-97594371D01*
X176338219Y-97594371D02*
X176290600Y-97689609D01*
X176290600Y-97689609D02*
X176195361Y-97737228D01*
X176195361Y-97737228D02*
X175814409Y-97737228D01*
X175814409Y-97737228D02*
X175719171Y-97689609D01*
X175719171Y-97689609D02*
X175671552Y-97594371D01*
X175671552Y-97594371D02*
X175671552Y-97403895D01*
X175671552Y-97403895D02*
X175719171Y-97308657D01*
X175719171Y-97308657D02*
X175814409Y-97261038D01*
X175814409Y-97261038D02*
X175909647Y-97261038D01*
X175909647Y-97261038D02*
X176004885Y-97737228D01*
X176338219Y-96689609D02*
X176290600Y-96784847D01*
X176290600Y-96784847D02*
X176195361Y-96832466D01*
X176195361Y-96832466D02*
X175338219Y-96832466D01*
X176338219Y-95880085D02*
X175814409Y-95880085D01*
X175814409Y-95880085D02*
X175719171Y-95927704D01*
X175719171Y-95927704D02*
X175671552Y-96022942D01*
X175671552Y-96022942D02*
X175671552Y-96213418D01*
X175671552Y-96213418D02*
X175719171Y-96308656D01*
X176290600Y-95880085D02*
X176338219Y-95975323D01*
X176338219Y-95975323D02*
X176338219Y-96213418D01*
X176338219Y-96213418D02*
X176290600Y-96308656D01*
X176290600Y-96308656D02*
X176195361Y-96356275D01*
X176195361Y-96356275D02*
X176100123Y-96356275D01*
X176100123Y-96356275D02*
X176004885Y-96308656D01*
X176004885Y-96308656D02*
X175957266Y-96213418D01*
X175957266Y-96213418D02*
X175957266Y-95975323D01*
X175957266Y-95975323D02*
X175909647Y-95880085D01*
X175671552Y-95499132D02*
X176338219Y-95261037D01*
X175671552Y-95022942D02*
X176338219Y-95261037D01*
X176338219Y-95261037D02*
X176576314Y-95356275D01*
X176576314Y-95356275D02*
X176623933Y-95403894D01*
X176623933Y-95403894D02*
X176671552Y-95499132D01*
X176433457Y-94880085D02*
X176433457Y-94118180D01*
X176338219Y-93880084D02*
X175338219Y-93880084D01*
X175338219Y-93880084D02*
X176052504Y-93546751D01*
X176052504Y-93546751D02*
X175338219Y-93213418D01*
X175338219Y-93213418D02*
X176338219Y-93213418D01*
X176338219Y-92594370D02*
X176290600Y-92689608D01*
X176290600Y-92689608D02*
X176242980Y-92737227D01*
X176242980Y-92737227D02*
X176147742Y-92784846D01*
X176147742Y-92784846D02*
X175862028Y-92784846D01*
X175862028Y-92784846D02*
X175766790Y-92737227D01*
X175766790Y-92737227D02*
X175719171Y-92689608D01*
X175719171Y-92689608D02*
X175671552Y-92594370D01*
X175671552Y-92594370D02*
X175671552Y-92451513D01*
X175671552Y-92451513D02*
X175719171Y-92356275D01*
X175719171Y-92356275D02*
X175766790Y-92308656D01*
X175766790Y-92308656D02*
X175862028Y-92261037D01*
X175862028Y-92261037D02*
X176147742Y-92261037D01*
X176147742Y-92261037D02*
X176242980Y-92308656D01*
X176242980Y-92308656D02*
X176290600Y-92356275D01*
X176290600Y-92356275D02*
X176338219Y-92451513D01*
X176338219Y-92451513D02*
X176338219Y-92594370D01*
X176338219Y-91403894D02*
X175338219Y-91403894D01*
X176290600Y-91403894D02*
X176338219Y-91499132D01*
X176338219Y-91499132D02*
X176338219Y-91689608D01*
X176338219Y-91689608D02*
X176290600Y-91784846D01*
X176290600Y-91784846D02*
X176242980Y-91832465D01*
X176242980Y-91832465D02*
X176147742Y-91880084D01*
X176147742Y-91880084D02*
X175862028Y-91880084D01*
X175862028Y-91880084D02*
X175766790Y-91832465D01*
X175766790Y-91832465D02*
X175719171Y-91784846D01*
X175719171Y-91784846D02*
X175671552Y-91689608D01*
X175671552Y-91689608D02*
X175671552Y-91499132D01*
X175671552Y-91499132D02*
X175719171Y-91403894D01*
X175671552Y-90499132D02*
X176338219Y-90499132D01*
X175671552Y-90927703D02*
X176195361Y-90927703D01*
X176195361Y-90927703D02*
X176290600Y-90880084D01*
X176290600Y-90880084D02*
X176338219Y-90784846D01*
X176338219Y-90784846D02*
X176338219Y-90641989D01*
X176338219Y-90641989D02*
X176290600Y-90546751D01*
X176290600Y-90546751D02*
X176242980Y-90499132D01*
X176338219Y-89880084D02*
X176290600Y-89975322D01*
X176290600Y-89975322D02*
X176195361Y-90022941D01*
X176195361Y-90022941D02*
X175338219Y-90022941D01*
X176290600Y-89118179D02*
X176338219Y-89213417D01*
X176338219Y-89213417D02*
X176338219Y-89403893D01*
X176338219Y-89403893D02*
X176290600Y-89499131D01*
X176290600Y-89499131D02*
X176195361Y-89546750D01*
X176195361Y-89546750D02*
X175814409Y-89546750D01*
X175814409Y-89546750D02*
X175719171Y-89499131D01*
X175719171Y-89499131D02*
X175671552Y-89403893D01*
X175671552Y-89403893D02*
X175671552Y-89213417D01*
X175671552Y-89213417D02*
X175719171Y-89118179D01*
X175719171Y-89118179D02*
X175814409Y-89070560D01*
X175814409Y-89070560D02*
X175909647Y-89070560D01*
X175909647Y-89070560D02*
X176004885Y-89546750D01*
X176338219Y-88118179D02*
X176338219Y-88689607D01*
X176338219Y-88403893D02*
X175338219Y-88403893D01*
X175338219Y-88403893D02*
X175481076Y-88499131D01*
X175481076Y-88499131D02*
X175576314Y-88594369D01*
X175576314Y-88594369D02*
X175623933Y-88689607D01*
%TO.C,J4_POT2*%
X175033419Y-63402838D02*
X175747704Y-63402838D01*
X175747704Y-63402838D02*
X175890561Y-63450457D01*
X175890561Y-63450457D02*
X175985800Y-63545695D01*
X175985800Y-63545695D02*
X176033419Y-63688552D01*
X176033419Y-63688552D02*
X176033419Y-63783790D01*
X175366752Y-62498076D02*
X176033419Y-62498076D01*
X174985800Y-62736171D02*
X175700085Y-62974266D01*
X175700085Y-62974266D02*
X175700085Y-62355219D01*
X176128657Y-62212362D02*
X176128657Y-61450457D01*
X176033419Y-61212361D02*
X175033419Y-61212361D01*
X175033419Y-61212361D02*
X175033419Y-60831409D01*
X175033419Y-60831409D02*
X175081038Y-60736171D01*
X175081038Y-60736171D02*
X175128657Y-60688552D01*
X175128657Y-60688552D02*
X175223895Y-60640933D01*
X175223895Y-60640933D02*
X175366752Y-60640933D01*
X175366752Y-60640933D02*
X175461990Y-60688552D01*
X175461990Y-60688552D02*
X175509609Y-60736171D01*
X175509609Y-60736171D02*
X175557228Y-60831409D01*
X175557228Y-60831409D02*
X175557228Y-61212361D01*
X175033419Y-60021885D02*
X175033419Y-59831409D01*
X175033419Y-59831409D02*
X175081038Y-59736171D01*
X175081038Y-59736171D02*
X175176276Y-59640933D01*
X175176276Y-59640933D02*
X175366752Y-59593314D01*
X175366752Y-59593314D02*
X175700085Y-59593314D01*
X175700085Y-59593314D02*
X175890561Y-59640933D01*
X175890561Y-59640933D02*
X175985800Y-59736171D01*
X175985800Y-59736171D02*
X176033419Y-59831409D01*
X176033419Y-59831409D02*
X176033419Y-60021885D01*
X176033419Y-60021885D02*
X175985800Y-60117123D01*
X175985800Y-60117123D02*
X175890561Y-60212361D01*
X175890561Y-60212361D02*
X175700085Y-60259980D01*
X175700085Y-60259980D02*
X175366752Y-60259980D01*
X175366752Y-60259980D02*
X175176276Y-60212361D01*
X175176276Y-60212361D02*
X175081038Y-60117123D01*
X175081038Y-60117123D02*
X175033419Y-60021885D01*
X175033419Y-59307599D02*
X175033419Y-58736171D01*
X176033419Y-59021885D02*
X175033419Y-59021885D01*
X175128657Y-58450456D02*
X175081038Y-58402837D01*
X175081038Y-58402837D02*
X175033419Y-58307599D01*
X175033419Y-58307599D02*
X175033419Y-58069504D01*
X175033419Y-58069504D02*
X175081038Y-57974266D01*
X175081038Y-57974266D02*
X175128657Y-57926647D01*
X175128657Y-57926647D02*
X175223895Y-57879028D01*
X175223895Y-57879028D02*
X175319133Y-57879028D01*
X175319133Y-57879028D02*
X175461990Y-57926647D01*
X175461990Y-57926647D02*
X176033419Y-58498075D01*
X176033419Y-58498075D02*
X176033419Y-57879028D01*
%TO.C,J2_Buck_con_relay1*%
X175211219Y-84577963D02*
X175925504Y-84577963D01*
X175925504Y-84577963D02*
X176068361Y-84625582D01*
X176068361Y-84625582D02*
X176163600Y-84720820D01*
X176163600Y-84720820D02*
X176211219Y-84863677D01*
X176211219Y-84863677D02*
X176211219Y-84958915D01*
X175306457Y-84149391D02*
X175258838Y-84101772D01*
X175258838Y-84101772D02*
X175211219Y-84006534D01*
X175211219Y-84006534D02*
X175211219Y-83768439D01*
X175211219Y-83768439D02*
X175258838Y-83673201D01*
X175258838Y-83673201D02*
X175306457Y-83625582D01*
X175306457Y-83625582D02*
X175401695Y-83577963D01*
X175401695Y-83577963D02*
X175496933Y-83577963D01*
X175496933Y-83577963D02*
X175639790Y-83625582D01*
X175639790Y-83625582D02*
X176211219Y-84197010D01*
X176211219Y-84197010D02*
X176211219Y-83577963D01*
X176306457Y-83387487D02*
X176306457Y-82625582D01*
X175687409Y-82054153D02*
X175735028Y-81911296D01*
X175735028Y-81911296D02*
X175782647Y-81863677D01*
X175782647Y-81863677D02*
X175877885Y-81816058D01*
X175877885Y-81816058D02*
X176020742Y-81816058D01*
X176020742Y-81816058D02*
X176115980Y-81863677D01*
X176115980Y-81863677D02*
X176163600Y-81911296D01*
X176163600Y-81911296D02*
X176211219Y-82006534D01*
X176211219Y-82006534D02*
X176211219Y-82387486D01*
X176211219Y-82387486D02*
X175211219Y-82387486D01*
X175211219Y-82387486D02*
X175211219Y-82054153D01*
X175211219Y-82054153D02*
X175258838Y-81958915D01*
X175258838Y-81958915D02*
X175306457Y-81911296D01*
X175306457Y-81911296D02*
X175401695Y-81863677D01*
X175401695Y-81863677D02*
X175496933Y-81863677D01*
X175496933Y-81863677D02*
X175592171Y-81911296D01*
X175592171Y-81911296D02*
X175639790Y-81958915D01*
X175639790Y-81958915D02*
X175687409Y-82054153D01*
X175687409Y-82054153D02*
X175687409Y-82387486D01*
X175544552Y-80958915D02*
X176211219Y-80958915D01*
X175544552Y-81387486D02*
X176068361Y-81387486D01*
X176068361Y-81387486D02*
X176163600Y-81339867D01*
X176163600Y-81339867D02*
X176211219Y-81244629D01*
X176211219Y-81244629D02*
X176211219Y-81101772D01*
X176211219Y-81101772D02*
X176163600Y-81006534D01*
X176163600Y-81006534D02*
X176115980Y-80958915D01*
X176163600Y-80054153D02*
X176211219Y-80149391D01*
X176211219Y-80149391D02*
X176211219Y-80339867D01*
X176211219Y-80339867D02*
X176163600Y-80435105D01*
X176163600Y-80435105D02*
X176115980Y-80482724D01*
X176115980Y-80482724D02*
X176020742Y-80530343D01*
X176020742Y-80530343D02*
X175735028Y-80530343D01*
X175735028Y-80530343D02*
X175639790Y-80482724D01*
X175639790Y-80482724D02*
X175592171Y-80435105D01*
X175592171Y-80435105D02*
X175544552Y-80339867D01*
X175544552Y-80339867D02*
X175544552Y-80149391D01*
X175544552Y-80149391D02*
X175592171Y-80054153D01*
X176211219Y-79625581D02*
X175211219Y-79625581D01*
X175830266Y-79530343D02*
X176211219Y-79244629D01*
X175544552Y-79244629D02*
X175925504Y-79625581D01*
X176306457Y-79054153D02*
X176306457Y-78292248D01*
X176163600Y-77625581D02*
X176211219Y-77720819D01*
X176211219Y-77720819D02*
X176211219Y-77911295D01*
X176211219Y-77911295D02*
X176163600Y-78006533D01*
X176163600Y-78006533D02*
X176115980Y-78054152D01*
X176115980Y-78054152D02*
X176020742Y-78101771D01*
X176020742Y-78101771D02*
X175735028Y-78101771D01*
X175735028Y-78101771D02*
X175639790Y-78054152D01*
X175639790Y-78054152D02*
X175592171Y-78006533D01*
X175592171Y-78006533D02*
X175544552Y-77911295D01*
X175544552Y-77911295D02*
X175544552Y-77720819D01*
X175544552Y-77720819D02*
X175592171Y-77625581D01*
X176211219Y-77054152D02*
X176163600Y-77149390D01*
X176163600Y-77149390D02*
X176115980Y-77197009D01*
X176115980Y-77197009D02*
X176020742Y-77244628D01*
X176020742Y-77244628D02*
X175735028Y-77244628D01*
X175735028Y-77244628D02*
X175639790Y-77197009D01*
X175639790Y-77197009D02*
X175592171Y-77149390D01*
X175592171Y-77149390D02*
X175544552Y-77054152D01*
X175544552Y-77054152D02*
X175544552Y-76911295D01*
X175544552Y-76911295D02*
X175592171Y-76816057D01*
X175592171Y-76816057D02*
X175639790Y-76768438D01*
X175639790Y-76768438D02*
X175735028Y-76720819D01*
X175735028Y-76720819D02*
X176020742Y-76720819D01*
X176020742Y-76720819D02*
X176115980Y-76768438D01*
X176115980Y-76768438D02*
X176163600Y-76816057D01*
X176163600Y-76816057D02*
X176211219Y-76911295D01*
X176211219Y-76911295D02*
X176211219Y-77054152D01*
X175544552Y-76292247D02*
X176211219Y-76292247D01*
X175639790Y-76292247D02*
X175592171Y-76244628D01*
X175592171Y-76244628D02*
X175544552Y-76149390D01*
X175544552Y-76149390D02*
X175544552Y-76006533D01*
X175544552Y-76006533D02*
X175592171Y-75911295D01*
X175592171Y-75911295D02*
X175687409Y-75863676D01*
X175687409Y-75863676D02*
X176211219Y-75863676D01*
X176306457Y-75625581D02*
X176306457Y-74863676D01*
X176211219Y-74625580D02*
X175544552Y-74625580D01*
X175735028Y-74625580D02*
X175639790Y-74577961D01*
X175639790Y-74577961D02*
X175592171Y-74530342D01*
X175592171Y-74530342D02*
X175544552Y-74435104D01*
X175544552Y-74435104D02*
X175544552Y-74339866D01*
X176163600Y-73625580D02*
X176211219Y-73720818D01*
X176211219Y-73720818D02*
X176211219Y-73911294D01*
X176211219Y-73911294D02*
X176163600Y-74006532D01*
X176163600Y-74006532D02*
X176068361Y-74054151D01*
X176068361Y-74054151D02*
X175687409Y-74054151D01*
X175687409Y-74054151D02*
X175592171Y-74006532D01*
X175592171Y-74006532D02*
X175544552Y-73911294D01*
X175544552Y-73911294D02*
X175544552Y-73720818D01*
X175544552Y-73720818D02*
X175592171Y-73625580D01*
X175592171Y-73625580D02*
X175687409Y-73577961D01*
X175687409Y-73577961D02*
X175782647Y-73577961D01*
X175782647Y-73577961D02*
X175877885Y-74054151D01*
X176211219Y-73006532D02*
X176163600Y-73101770D01*
X176163600Y-73101770D02*
X176068361Y-73149389D01*
X176068361Y-73149389D02*
X175211219Y-73149389D01*
X176211219Y-72197008D02*
X175687409Y-72197008D01*
X175687409Y-72197008D02*
X175592171Y-72244627D01*
X175592171Y-72244627D02*
X175544552Y-72339865D01*
X175544552Y-72339865D02*
X175544552Y-72530341D01*
X175544552Y-72530341D02*
X175592171Y-72625579D01*
X176163600Y-72197008D02*
X176211219Y-72292246D01*
X176211219Y-72292246D02*
X176211219Y-72530341D01*
X176211219Y-72530341D02*
X176163600Y-72625579D01*
X176163600Y-72625579D02*
X176068361Y-72673198D01*
X176068361Y-72673198D02*
X175973123Y-72673198D01*
X175973123Y-72673198D02*
X175877885Y-72625579D01*
X175877885Y-72625579D02*
X175830266Y-72530341D01*
X175830266Y-72530341D02*
X175830266Y-72292246D01*
X175830266Y-72292246D02*
X175782647Y-72197008D01*
X175544552Y-71816055D02*
X176211219Y-71577960D01*
X175544552Y-71339865D02*
X176211219Y-71577960D01*
X176211219Y-71577960D02*
X176449314Y-71673198D01*
X176449314Y-71673198D02*
X176496933Y-71720817D01*
X176496933Y-71720817D02*
X176544552Y-71816055D01*
X176211219Y-70435103D02*
X176211219Y-71006531D01*
X176211219Y-70720817D02*
X175211219Y-70720817D01*
X175211219Y-70720817D02*
X175354076Y-70816055D01*
X175354076Y-70816055D02*
X175449314Y-70911293D01*
X175449314Y-70911293D02*
X175496933Y-71006531D01*
%TO.C,R4_Brake1*%
X163733551Y-103621819D02*
X163400218Y-103145628D01*
X163162123Y-103621819D02*
X163162123Y-102621819D01*
X163162123Y-102621819D02*
X163543075Y-102621819D01*
X163543075Y-102621819D02*
X163638313Y-102669438D01*
X163638313Y-102669438D02*
X163685932Y-102717057D01*
X163685932Y-102717057D02*
X163733551Y-102812295D01*
X163733551Y-102812295D02*
X163733551Y-102955152D01*
X163733551Y-102955152D02*
X163685932Y-103050390D01*
X163685932Y-103050390D02*
X163638313Y-103098009D01*
X163638313Y-103098009D02*
X163543075Y-103145628D01*
X163543075Y-103145628D02*
X163162123Y-103145628D01*
X164590694Y-102955152D02*
X164590694Y-103621819D01*
X164352599Y-102574200D02*
X164114504Y-103288485D01*
X164114504Y-103288485D02*
X164733551Y-103288485D01*
X164876409Y-103717057D02*
X165638313Y-103717057D01*
X166209742Y-103098009D02*
X166352599Y-103145628D01*
X166352599Y-103145628D02*
X166400218Y-103193247D01*
X166400218Y-103193247D02*
X166447837Y-103288485D01*
X166447837Y-103288485D02*
X166447837Y-103431342D01*
X166447837Y-103431342D02*
X166400218Y-103526580D01*
X166400218Y-103526580D02*
X166352599Y-103574200D01*
X166352599Y-103574200D02*
X166257361Y-103621819D01*
X166257361Y-103621819D02*
X165876409Y-103621819D01*
X165876409Y-103621819D02*
X165876409Y-102621819D01*
X165876409Y-102621819D02*
X166209742Y-102621819D01*
X166209742Y-102621819D02*
X166304980Y-102669438D01*
X166304980Y-102669438D02*
X166352599Y-102717057D01*
X166352599Y-102717057D02*
X166400218Y-102812295D01*
X166400218Y-102812295D02*
X166400218Y-102907533D01*
X166400218Y-102907533D02*
X166352599Y-103002771D01*
X166352599Y-103002771D02*
X166304980Y-103050390D01*
X166304980Y-103050390D02*
X166209742Y-103098009D01*
X166209742Y-103098009D02*
X165876409Y-103098009D01*
X166876409Y-103621819D02*
X166876409Y-102955152D01*
X166876409Y-103145628D02*
X166924028Y-103050390D01*
X166924028Y-103050390D02*
X166971647Y-103002771D01*
X166971647Y-103002771D02*
X167066885Y-102955152D01*
X167066885Y-102955152D02*
X167162123Y-102955152D01*
X167924028Y-103621819D02*
X167924028Y-103098009D01*
X167924028Y-103098009D02*
X167876409Y-103002771D01*
X167876409Y-103002771D02*
X167781171Y-102955152D01*
X167781171Y-102955152D02*
X167590695Y-102955152D01*
X167590695Y-102955152D02*
X167495457Y-103002771D01*
X167924028Y-103574200D02*
X167828790Y-103621819D01*
X167828790Y-103621819D02*
X167590695Y-103621819D01*
X167590695Y-103621819D02*
X167495457Y-103574200D01*
X167495457Y-103574200D02*
X167447838Y-103478961D01*
X167447838Y-103478961D02*
X167447838Y-103383723D01*
X167447838Y-103383723D02*
X167495457Y-103288485D01*
X167495457Y-103288485D02*
X167590695Y-103240866D01*
X167590695Y-103240866D02*
X167828790Y-103240866D01*
X167828790Y-103240866D02*
X167924028Y-103193247D01*
X168400219Y-103621819D02*
X168400219Y-102621819D01*
X168495457Y-103240866D02*
X168781171Y-103621819D01*
X168781171Y-102955152D02*
X168400219Y-103336104D01*
X169590695Y-103574200D02*
X169495457Y-103621819D01*
X169495457Y-103621819D02*
X169304981Y-103621819D01*
X169304981Y-103621819D02*
X169209743Y-103574200D01*
X169209743Y-103574200D02*
X169162124Y-103478961D01*
X169162124Y-103478961D02*
X169162124Y-103098009D01*
X169162124Y-103098009D02*
X169209743Y-103002771D01*
X169209743Y-103002771D02*
X169304981Y-102955152D01*
X169304981Y-102955152D02*
X169495457Y-102955152D01*
X169495457Y-102955152D02*
X169590695Y-103002771D01*
X169590695Y-103002771D02*
X169638314Y-103098009D01*
X169638314Y-103098009D02*
X169638314Y-103193247D01*
X169638314Y-103193247D02*
X169162124Y-103288485D01*
X170590695Y-103621819D02*
X170019267Y-103621819D01*
X170304981Y-103621819D02*
X170304981Y-102621819D01*
X170304981Y-102621819D02*
X170209743Y-102764676D01*
X170209743Y-102764676D02*
X170114505Y-102859914D01*
X170114505Y-102859914D02*
X170019267Y-102907533D01*
D11*
%TO.C,R3_RTD1*%
X148742400Y-36549200D02*
X148742400Y-37319200D01*
X150112400Y-37319200D02*
X147372400Y-37319200D01*
X147372400Y-37319200D02*
X147372400Y-43859200D01*
X150112400Y-43859200D02*
X150112400Y-37319200D01*
X147372400Y-43859200D02*
X150112400Y-43859200D01*
X148742400Y-44629200D02*
X148742400Y-43859200D01*
%TO.C,J1_Buck_Con_Ar1*%
X146045200Y-35641800D02*
X146045200Y-34901800D01*
X146045200Y-34901800D02*
X145545200Y-34901800D01*
X145805200Y-45062800D02*
X145805200Y-35141800D01*
X145805200Y-45062800D02*
X135525200Y-45062800D01*
X145805200Y-42102800D02*
X135525200Y-42102800D01*
X145805200Y-37201800D02*
X135525200Y-37201800D01*
X145805200Y-35701800D02*
X135525200Y-35701800D01*
X145805200Y-35141800D02*
X135525200Y-35141800D01*
X139352200Y-38778800D02*
X139399200Y-38732800D01*
X139159200Y-38562800D02*
X139194200Y-38527800D01*
X137055200Y-41076800D02*
X137090200Y-41040800D01*
X136850200Y-40870800D02*
X136897200Y-40824800D01*
X135525200Y-45062800D02*
X135525200Y-35141800D01*
X144740199Y-40485799D02*
G75*
G03*
X144740626Y-39118758I-1534992J684000D01*
G01*
X142521201Y-41336799D02*
G75*
G03*
X143888242Y-41337226I684000J1534992D01*
G01*
X143889200Y-38266801D02*
G75*
G03*
X143176395Y-38121548I-683999J-1535000D01*
G01*
X143205200Y-38121801D02*
G75*
G03*
X142521882Y-38267045I0J-1679999D01*
G01*
X141670200Y-39117800D02*
G75*
G03*
X141669774Y-40484842I1535000J-684000D01*
G01*
X139805200Y-39801800D02*
G75*
G03*
X139805200Y-39801800I-1680000J0D01*
G01*
%TO.C,J3_POT1*%
X185693800Y-50236400D02*
X186433800Y-50236400D01*
X186433800Y-50236400D02*
X186433800Y-49736400D01*
X176272800Y-49996400D02*
X186193800Y-49996400D01*
X176272800Y-49996400D02*
X176272800Y-34636400D01*
X179232800Y-49996400D02*
X179232800Y-34636400D01*
X184133800Y-49996400D02*
X184133800Y-34636400D01*
X185633800Y-49996400D02*
X185633800Y-34636400D01*
X186193800Y-49996400D02*
X186193800Y-34636400D01*
X182556800Y-43543400D02*
X182602800Y-43590400D01*
X182772800Y-43350400D02*
X182807800Y-43385400D01*
X180258800Y-41246400D02*
X180294800Y-41281400D01*
X180464800Y-41041400D02*
X180510800Y-41088400D01*
X182556800Y-38463400D02*
X182602800Y-38510400D01*
X182772800Y-38270400D02*
X182807800Y-38305400D01*
X180258800Y-36166400D02*
X180294800Y-36201400D01*
X180464800Y-35961400D02*
X180510800Y-36008400D01*
X176272800Y-34636400D02*
X186193800Y-34636400D01*
X180849801Y-48931399D02*
G75*
G03*
X182216842Y-48931826I684000J1534992D01*
G01*
X179998801Y-46712401D02*
G75*
G03*
X179998374Y-48079442I1534992J-684000D01*
G01*
X183068799Y-48080400D02*
G75*
G03*
X183214052Y-47367595I-1535000J683999D01*
G01*
X183213799Y-47396400D02*
G75*
G03*
X183068555Y-46713082I-1679999J0D01*
G01*
X182217800Y-45861400D02*
G75*
G03*
X180850758Y-45860974I-684000J-1535000D01*
G01*
X183213800Y-42316400D02*
G75*
G03*
X183213800Y-42316400I-1680000J0D01*
G01*
X183213800Y-37236400D02*
G75*
G03*
X183213800Y-37236400I-1680000J0D01*
G01*
%TO.C,R1_POT1*%
X158546800Y-36523800D02*
X158546800Y-37293800D01*
X159916800Y-37293800D02*
X157176800Y-37293800D01*
X157176800Y-37293800D02*
X157176800Y-43833800D01*
X159916800Y-43833800D02*
X159916800Y-37293800D01*
X157176800Y-43833800D02*
X159916800Y-43833800D01*
X158546800Y-44603800D02*
X158546800Y-43833800D01*
%TO.C,J7_Brake_Switch1*%
X131800800Y-35616200D02*
X131800800Y-34876200D01*
X131800800Y-34876200D02*
X131300800Y-34876200D01*
X131560800Y-45037200D02*
X131560800Y-35116200D01*
X131560800Y-45037200D02*
X121280800Y-45037200D01*
X131560800Y-42077200D02*
X121280800Y-42077200D01*
X131560800Y-37176200D02*
X121280800Y-37176200D01*
X131560800Y-35676200D02*
X121280800Y-35676200D01*
X131560800Y-35116200D02*
X121280800Y-35116200D01*
X125107800Y-38753200D02*
X125154800Y-38707200D01*
X124914800Y-38537200D02*
X124949800Y-38502200D01*
X122810800Y-41051200D02*
X122845800Y-41015200D01*
X122605800Y-40845200D02*
X122652800Y-40799200D01*
X121280800Y-45037200D02*
X121280800Y-35116200D01*
X130495799Y-40460199D02*
G75*
G03*
X130496226Y-39093158I-1534992J684000D01*
G01*
X128276801Y-41311199D02*
G75*
G03*
X129643842Y-41311626I684000J1534992D01*
G01*
X129644800Y-38241201D02*
G75*
G03*
X128931995Y-38095948I-683999J-1535000D01*
G01*
X128960800Y-38096201D02*
G75*
G03*
X128277482Y-38241445I0J-1679999D01*
G01*
X127425800Y-39092200D02*
G75*
G03*
X127425374Y-40459242I1535000J-684000D01*
G01*
X125560800Y-39776200D02*
G75*
G03*
X125560800Y-39776200I-1680000J0D01*
G01*
%TO.C,J6_RTD_Switch1*%
X173101200Y-35489200D02*
X173101200Y-34749200D01*
X173101200Y-34749200D02*
X172601200Y-34749200D01*
X172861200Y-44910200D02*
X172861200Y-34989200D01*
X172861200Y-44910200D02*
X162581200Y-44910200D01*
X172861200Y-41950200D02*
X162581200Y-41950200D01*
X172861200Y-37049200D02*
X162581200Y-37049200D01*
X172861200Y-35549200D02*
X162581200Y-35549200D01*
X172861200Y-34989200D02*
X162581200Y-34989200D01*
X166408200Y-38626200D02*
X166455200Y-38580200D01*
X166215200Y-38410200D02*
X166250200Y-38375200D01*
X164111200Y-40924200D02*
X164146200Y-40888200D01*
X163906200Y-40718200D02*
X163953200Y-40672200D01*
X162581200Y-44910200D02*
X162581200Y-34989200D01*
X171796199Y-40333199D02*
G75*
G03*
X171796626Y-38966158I-1534992J684000D01*
G01*
X169577201Y-41184199D02*
G75*
G03*
X170944242Y-41184626I684000J1534992D01*
G01*
X170945200Y-38114201D02*
G75*
G03*
X170232395Y-37968948I-683999J-1535000D01*
G01*
X170261200Y-37969201D02*
G75*
G03*
X169577882Y-38114445I0J-1679999D01*
G01*
X168726200Y-38965200D02*
G75*
G03*
X168725774Y-40332242I1535000J-684000D01*
G01*
X166861200Y-39649200D02*
G75*
G03*
X166861200Y-39649200I-1680000J0D01*
G01*
%TO.C,BZ1_Buzzer1*%
X156899800Y-108559600D02*
G75*
G03*
X156899800Y-108559600I-6100000J0D01*
G01*
%TO.C,R2_POT2*%
X154736800Y-44603800D02*
X154736800Y-43833800D01*
X153366800Y-43833800D02*
X156106800Y-43833800D01*
X156106800Y-43833800D02*
X156106800Y-37293800D01*
X153366800Y-37293800D02*
X153366800Y-43833800D01*
X156106800Y-37293800D02*
X153366800Y-37293800D01*
X154736800Y-36523800D02*
X154736800Y-37293800D01*
%TO.C,A1*%
X98933400Y-79637400D02*
X98933400Y-91317400D01*
X98933400Y-91317400D02*
X105283400Y-91317400D01*
X103383400Y-50427400D02*
X103383400Y-59567400D01*
X103383400Y-59567400D02*
X105283400Y-59567400D01*
X105283400Y-47247400D02*
X105283400Y-50427400D01*
X105283400Y-50427400D02*
X103383400Y-50427400D01*
X105283400Y-59567400D02*
X105283400Y-79637400D01*
X105283400Y-79637400D02*
X98933400Y-79637400D01*
X105283400Y-91317400D02*
X105283400Y-100847400D01*
X105283400Y-100847400D02*
X169933400Y-100847400D01*
X169933400Y-100847400D02*
X171583400Y-99197400D01*
X171583400Y-47247400D02*
X105283400Y-47247400D01*
X171583400Y-49917400D02*
X171583400Y-47247400D01*
X171583400Y-87767400D02*
X174123400Y-85227400D01*
X171583400Y-99197400D02*
X171583400Y-87767400D01*
X174123400Y-52457400D02*
X171583400Y-49917400D01*
X174123400Y-85227400D02*
X174123400Y-52457400D01*
%TO.C,J5_Relay_Module1*%
X186303400Y-102585800D02*
X187043400Y-102585800D01*
X187043400Y-102585800D02*
X187043400Y-102085800D01*
X176882400Y-102345800D02*
X186803400Y-102345800D01*
X176882400Y-102345800D02*
X176882400Y-86985800D01*
X179842400Y-102345800D02*
X179842400Y-86985800D01*
X184743400Y-102345800D02*
X184743400Y-86985800D01*
X186243400Y-102345800D02*
X186243400Y-86985800D01*
X186803400Y-102345800D02*
X186803400Y-86985800D01*
X183166400Y-95892800D02*
X183212400Y-95939800D01*
X183382400Y-95699800D02*
X183417400Y-95734800D01*
X180868400Y-93595800D02*
X180904400Y-93630800D01*
X181074400Y-93390800D02*
X181120400Y-93437800D01*
X183166400Y-90812800D02*
X183212400Y-90859800D01*
X183382400Y-90619800D02*
X183417400Y-90654800D01*
X180868400Y-88515800D02*
X180904400Y-88550800D01*
X181074400Y-88310800D02*
X181120400Y-88357800D01*
X176882400Y-86985800D02*
X186803400Y-86985800D01*
X181459401Y-101280799D02*
G75*
G03*
X182826442Y-101281226I684000J1534992D01*
G01*
X180608401Y-99061801D02*
G75*
G03*
X180607974Y-100428842I1534992J-684000D01*
G01*
X183678399Y-100429800D02*
G75*
G03*
X183823652Y-99716995I-1535000J683999D01*
G01*
X183823399Y-99745800D02*
G75*
G03*
X183678155Y-99062482I-1679999J0D01*
G01*
X182827400Y-98210800D02*
G75*
G03*
X181460358Y-98210374I-684000J-1535000D01*
G01*
X183823400Y-94665800D02*
G75*
G03*
X183823400Y-94665800I-1680000J0D01*
G01*
X183823400Y-89585800D02*
G75*
G03*
X183823400Y-89585800I-1680000J0D01*
G01*
%TO.C,J4_POT2*%
X185998600Y-68727600D02*
X186738600Y-68727600D01*
X186738600Y-68727600D02*
X186738600Y-68227600D01*
X176577600Y-68487600D02*
X186498600Y-68487600D01*
X176577600Y-68487600D02*
X176577600Y-53127600D01*
X179537600Y-68487600D02*
X179537600Y-53127600D01*
X184438600Y-68487600D02*
X184438600Y-53127600D01*
X185938600Y-68487600D02*
X185938600Y-53127600D01*
X186498600Y-68487600D02*
X186498600Y-53127600D01*
X182861600Y-62034600D02*
X182907600Y-62081600D01*
X183077600Y-61841600D02*
X183112600Y-61876600D01*
X180563600Y-59737600D02*
X180599600Y-59772600D01*
X180769600Y-59532600D02*
X180815600Y-59579600D01*
X182861600Y-56954600D02*
X182907600Y-57001600D01*
X183077600Y-56761600D02*
X183112600Y-56796600D01*
X180563600Y-54657600D02*
X180599600Y-54692600D01*
X180769600Y-54452600D02*
X180815600Y-54499600D01*
X176577600Y-53127600D02*
X186498600Y-53127600D01*
X181154601Y-67422599D02*
G75*
G03*
X182521642Y-67423026I684000J1534992D01*
G01*
X180303601Y-65203601D02*
G75*
G03*
X180303174Y-66570642I1534992J-684000D01*
G01*
X183373599Y-66571600D02*
G75*
G03*
X183518852Y-65858795I-1535000J683999D01*
G01*
X183518599Y-65887600D02*
G75*
G03*
X183373355Y-65204282I-1679999J0D01*
G01*
X182522600Y-64352600D02*
G75*
G03*
X181155558Y-64352174I-684000J-1535000D01*
G01*
X183518600Y-60807600D02*
G75*
G03*
X183518600Y-60807600I-1680000J0D01*
G01*
X183518600Y-55727600D02*
G75*
G03*
X183518600Y-55727600I-1680000J0D01*
G01*
%TO.C,J2_Buck_con_relay1*%
X186176400Y-83053200D02*
X186916400Y-83053200D01*
X186916400Y-83053200D02*
X186916400Y-82553200D01*
X176755400Y-82813200D02*
X186676400Y-82813200D01*
X176755400Y-82813200D02*
X176755400Y-72533200D01*
X179715400Y-82813200D02*
X179715400Y-72533200D01*
X184616400Y-82813200D02*
X184616400Y-72533200D01*
X186116400Y-82813200D02*
X186116400Y-72533200D01*
X186676400Y-82813200D02*
X186676400Y-72533200D01*
X183039400Y-76360200D02*
X183085400Y-76407200D01*
X183255400Y-76167200D02*
X183290400Y-76202200D01*
X180741400Y-74063200D02*
X180777400Y-74098200D01*
X180947400Y-73858200D02*
X180993400Y-73905200D01*
X176755400Y-72533200D02*
X186676400Y-72533200D01*
X181332401Y-81748199D02*
G75*
G03*
X182699442Y-81748626I684000J1534992D01*
G01*
X180481401Y-79529201D02*
G75*
G03*
X180480974Y-80896242I1534992J-684000D01*
G01*
X183551399Y-80897200D02*
G75*
G03*
X183696652Y-80184395I-1535000J683999D01*
G01*
X183696399Y-80213200D02*
G75*
G03*
X183551155Y-79529882I-1679999J0D01*
G01*
X182700400Y-78678200D02*
G75*
G03*
X181333358Y-78677774I-684000J-1535000D01*
G01*
X183696400Y-75133200D02*
G75*
G03*
X183696400Y-75133200I-1680000J0D01*
G01*
%TO.C,R4_Brake1*%
X162812600Y-105537000D02*
X163582600Y-105537000D01*
X163582600Y-104167000D02*
X163582600Y-106907000D01*
X163582600Y-106907000D02*
X170122600Y-106907000D01*
X170122600Y-104167000D02*
X163582600Y-104167000D01*
X170122600Y-106907000D02*
X170122600Y-104167000D01*
X170892600Y-105537000D02*
X170122600Y-105537000D01*
%TD*%
M02*
