%TF.GenerationSoftware,KiCad,Pcbnew,7.0.5*%
%TF.CreationDate,2023-12-17T15:08:04+05:30*%
%TF.ProjectId,LV conn,4c562063-6f6e-46e2-9e6b-696361645f70,rev?*%
%TF.SameCoordinates,Original*%
%TF.FileFunction,Copper,L1,Top*%
%TF.FilePolarity,Positive*%
%FSLAX46Y46*%
G04 Gerber Fmt 4.6, Leading zero omitted, Abs format (unit mm)*
G04 Created by KiCad (PCBNEW 7.0.5) date 2023-12-17 15:08:04*
%MOMM*%
%LPD*%
G01*
G04 APERTURE LIST*
%TA.AperFunction,ComponentPad*%
%ADD10C,1.600000*%
%TD*%
%TA.AperFunction,ComponentPad*%
%ADD11O,1.600000X1.600000*%
%TD*%
%TA.AperFunction,ComponentPad*%
%ADD12R,2.600000X2.600000*%
%TD*%
%TA.AperFunction,ComponentPad*%
%ADD13C,2.600000*%
%TD*%
%TA.AperFunction,ComponentPad*%
%ADD14R,2.000000X2.000000*%
%TD*%
%TA.AperFunction,ComponentPad*%
%ADD15C,2.000000*%
%TD*%
%TA.AperFunction,ComponentPad*%
%ADD16R,1.600000X1.600000*%
%TD*%
%TA.AperFunction,Conductor*%
%ADD17C,0.250000*%
%TD*%
G04 APERTURE END LIST*
D10*
%TO.P,R3_RTD1,1*%
%TO.N,D3*%
X148742400Y-35509200D03*
D11*
%TO.P,R3_RTD1,2*%
%TO.N,GND*%
X148742400Y-45669200D03*
%TD*%
D12*
%TO.P,J1_Buck_Con_Ar1,1,Pin_1*%
%TO.N,+9V*%
X143205200Y-39801800D03*
D13*
%TO.P,J1_Buck_Con_Ar1,2,Pin_2*%
%TO.N,GND*%
X138125200Y-39801800D03*
%TD*%
D12*
%TO.P,J3_POT1,1,Pin_1*%
%TO.N,5V*%
X181533800Y-47396400D03*
D13*
%TO.P,J3_POT1,2,Pin_2*%
%TO.N,A0*%
X181533800Y-42316400D03*
%TO.P,J3_POT1,3,Pin_3*%
%TO.N,GND*%
X181533800Y-37236400D03*
%TD*%
D10*
%TO.P,R1_POT1,1*%
%TO.N,A0*%
X158546800Y-35483800D03*
D11*
%TO.P,R1_POT1,2*%
%TO.N,GND*%
X158546800Y-45643800D03*
%TD*%
D12*
%TO.P,J7_Brake_Switch1,1,Pin_1*%
%TO.N,5V*%
X128960800Y-39776200D03*
D13*
%TO.P,J7_Brake_Switch1,2,Pin_2*%
%TO.N,D2*%
X123880800Y-39776200D03*
%TD*%
D12*
%TO.P,J6_RTD_Switch1,1,Pin_1*%
%TO.N,5V*%
X170261200Y-39649200D03*
D13*
%TO.P,J6_RTD_Switch1,2,Pin_2*%
%TO.N,D3*%
X165181200Y-39649200D03*
%TD*%
D14*
%TO.P,BZ1_Buzzer1,1,-*%
%TO.N,D5*%
X146999800Y-108559600D03*
D15*
%TO.P,BZ1_Buzzer1,2,+*%
%TO.N,GND*%
X154599800Y-108559600D03*
%TD*%
D10*
%TO.P,R2_POT2,1*%
%TO.N,A1*%
X154736800Y-45643800D03*
D11*
%TO.P,R2_POT2,2*%
%TO.N,GND*%
X154736800Y-35483800D03*
%TD*%
D16*
%TO.P,A1,1,NC*%
%TO.N,unconnected-(A1-NC-Pad1)*%
X133353400Y-49917400D03*
D11*
%TO.P,A1,2,IOREF*%
%TO.N,unconnected-(A1-IOREF-Pad2)*%
X135893400Y-49917400D03*
%TO.P,A1,3,~{RESET}*%
%TO.N,unconnected-(A1-~{RESET}-Pad3)*%
X138433400Y-49917400D03*
%TO.P,A1,4,3V3*%
%TO.N,3.3V*%
X140973400Y-49917400D03*
%TO.P,A1,5,+5V*%
%TO.N,5V*%
X143513400Y-49917400D03*
%TO.P,A1,6,GND*%
%TO.N,unconnected-(A1-GND-Pad6)*%
X146053400Y-49917400D03*
%TO.P,A1,7,GND*%
%TO.N,GND*%
X148593400Y-49917400D03*
%TO.P,A1,8,VIN*%
%TO.N,+9V*%
X151133400Y-49917400D03*
%TO.P,A1,9,A0*%
%TO.N,A0*%
X156213400Y-49917400D03*
%TO.P,A1,10,A1*%
%TO.N,A1*%
X158753400Y-49917400D03*
%TO.P,A1,11,A2*%
%TO.N,unconnected-(A1-A2-Pad11)*%
X161293400Y-49917400D03*
%TO.P,A1,12,A3*%
%TO.N,unconnected-(A1-A3-Pad12)*%
X163833400Y-49917400D03*
%TO.P,A1,13,SDA/A4*%
%TO.N,unconnected-(A1-SDA{slash}A4-Pad13)*%
X166373400Y-49917400D03*
%TO.P,A1,14,SCL/A5*%
%TO.N,unconnected-(A1-SCL{slash}A5-Pad14)*%
X168913400Y-49917400D03*
%TO.P,A1,15,D0/RX*%
%TO.N,unconnected-(A1-D0{slash}RX-Pad15)*%
X168913400Y-98177400D03*
%TO.P,A1,16,D1/TX*%
%TO.N,unconnected-(A1-D1{slash}TX-Pad16)*%
X166373400Y-98177400D03*
%TO.P,A1,17,D2*%
%TO.N,D2*%
X163833400Y-98177400D03*
%TO.P,A1,18,D3*%
%TO.N,D3*%
X161293400Y-98177400D03*
%TO.P,A1,19,D4*%
%TO.N,D4*%
X158753400Y-98177400D03*
%TO.P,A1,20,D5*%
%TO.N,D5*%
X156213400Y-98177400D03*
%TO.P,A1,21,D6*%
%TO.N,unconnected-(A1-D6-Pad21)*%
X153673400Y-98177400D03*
%TO.P,A1,22,D7*%
%TO.N,unconnected-(A1-D7-Pad22)*%
X151133400Y-98177400D03*
%TO.P,A1,23,D8*%
%TO.N,unconnected-(A1-D8-Pad23)*%
X147073400Y-98177400D03*
%TO.P,A1,24,D9*%
%TO.N,unconnected-(A1-D9-Pad24)*%
X144533400Y-98177400D03*
%TO.P,A1,25,D10*%
%TO.N,unconnected-(A1-D10-Pad25)*%
X141993400Y-98177400D03*
%TO.P,A1,26,D11*%
%TO.N,unconnected-(A1-D11-Pad26)*%
X139453400Y-98177400D03*
%TO.P,A1,27,D12*%
%TO.N,unconnected-(A1-D12-Pad27)*%
X136913400Y-98177400D03*
%TO.P,A1,28,D13*%
%TO.N,unconnected-(A1-D13-Pad28)*%
X134373400Y-98177400D03*
%TO.P,A1,29,GND*%
%TO.N,unconnected-(A1-GND-Pad29)*%
X131833400Y-98177400D03*
%TO.P,A1,30,AREF*%
%TO.N,unconnected-(A1-AREF-Pad30)*%
X129293400Y-98177400D03*
%TO.P,A1,31,SDA/A4*%
%TO.N,unconnected-(A1-SDA{slash}A4-Pad31)*%
X126753400Y-98177400D03*
%TO.P,A1,32,SCL/A5*%
%TO.N,unconnected-(A1-SCL{slash}A5-Pad32)*%
X124213400Y-98177400D03*
%TD*%
D12*
%TO.P,J5_Relay_Module1,1,Pin_1*%
%TO.N,+5V*%
X182143400Y-99745800D03*
D13*
%TO.P,J5_Relay_Module1,2,Pin_2*%
%TO.N,D4*%
X182143400Y-94665800D03*
%TO.P,J5_Relay_Module1,3,Pin_3*%
%TO.N,GND*%
X182143400Y-89585800D03*
%TD*%
D12*
%TO.P,J4_POT2,1,Pin_1*%
%TO.N,3.3V*%
X181838600Y-65887600D03*
D13*
%TO.P,J4_POT2,2,Pin_2*%
%TO.N,A1*%
X181838600Y-60807600D03*
%TO.P,J4_POT2,3,Pin_3*%
%TO.N,GND*%
X181838600Y-55727600D03*
%TD*%
D12*
%TO.P,J2_Buck_con_relay1,1,Pin_1*%
%TO.N,+5V*%
X182016400Y-80213200D03*
D13*
%TO.P,J2_Buck_con_relay1,2,Pin_2*%
%TO.N,GND*%
X182016400Y-75133200D03*
%TD*%
D10*
%TO.P,R4_Brake1,1*%
%TO.N,D2*%
X161772600Y-105537000D03*
D11*
%TO.P,R4_Brake1,2*%
%TO.N,GND*%
X171932600Y-105537000D03*
%TD*%
D17*
%TO.N,3.3V*%
X181838600Y-65887600D02*
X156943600Y-65887600D01*
X156943600Y-65887600D02*
X140973400Y-49917400D01*
%TO.N,5V*%
X146636600Y-46794200D02*
X146636600Y-35227400D01*
X175387000Y-34213800D02*
X180848000Y-39674800D01*
X147650200Y-34213800D02*
X175387000Y-34213800D01*
X128960800Y-39776200D02*
X133372200Y-39776200D01*
X133372200Y-39776200D02*
X143513400Y-49917400D01*
X182397400Y-39674800D02*
X184353200Y-41630600D01*
X184353200Y-41630600D02*
X184353200Y-44577000D01*
X180848000Y-39674800D02*
X182397400Y-39674800D01*
X184353200Y-44577000D02*
X181533800Y-47396400D01*
X170261200Y-39649200D02*
X173786600Y-39649200D01*
X143513400Y-49917400D02*
X146636600Y-46794200D01*
X173786600Y-39649200D02*
X181533800Y-47396400D01*
X146636600Y-35227400D02*
X147650200Y-34213800D01*
%TO.N,GND*%
X154599800Y-108559600D02*
X168910000Y-108559600D01*
X168910000Y-108559600D02*
X171932600Y-105537000D01*
%TO.N,+9V*%
X149717400Y-51333400D02*
X151133400Y-49917400D01*
X142189200Y-50444400D02*
X143078200Y-51333400D01*
X126034800Y-41021000D02*
X133248400Y-48234600D01*
X142189200Y-49326800D02*
X142189200Y-50444400D01*
X141097000Y-48234600D02*
X142189200Y-49326800D01*
X126034800Y-39452200D02*
X128276000Y-37211000D01*
X133248400Y-48234600D02*
X141097000Y-48234600D01*
X128276000Y-37211000D02*
X140614400Y-37211000D01*
X126034800Y-41021000D02*
X126034800Y-39452200D01*
X143205200Y-39801800D02*
X140614400Y-37211000D01*
X143078200Y-51333400D02*
X149717400Y-51333400D01*
%TO.N,A0*%
X167690800Y-44179009D02*
X162610800Y-49259009D01*
X164185600Y-35483800D02*
X167690800Y-38989000D01*
X162610800Y-49259009D02*
X162610800Y-50774600D01*
X167690800Y-38989000D02*
X167690800Y-44179009D01*
X157858000Y-51562000D02*
X156213400Y-49917400D01*
X181533800Y-42316400D02*
X174701200Y-35483800D01*
X162610800Y-50774600D02*
X161823400Y-51562000D01*
X174701200Y-35483800D02*
X158546800Y-35483800D01*
X158546800Y-35483800D02*
X164185600Y-35483800D01*
X161823400Y-51562000D02*
X157858000Y-51562000D01*
%TO.N,A1*%
X155752800Y-48463200D02*
X154736800Y-49479200D01*
X154736800Y-49479200D02*
X154736800Y-51028600D01*
X158753400Y-49917400D02*
X157299200Y-48463200D01*
X154736800Y-51028600D02*
X164515800Y-60807600D01*
X158753400Y-49660400D02*
X158753400Y-49917400D01*
X157299200Y-48463200D02*
X155752800Y-48463200D01*
X154736800Y-45643800D02*
X158753400Y-49660400D01*
X164515800Y-60807600D02*
X181838600Y-60807600D01*
%TO.N,D2*%
X160045400Y-103809800D02*
X160045400Y-80873600D01*
X161772600Y-105537000D02*
X161772600Y-100238200D01*
X160045400Y-80873600D02*
X123880800Y-44709000D01*
X161772600Y-100238200D02*
X163833400Y-98177400D01*
X161772600Y-105537000D02*
X160045400Y-103809800D01*
X123880800Y-44709000D02*
X123880800Y-39776200D01*
%TO.N,D3*%
X184251600Y-70535800D02*
X161293400Y-93494000D01*
X152882400Y-39649200D02*
X165181200Y-39649200D01*
X152628600Y-44221400D02*
X152628600Y-50444400D01*
X165735000Y-63550800D02*
X183057800Y-63550800D01*
X165181200Y-39649200D02*
X159140409Y-39649200D01*
X152628600Y-50444400D02*
X165735000Y-63550800D01*
X155041600Y-41808400D02*
X152628600Y-44221400D01*
X183057800Y-63550800D02*
X184251600Y-64744600D01*
X156981209Y-41808400D02*
X155041600Y-41808400D01*
X161293400Y-93494000D02*
X161293400Y-98177400D01*
X148742400Y-35509200D02*
X152882400Y-39649200D01*
X184251600Y-64744600D02*
X184251600Y-70535800D01*
X159140409Y-39649200D02*
X156981209Y-41808400D01*
%TO.N,D4*%
X152501600Y-110109000D02*
X154406600Y-112014000D01*
X152501600Y-104429200D02*
X152501600Y-110109000D01*
X178816000Y-102463600D02*
X178816000Y-97993200D01*
X169265600Y-112014000D02*
X178816000Y-102463600D01*
X154406600Y-112014000D02*
X169265600Y-112014000D01*
X158753400Y-98177400D02*
X152501600Y-104429200D01*
X178816000Y-97993200D02*
X182143400Y-94665800D01*
%TO.N,D5*%
X156213400Y-98177400D02*
X156213400Y-99346000D01*
X156213400Y-99346000D02*
X146999800Y-108559600D01*
%TO.N,+5V*%
X183693400Y-99745800D02*
X185115200Y-98324000D01*
X185115200Y-98324000D02*
X185115200Y-83312000D01*
X182143400Y-99745800D02*
X183693400Y-99745800D01*
X185115200Y-83312000D02*
X182016400Y-80213200D01*
%TD*%
M02*
