%TF.GenerationSoftware,KiCad,Pcbnew,7.0.5*%
%TF.CreationDate,2024-01-10T23:37:05+05:30*%
%TF.ProjectId,Shutdown Circuit,53687574-646f-4776-9e20-436972637569,rev?*%
%TF.SameCoordinates,Original*%
%TF.FileFunction,Copper,L1,Top*%
%TF.FilePolarity,Positive*%
%FSLAX46Y46*%
G04 Gerber Fmt 4.6, Leading zero omitted, Abs format (unit mm)*
G04 Created by KiCad (PCBNEW 7.0.5) date 2024-01-10 23:37:05*
%MOMM*%
%LPD*%
G01*
G04 APERTURE LIST*
%TA.AperFunction,ComponentPad*%
%ADD10C,1.600000*%
%TD*%
%TA.AperFunction,ComponentPad*%
%ADD11R,2.000000X1.905000*%
%TD*%
%TA.AperFunction,ComponentPad*%
%ADD12O,2.000000X1.905000*%
%TD*%
%TA.AperFunction,ComponentPad*%
%ADD13R,1.905000X2.000000*%
%TD*%
%TA.AperFunction,ComponentPad*%
%ADD14O,1.905000X2.000000*%
%TD*%
%TA.AperFunction,ComponentPad*%
%ADD15O,1.600000X1.600000*%
%TD*%
%TA.AperFunction,ComponentPad*%
%ADD16R,2.600000X2.600000*%
%TD*%
%TA.AperFunction,ComponentPad*%
%ADD17C,2.600000*%
%TD*%
%TA.AperFunction,ComponentPad*%
%ADD18C,1.308000*%
%TD*%
%TA.AperFunction,ComponentPad*%
%ADD19C,1.950000*%
%TD*%
%TA.AperFunction,ComponentPad*%
%ADD20C,1.800000*%
%TD*%
%TA.AperFunction,ComponentPad*%
%ADD21C,1.575000*%
%TD*%
%TA.AperFunction,ComponentPad*%
%ADD22R,1.575000X1.575000*%
%TD*%
%TA.AperFunction,ComponentPad*%
%ADD23R,2.200000X2.200000*%
%TD*%
%TA.AperFunction,ComponentPad*%
%ADD24O,2.200000X2.200000*%
%TD*%
%TA.AperFunction,ComponentPad*%
%ADD25C,3.000000*%
%TD*%
%TA.AperFunction,ComponentPad*%
%ADD26R,3.000000X3.000000*%
%TD*%
%TA.AperFunction,ComponentPad*%
%ADD27R,1.170000X1.170000*%
%TD*%
%TA.AperFunction,ComponentPad*%
%ADD28C,1.170000*%
%TD*%
%TA.AperFunction,ComponentPad*%
%ADD29R,1.508000X1.508000*%
%TD*%
%TA.AperFunction,ComponentPad*%
%ADD30C,1.508000*%
%TD*%
%TA.AperFunction,ViaPad*%
%ADD31C,0.800000*%
%TD*%
%TA.AperFunction,Conductor*%
%ADD32C,0.500000*%
%TD*%
%TA.AperFunction,Conductor*%
%ADD33C,0.200000*%
%TD*%
%TA.AperFunction,Conductor*%
%ADD34C,0.250000*%
%TD*%
G04 APERTURE END LIST*
D10*
%TO.P,C2,2*%
%TO.N,SDC-*%
X174026200Y-60497600D03*
%TO.P,C2,1*%
%TO.N,+5V*%
X169026200Y-60497600D03*
%TD*%
D11*
%TO.P,Q7,1,G*%
%TO.N,Net-(Q7-G)*%
X83413600Y-64465200D03*
D12*
%TO.P,Q7,2,D*%
%TO.N,Net-(Q7-D)*%
X83413600Y-61925200D03*
%TO.P,Q7,3,S*%
%TO.N,SDC-*%
X83413600Y-59385200D03*
%TD*%
D13*
%TO.P,Q5,1,G*%
%TO.N,Net-(Q5-G)*%
X130581400Y-74147800D03*
D14*
%TO.P,Q5,2,D*%
%TO.N,Net-(Q5-D)*%
X133121400Y-74147800D03*
%TO.P,Q5,3,S*%
%TO.N,SDC-*%
X135661400Y-74147800D03*
%TD*%
D11*
%TO.P,Q3,1,G*%
%TO.N,Net-(Q3-G)*%
X109174400Y-62585600D03*
D12*
%TO.P,Q3,2,D*%
%TO.N,Net-(Q3-D)*%
X109174400Y-60045600D03*
%TO.P,Q3,3,S*%
%TO.N,SDC-*%
X109174400Y-57505600D03*
%TD*%
D10*
%TO.P,C1,2*%
%TO.N,SDC-*%
X165847400Y-60472200D03*
%TO.P,C1,1*%
%TO.N,Trac In*%
X160847400Y-60472200D03*
%TD*%
%TO.P,R3,1*%
%TO.N,Net-(Q4-G)*%
X62890400Y-58216800D03*
D15*
%TO.P,R3,2*%
%TO.N,SDC-*%
X62890400Y-48056800D03*
%TD*%
D16*
%TO.P,J4,1,Pin_1*%
%TO.N,Net-(J3-Pin_2)*%
X110510400Y-83413800D03*
D17*
%TO.P,J4,2,Pin_2*%
%TO.N,Net-(J4-Pin_2)*%
X115590400Y-83413800D03*
%TD*%
D16*
%TO.P,J15,1,Pin_1*%
%TO.N,Net-(J15-Pin_1)*%
X58064400Y-84099400D03*
D17*
%TO.P,J15,2,Pin_2*%
%TO.N,SDC+*%
X63144400Y-84099400D03*
%TD*%
D18*
%TO.P,K1,COIL1*%
%TO.N,SDC-*%
X130117900Y-39752500D03*
%TO.P,K1,COIL2*%
%TO.N,reset*%
X118117900Y-39752500D03*
D19*
%TO.P,K1,COM*%
%TO.N,Net-(K1-PadCOM)*%
X123997900Y-37752500D03*
D20*
%TO.P,K1,NC*%
%TO.N,unconnected-(K1-PadNC)*%
X130117900Y-51952500D03*
%TO.P,K1,NO*%
%TO.N,Net-(Q1-D)*%
X118117900Y-51952500D03*
%TD*%
D21*
%TO.P,J17,2,2*%
%TO.N,SDC-*%
X153599200Y-71738000D03*
D22*
%TO.P,J17,1,1*%
%TO.N,Net-(Q5-D)*%
X151099200Y-71738000D03*
%TD*%
D10*
%TO.P,R6,1*%
%TO.N,BSPD fault*%
X116763800Y-67233800D03*
D15*
%TO.P,R6,2*%
%TO.N,Net-(Q3-G)*%
X116763800Y-57073800D03*
%TD*%
D16*
%TO.P,J1,1,Pin_1*%
%TO.N,Net-(J1-Pin_1)*%
X191180800Y-79832400D03*
D17*
%TO.P,J1,2,Pin_2*%
%TO.N,Net-(J1-Pin_2)*%
X196260800Y-79832400D03*
%TD*%
D23*
%TO.P,D2,1,K*%
%TO.N,reset*%
X119311700Y-30819700D03*
D24*
%TO.P,D2,2,A*%
%TO.N,SDC-*%
X129471700Y-30819700D03*
%TD*%
D11*
%TO.P,Q2,1,G*%
%TO.N,Net-(Q2-G)*%
X157480000Y-39166800D03*
D12*
%TO.P,Q2,2,D*%
%TO.N,Net-(Q2-D)*%
X157480000Y-36626800D03*
%TO.P,Q2,3,S*%
%TO.N,SDC-*%
X157480000Y-34086800D03*
%TD*%
D11*
%TO.P,Q4,1,G*%
%TO.N,Net-(Q4-G)*%
X60381000Y-39547800D03*
D12*
%TO.P,Q4,2,D*%
%TO.N,Net-(Q4-D)*%
X60381000Y-37007800D03*
%TO.P,Q4,3,S*%
%TO.N,SDC-*%
X60381000Y-34467800D03*
%TD*%
D16*
%TO.P,J7,1,Pin_1*%
%TO.N,Net-(J6-Pin_2)*%
X71297800Y-84099400D03*
D17*
%TO.P,J7,2,Pin_2*%
%TO.N,Net-(J15-Pin_1)*%
X76377800Y-84099400D03*
%TD*%
D10*
%TO.P,R11,1*%
%TO.N,Trac In*%
X121361200Y-67233800D03*
D15*
%TO.P,R11,2*%
%TO.N,Net-(Q3-D)*%
X121361200Y-57073800D03*
%TD*%
D22*
%TO.P,J16,1,1*%
%TO.N,Net-(Q3-D)*%
X108345600Y-69748400D03*
D21*
%TO.P,J16,2,2*%
%TO.N,SDC-*%
X110845600Y-69748400D03*
%TD*%
D17*
%TO.P,J11,2,Pin_2*%
%TO.N,SDC+*%
X46022614Y-52022798D03*
D16*
%TO.P,J11,1,Pin_1*%
%TO.N,SDC-*%
X46022614Y-46942798D03*
%TD*%
D18*
%TO.P,K3,COIL1*%
%TO.N,SDC-*%
X177557200Y-38371400D03*
%TO.P,K3,COIL2*%
%TO.N,reset*%
X165557200Y-38371400D03*
D19*
%TO.P,K3,COM*%
%TO.N,Net-(K3-PadCOM)*%
X171437200Y-36371400D03*
D20*
%TO.P,K3,NC*%
%TO.N,unconnected-(K3-PadNC)*%
X177557200Y-50571400D03*
%TO.P,K3,NO*%
%TO.N,Net-(Q2-D)*%
X165557200Y-50571400D03*
%TD*%
D10*
%TO.P,R12,1*%
%TO.N,Trac In*%
X150723600Y-57480200D03*
D15*
%TO.P,R12,2*%
%TO.N,Net-(Q5-D)*%
X150723600Y-67640200D03*
%TD*%
D16*
%TO.P,J5,1,Pin_1*%
%TO.N,Net-(J4-Pin_2)*%
X97226200Y-83845600D03*
D17*
%TO.P,J5,2,Pin_2*%
%TO.N,Net-(J5-Pin_2)*%
X102306200Y-83845600D03*
%TD*%
D11*
%TO.P,Q1,1,G*%
%TO.N,Net-(Q1-G)*%
X109911000Y-37236400D03*
D12*
%TO.P,Q1,2,D*%
%TO.N,Net-(Q1-D)*%
X109911000Y-34696400D03*
%TO.P,Q1,3,S*%
%TO.N,SDC-*%
X109911000Y-32156400D03*
%TD*%
D10*
%TO.P,R8,1*%
%TO.N,Net-(Q2-G)*%
X157429200Y-44246800D03*
D15*
%TO.P,R8,2*%
%TO.N,SDC-*%
X157429200Y-54406800D03*
%TD*%
D22*
%TO.P,J14,1,1*%
%TO.N,Net-(Q7-D)*%
X81782600Y-70595000D03*
D21*
%TO.P,J14,2,2*%
%TO.N,SDC-*%
X84282600Y-70595000D03*
%TD*%
D10*
%TO.P,R1,1*%
%TO.N,AMS Fault*%
X70078600Y-69773800D03*
D15*
%TO.P,R1,2*%
%TO.N,Net-(Q7-G)*%
X70078600Y-59613800D03*
%TD*%
D18*
%TO.P,K7,COIL1*%
%TO.N,SDC-*%
X82555600Y-40153400D03*
%TO.P,K7,COIL2*%
%TO.N,reset*%
X70555600Y-40153400D03*
D19*
%TO.P,K7,COM*%
%TO.N,Net-(K2-Pad11)*%
X76435600Y-38153400D03*
D20*
%TO.P,K7,NC*%
%TO.N,unconnected-(K7-PadNC)*%
X82555600Y-52353400D03*
%TO.P,K7,NO*%
%TO.N,Net-(Q4-D)*%
X70555600Y-52353400D03*
%TD*%
D23*
%TO.P,D3,1,K*%
%TO.N,reset*%
X165869900Y-30845100D03*
D24*
%TO.P,D3,2,A*%
%TO.N,SDC-*%
X176029900Y-30845100D03*
%TD*%
D16*
%TO.P,J3,1,Pin_1*%
%TO.N,Net-(J2-Pin_2)*%
X123063000Y-83312000D03*
D17*
%TO.P,J3,2,Pin_2*%
%TO.N,Net-(J3-Pin_2)*%
X128143000Y-83312000D03*
%TD*%
D25*
%TO.P,K4,11*%
%TO.N,Net-(K1-PadCOM)*%
X145218800Y-62581800D03*
%TO.P,K4,12*%
%TO.N,unconnected-(K4-Pad12)*%
X145218800Y-57581800D03*
%TO.P,K4,14*%
%TO.N,Net-(Q1-D)*%
X145218800Y-67581800D03*
%TO.P,K4,21*%
%TO.N,IMD In*%
X137718800Y-62581800D03*
%TO.P,K4,22*%
%TO.N,unconnected-(K4-Pad22)*%
X137718800Y-57581800D03*
%TO.P,K4,24*%
%TO.N,AMS In*%
X137718800Y-67581800D03*
D26*
%TO.P,K4,A1*%
%TO.N,Trac In*%
X145218800Y-42581800D03*
D25*
%TO.P,K4,A2*%
%TO.N,Net-(K1-PadCOM)*%
X137718800Y-42581800D03*
%TD*%
D16*
%TO.P,J2,1,Pin_1*%
%TO.N,Net-(J1-Pin_2)*%
X135834200Y-83261400D03*
D17*
%TO.P,J2,2,Pin_2*%
%TO.N,Net-(J2-Pin_2)*%
X140914200Y-83261400D03*
%TD*%
D10*
%TO.P,R7,1*%
%TO.N,AMS Fault*%
X151282400Y-54381400D03*
D15*
%TO.P,R7,2*%
%TO.N,Net-(Q2-G)*%
X151282400Y-44221400D03*
%TD*%
D16*
%TO.P,J10,1,Pin_1*%
%TO.N,Trac In*%
X46099014Y-60104998D03*
D17*
%TO.P,J10,2,Pin_2*%
%TO.N,SDC-*%
X46099014Y-65184998D03*
%TD*%
D16*
%TO.P,J22,1,Pin_1*%
%TO.N,SDC-*%
X46149814Y-73135198D03*
D17*
%TO.P,J22,2,Pin_2*%
%TO.N,Net-(J15-Pin_1)*%
X46149814Y-78215198D03*
%TD*%
D13*
%TO.P,U2,1,IN*%
%TO.N,Trac In*%
X164338000Y-67741800D03*
D14*
%TO.P,U2,2,GND*%
%TO.N,SDC-*%
X166878000Y-67741800D03*
%TO.P,U2,3,OUT*%
%TO.N,+5V*%
X169418000Y-67741800D03*
%TD*%
D22*
%TO.P,J13,1,1*%
%TO.N,BMS5*%
X129416100Y-62069200D03*
D21*
%TO.P,J13,2,2*%
%TO.N,unconnected-(J13-Pad2)*%
X126916100Y-62069200D03*
%TD*%
D27*
%TO.P,U1,1,1A*%
%TO.N,BMS1*%
X154889200Y-87071200D03*
D28*
%TO.P,U1,2,1B*%
%TO.N,BMS2*%
X157429200Y-87071200D03*
%TO.P,U1,3,1Y*%
%TO.N,out1*%
X159969200Y-87071200D03*
%TO.P,U1,4,2A*%
%TO.N,BMS3*%
X162509200Y-87071200D03*
%TO.P,U1,5,2B*%
%TO.N,BMS4*%
X165049200Y-87071200D03*
%TO.P,U1,6,2Y*%
%TO.N,out2*%
X167589200Y-87071200D03*
%TO.P,U1,7,GND*%
%TO.N,SDC-*%
X170129200Y-87071200D03*
%TO.P,U1,8,3Y*%
%TO.N,out3*%
X170129200Y-79131200D03*
%TO.P,U1,9,3A*%
%TO.N,out2*%
X167589200Y-79131200D03*
%TO.P,U1,10,3B*%
%TO.N,out1*%
X165049200Y-79131200D03*
%TO.P,U1,11,4Y*%
%TO.N,AMS Fault*%
X162509200Y-79131200D03*
%TO.P,U1,12,4A*%
%TO.N,out3*%
X159969200Y-79131200D03*
%TO.P,U1,13,4B*%
%TO.N,BMS5*%
X157429200Y-79131200D03*
%TO.P,U1,14,VCC*%
%TO.N,+5V*%
X154889200Y-79131200D03*
%TD*%
D16*
%TO.P,J6,1,Pin_1*%
%TO.N,Net-(J5-Pin_2)*%
X84353400Y-84150200D03*
D17*
%TO.P,J6,2,Pin_2*%
%TO.N,Net-(J6-Pin_2)*%
X89433400Y-84150200D03*
%TD*%
D10*
%TO.P,R4,1*%
%TO.N,IMD Fault*%
X105130600Y-52527200D03*
D15*
%TO.P,R4,2*%
%TO.N,Net-(Q1-G)*%
X105130600Y-42367200D03*
%TD*%
D10*
%TO.P,R5,1*%
%TO.N,Net-(Q1-G)*%
X111150400Y-42545000D03*
D15*
%TO.P,R5,2*%
%TO.N,SDC-*%
X111150400Y-52705000D03*
%TD*%
D16*
%TO.P,J9,1,Pin_1*%
%TO.N,Trac In*%
X143692800Y-32080000D03*
D17*
%TO.P,J9,2,Pin_2*%
%TO.N,reset*%
X138612800Y-32080000D03*
%TD*%
D22*
%TO.P,J12,1,1*%
%TO.N,BSPD fault*%
X59326700Y-66200800D03*
D21*
%TO.P,J12,2,2*%
%TO.N,IMD Fault*%
X61826700Y-66200800D03*
%TD*%
D29*
%TO.P,J19,1,1*%
%TO.N,BMS1*%
X176596900Y-81059800D03*
D30*
%TO.P,J19,2,2*%
%TO.N,BMS2*%
X179096900Y-81059800D03*
%TO.P,J19,3,3*%
%TO.N,BMS3*%
X181596900Y-81059800D03*
%TO.P,J19,4,4*%
%TO.N,BMS4*%
X184096900Y-81059800D03*
%TD*%
D10*
%TO.P,R9,1*%
%TO.N,IMD Fault*%
X115620800Y-72821800D03*
D15*
%TO.P,R9,2*%
%TO.N,Net-(Q5-G)*%
X125780800Y-72821800D03*
%TD*%
D23*
%TO.P,D1,1,K*%
%TO.N,reset*%
X71526400Y-32308800D03*
D24*
%TO.P,D1,2,A*%
%TO.N,SDC-*%
X81686400Y-32308800D03*
%TD*%
D25*
%TO.P,K5,11*%
%TO.N,Net-(K3-PadCOM)*%
X195198100Y-63664500D03*
%TO.P,K5,12*%
%TO.N,unconnected-(K5-Pad12)*%
X195198100Y-58664500D03*
%TO.P,K5,14*%
%TO.N,Net-(Q2-D)*%
X195198100Y-68664500D03*
%TO.P,K5,21*%
%TO.N,AMS In*%
X187698100Y-63664500D03*
%TO.P,K5,22*%
%TO.N,unconnected-(K5-Pad22)*%
X187698100Y-58664500D03*
%TO.P,K5,24*%
%TO.N,Net-(J1-Pin_1)*%
X187698100Y-68664500D03*
D26*
%TO.P,K5,A1*%
%TO.N,Trac In*%
X195198100Y-43664500D03*
D25*
%TO.P,K5,A2*%
%TO.N,Net-(K3-PadCOM)*%
X187698100Y-43664500D03*
%TD*%
D16*
%TO.P,J18,1,Pin_1*%
%TO.N,BSPD In*%
X97724562Y-32035638D03*
D17*
%TO.P,J18,2,Pin_2*%
%TO.N,SDC-*%
X92644562Y-32035638D03*
%TD*%
D10*
%TO.P,R2,1*%
%TO.N,BSPD fault*%
X56489600Y-58216800D03*
D15*
%TO.P,R2,2*%
%TO.N,Net-(Q4-G)*%
X56489600Y-48056800D03*
%TD*%
D17*
%TO.P,J8,2,Pin_2*%
%TO.N,Trac In*%
X46073814Y-39662998D03*
D16*
%TO.P,J8,1,Pin_1*%
%TO.N,BSPD In*%
X46073814Y-34582998D03*
%TD*%
D25*
%TO.P,K2,11*%
%TO.N,Net-(K2-Pad11)*%
X98830500Y-63029500D03*
%TO.P,K2,12*%
%TO.N,unconnected-(K2-Pad12)*%
X98830500Y-58029500D03*
%TO.P,K2,14*%
%TO.N,Net-(Q4-D)*%
X98830500Y-68029500D03*
%TO.P,K2,21*%
%TO.N,BSPD In*%
X91330500Y-63029500D03*
%TO.P,K2,22*%
%TO.N,unconnected-(K2-Pad22)*%
X91330500Y-58029500D03*
%TO.P,K2,24*%
%TO.N,IMD In*%
X91330500Y-68029500D03*
D26*
%TO.P,K2,A1*%
%TO.N,Trac In*%
X98830500Y-43029500D03*
D25*
%TO.P,K2,A2*%
%TO.N,Net-(K2-Pad11)*%
X91330500Y-43029500D03*
%TD*%
D10*
%TO.P,R10,1*%
%TO.N,Trac In*%
X75666600Y-59613800D03*
D15*
%TO.P,R10,2*%
%TO.N,Net-(Q7-D)*%
X75666600Y-69773800D03*
%TD*%
D31*
%TO.N,AMS Fault*%
X102108000Y-75692000D03*
X147828000Y-78740000D03*
%TO.N,Net-(Q4-D)*%
X66548000Y-61976000D03*
X66548000Y-67564000D03*
%TO.N,Net-(Q1-D)*%
X140208000Y-55372000D03*
%TO.N,Net-(K2-Pad11)*%
X93472000Y-51308000D03*
%TO.N,Net-(Q2-D)*%
X179832000Y-61976000D03*
%TO.N,AMS Fault*%
X155448000Y-60452000D03*
%TO.N,SDC-*%
X172720000Y-74676000D03*
%TD*%
D32*
%TO.N,SDC-*%
X45005202Y-46942798D02*
X46022614Y-46942798D01*
X41148000Y-60233984D02*
X41148000Y-50800000D01*
X46099014Y-65184998D02*
X41148000Y-60233984D01*
X41148000Y-50800000D02*
X45005202Y-46942798D01*
%TO.N,AMS Fault*%
X105156000Y-78740000D02*
X147828000Y-78740000D01*
X102108000Y-75692000D02*
X105156000Y-78740000D01*
%TO.N,Net-(Q4-D)*%
X90660000Y-76200000D02*
X98830500Y-68029500D01*
X70612000Y-76200000D02*
X90660000Y-76200000D01*
X66548000Y-72136000D02*
X70612000Y-76200000D01*
X66548000Y-67564000D02*
X66548000Y-72136000D01*
X66548000Y-58420000D02*
X66548000Y-61976000D01*
X70555600Y-54412400D02*
X66548000Y-58420000D01*
X70555600Y-52353400D02*
X70555600Y-54412400D01*
%TO.N,IMD Fault*%
X95504000Y-78232000D02*
X103632000Y-70104000D01*
X61826700Y-70462700D02*
X69596000Y-78232000D01*
X61826700Y-66200800D02*
X61826700Y-70462700D01*
X69596000Y-78232000D02*
X95504000Y-78232000D01*
%TO.N,Net-(Q1-D)*%
X141224000Y-63587000D02*
X145218800Y-67581800D01*
X141224000Y-56388000D02*
X141224000Y-63587000D01*
X140208000Y-55372000D02*
X141224000Y-56388000D01*
%TO.N,reset*%
X71526400Y-39182600D02*
X70555600Y-40153400D01*
X71526400Y-32308800D02*
X71526400Y-39182600D01*
X77216000Y-26416000D02*
X114300000Y-26416000D01*
X118703700Y-30819700D02*
X119311700Y-30819700D01*
X76708000Y-26924000D02*
X77216000Y-26416000D01*
X70555600Y-40153400D02*
X76708000Y-34001000D01*
X76708000Y-34001000D02*
X76708000Y-26924000D01*
X114300000Y-26416000D02*
X118703700Y-30819700D01*
%TO.N,BMS5*%
X157429200Y-77673200D02*
X157429200Y-79131200D01*
X143256000Y-75692000D02*
X155448000Y-75692000D01*
X131572000Y-70612000D02*
X138176000Y-70612000D01*
X138176000Y-70612000D02*
X143256000Y-75692000D01*
X129416100Y-68456100D02*
X131572000Y-70612000D01*
X155448000Y-75692000D02*
X157429200Y-77673200D01*
X129416100Y-62069200D02*
X129416100Y-68456100D01*
%TO.N,Net-(Q3-D)*%
X107594400Y-60045600D02*
X109174400Y-60045600D01*
X106680000Y-60960000D02*
X107594400Y-60045600D01*
X106680000Y-68082800D02*
X106680000Y-60960000D01*
X108345600Y-69748400D02*
X106680000Y-68082800D01*
D33*
%TO.N,SDC-*%
X55372000Y-34544000D02*
X55448200Y-34467800D01*
D32*
X50085202Y-46942798D02*
X55372000Y-41656000D01*
X55372000Y-41656000D02*
X55372000Y-34544000D01*
X55448200Y-34467800D02*
X60381000Y-34467800D01*
X46022614Y-46942798D02*
X50085202Y-46942798D01*
%TO.N,Net-(Q4-G)*%
X60248800Y-58216800D02*
X62890400Y-58216800D01*
X59436000Y-57404000D02*
X60248800Y-58216800D01*
X59436000Y-48768000D02*
X59436000Y-57404000D01*
X58724800Y-48056800D02*
X59436000Y-48768000D01*
X56489600Y-48056800D02*
X58724800Y-48056800D01*
%TO.N,Net-(Q7-D)*%
X82804000Y-68072000D02*
X81782600Y-69093400D01*
X85852000Y-67056000D02*
X84836000Y-68072000D01*
X84836000Y-68072000D02*
X82804000Y-68072000D01*
X81782600Y-69093400D02*
X81782600Y-70595000D01*
X85852000Y-62484000D02*
X85852000Y-67056000D01*
X85293200Y-61925200D02*
X85852000Y-62484000D01*
X83413600Y-61925200D02*
X85293200Y-61925200D01*
%TO.N,Net-(J1-Pin_2)*%
X185161200Y-90932000D02*
X196260800Y-79832400D01*
X143504800Y-90932000D02*
X185161200Y-90932000D01*
X135834200Y-83261400D02*
X143504800Y-90932000D01*
%TO.N,Net-(K2-Pad11)*%
X94996000Y-52832000D02*
X93472000Y-51308000D01*
X94996000Y-59195000D02*
X94996000Y-52832000D01*
X98830500Y-63029500D02*
X94996000Y-59195000D01*
%TO.N,Net-(Q5-G)*%
X125780800Y-72821800D02*
X129255400Y-72821800D01*
X129255400Y-72821800D02*
X130581400Y-74147800D01*
%TO.N,SDC-*%
X46099014Y-73084398D02*
X46149814Y-73135198D01*
X46099014Y-65184998D02*
X46099014Y-73084398D01*
X64516000Y-46431200D02*
X62890400Y-48056800D01*
X62407800Y-34467800D02*
X64516000Y-36576000D01*
X64516000Y-36576000D02*
X64516000Y-46431200D01*
X60381000Y-34467800D02*
X62407800Y-34467800D01*
%TO.N,Net-(Q4-G)*%
X56489600Y-43439200D02*
X60381000Y-39547800D01*
X56489600Y-48056800D02*
X56489600Y-43439200D01*
%TO.N,SDC-*%
X111760000Y-68834000D02*
X110845600Y-69748400D01*
X111760000Y-58928000D02*
X111760000Y-68834000D01*
X110337600Y-57505600D02*
X111760000Y-58928000D01*
X109174400Y-57505600D02*
X110337600Y-57505600D01*
%TO.N,Net-(K2-Pad11)*%
X76435600Y-38153400D02*
X81311700Y-43029500D01*
X81311700Y-43029500D02*
X91330500Y-43029500D01*
%TO.N,SDC-*%
X154940000Y-51917600D02*
X157429200Y-54406800D01*
X154940000Y-35052000D02*
X154940000Y-51917600D01*
X155905200Y-34086800D02*
X154940000Y-35052000D01*
X157480000Y-34086800D02*
X155905200Y-34086800D01*
X106710600Y-28956000D02*
X109911000Y-32156400D01*
X95724200Y-28956000D02*
X106710600Y-28956000D01*
X92644562Y-32035638D02*
X95724200Y-28956000D01*
X92371400Y-32308800D02*
X92644562Y-32035638D01*
X81686400Y-32308800D02*
X92371400Y-32308800D01*
X81686400Y-39284200D02*
X82555600Y-40153400D01*
X81686400Y-32308800D02*
X81686400Y-39284200D01*
%TO.N,Net-(Q2-D)*%
X183896000Y-66040000D02*
X192573600Y-66040000D01*
X192573600Y-66040000D02*
X195198100Y-68664500D01*
X179832000Y-61976000D02*
X183896000Y-66040000D01*
X160020000Y-36576000D02*
X159969200Y-36626800D01*
X165557200Y-42113200D02*
X160020000Y-36576000D01*
X159969200Y-36626800D02*
X157480000Y-36626800D01*
X165557200Y-50571400D02*
X165557200Y-42113200D01*
%TO.N,Net-(K1-PadCOM)*%
X128827200Y-42581800D02*
X137718800Y-42581800D01*
X123997900Y-37752500D02*
X128827200Y-42581800D01*
%TO.N,Net-(Q1-D)*%
X114808000Y-38003892D02*
X114808000Y-48642600D01*
X111500508Y-34696400D02*
X114808000Y-38003892D01*
X109911000Y-34696400D02*
X111500508Y-34696400D01*
X114808000Y-48642600D02*
X118117900Y-51952500D01*
%TO.N,reset*%
X119548300Y-30819700D02*
X119311700Y-30819700D01*
X121920000Y-28448000D02*
X119548300Y-30819700D01*
X134980800Y-28448000D02*
X121920000Y-28448000D01*
X138612800Y-32080000D02*
X134980800Y-28448000D01*
X118117900Y-39752500D02*
X119311700Y-38558700D01*
X119311700Y-38558700D02*
X119311700Y-30819700D01*
%TO.N,SDC-*%
X129471700Y-39106300D02*
X130117900Y-39752500D01*
X129471700Y-30819700D02*
X129471700Y-39106300D01*
%TO.N,AMS Fault*%
X159004000Y-64008000D02*
X155448000Y-60452000D01*
X159004000Y-75626000D02*
X159004000Y-64008000D01*
X162509200Y-79131200D02*
X159004000Y-75626000D01*
D34*
%TO.N,Net-(Q2-D)*%
X157480000Y-36626800D02*
X157527500Y-36626800D01*
D32*
%TO.N,Net-(K3-PadCOM)*%
X178730300Y-43664500D02*
X187698100Y-43664500D01*
X171437200Y-36371400D02*
X178730300Y-43664500D01*
%TO.N,reset*%
X165869900Y-30741900D02*
X165869900Y-30845100D01*
X163068000Y-27940000D02*
X165869900Y-30741900D01*
X142752800Y-27940000D02*
X163068000Y-27940000D01*
X138612800Y-32080000D02*
X142752800Y-27940000D01*
X165557200Y-31157800D02*
X165869900Y-30845100D01*
X165557200Y-38371400D02*
X165557200Y-31157800D01*
%TO.N,SDC-*%
X177557200Y-32372400D02*
X176029900Y-30845100D01*
X177557200Y-38371400D02*
X177557200Y-32372400D01*
%TO.N,Net-(J1-Pin_1)*%
X191180800Y-79832400D02*
X191180800Y-72147200D01*
X191180800Y-72147200D02*
X187698100Y-68664500D01*
%TO.N,SDC-*%
X172720000Y-74676000D02*
X172720000Y-71120000D01*
%TO.N,IMD Fault*%
X103632000Y-53848000D02*
X104952800Y-52527200D01*
X104952800Y-52527200D02*
X105130600Y-52527200D01*
X103632000Y-70104000D02*
X103632000Y-53848000D01*
X106349800Y-72821800D02*
X103632000Y-70104000D01*
X115620800Y-72821800D02*
X106349800Y-72821800D01*
%TO.N,Net-(Q1-G)*%
X109911000Y-41305600D02*
X111150400Y-42545000D01*
X109911000Y-37236400D02*
X109911000Y-41305600D01*
X110972600Y-42367200D02*
X111150400Y-42545000D01*
X105130600Y-42367200D02*
X110972600Y-42367200D01*
%TO.N,Net-(J2-Pin_2)*%
X126619000Y-79756000D02*
X137408800Y-79756000D01*
X137408800Y-79756000D02*
X140914200Y-83261400D01*
X123063000Y-83312000D02*
X126619000Y-79756000D01*
%TO.N,Net-(J3-Pin_2)*%
X128143000Y-84709000D02*
X128143000Y-83312000D01*
X125476000Y-87376000D02*
X128143000Y-84709000D01*
X114472600Y-87376000D02*
X125476000Y-87376000D01*
X110510400Y-83413800D02*
X114472600Y-87376000D01*
%TO.N,Net-(J4-Pin_2)*%
X112440600Y-80264000D02*
X115590400Y-83413800D01*
X100807800Y-80264000D02*
X112440600Y-80264000D01*
X97226200Y-83845600D02*
X100807800Y-80264000D01*
%TO.N,Net-(J5-Pin_2)*%
X88392000Y-88900000D02*
X97251800Y-88900000D01*
X84353400Y-84861400D02*
X88392000Y-88900000D01*
X84353400Y-84150200D02*
X84353400Y-84861400D01*
X97251800Y-88900000D02*
X102306200Y-83845600D01*
%TO.N,Net-(J6-Pin_2)*%
X75133200Y-80264000D02*
X85547200Y-80264000D01*
X71297800Y-84099400D02*
X75133200Y-80264000D01*
X85547200Y-80264000D02*
X89433400Y-84150200D01*
%TO.N,Net-(J15-Pin_1)*%
X72593200Y-87884000D02*
X76377800Y-84099400D01*
X58064400Y-84099400D02*
X61849000Y-87884000D01*
X61849000Y-87884000D02*
X72593200Y-87884000D01*
X52180198Y-78215198D02*
X58064400Y-84099400D01*
X46149814Y-78215198D02*
X52180198Y-78215198D01*
%TO.N,SDC-*%
X166624000Y-67487800D02*
X166878000Y-67741800D01*
X166624000Y-61248800D02*
X166624000Y-67487800D01*
X165847400Y-60472200D02*
X166624000Y-61248800D01*
X169164000Y-71120000D02*
X166878000Y-68834000D01*
X172720000Y-71120000D02*
X169164000Y-71120000D01*
X174026200Y-69813800D02*
X172720000Y-71120000D01*
X174026200Y-60497600D02*
X174026200Y-69813800D01*
X166878000Y-68834000D02*
X166878000Y-67741800D01*
%TO.N,+5V*%
X169418000Y-60889400D02*
X169026200Y-60497600D01*
X169418000Y-67741800D02*
X169418000Y-60889400D01*
%TO.N,Trac In*%
X160847400Y-64251200D02*
X164338000Y-67741800D01*
X160847400Y-60472200D02*
X160847400Y-64251200D01*
%TO.N,Net-(Q5-D)*%
X151099200Y-68015800D02*
X150723600Y-67640200D01*
X151099200Y-71738000D02*
X151099200Y-68015800D01*
%TO.N,BMS4*%
X166878000Y-88900000D02*
X165049200Y-87071200D01*
X176256700Y-88900000D02*
X166878000Y-88900000D01*
X184096900Y-81059800D02*
X176256700Y-88900000D01*
%TO.N,BMS3*%
X165252400Y-84328000D02*
X162509200Y-87071200D01*
X181596900Y-81059800D02*
X178328700Y-84328000D01*
X178328700Y-84328000D02*
X165252400Y-84328000D01*
%TO.N,BMS2*%
X177830350Y-82804000D02*
X161696400Y-82804000D01*
X161696400Y-82804000D02*
X157429200Y-87071200D01*
X179096900Y-81537450D02*
X177830350Y-82804000D01*
X179096900Y-81059800D02*
X179096900Y-81537450D01*
%TO.N,BMS1*%
X160900600Y-81059800D02*
X154889200Y-87071200D01*
X176596900Y-81059800D02*
X160900600Y-81059800D01*
%TO.N,Trac In*%
X71780400Y-63500000D02*
X75666600Y-59613800D01*
X49494016Y-63500000D02*
X71780400Y-63500000D01*
X46099014Y-60104998D02*
X49494016Y-63500000D01*
X191110600Y-47752000D02*
X195198100Y-43664500D01*
X173567600Y-47752000D02*
X191110600Y-47752000D01*
X160847400Y-60472200D02*
X173567600Y-47752000D01*
X157855400Y-57480200D02*
X160847400Y-60472200D01*
X150723600Y-57480200D02*
X157855400Y-57480200D01*
X145218800Y-51975400D02*
X146075400Y-52832000D01*
X145218800Y-42581800D02*
X145218800Y-51975400D01*
X143692800Y-41055800D02*
X145218800Y-42581800D01*
X143692800Y-32080000D02*
X143692800Y-41055800D01*
X146075400Y-52832000D02*
X150723600Y-57480200D01*
X133096000Y-52832000D02*
X146075400Y-52832000D01*
X121361200Y-64566800D02*
X133096000Y-52832000D01*
X121361200Y-67233800D02*
X121361200Y-64566800D01*
X121361200Y-65989200D02*
X121361200Y-67233800D01*
X98830500Y-43458500D02*
X121361200Y-65989200D01*
X98830500Y-43029500D02*
X98830500Y-43458500D01*
X86488000Y-55372000D02*
X98830500Y-43029500D01*
X79908400Y-55372000D02*
X86488000Y-55372000D01*
X75666600Y-59613800D02*
X79908400Y-55372000D01*
D33*
%TO.N,SDC+*%
X46022614Y-53297598D02*
X46022614Y-52022798D01*
%TO.N,SDC-*%
X46149614Y-46815798D02*
X46022614Y-46942798D01*
D34*
%TO.N,Net-(Q2-G)*%
X157429200Y-39217600D02*
X157480000Y-39166800D01*
%TO.N,Net-(Q1-G)*%
X110794800Y-42189400D02*
X111150400Y-42545000D01*
X111125000Y-42519600D02*
X111150400Y-42545000D01*
%TO.N,BMS5*%
X129416100Y-62069200D02*
X129416100Y-62461700D01*
%TO.N,Net-(Q2-G)*%
X157403800Y-44221400D02*
X157429200Y-44246800D01*
%TD*%
M02*
