%TF.GenerationSoftware,KiCad,Pcbnew,7.0.5*%
%TF.CreationDate,2024-01-10T23:37:06+05:30*%
%TF.ProjectId,Shutdown Circuit,53687574-646f-4776-9e20-436972637569,rev?*%
%TF.SameCoordinates,Original*%
%TF.FileFunction,Soldermask,Top*%
%TF.FilePolarity,Negative*%
%FSLAX46Y46*%
G04 Gerber Fmt 4.6, Leading zero omitted, Abs format (unit mm)*
G04 Created by KiCad (PCBNEW 7.0.5) date 2024-01-10 23:37:06*
%MOMM*%
%LPD*%
G01*
G04 APERTURE LIST*
G04 Aperture macros list*
%AMRoundRect*
0 Rectangle with rounded corners*
0 $1 Rounding radius*
0 $2 $3 $4 $5 $6 $7 $8 $9 X,Y pos of 4 corners*
0 Add a 4 corners polygon primitive as box body*
4,1,4,$2,$3,$4,$5,$6,$7,$8,$9,$2,$3,0*
0 Add four circle primitives for the rounded corners*
1,1,$1+$1,$2,$3*
1,1,$1+$1,$4,$5*
1,1,$1+$1,$6,$7*
1,1,$1+$1,$8,$9*
0 Add four rect primitives between the rounded corners*
20,1,$1+$1,$2,$3,$4,$5,0*
20,1,$1+$1,$4,$5,$6,$7,0*
20,1,$1+$1,$6,$7,$8,$9,0*
20,1,$1+$1,$8,$9,$2,$3,0*%
G04 Aperture macros list end*
%ADD10C,3.500000*%
%ADD11C,1.600000*%
%ADD12R,2.000000X1.905000*%
%ADD13O,2.000000X1.905000*%
%ADD14R,1.905000X2.000000*%
%ADD15O,1.905000X2.000000*%
%ADD16O,1.600000X1.600000*%
%ADD17R,2.600000X2.600000*%
%ADD18C,2.600000*%
%ADD19C,1.512000*%
%ADD20C,2.154000*%
%ADD21C,2.004000*%
%ADD22C,1.779000*%
%ADD23RoundRect,0.102000X0.787500X0.787500X-0.787500X0.787500X-0.787500X-0.787500X0.787500X-0.787500X0*%
%ADD24R,2.200000X2.200000*%
%ADD25O,2.200000X2.200000*%
%ADD26C,3.000000*%
%ADD27R,3.000000X3.000000*%
%ADD28RoundRect,0.102000X-0.787500X-0.787500X0.787500X-0.787500X0.787500X0.787500X-0.787500X0.787500X0*%
%ADD29R,1.170000X1.170000*%
%ADD30C,1.170000*%
%ADD31RoundRect,0.102000X0.754000X0.754000X-0.754000X0.754000X-0.754000X-0.754000X0.754000X-0.754000X0*%
%ADD32C,1.712000*%
G04 APERTURE END LIST*
D10*
%TO.C,REF\u002A\u002A*%
X198120000Y-90424000D03*
%TD*%
%TO.C,REF\u002A\u002A*%
X40132000Y-89408000D03*
%TD*%
%TO.C,REF\u002A\u002A*%
X38608000Y-27940000D03*
%TD*%
%TO.C,REF\u002A\u002A*%
X197612000Y-28956000D03*
%TD*%
D11*
%TO.C,C2*%
X174026200Y-60497600D03*
X169026200Y-60497600D03*
%TD*%
D12*
%TO.C,Q7*%
X83413600Y-64465200D03*
D13*
X83413600Y-61925200D03*
X83413600Y-59385200D03*
%TD*%
D14*
%TO.C,Q5*%
X130581400Y-74147800D03*
D15*
X133121400Y-74147800D03*
X135661400Y-74147800D03*
%TD*%
D12*
%TO.C,Q3*%
X109174400Y-62585600D03*
D13*
X109174400Y-60045600D03*
X109174400Y-57505600D03*
%TD*%
D11*
%TO.C,C1*%
X165847400Y-60472200D03*
X160847400Y-60472200D03*
%TD*%
%TO.C,R3*%
X62890400Y-58216800D03*
D16*
X62890400Y-48056800D03*
%TD*%
D17*
%TO.C,J4*%
X110510400Y-83413800D03*
D18*
X115590400Y-83413800D03*
%TD*%
D17*
%TO.C,J15*%
X58064400Y-84099400D03*
D18*
X63144400Y-84099400D03*
%TD*%
D19*
%TO.C,K1*%
X130117900Y-39752500D03*
X118117900Y-39752500D03*
D20*
X123997900Y-37752500D03*
D21*
X130117900Y-51952500D03*
X118117900Y-51952500D03*
%TD*%
D22*
%TO.C,J17*%
X153599200Y-71738000D03*
D23*
X151099200Y-71738000D03*
%TD*%
D11*
%TO.C,R6*%
X116763800Y-67233800D03*
D16*
X116763800Y-57073800D03*
%TD*%
D17*
%TO.C,J1*%
X191180800Y-79832400D03*
D18*
X196260800Y-79832400D03*
%TD*%
D24*
%TO.C,D2*%
X119311700Y-30819700D03*
D25*
X129471700Y-30819700D03*
%TD*%
D12*
%TO.C,Q2*%
X157480000Y-39166800D03*
D13*
X157480000Y-36626800D03*
X157480000Y-34086800D03*
%TD*%
D12*
%TO.C,Q4*%
X60381000Y-39547800D03*
D13*
X60381000Y-37007800D03*
X60381000Y-34467800D03*
%TD*%
D17*
%TO.C,J7*%
X71297800Y-84099400D03*
D18*
X76377800Y-84099400D03*
%TD*%
D11*
%TO.C,R11*%
X121361200Y-67233800D03*
D16*
X121361200Y-57073800D03*
%TD*%
D23*
%TO.C,J16*%
X108345600Y-69748400D03*
D22*
X110845600Y-69748400D03*
%TD*%
D18*
%TO.C,J11*%
X46022614Y-52022798D03*
D17*
X46022614Y-46942798D03*
%TD*%
D19*
%TO.C,K3*%
X177557200Y-38371400D03*
X165557200Y-38371400D03*
D20*
X171437200Y-36371400D03*
D21*
X177557200Y-50571400D03*
X165557200Y-50571400D03*
%TD*%
D11*
%TO.C,R12*%
X150723600Y-57480200D03*
D16*
X150723600Y-67640200D03*
%TD*%
D17*
%TO.C,J5*%
X97226200Y-83845600D03*
D18*
X102306200Y-83845600D03*
%TD*%
D12*
%TO.C,Q1*%
X109911000Y-37236400D03*
D13*
X109911000Y-34696400D03*
X109911000Y-32156400D03*
%TD*%
D11*
%TO.C,R8*%
X157429200Y-44246800D03*
D16*
X157429200Y-54406800D03*
%TD*%
D23*
%TO.C,J14*%
X81782600Y-70595000D03*
D22*
X84282600Y-70595000D03*
%TD*%
D11*
%TO.C,R1*%
X70078600Y-69773800D03*
D16*
X70078600Y-59613800D03*
%TD*%
D19*
%TO.C,K7*%
X82555600Y-40153400D03*
X70555600Y-40153400D03*
D20*
X76435600Y-38153400D03*
D21*
X82555600Y-52353400D03*
X70555600Y-52353400D03*
%TD*%
D24*
%TO.C,D3*%
X165869900Y-30845100D03*
D25*
X176029900Y-30845100D03*
%TD*%
D17*
%TO.C,J3*%
X123063000Y-83312000D03*
D18*
X128143000Y-83312000D03*
%TD*%
D26*
%TO.C,K4*%
X145218800Y-62581800D03*
X145218800Y-57581800D03*
X145218800Y-67581800D03*
X137718800Y-62581800D03*
X137718800Y-57581800D03*
X137718800Y-67581800D03*
D27*
X145218800Y-42581800D03*
D26*
X137718800Y-42581800D03*
%TD*%
D17*
%TO.C,J2*%
X135834200Y-83261400D03*
D18*
X140914200Y-83261400D03*
%TD*%
D11*
%TO.C,R7*%
X151282400Y-54381400D03*
D16*
X151282400Y-44221400D03*
%TD*%
D17*
%TO.C,J10*%
X46099014Y-60104998D03*
D18*
X46099014Y-65184998D03*
%TD*%
D17*
%TO.C,J22*%
X46149814Y-73135198D03*
D18*
X46149814Y-78215198D03*
%TD*%
D14*
%TO.C,U2*%
X164338000Y-67741800D03*
D15*
X166878000Y-67741800D03*
X169418000Y-67741800D03*
%TD*%
D28*
%TO.C,J13*%
X129416100Y-62069200D03*
D22*
X126916100Y-62069200D03*
%TD*%
D29*
%TO.C,U1*%
X154889200Y-87071200D03*
D30*
X157429200Y-87071200D03*
X159969200Y-87071200D03*
X162509200Y-87071200D03*
X165049200Y-87071200D03*
X167589200Y-87071200D03*
X170129200Y-87071200D03*
X170129200Y-79131200D03*
X167589200Y-79131200D03*
X165049200Y-79131200D03*
X162509200Y-79131200D03*
X159969200Y-79131200D03*
X157429200Y-79131200D03*
X154889200Y-79131200D03*
%TD*%
D17*
%TO.C,J6*%
X84353400Y-84150200D03*
D18*
X89433400Y-84150200D03*
%TD*%
D11*
%TO.C,R4*%
X105130600Y-52527200D03*
D16*
X105130600Y-42367200D03*
%TD*%
D11*
%TO.C,R5*%
X111150400Y-42545000D03*
D16*
X111150400Y-52705000D03*
%TD*%
D17*
%TO.C,J9*%
X143692800Y-32080000D03*
D18*
X138612800Y-32080000D03*
%TD*%
D23*
%TO.C,J12*%
X59326700Y-66200800D03*
D22*
X61826700Y-66200800D03*
%TD*%
D31*
%TO.C,J19*%
X176596900Y-81059800D03*
D32*
X179096900Y-81059800D03*
X181596900Y-81059800D03*
X184096900Y-81059800D03*
%TD*%
D11*
%TO.C,R9*%
X115620800Y-72821800D03*
D16*
X125780800Y-72821800D03*
%TD*%
D24*
%TO.C,D1*%
X71526400Y-32308800D03*
D25*
X81686400Y-32308800D03*
%TD*%
D26*
%TO.C,K5*%
X195198100Y-63664500D03*
X195198100Y-58664500D03*
X195198100Y-68664500D03*
X187698100Y-63664500D03*
X187698100Y-58664500D03*
X187698100Y-68664500D03*
D27*
X195198100Y-43664500D03*
D26*
X187698100Y-43664500D03*
%TD*%
D17*
%TO.C,J18*%
X97724562Y-32035638D03*
D18*
X92644562Y-32035638D03*
%TD*%
D11*
%TO.C,R2*%
X56489600Y-58216800D03*
D16*
X56489600Y-48056800D03*
%TD*%
D18*
%TO.C,J8*%
X46073814Y-39662998D03*
D17*
X46073814Y-34582998D03*
%TD*%
D26*
%TO.C,K2*%
X98830500Y-63029500D03*
X98830500Y-58029500D03*
X98830500Y-68029500D03*
X91330500Y-63029500D03*
X91330500Y-58029500D03*
X91330500Y-68029500D03*
D27*
X98830500Y-43029500D03*
D26*
X91330500Y-43029500D03*
%TD*%
D11*
%TO.C,R10*%
X75666600Y-59613800D03*
D16*
X75666600Y-69773800D03*
%TD*%
M02*
