M48
; DRILL file {KiCad 7.0.5} date Wed Jan 10 23:36:59 2024
; FORMAT={-:-/ absolute / inch / decimal}
; #@! TF.CreationDate,2024-01-10T23:36:59+05:30
; #@! TF.GenerationSoftware,Kicad,Pcbnew,7.0.5
; #@! TF.FileFunction,Plated,1,2,PTH
FMAT,2
INCH
; #@! TA.AperFunction,Plated,PTH,ViaDrill
T1C0.0157
; #@! TA.AperFunction,Plated,PTH,ComponentDrill
T2C0.0303
; #@! TA.AperFunction,Plated,PTH,ComponentDrill
T3C0.0315
; #@! TA.AperFunction,Plated,PTH,ComponentDrill
T4C0.0394
; #@! TA.AperFunction,Plated,PTH,ComponentDrill
T5C0.0413
; #@! TA.AperFunction,Plated,PTH,ComponentDrill
T6C0.0433
; #@! TA.AperFunction,Plated,PTH,ComponentDrill
T7C0.0472
; #@! TA.AperFunction,Plated,PTH,ComponentDrill
T8C0.0512
; #@! TA.AperFunction,Plated,PTH,ComponentDrill
T9C0.0591
%
G90
G05
T1
X2.62Y-2.44
X2.62Y-2.66
X3.68Y-2.02
X4.02Y-2.98
X5.52Y-2.18
X5.82Y-3.1
X6.12Y-2.38
X6.8Y-2.94
X7.08Y-2.44
T2
X6.098Y-3.1154
X6.098Y-3.428
X6.198Y-3.1154
X6.198Y-3.428
X6.298Y-3.1154
X6.298Y-3.428
X6.398Y-3.1154
X6.398Y-3.428
X6.498Y-3.1154
X6.498Y-3.428
X6.598Y-3.1154
X6.598Y-3.428
X6.698Y-3.1154
X6.698Y-3.428
T3
X2.224Y-1.892
X2.224Y-2.292
X2.476Y-1.892
X2.476Y-2.292
X2.759Y-2.347
X2.759Y-2.747
X2.7778Y-1.5808
X2.979Y-2.347
X2.979Y-2.747
X3.2502Y-1.5808
X4.139Y-1.668
X4.139Y-2.068
X4.376Y-1.675
X4.376Y-2.075
X4.552Y-2.867
X4.597Y-2.247
X4.597Y-2.647
X4.6503Y-1.5651
X4.778Y-2.247
X4.778Y-2.647
X4.952Y-2.867
X5.1228Y-1.5651
X5.934Y-2.263
X5.934Y-2.663
X5.956Y-1.741
X5.956Y-2.141
X6.198Y-1.742
X6.198Y-2.142
X6.3326Y-2.3808
X6.518Y-1.5107
X6.5294Y-2.3808
X6.6546Y-2.3818
X6.8514Y-2.3818
X6.9904Y-1.5107
T4
X6.9526Y-3.1913
X7.0511Y-3.1913
X7.1495Y-3.1913
X7.2479Y-3.1913
T5
X2.3357Y-2.6063
X2.4341Y-2.6063
X3.2198Y-2.7793
X3.3182Y-2.7793
X4.2656Y-2.746
X4.364Y-2.746
X4.9967Y-2.4437
X5.0951Y-2.4437
X5.9488Y-2.8243
X6.0472Y-2.8243
T6
X2.3772Y-1.357
X2.3772Y-1.457
X2.3772Y-1.557
X2.816Y-1.272
X3.216Y-1.272
X3.284Y-2.338
X3.284Y-2.438
X3.284Y-2.538
X4.2982Y-2.264
X4.2982Y-2.364
X4.2982Y-2.464
X4.3272Y-1.266
X4.3272Y-1.366
X4.3272Y-1.466
X4.6973Y-1.2134
X5.0973Y-1.2134
X5.141Y-2.9192
X5.241Y-2.9192
X5.341Y-2.9192
X6.2Y-1.342
X6.2Y-1.442
X6.2Y-1.542
X6.47Y-2.667
X6.5303Y-1.2144
X6.57Y-2.667
X6.67Y-2.667
X6.9303Y-1.2144
T7
X2.7778Y-2.0612
X3.2502Y-2.0612
X4.6503Y-2.0454
X5.1228Y-2.0454
X6.518Y-1.991
X6.9904Y-1.991
T8
X1.8119Y-1.8481
X1.8119Y-2.0481
X1.8139Y-1.3615
X1.8139Y-1.5615
X1.8149Y-2.3663
X1.8149Y-2.5663
X1.8169Y-2.8793
X1.8169Y-3.0793
X2.286Y-3.311
X2.486Y-3.311
X2.807Y-3.311
X3.007Y-3.311
X3.0093Y-1.5021
X3.321Y-3.313
X3.521Y-3.313
X3.6474Y-1.2612
X3.8278Y-3.301
X3.8474Y-1.2612
X4.0278Y-3.301
X4.3508Y-3.284
X4.5508Y-3.284
X4.845Y-3.28
X4.8818Y-1.4863
X5.045Y-3.28
X5.3478Y-3.278
X5.4572Y-1.263
X5.5478Y-3.278
X5.6572Y-1.263
X6.7495Y-1.4319
X7.5268Y-3.143
X7.7268Y-3.143
T9
X3.5957Y-1.6941
X3.5957Y-2.2846
X3.5957Y-2.4815
X3.5957Y-2.6783
X3.891Y-1.6941
X3.891Y-2.2846
X3.891Y-2.4815
X3.891Y-2.6783
X5.422Y-1.6764
X5.422Y-2.267
X5.422Y-2.4639
X5.422Y-2.6607
X5.7173Y-1.6764
X5.7173Y-2.267
X5.7173Y-2.4639
X5.7173Y-2.6607
X7.3897Y-1.7191
X7.3897Y-2.3096
X7.3897Y-2.5065
X7.3897Y-2.7033
X7.685Y-1.7191
X7.685Y-2.3096
X7.685Y-2.5065
X7.685Y-2.7033
T0
M30
