%TF.GenerationSoftware,KiCad,Pcbnew,7.0.5*%
%TF.CreationDate,2024-01-10T23:37:01+05:30*%
%TF.ProjectId,Shutdown Circuit,53687574-646f-4776-9e20-436972637569,rev?*%
%TF.SameCoordinates,Original*%
%TF.FileFunction,Drillmap*%
%TF.FilePolarity,Positive*%
%FSLAX45Y45*%
G04 Gerber Fmt 4.5, Leading zero omitted, Abs format (unit mm)*
G04 Created by KiCad (PCBNEW 7.0.5) date 2024-01-10 23:37:01*
%MOMM*%
%LPD*%
G01*
G04 APERTURE LIST*
%ADD10C,0.100000*%
%ADD11C,0.200000*%
%ADD12C,0.350000*%
G04 APERTURE END LIST*
D10*
X3350260Y-2291080D02*
X20416520Y-2291080D01*
X20416520Y-9484360D01*
X3350260Y-9484360D01*
X3350260Y-2291080D01*
D11*
D12*
X3685800Y-2619000D02*
X4035800Y-2969000D01*
X4035800Y-2619000D02*
X3685800Y-2969000D01*
X3838200Y-8765800D02*
X4188200Y-9115800D01*
X4188200Y-8765800D02*
X3838200Y-9115800D01*
X19586200Y-2720600D02*
X19936200Y-3070600D01*
X19936200Y-2720600D02*
X19586200Y-3070600D01*
X19637000Y-8867400D02*
X19987000Y-9217400D01*
X19987000Y-8867400D02*
X19637000Y-9217400D01*
D11*
X3606037Y-9800844D02*
X3606037Y-9600844D01*
X3606037Y-9600844D02*
X3653656Y-9600844D01*
X3653656Y-9600844D02*
X3682227Y-9610368D01*
X3682227Y-9610368D02*
X3701275Y-9629415D01*
X3701275Y-9629415D02*
X3710799Y-9648463D01*
X3710799Y-9648463D02*
X3720322Y-9686558D01*
X3720322Y-9686558D02*
X3720322Y-9715130D01*
X3720322Y-9715130D02*
X3710799Y-9753225D01*
X3710799Y-9753225D02*
X3701275Y-9772272D01*
X3701275Y-9772272D02*
X3682227Y-9791320D01*
X3682227Y-9791320D02*
X3653656Y-9800844D01*
X3653656Y-9800844D02*
X3606037Y-9800844D01*
X3806037Y-9800844D02*
X3806037Y-9667510D01*
X3806037Y-9705606D02*
X3815561Y-9686558D01*
X3815561Y-9686558D02*
X3825084Y-9677034D01*
X3825084Y-9677034D02*
X3844132Y-9667510D01*
X3844132Y-9667510D02*
X3863180Y-9667510D01*
X3929846Y-9800844D02*
X3929846Y-9667510D01*
X3929846Y-9600844D02*
X3920322Y-9610368D01*
X3920322Y-9610368D02*
X3929846Y-9619891D01*
X3929846Y-9619891D02*
X3939370Y-9610368D01*
X3939370Y-9610368D02*
X3929846Y-9600844D01*
X3929846Y-9600844D02*
X3929846Y-9619891D01*
X4053656Y-9800844D02*
X4034608Y-9791320D01*
X4034608Y-9791320D02*
X4025084Y-9772272D01*
X4025084Y-9772272D02*
X4025084Y-9600844D01*
X4158418Y-9800844D02*
X4139370Y-9791320D01*
X4139370Y-9791320D02*
X4129846Y-9772272D01*
X4129846Y-9772272D02*
X4129846Y-9600844D01*
X4386989Y-9800844D02*
X4386989Y-9600844D01*
X4386989Y-9600844D02*
X4453656Y-9743701D01*
X4453656Y-9743701D02*
X4520323Y-9600844D01*
X4520323Y-9600844D02*
X4520323Y-9800844D01*
X4701275Y-9800844D02*
X4701275Y-9696082D01*
X4701275Y-9696082D02*
X4691751Y-9677034D01*
X4691751Y-9677034D02*
X4672704Y-9667510D01*
X4672704Y-9667510D02*
X4634608Y-9667510D01*
X4634608Y-9667510D02*
X4615561Y-9677034D01*
X4701275Y-9791320D02*
X4682227Y-9800844D01*
X4682227Y-9800844D02*
X4634608Y-9800844D01*
X4634608Y-9800844D02*
X4615561Y-9791320D01*
X4615561Y-9791320D02*
X4606037Y-9772272D01*
X4606037Y-9772272D02*
X4606037Y-9753225D01*
X4606037Y-9753225D02*
X4615561Y-9734177D01*
X4615561Y-9734177D02*
X4634608Y-9724653D01*
X4634608Y-9724653D02*
X4682227Y-9724653D01*
X4682227Y-9724653D02*
X4701275Y-9715130D01*
X4796513Y-9667510D02*
X4796513Y-9867510D01*
X4796513Y-9677034D02*
X4815561Y-9667510D01*
X4815561Y-9667510D02*
X4853656Y-9667510D01*
X4853656Y-9667510D02*
X4872704Y-9677034D01*
X4872704Y-9677034D02*
X4882227Y-9686558D01*
X4882227Y-9686558D02*
X4891751Y-9705606D01*
X4891751Y-9705606D02*
X4891751Y-9762749D01*
X4891751Y-9762749D02*
X4882227Y-9781796D01*
X4882227Y-9781796D02*
X4872704Y-9791320D01*
X4872704Y-9791320D02*
X4853656Y-9800844D01*
X4853656Y-9800844D02*
X4815561Y-9800844D01*
X4815561Y-9800844D02*
X4796513Y-9791320D01*
X4977465Y-9781796D02*
X4986989Y-9791320D01*
X4986989Y-9791320D02*
X4977465Y-9800844D01*
X4977465Y-9800844D02*
X4967942Y-9791320D01*
X4967942Y-9791320D02*
X4977465Y-9781796D01*
X4977465Y-9781796D02*
X4977465Y-9800844D01*
X4977465Y-9677034D02*
X4986989Y-9686558D01*
X4986989Y-9686558D02*
X4977465Y-9696082D01*
X4977465Y-9696082D02*
X4967942Y-9686558D01*
X4967942Y-9686558D02*
X4977465Y-9677034D01*
X4977465Y-9677034D02*
X4977465Y-9696082D01*
X3145260Y-10029360D02*
X3345260Y-10229360D01*
X3345260Y-10029360D02*
X3145260Y-10229360D01*
X3586989Y-10020844D02*
X3710799Y-10020844D01*
X3710799Y-10020844D02*
X3644132Y-10097034D01*
X3644132Y-10097034D02*
X3672703Y-10097034D01*
X3672703Y-10097034D02*
X3691751Y-10106558D01*
X3691751Y-10106558D02*
X3701275Y-10116082D01*
X3701275Y-10116082D02*
X3710799Y-10135130D01*
X3710799Y-10135130D02*
X3710799Y-10182749D01*
X3710799Y-10182749D02*
X3701275Y-10201796D01*
X3701275Y-10201796D02*
X3691751Y-10211320D01*
X3691751Y-10211320D02*
X3672703Y-10220844D01*
X3672703Y-10220844D02*
X3615561Y-10220844D01*
X3615561Y-10220844D02*
X3596513Y-10211320D01*
X3596513Y-10211320D02*
X3586989Y-10201796D01*
X3796513Y-10201796D02*
X3806037Y-10211320D01*
X3806037Y-10211320D02*
X3796513Y-10220844D01*
X3796513Y-10220844D02*
X3786989Y-10211320D01*
X3786989Y-10211320D02*
X3796513Y-10201796D01*
X3796513Y-10201796D02*
X3796513Y-10220844D01*
X3986989Y-10020844D02*
X3891751Y-10020844D01*
X3891751Y-10020844D02*
X3882227Y-10116082D01*
X3882227Y-10116082D02*
X3891751Y-10106558D01*
X3891751Y-10106558D02*
X3910799Y-10097034D01*
X3910799Y-10097034D02*
X3958418Y-10097034D01*
X3958418Y-10097034D02*
X3977465Y-10106558D01*
X3977465Y-10106558D02*
X3986989Y-10116082D01*
X3986989Y-10116082D02*
X3996513Y-10135130D01*
X3996513Y-10135130D02*
X3996513Y-10182749D01*
X3996513Y-10182749D02*
X3986989Y-10201796D01*
X3986989Y-10201796D02*
X3977465Y-10211320D01*
X3977465Y-10211320D02*
X3958418Y-10220844D01*
X3958418Y-10220844D02*
X3910799Y-10220844D01*
X3910799Y-10220844D02*
X3891751Y-10211320D01*
X3891751Y-10211320D02*
X3882227Y-10201796D01*
X4120322Y-10020844D02*
X4139370Y-10020844D01*
X4139370Y-10020844D02*
X4158418Y-10030368D01*
X4158418Y-10030368D02*
X4167942Y-10039891D01*
X4167942Y-10039891D02*
X4177465Y-10058939D01*
X4177465Y-10058939D02*
X4186989Y-10097034D01*
X4186989Y-10097034D02*
X4186989Y-10144653D01*
X4186989Y-10144653D02*
X4177465Y-10182749D01*
X4177465Y-10182749D02*
X4167942Y-10201796D01*
X4167942Y-10201796D02*
X4158418Y-10211320D01*
X4158418Y-10211320D02*
X4139370Y-10220844D01*
X4139370Y-10220844D02*
X4120322Y-10220844D01*
X4120322Y-10220844D02*
X4101275Y-10211320D01*
X4101275Y-10211320D02*
X4091751Y-10201796D01*
X4091751Y-10201796D02*
X4082227Y-10182749D01*
X4082227Y-10182749D02*
X4072703Y-10144653D01*
X4072703Y-10144653D02*
X4072703Y-10097034D01*
X4072703Y-10097034D02*
X4082227Y-10058939D01*
X4082227Y-10058939D02*
X4091751Y-10039891D01*
X4091751Y-10039891D02*
X4101275Y-10030368D01*
X4101275Y-10030368D02*
X4120322Y-10020844D01*
X4310799Y-10020844D02*
X4329846Y-10020844D01*
X4329846Y-10020844D02*
X4348894Y-10030368D01*
X4348894Y-10030368D02*
X4358418Y-10039891D01*
X4358418Y-10039891D02*
X4367942Y-10058939D01*
X4367942Y-10058939D02*
X4377465Y-10097034D01*
X4377465Y-10097034D02*
X4377465Y-10144653D01*
X4377465Y-10144653D02*
X4367942Y-10182749D01*
X4367942Y-10182749D02*
X4358418Y-10201796D01*
X4358418Y-10201796D02*
X4348894Y-10211320D01*
X4348894Y-10211320D02*
X4329846Y-10220844D01*
X4329846Y-10220844D02*
X4310799Y-10220844D01*
X4310799Y-10220844D02*
X4291751Y-10211320D01*
X4291751Y-10211320D02*
X4282227Y-10201796D01*
X4282227Y-10201796D02*
X4272704Y-10182749D01*
X4272704Y-10182749D02*
X4263180Y-10144653D01*
X4263180Y-10144653D02*
X4263180Y-10097034D01*
X4263180Y-10097034D02*
X4272704Y-10058939D01*
X4272704Y-10058939D02*
X4282227Y-10039891D01*
X4282227Y-10039891D02*
X4291751Y-10030368D01*
X4291751Y-10030368D02*
X4310799Y-10020844D01*
X4463180Y-10220844D02*
X4463180Y-10087510D01*
X4463180Y-10106558D02*
X4472704Y-10097034D01*
X4472704Y-10097034D02*
X4491751Y-10087510D01*
X4491751Y-10087510D02*
X4520323Y-10087510D01*
X4520323Y-10087510D02*
X4539370Y-10097034D01*
X4539370Y-10097034D02*
X4548894Y-10116082D01*
X4548894Y-10116082D02*
X4548894Y-10220844D01*
X4548894Y-10116082D02*
X4558418Y-10097034D01*
X4558418Y-10097034D02*
X4577465Y-10087510D01*
X4577465Y-10087510D02*
X4606037Y-10087510D01*
X4606037Y-10087510D02*
X4625085Y-10097034D01*
X4625085Y-10097034D02*
X4634608Y-10116082D01*
X4634608Y-10116082D02*
X4634608Y-10220844D01*
X4729846Y-10220844D02*
X4729846Y-10087510D01*
X4729846Y-10106558D02*
X4739370Y-10097034D01*
X4739370Y-10097034D02*
X4758418Y-10087510D01*
X4758418Y-10087510D02*
X4786989Y-10087510D01*
X4786989Y-10087510D02*
X4806037Y-10097034D01*
X4806037Y-10097034D02*
X4815561Y-10116082D01*
X4815561Y-10116082D02*
X4815561Y-10220844D01*
X4815561Y-10116082D02*
X4825085Y-10097034D01*
X4825085Y-10097034D02*
X4844132Y-10087510D01*
X4844132Y-10087510D02*
X4872704Y-10087510D01*
X4872704Y-10087510D02*
X4891751Y-10097034D01*
X4891751Y-10097034D02*
X4901275Y-10116082D01*
X4901275Y-10116082D02*
X4901275Y-10220844D01*
X5291751Y-10011320D02*
X5120323Y-10268463D01*
X5548894Y-10020844D02*
X5567942Y-10020844D01*
X5567942Y-10020844D02*
X5586989Y-10030368D01*
X5586989Y-10030368D02*
X5596513Y-10039891D01*
X5596513Y-10039891D02*
X5606037Y-10058939D01*
X5606037Y-10058939D02*
X5615561Y-10097034D01*
X5615561Y-10097034D02*
X5615561Y-10144653D01*
X5615561Y-10144653D02*
X5606037Y-10182749D01*
X5606037Y-10182749D02*
X5596513Y-10201796D01*
X5596513Y-10201796D02*
X5586989Y-10211320D01*
X5586989Y-10211320D02*
X5567942Y-10220844D01*
X5567942Y-10220844D02*
X5548894Y-10220844D01*
X5548894Y-10220844D02*
X5529847Y-10211320D01*
X5529847Y-10211320D02*
X5520323Y-10201796D01*
X5520323Y-10201796D02*
X5510799Y-10182749D01*
X5510799Y-10182749D02*
X5501275Y-10144653D01*
X5501275Y-10144653D02*
X5501275Y-10097034D01*
X5501275Y-10097034D02*
X5510799Y-10058939D01*
X5510799Y-10058939D02*
X5520323Y-10039891D01*
X5520323Y-10039891D02*
X5529847Y-10030368D01*
X5529847Y-10030368D02*
X5548894Y-10020844D01*
X5701275Y-10201796D02*
X5710799Y-10211320D01*
X5710799Y-10211320D02*
X5701275Y-10220844D01*
X5701275Y-10220844D02*
X5691751Y-10211320D01*
X5691751Y-10211320D02*
X5701275Y-10201796D01*
X5701275Y-10201796D02*
X5701275Y-10220844D01*
X5901275Y-10220844D02*
X5786989Y-10220844D01*
X5844132Y-10220844D02*
X5844132Y-10020844D01*
X5844132Y-10020844D02*
X5825085Y-10049415D01*
X5825085Y-10049415D02*
X5806037Y-10068463D01*
X5806037Y-10068463D02*
X5786989Y-10077987D01*
X5967942Y-10020844D02*
X6091751Y-10020844D01*
X6091751Y-10020844D02*
X6025085Y-10097034D01*
X6025085Y-10097034D02*
X6053656Y-10097034D01*
X6053656Y-10097034D02*
X6072704Y-10106558D01*
X6072704Y-10106558D02*
X6082227Y-10116082D01*
X6082227Y-10116082D02*
X6091751Y-10135130D01*
X6091751Y-10135130D02*
X6091751Y-10182749D01*
X6091751Y-10182749D02*
X6082227Y-10201796D01*
X6082227Y-10201796D02*
X6072704Y-10211320D01*
X6072704Y-10211320D02*
X6053656Y-10220844D01*
X6053656Y-10220844D02*
X5996513Y-10220844D01*
X5996513Y-10220844D02*
X5977466Y-10211320D01*
X5977466Y-10211320D02*
X5967942Y-10201796D01*
X6158418Y-10020844D02*
X6291751Y-10020844D01*
X6291751Y-10020844D02*
X6206037Y-10220844D01*
X6396513Y-10106558D02*
X6377466Y-10097034D01*
X6377466Y-10097034D02*
X6367942Y-10087510D01*
X6367942Y-10087510D02*
X6358418Y-10068463D01*
X6358418Y-10068463D02*
X6358418Y-10058939D01*
X6358418Y-10058939D02*
X6367942Y-10039891D01*
X6367942Y-10039891D02*
X6377466Y-10030368D01*
X6377466Y-10030368D02*
X6396513Y-10020844D01*
X6396513Y-10020844D02*
X6434608Y-10020844D01*
X6434608Y-10020844D02*
X6453656Y-10030368D01*
X6453656Y-10030368D02*
X6463180Y-10039891D01*
X6463180Y-10039891D02*
X6472704Y-10058939D01*
X6472704Y-10058939D02*
X6472704Y-10068463D01*
X6472704Y-10068463D02*
X6463180Y-10087510D01*
X6463180Y-10087510D02*
X6453656Y-10097034D01*
X6453656Y-10097034D02*
X6434608Y-10106558D01*
X6434608Y-10106558D02*
X6396513Y-10106558D01*
X6396513Y-10106558D02*
X6377466Y-10116082D01*
X6377466Y-10116082D02*
X6367942Y-10125606D01*
X6367942Y-10125606D02*
X6358418Y-10144653D01*
X6358418Y-10144653D02*
X6358418Y-10182749D01*
X6358418Y-10182749D02*
X6367942Y-10201796D01*
X6367942Y-10201796D02*
X6377466Y-10211320D01*
X6377466Y-10211320D02*
X6396513Y-10220844D01*
X6396513Y-10220844D02*
X6434608Y-10220844D01*
X6434608Y-10220844D02*
X6453656Y-10211320D01*
X6453656Y-10211320D02*
X6463180Y-10201796D01*
X6463180Y-10201796D02*
X6472704Y-10182749D01*
X6472704Y-10182749D02*
X6472704Y-10144653D01*
X6472704Y-10144653D02*
X6463180Y-10125606D01*
X6463180Y-10125606D02*
X6453656Y-10116082D01*
X6453656Y-10116082D02*
X6434608Y-10106558D01*
X6548894Y-10020844D02*
X6548894Y-10058939D01*
X6625085Y-10020844D02*
X6625085Y-10058939D01*
X6920323Y-10297034D02*
X6910799Y-10287510D01*
X6910799Y-10287510D02*
X6891751Y-10258939D01*
X6891751Y-10258939D02*
X6882228Y-10239891D01*
X6882228Y-10239891D02*
X6872704Y-10211320D01*
X6872704Y-10211320D02*
X6863180Y-10163701D01*
X6863180Y-10163701D02*
X6863180Y-10125606D01*
X6863180Y-10125606D02*
X6872704Y-10077987D01*
X6872704Y-10077987D02*
X6882228Y-10049415D01*
X6882228Y-10049415D02*
X6891751Y-10030368D01*
X6891751Y-10030368D02*
X6910799Y-10001796D01*
X6910799Y-10001796D02*
X6920323Y-9992272D01*
X7082228Y-10087510D02*
X7082228Y-10220844D01*
X7034608Y-10011320D02*
X6986989Y-10154177D01*
X6986989Y-10154177D02*
X7110799Y-10154177D01*
X7339370Y-10220844D02*
X7339370Y-10020844D01*
X7425085Y-10220844D02*
X7425085Y-10116082D01*
X7425085Y-10116082D02*
X7415561Y-10097034D01*
X7415561Y-10097034D02*
X7396513Y-10087510D01*
X7396513Y-10087510D02*
X7367942Y-10087510D01*
X7367942Y-10087510D02*
X7348894Y-10097034D01*
X7348894Y-10097034D02*
X7339370Y-10106558D01*
X7548894Y-10220844D02*
X7529847Y-10211320D01*
X7529847Y-10211320D02*
X7520323Y-10201796D01*
X7520323Y-10201796D02*
X7510799Y-10182749D01*
X7510799Y-10182749D02*
X7510799Y-10125606D01*
X7510799Y-10125606D02*
X7520323Y-10106558D01*
X7520323Y-10106558D02*
X7529847Y-10097034D01*
X7529847Y-10097034D02*
X7548894Y-10087510D01*
X7548894Y-10087510D02*
X7577466Y-10087510D01*
X7577466Y-10087510D02*
X7596513Y-10097034D01*
X7596513Y-10097034D02*
X7606037Y-10106558D01*
X7606037Y-10106558D02*
X7615561Y-10125606D01*
X7615561Y-10125606D02*
X7615561Y-10182749D01*
X7615561Y-10182749D02*
X7606037Y-10201796D01*
X7606037Y-10201796D02*
X7596513Y-10211320D01*
X7596513Y-10211320D02*
X7577466Y-10220844D01*
X7577466Y-10220844D02*
X7548894Y-10220844D01*
X7729847Y-10220844D02*
X7710799Y-10211320D01*
X7710799Y-10211320D02*
X7701275Y-10192272D01*
X7701275Y-10192272D02*
X7701275Y-10020844D01*
X7882228Y-10211320D02*
X7863180Y-10220844D01*
X7863180Y-10220844D02*
X7825085Y-10220844D01*
X7825085Y-10220844D02*
X7806037Y-10211320D01*
X7806037Y-10211320D02*
X7796513Y-10192272D01*
X7796513Y-10192272D02*
X7796513Y-10116082D01*
X7796513Y-10116082D02*
X7806037Y-10097034D01*
X7806037Y-10097034D02*
X7825085Y-10087510D01*
X7825085Y-10087510D02*
X7863180Y-10087510D01*
X7863180Y-10087510D02*
X7882228Y-10097034D01*
X7882228Y-10097034D02*
X7891751Y-10116082D01*
X7891751Y-10116082D02*
X7891751Y-10135130D01*
X7891751Y-10135130D02*
X7796513Y-10154177D01*
X7967942Y-10211320D02*
X7986990Y-10220844D01*
X7986990Y-10220844D02*
X8025085Y-10220844D01*
X8025085Y-10220844D02*
X8044132Y-10211320D01*
X8044132Y-10211320D02*
X8053656Y-10192272D01*
X8053656Y-10192272D02*
X8053656Y-10182749D01*
X8053656Y-10182749D02*
X8044132Y-10163701D01*
X8044132Y-10163701D02*
X8025085Y-10154177D01*
X8025085Y-10154177D02*
X7996513Y-10154177D01*
X7996513Y-10154177D02*
X7977466Y-10144653D01*
X7977466Y-10144653D02*
X7967942Y-10125606D01*
X7967942Y-10125606D02*
X7967942Y-10116082D01*
X7967942Y-10116082D02*
X7977466Y-10097034D01*
X7977466Y-10097034D02*
X7996513Y-10087510D01*
X7996513Y-10087510D02*
X8025085Y-10087510D01*
X8025085Y-10087510D02*
X8044132Y-10097034D01*
X8120323Y-10297034D02*
X8129847Y-10287510D01*
X8129847Y-10287510D02*
X8148894Y-10258939D01*
X8148894Y-10258939D02*
X8158418Y-10239891D01*
X8158418Y-10239891D02*
X8167942Y-10211320D01*
X8167942Y-10211320D02*
X8177466Y-10163701D01*
X8177466Y-10163701D02*
X8177466Y-10125606D01*
X8177466Y-10125606D02*
X8167942Y-10077987D01*
X8167942Y-10077987D02*
X8158418Y-10049415D01*
X8158418Y-10049415D02*
X8148894Y-10030368D01*
X8148894Y-10030368D02*
X8129847Y-10001796D01*
X8129847Y-10001796D02*
X8120323Y-9992272D01*
X8482228Y-10297034D02*
X8472704Y-10287510D01*
X8472704Y-10287510D02*
X8453656Y-10258939D01*
X8453656Y-10258939D02*
X8444133Y-10239891D01*
X8444133Y-10239891D02*
X8434609Y-10211320D01*
X8434609Y-10211320D02*
X8425085Y-10163701D01*
X8425085Y-10163701D02*
X8425085Y-10125606D01*
X8425085Y-10125606D02*
X8434609Y-10077987D01*
X8434609Y-10077987D02*
X8444133Y-10049415D01*
X8444133Y-10049415D02*
X8453656Y-10030368D01*
X8453656Y-10030368D02*
X8472704Y-10001796D01*
X8472704Y-10001796D02*
X8482228Y-9992272D01*
X8558418Y-10087510D02*
X8558418Y-10220844D01*
X8558418Y-10106558D02*
X8567942Y-10097034D01*
X8567942Y-10097034D02*
X8586990Y-10087510D01*
X8586990Y-10087510D02*
X8615561Y-10087510D01*
X8615561Y-10087510D02*
X8634609Y-10097034D01*
X8634609Y-10097034D02*
X8644133Y-10116082D01*
X8644133Y-10116082D02*
X8644133Y-10220844D01*
X8767942Y-10220844D02*
X8748894Y-10211320D01*
X8748894Y-10211320D02*
X8739371Y-10201796D01*
X8739371Y-10201796D02*
X8729847Y-10182749D01*
X8729847Y-10182749D02*
X8729847Y-10125606D01*
X8729847Y-10125606D02*
X8739371Y-10106558D01*
X8739371Y-10106558D02*
X8748894Y-10097034D01*
X8748894Y-10097034D02*
X8767942Y-10087510D01*
X8767942Y-10087510D02*
X8796514Y-10087510D01*
X8796514Y-10087510D02*
X8815561Y-10097034D01*
X8815561Y-10097034D02*
X8825085Y-10106558D01*
X8825085Y-10106558D02*
X8834609Y-10125606D01*
X8834609Y-10125606D02*
X8834609Y-10182749D01*
X8834609Y-10182749D02*
X8825085Y-10201796D01*
X8825085Y-10201796D02*
X8815561Y-10211320D01*
X8815561Y-10211320D02*
X8796514Y-10220844D01*
X8796514Y-10220844D02*
X8767942Y-10220844D01*
X8891752Y-10087510D02*
X8967942Y-10087510D01*
X8920323Y-10020844D02*
X8920323Y-10192272D01*
X8920323Y-10192272D02*
X8929847Y-10211320D01*
X8929847Y-10211320D02*
X8948894Y-10220844D01*
X8948894Y-10220844D02*
X8967942Y-10220844D01*
X9186990Y-10087510D02*
X9186990Y-10287510D01*
X9186990Y-10097034D02*
X9206037Y-10087510D01*
X9206037Y-10087510D02*
X9244133Y-10087510D01*
X9244133Y-10087510D02*
X9263180Y-10097034D01*
X9263180Y-10097034D02*
X9272704Y-10106558D01*
X9272704Y-10106558D02*
X9282228Y-10125606D01*
X9282228Y-10125606D02*
X9282228Y-10182749D01*
X9282228Y-10182749D02*
X9272704Y-10201796D01*
X9272704Y-10201796D02*
X9263180Y-10211320D01*
X9263180Y-10211320D02*
X9244133Y-10220844D01*
X9244133Y-10220844D02*
X9206037Y-10220844D01*
X9206037Y-10220844D02*
X9186990Y-10211320D01*
X9396514Y-10220844D02*
X9377466Y-10211320D01*
X9377466Y-10211320D02*
X9367942Y-10192272D01*
X9367942Y-10192272D02*
X9367942Y-10020844D01*
X9558418Y-10220844D02*
X9558418Y-10116082D01*
X9558418Y-10116082D02*
X9548895Y-10097034D01*
X9548895Y-10097034D02*
X9529847Y-10087510D01*
X9529847Y-10087510D02*
X9491752Y-10087510D01*
X9491752Y-10087510D02*
X9472704Y-10097034D01*
X9558418Y-10211320D02*
X9539371Y-10220844D01*
X9539371Y-10220844D02*
X9491752Y-10220844D01*
X9491752Y-10220844D02*
X9472704Y-10211320D01*
X9472704Y-10211320D02*
X9463180Y-10192272D01*
X9463180Y-10192272D02*
X9463180Y-10173225D01*
X9463180Y-10173225D02*
X9472704Y-10154177D01*
X9472704Y-10154177D02*
X9491752Y-10144653D01*
X9491752Y-10144653D02*
X9539371Y-10144653D01*
X9539371Y-10144653D02*
X9558418Y-10135130D01*
X9625085Y-10087510D02*
X9701275Y-10087510D01*
X9653656Y-10020844D02*
X9653656Y-10192272D01*
X9653656Y-10192272D02*
X9663180Y-10211320D01*
X9663180Y-10211320D02*
X9682228Y-10220844D01*
X9682228Y-10220844D02*
X9701275Y-10220844D01*
X9844133Y-10211320D02*
X9825085Y-10220844D01*
X9825085Y-10220844D02*
X9786990Y-10220844D01*
X9786990Y-10220844D02*
X9767942Y-10211320D01*
X9767942Y-10211320D02*
X9758418Y-10192272D01*
X9758418Y-10192272D02*
X9758418Y-10116082D01*
X9758418Y-10116082D02*
X9767942Y-10097034D01*
X9767942Y-10097034D02*
X9786990Y-10087510D01*
X9786990Y-10087510D02*
X9825085Y-10087510D01*
X9825085Y-10087510D02*
X9844133Y-10097034D01*
X9844133Y-10097034D02*
X9853656Y-10116082D01*
X9853656Y-10116082D02*
X9853656Y-10135130D01*
X9853656Y-10135130D02*
X9758418Y-10154177D01*
X10025085Y-10220844D02*
X10025085Y-10020844D01*
X10025085Y-10211320D02*
X10006037Y-10220844D01*
X10006037Y-10220844D02*
X9967942Y-10220844D01*
X9967942Y-10220844D02*
X9948895Y-10211320D01*
X9948895Y-10211320D02*
X9939371Y-10201796D01*
X9939371Y-10201796D02*
X9929847Y-10182749D01*
X9929847Y-10182749D02*
X9929847Y-10125606D01*
X9929847Y-10125606D02*
X9939371Y-10106558D01*
X9939371Y-10106558D02*
X9948895Y-10097034D01*
X9948895Y-10097034D02*
X9967942Y-10087510D01*
X9967942Y-10087510D02*
X10006037Y-10087510D01*
X10006037Y-10087510D02*
X10025085Y-10097034D01*
X10101276Y-10297034D02*
X10110799Y-10287510D01*
X10110799Y-10287510D02*
X10129847Y-10258939D01*
X10129847Y-10258939D02*
X10139371Y-10239891D01*
X10139371Y-10239891D02*
X10148895Y-10211320D01*
X10148895Y-10211320D02*
X10158418Y-10163701D01*
X10158418Y-10163701D02*
X10158418Y-10125606D01*
X10158418Y-10125606D02*
X10148895Y-10077987D01*
X10148895Y-10077987D02*
X10139371Y-10049415D01*
X10139371Y-10049415D02*
X10129847Y-10030368D01*
X10129847Y-10030368D02*
X10110799Y-10001796D01*
X10110799Y-10001796D02*
X10101276Y-9992272D01*
M02*
