%TF.GenerationSoftware,KiCad,Pcbnew,7.0.5*%
%TF.CreationDate,2024-01-10T23:37:06+05:30*%
%TF.ProjectId,Shutdown Circuit,53687574-646f-4776-9e20-436972637569,rev?*%
%TF.SameCoordinates,Original*%
%TF.FileFunction,Legend,Top*%
%TF.FilePolarity,Positive*%
%FSLAX46Y46*%
G04 Gerber Fmt 4.6, Leading zero omitted, Abs format (unit mm)*
G04 Created by KiCad (PCBNEW 7.0.5) date 2024-01-10 23:37:06*
%MOMM*%
%LPD*%
G01*
G04 APERTURE LIST*
%ADD10C,0.150000*%
%ADD11C,0.100000*%
%ADD12C,0.120000*%
%ADD13C,0.127000*%
%ADD14C,0.200000*%
G04 APERTURE END LIST*
D10*
X107900379Y-73902466D02*
X108662284Y-73902466D01*
X108281331Y-74283419D02*
X108281331Y-73521514D01*
X98714112Y-89973209D02*
X98856969Y-90020828D01*
X98856969Y-90020828D02*
X98904588Y-90068447D01*
X98904588Y-90068447D02*
X98952207Y-90163685D01*
X98952207Y-90163685D02*
X98952207Y-90306542D01*
X98952207Y-90306542D02*
X98904588Y-90401780D01*
X98904588Y-90401780D02*
X98856969Y-90449400D01*
X98856969Y-90449400D02*
X98761731Y-90497019D01*
X98761731Y-90497019D02*
X98380779Y-90497019D01*
X98380779Y-90497019D02*
X98380779Y-89497019D01*
X98380779Y-89497019D02*
X98714112Y-89497019D01*
X98714112Y-89497019D02*
X98809350Y-89544638D01*
X98809350Y-89544638D02*
X98856969Y-89592257D01*
X98856969Y-89592257D02*
X98904588Y-89687495D01*
X98904588Y-89687495D02*
X98904588Y-89782733D01*
X98904588Y-89782733D02*
X98856969Y-89877971D01*
X98856969Y-89877971D02*
X98809350Y-89925590D01*
X98809350Y-89925590D02*
X98714112Y-89973209D01*
X98714112Y-89973209D02*
X98380779Y-89973209D01*
X99571255Y-89497019D02*
X99761731Y-89497019D01*
X99761731Y-89497019D02*
X99856969Y-89544638D01*
X99856969Y-89544638D02*
X99952207Y-89639876D01*
X99952207Y-89639876D02*
X99999826Y-89830352D01*
X99999826Y-89830352D02*
X99999826Y-90163685D01*
X99999826Y-90163685D02*
X99952207Y-90354161D01*
X99952207Y-90354161D02*
X99856969Y-90449400D01*
X99856969Y-90449400D02*
X99761731Y-90497019D01*
X99761731Y-90497019D02*
X99571255Y-90497019D01*
X99571255Y-90497019D02*
X99476017Y-90449400D01*
X99476017Y-90449400D02*
X99380779Y-90354161D01*
X99380779Y-90354161D02*
X99333160Y-90163685D01*
X99333160Y-90163685D02*
X99333160Y-89830352D01*
X99333160Y-89830352D02*
X99380779Y-89639876D01*
X99380779Y-89639876D02*
X99476017Y-89544638D01*
X99476017Y-89544638D02*
X99571255Y-89497019D01*
X100285541Y-89497019D02*
X100856969Y-89497019D01*
X100571255Y-90497019D02*
X100571255Y-89497019D01*
X101142684Y-90449400D02*
X101285541Y-90497019D01*
X101285541Y-90497019D02*
X101523636Y-90497019D01*
X101523636Y-90497019D02*
X101618874Y-90449400D01*
X101618874Y-90449400D02*
X101666493Y-90401780D01*
X101666493Y-90401780D02*
X101714112Y-90306542D01*
X101714112Y-90306542D02*
X101714112Y-90211304D01*
X101714112Y-90211304D02*
X101666493Y-90116066D01*
X101666493Y-90116066D02*
X101618874Y-90068447D01*
X101618874Y-90068447D02*
X101523636Y-90020828D01*
X101523636Y-90020828D02*
X101333160Y-89973209D01*
X101333160Y-89973209D02*
X101237922Y-89925590D01*
X101237922Y-89925590D02*
X101190303Y-89877971D01*
X101190303Y-89877971D02*
X101142684Y-89782733D01*
X101142684Y-89782733D02*
X101142684Y-89687495D01*
X101142684Y-89687495D02*
X101190303Y-89592257D01*
X101190303Y-89592257D02*
X101237922Y-89544638D01*
X101237922Y-89544638D02*
X101333160Y-89497019D01*
X101333160Y-89497019D02*
X101571255Y-89497019D01*
X101571255Y-89497019D02*
X101714112Y-89544638D01*
X106100112Y-74953409D02*
X106242969Y-75001028D01*
X106242969Y-75001028D02*
X106290588Y-75048647D01*
X106290588Y-75048647D02*
X106338207Y-75143885D01*
X106338207Y-75143885D02*
X106338207Y-75286742D01*
X106338207Y-75286742D02*
X106290588Y-75381980D01*
X106290588Y-75381980D02*
X106242969Y-75429600D01*
X106242969Y-75429600D02*
X106147731Y-75477219D01*
X106147731Y-75477219D02*
X105766779Y-75477219D01*
X105766779Y-75477219D02*
X105766779Y-74477219D01*
X105766779Y-74477219D02*
X106100112Y-74477219D01*
X106100112Y-74477219D02*
X106195350Y-74524838D01*
X106195350Y-74524838D02*
X106242969Y-74572457D01*
X106242969Y-74572457D02*
X106290588Y-74667695D01*
X106290588Y-74667695D02*
X106290588Y-74762933D01*
X106290588Y-74762933D02*
X106242969Y-74858171D01*
X106242969Y-74858171D02*
X106195350Y-74905790D01*
X106195350Y-74905790D02*
X106100112Y-74953409D01*
X106100112Y-74953409D02*
X105766779Y-74953409D01*
X106719160Y-75429600D02*
X106862017Y-75477219D01*
X106862017Y-75477219D02*
X107100112Y-75477219D01*
X107100112Y-75477219D02*
X107195350Y-75429600D01*
X107195350Y-75429600D02*
X107242969Y-75381980D01*
X107242969Y-75381980D02*
X107290588Y-75286742D01*
X107290588Y-75286742D02*
X107290588Y-75191504D01*
X107290588Y-75191504D02*
X107242969Y-75096266D01*
X107242969Y-75096266D02*
X107195350Y-75048647D01*
X107195350Y-75048647D02*
X107100112Y-75001028D01*
X107100112Y-75001028D02*
X106909636Y-74953409D01*
X106909636Y-74953409D02*
X106814398Y-74905790D01*
X106814398Y-74905790D02*
X106766779Y-74858171D01*
X106766779Y-74858171D02*
X106719160Y-74762933D01*
X106719160Y-74762933D02*
X106719160Y-74667695D01*
X106719160Y-74667695D02*
X106766779Y-74572457D01*
X106766779Y-74572457D02*
X106814398Y-74524838D01*
X106814398Y-74524838D02*
X106909636Y-74477219D01*
X106909636Y-74477219D02*
X107147731Y-74477219D01*
X107147731Y-74477219D02*
X107290588Y-74524838D01*
X107719160Y-75477219D02*
X107719160Y-74477219D01*
X107719160Y-74477219D02*
X108100112Y-74477219D01*
X108100112Y-74477219D02*
X108195350Y-74524838D01*
X108195350Y-74524838D02*
X108242969Y-74572457D01*
X108242969Y-74572457D02*
X108290588Y-74667695D01*
X108290588Y-74667695D02*
X108290588Y-74810552D01*
X108290588Y-74810552D02*
X108242969Y-74905790D01*
X108242969Y-74905790D02*
X108195350Y-74953409D01*
X108195350Y-74953409D02*
X108100112Y-75001028D01*
X108100112Y-75001028D02*
X107719160Y-75001028D01*
X108719160Y-75477219D02*
X108719160Y-74477219D01*
X108719160Y-74477219D02*
X108957255Y-74477219D01*
X108957255Y-74477219D02*
X109100112Y-74524838D01*
X109100112Y-74524838D02*
X109195350Y-74620076D01*
X109195350Y-74620076D02*
X109242969Y-74715314D01*
X109242969Y-74715314D02*
X109290588Y-74905790D01*
X109290588Y-74905790D02*
X109290588Y-75048647D01*
X109290588Y-75048647D02*
X109242969Y-75239123D01*
X109242969Y-75239123D02*
X109195350Y-75334361D01*
X109195350Y-75334361D02*
X109100112Y-75429600D01*
X109100112Y-75429600D02*
X108957255Y-75477219D01*
X108957255Y-75477219D02*
X108719160Y-75477219D01*
X110814398Y-74953409D02*
X110481065Y-74953409D01*
X110481065Y-75477219D02*
X110481065Y-74477219D01*
X110481065Y-74477219D02*
X110957255Y-74477219D01*
X112576303Y-75477219D02*
X112100113Y-75477219D01*
X112100113Y-75477219D02*
X112100113Y-74477219D01*
X112909637Y-74953409D02*
X113242970Y-74953409D01*
X113385827Y-75477219D02*
X112909637Y-75477219D01*
X112909637Y-75477219D02*
X112909637Y-74477219D01*
X112909637Y-74477219D02*
X113385827Y-74477219D01*
X113814399Y-75477219D02*
X113814399Y-74477219D01*
X113814399Y-74477219D02*
X114052494Y-74477219D01*
X114052494Y-74477219D02*
X114195351Y-74524838D01*
X114195351Y-74524838D02*
X114290589Y-74620076D01*
X114290589Y-74620076D02*
X114338208Y-74715314D01*
X114338208Y-74715314D02*
X114385827Y-74905790D01*
X114385827Y-74905790D02*
X114385827Y-75048647D01*
X114385827Y-75048647D02*
X114338208Y-75239123D01*
X114338208Y-75239123D02*
X114290589Y-75334361D01*
X114290589Y-75334361D02*
X114195351Y-75429600D01*
X114195351Y-75429600D02*
X114052494Y-75477219D01*
X114052494Y-75477219D02*
X113814399Y-75477219D01*
X150984179Y-71370866D02*
X151746084Y-71370866D01*
X151365131Y-71751819D02*
X151365131Y-70989914D01*
X36532974Y-47379598D02*
X36675831Y-47427217D01*
X36675831Y-47427217D02*
X36913926Y-47427217D01*
X36913926Y-47427217D02*
X37009164Y-47379598D01*
X37009164Y-47379598D02*
X37056783Y-47331978D01*
X37056783Y-47331978D02*
X37104402Y-47236740D01*
X37104402Y-47236740D02*
X37104402Y-47141502D01*
X37104402Y-47141502D02*
X37056783Y-47046264D01*
X37056783Y-47046264D02*
X37009164Y-46998645D01*
X37009164Y-46998645D02*
X36913926Y-46951026D01*
X36913926Y-46951026D02*
X36723450Y-46903407D01*
X36723450Y-46903407D02*
X36628212Y-46855788D01*
X36628212Y-46855788D02*
X36580593Y-46808169D01*
X36580593Y-46808169D02*
X36532974Y-46712931D01*
X36532974Y-46712931D02*
X36532974Y-46617693D01*
X36532974Y-46617693D02*
X36580593Y-46522455D01*
X36580593Y-46522455D02*
X36628212Y-46474836D01*
X36628212Y-46474836D02*
X36723450Y-46427217D01*
X36723450Y-46427217D02*
X36961545Y-46427217D01*
X36961545Y-46427217D02*
X37104402Y-46474836D01*
X37532974Y-47427217D02*
X37532974Y-46427217D01*
X37532974Y-46427217D02*
X37771069Y-46427217D01*
X37771069Y-46427217D02*
X37913926Y-46474836D01*
X37913926Y-46474836D02*
X38009164Y-46570074D01*
X38009164Y-46570074D02*
X38056783Y-46665312D01*
X38056783Y-46665312D02*
X38104402Y-46855788D01*
X38104402Y-46855788D02*
X38104402Y-46998645D01*
X38104402Y-46998645D02*
X38056783Y-47189121D01*
X38056783Y-47189121D02*
X38009164Y-47284359D01*
X38009164Y-47284359D02*
X37913926Y-47379598D01*
X37913926Y-47379598D02*
X37771069Y-47427217D01*
X37771069Y-47427217D02*
X37532974Y-47427217D01*
X39104402Y-47331978D02*
X39056783Y-47379598D01*
X39056783Y-47379598D02*
X38913926Y-47427217D01*
X38913926Y-47427217D02*
X38818688Y-47427217D01*
X38818688Y-47427217D02*
X38675831Y-47379598D01*
X38675831Y-47379598D02*
X38580593Y-47284359D01*
X38580593Y-47284359D02*
X38532974Y-47189121D01*
X38532974Y-47189121D02*
X38485355Y-46998645D01*
X38485355Y-46998645D02*
X38485355Y-46855788D01*
X38485355Y-46855788D02*
X38532974Y-46665312D01*
X38532974Y-46665312D02*
X38580593Y-46570074D01*
X38580593Y-46570074D02*
X38675831Y-46474836D01*
X38675831Y-46474836D02*
X38818688Y-46427217D01*
X38818688Y-46427217D02*
X38913926Y-46427217D01*
X38913926Y-46427217D02*
X39056783Y-46474836D01*
X39056783Y-46474836D02*
X39104402Y-46522455D01*
X39532974Y-47046264D02*
X40294879Y-47046264D01*
X36456774Y-52654200D02*
X36599631Y-52701819D01*
X36599631Y-52701819D02*
X36837726Y-52701819D01*
X36837726Y-52701819D02*
X36932964Y-52654200D01*
X36932964Y-52654200D02*
X36980583Y-52606580D01*
X36980583Y-52606580D02*
X37028202Y-52511342D01*
X37028202Y-52511342D02*
X37028202Y-52416104D01*
X37028202Y-52416104D02*
X36980583Y-52320866D01*
X36980583Y-52320866D02*
X36932964Y-52273247D01*
X36932964Y-52273247D02*
X36837726Y-52225628D01*
X36837726Y-52225628D02*
X36647250Y-52178009D01*
X36647250Y-52178009D02*
X36552012Y-52130390D01*
X36552012Y-52130390D02*
X36504393Y-52082771D01*
X36504393Y-52082771D02*
X36456774Y-51987533D01*
X36456774Y-51987533D02*
X36456774Y-51892295D01*
X36456774Y-51892295D02*
X36504393Y-51797057D01*
X36504393Y-51797057D02*
X36552012Y-51749438D01*
X36552012Y-51749438D02*
X36647250Y-51701819D01*
X36647250Y-51701819D02*
X36885345Y-51701819D01*
X36885345Y-51701819D02*
X37028202Y-51749438D01*
X37456774Y-52701819D02*
X37456774Y-51701819D01*
X37456774Y-51701819D02*
X37694869Y-51701819D01*
X37694869Y-51701819D02*
X37837726Y-51749438D01*
X37837726Y-51749438D02*
X37932964Y-51844676D01*
X37932964Y-51844676D02*
X37980583Y-51939914D01*
X37980583Y-51939914D02*
X38028202Y-52130390D01*
X38028202Y-52130390D02*
X38028202Y-52273247D01*
X38028202Y-52273247D02*
X37980583Y-52463723D01*
X37980583Y-52463723D02*
X37932964Y-52558961D01*
X37932964Y-52558961D02*
X37837726Y-52654200D01*
X37837726Y-52654200D02*
X37694869Y-52701819D01*
X37694869Y-52701819D02*
X37456774Y-52701819D01*
X39028202Y-52606580D02*
X38980583Y-52654200D01*
X38980583Y-52654200D02*
X38837726Y-52701819D01*
X38837726Y-52701819D02*
X38742488Y-52701819D01*
X38742488Y-52701819D02*
X38599631Y-52654200D01*
X38599631Y-52654200D02*
X38504393Y-52558961D01*
X38504393Y-52558961D02*
X38456774Y-52463723D01*
X38456774Y-52463723D02*
X38409155Y-52273247D01*
X38409155Y-52273247D02*
X38409155Y-52130390D01*
X38409155Y-52130390D02*
X38456774Y-51939914D01*
X38456774Y-51939914D02*
X38504393Y-51844676D01*
X38504393Y-51844676D02*
X38599631Y-51749438D01*
X38599631Y-51749438D02*
X38742488Y-51701819D01*
X38742488Y-51701819D02*
X38837726Y-51701819D01*
X38837726Y-51701819D02*
X38980583Y-51749438D01*
X38980583Y-51749438D02*
X39028202Y-51797057D01*
X39456774Y-52320866D02*
X40218679Y-52320866D01*
X39837726Y-52701819D02*
X39837726Y-51939914D01*
X61296779Y-62861819D02*
X61296779Y-61861819D01*
X61772969Y-62861819D02*
X61772969Y-61861819D01*
X61772969Y-61861819D02*
X62106302Y-62576104D01*
X62106302Y-62576104D02*
X62439635Y-61861819D01*
X62439635Y-61861819D02*
X62439635Y-62861819D01*
X62915826Y-62861819D02*
X62915826Y-61861819D01*
X62915826Y-61861819D02*
X63153921Y-61861819D01*
X63153921Y-61861819D02*
X63296778Y-61909438D01*
X63296778Y-61909438D02*
X63392016Y-62004676D01*
X63392016Y-62004676D02*
X63439635Y-62099914D01*
X63439635Y-62099914D02*
X63487254Y-62290390D01*
X63487254Y-62290390D02*
X63487254Y-62433247D01*
X63487254Y-62433247D02*
X63439635Y-62623723D01*
X63439635Y-62623723D02*
X63392016Y-62718961D01*
X63392016Y-62718961D02*
X63296778Y-62814200D01*
X63296778Y-62814200D02*
X63153921Y-62861819D01*
X63153921Y-62861819D02*
X62915826Y-62861819D01*
X65011064Y-62338009D02*
X64677731Y-62338009D01*
X64677731Y-62861819D02*
X64677731Y-61861819D01*
X64677731Y-61861819D02*
X65153921Y-61861819D01*
X192059160Y-86334600D02*
X192202017Y-86382219D01*
X192202017Y-86382219D02*
X192440112Y-86382219D01*
X192440112Y-86382219D02*
X192535350Y-86334600D01*
X192535350Y-86334600D02*
X192582969Y-86286980D01*
X192582969Y-86286980D02*
X192630588Y-86191742D01*
X192630588Y-86191742D02*
X192630588Y-86096504D01*
X192630588Y-86096504D02*
X192582969Y-86001266D01*
X192582969Y-86001266D02*
X192535350Y-85953647D01*
X192535350Y-85953647D02*
X192440112Y-85906028D01*
X192440112Y-85906028D02*
X192249636Y-85858409D01*
X192249636Y-85858409D02*
X192154398Y-85810790D01*
X192154398Y-85810790D02*
X192106779Y-85763171D01*
X192106779Y-85763171D02*
X192059160Y-85667933D01*
X192059160Y-85667933D02*
X192059160Y-85572695D01*
X192059160Y-85572695D02*
X192106779Y-85477457D01*
X192106779Y-85477457D02*
X192154398Y-85429838D01*
X192154398Y-85429838D02*
X192249636Y-85382219D01*
X192249636Y-85382219D02*
X192487731Y-85382219D01*
X192487731Y-85382219D02*
X192630588Y-85429838D01*
X193059160Y-86382219D02*
X193059160Y-85382219D01*
X193059160Y-85382219D02*
X193297255Y-85382219D01*
X193297255Y-85382219D02*
X193440112Y-85429838D01*
X193440112Y-85429838D02*
X193535350Y-85525076D01*
X193535350Y-85525076D02*
X193582969Y-85620314D01*
X193582969Y-85620314D02*
X193630588Y-85810790D01*
X193630588Y-85810790D02*
X193630588Y-85953647D01*
X193630588Y-85953647D02*
X193582969Y-86144123D01*
X193582969Y-86144123D02*
X193535350Y-86239361D01*
X193535350Y-86239361D02*
X193440112Y-86334600D01*
X193440112Y-86334600D02*
X193297255Y-86382219D01*
X193297255Y-86382219D02*
X193059160Y-86382219D01*
X194392493Y-85858409D02*
X194535350Y-85906028D01*
X194535350Y-85906028D02*
X194582969Y-85953647D01*
X194582969Y-85953647D02*
X194630588Y-86048885D01*
X194630588Y-86048885D02*
X194630588Y-86191742D01*
X194630588Y-86191742D02*
X194582969Y-86286980D01*
X194582969Y-86286980D02*
X194535350Y-86334600D01*
X194535350Y-86334600D02*
X194440112Y-86382219D01*
X194440112Y-86382219D02*
X194059160Y-86382219D01*
X194059160Y-86382219D02*
X194059160Y-85382219D01*
X194059160Y-85382219D02*
X194392493Y-85382219D01*
X194392493Y-85382219D02*
X194487731Y-85429838D01*
X194487731Y-85429838D02*
X194535350Y-85477457D01*
X194535350Y-85477457D02*
X194582969Y-85572695D01*
X194582969Y-85572695D02*
X194582969Y-85667933D01*
X194582969Y-85667933D02*
X194535350Y-85763171D01*
X194535350Y-85763171D02*
X194487731Y-85810790D01*
X194487731Y-85810790D02*
X194392493Y-85858409D01*
X194392493Y-85858409D02*
X194059160Y-85858409D01*
X56042112Y-62338009D02*
X56184969Y-62385628D01*
X56184969Y-62385628D02*
X56232588Y-62433247D01*
X56232588Y-62433247D02*
X56280207Y-62528485D01*
X56280207Y-62528485D02*
X56280207Y-62671342D01*
X56280207Y-62671342D02*
X56232588Y-62766580D01*
X56232588Y-62766580D02*
X56184969Y-62814200D01*
X56184969Y-62814200D02*
X56089731Y-62861819D01*
X56089731Y-62861819D02*
X55708779Y-62861819D01*
X55708779Y-62861819D02*
X55708779Y-61861819D01*
X55708779Y-61861819D02*
X56042112Y-61861819D01*
X56042112Y-61861819D02*
X56137350Y-61909438D01*
X56137350Y-61909438D02*
X56184969Y-61957057D01*
X56184969Y-61957057D02*
X56232588Y-62052295D01*
X56232588Y-62052295D02*
X56232588Y-62147533D01*
X56232588Y-62147533D02*
X56184969Y-62242771D01*
X56184969Y-62242771D02*
X56137350Y-62290390D01*
X56137350Y-62290390D02*
X56042112Y-62338009D01*
X56042112Y-62338009D02*
X55708779Y-62338009D01*
X56661160Y-62814200D02*
X56804017Y-62861819D01*
X56804017Y-62861819D02*
X57042112Y-62861819D01*
X57042112Y-62861819D02*
X57137350Y-62814200D01*
X57137350Y-62814200D02*
X57184969Y-62766580D01*
X57184969Y-62766580D02*
X57232588Y-62671342D01*
X57232588Y-62671342D02*
X57232588Y-62576104D01*
X57232588Y-62576104D02*
X57184969Y-62480866D01*
X57184969Y-62480866D02*
X57137350Y-62433247D01*
X57137350Y-62433247D02*
X57042112Y-62385628D01*
X57042112Y-62385628D02*
X56851636Y-62338009D01*
X56851636Y-62338009D02*
X56756398Y-62290390D01*
X56756398Y-62290390D02*
X56708779Y-62242771D01*
X56708779Y-62242771D02*
X56661160Y-62147533D01*
X56661160Y-62147533D02*
X56661160Y-62052295D01*
X56661160Y-62052295D02*
X56708779Y-61957057D01*
X56708779Y-61957057D02*
X56756398Y-61909438D01*
X56756398Y-61909438D02*
X56851636Y-61861819D01*
X56851636Y-61861819D02*
X57089731Y-61861819D01*
X57089731Y-61861819D02*
X57232588Y-61909438D01*
X57661160Y-62861819D02*
X57661160Y-61861819D01*
X57661160Y-61861819D02*
X58042112Y-61861819D01*
X58042112Y-61861819D02*
X58137350Y-61909438D01*
X58137350Y-61909438D02*
X58184969Y-61957057D01*
X58184969Y-61957057D02*
X58232588Y-62052295D01*
X58232588Y-62052295D02*
X58232588Y-62195152D01*
X58232588Y-62195152D02*
X58184969Y-62290390D01*
X58184969Y-62290390D02*
X58137350Y-62338009D01*
X58137350Y-62338009D02*
X58042112Y-62385628D01*
X58042112Y-62385628D02*
X57661160Y-62385628D01*
X58661160Y-62861819D02*
X58661160Y-61861819D01*
X58661160Y-61861819D02*
X58899255Y-61861819D01*
X58899255Y-61861819D02*
X59042112Y-61909438D01*
X59042112Y-61909438D02*
X59137350Y-62004676D01*
X59137350Y-62004676D02*
X59184969Y-62099914D01*
X59184969Y-62099914D02*
X59232588Y-62290390D01*
X59232588Y-62290390D02*
X59232588Y-62433247D01*
X59232588Y-62433247D02*
X59184969Y-62623723D01*
X59184969Y-62623723D02*
X59137350Y-62718961D01*
X59137350Y-62718961D02*
X59042112Y-62814200D01*
X59042112Y-62814200D02*
X58899255Y-62861819D01*
X58899255Y-62861819D02*
X58661160Y-62861819D01*
X60756398Y-62338009D02*
X60423065Y-62338009D01*
X60423065Y-62861819D02*
X60423065Y-61861819D01*
X60423065Y-61861819D02*
X60899255Y-61861819D01*
X96872588Y-24825438D02*
X96777350Y-24777819D01*
X96777350Y-24777819D02*
X96634493Y-24777819D01*
X96634493Y-24777819D02*
X96491636Y-24825438D01*
X96491636Y-24825438D02*
X96396398Y-24920676D01*
X96396398Y-24920676D02*
X96348779Y-25015914D01*
X96348779Y-25015914D02*
X96301160Y-25206390D01*
X96301160Y-25206390D02*
X96301160Y-25349247D01*
X96301160Y-25349247D02*
X96348779Y-25539723D01*
X96348779Y-25539723D02*
X96396398Y-25634961D01*
X96396398Y-25634961D02*
X96491636Y-25730200D01*
X96491636Y-25730200D02*
X96634493Y-25777819D01*
X96634493Y-25777819D02*
X96729731Y-25777819D01*
X96729731Y-25777819D02*
X96872588Y-25730200D01*
X96872588Y-25730200D02*
X96920207Y-25682580D01*
X96920207Y-25682580D02*
X96920207Y-25349247D01*
X96920207Y-25349247D02*
X96729731Y-25349247D01*
X97824969Y-25777819D02*
X97348779Y-25777819D01*
X97348779Y-25777819D02*
X97348779Y-24777819D01*
X98015446Y-24777819D02*
X98348779Y-25777819D01*
X98348779Y-25777819D02*
X98682112Y-24777819D01*
X99729732Y-25730200D02*
X99872589Y-25777819D01*
X99872589Y-25777819D02*
X100110684Y-25777819D01*
X100110684Y-25777819D02*
X100205922Y-25730200D01*
X100205922Y-25730200D02*
X100253541Y-25682580D01*
X100253541Y-25682580D02*
X100301160Y-25587342D01*
X100301160Y-25587342D02*
X100301160Y-25492104D01*
X100301160Y-25492104D02*
X100253541Y-25396866D01*
X100253541Y-25396866D02*
X100205922Y-25349247D01*
X100205922Y-25349247D02*
X100110684Y-25301628D01*
X100110684Y-25301628D02*
X99920208Y-25254009D01*
X99920208Y-25254009D02*
X99824970Y-25206390D01*
X99824970Y-25206390D02*
X99777351Y-25158771D01*
X99777351Y-25158771D02*
X99729732Y-25063533D01*
X99729732Y-25063533D02*
X99729732Y-24968295D01*
X99729732Y-24968295D02*
X99777351Y-24873057D01*
X99777351Y-24873057D02*
X99824970Y-24825438D01*
X99824970Y-24825438D02*
X99920208Y-24777819D01*
X99920208Y-24777819D02*
X100158303Y-24777819D01*
X100158303Y-24777819D02*
X100301160Y-24825438D01*
X100729732Y-25396866D02*
X101491637Y-25396866D01*
X101110684Y-25777819D02*
X101110684Y-25015914D01*
X58807579Y-90725619D02*
X58807579Y-89725619D01*
X59379007Y-90725619D02*
X58950436Y-90154190D01*
X59379007Y-89725619D02*
X58807579Y-90297047D01*
X59807579Y-90201809D02*
X60140912Y-90201809D01*
X60283769Y-90725619D02*
X59807579Y-90725619D01*
X59807579Y-90725619D02*
X59807579Y-89725619D01*
X59807579Y-89725619D02*
X60283769Y-89725619D01*
X60902817Y-90249428D02*
X60902817Y-90725619D01*
X60569484Y-89725619D02*
X60902817Y-90249428D01*
X60902817Y-90249428D02*
X61236150Y-89725619D01*
X62188532Y-89725619D02*
X62759960Y-89725619D01*
X62474246Y-90725619D02*
X62474246Y-89725619D01*
X37031783Y-38521817D02*
X36555593Y-38521817D01*
X36555593Y-38521817D02*
X36555593Y-37521817D01*
X37222260Y-37521817D02*
X37555593Y-38521817D01*
X37555593Y-38521817D02*
X37888926Y-37521817D01*
X38222260Y-38521817D02*
X38222260Y-37521817D01*
X38222260Y-37521817D02*
X38555593Y-38236102D01*
X38555593Y-38236102D02*
X38888926Y-37521817D01*
X38888926Y-37521817D02*
X38888926Y-38521817D01*
X39317498Y-38474198D02*
X39460355Y-38521817D01*
X39460355Y-38521817D02*
X39698450Y-38521817D01*
X39698450Y-38521817D02*
X39793688Y-38474198D01*
X39793688Y-38474198D02*
X39841307Y-38426578D01*
X39841307Y-38426578D02*
X39888926Y-38331340D01*
X39888926Y-38331340D02*
X39888926Y-38236102D01*
X39888926Y-38236102D02*
X39841307Y-38140864D01*
X39841307Y-38140864D02*
X39793688Y-38093245D01*
X39793688Y-38093245D02*
X39698450Y-38045626D01*
X39698450Y-38045626D02*
X39507974Y-37998007D01*
X39507974Y-37998007D02*
X39412736Y-37950388D01*
X39412736Y-37950388D02*
X39365117Y-37902769D01*
X39365117Y-37902769D02*
X39317498Y-37807531D01*
X39317498Y-37807531D02*
X39317498Y-37712293D01*
X39317498Y-37712293D02*
X39365117Y-37617055D01*
X39365117Y-37617055D02*
X39412736Y-37569436D01*
X39412736Y-37569436D02*
X39507974Y-37521817D01*
X39507974Y-37521817D02*
X39746069Y-37521817D01*
X39746069Y-37521817D02*
X39888926Y-37569436D01*
X149409379Y-77746219D02*
X149409379Y-76746219D01*
X149885569Y-77746219D02*
X149885569Y-76746219D01*
X149885569Y-76746219D02*
X150218902Y-77460504D01*
X150218902Y-77460504D02*
X150552235Y-76746219D01*
X150552235Y-76746219D02*
X150552235Y-77746219D01*
X151028426Y-77746219D02*
X151028426Y-76746219D01*
X151028426Y-76746219D02*
X151266521Y-76746219D01*
X151266521Y-76746219D02*
X151409378Y-76793838D01*
X151409378Y-76793838D02*
X151504616Y-76889076D01*
X151504616Y-76889076D02*
X151552235Y-76984314D01*
X151552235Y-76984314D02*
X151599854Y-77174790D01*
X151599854Y-77174790D02*
X151599854Y-77317647D01*
X151599854Y-77317647D02*
X151552235Y-77508123D01*
X151552235Y-77508123D02*
X151504616Y-77603361D01*
X151504616Y-77603361D02*
X151409378Y-77698600D01*
X151409378Y-77698600D02*
X151266521Y-77746219D01*
X151266521Y-77746219D02*
X151028426Y-77746219D01*
X153123664Y-77222409D02*
X152790331Y-77222409D01*
X152790331Y-77746219D02*
X152790331Y-76746219D01*
X152790331Y-76746219D02*
X153266521Y-76746219D01*
X154885569Y-77746219D02*
X154409379Y-77746219D01*
X154409379Y-77746219D02*
X154409379Y-76746219D01*
X155218903Y-77222409D02*
X155552236Y-77222409D01*
X155695093Y-77746219D02*
X155218903Y-77746219D01*
X155218903Y-77746219D02*
X155218903Y-76746219D01*
X155218903Y-76746219D02*
X155695093Y-76746219D01*
X156123665Y-77746219D02*
X156123665Y-76746219D01*
X156123665Y-76746219D02*
X156361760Y-76746219D01*
X156361760Y-76746219D02*
X156504617Y-76793838D01*
X156504617Y-76793838D02*
X156599855Y-76889076D01*
X156599855Y-76889076D02*
X156647474Y-76984314D01*
X156647474Y-76984314D02*
X156695093Y-77174790D01*
X156695093Y-77174790D02*
X156695093Y-77317647D01*
X156695093Y-77317647D02*
X156647474Y-77508123D01*
X156647474Y-77508123D02*
X156599855Y-77603361D01*
X156599855Y-77603361D02*
X156504617Y-77698600D01*
X156504617Y-77698600D02*
X156361760Y-77746219D01*
X156361760Y-77746219D02*
X156123665Y-77746219D01*
X124571360Y-89890600D02*
X124714217Y-89938219D01*
X124714217Y-89938219D02*
X124952312Y-89938219D01*
X124952312Y-89938219D02*
X125047550Y-89890600D01*
X125047550Y-89890600D02*
X125095169Y-89842980D01*
X125095169Y-89842980D02*
X125142788Y-89747742D01*
X125142788Y-89747742D02*
X125142788Y-89652504D01*
X125142788Y-89652504D02*
X125095169Y-89557266D01*
X125095169Y-89557266D02*
X125047550Y-89509647D01*
X125047550Y-89509647D02*
X124952312Y-89462028D01*
X124952312Y-89462028D02*
X124761836Y-89414409D01*
X124761836Y-89414409D02*
X124666598Y-89366790D01*
X124666598Y-89366790D02*
X124618979Y-89319171D01*
X124618979Y-89319171D02*
X124571360Y-89223933D01*
X124571360Y-89223933D02*
X124571360Y-89128695D01*
X124571360Y-89128695D02*
X124618979Y-89033457D01*
X124618979Y-89033457D02*
X124666598Y-88985838D01*
X124666598Y-88985838D02*
X124761836Y-88938219D01*
X124761836Y-88938219D02*
X124999931Y-88938219D01*
X124999931Y-88938219D02*
X125142788Y-88985838D01*
X125571360Y-89938219D02*
X125571360Y-88938219D01*
X125571360Y-88938219D02*
X125809455Y-88938219D01*
X125809455Y-88938219D02*
X125952312Y-88985838D01*
X125952312Y-88985838D02*
X126047550Y-89081076D01*
X126047550Y-89081076D02*
X126095169Y-89176314D01*
X126095169Y-89176314D02*
X126142788Y-89366790D01*
X126142788Y-89366790D02*
X126142788Y-89509647D01*
X126142788Y-89509647D02*
X126095169Y-89700123D01*
X126095169Y-89700123D02*
X126047550Y-89795361D01*
X126047550Y-89795361D02*
X125952312Y-89890600D01*
X125952312Y-89890600D02*
X125809455Y-89938219D01*
X125809455Y-89938219D02*
X125571360Y-89938219D01*
X126904693Y-89414409D02*
X127047550Y-89462028D01*
X127047550Y-89462028D02*
X127095169Y-89509647D01*
X127095169Y-89509647D02*
X127142788Y-89604885D01*
X127142788Y-89604885D02*
X127142788Y-89747742D01*
X127142788Y-89747742D02*
X127095169Y-89842980D01*
X127095169Y-89842980D02*
X127047550Y-89890600D01*
X127047550Y-89890600D02*
X126952312Y-89938219D01*
X126952312Y-89938219D02*
X126571360Y-89938219D01*
X126571360Y-89938219D02*
X126571360Y-88938219D01*
X126571360Y-88938219D02*
X126904693Y-88938219D01*
X126904693Y-88938219D02*
X126999931Y-88985838D01*
X126999931Y-88985838D02*
X127047550Y-89033457D01*
X127047550Y-89033457D02*
X127095169Y-89128695D01*
X127095169Y-89128695D02*
X127095169Y-89223933D01*
X127095169Y-89223933D02*
X127047550Y-89319171D01*
X127047550Y-89319171D02*
X126999931Y-89366790D01*
X126999931Y-89366790D02*
X126904693Y-89414409D01*
X126904693Y-89414409D02*
X126571360Y-89414409D01*
X177652112Y-65428409D02*
X177794969Y-65476028D01*
X177794969Y-65476028D02*
X177842588Y-65523647D01*
X177842588Y-65523647D02*
X177890207Y-65618885D01*
X177890207Y-65618885D02*
X177890207Y-65761742D01*
X177890207Y-65761742D02*
X177842588Y-65856980D01*
X177842588Y-65856980D02*
X177794969Y-65904600D01*
X177794969Y-65904600D02*
X177699731Y-65952219D01*
X177699731Y-65952219D02*
X177318779Y-65952219D01*
X177318779Y-65952219D02*
X177318779Y-64952219D01*
X177318779Y-64952219D02*
X177652112Y-64952219D01*
X177652112Y-64952219D02*
X177747350Y-64999838D01*
X177747350Y-64999838D02*
X177794969Y-65047457D01*
X177794969Y-65047457D02*
X177842588Y-65142695D01*
X177842588Y-65142695D02*
X177842588Y-65237933D01*
X177842588Y-65237933D02*
X177794969Y-65333171D01*
X177794969Y-65333171D02*
X177747350Y-65380790D01*
X177747350Y-65380790D02*
X177652112Y-65428409D01*
X177652112Y-65428409D02*
X177318779Y-65428409D01*
X178318779Y-65952219D02*
X178318779Y-64952219D01*
X178318779Y-64952219D02*
X178652112Y-65666504D01*
X178652112Y-65666504D02*
X178985445Y-64952219D01*
X178985445Y-64952219D02*
X178985445Y-65952219D01*
X179414017Y-65904600D02*
X179556874Y-65952219D01*
X179556874Y-65952219D02*
X179794969Y-65952219D01*
X179794969Y-65952219D02*
X179890207Y-65904600D01*
X179890207Y-65904600D02*
X179937826Y-65856980D01*
X179937826Y-65856980D02*
X179985445Y-65761742D01*
X179985445Y-65761742D02*
X179985445Y-65666504D01*
X179985445Y-65666504D02*
X179937826Y-65571266D01*
X179937826Y-65571266D02*
X179890207Y-65523647D01*
X179890207Y-65523647D02*
X179794969Y-65476028D01*
X179794969Y-65476028D02*
X179604493Y-65428409D01*
X179604493Y-65428409D02*
X179509255Y-65380790D01*
X179509255Y-65380790D02*
X179461636Y-65333171D01*
X179461636Y-65333171D02*
X179414017Y-65237933D01*
X179414017Y-65237933D02*
X179414017Y-65142695D01*
X179414017Y-65142695D02*
X179461636Y-65047457D01*
X179461636Y-65047457D02*
X179509255Y-64999838D01*
X179509255Y-64999838D02*
X179604493Y-64952219D01*
X179604493Y-64952219D02*
X179842588Y-64952219D01*
X179842588Y-64952219D02*
X179985445Y-64999838D01*
X181509255Y-65428409D02*
X181175922Y-65428409D01*
X181175922Y-65952219D02*
X181175922Y-64952219D01*
X181175922Y-64952219D02*
X181652112Y-64952219D01*
X182461636Y-65285552D02*
X182461636Y-65952219D01*
X182223541Y-64904600D02*
X181985446Y-65618885D01*
X181985446Y-65618885D02*
X182604493Y-65618885D01*
D11*
X79504265Y-75278704D02*
X79980455Y-75278704D01*
X79409027Y-75564419D02*
X79742360Y-74564419D01*
X79742360Y-74564419D02*
X80075693Y-75564419D01*
X80409027Y-75564419D02*
X80409027Y-74564419D01*
X80409027Y-74564419D02*
X80742360Y-75278704D01*
X80742360Y-75278704D02*
X81075693Y-74564419D01*
X81075693Y-74564419D02*
X81075693Y-75564419D01*
X81504265Y-75516800D02*
X81647122Y-75564419D01*
X81647122Y-75564419D02*
X81885217Y-75564419D01*
X81885217Y-75564419D02*
X81980455Y-75516800D01*
X81980455Y-75516800D02*
X82028074Y-75469180D01*
X82028074Y-75469180D02*
X82075693Y-75373942D01*
X82075693Y-75373942D02*
X82075693Y-75278704D01*
X82075693Y-75278704D02*
X82028074Y-75183466D01*
X82028074Y-75183466D02*
X81980455Y-75135847D01*
X81980455Y-75135847D02*
X81885217Y-75088228D01*
X81885217Y-75088228D02*
X81694741Y-75040609D01*
X81694741Y-75040609D02*
X81599503Y-74992990D01*
X81599503Y-74992990D02*
X81551884Y-74945371D01*
X81551884Y-74945371D02*
X81504265Y-74850133D01*
X81504265Y-74850133D02*
X81504265Y-74754895D01*
X81504265Y-74754895D02*
X81551884Y-74659657D01*
X81551884Y-74659657D02*
X81599503Y-74612038D01*
X81599503Y-74612038D02*
X81694741Y-74564419D01*
X81694741Y-74564419D02*
X81932836Y-74564419D01*
X81932836Y-74564419D02*
X82075693Y-74612038D01*
X83599503Y-75040609D02*
X83266170Y-75040609D01*
X83266170Y-75564419D02*
X83266170Y-74564419D01*
X83266170Y-74564419D02*
X83742360Y-74564419D01*
X85361408Y-75564419D02*
X84885218Y-75564419D01*
X84885218Y-75564419D02*
X84885218Y-74564419D01*
X85694742Y-75040609D02*
X86028075Y-75040609D01*
X86170932Y-75564419D02*
X85694742Y-75564419D01*
X85694742Y-75564419D02*
X85694742Y-74564419D01*
X85694742Y-74564419D02*
X86170932Y-74564419D01*
X86599504Y-75564419D02*
X86599504Y-74564419D01*
X86599504Y-74564419D02*
X86837599Y-74564419D01*
X86837599Y-74564419D02*
X86980456Y-74612038D01*
X86980456Y-74612038D02*
X87075694Y-74707276D01*
X87075694Y-74707276D02*
X87123313Y-74802514D01*
X87123313Y-74802514D02*
X87170932Y-74992990D01*
X87170932Y-74992990D02*
X87170932Y-75135847D01*
X87170932Y-75135847D02*
X87123313Y-75326323D01*
X87123313Y-75326323D02*
X87075694Y-75421561D01*
X87075694Y-75421561D02*
X86980456Y-75516800D01*
X86980456Y-75516800D02*
X86837599Y-75564419D01*
X86837599Y-75564419D02*
X86599504Y-75564419D01*
D10*
X72406122Y-89624019D02*
X72977550Y-89624019D01*
X72691836Y-90624019D02*
X72691836Y-89624019D01*
X73263265Y-90576400D02*
X73406122Y-90624019D01*
X73406122Y-90624019D02*
X73644217Y-90624019D01*
X73644217Y-90624019D02*
X73739455Y-90576400D01*
X73739455Y-90576400D02*
X73787074Y-90528780D01*
X73787074Y-90528780D02*
X73834693Y-90433542D01*
X73834693Y-90433542D02*
X73834693Y-90338304D01*
X73834693Y-90338304D02*
X73787074Y-90243066D01*
X73787074Y-90243066D02*
X73739455Y-90195447D01*
X73739455Y-90195447D02*
X73644217Y-90147828D01*
X73644217Y-90147828D02*
X73453741Y-90100209D01*
X73453741Y-90100209D02*
X73358503Y-90052590D01*
X73358503Y-90052590D02*
X73310884Y-90004971D01*
X73310884Y-90004971D02*
X73263265Y-89909733D01*
X73263265Y-89909733D02*
X73263265Y-89814495D01*
X73263265Y-89814495D02*
X73310884Y-89719257D01*
X73310884Y-89719257D02*
X73358503Y-89671638D01*
X73358503Y-89671638D02*
X73453741Y-89624019D01*
X73453741Y-89624019D02*
X73691836Y-89624019D01*
X73691836Y-89624019D02*
X73834693Y-89671638D01*
X74263265Y-90624019D02*
X74263265Y-89624019D01*
X74263265Y-89624019D02*
X74596598Y-90338304D01*
X74596598Y-90338304D02*
X74929931Y-89624019D01*
X74929931Y-89624019D02*
X74929931Y-90624019D01*
X75358503Y-90576400D02*
X75501360Y-90624019D01*
X75501360Y-90624019D02*
X75739455Y-90624019D01*
X75739455Y-90624019D02*
X75834693Y-90576400D01*
X75834693Y-90576400D02*
X75882312Y-90528780D01*
X75882312Y-90528780D02*
X75929931Y-90433542D01*
X75929931Y-90433542D02*
X75929931Y-90338304D01*
X75929931Y-90338304D02*
X75882312Y-90243066D01*
X75882312Y-90243066D02*
X75834693Y-90195447D01*
X75834693Y-90195447D02*
X75739455Y-90147828D01*
X75739455Y-90147828D02*
X75548979Y-90100209D01*
X75548979Y-90100209D02*
X75453741Y-90052590D01*
X75453741Y-90052590D02*
X75406122Y-90004971D01*
X75406122Y-90004971D02*
X75358503Y-89909733D01*
X75358503Y-89909733D02*
X75358503Y-89814495D01*
X75358503Y-89814495D02*
X75406122Y-89719257D01*
X75406122Y-89719257D02*
X75453741Y-89671638D01*
X75453741Y-89671638D02*
X75548979Y-89624019D01*
X75548979Y-89624019D02*
X75787074Y-89624019D01*
X75787074Y-89624019D02*
X75929931Y-89671638D01*
X137398360Y-89839800D02*
X137541217Y-89887419D01*
X137541217Y-89887419D02*
X137779312Y-89887419D01*
X137779312Y-89887419D02*
X137874550Y-89839800D01*
X137874550Y-89839800D02*
X137922169Y-89792180D01*
X137922169Y-89792180D02*
X137969788Y-89696942D01*
X137969788Y-89696942D02*
X137969788Y-89601704D01*
X137969788Y-89601704D02*
X137922169Y-89506466D01*
X137922169Y-89506466D02*
X137874550Y-89458847D01*
X137874550Y-89458847D02*
X137779312Y-89411228D01*
X137779312Y-89411228D02*
X137588836Y-89363609D01*
X137588836Y-89363609D02*
X137493598Y-89315990D01*
X137493598Y-89315990D02*
X137445979Y-89268371D01*
X137445979Y-89268371D02*
X137398360Y-89173133D01*
X137398360Y-89173133D02*
X137398360Y-89077895D01*
X137398360Y-89077895D02*
X137445979Y-88982657D01*
X137445979Y-88982657D02*
X137493598Y-88935038D01*
X137493598Y-88935038D02*
X137588836Y-88887419D01*
X137588836Y-88887419D02*
X137826931Y-88887419D01*
X137826931Y-88887419D02*
X137969788Y-88935038D01*
X138398360Y-89887419D02*
X138398360Y-88887419D01*
X138398360Y-88887419D02*
X138636455Y-88887419D01*
X138636455Y-88887419D02*
X138779312Y-88935038D01*
X138779312Y-88935038D02*
X138874550Y-89030276D01*
X138874550Y-89030276D02*
X138922169Y-89125514D01*
X138922169Y-89125514D02*
X138969788Y-89315990D01*
X138969788Y-89315990D02*
X138969788Y-89458847D01*
X138969788Y-89458847D02*
X138922169Y-89649323D01*
X138922169Y-89649323D02*
X138874550Y-89744561D01*
X138874550Y-89744561D02*
X138779312Y-89839800D01*
X138779312Y-89839800D02*
X138636455Y-89887419D01*
X138636455Y-89887419D02*
X138398360Y-89887419D01*
X139731693Y-89363609D02*
X139874550Y-89411228D01*
X139874550Y-89411228D02*
X139922169Y-89458847D01*
X139922169Y-89458847D02*
X139969788Y-89554085D01*
X139969788Y-89554085D02*
X139969788Y-89696942D01*
X139969788Y-89696942D02*
X139922169Y-89792180D01*
X139922169Y-89792180D02*
X139874550Y-89839800D01*
X139874550Y-89839800D02*
X139779312Y-89887419D01*
X139779312Y-89887419D02*
X139398360Y-89887419D01*
X139398360Y-89887419D02*
X139398360Y-88887419D01*
X139398360Y-88887419D02*
X139731693Y-88887419D01*
X139731693Y-88887419D02*
X139826931Y-88935038D01*
X139826931Y-88935038D02*
X139874550Y-88982657D01*
X139874550Y-88982657D02*
X139922169Y-89077895D01*
X139922169Y-89077895D02*
X139922169Y-89173133D01*
X139922169Y-89173133D02*
X139874550Y-89268371D01*
X139874550Y-89268371D02*
X139826931Y-89315990D01*
X139826931Y-89315990D02*
X139731693Y-89363609D01*
X139731693Y-89363609D02*
X139398360Y-89363609D01*
X37113993Y-73411417D02*
X37113993Y-72411417D01*
X37113993Y-72411417D02*
X37352088Y-72411417D01*
X37352088Y-72411417D02*
X37494945Y-72459036D01*
X37494945Y-72459036D02*
X37590183Y-72554274D01*
X37590183Y-72554274D02*
X37637802Y-72649512D01*
X37637802Y-72649512D02*
X37685421Y-72839988D01*
X37685421Y-72839988D02*
X37685421Y-72982845D01*
X37685421Y-72982845D02*
X37637802Y-73173321D01*
X37637802Y-73173321D02*
X37590183Y-73268559D01*
X37590183Y-73268559D02*
X37494945Y-73363798D01*
X37494945Y-73363798D02*
X37352088Y-73411417D01*
X37352088Y-73411417D02*
X37113993Y-73411417D01*
X38113993Y-73411417D02*
X38113993Y-72411417D01*
X38542564Y-73363798D02*
X38685421Y-73411417D01*
X38685421Y-73411417D02*
X38923516Y-73411417D01*
X38923516Y-73411417D02*
X39018754Y-73363798D01*
X39018754Y-73363798D02*
X39066373Y-73316178D01*
X39066373Y-73316178D02*
X39113992Y-73220940D01*
X39113992Y-73220940D02*
X39113992Y-73125702D01*
X39113992Y-73125702D02*
X39066373Y-73030464D01*
X39066373Y-73030464D02*
X39018754Y-72982845D01*
X39018754Y-72982845D02*
X38923516Y-72935226D01*
X38923516Y-72935226D02*
X38733040Y-72887607D01*
X38733040Y-72887607D02*
X38637802Y-72839988D01*
X38637802Y-72839988D02*
X38590183Y-72792369D01*
X38590183Y-72792369D02*
X38542564Y-72697131D01*
X38542564Y-72697131D02*
X38542564Y-72601893D01*
X38542564Y-72601893D02*
X38590183Y-72506655D01*
X38590183Y-72506655D02*
X38637802Y-72459036D01*
X38637802Y-72459036D02*
X38733040Y-72411417D01*
X38733040Y-72411417D02*
X38971135Y-72411417D01*
X38971135Y-72411417D02*
X39113992Y-72459036D01*
X39542564Y-73030464D02*
X40304469Y-73030464D01*
X85934779Y-90776419D02*
X85934779Y-89776419D01*
X85934779Y-90252609D02*
X86506207Y-90252609D01*
X86506207Y-90776419D02*
X86506207Y-89776419D01*
X86839541Y-89776419D02*
X87172874Y-90776419D01*
X87172874Y-90776419D02*
X87506207Y-89776419D01*
X87839541Y-90776419D02*
X87839541Y-89776419D01*
X87839541Y-89776419D02*
X88077636Y-89776419D01*
X88077636Y-89776419D02*
X88220493Y-89824038D01*
X88220493Y-89824038D02*
X88315731Y-89919276D01*
X88315731Y-89919276D02*
X88363350Y-90014514D01*
X88363350Y-90014514D02*
X88410969Y-90204990D01*
X88410969Y-90204990D02*
X88410969Y-90347847D01*
X88410969Y-90347847D02*
X88363350Y-90538323D01*
X88363350Y-90538323D02*
X88315731Y-90633561D01*
X88315731Y-90633561D02*
X88220493Y-90728800D01*
X88220493Y-90728800D02*
X88077636Y-90776419D01*
X88077636Y-90776419D02*
X87839541Y-90776419D01*
X140176407Y-26412819D02*
X139843074Y-25936628D01*
X139604979Y-26412819D02*
X139604979Y-25412819D01*
X139604979Y-25412819D02*
X139985931Y-25412819D01*
X139985931Y-25412819D02*
X140081169Y-25460438D01*
X140081169Y-25460438D02*
X140128788Y-25508057D01*
X140128788Y-25508057D02*
X140176407Y-25603295D01*
X140176407Y-25603295D02*
X140176407Y-25746152D01*
X140176407Y-25746152D02*
X140128788Y-25841390D01*
X140128788Y-25841390D02*
X140081169Y-25889009D01*
X140081169Y-25889009D02*
X139985931Y-25936628D01*
X139985931Y-25936628D02*
X139604979Y-25936628D01*
X140604979Y-25889009D02*
X140938312Y-25889009D01*
X141081169Y-26412819D02*
X140604979Y-26412819D01*
X140604979Y-26412819D02*
X140604979Y-25412819D01*
X140604979Y-25412819D02*
X141081169Y-25412819D01*
X141462122Y-26365200D02*
X141604979Y-26412819D01*
X141604979Y-26412819D02*
X141843074Y-26412819D01*
X141843074Y-26412819D02*
X141938312Y-26365200D01*
X141938312Y-26365200D02*
X141985931Y-26317580D01*
X141985931Y-26317580D02*
X142033550Y-26222342D01*
X142033550Y-26222342D02*
X142033550Y-26127104D01*
X142033550Y-26127104D02*
X141985931Y-26031866D01*
X141985931Y-26031866D02*
X141938312Y-25984247D01*
X141938312Y-25984247D02*
X141843074Y-25936628D01*
X141843074Y-25936628D02*
X141652598Y-25889009D01*
X141652598Y-25889009D02*
X141557360Y-25841390D01*
X141557360Y-25841390D02*
X141509741Y-25793771D01*
X141509741Y-25793771D02*
X141462122Y-25698533D01*
X141462122Y-25698533D02*
X141462122Y-25603295D01*
X141462122Y-25603295D02*
X141509741Y-25508057D01*
X141509741Y-25508057D02*
X141557360Y-25460438D01*
X141557360Y-25460438D02*
X141652598Y-25412819D01*
X141652598Y-25412819D02*
X141890693Y-25412819D01*
X141890693Y-25412819D02*
X142033550Y-25460438D01*
X142462122Y-25889009D02*
X142795455Y-25889009D01*
X142938312Y-26412819D02*
X142462122Y-26412819D01*
X142462122Y-26412819D02*
X142462122Y-25412819D01*
X142462122Y-25412819D02*
X142938312Y-25412819D01*
X143224027Y-25412819D02*
X143795455Y-25412819D01*
X143509741Y-26412819D02*
X143509741Y-25412819D01*
X152990779Y-71294666D02*
X153752684Y-71294666D01*
X37317193Y-78948617D02*
X37317193Y-77948617D01*
X37317193Y-77948617D02*
X37555288Y-77948617D01*
X37555288Y-77948617D02*
X37698145Y-77996236D01*
X37698145Y-77996236D02*
X37793383Y-78091474D01*
X37793383Y-78091474D02*
X37841002Y-78186712D01*
X37841002Y-78186712D02*
X37888621Y-78377188D01*
X37888621Y-78377188D02*
X37888621Y-78520045D01*
X37888621Y-78520045D02*
X37841002Y-78710521D01*
X37841002Y-78710521D02*
X37793383Y-78805759D01*
X37793383Y-78805759D02*
X37698145Y-78900998D01*
X37698145Y-78900998D02*
X37555288Y-78948617D01*
X37555288Y-78948617D02*
X37317193Y-78948617D01*
X38317193Y-78948617D02*
X38317193Y-77948617D01*
X38745764Y-78900998D02*
X38888621Y-78948617D01*
X38888621Y-78948617D02*
X39126716Y-78948617D01*
X39126716Y-78948617D02*
X39221954Y-78900998D01*
X39221954Y-78900998D02*
X39269573Y-78853378D01*
X39269573Y-78853378D02*
X39317192Y-78758140D01*
X39317192Y-78758140D02*
X39317192Y-78662902D01*
X39317192Y-78662902D02*
X39269573Y-78567664D01*
X39269573Y-78567664D02*
X39221954Y-78520045D01*
X39221954Y-78520045D02*
X39126716Y-78472426D01*
X39126716Y-78472426D02*
X38936240Y-78424807D01*
X38936240Y-78424807D02*
X38841002Y-78377188D01*
X38841002Y-78377188D02*
X38793383Y-78329569D01*
X38793383Y-78329569D02*
X38745764Y-78234331D01*
X38745764Y-78234331D02*
X38745764Y-78139093D01*
X38745764Y-78139093D02*
X38793383Y-78043855D01*
X38793383Y-78043855D02*
X38841002Y-77996236D01*
X38841002Y-77996236D02*
X38936240Y-77948617D01*
X38936240Y-77948617D02*
X39174335Y-77948617D01*
X39174335Y-77948617D02*
X39317192Y-77996236D01*
X39745764Y-78567664D02*
X40507669Y-78567664D01*
X40126716Y-78948617D02*
X40126716Y-78186712D01*
X77552779Y-73148866D02*
X78314684Y-73148866D01*
X77933731Y-73529819D02*
X77933731Y-72767914D01*
D11*
X35484079Y-65711502D02*
X35960269Y-65711502D01*
X35388841Y-65997217D02*
X35722174Y-64997217D01*
X35722174Y-64997217D02*
X36055507Y-65997217D01*
X36388841Y-64997217D02*
X36388841Y-65806740D01*
X36388841Y-65806740D02*
X36436460Y-65901978D01*
X36436460Y-65901978D02*
X36484079Y-65949598D01*
X36484079Y-65949598D02*
X36579317Y-65997217D01*
X36579317Y-65997217D02*
X36769793Y-65997217D01*
X36769793Y-65997217D02*
X36865031Y-65949598D01*
X36865031Y-65949598D02*
X36912650Y-65901978D01*
X36912650Y-65901978D02*
X36960269Y-65806740D01*
X36960269Y-65806740D02*
X36960269Y-64997217D01*
X37341222Y-64997217D02*
X38007888Y-65997217D01*
X38007888Y-64997217D02*
X37341222Y-65997217D01*
X39484079Y-65473407D02*
X39626936Y-65521026D01*
X39626936Y-65521026D02*
X39674555Y-65568645D01*
X39674555Y-65568645D02*
X39722174Y-65663883D01*
X39722174Y-65663883D02*
X39722174Y-65806740D01*
X39722174Y-65806740D02*
X39674555Y-65901978D01*
X39674555Y-65901978D02*
X39626936Y-65949598D01*
X39626936Y-65949598D02*
X39531698Y-65997217D01*
X39531698Y-65997217D02*
X39150746Y-65997217D01*
X39150746Y-65997217D02*
X39150746Y-64997217D01*
X39150746Y-64997217D02*
X39484079Y-64997217D01*
X39484079Y-64997217D02*
X39579317Y-65044836D01*
X39579317Y-65044836D02*
X39626936Y-65092455D01*
X39626936Y-65092455D02*
X39674555Y-65187693D01*
X39674555Y-65187693D02*
X39674555Y-65282931D01*
X39674555Y-65282931D02*
X39626936Y-65378169D01*
X39626936Y-65378169D02*
X39579317Y-65425788D01*
X39579317Y-65425788D02*
X39484079Y-65473407D01*
X39484079Y-65473407D02*
X39150746Y-65473407D01*
X40150746Y-65616264D02*
X40912651Y-65616264D01*
D10*
X125942912Y-65868609D02*
X126085769Y-65916228D01*
X126085769Y-65916228D02*
X126133388Y-65963847D01*
X126133388Y-65963847D02*
X126181007Y-66059085D01*
X126181007Y-66059085D02*
X126181007Y-66201942D01*
X126181007Y-66201942D02*
X126133388Y-66297180D01*
X126133388Y-66297180D02*
X126085769Y-66344800D01*
X126085769Y-66344800D02*
X125990531Y-66392419D01*
X125990531Y-66392419D02*
X125609579Y-66392419D01*
X125609579Y-66392419D02*
X125609579Y-65392419D01*
X125609579Y-65392419D02*
X125942912Y-65392419D01*
X125942912Y-65392419D02*
X126038150Y-65440038D01*
X126038150Y-65440038D02*
X126085769Y-65487657D01*
X126085769Y-65487657D02*
X126133388Y-65582895D01*
X126133388Y-65582895D02*
X126133388Y-65678133D01*
X126133388Y-65678133D02*
X126085769Y-65773371D01*
X126085769Y-65773371D02*
X126038150Y-65820990D01*
X126038150Y-65820990D02*
X125942912Y-65868609D01*
X125942912Y-65868609D02*
X125609579Y-65868609D01*
X126561960Y-66106704D02*
X127038150Y-66106704D01*
X126466722Y-66392419D02*
X126800055Y-65392419D01*
X126800055Y-65392419D02*
X127133388Y-66392419D01*
X128038150Y-66392419D02*
X127704817Y-65916228D01*
X127466722Y-66392419D02*
X127466722Y-65392419D01*
X127466722Y-65392419D02*
X127847674Y-65392419D01*
X127847674Y-65392419D02*
X127942912Y-65440038D01*
X127942912Y-65440038D02*
X127990531Y-65487657D01*
X127990531Y-65487657D02*
X128038150Y-65582895D01*
X128038150Y-65582895D02*
X128038150Y-65725752D01*
X128038150Y-65725752D02*
X127990531Y-65820990D01*
X127990531Y-65820990D02*
X127942912Y-65868609D01*
X127942912Y-65868609D02*
X127847674Y-65916228D01*
X127847674Y-65916228D02*
X127466722Y-65916228D01*
D11*
X35585679Y-60021902D02*
X36061869Y-60021902D01*
X35490441Y-60307617D02*
X35823774Y-59307617D01*
X35823774Y-59307617D02*
X36157107Y-60307617D01*
X36490441Y-59307617D02*
X36490441Y-60117140D01*
X36490441Y-60117140D02*
X36538060Y-60212378D01*
X36538060Y-60212378D02*
X36585679Y-60259998D01*
X36585679Y-60259998D02*
X36680917Y-60307617D01*
X36680917Y-60307617D02*
X36871393Y-60307617D01*
X36871393Y-60307617D02*
X36966631Y-60259998D01*
X36966631Y-60259998D02*
X37014250Y-60212378D01*
X37014250Y-60212378D02*
X37061869Y-60117140D01*
X37061869Y-60117140D02*
X37061869Y-59307617D01*
X37442822Y-59307617D02*
X38109488Y-60307617D01*
X38109488Y-59307617D02*
X37442822Y-60307617D01*
X39585679Y-59783807D02*
X39728536Y-59831426D01*
X39728536Y-59831426D02*
X39776155Y-59879045D01*
X39776155Y-59879045D02*
X39823774Y-59974283D01*
X39823774Y-59974283D02*
X39823774Y-60117140D01*
X39823774Y-60117140D02*
X39776155Y-60212378D01*
X39776155Y-60212378D02*
X39728536Y-60259998D01*
X39728536Y-60259998D02*
X39633298Y-60307617D01*
X39633298Y-60307617D02*
X39252346Y-60307617D01*
X39252346Y-60307617D02*
X39252346Y-59307617D01*
X39252346Y-59307617D02*
X39585679Y-59307617D01*
X39585679Y-59307617D02*
X39680917Y-59355236D01*
X39680917Y-59355236D02*
X39728536Y-59402855D01*
X39728536Y-59402855D02*
X39776155Y-59498093D01*
X39776155Y-59498093D02*
X39776155Y-59593331D01*
X39776155Y-59593331D02*
X39728536Y-59688569D01*
X39728536Y-59688569D02*
X39680917Y-59736188D01*
X39680917Y-59736188D02*
X39585679Y-59783807D01*
X39585679Y-59783807D02*
X39252346Y-59783807D01*
X40252346Y-59926664D02*
X41014251Y-59926664D01*
X40633298Y-60307617D02*
X40633298Y-59545712D01*
D10*
X87069379Y-73483866D02*
X87831284Y-73483866D01*
X110719779Y-74029466D02*
X111481684Y-74029466D01*
X109556779Y-90014419D02*
X109556779Y-89014419D01*
X110032969Y-90014419D02*
X110032969Y-89014419D01*
X110032969Y-89014419D02*
X110604397Y-90014419D01*
X110604397Y-90014419D02*
X110604397Y-89014419D01*
X111080588Y-89490609D02*
X111413921Y-89490609D01*
X111556778Y-90014419D02*
X111080588Y-90014419D01*
X111080588Y-90014419D02*
X111080588Y-89014419D01*
X111080588Y-89014419D02*
X111556778Y-89014419D01*
X112556778Y-90014419D02*
X112223445Y-89538228D01*
X111985350Y-90014419D02*
X111985350Y-89014419D01*
X111985350Y-89014419D02*
X112366302Y-89014419D01*
X112366302Y-89014419D02*
X112461540Y-89062038D01*
X112461540Y-89062038D02*
X112509159Y-89109657D01*
X112509159Y-89109657D02*
X112556778Y-89204895D01*
X112556778Y-89204895D02*
X112556778Y-89347752D01*
X112556778Y-89347752D02*
X112509159Y-89442990D01*
X112509159Y-89442990D02*
X112461540Y-89490609D01*
X112461540Y-89490609D02*
X112366302Y-89538228D01*
X112366302Y-89538228D02*
X111985350Y-89538228D01*
X112842493Y-89014419D02*
X113413921Y-89014419D01*
X113128207Y-90014419D02*
X113128207Y-89014419D01*
X113747255Y-90014419D02*
X113747255Y-89014419D01*
X114175826Y-89728704D02*
X114652016Y-89728704D01*
X114080588Y-90014419D02*
X114413921Y-89014419D01*
X114413921Y-89014419D02*
X114747254Y-90014419D01*
X115794874Y-89966800D02*
X115937731Y-90014419D01*
X115937731Y-90014419D02*
X116175826Y-90014419D01*
X116175826Y-90014419D02*
X116271064Y-89966800D01*
X116271064Y-89966800D02*
X116318683Y-89919180D01*
X116318683Y-89919180D02*
X116366302Y-89823942D01*
X116366302Y-89823942D02*
X116366302Y-89728704D01*
X116366302Y-89728704D02*
X116318683Y-89633466D01*
X116318683Y-89633466D02*
X116271064Y-89585847D01*
X116271064Y-89585847D02*
X116175826Y-89538228D01*
X116175826Y-89538228D02*
X115985350Y-89490609D01*
X115985350Y-89490609D02*
X115890112Y-89442990D01*
X115890112Y-89442990D02*
X115842493Y-89395371D01*
X115842493Y-89395371D02*
X115794874Y-89300133D01*
X115794874Y-89300133D02*
X115794874Y-89204895D01*
X115794874Y-89204895D02*
X115842493Y-89109657D01*
X115842493Y-89109657D02*
X115890112Y-89062038D01*
X115890112Y-89062038D02*
X115985350Y-89014419D01*
X115985350Y-89014419D02*
X116223445Y-89014419D01*
X116223445Y-89014419D02*
X116366302Y-89062038D01*
X90776588Y-24825438D02*
X90681350Y-24777819D01*
X90681350Y-24777819D02*
X90538493Y-24777819D01*
X90538493Y-24777819D02*
X90395636Y-24825438D01*
X90395636Y-24825438D02*
X90300398Y-24920676D01*
X90300398Y-24920676D02*
X90252779Y-25015914D01*
X90252779Y-25015914D02*
X90205160Y-25206390D01*
X90205160Y-25206390D02*
X90205160Y-25349247D01*
X90205160Y-25349247D02*
X90252779Y-25539723D01*
X90252779Y-25539723D02*
X90300398Y-25634961D01*
X90300398Y-25634961D02*
X90395636Y-25730200D01*
X90395636Y-25730200D02*
X90538493Y-25777819D01*
X90538493Y-25777819D02*
X90633731Y-25777819D01*
X90633731Y-25777819D02*
X90776588Y-25730200D01*
X90776588Y-25730200D02*
X90824207Y-25682580D01*
X90824207Y-25682580D02*
X90824207Y-25349247D01*
X90824207Y-25349247D02*
X90633731Y-25349247D01*
X91728969Y-25777819D02*
X91252779Y-25777819D01*
X91252779Y-25777819D02*
X91252779Y-24777819D01*
X91919446Y-24777819D02*
X92252779Y-25777819D01*
X92252779Y-25777819D02*
X92586112Y-24777819D01*
X93633732Y-25730200D02*
X93776589Y-25777819D01*
X93776589Y-25777819D02*
X94014684Y-25777819D01*
X94014684Y-25777819D02*
X94109922Y-25730200D01*
X94109922Y-25730200D02*
X94157541Y-25682580D01*
X94157541Y-25682580D02*
X94205160Y-25587342D01*
X94205160Y-25587342D02*
X94205160Y-25492104D01*
X94205160Y-25492104D02*
X94157541Y-25396866D01*
X94157541Y-25396866D02*
X94109922Y-25349247D01*
X94109922Y-25349247D02*
X94014684Y-25301628D01*
X94014684Y-25301628D02*
X93824208Y-25254009D01*
X93824208Y-25254009D02*
X93728970Y-25206390D01*
X93728970Y-25206390D02*
X93681351Y-25158771D01*
X93681351Y-25158771D02*
X93633732Y-25063533D01*
X93633732Y-25063533D02*
X93633732Y-24968295D01*
X93633732Y-24968295D02*
X93681351Y-24873057D01*
X93681351Y-24873057D02*
X93728970Y-24825438D01*
X93728970Y-24825438D02*
X93824208Y-24777819D01*
X93824208Y-24777819D02*
X94062303Y-24777819D01*
X94062303Y-24777819D02*
X94205160Y-24825438D01*
X94633732Y-25396866D02*
X95395637Y-25396866D01*
X128914712Y-65843209D02*
X129057569Y-65890828D01*
X129057569Y-65890828D02*
X129105188Y-65938447D01*
X129105188Y-65938447D02*
X129152807Y-66033685D01*
X129152807Y-66033685D02*
X129152807Y-66176542D01*
X129152807Y-66176542D02*
X129105188Y-66271780D01*
X129105188Y-66271780D02*
X129057569Y-66319400D01*
X129057569Y-66319400D02*
X128962331Y-66367019D01*
X128962331Y-66367019D02*
X128581379Y-66367019D01*
X128581379Y-66367019D02*
X128581379Y-65367019D01*
X128581379Y-65367019D02*
X128914712Y-65367019D01*
X128914712Y-65367019D02*
X129009950Y-65414638D01*
X129009950Y-65414638D02*
X129057569Y-65462257D01*
X129057569Y-65462257D02*
X129105188Y-65557495D01*
X129105188Y-65557495D02*
X129105188Y-65652733D01*
X129105188Y-65652733D02*
X129057569Y-65747971D01*
X129057569Y-65747971D02*
X129009950Y-65795590D01*
X129009950Y-65795590D02*
X128914712Y-65843209D01*
X128914712Y-65843209D02*
X128581379Y-65843209D01*
X129581379Y-66367019D02*
X129581379Y-65367019D01*
X129581379Y-65367019D02*
X129914712Y-66081304D01*
X129914712Y-66081304D02*
X130248045Y-65367019D01*
X130248045Y-65367019D02*
X130248045Y-66367019D01*
X130676617Y-66319400D02*
X130819474Y-66367019D01*
X130819474Y-66367019D02*
X131057569Y-66367019D01*
X131057569Y-66367019D02*
X131152807Y-66319400D01*
X131152807Y-66319400D02*
X131200426Y-66271780D01*
X131200426Y-66271780D02*
X131248045Y-66176542D01*
X131248045Y-66176542D02*
X131248045Y-66081304D01*
X131248045Y-66081304D02*
X131200426Y-65986066D01*
X131200426Y-65986066D02*
X131152807Y-65938447D01*
X131152807Y-65938447D02*
X131057569Y-65890828D01*
X131057569Y-65890828D02*
X130867093Y-65843209D01*
X130867093Y-65843209D02*
X130771855Y-65795590D01*
X130771855Y-65795590D02*
X130724236Y-65747971D01*
X130724236Y-65747971D02*
X130676617Y-65652733D01*
X130676617Y-65652733D02*
X130676617Y-65557495D01*
X130676617Y-65557495D02*
X130724236Y-65462257D01*
X130724236Y-65462257D02*
X130771855Y-65414638D01*
X130771855Y-65414638D02*
X130867093Y-65367019D01*
X130867093Y-65367019D02*
X131105188Y-65367019D01*
X131105188Y-65367019D02*
X131248045Y-65414638D01*
X132152807Y-65367019D02*
X131676617Y-65367019D01*
X131676617Y-65367019D02*
X131628998Y-65843209D01*
X131628998Y-65843209D02*
X131676617Y-65795590D01*
X131676617Y-65795590D02*
X131771855Y-65747971D01*
X131771855Y-65747971D02*
X132009950Y-65747971D01*
X132009950Y-65747971D02*
X132105188Y-65795590D01*
X132105188Y-65795590D02*
X132152807Y-65843209D01*
X132152807Y-65843209D02*
X132200426Y-65938447D01*
X132200426Y-65938447D02*
X132200426Y-66176542D01*
X132200426Y-66176542D02*
X132152807Y-66271780D01*
X132152807Y-66271780D02*
X132105188Y-66319400D01*
X132105188Y-66319400D02*
X132009950Y-66367019D01*
X132009950Y-66367019D02*
X131771855Y-66367019D01*
X131771855Y-66367019D02*
X131676617Y-66319400D01*
X131676617Y-66319400D02*
X131628998Y-66271780D01*
%TO.C,C2*%
X171359533Y-58357180D02*
X171311914Y-58404800D01*
X171311914Y-58404800D02*
X171169057Y-58452419D01*
X171169057Y-58452419D02*
X171073819Y-58452419D01*
X171073819Y-58452419D02*
X170930962Y-58404800D01*
X170930962Y-58404800D02*
X170835724Y-58309561D01*
X170835724Y-58309561D02*
X170788105Y-58214323D01*
X170788105Y-58214323D02*
X170740486Y-58023847D01*
X170740486Y-58023847D02*
X170740486Y-57880990D01*
X170740486Y-57880990D02*
X170788105Y-57690514D01*
X170788105Y-57690514D02*
X170835724Y-57595276D01*
X170835724Y-57595276D02*
X170930962Y-57500038D01*
X170930962Y-57500038D02*
X171073819Y-57452419D01*
X171073819Y-57452419D02*
X171169057Y-57452419D01*
X171169057Y-57452419D02*
X171311914Y-57500038D01*
X171311914Y-57500038D02*
X171359533Y-57547657D01*
X171740486Y-57547657D02*
X171788105Y-57500038D01*
X171788105Y-57500038D02*
X171883343Y-57452419D01*
X171883343Y-57452419D02*
X172121438Y-57452419D01*
X172121438Y-57452419D02*
X172216676Y-57500038D01*
X172216676Y-57500038D02*
X172264295Y-57547657D01*
X172264295Y-57547657D02*
X172311914Y-57642895D01*
X172311914Y-57642895D02*
X172311914Y-57738133D01*
X172311914Y-57738133D02*
X172264295Y-57880990D01*
X172264295Y-57880990D02*
X171692867Y-58452419D01*
X171692867Y-58452419D02*
X172311914Y-58452419D01*
%TO.C,Q7*%
X79693657Y-62020438D02*
X79646038Y-62115676D01*
X79646038Y-62115676D02*
X79550800Y-62210914D01*
X79550800Y-62210914D02*
X79407942Y-62353771D01*
X79407942Y-62353771D02*
X79360323Y-62449009D01*
X79360323Y-62449009D02*
X79360323Y-62544247D01*
X79598419Y-62496628D02*
X79550800Y-62591866D01*
X79550800Y-62591866D02*
X79455561Y-62687104D01*
X79455561Y-62687104D02*
X79265085Y-62734723D01*
X79265085Y-62734723D02*
X78931752Y-62734723D01*
X78931752Y-62734723D02*
X78741276Y-62687104D01*
X78741276Y-62687104D02*
X78646038Y-62591866D01*
X78646038Y-62591866D02*
X78598419Y-62496628D01*
X78598419Y-62496628D02*
X78598419Y-62306152D01*
X78598419Y-62306152D02*
X78646038Y-62210914D01*
X78646038Y-62210914D02*
X78741276Y-62115676D01*
X78741276Y-62115676D02*
X78931752Y-62068057D01*
X78931752Y-62068057D02*
X79265085Y-62068057D01*
X79265085Y-62068057D02*
X79455561Y-62115676D01*
X79455561Y-62115676D02*
X79550800Y-62210914D01*
X79550800Y-62210914D02*
X79598419Y-62306152D01*
X79598419Y-62306152D02*
X79598419Y-62496628D01*
X78598419Y-61734723D02*
X78598419Y-61068057D01*
X78598419Y-61068057D02*
X79598419Y-61496628D01*
%TO.C,Q5*%
X133026161Y-70427857D02*
X132930923Y-70380238D01*
X132930923Y-70380238D02*
X132835685Y-70285000D01*
X132835685Y-70285000D02*
X132692828Y-70142142D01*
X132692828Y-70142142D02*
X132597590Y-70094523D01*
X132597590Y-70094523D02*
X132502352Y-70094523D01*
X132549971Y-70332619D02*
X132454733Y-70285000D01*
X132454733Y-70285000D02*
X132359495Y-70189761D01*
X132359495Y-70189761D02*
X132311876Y-69999285D01*
X132311876Y-69999285D02*
X132311876Y-69665952D01*
X132311876Y-69665952D02*
X132359495Y-69475476D01*
X132359495Y-69475476D02*
X132454733Y-69380238D01*
X132454733Y-69380238D02*
X132549971Y-69332619D01*
X132549971Y-69332619D02*
X132740447Y-69332619D01*
X132740447Y-69332619D02*
X132835685Y-69380238D01*
X132835685Y-69380238D02*
X132930923Y-69475476D01*
X132930923Y-69475476D02*
X132978542Y-69665952D01*
X132978542Y-69665952D02*
X132978542Y-69999285D01*
X132978542Y-69999285D02*
X132930923Y-70189761D01*
X132930923Y-70189761D02*
X132835685Y-70285000D01*
X132835685Y-70285000D02*
X132740447Y-70332619D01*
X132740447Y-70332619D02*
X132549971Y-70332619D01*
X133883304Y-69332619D02*
X133407114Y-69332619D01*
X133407114Y-69332619D02*
X133359495Y-69808809D01*
X133359495Y-69808809D02*
X133407114Y-69761190D01*
X133407114Y-69761190D02*
X133502352Y-69713571D01*
X133502352Y-69713571D02*
X133740447Y-69713571D01*
X133740447Y-69713571D02*
X133835685Y-69761190D01*
X133835685Y-69761190D02*
X133883304Y-69808809D01*
X133883304Y-69808809D02*
X133930923Y-69904047D01*
X133930923Y-69904047D02*
X133930923Y-70142142D01*
X133930923Y-70142142D02*
X133883304Y-70237380D01*
X133883304Y-70237380D02*
X133835685Y-70285000D01*
X133835685Y-70285000D02*
X133740447Y-70332619D01*
X133740447Y-70332619D02*
X133502352Y-70332619D01*
X133502352Y-70332619D02*
X133407114Y-70285000D01*
X133407114Y-70285000D02*
X133359495Y-70237380D01*
%TO.C,Q3*%
X105454457Y-60140838D02*
X105406838Y-60236076D01*
X105406838Y-60236076D02*
X105311600Y-60331314D01*
X105311600Y-60331314D02*
X105168742Y-60474171D01*
X105168742Y-60474171D02*
X105121123Y-60569409D01*
X105121123Y-60569409D02*
X105121123Y-60664647D01*
X105359219Y-60617028D02*
X105311600Y-60712266D01*
X105311600Y-60712266D02*
X105216361Y-60807504D01*
X105216361Y-60807504D02*
X105025885Y-60855123D01*
X105025885Y-60855123D02*
X104692552Y-60855123D01*
X104692552Y-60855123D02*
X104502076Y-60807504D01*
X104502076Y-60807504D02*
X104406838Y-60712266D01*
X104406838Y-60712266D02*
X104359219Y-60617028D01*
X104359219Y-60617028D02*
X104359219Y-60426552D01*
X104359219Y-60426552D02*
X104406838Y-60331314D01*
X104406838Y-60331314D02*
X104502076Y-60236076D01*
X104502076Y-60236076D02*
X104692552Y-60188457D01*
X104692552Y-60188457D02*
X105025885Y-60188457D01*
X105025885Y-60188457D02*
X105216361Y-60236076D01*
X105216361Y-60236076D02*
X105311600Y-60331314D01*
X105311600Y-60331314D02*
X105359219Y-60426552D01*
X105359219Y-60426552D02*
X105359219Y-60617028D01*
X104359219Y-59855123D02*
X104359219Y-59236076D01*
X104359219Y-59236076D02*
X104740171Y-59569409D01*
X104740171Y-59569409D02*
X104740171Y-59426552D01*
X104740171Y-59426552D02*
X104787790Y-59331314D01*
X104787790Y-59331314D02*
X104835409Y-59283695D01*
X104835409Y-59283695D02*
X104930647Y-59236076D01*
X104930647Y-59236076D02*
X105168742Y-59236076D01*
X105168742Y-59236076D02*
X105263980Y-59283695D01*
X105263980Y-59283695D02*
X105311600Y-59331314D01*
X105311600Y-59331314D02*
X105359219Y-59426552D01*
X105359219Y-59426552D02*
X105359219Y-59712266D01*
X105359219Y-59712266D02*
X105311600Y-59807504D01*
X105311600Y-59807504D02*
X105263980Y-59855123D01*
%TO.C,C1*%
X163180733Y-58331780D02*
X163133114Y-58379400D01*
X163133114Y-58379400D02*
X162990257Y-58427019D01*
X162990257Y-58427019D02*
X162895019Y-58427019D01*
X162895019Y-58427019D02*
X162752162Y-58379400D01*
X162752162Y-58379400D02*
X162656924Y-58284161D01*
X162656924Y-58284161D02*
X162609305Y-58188923D01*
X162609305Y-58188923D02*
X162561686Y-57998447D01*
X162561686Y-57998447D02*
X162561686Y-57855590D01*
X162561686Y-57855590D02*
X162609305Y-57665114D01*
X162609305Y-57665114D02*
X162656924Y-57569876D01*
X162656924Y-57569876D02*
X162752162Y-57474638D01*
X162752162Y-57474638D02*
X162895019Y-57427019D01*
X162895019Y-57427019D02*
X162990257Y-57427019D01*
X162990257Y-57427019D02*
X163133114Y-57474638D01*
X163133114Y-57474638D02*
X163180733Y-57522257D01*
X164133114Y-58427019D02*
X163561686Y-58427019D01*
X163847400Y-58427019D02*
X163847400Y-57427019D01*
X163847400Y-57427019D02*
X163752162Y-57569876D01*
X163752162Y-57569876D02*
X163656924Y-57665114D01*
X163656924Y-57665114D02*
X163561686Y-57712733D01*
%TO.C,R3*%
X60975219Y-53303466D02*
X60499028Y-53636799D01*
X60975219Y-53874894D02*
X59975219Y-53874894D01*
X59975219Y-53874894D02*
X59975219Y-53493942D01*
X59975219Y-53493942D02*
X60022838Y-53398704D01*
X60022838Y-53398704D02*
X60070457Y-53351085D01*
X60070457Y-53351085D02*
X60165695Y-53303466D01*
X60165695Y-53303466D02*
X60308552Y-53303466D01*
X60308552Y-53303466D02*
X60403790Y-53351085D01*
X60403790Y-53351085D02*
X60451409Y-53398704D01*
X60451409Y-53398704D02*
X60499028Y-53493942D01*
X60499028Y-53493942D02*
X60499028Y-53874894D01*
X59975219Y-52970132D02*
X59975219Y-52351085D01*
X59975219Y-52351085D02*
X60356171Y-52684418D01*
X60356171Y-52684418D02*
X60356171Y-52541561D01*
X60356171Y-52541561D02*
X60403790Y-52446323D01*
X60403790Y-52446323D02*
X60451409Y-52398704D01*
X60451409Y-52398704D02*
X60546647Y-52351085D01*
X60546647Y-52351085D02*
X60784742Y-52351085D01*
X60784742Y-52351085D02*
X60879980Y-52398704D01*
X60879980Y-52398704D02*
X60927600Y-52446323D01*
X60927600Y-52446323D02*
X60975219Y-52541561D01*
X60975219Y-52541561D02*
X60975219Y-52827275D01*
X60975219Y-52827275D02*
X60927600Y-52922513D01*
X60927600Y-52922513D02*
X60879980Y-52970132D01*
%TO.C,J4*%
X112717066Y-76608619D02*
X112717066Y-77322904D01*
X112717066Y-77322904D02*
X112669447Y-77465761D01*
X112669447Y-77465761D02*
X112574209Y-77561000D01*
X112574209Y-77561000D02*
X112431352Y-77608619D01*
X112431352Y-77608619D02*
X112336114Y-77608619D01*
X113621828Y-76941952D02*
X113621828Y-77608619D01*
X113383733Y-76561000D02*
X113145638Y-77275285D01*
X113145638Y-77275285D02*
X113764685Y-77275285D01*
%TO.C,J15*%
X59794876Y-77294219D02*
X59794876Y-78008504D01*
X59794876Y-78008504D02*
X59747257Y-78151361D01*
X59747257Y-78151361D02*
X59652019Y-78246600D01*
X59652019Y-78246600D02*
X59509162Y-78294219D01*
X59509162Y-78294219D02*
X59413924Y-78294219D01*
X60794876Y-78294219D02*
X60223448Y-78294219D01*
X60509162Y-78294219D02*
X60509162Y-77294219D01*
X60509162Y-77294219D02*
X60413924Y-77437076D01*
X60413924Y-77437076D02*
X60318686Y-77532314D01*
X60318686Y-77532314D02*
X60223448Y-77579933D01*
X61699638Y-77294219D02*
X61223448Y-77294219D01*
X61223448Y-77294219D02*
X61175829Y-77770409D01*
X61175829Y-77770409D02*
X61223448Y-77722790D01*
X61223448Y-77722790D02*
X61318686Y-77675171D01*
X61318686Y-77675171D02*
X61556781Y-77675171D01*
X61556781Y-77675171D02*
X61652019Y-77722790D01*
X61652019Y-77722790D02*
X61699638Y-77770409D01*
X61699638Y-77770409D02*
X61747257Y-77865647D01*
X61747257Y-77865647D02*
X61747257Y-78103742D01*
X61747257Y-78103742D02*
X61699638Y-78198980D01*
X61699638Y-78198980D02*
X61652019Y-78246600D01*
X61652019Y-78246600D02*
X61556781Y-78294219D01*
X61556781Y-78294219D02*
X61318686Y-78294219D01*
X61318686Y-78294219D02*
X61223448Y-78246600D01*
X61223448Y-78246600D02*
X61175829Y-78198980D01*
%TO.C,K1*%
X134207719Y-40015594D02*
X133207719Y-40015594D01*
X134207719Y-39444166D02*
X133636290Y-39872737D01*
X133207719Y-39444166D02*
X133779147Y-40015594D01*
X134207719Y-38491785D02*
X134207719Y-39063213D01*
X134207719Y-38777499D02*
X133207719Y-38777499D01*
X133207719Y-38777499D02*
X133350576Y-38872737D01*
X133350576Y-38872737D02*
X133445814Y-38967975D01*
X133445814Y-38967975D02*
X133493433Y-39063213D01*
%TO.C,J17*%
X152987476Y-67907819D02*
X152987476Y-68622104D01*
X152987476Y-68622104D02*
X152939857Y-68764961D01*
X152939857Y-68764961D02*
X152844619Y-68860200D01*
X152844619Y-68860200D02*
X152701762Y-68907819D01*
X152701762Y-68907819D02*
X152606524Y-68907819D01*
X153987476Y-68907819D02*
X153416048Y-68907819D01*
X153701762Y-68907819D02*
X153701762Y-67907819D01*
X153701762Y-67907819D02*
X153606524Y-68050676D01*
X153606524Y-68050676D02*
X153511286Y-68145914D01*
X153511286Y-68145914D02*
X153416048Y-68193533D01*
X154320810Y-67907819D02*
X154987476Y-67907819D01*
X154987476Y-67907819D02*
X154558905Y-68907819D01*
%TO.C,R6*%
X114805619Y-62193466D02*
X114329428Y-62526799D01*
X114805619Y-62764894D02*
X113805619Y-62764894D01*
X113805619Y-62764894D02*
X113805619Y-62383942D01*
X113805619Y-62383942D02*
X113853238Y-62288704D01*
X113853238Y-62288704D02*
X113900857Y-62241085D01*
X113900857Y-62241085D02*
X113996095Y-62193466D01*
X113996095Y-62193466D02*
X114138952Y-62193466D01*
X114138952Y-62193466D02*
X114234190Y-62241085D01*
X114234190Y-62241085D02*
X114281809Y-62288704D01*
X114281809Y-62288704D02*
X114329428Y-62383942D01*
X114329428Y-62383942D02*
X114329428Y-62764894D01*
X113805619Y-61336323D02*
X113805619Y-61526799D01*
X113805619Y-61526799D02*
X113853238Y-61622037D01*
X113853238Y-61622037D02*
X113900857Y-61669656D01*
X113900857Y-61669656D02*
X114043714Y-61764894D01*
X114043714Y-61764894D02*
X114234190Y-61812513D01*
X114234190Y-61812513D02*
X114615142Y-61812513D01*
X114615142Y-61812513D02*
X114710380Y-61764894D01*
X114710380Y-61764894D02*
X114758000Y-61717275D01*
X114758000Y-61717275D02*
X114805619Y-61622037D01*
X114805619Y-61622037D02*
X114805619Y-61431561D01*
X114805619Y-61431561D02*
X114758000Y-61336323D01*
X114758000Y-61336323D02*
X114710380Y-61288704D01*
X114710380Y-61288704D02*
X114615142Y-61241085D01*
X114615142Y-61241085D02*
X114377047Y-61241085D01*
X114377047Y-61241085D02*
X114281809Y-61288704D01*
X114281809Y-61288704D02*
X114234190Y-61336323D01*
X114234190Y-61336323D02*
X114186571Y-61431561D01*
X114186571Y-61431561D02*
X114186571Y-61622037D01*
X114186571Y-61622037D02*
X114234190Y-61717275D01*
X114234190Y-61717275D02*
X114281809Y-61764894D01*
X114281809Y-61764894D02*
X114377047Y-61812513D01*
%TO.C,J1*%
X193387466Y-73027219D02*
X193387466Y-73741504D01*
X193387466Y-73741504D02*
X193339847Y-73884361D01*
X193339847Y-73884361D02*
X193244609Y-73979600D01*
X193244609Y-73979600D02*
X193101752Y-74027219D01*
X193101752Y-74027219D02*
X193006514Y-74027219D01*
X194387466Y-74027219D02*
X193816038Y-74027219D01*
X194101752Y-74027219D02*
X194101752Y-73027219D01*
X194101752Y-73027219D02*
X194006514Y-73170076D01*
X194006514Y-73170076D02*
X193911276Y-73265314D01*
X193911276Y-73265314D02*
X193816038Y-73312933D01*
%TO.C,D2*%
X123653605Y-28804519D02*
X123653605Y-27804519D01*
X123653605Y-27804519D02*
X123891700Y-27804519D01*
X123891700Y-27804519D02*
X124034557Y-27852138D01*
X124034557Y-27852138D02*
X124129795Y-27947376D01*
X124129795Y-27947376D02*
X124177414Y-28042614D01*
X124177414Y-28042614D02*
X124225033Y-28233090D01*
X124225033Y-28233090D02*
X124225033Y-28375947D01*
X124225033Y-28375947D02*
X124177414Y-28566423D01*
X124177414Y-28566423D02*
X124129795Y-28661661D01*
X124129795Y-28661661D02*
X124034557Y-28756900D01*
X124034557Y-28756900D02*
X123891700Y-28804519D01*
X123891700Y-28804519D02*
X123653605Y-28804519D01*
X124605986Y-27899757D02*
X124653605Y-27852138D01*
X124653605Y-27852138D02*
X124748843Y-27804519D01*
X124748843Y-27804519D02*
X124986938Y-27804519D01*
X124986938Y-27804519D02*
X125082176Y-27852138D01*
X125082176Y-27852138D02*
X125129795Y-27899757D01*
X125129795Y-27899757D02*
X125177414Y-27994995D01*
X125177414Y-27994995D02*
X125177414Y-28090233D01*
X125177414Y-28090233D02*
X125129795Y-28233090D01*
X125129795Y-28233090D02*
X124558367Y-28804519D01*
X124558367Y-28804519D02*
X125177414Y-28804519D01*
X119049795Y-29174519D02*
X119049795Y-28174519D01*
X119621223Y-29174519D02*
X119192652Y-28603090D01*
X119621223Y-28174519D02*
X119049795Y-28745947D01*
%TO.C,Q2*%
X153760057Y-36722038D02*
X153712438Y-36817276D01*
X153712438Y-36817276D02*
X153617200Y-36912514D01*
X153617200Y-36912514D02*
X153474342Y-37055371D01*
X153474342Y-37055371D02*
X153426723Y-37150609D01*
X153426723Y-37150609D02*
X153426723Y-37245847D01*
X153664819Y-37198228D02*
X153617200Y-37293466D01*
X153617200Y-37293466D02*
X153521961Y-37388704D01*
X153521961Y-37388704D02*
X153331485Y-37436323D01*
X153331485Y-37436323D02*
X152998152Y-37436323D01*
X152998152Y-37436323D02*
X152807676Y-37388704D01*
X152807676Y-37388704D02*
X152712438Y-37293466D01*
X152712438Y-37293466D02*
X152664819Y-37198228D01*
X152664819Y-37198228D02*
X152664819Y-37007752D01*
X152664819Y-37007752D02*
X152712438Y-36912514D01*
X152712438Y-36912514D02*
X152807676Y-36817276D01*
X152807676Y-36817276D02*
X152998152Y-36769657D01*
X152998152Y-36769657D02*
X153331485Y-36769657D01*
X153331485Y-36769657D02*
X153521961Y-36817276D01*
X153521961Y-36817276D02*
X153617200Y-36912514D01*
X153617200Y-36912514D02*
X153664819Y-37007752D01*
X153664819Y-37007752D02*
X153664819Y-37198228D01*
X152760057Y-36388704D02*
X152712438Y-36341085D01*
X152712438Y-36341085D02*
X152664819Y-36245847D01*
X152664819Y-36245847D02*
X152664819Y-36007752D01*
X152664819Y-36007752D02*
X152712438Y-35912514D01*
X152712438Y-35912514D02*
X152760057Y-35864895D01*
X152760057Y-35864895D02*
X152855295Y-35817276D01*
X152855295Y-35817276D02*
X152950533Y-35817276D01*
X152950533Y-35817276D02*
X153093390Y-35864895D01*
X153093390Y-35864895D02*
X153664819Y-36436323D01*
X153664819Y-36436323D02*
X153664819Y-35817276D01*
%TO.C,Q4*%
X56661057Y-37103038D02*
X56613438Y-37198276D01*
X56613438Y-37198276D02*
X56518200Y-37293514D01*
X56518200Y-37293514D02*
X56375342Y-37436371D01*
X56375342Y-37436371D02*
X56327723Y-37531609D01*
X56327723Y-37531609D02*
X56327723Y-37626847D01*
X56565819Y-37579228D02*
X56518200Y-37674466D01*
X56518200Y-37674466D02*
X56422961Y-37769704D01*
X56422961Y-37769704D02*
X56232485Y-37817323D01*
X56232485Y-37817323D02*
X55899152Y-37817323D01*
X55899152Y-37817323D02*
X55708676Y-37769704D01*
X55708676Y-37769704D02*
X55613438Y-37674466D01*
X55613438Y-37674466D02*
X55565819Y-37579228D01*
X55565819Y-37579228D02*
X55565819Y-37388752D01*
X55565819Y-37388752D02*
X55613438Y-37293514D01*
X55613438Y-37293514D02*
X55708676Y-37198276D01*
X55708676Y-37198276D02*
X55899152Y-37150657D01*
X55899152Y-37150657D02*
X56232485Y-37150657D01*
X56232485Y-37150657D02*
X56422961Y-37198276D01*
X56422961Y-37198276D02*
X56518200Y-37293514D01*
X56518200Y-37293514D02*
X56565819Y-37388752D01*
X56565819Y-37388752D02*
X56565819Y-37579228D01*
X55899152Y-36293514D02*
X56565819Y-36293514D01*
X55518200Y-36531609D02*
X56232485Y-36769704D01*
X56232485Y-36769704D02*
X56232485Y-36150657D01*
%TO.C,J7*%
X73326666Y-76670819D02*
X73326666Y-77385104D01*
X73326666Y-77385104D02*
X73279047Y-77527961D01*
X73279047Y-77527961D02*
X73183809Y-77623200D01*
X73183809Y-77623200D02*
X73040952Y-77670819D01*
X73040952Y-77670819D02*
X72945714Y-77670819D01*
X73707619Y-76670819D02*
X74374285Y-76670819D01*
X74374285Y-76670819D02*
X73945714Y-77670819D01*
%TO.C,R11*%
X119446019Y-62796657D02*
X118969828Y-63129990D01*
X119446019Y-63368085D02*
X118446019Y-63368085D01*
X118446019Y-63368085D02*
X118446019Y-62987133D01*
X118446019Y-62987133D02*
X118493638Y-62891895D01*
X118493638Y-62891895D02*
X118541257Y-62844276D01*
X118541257Y-62844276D02*
X118636495Y-62796657D01*
X118636495Y-62796657D02*
X118779352Y-62796657D01*
X118779352Y-62796657D02*
X118874590Y-62844276D01*
X118874590Y-62844276D02*
X118922209Y-62891895D01*
X118922209Y-62891895D02*
X118969828Y-62987133D01*
X118969828Y-62987133D02*
X118969828Y-63368085D01*
X119446019Y-61844276D02*
X119446019Y-62415704D01*
X119446019Y-62129990D02*
X118446019Y-62129990D01*
X118446019Y-62129990D02*
X118588876Y-62225228D01*
X118588876Y-62225228D02*
X118684114Y-62320466D01*
X118684114Y-62320466D02*
X118731733Y-62415704D01*
X119446019Y-60891895D02*
X119446019Y-61463323D01*
X119446019Y-61177609D02*
X118446019Y-61177609D01*
X118446019Y-61177609D02*
X118588876Y-61272847D01*
X118588876Y-61272847D02*
X118684114Y-61368085D01*
X118684114Y-61368085D02*
X118731733Y-61463323D01*
%TO.C,J16*%
X108786076Y-65715019D02*
X108786076Y-66429304D01*
X108786076Y-66429304D02*
X108738457Y-66572161D01*
X108738457Y-66572161D02*
X108643219Y-66667400D01*
X108643219Y-66667400D02*
X108500362Y-66715019D01*
X108500362Y-66715019D02*
X108405124Y-66715019D01*
X109786076Y-66715019D02*
X109214648Y-66715019D01*
X109500362Y-66715019D02*
X109500362Y-65715019D01*
X109500362Y-65715019D02*
X109405124Y-65857876D01*
X109405124Y-65857876D02*
X109309886Y-65953114D01*
X109309886Y-65953114D02*
X109214648Y-66000733D01*
X110643219Y-65715019D02*
X110452743Y-65715019D01*
X110452743Y-65715019D02*
X110357505Y-65762638D01*
X110357505Y-65762638D02*
X110309886Y-65810257D01*
X110309886Y-65810257D02*
X110214648Y-65953114D01*
X110214648Y-65953114D02*
X110167029Y-66143590D01*
X110167029Y-66143590D02*
X110167029Y-66524542D01*
X110167029Y-66524542D02*
X110214648Y-66619780D01*
X110214648Y-66619780D02*
X110262267Y-66667400D01*
X110262267Y-66667400D02*
X110357505Y-66715019D01*
X110357505Y-66715019D02*
X110547981Y-66715019D01*
X110547981Y-66715019D02*
X110643219Y-66667400D01*
X110643219Y-66667400D02*
X110690838Y-66619780D01*
X110690838Y-66619780D02*
X110738457Y-66524542D01*
X110738457Y-66524542D02*
X110738457Y-66286447D01*
X110738457Y-66286447D02*
X110690838Y-66191209D01*
X110690838Y-66191209D02*
X110643219Y-66143590D01*
X110643219Y-66143590D02*
X110547981Y-66095971D01*
X110547981Y-66095971D02*
X110357505Y-66095971D01*
X110357505Y-66095971D02*
X110262267Y-66143590D01*
X110262267Y-66143590D02*
X110214648Y-66191209D01*
X110214648Y-66191209D02*
X110167029Y-66286447D01*
%TO.C,J11*%
X51929233Y-50373521D02*
X52643518Y-50373521D01*
X52643518Y-50373521D02*
X52786375Y-50421140D01*
X52786375Y-50421140D02*
X52881614Y-50516378D01*
X52881614Y-50516378D02*
X52929233Y-50659235D01*
X52929233Y-50659235D02*
X52929233Y-50754473D01*
X52929233Y-49373521D02*
X52929233Y-49944949D01*
X52929233Y-49659235D02*
X51929233Y-49659235D01*
X51929233Y-49659235D02*
X52072090Y-49754473D01*
X52072090Y-49754473D02*
X52167328Y-49849711D01*
X52167328Y-49849711D02*
X52214947Y-49944949D01*
X52929233Y-48421140D02*
X52929233Y-48992568D01*
X52929233Y-48706854D02*
X51929233Y-48706854D01*
X51929233Y-48706854D02*
X52072090Y-48802092D01*
X52072090Y-48802092D02*
X52167328Y-48897330D01*
X52167328Y-48897330D02*
X52214947Y-48992568D01*
%TO.C,K3*%
X181071919Y-45072994D02*
X180071919Y-45072994D01*
X181071919Y-44501566D02*
X180500490Y-44930137D01*
X180071919Y-44501566D02*
X180643347Y-45072994D01*
X180071919Y-44168232D02*
X180071919Y-43549185D01*
X180071919Y-43549185D02*
X180452871Y-43882518D01*
X180452871Y-43882518D02*
X180452871Y-43739661D01*
X180452871Y-43739661D02*
X180500490Y-43644423D01*
X180500490Y-43644423D02*
X180548109Y-43596804D01*
X180548109Y-43596804D02*
X180643347Y-43549185D01*
X180643347Y-43549185D02*
X180881442Y-43549185D01*
X180881442Y-43549185D02*
X180976680Y-43596804D01*
X180976680Y-43596804D02*
X181024300Y-43644423D01*
X181024300Y-43644423D02*
X181071919Y-43739661D01*
X181071919Y-43739661D02*
X181071919Y-44025375D01*
X181071919Y-44025375D02*
X181024300Y-44120613D01*
X181024300Y-44120613D02*
X180976680Y-44168232D01*
%TO.C,R12*%
X153548419Y-63203057D02*
X153072228Y-63536390D01*
X153548419Y-63774485D02*
X152548419Y-63774485D01*
X152548419Y-63774485D02*
X152548419Y-63393533D01*
X152548419Y-63393533D02*
X152596038Y-63298295D01*
X152596038Y-63298295D02*
X152643657Y-63250676D01*
X152643657Y-63250676D02*
X152738895Y-63203057D01*
X152738895Y-63203057D02*
X152881752Y-63203057D01*
X152881752Y-63203057D02*
X152976990Y-63250676D01*
X152976990Y-63250676D02*
X153024609Y-63298295D01*
X153024609Y-63298295D02*
X153072228Y-63393533D01*
X153072228Y-63393533D02*
X153072228Y-63774485D01*
X153548419Y-62250676D02*
X153548419Y-62822104D01*
X153548419Y-62536390D02*
X152548419Y-62536390D01*
X152548419Y-62536390D02*
X152691276Y-62631628D01*
X152691276Y-62631628D02*
X152786514Y-62726866D01*
X152786514Y-62726866D02*
X152834133Y-62822104D01*
X152643657Y-61869723D02*
X152596038Y-61822104D01*
X152596038Y-61822104D02*
X152548419Y-61726866D01*
X152548419Y-61726866D02*
X152548419Y-61488771D01*
X152548419Y-61488771D02*
X152596038Y-61393533D01*
X152596038Y-61393533D02*
X152643657Y-61345914D01*
X152643657Y-61345914D02*
X152738895Y-61298295D01*
X152738895Y-61298295D02*
X152834133Y-61298295D01*
X152834133Y-61298295D02*
X152976990Y-61345914D01*
X152976990Y-61345914D02*
X153548419Y-61917342D01*
X153548419Y-61917342D02*
X153548419Y-61298295D01*
%TO.C,J5*%
X99432866Y-77040419D02*
X99432866Y-77754704D01*
X99432866Y-77754704D02*
X99385247Y-77897561D01*
X99385247Y-77897561D02*
X99290009Y-77992800D01*
X99290009Y-77992800D02*
X99147152Y-78040419D01*
X99147152Y-78040419D02*
X99051914Y-78040419D01*
X100385247Y-77040419D02*
X99909057Y-77040419D01*
X99909057Y-77040419D02*
X99861438Y-77516609D01*
X99861438Y-77516609D02*
X99909057Y-77468990D01*
X99909057Y-77468990D02*
X100004295Y-77421371D01*
X100004295Y-77421371D02*
X100242390Y-77421371D01*
X100242390Y-77421371D02*
X100337628Y-77468990D01*
X100337628Y-77468990D02*
X100385247Y-77516609D01*
X100385247Y-77516609D02*
X100432866Y-77611847D01*
X100432866Y-77611847D02*
X100432866Y-77849942D01*
X100432866Y-77849942D02*
X100385247Y-77945180D01*
X100385247Y-77945180D02*
X100337628Y-77992800D01*
X100337628Y-77992800D02*
X100242390Y-78040419D01*
X100242390Y-78040419D02*
X100004295Y-78040419D01*
X100004295Y-78040419D02*
X99909057Y-77992800D01*
X99909057Y-77992800D02*
X99861438Y-77945180D01*
%TO.C,Q1*%
X106191057Y-34791638D02*
X106143438Y-34886876D01*
X106143438Y-34886876D02*
X106048200Y-34982114D01*
X106048200Y-34982114D02*
X105905342Y-35124971D01*
X105905342Y-35124971D02*
X105857723Y-35220209D01*
X105857723Y-35220209D02*
X105857723Y-35315447D01*
X106095819Y-35267828D02*
X106048200Y-35363066D01*
X106048200Y-35363066D02*
X105952961Y-35458304D01*
X105952961Y-35458304D02*
X105762485Y-35505923D01*
X105762485Y-35505923D02*
X105429152Y-35505923D01*
X105429152Y-35505923D02*
X105238676Y-35458304D01*
X105238676Y-35458304D02*
X105143438Y-35363066D01*
X105143438Y-35363066D02*
X105095819Y-35267828D01*
X105095819Y-35267828D02*
X105095819Y-35077352D01*
X105095819Y-35077352D02*
X105143438Y-34982114D01*
X105143438Y-34982114D02*
X105238676Y-34886876D01*
X105238676Y-34886876D02*
X105429152Y-34839257D01*
X105429152Y-34839257D02*
X105762485Y-34839257D01*
X105762485Y-34839257D02*
X105952961Y-34886876D01*
X105952961Y-34886876D02*
X106048200Y-34982114D01*
X106048200Y-34982114D02*
X106095819Y-35077352D01*
X106095819Y-35077352D02*
X106095819Y-35267828D01*
X106095819Y-33886876D02*
X106095819Y-34458304D01*
X106095819Y-34172590D02*
X105095819Y-34172590D01*
X105095819Y-34172590D02*
X105238676Y-34267828D01*
X105238676Y-34267828D02*
X105333914Y-34363066D01*
X105333914Y-34363066D02*
X105381533Y-34458304D01*
%TO.C,R8*%
X160254019Y-49493466D02*
X159777828Y-49826799D01*
X160254019Y-50064894D02*
X159254019Y-50064894D01*
X159254019Y-50064894D02*
X159254019Y-49683942D01*
X159254019Y-49683942D02*
X159301638Y-49588704D01*
X159301638Y-49588704D02*
X159349257Y-49541085D01*
X159349257Y-49541085D02*
X159444495Y-49493466D01*
X159444495Y-49493466D02*
X159587352Y-49493466D01*
X159587352Y-49493466D02*
X159682590Y-49541085D01*
X159682590Y-49541085D02*
X159730209Y-49588704D01*
X159730209Y-49588704D02*
X159777828Y-49683942D01*
X159777828Y-49683942D02*
X159777828Y-50064894D01*
X159682590Y-48922037D02*
X159634971Y-49017275D01*
X159634971Y-49017275D02*
X159587352Y-49064894D01*
X159587352Y-49064894D02*
X159492114Y-49112513D01*
X159492114Y-49112513D02*
X159444495Y-49112513D01*
X159444495Y-49112513D02*
X159349257Y-49064894D01*
X159349257Y-49064894D02*
X159301638Y-49017275D01*
X159301638Y-49017275D02*
X159254019Y-48922037D01*
X159254019Y-48922037D02*
X159254019Y-48731561D01*
X159254019Y-48731561D02*
X159301638Y-48636323D01*
X159301638Y-48636323D02*
X159349257Y-48588704D01*
X159349257Y-48588704D02*
X159444495Y-48541085D01*
X159444495Y-48541085D02*
X159492114Y-48541085D01*
X159492114Y-48541085D02*
X159587352Y-48588704D01*
X159587352Y-48588704D02*
X159634971Y-48636323D01*
X159634971Y-48636323D02*
X159682590Y-48731561D01*
X159682590Y-48731561D02*
X159682590Y-48922037D01*
X159682590Y-48922037D02*
X159730209Y-49017275D01*
X159730209Y-49017275D02*
X159777828Y-49064894D01*
X159777828Y-49064894D02*
X159873066Y-49112513D01*
X159873066Y-49112513D02*
X160063542Y-49112513D01*
X160063542Y-49112513D02*
X160158780Y-49064894D01*
X160158780Y-49064894D02*
X160206400Y-49017275D01*
X160206400Y-49017275D02*
X160254019Y-48922037D01*
X160254019Y-48922037D02*
X160254019Y-48731561D01*
X160254019Y-48731561D02*
X160206400Y-48636323D01*
X160206400Y-48636323D02*
X160158780Y-48588704D01*
X160158780Y-48588704D02*
X160063542Y-48541085D01*
X160063542Y-48541085D02*
X159873066Y-48541085D01*
X159873066Y-48541085D02*
X159777828Y-48588704D01*
X159777828Y-48588704D02*
X159730209Y-48636323D01*
X159730209Y-48636323D02*
X159682590Y-48731561D01*
%TO.C,J14*%
X86368676Y-66570019D02*
X86368676Y-67284304D01*
X86368676Y-67284304D02*
X86321057Y-67427161D01*
X86321057Y-67427161D02*
X86225819Y-67522400D01*
X86225819Y-67522400D02*
X86082962Y-67570019D01*
X86082962Y-67570019D02*
X85987724Y-67570019D01*
X87368676Y-67570019D02*
X86797248Y-67570019D01*
X87082962Y-67570019D02*
X87082962Y-66570019D01*
X87082962Y-66570019D02*
X86987724Y-66712876D01*
X86987724Y-66712876D02*
X86892486Y-66808114D01*
X86892486Y-66808114D02*
X86797248Y-66855733D01*
X88225819Y-66903352D02*
X88225819Y-67570019D01*
X87987724Y-66522400D02*
X87749629Y-67236685D01*
X87749629Y-67236685D02*
X88368676Y-67236685D01*
%TO.C,R1*%
X68163419Y-64860466D02*
X67687228Y-65193799D01*
X68163419Y-65431894D02*
X67163419Y-65431894D01*
X67163419Y-65431894D02*
X67163419Y-65050942D01*
X67163419Y-65050942D02*
X67211038Y-64955704D01*
X67211038Y-64955704D02*
X67258657Y-64908085D01*
X67258657Y-64908085D02*
X67353895Y-64860466D01*
X67353895Y-64860466D02*
X67496752Y-64860466D01*
X67496752Y-64860466D02*
X67591990Y-64908085D01*
X67591990Y-64908085D02*
X67639609Y-64955704D01*
X67639609Y-64955704D02*
X67687228Y-65050942D01*
X67687228Y-65050942D02*
X67687228Y-65431894D01*
X68163419Y-63908085D02*
X68163419Y-64479513D01*
X68163419Y-64193799D02*
X67163419Y-64193799D01*
X67163419Y-64193799D02*
X67306276Y-64289037D01*
X67306276Y-64289037D02*
X67401514Y-64384275D01*
X67401514Y-64384275D02*
X67449133Y-64479513D01*
%TO.C,K7*%
X86645419Y-40416494D02*
X85645419Y-40416494D01*
X86645419Y-39845066D02*
X86073990Y-40273637D01*
X85645419Y-39845066D02*
X86216847Y-40416494D01*
X85645419Y-39511732D02*
X85645419Y-38845066D01*
X85645419Y-38845066D02*
X86645419Y-39273637D01*
%TO.C,D3*%
X170211805Y-28829919D02*
X170211805Y-27829919D01*
X170211805Y-27829919D02*
X170449900Y-27829919D01*
X170449900Y-27829919D02*
X170592757Y-27877538D01*
X170592757Y-27877538D02*
X170687995Y-27972776D01*
X170687995Y-27972776D02*
X170735614Y-28068014D01*
X170735614Y-28068014D02*
X170783233Y-28258490D01*
X170783233Y-28258490D02*
X170783233Y-28401347D01*
X170783233Y-28401347D02*
X170735614Y-28591823D01*
X170735614Y-28591823D02*
X170687995Y-28687061D01*
X170687995Y-28687061D02*
X170592757Y-28782300D01*
X170592757Y-28782300D02*
X170449900Y-28829919D01*
X170449900Y-28829919D02*
X170211805Y-28829919D01*
X171116567Y-27829919D02*
X171735614Y-27829919D01*
X171735614Y-27829919D02*
X171402281Y-28210871D01*
X171402281Y-28210871D02*
X171545138Y-28210871D01*
X171545138Y-28210871D02*
X171640376Y-28258490D01*
X171640376Y-28258490D02*
X171687995Y-28306109D01*
X171687995Y-28306109D02*
X171735614Y-28401347D01*
X171735614Y-28401347D02*
X171735614Y-28639442D01*
X171735614Y-28639442D02*
X171687995Y-28734680D01*
X171687995Y-28734680D02*
X171640376Y-28782300D01*
X171640376Y-28782300D02*
X171545138Y-28829919D01*
X171545138Y-28829919D02*
X171259424Y-28829919D01*
X171259424Y-28829919D02*
X171164186Y-28782300D01*
X171164186Y-28782300D02*
X171116567Y-28734680D01*
X165607995Y-29199919D02*
X165607995Y-28199919D01*
X166179423Y-29199919D02*
X165750852Y-28628490D01*
X166179423Y-28199919D02*
X165607995Y-28771347D01*
%TO.C,J3*%
X125269666Y-76506819D02*
X125269666Y-77221104D01*
X125269666Y-77221104D02*
X125222047Y-77363961D01*
X125222047Y-77363961D02*
X125126809Y-77459200D01*
X125126809Y-77459200D02*
X124983952Y-77506819D01*
X124983952Y-77506819D02*
X124888714Y-77506819D01*
X125650619Y-76506819D02*
X126269666Y-76506819D01*
X126269666Y-76506819D02*
X125936333Y-76887771D01*
X125936333Y-76887771D02*
X126079190Y-76887771D01*
X126079190Y-76887771D02*
X126174428Y-76935390D01*
X126174428Y-76935390D02*
X126222047Y-76983009D01*
X126222047Y-76983009D02*
X126269666Y-77078247D01*
X126269666Y-77078247D02*
X126269666Y-77316342D01*
X126269666Y-77316342D02*
X126222047Y-77411580D01*
X126222047Y-77411580D02*
X126174428Y-77459200D01*
X126174428Y-77459200D02*
X126079190Y-77506819D01*
X126079190Y-77506819D02*
X125793476Y-77506819D01*
X125793476Y-77506819D02*
X125698238Y-77459200D01*
X125698238Y-77459200D02*
X125650619Y-77411580D01*
%TO.C,K4*%
X149273619Y-53319894D02*
X148273619Y-53319894D01*
X149273619Y-52748466D02*
X148702190Y-53177037D01*
X148273619Y-52748466D02*
X148845047Y-53319894D01*
X148606952Y-51891323D02*
X149273619Y-51891323D01*
X148226000Y-52129418D02*
X148940285Y-52367513D01*
X148940285Y-52367513D02*
X148940285Y-51748466D01*
%TO.C,J2*%
X138040866Y-76456219D02*
X138040866Y-77170504D01*
X138040866Y-77170504D02*
X137993247Y-77313361D01*
X137993247Y-77313361D02*
X137898009Y-77408600D01*
X137898009Y-77408600D02*
X137755152Y-77456219D01*
X137755152Y-77456219D02*
X137659914Y-77456219D01*
X138469438Y-76551457D02*
X138517057Y-76503838D01*
X138517057Y-76503838D02*
X138612295Y-76456219D01*
X138612295Y-76456219D02*
X138850390Y-76456219D01*
X138850390Y-76456219D02*
X138945628Y-76503838D01*
X138945628Y-76503838D02*
X138993247Y-76551457D01*
X138993247Y-76551457D02*
X139040866Y-76646695D01*
X139040866Y-76646695D02*
X139040866Y-76741933D01*
X139040866Y-76741933D02*
X138993247Y-76884790D01*
X138993247Y-76884790D02*
X138421819Y-77456219D01*
X138421819Y-77456219D02*
X139040866Y-77456219D01*
%TO.C,R7*%
X149367219Y-49468066D02*
X148891028Y-49801399D01*
X149367219Y-50039494D02*
X148367219Y-50039494D01*
X148367219Y-50039494D02*
X148367219Y-49658542D01*
X148367219Y-49658542D02*
X148414838Y-49563304D01*
X148414838Y-49563304D02*
X148462457Y-49515685D01*
X148462457Y-49515685D02*
X148557695Y-49468066D01*
X148557695Y-49468066D02*
X148700552Y-49468066D01*
X148700552Y-49468066D02*
X148795790Y-49515685D01*
X148795790Y-49515685D02*
X148843409Y-49563304D01*
X148843409Y-49563304D02*
X148891028Y-49658542D01*
X148891028Y-49658542D02*
X148891028Y-50039494D01*
X148367219Y-49134732D02*
X148367219Y-48468066D01*
X148367219Y-48468066D02*
X149367219Y-48896637D01*
%TO.C,J10*%
X52208633Y-63429121D02*
X52922918Y-63429121D01*
X52922918Y-63429121D02*
X53065775Y-63476740D01*
X53065775Y-63476740D02*
X53161014Y-63571978D01*
X53161014Y-63571978D02*
X53208633Y-63714835D01*
X53208633Y-63714835D02*
X53208633Y-63810073D01*
X53208633Y-62429121D02*
X53208633Y-63000549D01*
X53208633Y-62714835D02*
X52208633Y-62714835D01*
X52208633Y-62714835D02*
X52351490Y-62810073D01*
X52351490Y-62810073D02*
X52446728Y-62905311D01*
X52446728Y-62905311D02*
X52494347Y-63000549D01*
X52208633Y-61810073D02*
X52208633Y-61714835D01*
X52208633Y-61714835D02*
X52256252Y-61619597D01*
X52256252Y-61619597D02*
X52303871Y-61571978D01*
X52303871Y-61571978D02*
X52399109Y-61524359D01*
X52399109Y-61524359D02*
X52589585Y-61476740D01*
X52589585Y-61476740D02*
X52827680Y-61476740D01*
X52827680Y-61476740D02*
X53018156Y-61524359D01*
X53018156Y-61524359D02*
X53113394Y-61571978D01*
X53113394Y-61571978D02*
X53161014Y-61619597D01*
X53161014Y-61619597D02*
X53208633Y-61714835D01*
X53208633Y-61714835D02*
X53208633Y-61810073D01*
X53208633Y-61810073D02*
X53161014Y-61905311D01*
X53161014Y-61905311D02*
X53113394Y-61952930D01*
X53113394Y-61952930D02*
X53018156Y-62000549D01*
X53018156Y-62000549D02*
X52827680Y-62048168D01*
X52827680Y-62048168D02*
X52589585Y-62048168D01*
X52589585Y-62048168D02*
X52399109Y-62000549D01*
X52399109Y-62000549D02*
X52303871Y-61952930D01*
X52303871Y-61952930D02*
X52256252Y-61905311D01*
X52256252Y-61905311D02*
X52208633Y-61810073D01*
%TO.C,J22*%
X51864633Y-76484721D02*
X52578918Y-76484721D01*
X52578918Y-76484721D02*
X52721775Y-76532340D01*
X52721775Y-76532340D02*
X52817014Y-76627578D01*
X52817014Y-76627578D02*
X52864633Y-76770435D01*
X52864633Y-76770435D02*
X52864633Y-76865673D01*
X51959871Y-76056149D02*
X51912252Y-76008530D01*
X51912252Y-76008530D02*
X51864633Y-75913292D01*
X51864633Y-75913292D02*
X51864633Y-75675197D01*
X51864633Y-75675197D02*
X51912252Y-75579959D01*
X51912252Y-75579959D02*
X51959871Y-75532340D01*
X51959871Y-75532340D02*
X52055109Y-75484721D01*
X52055109Y-75484721D02*
X52150347Y-75484721D01*
X52150347Y-75484721D02*
X52293204Y-75532340D01*
X52293204Y-75532340D02*
X52864633Y-76103768D01*
X52864633Y-76103768D02*
X52864633Y-75484721D01*
X51959871Y-75103768D02*
X51912252Y-75056149D01*
X51912252Y-75056149D02*
X51864633Y-74960911D01*
X51864633Y-74960911D02*
X51864633Y-74722816D01*
X51864633Y-74722816D02*
X51912252Y-74627578D01*
X51912252Y-74627578D02*
X51959871Y-74579959D01*
X51959871Y-74579959D02*
X52055109Y-74532340D01*
X52055109Y-74532340D02*
X52150347Y-74532340D01*
X52150347Y-74532340D02*
X52293204Y-74579959D01*
X52293204Y-74579959D02*
X52864633Y-75151387D01*
X52864633Y-75151387D02*
X52864633Y-74532340D01*
%TO.C,U2*%
X166116095Y-62926619D02*
X166116095Y-63736142D01*
X166116095Y-63736142D02*
X166163714Y-63831380D01*
X166163714Y-63831380D02*
X166211333Y-63879000D01*
X166211333Y-63879000D02*
X166306571Y-63926619D01*
X166306571Y-63926619D02*
X166497047Y-63926619D01*
X166497047Y-63926619D02*
X166592285Y-63879000D01*
X166592285Y-63879000D02*
X166639904Y-63831380D01*
X166639904Y-63831380D02*
X166687523Y-63736142D01*
X166687523Y-63736142D02*
X166687523Y-62926619D01*
X167116095Y-63021857D02*
X167163714Y-62974238D01*
X167163714Y-62974238D02*
X167258952Y-62926619D01*
X167258952Y-62926619D02*
X167497047Y-62926619D01*
X167497047Y-62926619D02*
X167592285Y-62974238D01*
X167592285Y-62974238D02*
X167639904Y-63021857D01*
X167639904Y-63021857D02*
X167687523Y-63117095D01*
X167687523Y-63117095D02*
X167687523Y-63212333D01*
X167687523Y-63212333D02*
X167639904Y-63355190D01*
X167639904Y-63355190D02*
X167068476Y-63926619D01*
X167068476Y-63926619D02*
X167687523Y-63926619D01*
%TO.C,J13*%
X126581576Y-56239019D02*
X126581576Y-56953304D01*
X126581576Y-56953304D02*
X126533957Y-57096161D01*
X126533957Y-57096161D02*
X126438719Y-57191400D01*
X126438719Y-57191400D02*
X126295862Y-57239019D01*
X126295862Y-57239019D02*
X126200624Y-57239019D01*
X127581576Y-57239019D02*
X127010148Y-57239019D01*
X127295862Y-57239019D02*
X127295862Y-56239019D01*
X127295862Y-56239019D02*
X127200624Y-56381876D01*
X127200624Y-56381876D02*
X127105386Y-56477114D01*
X127105386Y-56477114D02*
X127010148Y-56524733D01*
X127914910Y-56239019D02*
X128533957Y-56239019D01*
X128533957Y-56239019D02*
X128200624Y-56619971D01*
X128200624Y-56619971D02*
X128343481Y-56619971D01*
X128343481Y-56619971D02*
X128438719Y-56667590D01*
X128438719Y-56667590D02*
X128486338Y-56715209D01*
X128486338Y-56715209D02*
X128533957Y-56810447D01*
X128533957Y-56810447D02*
X128533957Y-57048542D01*
X128533957Y-57048542D02*
X128486338Y-57143780D01*
X128486338Y-57143780D02*
X128438719Y-57191400D01*
X128438719Y-57191400D02*
X128343481Y-57239019D01*
X128343481Y-57239019D02*
X128057767Y-57239019D01*
X128057767Y-57239019D02*
X127962529Y-57191400D01*
X127962529Y-57191400D02*
X127914910Y-57143780D01*
%TO.C,U1*%
X150829019Y-84688104D02*
X151638542Y-84688104D01*
X151638542Y-84688104D02*
X151733780Y-84640485D01*
X151733780Y-84640485D02*
X151781400Y-84592866D01*
X151781400Y-84592866D02*
X151829019Y-84497628D01*
X151829019Y-84497628D02*
X151829019Y-84307152D01*
X151829019Y-84307152D02*
X151781400Y-84211914D01*
X151781400Y-84211914D02*
X151733780Y-84164295D01*
X151733780Y-84164295D02*
X151638542Y-84116676D01*
X151638542Y-84116676D02*
X150829019Y-84116676D01*
X151829019Y-83116676D02*
X151829019Y-83688104D01*
X151829019Y-83402390D02*
X150829019Y-83402390D01*
X150829019Y-83402390D02*
X150971876Y-83497628D01*
X150971876Y-83497628D02*
X151067114Y-83592866D01*
X151067114Y-83592866D02*
X151114733Y-83688104D01*
%TO.C,J6*%
X86534666Y-76670819D02*
X86534666Y-77385104D01*
X86534666Y-77385104D02*
X86487047Y-77527961D01*
X86487047Y-77527961D02*
X86391809Y-77623200D01*
X86391809Y-77623200D02*
X86248952Y-77670819D01*
X86248952Y-77670819D02*
X86153714Y-77670819D01*
X87439428Y-76670819D02*
X87248952Y-76670819D01*
X87248952Y-76670819D02*
X87153714Y-76718438D01*
X87153714Y-76718438D02*
X87106095Y-76766057D01*
X87106095Y-76766057D02*
X87010857Y-76908914D01*
X87010857Y-76908914D02*
X86963238Y-77099390D01*
X86963238Y-77099390D02*
X86963238Y-77480342D01*
X86963238Y-77480342D02*
X87010857Y-77575580D01*
X87010857Y-77575580D02*
X87058476Y-77623200D01*
X87058476Y-77623200D02*
X87153714Y-77670819D01*
X87153714Y-77670819D02*
X87344190Y-77670819D01*
X87344190Y-77670819D02*
X87439428Y-77623200D01*
X87439428Y-77623200D02*
X87487047Y-77575580D01*
X87487047Y-77575580D02*
X87534666Y-77480342D01*
X87534666Y-77480342D02*
X87534666Y-77242247D01*
X87534666Y-77242247D02*
X87487047Y-77147009D01*
X87487047Y-77147009D02*
X87439428Y-77099390D01*
X87439428Y-77099390D02*
X87344190Y-77051771D01*
X87344190Y-77051771D02*
X87153714Y-77051771D01*
X87153714Y-77051771D02*
X87058476Y-77099390D01*
X87058476Y-77099390D02*
X87010857Y-77147009D01*
X87010857Y-77147009D02*
X86963238Y-77242247D01*
%TO.C,R4*%
X103215419Y-47613866D02*
X102739228Y-47947199D01*
X103215419Y-48185294D02*
X102215419Y-48185294D01*
X102215419Y-48185294D02*
X102215419Y-47804342D01*
X102215419Y-47804342D02*
X102263038Y-47709104D01*
X102263038Y-47709104D02*
X102310657Y-47661485D01*
X102310657Y-47661485D02*
X102405895Y-47613866D01*
X102405895Y-47613866D02*
X102548752Y-47613866D01*
X102548752Y-47613866D02*
X102643990Y-47661485D01*
X102643990Y-47661485D02*
X102691609Y-47709104D01*
X102691609Y-47709104D02*
X102739228Y-47804342D01*
X102739228Y-47804342D02*
X102739228Y-48185294D01*
X102548752Y-46756723D02*
X103215419Y-46756723D01*
X102167800Y-46994818D02*
X102882085Y-47232913D01*
X102882085Y-47232913D02*
X102882085Y-46613866D01*
%TO.C,R5*%
X113975219Y-47791666D02*
X113499028Y-48124999D01*
X113975219Y-48363094D02*
X112975219Y-48363094D01*
X112975219Y-48363094D02*
X112975219Y-47982142D01*
X112975219Y-47982142D02*
X113022838Y-47886904D01*
X113022838Y-47886904D02*
X113070457Y-47839285D01*
X113070457Y-47839285D02*
X113165695Y-47791666D01*
X113165695Y-47791666D02*
X113308552Y-47791666D01*
X113308552Y-47791666D02*
X113403790Y-47839285D01*
X113403790Y-47839285D02*
X113451409Y-47886904D01*
X113451409Y-47886904D02*
X113499028Y-47982142D01*
X113499028Y-47982142D02*
X113499028Y-48363094D01*
X112975219Y-46886904D02*
X112975219Y-47363094D01*
X112975219Y-47363094D02*
X113451409Y-47410713D01*
X113451409Y-47410713D02*
X113403790Y-47363094D01*
X113403790Y-47363094D02*
X113356171Y-47267856D01*
X113356171Y-47267856D02*
X113356171Y-47029761D01*
X113356171Y-47029761D02*
X113403790Y-46934523D01*
X113403790Y-46934523D02*
X113451409Y-46886904D01*
X113451409Y-46886904D02*
X113546647Y-46839285D01*
X113546647Y-46839285D02*
X113784742Y-46839285D01*
X113784742Y-46839285D02*
X113879980Y-46886904D01*
X113879980Y-46886904D02*
X113927600Y-46934523D01*
X113927600Y-46934523D02*
X113975219Y-47029761D01*
X113975219Y-47029761D02*
X113975219Y-47267856D01*
X113975219Y-47267856D02*
X113927600Y-47363094D01*
X113927600Y-47363094D02*
X113879980Y-47410713D01*
%TO.C,J9*%
X140819466Y-37794819D02*
X140819466Y-38509104D01*
X140819466Y-38509104D02*
X140771847Y-38651961D01*
X140771847Y-38651961D02*
X140676609Y-38747200D01*
X140676609Y-38747200D02*
X140533752Y-38794819D01*
X140533752Y-38794819D02*
X140438514Y-38794819D01*
X141343276Y-38794819D02*
X141533752Y-38794819D01*
X141533752Y-38794819D02*
X141628990Y-38747200D01*
X141628990Y-38747200D02*
X141676609Y-38699580D01*
X141676609Y-38699580D02*
X141771847Y-38556723D01*
X141771847Y-38556723D02*
X141819466Y-38366247D01*
X141819466Y-38366247D02*
X141819466Y-37985295D01*
X141819466Y-37985295D02*
X141771847Y-37890057D01*
X141771847Y-37890057D02*
X141724228Y-37842438D01*
X141724228Y-37842438D02*
X141628990Y-37794819D01*
X141628990Y-37794819D02*
X141438514Y-37794819D01*
X141438514Y-37794819D02*
X141343276Y-37842438D01*
X141343276Y-37842438D02*
X141295657Y-37890057D01*
X141295657Y-37890057D02*
X141248038Y-37985295D01*
X141248038Y-37985295D02*
X141248038Y-38223390D01*
X141248038Y-38223390D02*
X141295657Y-38318628D01*
X141295657Y-38318628D02*
X141343276Y-38366247D01*
X141343276Y-38366247D02*
X141438514Y-38413866D01*
X141438514Y-38413866D02*
X141628990Y-38413866D01*
X141628990Y-38413866D02*
X141724228Y-38366247D01*
X141724228Y-38366247D02*
X141771847Y-38318628D01*
X141771847Y-38318628D02*
X141819466Y-38223390D01*
%TO.C,J12*%
X60542176Y-70940619D02*
X60542176Y-71654904D01*
X60542176Y-71654904D02*
X60494557Y-71797761D01*
X60494557Y-71797761D02*
X60399319Y-71893000D01*
X60399319Y-71893000D02*
X60256462Y-71940619D01*
X60256462Y-71940619D02*
X60161224Y-71940619D01*
X61542176Y-71940619D02*
X60970748Y-71940619D01*
X61256462Y-71940619D02*
X61256462Y-70940619D01*
X61256462Y-70940619D02*
X61161224Y-71083476D01*
X61161224Y-71083476D02*
X61065986Y-71178714D01*
X61065986Y-71178714D02*
X60970748Y-71226333D01*
X61923129Y-71035857D02*
X61970748Y-70988238D01*
X61970748Y-70988238D02*
X62065986Y-70940619D01*
X62065986Y-70940619D02*
X62304081Y-70940619D01*
X62304081Y-70940619D02*
X62399319Y-70988238D01*
X62399319Y-70988238D02*
X62446938Y-71035857D01*
X62446938Y-71035857D02*
X62494557Y-71131095D01*
X62494557Y-71131095D02*
X62494557Y-71226333D01*
X62494557Y-71226333D02*
X62446938Y-71369190D01*
X62446938Y-71369190D02*
X61875510Y-71940619D01*
X61875510Y-71940619D02*
X62494557Y-71940619D01*
%TO.C,J19*%
X179725195Y-77267639D02*
X179725195Y-77942555D01*
X179725195Y-77942555D02*
X179680200Y-78077538D01*
X179680200Y-78077538D02*
X179590212Y-78167527D01*
X179590212Y-78167527D02*
X179455228Y-78212521D01*
X179455228Y-78212521D02*
X179365240Y-78212521D01*
X180670077Y-78212521D02*
X180130144Y-78212521D01*
X180400110Y-78212521D02*
X180400110Y-77267639D01*
X180400110Y-77267639D02*
X180310122Y-77402622D01*
X180310122Y-77402622D02*
X180220133Y-77492611D01*
X180220133Y-77492611D02*
X180130144Y-77537605D01*
X181120021Y-78212521D02*
X181299998Y-78212521D01*
X181299998Y-78212521D02*
X181389987Y-78167527D01*
X181389987Y-78167527D02*
X181434981Y-78122532D01*
X181434981Y-78122532D02*
X181524970Y-77987549D01*
X181524970Y-77987549D02*
X181569965Y-77807571D01*
X181569965Y-77807571D02*
X181569965Y-77447616D01*
X181569965Y-77447616D02*
X181524970Y-77357628D01*
X181524970Y-77357628D02*
X181479976Y-77312633D01*
X181479976Y-77312633D02*
X181389987Y-77267639D01*
X181389987Y-77267639D02*
X181210010Y-77267639D01*
X181210010Y-77267639D02*
X181120021Y-77312633D01*
X181120021Y-77312633D02*
X181075026Y-77357628D01*
X181075026Y-77357628D02*
X181030032Y-77447616D01*
X181030032Y-77447616D02*
X181030032Y-77672588D01*
X181030032Y-77672588D02*
X181075026Y-77762577D01*
X181075026Y-77762577D02*
X181120021Y-77807571D01*
X181120021Y-77807571D02*
X181210010Y-77852566D01*
X181210010Y-77852566D02*
X181389987Y-77852566D01*
X181389987Y-77852566D02*
X181479976Y-77807571D01*
X181479976Y-77807571D02*
X181524970Y-77762577D01*
X181524970Y-77762577D02*
X181569965Y-77672588D01*
%TO.C,R9*%
X120788133Y-71041419D02*
X120454800Y-70565228D01*
X120216705Y-71041419D02*
X120216705Y-70041419D01*
X120216705Y-70041419D02*
X120597657Y-70041419D01*
X120597657Y-70041419D02*
X120692895Y-70089038D01*
X120692895Y-70089038D02*
X120740514Y-70136657D01*
X120740514Y-70136657D02*
X120788133Y-70231895D01*
X120788133Y-70231895D02*
X120788133Y-70374752D01*
X120788133Y-70374752D02*
X120740514Y-70469990D01*
X120740514Y-70469990D02*
X120692895Y-70517609D01*
X120692895Y-70517609D02*
X120597657Y-70565228D01*
X120597657Y-70565228D02*
X120216705Y-70565228D01*
X121264324Y-71041419D02*
X121454800Y-71041419D01*
X121454800Y-71041419D02*
X121550038Y-70993800D01*
X121550038Y-70993800D02*
X121597657Y-70946180D01*
X121597657Y-70946180D02*
X121692895Y-70803323D01*
X121692895Y-70803323D02*
X121740514Y-70612847D01*
X121740514Y-70612847D02*
X121740514Y-70231895D01*
X121740514Y-70231895D02*
X121692895Y-70136657D01*
X121692895Y-70136657D02*
X121645276Y-70089038D01*
X121645276Y-70089038D02*
X121550038Y-70041419D01*
X121550038Y-70041419D02*
X121359562Y-70041419D01*
X121359562Y-70041419D02*
X121264324Y-70089038D01*
X121264324Y-70089038D02*
X121216705Y-70136657D01*
X121216705Y-70136657D02*
X121169086Y-70231895D01*
X121169086Y-70231895D02*
X121169086Y-70469990D01*
X121169086Y-70469990D02*
X121216705Y-70565228D01*
X121216705Y-70565228D02*
X121264324Y-70612847D01*
X121264324Y-70612847D02*
X121359562Y-70660466D01*
X121359562Y-70660466D02*
X121550038Y-70660466D01*
X121550038Y-70660466D02*
X121645276Y-70612847D01*
X121645276Y-70612847D02*
X121692895Y-70565228D01*
X121692895Y-70565228D02*
X121740514Y-70469990D01*
%TO.C,D1*%
X75868305Y-30293619D02*
X75868305Y-29293619D01*
X75868305Y-29293619D02*
X76106400Y-29293619D01*
X76106400Y-29293619D02*
X76249257Y-29341238D01*
X76249257Y-29341238D02*
X76344495Y-29436476D01*
X76344495Y-29436476D02*
X76392114Y-29531714D01*
X76392114Y-29531714D02*
X76439733Y-29722190D01*
X76439733Y-29722190D02*
X76439733Y-29865047D01*
X76439733Y-29865047D02*
X76392114Y-30055523D01*
X76392114Y-30055523D02*
X76344495Y-30150761D01*
X76344495Y-30150761D02*
X76249257Y-30246000D01*
X76249257Y-30246000D02*
X76106400Y-30293619D01*
X76106400Y-30293619D02*
X75868305Y-30293619D01*
X77392114Y-30293619D02*
X76820686Y-30293619D01*
X77106400Y-30293619D02*
X77106400Y-29293619D01*
X77106400Y-29293619D02*
X77011162Y-29436476D01*
X77011162Y-29436476D02*
X76915924Y-29531714D01*
X76915924Y-29531714D02*
X76820686Y-29579333D01*
X71264495Y-30663619D02*
X71264495Y-29663619D01*
X71835923Y-30663619D02*
X71407352Y-30092190D01*
X71835923Y-29663619D02*
X71264495Y-30235047D01*
%TO.C,K5*%
X199252919Y-54402594D02*
X198252919Y-54402594D01*
X199252919Y-53831166D02*
X198681490Y-54259737D01*
X198252919Y-53831166D02*
X198824347Y-54402594D01*
X198252919Y-52926404D02*
X198252919Y-53402594D01*
X198252919Y-53402594D02*
X198729109Y-53450213D01*
X198729109Y-53450213D02*
X198681490Y-53402594D01*
X198681490Y-53402594D02*
X198633871Y-53307356D01*
X198633871Y-53307356D02*
X198633871Y-53069261D01*
X198633871Y-53069261D02*
X198681490Y-52974023D01*
X198681490Y-52974023D02*
X198729109Y-52926404D01*
X198729109Y-52926404D02*
X198824347Y-52878785D01*
X198824347Y-52878785D02*
X199062442Y-52878785D01*
X199062442Y-52878785D02*
X199157680Y-52926404D01*
X199157680Y-52926404D02*
X199205300Y-52974023D01*
X199205300Y-52974023D02*
X199252919Y-53069261D01*
X199252919Y-53069261D02*
X199252919Y-53307356D01*
X199252919Y-53307356D02*
X199205300Y-53402594D01*
X199205300Y-53402594D02*
X199157680Y-53450213D01*
%TO.C,J18*%
X94420838Y-38221657D02*
X94420838Y-38935942D01*
X94420838Y-38935942D02*
X94373219Y-39078799D01*
X94373219Y-39078799D02*
X94277981Y-39174038D01*
X94277981Y-39174038D02*
X94135124Y-39221657D01*
X94135124Y-39221657D02*
X94039886Y-39221657D01*
X95420838Y-39221657D02*
X94849410Y-39221657D01*
X95135124Y-39221657D02*
X95135124Y-38221657D01*
X95135124Y-38221657D02*
X95039886Y-38364514D01*
X95039886Y-38364514D02*
X94944648Y-38459752D01*
X94944648Y-38459752D02*
X94849410Y-38507371D01*
X95992267Y-38650228D02*
X95897029Y-38602609D01*
X95897029Y-38602609D02*
X95849410Y-38554990D01*
X95849410Y-38554990D02*
X95801791Y-38459752D01*
X95801791Y-38459752D02*
X95801791Y-38412133D01*
X95801791Y-38412133D02*
X95849410Y-38316895D01*
X95849410Y-38316895D02*
X95897029Y-38269276D01*
X95897029Y-38269276D02*
X95992267Y-38221657D01*
X95992267Y-38221657D02*
X96182743Y-38221657D01*
X96182743Y-38221657D02*
X96277981Y-38269276D01*
X96277981Y-38269276D02*
X96325600Y-38316895D01*
X96325600Y-38316895D02*
X96373219Y-38412133D01*
X96373219Y-38412133D02*
X96373219Y-38459752D01*
X96373219Y-38459752D02*
X96325600Y-38554990D01*
X96325600Y-38554990D02*
X96277981Y-38602609D01*
X96277981Y-38602609D02*
X96182743Y-38650228D01*
X96182743Y-38650228D02*
X95992267Y-38650228D01*
X95992267Y-38650228D02*
X95897029Y-38697847D01*
X95897029Y-38697847D02*
X95849410Y-38745466D01*
X95849410Y-38745466D02*
X95801791Y-38840704D01*
X95801791Y-38840704D02*
X95801791Y-39031180D01*
X95801791Y-39031180D02*
X95849410Y-39126418D01*
X95849410Y-39126418D02*
X95897029Y-39174038D01*
X95897029Y-39174038D02*
X95992267Y-39221657D01*
X95992267Y-39221657D02*
X96182743Y-39221657D01*
X96182743Y-39221657D02*
X96277981Y-39174038D01*
X96277981Y-39174038D02*
X96325600Y-39126418D01*
X96325600Y-39126418D02*
X96373219Y-39031180D01*
X96373219Y-39031180D02*
X96373219Y-38840704D01*
X96373219Y-38840704D02*
X96325600Y-38745466D01*
X96325600Y-38745466D02*
X96277981Y-38697847D01*
X96277981Y-38697847D02*
X96182743Y-38650228D01*
%TO.C,R2*%
X54277419Y-52973266D02*
X53801228Y-53306599D01*
X54277419Y-53544694D02*
X53277419Y-53544694D01*
X53277419Y-53544694D02*
X53277419Y-53163742D01*
X53277419Y-53163742D02*
X53325038Y-53068504D01*
X53325038Y-53068504D02*
X53372657Y-53020885D01*
X53372657Y-53020885D02*
X53467895Y-52973266D01*
X53467895Y-52973266D02*
X53610752Y-52973266D01*
X53610752Y-52973266D02*
X53705990Y-53020885D01*
X53705990Y-53020885D02*
X53753609Y-53068504D01*
X53753609Y-53068504D02*
X53801228Y-53163742D01*
X53801228Y-53163742D02*
X53801228Y-53544694D01*
X53372657Y-52592313D02*
X53325038Y-52544694D01*
X53325038Y-52544694D02*
X53277419Y-52449456D01*
X53277419Y-52449456D02*
X53277419Y-52211361D01*
X53277419Y-52211361D02*
X53325038Y-52116123D01*
X53325038Y-52116123D02*
X53372657Y-52068504D01*
X53372657Y-52068504D02*
X53467895Y-52020885D01*
X53467895Y-52020885D02*
X53563133Y-52020885D01*
X53563133Y-52020885D02*
X53705990Y-52068504D01*
X53705990Y-52068504D02*
X54277419Y-52639932D01*
X54277419Y-52639932D02*
X54277419Y-52020885D01*
%TO.C,J8*%
X51788633Y-37456331D02*
X52502918Y-37456331D01*
X52502918Y-37456331D02*
X52645775Y-37503950D01*
X52645775Y-37503950D02*
X52741014Y-37599188D01*
X52741014Y-37599188D02*
X52788633Y-37742045D01*
X52788633Y-37742045D02*
X52788633Y-37837283D01*
X52217204Y-36837283D02*
X52169585Y-36932521D01*
X52169585Y-36932521D02*
X52121966Y-36980140D01*
X52121966Y-36980140D02*
X52026728Y-37027759D01*
X52026728Y-37027759D02*
X51979109Y-37027759D01*
X51979109Y-37027759D02*
X51883871Y-36980140D01*
X51883871Y-36980140D02*
X51836252Y-36932521D01*
X51836252Y-36932521D02*
X51788633Y-36837283D01*
X51788633Y-36837283D02*
X51788633Y-36646807D01*
X51788633Y-36646807D02*
X51836252Y-36551569D01*
X51836252Y-36551569D02*
X51883871Y-36503950D01*
X51883871Y-36503950D02*
X51979109Y-36456331D01*
X51979109Y-36456331D02*
X52026728Y-36456331D01*
X52026728Y-36456331D02*
X52121966Y-36503950D01*
X52121966Y-36503950D02*
X52169585Y-36551569D01*
X52169585Y-36551569D02*
X52217204Y-36646807D01*
X52217204Y-36646807D02*
X52217204Y-36837283D01*
X52217204Y-36837283D02*
X52264823Y-36932521D01*
X52264823Y-36932521D02*
X52312442Y-36980140D01*
X52312442Y-36980140D02*
X52407680Y-37027759D01*
X52407680Y-37027759D02*
X52598156Y-37027759D01*
X52598156Y-37027759D02*
X52693394Y-36980140D01*
X52693394Y-36980140D02*
X52741014Y-36932521D01*
X52741014Y-36932521D02*
X52788633Y-36837283D01*
X52788633Y-36837283D02*
X52788633Y-36646807D01*
X52788633Y-36646807D02*
X52741014Y-36551569D01*
X52741014Y-36551569D02*
X52693394Y-36503950D01*
X52693394Y-36503950D02*
X52598156Y-36456331D01*
X52598156Y-36456331D02*
X52407680Y-36456331D01*
X52407680Y-36456331D02*
X52312442Y-36503950D01*
X52312442Y-36503950D02*
X52264823Y-36551569D01*
X52264823Y-36551569D02*
X52217204Y-36646807D01*
%TO.C,K2*%
X102885319Y-53767594D02*
X101885319Y-53767594D01*
X102885319Y-53196166D02*
X102313890Y-53624737D01*
X101885319Y-53196166D02*
X102456747Y-53767594D01*
X101980557Y-52815213D02*
X101932938Y-52767594D01*
X101932938Y-52767594D02*
X101885319Y-52672356D01*
X101885319Y-52672356D02*
X101885319Y-52434261D01*
X101885319Y-52434261D02*
X101932938Y-52339023D01*
X101932938Y-52339023D02*
X101980557Y-52291404D01*
X101980557Y-52291404D02*
X102075795Y-52243785D01*
X102075795Y-52243785D02*
X102171033Y-52243785D01*
X102171033Y-52243785D02*
X102313890Y-52291404D01*
X102313890Y-52291404D02*
X102885319Y-52862832D01*
X102885319Y-52862832D02*
X102885319Y-52243785D01*
%TO.C,R10*%
X73835419Y-65362057D02*
X73359228Y-65695390D01*
X73835419Y-65933485D02*
X72835419Y-65933485D01*
X72835419Y-65933485D02*
X72835419Y-65552533D01*
X72835419Y-65552533D02*
X72883038Y-65457295D01*
X72883038Y-65457295D02*
X72930657Y-65409676D01*
X72930657Y-65409676D02*
X73025895Y-65362057D01*
X73025895Y-65362057D02*
X73168752Y-65362057D01*
X73168752Y-65362057D02*
X73263990Y-65409676D01*
X73263990Y-65409676D02*
X73311609Y-65457295D01*
X73311609Y-65457295D02*
X73359228Y-65552533D01*
X73359228Y-65552533D02*
X73359228Y-65933485D01*
X73835419Y-64409676D02*
X73835419Y-64981104D01*
X73835419Y-64695390D02*
X72835419Y-64695390D01*
X72835419Y-64695390D02*
X72978276Y-64790628D01*
X72978276Y-64790628D02*
X73073514Y-64885866D01*
X73073514Y-64885866D02*
X73121133Y-64981104D01*
X72835419Y-63790628D02*
X72835419Y-63695390D01*
X72835419Y-63695390D02*
X72883038Y-63600152D01*
X72883038Y-63600152D02*
X72930657Y-63552533D01*
X72930657Y-63552533D02*
X73025895Y-63504914D01*
X73025895Y-63504914D02*
X73216371Y-63457295D01*
X73216371Y-63457295D02*
X73454466Y-63457295D01*
X73454466Y-63457295D02*
X73644942Y-63504914D01*
X73644942Y-63504914D02*
X73740180Y-63552533D01*
X73740180Y-63552533D02*
X73787800Y-63600152D01*
X73787800Y-63600152D02*
X73835419Y-63695390D01*
X73835419Y-63695390D02*
X73835419Y-63790628D01*
X73835419Y-63790628D02*
X73787800Y-63885866D01*
X73787800Y-63885866D02*
X73740180Y-63933485D01*
X73740180Y-63933485D02*
X73644942Y-63981104D01*
X73644942Y-63981104D02*
X73454466Y-64028723D01*
X73454466Y-64028723D02*
X73216371Y-64028723D01*
X73216371Y-64028723D02*
X73025895Y-63981104D01*
X73025895Y-63981104D02*
X72930657Y-63933485D01*
X72930657Y-63933485D02*
X72883038Y-63885866D01*
X72883038Y-63885866D02*
X72835419Y-63790628D01*
D12*
%TO.C,C2*%
X168906200Y-59127600D02*
X168906200Y-59442600D01*
X168906200Y-61552600D02*
X168906200Y-61867600D01*
X174146200Y-59127600D02*
X174146200Y-59442600D01*
X168906200Y-61867600D02*
X174146200Y-61867600D01*
X168906200Y-59127600D02*
X174146200Y-59127600D01*
X174146200Y-61552600D02*
X174146200Y-61867600D01*
%TO.C,Q7*%
X80143600Y-67045200D02*
X80143600Y-56805200D01*
X80143600Y-63775200D02*
X81653600Y-63775200D01*
X80143600Y-60074200D02*
X81653600Y-60074200D01*
X80143600Y-67045200D02*
X84784600Y-67045200D01*
X84784600Y-67045200D02*
X84784600Y-56805200D01*
X80143600Y-56805200D02*
X84784600Y-56805200D01*
X81653600Y-67045200D02*
X81653600Y-56805200D01*
%TO.C,Q5*%
X128001400Y-70877800D02*
X138241400Y-70877800D01*
X131271400Y-70877800D02*
X131271400Y-72387800D01*
X134972400Y-70877800D02*
X134972400Y-72387800D01*
X128001400Y-70877800D02*
X128001400Y-75518800D01*
X128001400Y-75518800D02*
X138241400Y-75518800D01*
X138241400Y-70877800D02*
X138241400Y-75518800D01*
X128001400Y-72387800D02*
X138241400Y-72387800D01*
%TO.C,Q3*%
X105904400Y-65165600D02*
X105904400Y-54925600D01*
X105904400Y-61895600D02*
X107414400Y-61895600D01*
X105904400Y-58194600D02*
X107414400Y-58194600D01*
X105904400Y-65165600D02*
X110545400Y-65165600D01*
X110545400Y-65165600D02*
X110545400Y-54925600D01*
X105904400Y-54925600D02*
X110545400Y-54925600D01*
X107414400Y-65165600D02*
X107414400Y-54925600D01*
%TO.C,C1*%
X160727400Y-59102200D02*
X160727400Y-59417200D01*
X160727400Y-61527200D02*
X160727400Y-61842200D01*
X165967400Y-59102200D02*
X165967400Y-59417200D01*
X160727400Y-61842200D02*
X165967400Y-61842200D01*
X160727400Y-59102200D02*
X165967400Y-59102200D01*
X165967400Y-61527200D02*
X165967400Y-61842200D01*
%TO.C,R3*%
X62890400Y-57176800D02*
X62890400Y-56406800D01*
X61520400Y-56406800D02*
X64260400Y-56406800D01*
X64260400Y-56406800D02*
X64260400Y-49866800D01*
X61520400Y-49866800D02*
X61520400Y-56406800D01*
X64260400Y-49866800D02*
X61520400Y-49866800D01*
X62890400Y-49096800D02*
X62890400Y-49866800D01*
%TO.C,J4*%
X107670400Y-87573800D02*
X107670400Y-88313800D01*
X107670400Y-88313800D02*
X108170400Y-88313800D01*
X107910400Y-78152800D02*
X107910400Y-88073800D01*
X107910400Y-78152800D02*
X118190400Y-78152800D01*
X107910400Y-81112800D02*
X118190400Y-81112800D01*
X107910400Y-86013800D02*
X118190400Y-86013800D01*
X107910400Y-87513800D02*
X118190400Y-87513800D01*
X107910400Y-88073800D02*
X118190400Y-88073800D01*
X114363400Y-84436800D02*
X114316400Y-84482800D01*
X114556400Y-84652800D02*
X114521400Y-84687800D01*
X116660400Y-82138800D02*
X116625400Y-82174800D01*
X116865400Y-82344800D02*
X116818400Y-82390800D01*
X118190400Y-78152800D02*
X118190400Y-88073800D01*
X108975401Y-82729801D02*
G75*
G03*
X108974974Y-84096842I1534992J-684000D01*
G01*
X111194399Y-81878801D02*
G75*
G03*
X109827358Y-81878374I-684000J-1534992D01*
G01*
X109826400Y-84948799D02*
G75*
G03*
X110539205Y-85094052I683999J1535000D01*
G01*
X110510400Y-85093799D02*
G75*
G03*
X111193718Y-84948555I0J1679999D01*
G01*
X112045400Y-84097800D02*
G75*
G03*
X112045826Y-82730758I-1535000J684000D01*
G01*
X117270400Y-83413800D02*
G75*
G03*
X117270400Y-83413800I-1680000J0D01*
G01*
%TO.C,J15*%
X55224400Y-88259400D02*
X55224400Y-88999400D01*
X55224400Y-88999400D02*
X55724400Y-88999400D01*
X55464400Y-78838400D02*
X55464400Y-88759400D01*
X55464400Y-78838400D02*
X65744400Y-78838400D01*
X55464400Y-81798400D02*
X65744400Y-81798400D01*
X55464400Y-86699400D02*
X65744400Y-86699400D01*
X55464400Y-88199400D02*
X65744400Y-88199400D01*
X55464400Y-88759400D02*
X65744400Y-88759400D01*
X61917400Y-85122400D02*
X61870400Y-85168400D01*
X62110400Y-85338400D02*
X62075400Y-85373400D01*
X64214400Y-82824400D02*
X64179400Y-82860400D01*
X64419400Y-83030400D02*
X64372400Y-83076400D01*
X65744400Y-78838400D02*
X65744400Y-88759400D01*
X56529401Y-83415401D02*
G75*
G03*
X56528974Y-84782442I1534992J-684000D01*
G01*
X58748399Y-82564401D02*
G75*
G03*
X57381358Y-82563974I-684000J-1534992D01*
G01*
X57380400Y-85634399D02*
G75*
G03*
X58093205Y-85779652I683999J1535000D01*
G01*
X58064400Y-85779399D02*
G75*
G03*
X58747718Y-85634155I0J1679999D01*
G01*
X59599400Y-84783400D02*
G75*
G03*
X59599826Y-83416358I-1535000J684000D01*
G01*
X64824400Y-84099400D02*
G75*
G03*
X64824400Y-84099400I-1680000J0D01*
G01*
D13*
%TO.C,K1*%
X131917900Y-36152500D02*
X116317900Y-36152500D01*
X116317900Y-36152500D02*
X116317900Y-55352500D01*
X131917900Y-55352500D02*
X131917900Y-36152500D01*
X116317900Y-55352500D02*
X131917900Y-55352500D01*
D14*
X130217900Y-35252500D02*
G75*
G03*
X130217900Y-35252500I-100000J0D01*
G01*
%TO.C,J17*%
X148009200Y-71738000D02*
G75*
G03*
X148009200Y-71738000I-100000J0D01*
G01*
D13*
X148649200Y-69388000D02*
X156049200Y-69388000D01*
X148649200Y-75138000D02*
X148649200Y-69388000D01*
X156049200Y-69388000D02*
X156049200Y-75138000D01*
X156049200Y-75138000D02*
X148649200Y-75138000D01*
D12*
%TO.C,R6*%
X116763800Y-66193800D02*
X116763800Y-65423800D01*
X115393800Y-65423800D02*
X118133800Y-65423800D01*
X118133800Y-65423800D02*
X118133800Y-58883800D01*
X115393800Y-58883800D02*
X115393800Y-65423800D01*
X118133800Y-58883800D02*
X115393800Y-58883800D01*
X116763800Y-58113800D02*
X116763800Y-58883800D01*
%TO.C,J1*%
X188340800Y-83992400D02*
X188340800Y-84732400D01*
X188340800Y-84732400D02*
X188840800Y-84732400D01*
X188580800Y-74571400D02*
X188580800Y-84492400D01*
X188580800Y-74571400D02*
X198860800Y-74571400D01*
X188580800Y-77531400D02*
X198860800Y-77531400D01*
X188580800Y-82432400D02*
X198860800Y-82432400D01*
X188580800Y-83932400D02*
X198860800Y-83932400D01*
X188580800Y-84492400D02*
X198860800Y-84492400D01*
X195033800Y-80855400D02*
X194986800Y-80901400D01*
X195226800Y-81071400D02*
X195191800Y-81106400D01*
X197330800Y-78557400D02*
X197295800Y-78593400D01*
X197535800Y-78763400D02*
X197488800Y-78809400D01*
X198860800Y-74571400D02*
X198860800Y-84492400D01*
X189645801Y-79148401D02*
G75*
G03*
X189645374Y-80515442I1534992J-684000D01*
G01*
X191864799Y-78297401D02*
G75*
G03*
X190497758Y-78296974I-684000J-1534992D01*
G01*
X190496800Y-81367399D02*
G75*
G03*
X191209605Y-81512652I683999J1535000D01*
G01*
X191180800Y-81512399D02*
G75*
G03*
X191864118Y-81367155I0J1679999D01*
G01*
X192715800Y-80516400D02*
G75*
G03*
X192716226Y-79149358I-1535000J684000D01*
G01*
X197940800Y-79832400D02*
G75*
G03*
X197940800Y-79832400I-1680000J0D01*
G01*
%TO.C,D2*%
X120651700Y-30819700D02*
X121671700Y-30819700D01*
X121671700Y-29349700D02*
X121671700Y-32289700D01*
X121671700Y-32289700D02*
X127111700Y-32289700D01*
X122451700Y-29349700D02*
X122451700Y-32289700D01*
X122571700Y-29349700D02*
X122571700Y-32289700D01*
X122691700Y-29349700D02*
X122691700Y-32289700D01*
X127111700Y-29349700D02*
X121671700Y-29349700D01*
X127111700Y-32289700D02*
X127111700Y-29349700D01*
X128131700Y-30819700D02*
X127111700Y-30819700D01*
%TO.C,Q2*%
X154210000Y-41746800D02*
X158851000Y-41746800D01*
X154210000Y-41746800D02*
X154210000Y-31506800D01*
X155720000Y-41746800D02*
X155720000Y-31506800D01*
X158851000Y-41746800D02*
X158851000Y-31506800D01*
X154210000Y-38476800D02*
X155720000Y-38476800D01*
X154210000Y-34775800D02*
X155720000Y-34775800D01*
X154210000Y-31506800D02*
X158851000Y-31506800D01*
%TO.C,Q4*%
X57111000Y-42127800D02*
X61752000Y-42127800D01*
X57111000Y-42127800D02*
X57111000Y-31887800D01*
X58621000Y-42127800D02*
X58621000Y-31887800D01*
X61752000Y-42127800D02*
X61752000Y-31887800D01*
X57111000Y-38857800D02*
X58621000Y-38857800D01*
X57111000Y-35156800D02*
X58621000Y-35156800D01*
X57111000Y-31887800D02*
X61752000Y-31887800D01*
%TO.C,J7*%
X68457800Y-88259400D02*
X68457800Y-88999400D01*
X68457800Y-88999400D02*
X68957800Y-88999400D01*
X68697800Y-78838400D02*
X68697800Y-88759400D01*
X68697800Y-78838400D02*
X78977800Y-78838400D01*
X68697800Y-81798400D02*
X78977800Y-81798400D01*
X68697800Y-86699400D02*
X78977800Y-86699400D01*
X68697800Y-88199400D02*
X78977800Y-88199400D01*
X68697800Y-88759400D02*
X78977800Y-88759400D01*
X75150800Y-85122400D02*
X75103800Y-85168400D01*
X75343800Y-85338400D02*
X75308800Y-85373400D01*
X77447800Y-82824400D02*
X77412800Y-82860400D01*
X77652800Y-83030400D02*
X77605800Y-83076400D01*
X78977800Y-78838400D02*
X78977800Y-88759400D01*
X69762801Y-83415401D02*
G75*
G03*
X69762374Y-84782442I1534992J-684000D01*
G01*
X71981799Y-82564401D02*
G75*
G03*
X70614758Y-82563974I-684000J-1534992D01*
G01*
X70613800Y-85634399D02*
G75*
G03*
X71326605Y-85779652I683999J1535000D01*
G01*
X71297800Y-85779399D02*
G75*
G03*
X71981118Y-85634155I0J1679999D01*
G01*
X72832800Y-84783400D02*
G75*
G03*
X72833226Y-83416358I-1535000J684000D01*
G01*
X78057800Y-84099400D02*
G75*
G03*
X78057800Y-84099400I-1680000J0D01*
G01*
%TO.C,R11*%
X121361200Y-66193800D02*
X121361200Y-65423800D01*
X119991200Y-65423800D02*
X122731200Y-65423800D01*
X122731200Y-65423800D02*
X122731200Y-58883800D01*
X119991200Y-58883800D02*
X119991200Y-65423800D01*
X122731200Y-58883800D02*
X119991200Y-58883800D01*
X121361200Y-58113800D02*
X121361200Y-58883800D01*
D13*
%TO.C,J16*%
X113295600Y-73148400D02*
X105895600Y-73148400D01*
X113295600Y-67398400D02*
X113295600Y-73148400D01*
X105895600Y-73148400D02*
X105895600Y-67398400D01*
X105895600Y-67398400D02*
X113295600Y-67398400D01*
D14*
X105255600Y-69748400D02*
G75*
G03*
X105255600Y-69748400I-100000J0D01*
G01*
D12*
%TO.C,J11*%
X47702614Y-52022798D02*
G75*
G03*
X47702614Y-52022798I-1680000J0D01*
G01*
X45338614Y-48477798D02*
G75*
G03*
X46705656Y-48478224I684000J1535000D01*
G01*
X44342615Y-46942798D02*
G75*
G03*
X44487859Y-47626116I1679999J0D01*
G01*
X44487615Y-46258798D02*
G75*
G03*
X44342362Y-46971603I1535000J-683999D01*
G01*
X47557613Y-47626797D02*
G75*
G03*
X47558040Y-46259756I-1534992J684000D01*
G01*
X46706613Y-45407799D02*
G75*
G03*
X45339572Y-45407372I-684000J-1534992D01*
G01*
X51283614Y-54622798D02*
X41362614Y-54622798D01*
X47091614Y-53297798D02*
X47045614Y-53250798D01*
X47297614Y-53092798D02*
X47261614Y-53057798D01*
X44783614Y-50988798D02*
X44748614Y-50953798D01*
X44999614Y-50795798D02*
X44953614Y-50748798D01*
X41362614Y-44342798D02*
X41362614Y-54622798D01*
X41922614Y-44342798D02*
X41922614Y-54622798D01*
X43422614Y-44342798D02*
X43422614Y-54622798D01*
X48323614Y-44342798D02*
X48323614Y-54622798D01*
X51283614Y-44342798D02*
X51283614Y-54622798D01*
X51283614Y-44342798D02*
X41362614Y-44342798D01*
X41122614Y-44102798D02*
X41122614Y-44602798D01*
X41862614Y-44102798D02*
X41122614Y-44102798D01*
D13*
%TO.C,K3*%
X179357200Y-34771400D02*
X163757200Y-34771400D01*
X163757200Y-34771400D02*
X163757200Y-53971400D01*
X179357200Y-53971400D02*
X179357200Y-34771400D01*
X163757200Y-53971400D02*
X179357200Y-53971400D01*
D14*
X177657200Y-33871400D02*
G75*
G03*
X177657200Y-33871400I-100000J0D01*
G01*
D12*
%TO.C,R12*%
X150723600Y-58520200D02*
X150723600Y-59290200D01*
X152093600Y-59290200D02*
X149353600Y-59290200D01*
X149353600Y-59290200D02*
X149353600Y-65830200D01*
X152093600Y-65830200D02*
X152093600Y-59290200D01*
X149353600Y-65830200D02*
X152093600Y-65830200D01*
X150723600Y-66600200D02*
X150723600Y-65830200D01*
%TO.C,J5*%
X94386200Y-88005600D02*
X94386200Y-88745600D01*
X94386200Y-88745600D02*
X94886200Y-88745600D01*
X94626200Y-78584600D02*
X94626200Y-88505600D01*
X94626200Y-78584600D02*
X104906200Y-78584600D01*
X94626200Y-81544600D02*
X104906200Y-81544600D01*
X94626200Y-86445600D02*
X104906200Y-86445600D01*
X94626200Y-87945600D02*
X104906200Y-87945600D01*
X94626200Y-88505600D02*
X104906200Y-88505600D01*
X101079200Y-84868600D02*
X101032200Y-84914600D01*
X101272200Y-85084600D02*
X101237200Y-85119600D01*
X103376200Y-82570600D02*
X103341200Y-82606600D01*
X103581200Y-82776600D02*
X103534200Y-82822600D01*
X104906200Y-78584600D02*
X104906200Y-88505600D01*
X95691201Y-83161601D02*
G75*
G03*
X95690774Y-84528642I1534992J-684000D01*
G01*
X97910199Y-82310601D02*
G75*
G03*
X96543158Y-82310174I-684000J-1534992D01*
G01*
X96542200Y-85380599D02*
G75*
G03*
X97255005Y-85525852I683999J1535000D01*
G01*
X97226200Y-85525599D02*
G75*
G03*
X97909518Y-85380355I0J1679999D01*
G01*
X98761200Y-84529600D02*
G75*
G03*
X98761626Y-83162558I-1535000J684000D01*
G01*
X103986200Y-83845600D02*
G75*
G03*
X103986200Y-83845600I-1680000J0D01*
G01*
%TO.C,Q1*%
X106641000Y-39816400D02*
X111282000Y-39816400D01*
X106641000Y-39816400D02*
X106641000Y-29576400D01*
X108151000Y-39816400D02*
X108151000Y-29576400D01*
X111282000Y-39816400D02*
X111282000Y-29576400D01*
X106641000Y-36546400D02*
X108151000Y-36546400D01*
X106641000Y-32845400D02*
X108151000Y-32845400D01*
X106641000Y-29576400D02*
X111282000Y-29576400D01*
%TO.C,R8*%
X157429200Y-45286800D02*
X157429200Y-46056800D01*
X158799200Y-46056800D02*
X156059200Y-46056800D01*
X156059200Y-46056800D02*
X156059200Y-52596800D01*
X158799200Y-52596800D02*
X158799200Y-46056800D01*
X156059200Y-52596800D02*
X158799200Y-52596800D01*
X157429200Y-53366800D02*
X157429200Y-52596800D01*
D13*
%TO.C,J14*%
X86732600Y-73995000D02*
X79332600Y-73995000D01*
X86732600Y-68245000D02*
X86732600Y-73995000D01*
X79332600Y-73995000D02*
X79332600Y-68245000D01*
X79332600Y-68245000D02*
X86732600Y-68245000D01*
D14*
X78692600Y-70595000D02*
G75*
G03*
X78692600Y-70595000I-100000J0D01*
G01*
D12*
%TO.C,R1*%
X70078600Y-68733800D02*
X70078600Y-67963800D01*
X68708600Y-67963800D02*
X71448600Y-67963800D01*
X71448600Y-67963800D02*
X71448600Y-61423800D01*
X68708600Y-61423800D02*
X68708600Y-67963800D01*
X71448600Y-61423800D02*
X68708600Y-61423800D01*
X70078600Y-60653800D02*
X70078600Y-61423800D01*
D13*
%TO.C,K7*%
X84355600Y-36553400D02*
X68755600Y-36553400D01*
X68755600Y-36553400D02*
X68755600Y-55753400D01*
X84355600Y-55753400D02*
X84355600Y-36553400D01*
X68755600Y-55753400D02*
X84355600Y-55753400D01*
D14*
X82655600Y-35653400D02*
G75*
G03*
X82655600Y-35653400I-100000J0D01*
G01*
D12*
%TO.C,D3*%
X167209900Y-30845100D02*
X168229900Y-30845100D01*
X168229900Y-29375100D02*
X168229900Y-32315100D01*
X168229900Y-32315100D02*
X173669900Y-32315100D01*
X169009900Y-29375100D02*
X169009900Y-32315100D01*
X169129900Y-29375100D02*
X169129900Y-32315100D01*
X169249900Y-29375100D02*
X169249900Y-32315100D01*
X173669900Y-29375100D02*
X168229900Y-29375100D01*
X173669900Y-32315100D02*
X173669900Y-29375100D01*
X174689900Y-30845100D02*
X173669900Y-30845100D01*
%TO.C,J3*%
X120223000Y-87472000D02*
X120223000Y-88212000D01*
X120223000Y-88212000D02*
X120723000Y-88212000D01*
X120463000Y-78051000D02*
X120463000Y-87972000D01*
X120463000Y-78051000D02*
X130743000Y-78051000D01*
X120463000Y-81011000D02*
X130743000Y-81011000D01*
X120463000Y-85912000D02*
X130743000Y-85912000D01*
X120463000Y-87412000D02*
X130743000Y-87412000D01*
X120463000Y-87972000D02*
X130743000Y-87972000D01*
X126916000Y-84335000D02*
X126869000Y-84381000D01*
X127109000Y-84551000D02*
X127074000Y-84586000D01*
X129213000Y-82037000D02*
X129178000Y-82073000D01*
X129418000Y-82243000D02*
X129371000Y-82289000D01*
X130743000Y-78051000D02*
X130743000Y-87972000D01*
X121528001Y-82628001D02*
G75*
G03*
X121527574Y-83995042I1534992J-684000D01*
G01*
X123746999Y-81777001D02*
G75*
G03*
X122379958Y-81776574I-684000J-1534992D01*
G01*
X122379000Y-84846999D02*
G75*
G03*
X123091805Y-84992252I683999J1535000D01*
G01*
X123063000Y-84991999D02*
G75*
G03*
X123746318Y-84846755I0J1679999D01*
G01*
X124598000Y-83996000D02*
G75*
G03*
X124598426Y-82628958I-1535000J684000D01*
G01*
X129823000Y-83312000D02*
G75*
G03*
X129823000Y-83312000I-1680000J0D01*
G01*
%TO.C,K4*%
X145618800Y-39281800D02*
X148018800Y-39281800D01*
X147818800Y-39481800D02*
X147818800Y-68681800D01*
X135118800Y-39481800D02*
X147818800Y-39481800D01*
X148018800Y-41681800D02*
X148018800Y-39281800D01*
X145218800Y-45121800D02*
X145218800Y-46391800D01*
X143948800Y-45121800D02*
X143948800Y-46391800D01*
X142678800Y-45121800D02*
X141408800Y-47661800D01*
X138868800Y-45121800D02*
X143948800Y-45121800D01*
X145218800Y-46391800D02*
X143948800Y-46391800D01*
X143948800Y-46391800D02*
X143948800Y-47661800D01*
X138868800Y-46391800D02*
X137598800Y-46391800D01*
X137598800Y-46391800D02*
X137598800Y-45121800D01*
X143948800Y-47661800D02*
X138868800Y-47661800D01*
X138868800Y-47661800D02*
X138868800Y-45121800D01*
X147818800Y-68681800D02*
X146618800Y-68681800D01*
X143818800Y-68681800D02*
X139118800Y-68681800D01*
X136318800Y-68681800D02*
X135118800Y-68681800D01*
X135118800Y-68681800D02*
X135118800Y-39481800D01*
%TO.C,J2*%
X132994200Y-87421400D02*
X132994200Y-88161400D01*
X132994200Y-88161400D02*
X133494200Y-88161400D01*
X133234200Y-78000400D02*
X133234200Y-87921400D01*
X133234200Y-78000400D02*
X143514200Y-78000400D01*
X133234200Y-80960400D02*
X143514200Y-80960400D01*
X133234200Y-85861400D02*
X143514200Y-85861400D01*
X133234200Y-87361400D02*
X143514200Y-87361400D01*
X133234200Y-87921400D02*
X143514200Y-87921400D01*
X139687200Y-84284400D02*
X139640200Y-84330400D01*
X139880200Y-84500400D02*
X139845200Y-84535400D01*
X141984200Y-81986400D02*
X141949200Y-82022400D01*
X142189200Y-82192400D02*
X142142200Y-82238400D01*
X143514200Y-78000400D02*
X143514200Y-87921400D01*
X134299201Y-82577401D02*
G75*
G03*
X134298774Y-83944442I1534992J-684000D01*
G01*
X136518199Y-81726401D02*
G75*
G03*
X135151158Y-81725974I-684000J-1534992D01*
G01*
X135150200Y-84796399D02*
G75*
G03*
X135863005Y-84941652I683999J1535000D01*
G01*
X135834200Y-84941399D02*
G75*
G03*
X136517518Y-84796155I0J1679999D01*
G01*
X137369200Y-83945400D02*
G75*
G03*
X137369626Y-82578358I-1535000J684000D01*
G01*
X142594200Y-83261400D02*
G75*
G03*
X142594200Y-83261400I-1680000J0D01*
G01*
%TO.C,R7*%
X151282400Y-53341400D02*
X151282400Y-52571400D01*
X149912400Y-52571400D02*
X152652400Y-52571400D01*
X152652400Y-52571400D02*
X152652400Y-46031400D01*
X149912400Y-46031400D02*
X149912400Y-52571400D01*
X152652400Y-46031400D02*
X149912400Y-46031400D01*
X151282400Y-45261400D02*
X151282400Y-46031400D01*
%TO.C,J10*%
X41939014Y-57264998D02*
X41199014Y-57264998D01*
X41199014Y-57264998D02*
X41199014Y-57764998D01*
X51360014Y-57504998D02*
X41439014Y-57504998D01*
X51360014Y-57504998D02*
X51360014Y-67784998D01*
X48400014Y-57504998D02*
X48400014Y-67784998D01*
X43499014Y-57504998D02*
X43499014Y-67784998D01*
X41999014Y-57504998D02*
X41999014Y-67784998D01*
X41439014Y-57504998D02*
X41439014Y-67784998D01*
X45076014Y-63957998D02*
X45030014Y-63910998D01*
X44860014Y-64150998D02*
X44825014Y-64115998D01*
X47374014Y-66254998D02*
X47338014Y-66219998D01*
X47168014Y-66459998D02*
X47122014Y-66412998D01*
X51360014Y-67784998D02*
X41439014Y-67784998D01*
X46783013Y-58569999D02*
G75*
G03*
X45415972Y-58569572I-684000J-1534992D01*
G01*
X47634013Y-60788997D02*
G75*
G03*
X47634440Y-59421956I-1534992J684000D01*
G01*
X44564015Y-59420998D02*
G75*
G03*
X44418762Y-60133803I1535000J-683999D01*
G01*
X44419015Y-60104998D02*
G75*
G03*
X44564259Y-60788316I1679999J0D01*
G01*
X45415014Y-61639998D02*
G75*
G03*
X46782056Y-61640424I684000J1535000D01*
G01*
X47779014Y-65184998D02*
G75*
G03*
X47779014Y-65184998I-1680000J0D01*
G01*
%TO.C,J22*%
X41989814Y-70295198D02*
X41249814Y-70295198D01*
X41249814Y-70295198D02*
X41249814Y-70795198D01*
X51410814Y-70535198D02*
X41489814Y-70535198D01*
X51410814Y-70535198D02*
X51410814Y-80815198D01*
X48450814Y-70535198D02*
X48450814Y-80815198D01*
X43549814Y-70535198D02*
X43549814Y-80815198D01*
X42049814Y-70535198D02*
X42049814Y-80815198D01*
X41489814Y-70535198D02*
X41489814Y-80815198D01*
X45126814Y-76988198D02*
X45080814Y-76941198D01*
X44910814Y-77181198D02*
X44875814Y-77146198D01*
X47424814Y-79285198D02*
X47388814Y-79250198D01*
X47218814Y-79490198D02*
X47172814Y-79443198D01*
X51410814Y-80815198D02*
X41489814Y-80815198D01*
X46833813Y-71600199D02*
G75*
G03*
X45466772Y-71599772I-684000J-1534992D01*
G01*
X47684813Y-73819197D02*
G75*
G03*
X47685240Y-72452156I-1534992J684000D01*
G01*
X44614815Y-72451198D02*
G75*
G03*
X44469562Y-73164003I1535000J-683999D01*
G01*
X44469815Y-73135198D02*
G75*
G03*
X44615059Y-73818516I1679999J0D01*
G01*
X45465814Y-74670198D02*
G75*
G03*
X46832856Y-74670624I684000J1535000D01*
G01*
X47829814Y-78215198D02*
G75*
G03*
X47829814Y-78215198I-1680000J0D01*
G01*
%TO.C,U2*%
X161758000Y-64471800D02*
X161758000Y-69112800D01*
X161758000Y-64471800D02*
X171998000Y-64471800D01*
X161758000Y-65981800D02*
X171998000Y-65981800D01*
X161758000Y-69112800D02*
X171998000Y-69112800D01*
X165028000Y-64471800D02*
X165028000Y-65981800D01*
X168729000Y-64471800D02*
X168729000Y-65981800D01*
X171998000Y-64471800D02*
X171998000Y-69112800D01*
D13*
%TO.C,J13*%
X124466100Y-58669200D02*
X131866100Y-58669200D01*
X124466100Y-64419200D02*
X124466100Y-58669200D01*
X131866100Y-58669200D02*
X131866100Y-64419200D01*
X131866100Y-64419200D02*
X124466100Y-64419200D01*
D14*
X132706100Y-62069200D02*
G75*
G03*
X132706100Y-62069200I-100000J0D01*
G01*
D13*
%TO.C,U1*%
X152664200Y-86401200D02*
X152664200Y-79801200D01*
X153984200Y-86401200D02*
X152664200Y-86401200D01*
X172354200Y-86401200D02*
X171034200Y-86401200D01*
X152664200Y-79801200D02*
X153984200Y-79801200D01*
X171034200Y-79801200D02*
X172354200Y-79801200D01*
X172354200Y-79801200D02*
X172354200Y-86401200D01*
D14*
X154989200Y-88156200D02*
G75*
G03*
X154989200Y-88156200I-100000J0D01*
G01*
D12*
%TO.C,J6*%
X81513400Y-88310200D02*
X81513400Y-89050200D01*
X81513400Y-89050200D02*
X82013400Y-89050200D01*
X81753400Y-78889200D02*
X81753400Y-88810200D01*
X81753400Y-78889200D02*
X92033400Y-78889200D01*
X81753400Y-81849200D02*
X92033400Y-81849200D01*
X81753400Y-86750200D02*
X92033400Y-86750200D01*
X81753400Y-88250200D02*
X92033400Y-88250200D01*
X81753400Y-88810200D02*
X92033400Y-88810200D01*
X88206400Y-85173200D02*
X88159400Y-85219200D01*
X88399400Y-85389200D02*
X88364400Y-85424200D01*
X90503400Y-82875200D02*
X90468400Y-82911200D01*
X90708400Y-83081200D02*
X90661400Y-83127200D01*
X92033400Y-78889200D02*
X92033400Y-88810200D01*
X82818401Y-83466201D02*
G75*
G03*
X82817974Y-84833242I1534992J-684000D01*
G01*
X85037399Y-82615201D02*
G75*
G03*
X83670358Y-82614774I-684000J-1534992D01*
G01*
X83669400Y-85685199D02*
G75*
G03*
X84382205Y-85830452I683999J1535000D01*
G01*
X84353400Y-85830199D02*
G75*
G03*
X85036718Y-85684955I0J1679999D01*
G01*
X85888400Y-84834200D02*
G75*
G03*
X85888826Y-83467158I-1535000J684000D01*
G01*
X91113400Y-84150200D02*
G75*
G03*
X91113400Y-84150200I-1680000J0D01*
G01*
%TO.C,R4*%
X105130600Y-51487200D02*
X105130600Y-50717200D01*
X103760600Y-50717200D02*
X106500600Y-50717200D01*
X106500600Y-50717200D02*
X106500600Y-44177200D01*
X103760600Y-44177200D02*
X103760600Y-50717200D01*
X106500600Y-44177200D02*
X103760600Y-44177200D01*
X105130600Y-43407200D02*
X105130600Y-44177200D01*
%TO.C,R5*%
X111150400Y-43585000D02*
X111150400Y-44355000D01*
X112520400Y-44355000D02*
X109780400Y-44355000D01*
X109780400Y-44355000D02*
X109780400Y-50895000D01*
X112520400Y-50895000D02*
X112520400Y-44355000D01*
X109780400Y-50895000D02*
X112520400Y-50895000D01*
X111150400Y-51665000D02*
X111150400Y-50895000D01*
%TO.C,J9*%
X146532800Y-27920000D02*
X146532800Y-27180000D01*
X146532800Y-27180000D02*
X146032800Y-27180000D01*
X146292800Y-37341000D02*
X146292800Y-27420000D01*
X146292800Y-37341000D02*
X136012800Y-37341000D01*
X146292800Y-34381000D02*
X136012800Y-34381000D01*
X146292800Y-29480000D02*
X136012800Y-29480000D01*
X146292800Y-27980000D02*
X136012800Y-27980000D01*
X146292800Y-27420000D02*
X136012800Y-27420000D01*
X139839800Y-31057000D02*
X139886800Y-31011000D01*
X139646800Y-30841000D02*
X139681800Y-30806000D01*
X137542800Y-33355000D02*
X137577800Y-33319000D01*
X137337800Y-33149000D02*
X137384800Y-33103000D01*
X136012800Y-37341000D02*
X136012800Y-27420000D01*
X145227799Y-32763999D02*
G75*
G03*
X145228226Y-31396958I-1534992J684000D01*
G01*
X143008801Y-33614999D02*
G75*
G03*
X144375842Y-33615426I684000J1534992D01*
G01*
X144376800Y-30545001D02*
G75*
G03*
X143663995Y-30399748I-683999J-1535000D01*
G01*
X143692800Y-30400001D02*
G75*
G03*
X143009482Y-30545245I0J-1679999D01*
G01*
X142157800Y-31396000D02*
G75*
G03*
X142157374Y-32763042I1535000J-684000D01*
G01*
X140292800Y-32080000D02*
G75*
G03*
X140292800Y-32080000I-1680000J0D01*
G01*
D13*
%TO.C,J12*%
X64276700Y-69600800D02*
X56876700Y-69600800D01*
X64276700Y-63850800D02*
X64276700Y-69600800D01*
X56876700Y-69600800D02*
X56876700Y-63850800D01*
X56876700Y-63850800D02*
X64276700Y-63850800D01*
D14*
X56236700Y-66200800D02*
G75*
G03*
X56236700Y-66200800I-100000J0D01*
G01*
D13*
%TO.C,J19*%
X186546900Y-84459800D02*
X174146900Y-84459800D01*
X186546900Y-78709800D02*
X186546900Y-84459800D01*
X174146900Y-84459800D02*
X174146900Y-78709800D01*
X174146900Y-78709800D02*
X186546900Y-78709800D01*
D14*
X173446900Y-81059800D02*
G75*
G03*
X173446900Y-81059800I-100000J0D01*
G01*
D12*
%TO.C,R9*%
X116660800Y-72821800D02*
X117430800Y-72821800D01*
X117430800Y-71451800D02*
X117430800Y-74191800D01*
X117430800Y-74191800D02*
X123970800Y-74191800D01*
X123970800Y-71451800D02*
X117430800Y-71451800D01*
X123970800Y-74191800D02*
X123970800Y-71451800D01*
X124740800Y-72821800D02*
X123970800Y-72821800D01*
%TO.C,D1*%
X72866400Y-32308800D02*
X73886400Y-32308800D01*
X73886400Y-30838800D02*
X73886400Y-33778800D01*
X73886400Y-33778800D02*
X79326400Y-33778800D01*
X74666400Y-30838800D02*
X74666400Y-33778800D01*
X74786400Y-30838800D02*
X74786400Y-33778800D01*
X74906400Y-30838800D02*
X74906400Y-33778800D01*
X79326400Y-30838800D02*
X73886400Y-30838800D01*
X79326400Y-33778800D02*
X79326400Y-30838800D01*
X80346400Y-32308800D02*
X79326400Y-32308800D01*
%TO.C,K5*%
X195598100Y-40364500D02*
X197998100Y-40364500D01*
X197798100Y-40564500D02*
X197798100Y-69764500D01*
X185098100Y-40564500D02*
X197798100Y-40564500D01*
X197998100Y-42764500D02*
X197998100Y-40364500D01*
X195198100Y-46204500D02*
X195198100Y-47474500D01*
X193928100Y-46204500D02*
X193928100Y-47474500D01*
X192658100Y-46204500D02*
X191388100Y-48744500D01*
X188848100Y-46204500D02*
X193928100Y-46204500D01*
X195198100Y-47474500D02*
X193928100Y-47474500D01*
X193928100Y-47474500D02*
X193928100Y-48744500D01*
X188848100Y-47474500D02*
X187578100Y-47474500D01*
X187578100Y-47474500D02*
X187578100Y-46204500D01*
X193928100Y-48744500D02*
X188848100Y-48744500D01*
X188848100Y-48744500D02*
X188848100Y-46204500D01*
X197798100Y-69764500D02*
X196598100Y-69764500D01*
X193798100Y-69764500D02*
X189098100Y-69764500D01*
X186298100Y-69764500D02*
X185098100Y-69764500D01*
X185098100Y-69764500D02*
X185098100Y-40564500D01*
%TO.C,J18*%
X100564562Y-27875638D02*
X100564562Y-27135638D01*
X100564562Y-27135638D02*
X100064562Y-27135638D01*
X100324562Y-37296638D02*
X100324562Y-27375638D01*
X100324562Y-37296638D02*
X90044562Y-37296638D01*
X100324562Y-34336638D02*
X90044562Y-34336638D01*
X100324562Y-29435638D02*
X90044562Y-29435638D01*
X100324562Y-27935638D02*
X90044562Y-27935638D01*
X100324562Y-27375638D02*
X90044562Y-27375638D01*
X93871562Y-31012638D02*
X93918562Y-30966638D01*
X93678562Y-30796638D02*
X93713562Y-30761638D01*
X91574562Y-33310638D02*
X91609562Y-33274638D01*
X91369562Y-33104638D02*
X91416562Y-33058638D01*
X90044562Y-37296638D02*
X90044562Y-27375638D01*
X99259561Y-32719637D02*
G75*
G03*
X99259988Y-31352596I-1534992J684000D01*
G01*
X97040563Y-33570637D02*
G75*
G03*
X98407604Y-33571064I684000J1534992D01*
G01*
X98408562Y-30500639D02*
G75*
G03*
X97695757Y-30355386I-683999J-1535000D01*
G01*
X97724562Y-30355639D02*
G75*
G03*
X97041244Y-30500883I0J-1679999D01*
G01*
X96189562Y-31351638D02*
G75*
G03*
X96189136Y-32718680I1535000J-684000D01*
G01*
X94324562Y-32035638D02*
G75*
G03*
X94324562Y-32035638I-1680000J0D01*
G01*
%TO.C,R2*%
X56489600Y-57176800D02*
X56489600Y-56406800D01*
X55119600Y-56406800D02*
X57859600Y-56406800D01*
X57859600Y-56406800D02*
X57859600Y-49866800D01*
X55119600Y-49866800D02*
X55119600Y-56406800D01*
X57859600Y-49866800D02*
X55119600Y-49866800D01*
X56489600Y-49096800D02*
X56489600Y-49866800D01*
%TO.C,J8*%
X47753814Y-39662998D02*
G75*
G03*
X47753814Y-39662998I-1680000J0D01*
G01*
X45389814Y-36117998D02*
G75*
G03*
X46756856Y-36118424I684000J1535000D01*
G01*
X44393815Y-34582998D02*
G75*
G03*
X44539059Y-35266316I1679999J0D01*
G01*
X44538815Y-33898998D02*
G75*
G03*
X44393562Y-34611803I1535000J-683999D01*
G01*
X47608813Y-35266997D02*
G75*
G03*
X47609240Y-33899956I-1534992J684000D01*
G01*
X46757813Y-33047999D02*
G75*
G03*
X45390772Y-33047572I-684000J-1534992D01*
G01*
X51334814Y-42262998D02*
X41413814Y-42262998D01*
X47142814Y-40937998D02*
X47096814Y-40890998D01*
X47348814Y-40732998D02*
X47312814Y-40697998D01*
X44834814Y-38628998D02*
X44799814Y-38593998D01*
X45050814Y-38435998D02*
X45004814Y-38388998D01*
X41413814Y-31982998D02*
X41413814Y-42262998D01*
X41973814Y-31982998D02*
X41973814Y-42262998D01*
X43473814Y-31982998D02*
X43473814Y-42262998D01*
X48374814Y-31982998D02*
X48374814Y-42262998D01*
X51334814Y-31982998D02*
X51334814Y-42262998D01*
X51334814Y-31982998D02*
X41413814Y-31982998D01*
X41173814Y-31742998D02*
X41173814Y-32242998D01*
X41913814Y-31742998D02*
X41173814Y-31742998D01*
%TO.C,K2*%
X99230500Y-39729500D02*
X101630500Y-39729500D01*
X101430500Y-39929500D02*
X101430500Y-69129500D01*
X88730500Y-39929500D02*
X101430500Y-39929500D01*
X101630500Y-42129500D02*
X101630500Y-39729500D01*
X98830500Y-45569500D02*
X98830500Y-46839500D01*
X97560500Y-45569500D02*
X97560500Y-46839500D01*
X96290500Y-45569500D02*
X95020500Y-48109500D01*
X92480500Y-45569500D02*
X97560500Y-45569500D01*
X98830500Y-46839500D02*
X97560500Y-46839500D01*
X97560500Y-46839500D02*
X97560500Y-48109500D01*
X92480500Y-46839500D02*
X91210500Y-46839500D01*
X91210500Y-46839500D02*
X91210500Y-45569500D01*
X97560500Y-48109500D02*
X92480500Y-48109500D01*
X92480500Y-48109500D02*
X92480500Y-45569500D01*
X101430500Y-69129500D02*
X100230500Y-69129500D01*
X97430500Y-69129500D02*
X92730500Y-69129500D01*
X89930500Y-69129500D02*
X88730500Y-69129500D01*
X88730500Y-69129500D02*
X88730500Y-39929500D01*
%TO.C,R10*%
X75666600Y-60653800D02*
X75666600Y-61423800D01*
X77036600Y-61423800D02*
X74296600Y-61423800D01*
X74296600Y-61423800D02*
X74296600Y-67963800D01*
X77036600Y-67963800D02*
X77036600Y-61423800D01*
X74296600Y-67963800D02*
X77036600Y-67963800D01*
X75666600Y-68733800D02*
X75666600Y-67963800D01*
%TD*%
M02*
