%TF.GenerationSoftware,KiCad,Pcbnew,7.0.5*%
%TF.CreationDate,2024-01-10T23:37:01+05:30*%
%TF.ProjectId,Shutdown Circuit,53687574-646f-4776-9e20-436972637569,rev?*%
%TF.SameCoordinates,Original*%
%TF.FileFunction,Drillmap*%
%TF.FilePolarity,Positive*%
%FSLAX45Y45*%
G04 Gerber Fmt 4.5, Leading zero omitted, Abs format (unit mm)*
G04 Created by KiCad (PCBNEW 7.0.5) date 2024-01-10 23:37:01*
%MOMM*%
%LPD*%
G01*
G04 APERTURE LIST*
%ADD10C,0.100000*%
%ADD11C,0.200000*%
%ADD12C,0.040000*%
%ADD13C,0.077000*%
%ADD14C,0.080000*%
%ADD15C,0.105000*%
%ADD16C,0.110000*%
%ADD17C,0.120000*%
%ADD18C,0.130000*%
%ADD19C,0.150000*%
G04 APERTURE END LIST*
D10*
X3350260Y-2291080D02*
X20416520Y-2291080D01*
X20416520Y-9484360D01*
X3350260Y-9484360D01*
X3350260Y-2291080D01*
D11*
D12*
X6634800Y-6177600D02*
X6674800Y-6217600D01*
X6674800Y-6177600D02*
X6634800Y-6217600D01*
X6634800Y-6736400D02*
X6674800Y-6776400D01*
X6674800Y-6736400D02*
X6634800Y-6776400D01*
X9327200Y-5110800D02*
X9367200Y-5150800D01*
X9367200Y-5110800D02*
X9327200Y-5150800D01*
X10190800Y-7549200D02*
X10230800Y-7589200D01*
X10230800Y-7549200D02*
X10190800Y-7589200D01*
X14000800Y-5517200D02*
X14040800Y-5557200D01*
X14040800Y-5517200D02*
X14000800Y-5557200D01*
X14762800Y-7854000D02*
X14802800Y-7894000D01*
X14802800Y-7854000D02*
X14762800Y-7894000D01*
X15524800Y-6025200D02*
X15564800Y-6065200D01*
X15564800Y-6025200D02*
X15524800Y-6065200D01*
X17252000Y-7447600D02*
X17292000Y-7487600D01*
X17292000Y-7447600D02*
X17252000Y-7487600D01*
X17963200Y-6177600D02*
X18003200Y-6217600D01*
X18003200Y-6177600D02*
X17963200Y-6217600D01*
D13*
X15527420Y-7913120D02*
G75*
G03*
X15527420Y-7913120I-38500J0D01*
G01*
X15527420Y-8707120D02*
G75*
G03*
X15527420Y-8707120I-38500J0D01*
G01*
X15781420Y-7913120D02*
G75*
G03*
X15781420Y-7913120I-38500J0D01*
G01*
X15781420Y-8707120D02*
G75*
G03*
X15781420Y-8707120I-38500J0D01*
G01*
X16035420Y-7913120D02*
G75*
G03*
X16035420Y-7913120I-38500J0D01*
G01*
X16035420Y-8707120D02*
G75*
G03*
X16035420Y-8707120I-38500J0D01*
G01*
X16289420Y-7913120D02*
G75*
G03*
X16289420Y-7913120I-38500J0D01*
G01*
X16289420Y-8707120D02*
G75*
G03*
X16289420Y-8707120I-38500J0D01*
G01*
X16543420Y-7913120D02*
G75*
G03*
X16543420Y-7913120I-38500J0D01*
G01*
X16543420Y-8707120D02*
G75*
G03*
X16543420Y-8707120I-38500J0D01*
G01*
X16797420Y-7913120D02*
G75*
G03*
X16797420Y-7913120I-38500J0D01*
G01*
X16797420Y-8707120D02*
G75*
G03*
X16797420Y-8707120I-38500J0D01*
G01*
X17051420Y-7913120D02*
G75*
G03*
X17051420Y-7913120I-38500J0D01*
G01*
X17051420Y-8707120D02*
G75*
G03*
X17051420Y-8707120I-38500J0D01*
G01*
D14*
X5648960Y-4765680D02*
X5648960Y-4845680D01*
X5608960Y-4805680D02*
X5688960Y-4805680D01*
X5648960Y-5781680D02*
X5648960Y-5861680D01*
X5608960Y-5821680D02*
X5688960Y-5821680D01*
X6289040Y-4765680D02*
X6289040Y-4845680D01*
X6249040Y-4805680D02*
X6329040Y-4805680D01*
X6289040Y-5781680D02*
X6289040Y-5861680D01*
X6249040Y-5821680D02*
X6329040Y-5821680D01*
X7007860Y-5921380D02*
X7007860Y-6001380D01*
X6967860Y-5961380D02*
X7047860Y-5961380D01*
X7007860Y-6937380D02*
X7007860Y-7017380D01*
X6967860Y-6977380D02*
X7047860Y-6977380D01*
X7055560Y-3975340D02*
X7055560Y-4055340D01*
X7015560Y-4015340D02*
X7095560Y-4015340D01*
X7566660Y-5921380D02*
X7566660Y-6001380D01*
X7526660Y-5961380D02*
X7606660Y-5961380D01*
X7566660Y-6937380D02*
X7566660Y-7017380D01*
X7526660Y-6977380D02*
X7606660Y-6977380D01*
X8255560Y-3975340D02*
X8255560Y-4055340D01*
X8215560Y-4015340D02*
X8295560Y-4015340D01*
X10513060Y-4196720D02*
X10513060Y-4276720D01*
X10473060Y-4236720D02*
X10553060Y-4236720D01*
X10513060Y-5212720D02*
X10513060Y-5292720D01*
X10473060Y-5252720D02*
X10553060Y-5252720D01*
X11115040Y-4214500D02*
X11115040Y-4294500D01*
X11075040Y-4254500D02*
X11155040Y-4254500D01*
X11115040Y-5230500D02*
X11115040Y-5310500D01*
X11075040Y-5270500D02*
X11155040Y-5270500D01*
X11562080Y-7242180D02*
X11562080Y-7322180D01*
X11522080Y-7282180D02*
X11602080Y-7282180D01*
X11676380Y-5667380D02*
X11676380Y-5747380D01*
X11636380Y-5707380D02*
X11716380Y-5707380D01*
X11676380Y-6683380D02*
X11676380Y-6763380D01*
X11636380Y-6723380D02*
X11716380Y-6723380D01*
X11811790Y-3935250D02*
X11811790Y-4015250D01*
X11771790Y-3975250D02*
X11851790Y-3975250D01*
X12136120Y-5667380D02*
X12136120Y-5747380D01*
X12096120Y-5707380D02*
X12176120Y-5707380D01*
X12136120Y-6683380D02*
X12136120Y-6763380D01*
X12096120Y-6723380D02*
X12176120Y-6723380D01*
X12578080Y-7242180D02*
X12578080Y-7322180D01*
X12538080Y-7282180D02*
X12618080Y-7282180D01*
X13011790Y-3935250D02*
X13011790Y-4015250D01*
X12971790Y-3975250D02*
X13051790Y-3975250D01*
X15072360Y-5708020D02*
X15072360Y-5788020D01*
X15032360Y-5748020D02*
X15112360Y-5748020D01*
X15072360Y-6724020D02*
X15072360Y-6804020D01*
X15032360Y-6764020D02*
X15112360Y-6764020D01*
X15128240Y-4382140D02*
X15128240Y-4462140D01*
X15088240Y-4422140D02*
X15168240Y-4422140D01*
X15128240Y-5398140D02*
X15128240Y-5478140D01*
X15088240Y-5438140D02*
X15168240Y-5438140D01*
X15742920Y-4384680D02*
X15742920Y-4464680D01*
X15702920Y-4424680D02*
X15782920Y-4424680D01*
X15742920Y-5400680D02*
X15742920Y-5480680D01*
X15702920Y-5440680D02*
X15782920Y-5440680D01*
X16084740Y-6007220D02*
X16084740Y-6087220D01*
X16044740Y-6047220D02*
X16124740Y-6047220D01*
X16555720Y-3797140D02*
X16555720Y-3877140D01*
X16515720Y-3837140D02*
X16595720Y-3837140D01*
X16584740Y-6007220D02*
X16584740Y-6087220D01*
X16544740Y-6047220D02*
X16624740Y-6047220D01*
X16902620Y-6009760D02*
X16902620Y-6089760D01*
X16862620Y-6049760D02*
X16942620Y-6049760D01*
X17402620Y-6009760D02*
X17402620Y-6089760D01*
X17362620Y-6049760D02*
X17442620Y-6049760D01*
X17755720Y-3797140D02*
X17755720Y-3877140D01*
X17715720Y-3837140D02*
X17795720Y-3837140D01*
D10*
X17695046Y-8141336D02*
X17695046Y-8070624D01*
X17624334Y-8070624D01*
X17624334Y-8141336D01*
X17695046Y-8141336D01*
X17945046Y-8141336D02*
X17945046Y-8070624D01*
X17874334Y-8070624D01*
X17874334Y-8141336D01*
X17945046Y-8141336D01*
X18195046Y-8141336D02*
X18195046Y-8070624D01*
X18124334Y-8070624D01*
X18124334Y-8141336D01*
X18195046Y-8141336D01*
X18445046Y-8141336D02*
X18445046Y-8070624D01*
X18374334Y-8070624D01*
X18374334Y-8141336D01*
X18445046Y-8141336D01*
D15*
X5932670Y-6672580D02*
X5985170Y-6620080D01*
X5932670Y-6567580D01*
X5880170Y-6620080D01*
X5932670Y-6672580D01*
X6182670Y-6672580D02*
X6235170Y-6620080D01*
X6182670Y-6567580D01*
X6130170Y-6620080D01*
X6182670Y-6672580D01*
X8178260Y-7112000D02*
X8230760Y-7059500D01*
X8178260Y-7007000D01*
X8125760Y-7059500D01*
X8178260Y-7112000D01*
X8428260Y-7112000D02*
X8480760Y-7059500D01*
X8428260Y-7007000D01*
X8375760Y-7059500D01*
X8428260Y-7112000D01*
X10834560Y-7027340D02*
X10887060Y-6974840D01*
X10834560Y-6922340D01*
X10782060Y-6974840D01*
X10834560Y-7027340D01*
X11084560Y-7027340D02*
X11137060Y-6974840D01*
X11084560Y-6922340D01*
X11032060Y-6974840D01*
X11084560Y-7027340D01*
X12691610Y-6259420D02*
X12744110Y-6206920D01*
X12691610Y-6154420D01*
X12639110Y-6206920D01*
X12691610Y-6259420D01*
X12941610Y-6259420D02*
X12994110Y-6206920D01*
X12941610Y-6154420D01*
X12889110Y-6206920D01*
X12941610Y-6259420D01*
X15109920Y-7226300D02*
X15162420Y-7173800D01*
X15109920Y-7121300D01*
X15057420Y-7173800D01*
X15109920Y-7226300D01*
X15359920Y-7226300D02*
X15412420Y-7173800D01*
X15359920Y-7121300D01*
X15307420Y-7173800D01*
X15359920Y-7226300D01*
D16*
X5983100Y-3391780D02*
X6093100Y-3501780D01*
X6093100Y-3391780D02*
X5983100Y-3501780D01*
X6093100Y-3446780D02*
G75*
G03*
X6093100Y-3446780I-55000J0D01*
G01*
X5983100Y-3645780D02*
X6093100Y-3755780D01*
X6093100Y-3645780D02*
X5983100Y-3755780D01*
X6093100Y-3700780D02*
G75*
G03*
X6093100Y-3700780I-55000J0D01*
G01*
X5983100Y-3899780D02*
X6093100Y-4009780D01*
X6093100Y-3899780D02*
X5983100Y-4009780D01*
X6093100Y-3954780D02*
G75*
G03*
X6093100Y-3954780I-55000J0D01*
G01*
X7097640Y-3175880D02*
X7207640Y-3285880D01*
X7207640Y-3175880D02*
X7097640Y-3285880D01*
X7207640Y-3230880D02*
G75*
G03*
X7207640Y-3230880I-55000J0D01*
G01*
X8113640Y-3175880D02*
X8223640Y-3285880D01*
X8223640Y-3175880D02*
X8113640Y-3285880D01*
X8223640Y-3230880D02*
G75*
G03*
X8223640Y-3230880I-55000J0D01*
G01*
X8286360Y-5883520D02*
X8396360Y-5993520D01*
X8396360Y-5883520D02*
X8286360Y-5993520D01*
X8396360Y-5938520D02*
G75*
G03*
X8396360Y-5938520I-55000J0D01*
G01*
X8286360Y-6137520D02*
X8396360Y-6247520D01*
X8396360Y-6137520D02*
X8286360Y-6247520D01*
X8396360Y-6192520D02*
G75*
G03*
X8396360Y-6192520I-55000J0D01*
G01*
X8286360Y-6391520D02*
X8396360Y-6501520D01*
X8396360Y-6391520D02*
X8286360Y-6501520D01*
X8396360Y-6446520D02*
G75*
G03*
X8396360Y-6446520I-55000J0D01*
G01*
X10862440Y-5695560D02*
X10972440Y-5805560D01*
X10972440Y-5695560D02*
X10862440Y-5805560D01*
X10972440Y-5750560D02*
G75*
G03*
X10972440Y-5750560I-55000J0D01*
G01*
X10862440Y-5949560D02*
X10972440Y-6059560D01*
X10972440Y-5949560D02*
X10862440Y-6059560D01*
X10972440Y-6004560D02*
G75*
G03*
X10972440Y-6004560I-55000J0D01*
G01*
X10862440Y-6203560D02*
X10972440Y-6313560D01*
X10972440Y-6203560D02*
X10862440Y-6313560D01*
X10972440Y-6258560D02*
G75*
G03*
X10972440Y-6258560I-55000J0D01*
G01*
X10936100Y-3160640D02*
X11046100Y-3270640D01*
X11046100Y-3160640D02*
X10936100Y-3270640D01*
X11046100Y-3215640D02*
G75*
G03*
X11046100Y-3215640I-55000J0D01*
G01*
X10936100Y-3414640D02*
X11046100Y-3524640D01*
X11046100Y-3414640D02*
X10936100Y-3524640D01*
X11046100Y-3469640D02*
G75*
G03*
X11046100Y-3469640I-55000J0D01*
G01*
X10936100Y-3668640D02*
X11046100Y-3778640D01*
X11046100Y-3668640D02*
X10936100Y-3778640D01*
X11046100Y-3723640D02*
G75*
G03*
X11046100Y-3723640I-55000J0D01*
G01*
X11876170Y-3026970D02*
X11986170Y-3136970D01*
X11986170Y-3026970D02*
X11876170Y-3136970D01*
X11986170Y-3081970D02*
G75*
G03*
X11986170Y-3081970I-55000J0D01*
G01*
X12892170Y-3026970D02*
X13002170Y-3136970D01*
X13002170Y-3026970D02*
X12892170Y-3136970D01*
X13002170Y-3081970D02*
G75*
G03*
X13002170Y-3081970I-55000J0D01*
G01*
X13003140Y-7359780D02*
X13113140Y-7469780D01*
X13113140Y-7359780D02*
X13003140Y-7469780D01*
X13113140Y-7414780D02*
G75*
G03*
X13113140Y-7414780I-55000J0D01*
G01*
X13257140Y-7359780D02*
X13367140Y-7469780D01*
X13367140Y-7359780D02*
X13257140Y-7469780D01*
X13367140Y-7414780D02*
G75*
G03*
X13367140Y-7414780I-55000J0D01*
G01*
X13511140Y-7359780D02*
X13621140Y-7469780D01*
X13621140Y-7359780D02*
X13511140Y-7469780D01*
X13621140Y-7414780D02*
G75*
G03*
X13621140Y-7414780I-55000J0D01*
G01*
X15693000Y-3353680D02*
X15803000Y-3463680D01*
X15803000Y-3353680D02*
X15693000Y-3463680D01*
X15803000Y-3408680D02*
G75*
G03*
X15803000Y-3408680I-55000J0D01*
G01*
X15693000Y-3607680D02*
X15803000Y-3717680D01*
X15803000Y-3607680D02*
X15693000Y-3717680D01*
X15803000Y-3662680D02*
G75*
G03*
X15803000Y-3662680I-55000J0D01*
G01*
X15693000Y-3861680D02*
X15803000Y-3971680D01*
X15803000Y-3861680D02*
X15693000Y-3971680D01*
X15803000Y-3916680D02*
G75*
G03*
X15803000Y-3916680I-55000J0D01*
G01*
X16378800Y-6719180D02*
X16488800Y-6829180D01*
X16488800Y-6719180D02*
X16378800Y-6829180D01*
X16488800Y-6774180D02*
G75*
G03*
X16488800Y-6774180I-55000J0D01*
G01*
X16531990Y-3029510D02*
X16641990Y-3139510D01*
X16641990Y-3029510D02*
X16531990Y-3139510D01*
X16641990Y-3084510D02*
G75*
G03*
X16641990Y-3084510I-55000J0D01*
G01*
X16632800Y-6719180D02*
X16742800Y-6829180D01*
X16742800Y-6719180D02*
X16632800Y-6829180D01*
X16742800Y-6774180D02*
G75*
G03*
X16742800Y-6774180I-55000J0D01*
G01*
X16886800Y-6719180D02*
X16996800Y-6829180D01*
X16996800Y-6719180D02*
X16886800Y-6829180D01*
X16996800Y-6774180D02*
G75*
G03*
X16996800Y-6774180I-55000J0D01*
G01*
X17547990Y-3029510D02*
X17657990Y-3139510D01*
X17657990Y-3029510D02*
X17547990Y-3139510D01*
X17657990Y-3084510D02*
G75*
G03*
X17657990Y-3084510I-55000J0D01*
G01*
D17*
X6995560Y-5175340D02*
X7115560Y-5295340D01*
X7115560Y-5175340D02*
X6995560Y-5295340D01*
X7055560Y-5175340D02*
X7055560Y-5295340D01*
X6995560Y-5235340D02*
X7115560Y-5235340D01*
X8195560Y-5175340D02*
X8315560Y-5295340D01*
X8315560Y-5175340D02*
X8195560Y-5295340D01*
X8255560Y-5175340D02*
X8255560Y-5295340D01*
X8195560Y-5235340D02*
X8315560Y-5235340D01*
X11751790Y-5135250D02*
X11871790Y-5255250D01*
X11871790Y-5135250D02*
X11751790Y-5255250D01*
X11811790Y-5135250D02*
X11811790Y-5255250D01*
X11751790Y-5195250D02*
X11871790Y-5195250D01*
X12951790Y-5135250D02*
X13071790Y-5255250D01*
X13071790Y-5135250D02*
X12951790Y-5255250D01*
X13011790Y-5135250D02*
X13011790Y-5255250D01*
X12951790Y-5195250D02*
X13071790Y-5195250D01*
X16495720Y-4997140D02*
X16615720Y-5117140D01*
X16615720Y-4997140D02*
X16495720Y-5117140D01*
X16555720Y-4997140D02*
X16555720Y-5117140D01*
X16495720Y-5057140D02*
X16615720Y-5057140D01*
X17695720Y-4997140D02*
X17815720Y-5117140D01*
X17815720Y-4997140D02*
X17695720Y-5117140D01*
X17755720Y-4997140D02*
X17755720Y-5117140D01*
X17695720Y-5057140D02*
X17815720Y-5057140D01*
D18*
X4537261Y-4629280D02*
X4667261Y-4759280D01*
X4667261Y-4629280D02*
X4537261Y-4759280D01*
X4648224Y-4740242D02*
X4648224Y-4648317D01*
X4556299Y-4648317D01*
X4556299Y-4740242D01*
X4648224Y-4740242D01*
X4537261Y-5137280D02*
X4667261Y-5267280D01*
X4667261Y-5137280D02*
X4537261Y-5267280D01*
X4648224Y-5248242D02*
X4648224Y-5156317D01*
X4556299Y-5156317D01*
X4556299Y-5248242D01*
X4648224Y-5248242D01*
X4542381Y-3393300D02*
X4672381Y-3523300D01*
X4672381Y-3393300D02*
X4542381Y-3523300D01*
X4653344Y-3504262D02*
X4653344Y-3412337D01*
X4561419Y-3412337D01*
X4561419Y-3504262D01*
X4653344Y-3504262D01*
X4542381Y-3901300D02*
X4672381Y-4031300D01*
X4672381Y-3901300D02*
X4542381Y-4031300D01*
X4653344Y-4012262D02*
X4653344Y-3920337D01*
X4561419Y-3920337D01*
X4561419Y-4012262D01*
X4653344Y-4012262D01*
X4544901Y-5945500D02*
X4674901Y-6075500D01*
X4674901Y-5945500D02*
X4544901Y-6075500D01*
X4655864Y-6056462D02*
X4655864Y-5964537D01*
X4563939Y-5964537D01*
X4563939Y-6056462D01*
X4655864Y-6056462D01*
X4544901Y-6453500D02*
X4674901Y-6583500D01*
X4674901Y-6453500D02*
X4544901Y-6583500D01*
X4655864Y-6564462D02*
X4655864Y-6472537D01*
X4563939Y-6472537D01*
X4563939Y-6564462D01*
X4655864Y-6564462D01*
X4549981Y-7248520D02*
X4679981Y-7378520D01*
X4679981Y-7248520D02*
X4549981Y-7378520D01*
X4660944Y-7359482D02*
X4660944Y-7267557D01*
X4569019Y-7267557D01*
X4569019Y-7359482D01*
X4660944Y-7359482D01*
X4549981Y-7756520D02*
X4679981Y-7886520D01*
X4679981Y-7756520D02*
X4549981Y-7886520D01*
X4660944Y-7867482D02*
X4660944Y-7775557D01*
X4569019Y-7775557D01*
X4569019Y-7867482D01*
X4660944Y-7867482D01*
X5741440Y-8344940D02*
X5871440Y-8474940D01*
X5871440Y-8344940D02*
X5741440Y-8474940D01*
X5852402Y-8455902D02*
X5852402Y-8363978D01*
X5760478Y-8363978D01*
X5760478Y-8455902D01*
X5852402Y-8455902D01*
X6249440Y-8344940D02*
X6379440Y-8474940D01*
X6379440Y-8344940D02*
X6249440Y-8474940D01*
X6360402Y-8455902D02*
X6360402Y-8363978D01*
X6268478Y-8363978D01*
X6268478Y-8455902D01*
X6360402Y-8455902D01*
X7064780Y-8344940D02*
X7194780Y-8474940D01*
X7194780Y-8344940D02*
X7064780Y-8474940D01*
X7175742Y-8455902D02*
X7175742Y-8363978D01*
X7083818Y-8363978D01*
X7083818Y-8455902D01*
X7175742Y-8455902D01*
X7572780Y-8344940D02*
X7702780Y-8474940D01*
X7702780Y-8344940D02*
X7572780Y-8474940D01*
X7683742Y-8455902D02*
X7683742Y-8363978D01*
X7591818Y-8363978D01*
X7591818Y-8455902D01*
X7683742Y-8455902D01*
X7578560Y-3750340D02*
X7708560Y-3880340D01*
X7708560Y-3750340D02*
X7578560Y-3880340D01*
X7689522Y-3861302D02*
X7689522Y-3769378D01*
X7597598Y-3769378D01*
X7597598Y-3861302D01*
X7689522Y-3861302D01*
X8370340Y-8350020D02*
X8500340Y-8480020D01*
X8500340Y-8350020D02*
X8370340Y-8480020D01*
X8481302Y-8460982D02*
X8481302Y-8369058D01*
X8389378Y-8369058D01*
X8389378Y-8460982D01*
X8481302Y-8460982D01*
X8878340Y-8350020D02*
X9008340Y-8480020D01*
X9008340Y-8350020D02*
X8878340Y-8480020D01*
X8989302Y-8460982D02*
X8989302Y-8369058D01*
X8897378Y-8369058D01*
X8897378Y-8460982D01*
X8989302Y-8460982D01*
X9199456Y-3138564D02*
X9329456Y-3268564D01*
X9329456Y-3138564D02*
X9199456Y-3268564D01*
X9310419Y-3249526D02*
X9310419Y-3157601D01*
X9218494Y-3157601D01*
X9218494Y-3249526D01*
X9310419Y-3249526D01*
X9657620Y-8319560D02*
X9787620Y-8449560D01*
X9787620Y-8319560D02*
X9657620Y-8449560D01*
X9768582Y-8430522D02*
X9768582Y-8338598D01*
X9676658Y-8338598D01*
X9676658Y-8430522D01*
X9768582Y-8430522D01*
X9707456Y-3138564D02*
X9837456Y-3268564D01*
X9837456Y-3138564D02*
X9707456Y-3268564D01*
X9818419Y-3249526D02*
X9818419Y-3157601D01*
X9726494Y-3157601D01*
X9726494Y-3249526D01*
X9818419Y-3249526D01*
X10165620Y-8319560D02*
X10295620Y-8449560D01*
X10295620Y-8319560D02*
X10165620Y-8449560D01*
X10276582Y-8430522D02*
X10276582Y-8338598D01*
X10184658Y-8338598D01*
X10184658Y-8430522D01*
X10276582Y-8430522D01*
X10986040Y-8276380D02*
X11116040Y-8406380D01*
X11116040Y-8276380D02*
X10986040Y-8406380D01*
X11097002Y-8387342D02*
X11097002Y-8295418D01*
X11005078Y-8295418D01*
X11005078Y-8387342D01*
X11097002Y-8387342D01*
X11494040Y-8276380D02*
X11624040Y-8406380D01*
X11624040Y-8276380D02*
X11494040Y-8406380D01*
X11605002Y-8387342D02*
X11605002Y-8295418D01*
X11513078Y-8295418D01*
X11513078Y-8387342D01*
X11605002Y-8387342D01*
X12241300Y-8266200D02*
X12371300Y-8396200D01*
X12371300Y-8266200D02*
X12241300Y-8396200D01*
X12352262Y-8377162D02*
X12352262Y-8285238D01*
X12260338Y-8285238D01*
X12260338Y-8377162D01*
X12352262Y-8377162D01*
X12334790Y-3710250D02*
X12464790Y-3840250D01*
X12464790Y-3710250D02*
X12334790Y-3840250D01*
X12445752Y-3821212D02*
X12445752Y-3729288D01*
X12353828Y-3729288D01*
X12353828Y-3821212D01*
X12445752Y-3821212D01*
X12749300Y-8266200D02*
X12879300Y-8396200D01*
X12879300Y-8266200D02*
X12749300Y-8396200D01*
X12860262Y-8377162D02*
X12860262Y-8285238D01*
X12768338Y-8285238D01*
X12768338Y-8377162D01*
X12860262Y-8377162D01*
X13518420Y-8261140D02*
X13648420Y-8391140D01*
X13648420Y-8261140D02*
X13518420Y-8391140D01*
X13629382Y-8372102D02*
X13629382Y-8280178D01*
X13537458Y-8280178D01*
X13537458Y-8372102D01*
X13629382Y-8372102D01*
X13796280Y-3143000D02*
X13926280Y-3273000D01*
X13926280Y-3143000D02*
X13796280Y-3273000D01*
X13907242Y-3253962D02*
X13907242Y-3162038D01*
X13815318Y-3162038D01*
X13815318Y-3253962D01*
X13907242Y-3253962D01*
X14026420Y-8261140D02*
X14156420Y-8391140D01*
X14156420Y-8261140D02*
X14026420Y-8391140D01*
X14137382Y-8372102D02*
X14137382Y-8280178D01*
X14045458Y-8280178D01*
X14045458Y-8372102D01*
X14137382Y-8372102D01*
X14304280Y-3143000D02*
X14434280Y-3273000D01*
X14434280Y-3143000D02*
X14304280Y-3273000D01*
X14415242Y-3253962D02*
X14415242Y-3162038D01*
X14323318Y-3162038D01*
X14323318Y-3253962D01*
X14415242Y-3253962D01*
X17078720Y-3572140D02*
X17208720Y-3702140D01*
X17208720Y-3572140D02*
X17078720Y-3702140D01*
X17189682Y-3683102D02*
X17189682Y-3591178D01*
X17097758Y-3591178D01*
X17097758Y-3683102D01*
X17189682Y-3683102D01*
X19053080Y-7918240D02*
X19183080Y-8048240D01*
X19183080Y-7918240D02*
X19053080Y-8048240D01*
X19164042Y-8029202D02*
X19164042Y-7937278D01*
X19072118Y-7937278D01*
X19072118Y-8029202D01*
X19164042Y-8029202D01*
X19561080Y-7918240D02*
X19691080Y-8048240D01*
X19691080Y-7918240D02*
X19561080Y-8048240D01*
X19672042Y-8029202D02*
X19672042Y-7937278D01*
X19580118Y-7937278D01*
X19580118Y-8029202D01*
X19672042Y-8029202D01*
D19*
X9058050Y-4227950D02*
X9208050Y-4377950D01*
X9208050Y-4227950D02*
X9058050Y-4377950D01*
X9133050Y-4377950D02*
X9208050Y-4302950D01*
X9133050Y-4227950D01*
X9058050Y-4302950D01*
X9133050Y-4377950D01*
X9058050Y-5727950D02*
X9208050Y-5877950D01*
X9208050Y-5727950D02*
X9058050Y-5877950D01*
X9133050Y-5877950D02*
X9208050Y-5802950D01*
X9133050Y-5727950D01*
X9058050Y-5802950D01*
X9133050Y-5877950D01*
X9058050Y-6227950D02*
X9208050Y-6377950D01*
X9208050Y-6227950D02*
X9058050Y-6377950D01*
X9133050Y-6377950D02*
X9208050Y-6302950D01*
X9133050Y-6227950D01*
X9058050Y-6302950D01*
X9133050Y-6377950D01*
X9058050Y-6727950D02*
X9208050Y-6877950D01*
X9208050Y-6727950D02*
X9058050Y-6877950D01*
X9133050Y-6877950D02*
X9208050Y-6802950D01*
X9133050Y-6727950D01*
X9058050Y-6802950D01*
X9133050Y-6877950D01*
X9808050Y-4227950D02*
X9958050Y-4377950D01*
X9958050Y-4227950D02*
X9808050Y-4377950D01*
X9883050Y-4377950D02*
X9958050Y-4302950D01*
X9883050Y-4227950D01*
X9808050Y-4302950D01*
X9883050Y-4377950D01*
X9808050Y-5727950D02*
X9958050Y-5877950D01*
X9958050Y-5727950D02*
X9808050Y-5877950D01*
X9883050Y-5877950D02*
X9958050Y-5802950D01*
X9883050Y-5727950D01*
X9808050Y-5802950D01*
X9883050Y-5877950D01*
X9808050Y-6227950D02*
X9958050Y-6377950D01*
X9958050Y-6227950D02*
X9808050Y-6377950D01*
X9883050Y-6377950D02*
X9958050Y-6302950D01*
X9883050Y-6227950D01*
X9808050Y-6302950D01*
X9883050Y-6377950D01*
X9808050Y-6727950D02*
X9958050Y-6877950D01*
X9958050Y-6727950D02*
X9808050Y-6877950D01*
X9883050Y-6877950D02*
X9958050Y-6802950D01*
X9883050Y-6727950D01*
X9808050Y-6802950D01*
X9883050Y-6877950D01*
X13696880Y-4183180D02*
X13846880Y-4333180D01*
X13846880Y-4183180D02*
X13696880Y-4333180D01*
X13771880Y-4333180D02*
X13846880Y-4258180D01*
X13771880Y-4183180D01*
X13696880Y-4258180D01*
X13771880Y-4333180D01*
X13696880Y-5683180D02*
X13846880Y-5833180D01*
X13846880Y-5683180D02*
X13696880Y-5833180D01*
X13771880Y-5833180D02*
X13846880Y-5758180D01*
X13771880Y-5683180D01*
X13696880Y-5758180D01*
X13771880Y-5833180D01*
X13696880Y-6183180D02*
X13846880Y-6333180D01*
X13846880Y-6183180D02*
X13696880Y-6333180D01*
X13771880Y-6333180D02*
X13846880Y-6258180D01*
X13771880Y-6183180D01*
X13696880Y-6258180D01*
X13771880Y-6333180D01*
X13696880Y-6683180D02*
X13846880Y-6833180D01*
X13846880Y-6683180D02*
X13696880Y-6833180D01*
X13771880Y-6833180D02*
X13846880Y-6758180D01*
X13771880Y-6683180D01*
X13696880Y-6758180D01*
X13771880Y-6833180D01*
X14446880Y-4183180D02*
X14596880Y-4333180D01*
X14596880Y-4183180D02*
X14446880Y-4333180D01*
X14521880Y-4333180D02*
X14596880Y-4258180D01*
X14521880Y-4183180D01*
X14446880Y-4258180D01*
X14521880Y-4333180D01*
X14446880Y-5683180D02*
X14596880Y-5833180D01*
X14596880Y-5683180D02*
X14446880Y-5833180D01*
X14521880Y-5833180D02*
X14596880Y-5758180D01*
X14521880Y-5683180D01*
X14446880Y-5758180D01*
X14521880Y-5833180D01*
X14446880Y-6183180D02*
X14596880Y-6333180D01*
X14596880Y-6183180D02*
X14446880Y-6333180D01*
X14521880Y-6333180D02*
X14596880Y-6258180D01*
X14521880Y-6183180D01*
X14446880Y-6258180D01*
X14521880Y-6333180D01*
X14446880Y-6683180D02*
X14596880Y-6833180D01*
X14596880Y-6683180D02*
X14446880Y-6833180D01*
X14521880Y-6833180D02*
X14596880Y-6758180D01*
X14521880Y-6683180D01*
X14446880Y-6758180D01*
X14521880Y-6833180D01*
X18694810Y-4291450D02*
X18844810Y-4441450D01*
X18844810Y-4291450D02*
X18694810Y-4441450D01*
X18769810Y-4441450D02*
X18844810Y-4366450D01*
X18769810Y-4291450D01*
X18694810Y-4366450D01*
X18769810Y-4441450D01*
X18694810Y-5791450D02*
X18844810Y-5941450D01*
X18844810Y-5791450D02*
X18694810Y-5941450D01*
X18769810Y-5941450D02*
X18844810Y-5866450D01*
X18769810Y-5791450D01*
X18694810Y-5866450D01*
X18769810Y-5941450D01*
X18694810Y-6291450D02*
X18844810Y-6441450D01*
X18844810Y-6291450D02*
X18694810Y-6441450D01*
X18769810Y-6441450D02*
X18844810Y-6366450D01*
X18769810Y-6291450D01*
X18694810Y-6366450D01*
X18769810Y-6441450D01*
X18694810Y-6791450D02*
X18844810Y-6941450D01*
X18844810Y-6791450D02*
X18694810Y-6941450D01*
X18769810Y-6941450D02*
X18844810Y-6866450D01*
X18769810Y-6791450D01*
X18694810Y-6866450D01*
X18769810Y-6941450D01*
X19444810Y-4291450D02*
X19594810Y-4441450D01*
X19594810Y-4291450D02*
X19444810Y-4441450D01*
X19519810Y-4441450D02*
X19594810Y-4366450D01*
X19519810Y-4291450D01*
X19444810Y-4366450D01*
X19519810Y-4441450D01*
X19444810Y-5791450D02*
X19594810Y-5941450D01*
X19594810Y-5791450D02*
X19444810Y-5941450D01*
X19519810Y-5941450D02*
X19594810Y-5866450D01*
X19519810Y-5791450D01*
X19444810Y-5866450D01*
X19519810Y-5941450D01*
X19444810Y-6291450D02*
X19594810Y-6441450D01*
X19594810Y-6291450D02*
X19444810Y-6441450D01*
X19519810Y-6441450D02*
X19594810Y-6366450D01*
X19519810Y-6291450D01*
X19444810Y-6366450D01*
X19519810Y-6441450D01*
X19444810Y-6791450D02*
X19594810Y-6941450D01*
X19594810Y-6791450D02*
X19444810Y-6941450D01*
X19519810Y-6941450D02*
X19594810Y-6866450D01*
X19519810Y-6791450D01*
X19444810Y-6866450D01*
X19519810Y-6941450D01*
D11*
X3606037Y-9800844D02*
X3606037Y-9600844D01*
X3606037Y-9600844D02*
X3653656Y-9600844D01*
X3653656Y-9600844D02*
X3682227Y-9610368D01*
X3682227Y-9610368D02*
X3701275Y-9629415D01*
X3701275Y-9629415D02*
X3710799Y-9648463D01*
X3710799Y-9648463D02*
X3720322Y-9686558D01*
X3720322Y-9686558D02*
X3720322Y-9715130D01*
X3720322Y-9715130D02*
X3710799Y-9753225D01*
X3710799Y-9753225D02*
X3701275Y-9772272D01*
X3701275Y-9772272D02*
X3682227Y-9791320D01*
X3682227Y-9791320D02*
X3653656Y-9800844D01*
X3653656Y-9800844D02*
X3606037Y-9800844D01*
X3806037Y-9800844D02*
X3806037Y-9667510D01*
X3806037Y-9705606D02*
X3815561Y-9686558D01*
X3815561Y-9686558D02*
X3825084Y-9677034D01*
X3825084Y-9677034D02*
X3844132Y-9667510D01*
X3844132Y-9667510D02*
X3863180Y-9667510D01*
X3929846Y-9800844D02*
X3929846Y-9667510D01*
X3929846Y-9600844D02*
X3920322Y-9610368D01*
X3920322Y-9610368D02*
X3929846Y-9619891D01*
X3929846Y-9619891D02*
X3939370Y-9610368D01*
X3939370Y-9610368D02*
X3929846Y-9600844D01*
X3929846Y-9600844D02*
X3929846Y-9619891D01*
X4053656Y-9800844D02*
X4034608Y-9791320D01*
X4034608Y-9791320D02*
X4025084Y-9772272D01*
X4025084Y-9772272D02*
X4025084Y-9600844D01*
X4158418Y-9800844D02*
X4139370Y-9791320D01*
X4139370Y-9791320D02*
X4129846Y-9772272D01*
X4129846Y-9772272D02*
X4129846Y-9600844D01*
X4386989Y-9800844D02*
X4386989Y-9600844D01*
X4386989Y-9600844D02*
X4453656Y-9743701D01*
X4453656Y-9743701D02*
X4520323Y-9600844D01*
X4520323Y-9600844D02*
X4520323Y-9800844D01*
X4701275Y-9800844D02*
X4701275Y-9696082D01*
X4701275Y-9696082D02*
X4691751Y-9677034D01*
X4691751Y-9677034D02*
X4672704Y-9667510D01*
X4672704Y-9667510D02*
X4634608Y-9667510D01*
X4634608Y-9667510D02*
X4615561Y-9677034D01*
X4701275Y-9791320D02*
X4682227Y-9800844D01*
X4682227Y-9800844D02*
X4634608Y-9800844D01*
X4634608Y-9800844D02*
X4615561Y-9791320D01*
X4615561Y-9791320D02*
X4606037Y-9772272D01*
X4606037Y-9772272D02*
X4606037Y-9753225D01*
X4606037Y-9753225D02*
X4615561Y-9734177D01*
X4615561Y-9734177D02*
X4634608Y-9724653D01*
X4634608Y-9724653D02*
X4682227Y-9724653D01*
X4682227Y-9724653D02*
X4701275Y-9715130D01*
X4796513Y-9667510D02*
X4796513Y-9867510D01*
X4796513Y-9677034D02*
X4815561Y-9667510D01*
X4815561Y-9667510D02*
X4853656Y-9667510D01*
X4853656Y-9667510D02*
X4872704Y-9677034D01*
X4872704Y-9677034D02*
X4882227Y-9686558D01*
X4882227Y-9686558D02*
X4891751Y-9705606D01*
X4891751Y-9705606D02*
X4891751Y-9762749D01*
X4891751Y-9762749D02*
X4882227Y-9781796D01*
X4882227Y-9781796D02*
X4872704Y-9791320D01*
X4872704Y-9791320D02*
X4853656Y-9800844D01*
X4853656Y-9800844D02*
X4815561Y-9800844D01*
X4815561Y-9800844D02*
X4796513Y-9791320D01*
X4977465Y-9781796D02*
X4986989Y-9791320D01*
X4986989Y-9791320D02*
X4977465Y-9800844D01*
X4977465Y-9800844D02*
X4967942Y-9791320D01*
X4967942Y-9791320D02*
X4977465Y-9781796D01*
X4977465Y-9781796D02*
X4977465Y-9800844D01*
X4977465Y-9677034D02*
X4986989Y-9686558D01*
X4986989Y-9686558D02*
X4977465Y-9696082D01*
X4977465Y-9696082D02*
X4967942Y-9686558D01*
X4967942Y-9686558D02*
X4977465Y-9677034D01*
X4977465Y-9677034D02*
X4977465Y-9696082D01*
D12*
X3305260Y-10109360D02*
X3345260Y-10149360D01*
X3345260Y-10109360D02*
X3305260Y-10149360D01*
D11*
X3644132Y-10020844D02*
X3663180Y-10020844D01*
X3663180Y-10020844D02*
X3682227Y-10030368D01*
X3682227Y-10030368D02*
X3691751Y-10039891D01*
X3691751Y-10039891D02*
X3701275Y-10058939D01*
X3701275Y-10058939D02*
X3710799Y-10097034D01*
X3710799Y-10097034D02*
X3710799Y-10144653D01*
X3710799Y-10144653D02*
X3701275Y-10182749D01*
X3701275Y-10182749D02*
X3691751Y-10201796D01*
X3691751Y-10201796D02*
X3682227Y-10211320D01*
X3682227Y-10211320D02*
X3663180Y-10220844D01*
X3663180Y-10220844D02*
X3644132Y-10220844D01*
X3644132Y-10220844D02*
X3625084Y-10211320D01*
X3625084Y-10211320D02*
X3615561Y-10201796D01*
X3615561Y-10201796D02*
X3606037Y-10182749D01*
X3606037Y-10182749D02*
X3596513Y-10144653D01*
X3596513Y-10144653D02*
X3596513Y-10097034D01*
X3596513Y-10097034D02*
X3606037Y-10058939D01*
X3606037Y-10058939D02*
X3615561Y-10039891D01*
X3615561Y-10039891D02*
X3625084Y-10030368D01*
X3625084Y-10030368D02*
X3644132Y-10020844D01*
X3796513Y-10201796D02*
X3806037Y-10211320D01*
X3806037Y-10211320D02*
X3796513Y-10220844D01*
X3796513Y-10220844D02*
X3786989Y-10211320D01*
X3786989Y-10211320D02*
X3796513Y-10201796D01*
X3796513Y-10201796D02*
X3796513Y-10220844D01*
X3977465Y-10087510D02*
X3977465Y-10220844D01*
X3929846Y-10011320D02*
X3882227Y-10154177D01*
X3882227Y-10154177D02*
X4006037Y-10154177D01*
X4120322Y-10020844D02*
X4139370Y-10020844D01*
X4139370Y-10020844D02*
X4158418Y-10030368D01*
X4158418Y-10030368D02*
X4167942Y-10039891D01*
X4167942Y-10039891D02*
X4177465Y-10058939D01*
X4177465Y-10058939D02*
X4186989Y-10097034D01*
X4186989Y-10097034D02*
X4186989Y-10144653D01*
X4186989Y-10144653D02*
X4177465Y-10182749D01*
X4177465Y-10182749D02*
X4167942Y-10201796D01*
X4167942Y-10201796D02*
X4158418Y-10211320D01*
X4158418Y-10211320D02*
X4139370Y-10220844D01*
X4139370Y-10220844D02*
X4120322Y-10220844D01*
X4120322Y-10220844D02*
X4101275Y-10211320D01*
X4101275Y-10211320D02*
X4091751Y-10201796D01*
X4091751Y-10201796D02*
X4082227Y-10182749D01*
X4082227Y-10182749D02*
X4072703Y-10144653D01*
X4072703Y-10144653D02*
X4072703Y-10097034D01*
X4072703Y-10097034D02*
X4082227Y-10058939D01*
X4082227Y-10058939D02*
X4091751Y-10039891D01*
X4091751Y-10039891D02*
X4101275Y-10030368D01*
X4101275Y-10030368D02*
X4120322Y-10020844D01*
X4310799Y-10020844D02*
X4329846Y-10020844D01*
X4329846Y-10020844D02*
X4348894Y-10030368D01*
X4348894Y-10030368D02*
X4358418Y-10039891D01*
X4358418Y-10039891D02*
X4367942Y-10058939D01*
X4367942Y-10058939D02*
X4377465Y-10097034D01*
X4377465Y-10097034D02*
X4377465Y-10144653D01*
X4377465Y-10144653D02*
X4367942Y-10182749D01*
X4367942Y-10182749D02*
X4358418Y-10201796D01*
X4358418Y-10201796D02*
X4348894Y-10211320D01*
X4348894Y-10211320D02*
X4329846Y-10220844D01*
X4329846Y-10220844D02*
X4310799Y-10220844D01*
X4310799Y-10220844D02*
X4291751Y-10211320D01*
X4291751Y-10211320D02*
X4282227Y-10201796D01*
X4282227Y-10201796D02*
X4272704Y-10182749D01*
X4272704Y-10182749D02*
X4263180Y-10144653D01*
X4263180Y-10144653D02*
X4263180Y-10097034D01*
X4263180Y-10097034D02*
X4272704Y-10058939D01*
X4272704Y-10058939D02*
X4282227Y-10039891D01*
X4282227Y-10039891D02*
X4291751Y-10030368D01*
X4291751Y-10030368D02*
X4310799Y-10020844D01*
X4463180Y-10220844D02*
X4463180Y-10087510D01*
X4463180Y-10106558D02*
X4472704Y-10097034D01*
X4472704Y-10097034D02*
X4491751Y-10087510D01*
X4491751Y-10087510D02*
X4520323Y-10087510D01*
X4520323Y-10087510D02*
X4539370Y-10097034D01*
X4539370Y-10097034D02*
X4548894Y-10116082D01*
X4548894Y-10116082D02*
X4548894Y-10220844D01*
X4548894Y-10116082D02*
X4558418Y-10097034D01*
X4558418Y-10097034D02*
X4577465Y-10087510D01*
X4577465Y-10087510D02*
X4606037Y-10087510D01*
X4606037Y-10087510D02*
X4625085Y-10097034D01*
X4625085Y-10097034D02*
X4634608Y-10116082D01*
X4634608Y-10116082D02*
X4634608Y-10220844D01*
X4729846Y-10220844D02*
X4729846Y-10087510D01*
X4729846Y-10106558D02*
X4739370Y-10097034D01*
X4739370Y-10097034D02*
X4758418Y-10087510D01*
X4758418Y-10087510D02*
X4786989Y-10087510D01*
X4786989Y-10087510D02*
X4806037Y-10097034D01*
X4806037Y-10097034D02*
X4815561Y-10116082D01*
X4815561Y-10116082D02*
X4815561Y-10220844D01*
X4815561Y-10116082D02*
X4825085Y-10097034D01*
X4825085Y-10097034D02*
X4844132Y-10087510D01*
X4844132Y-10087510D02*
X4872704Y-10087510D01*
X4872704Y-10087510D02*
X4891751Y-10097034D01*
X4891751Y-10097034D02*
X4901275Y-10116082D01*
X4901275Y-10116082D02*
X4901275Y-10220844D01*
X5291751Y-10011320D02*
X5120323Y-10268463D01*
X5548894Y-10020844D02*
X5567942Y-10020844D01*
X5567942Y-10020844D02*
X5586989Y-10030368D01*
X5586989Y-10030368D02*
X5596513Y-10039891D01*
X5596513Y-10039891D02*
X5606037Y-10058939D01*
X5606037Y-10058939D02*
X5615561Y-10097034D01*
X5615561Y-10097034D02*
X5615561Y-10144653D01*
X5615561Y-10144653D02*
X5606037Y-10182749D01*
X5606037Y-10182749D02*
X5596513Y-10201796D01*
X5596513Y-10201796D02*
X5586989Y-10211320D01*
X5586989Y-10211320D02*
X5567942Y-10220844D01*
X5567942Y-10220844D02*
X5548894Y-10220844D01*
X5548894Y-10220844D02*
X5529847Y-10211320D01*
X5529847Y-10211320D02*
X5520323Y-10201796D01*
X5520323Y-10201796D02*
X5510799Y-10182749D01*
X5510799Y-10182749D02*
X5501275Y-10144653D01*
X5501275Y-10144653D02*
X5501275Y-10097034D01*
X5501275Y-10097034D02*
X5510799Y-10058939D01*
X5510799Y-10058939D02*
X5520323Y-10039891D01*
X5520323Y-10039891D02*
X5529847Y-10030368D01*
X5529847Y-10030368D02*
X5548894Y-10020844D01*
X5701275Y-10201796D02*
X5710799Y-10211320D01*
X5710799Y-10211320D02*
X5701275Y-10220844D01*
X5701275Y-10220844D02*
X5691751Y-10211320D01*
X5691751Y-10211320D02*
X5701275Y-10201796D01*
X5701275Y-10201796D02*
X5701275Y-10220844D01*
X5834608Y-10020844D02*
X5853656Y-10020844D01*
X5853656Y-10020844D02*
X5872704Y-10030368D01*
X5872704Y-10030368D02*
X5882227Y-10039891D01*
X5882227Y-10039891D02*
X5891751Y-10058939D01*
X5891751Y-10058939D02*
X5901275Y-10097034D01*
X5901275Y-10097034D02*
X5901275Y-10144653D01*
X5901275Y-10144653D02*
X5891751Y-10182749D01*
X5891751Y-10182749D02*
X5882227Y-10201796D01*
X5882227Y-10201796D02*
X5872704Y-10211320D01*
X5872704Y-10211320D02*
X5853656Y-10220844D01*
X5853656Y-10220844D02*
X5834608Y-10220844D01*
X5834608Y-10220844D02*
X5815561Y-10211320D01*
X5815561Y-10211320D02*
X5806037Y-10201796D01*
X5806037Y-10201796D02*
X5796513Y-10182749D01*
X5796513Y-10182749D02*
X5786989Y-10144653D01*
X5786989Y-10144653D02*
X5786989Y-10097034D01*
X5786989Y-10097034D02*
X5796513Y-10058939D01*
X5796513Y-10058939D02*
X5806037Y-10039891D01*
X5806037Y-10039891D02*
X5815561Y-10030368D01*
X5815561Y-10030368D02*
X5834608Y-10020844D01*
X6091751Y-10220844D02*
X5977466Y-10220844D01*
X6034608Y-10220844D02*
X6034608Y-10020844D01*
X6034608Y-10020844D02*
X6015561Y-10049415D01*
X6015561Y-10049415D02*
X5996513Y-10068463D01*
X5996513Y-10068463D02*
X5977466Y-10077987D01*
X6272704Y-10020844D02*
X6177466Y-10020844D01*
X6177466Y-10020844D02*
X6167942Y-10116082D01*
X6167942Y-10116082D02*
X6177466Y-10106558D01*
X6177466Y-10106558D02*
X6196513Y-10097034D01*
X6196513Y-10097034D02*
X6244132Y-10097034D01*
X6244132Y-10097034D02*
X6263180Y-10106558D01*
X6263180Y-10106558D02*
X6272704Y-10116082D01*
X6272704Y-10116082D02*
X6282227Y-10135130D01*
X6282227Y-10135130D02*
X6282227Y-10182749D01*
X6282227Y-10182749D02*
X6272704Y-10201796D01*
X6272704Y-10201796D02*
X6263180Y-10211320D01*
X6263180Y-10211320D02*
X6244132Y-10220844D01*
X6244132Y-10220844D02*
X6196513Y-10220844D01*
X6196513Y-10220844D02*
X6177466Y-10211320D01*
X6177466Y-10211320D02*
X6167942Y-10201796D01*
X6348894Y-10020844D02*
X6482227Y-10020844D01*
X6482227Y-10020844D02*
X6396513Y-10220844D01*
X6548894Y-10020844D02*
X6548894Y-10058939D01*
X6625085Y-10020844D02*
X6625085Y-10058939D01*
X6920323Y-10297034D02*
X6910799Y-10287510D01*
X6910799Y-10287510D02*
X6891751Y-10258939D01*
X6891751Y-10258939D02*
X6882228Y-10239891D01*
X6882228Y-10239891D02*
X6872704Y-10211320D01*
X6872704Y-10211320D02*
X6863180Y-10163701D01*
X6863180Y-10163701D02*
X6863180Y-10125606D01*
X6863180Y-10125606D02*
X6872704Y-10077987D01*
X6872704Y-10077987D02*
X6882228Y-10049415D01*
X6882228Y-10049415D02*
X6891751Y-10030368D01*
X6891751Y-10030368D02*
X6910799Y-10001796D01*
X6910799Y-10001796D02*
X6920323Y-9992272D01*
X7006037Y-10220844D02*
X7044132Y-10220844D01*
X7044132Y-10220844D02*
X7063180Y-10211320D01*
X7063180Y-10211320D02*
X7072704Y-10201796D01*
X7072704Y-10201796D02*
X7091751Y-10173225D01*
X7091751Y-10173225D02*
X7101275Y-10135130D01*
X7101275Y-10135130D02*
X7101275Y-10058939D01*
X7101275Y-10058939D02*
X7091751Y-10039891D01*
X7091751Y-10039891D02*
X7082228Y-10030368D01*
X7082228Y-10030368D02*
X7063180Y-10020844D01*
X7063180Y-10020844D02*
X7025085Y-10020844D01*
X7025085Y-10020844D02*
X7006037Y-10030368D01*
X7006037Y-10030368D02*
X6996513Y-10039891D01*
X6996513Y-10039891D02*
X6986989Y-10058939D01*
X6986989Y-10058939D02*
X6986989Y-10106558D01*
X6986989Y-10106558D02*
X6996513Y-10125606D01*
X6996513Y-10125606D02*
X7006037Y-10135130D01*
X7006037Y-10135130D02*
X7025085Y-10144653D01*
X7025085Y-10144653D02*
X7063180Y-10144653D01*
X7063180Y-10144653D02*
X7082228Y-10135130D01*
X7082228Y-10135130D02*
X7091751Y-10125606D01*
X7091751Y-10125606D02*
X7101275Y-10106558D01*
X7339370Y-10220844D02*
X7339370Y-10020844D01*
X7425085Y-10220844D02*
X7425085Y-10116082D01*
X7425085Y-10116082D02*
X7415561Y-10097034D01*
X7415561Y-10097034D02*
X7396513Y-10087510D01*
X7396513Y-10087510D02*
X7367942Y-10087510D01*
X7367942Y-10087510D02*
X7348894Y-10097034D01*
X7348894Y-10097034D02*
X7339370Y-10106558D01*
X7548894Y-10220844D02*
X7529847Y-10211320D01*
X7529847Y-10211320D02*
X7520323Y-10201796D01*
X7520323Y-10201796D02*
X7510799Y-10182749D01*
X7510799Y-10182749D02*
X7510799Y-10125606D01*
X7510799Y-10125606D02*
X7520323Y-10106558D01*
X7520323Y-10106558D02*
X7529847Y-10097034D01*
X7529847Y-10097034D02*
X7548894Y-10087510D01*
X7548894Y-10087510D02*
X7577466Y-10087510D01*
X7577466Y-10087510D02*
X7596513Y-10097034D01*
X7596513Y-10097034D02*
X7606037Y-10106558D01*
X7606037Y-10106558D02*
X7615561Y-10125606D01*
X7615561Y-10125606D02*
X7615561Y-10182749D01*
X7615561Y-10182749D02*
X7606037Y-10201796D01*
X7606037Y-10201796D02*
X7596513Y-10211320D01*
X7596513Y-10211320D02*
X7577466Y-10220844D01*
X7577466Y-10220844D02*
X7548894Y-10220844D01*
X7729847Y-10220844D02*
X7710799Y-10211320D01*
X7710799Y-10211320D02*
X7701275Y-10192272D01*
X7701275Y-10192272D02*
X7701275Y-10020844D01*
X7882228Y-10211320D02*
X7863180Y-10220844D01*
X7863180Y-10220844D02*
X7825085Y-10220844D01*
X7825085Y-10220844D02*
X7806037Y-10211320D01*
X7806037Y-10211320D02*
X7796513Y-10192272D01*
X7796513Y-10192272D02*
X7796513Y-10116082D01*
X7796513Y-10116082D02*
X7806037Y-10097034D01*
X7806037Y-10097034D02*
X7825085Y-10087510D01*
X7825085Y-10087510D02*
X7863180Y-10087510D01*
X7863180Y-10087510D02*
X7882228Y-10097034D01*
X7882228Y-10097034D02*
X7891751Y-10116082D01*
X7891751Y-10116082D02*
X7891751Y-10135130D01*
X7891751Y-10135130D02*
X7796513Y-10154177D01*
X7967942Y-10211320D02*
X7986990Y-10220844D01*
X7986990Y-10220844D02*
X8025085Y-10220844D01*
X8025085Y-10220844D02*
X8044132Y-10211320D01*
X8044132Y-10211320D02*
X8053656Y-10192272D01*
X8053656Y-10192272D02*
X8053656Y-10182749D01*
X8053656Y-10182749D02*
X8044132Y-10163701D01*
X8044132Y-10163701D02*
X8025085Y-10154177D01*
X8025085Y-10154177D02*
X7996513Y-10154177D01*
X7996513Y-10154177D02*
X7977466Y-10144653D01*
X7977466Y-10144653D02*
X7967942Y-10125606D01*
X7967942Y-10125606D02*
X7967942Y-10116082D01*
X7967942Y-10116082D02*
X7977466Y-10097034D01*
X7977466Y-10097034D02*
X7996513Y-10087510D01*
X7996513Y-10087510D02*
X8025085Y-10087510D01*
X8025085Y-10087510D02*
X8044132Y-10097034D01*
X8120323Y-10297034D02*
X8129847Y-10287510D01*
X8129847Y-10287510D02*
X8148894Y-10258939D01*
X8148894Y-10258939D02*
X8158418Y-10239891D01*
X8158418Y-10239891D02*
X8167942Y-10211320D01*
X8167942Y-10211320D02*
X8177466Y-10163701D01*
X8177466Y-10163701D02*
X8177466Y-10125606D01*
X8177466Y-10125606D02*
X8167942Y-10077987D01*
X8167942Y-10077987D02*
X8158418Y-10049415D01*
X8158418Y-10049415D02*
X8148894Y-10030368D01*
X8148894Y-10030368D02*
X8129847Y-10001796D01*
X8129847Y-10001796D02*
X8120323Y-9992272D01*
D13*
X3345260Y-10393360D02*
G75*
G03*
X3345260Y-10393360I-38500J0D01*
G01*
D11*
X3644132Y-10284844D02*
X3663180Y-10284844D01*
X3663180Y-10284844D02*
X3682227Y-10294368D01*
X3682227Y-10294368D02*
X3691751Y-10303891D01*
X3691751Y-10303891D02*
X3701275Y-10322939D01*
X3701275Y-10322939D02*
X3710799Y-10361034D01*
X3710799Y-10361034D02*
X3710799Y-10408653D01*
X3710799Y-10408653D02*
X3701275Y-10446749D01*
X3701275Y-10446749D02*
X3691751Y-10465796D01*
X3691751Y-10465796D02*
X3682227Y-10475320D01*
X3682227Y-10475320D02*
X3663180Y-10484844D01*
X3663180Y-10484844D02*
X3644132Y-10484844D01*
X3644132Y-10484844D02*
X3625084Y-10475320D01*
X3625084Y-10475320D02*
X3615561Y-10465796D01*
X3615561Y-10465796D02*
X3606037Y-10446749D01*
X3606037Y-10446749D02*
X3596513Y-10408653D01*
X3596513Y-10408653D02*
X3596513Y-10361034D01*
X3596513Y-10361034D02*
X3606037Y-10322939D01*
X3606037Y-10322939D02*
X3615561Y-10303891D01*
X3615561Y-10303891D02*
X3625084Y-10294368D01*
X3625084Y-10294368D02*
X3644132Y-10284844D01*
X3796513Y-10465796D02*
X3806037Y-10475320D01*
X3806037Y-10475320D02*
X3796513Y-10484844D01*
X3796513Y-10484844D02*
X3786989Y-10475320D01*
X3786989Y-10475320D02*
X3796513Y-10465796D01*
X3796513Y-10465796D02*
X3796513Y-10484844D01*
X3872703Y-10284844D02*
X4006037Y-10284844D01*
X4006037Y-10284844D02*
X3920322Y-10484844D01*
X4063180Y-10284844D02*
X4196513Y-10284844D01*
X4196513Y-10284844D02*
X4110799Y-10484844D01*
X4310799Y-10284844D02*
X4329846Y-10284844D01*
X4329846Y-10284844D02*
X4348894Y-10294368D01*
X4348894Y-10294368D02*
X4358418Y-10303891D01*
X4358418Y-10303891D02*
X4367942Y-10322939D01*
X4367942Y-10322939D02*
X4377465Y-10361034D01*
X4377465Y-10361034D02*
X4377465Y-10408653D01*
X4377465Y-10408653D02*
X4367942Y-10446749D01*
X4367942Y-10446749D02*
X4358418Y-10465796D01*
X4358418Y-10465796D02*
X4348894Y-10475320D01*
X4348894Y-10475320D02*
X4329846Y-10484844D01*
X4329846Y-10484844D02*
X4310799Y-10484844D01*
X4310799Y-10484844D02*
X4291751Y-10475320D01*
X4291751Y-10475320D02*
X4282227Y-10465796D01*
X4282227Y-10465796D02*
X4272704Y-10446749D01*
X4272704Y-10446749D02*
X4263180Y-10408653D01*
X4263180Y-10408653D02*
X4263180Y-10361034D01*
X4263180Y-10361034D02*
X4272704Y-10322939D01*
X4272704Y-10322939D02*
X4282227Y-10303891D01*
X4282227Y-10303891D02*
X4291751Y-10294368D01*
X4291751Y-10294368D02*
X4310799Y-10284844D01*
X4463180Y-10484844D02*
X4463180Y-10351510D01*
X4463180Y-10370558D02*
X4472704Y-10361034D01*
X4472704Y-10361034D02*
X4491751Y-10351510D01*
X4491751Y-10351510D02*
X4520323Y-10351510D01*
X4520323Y-10351510D02*
X4539370Y-10361034D01*
X4539370Y-10361034D02*
X4548894Y-10380082D01*
X4548894Y-10380082D02*
X4548894Y-10484844D01*
X4548894Y-10380082D02*
X4558418Y-10361034D01*
X4558418Y-10361034D02*
X4577465Y-10351510D01*
X4577465Y-10351510D02*
X4606037Y-10351510D01*
X4606037Y-10351510D02*
X4625085Y-10361034D01*
X4625085Y-10361034D02*
X4634608Y-10380082D01*
X4634608Y-10380082D02*
X4634608Y-10484844D01*
X4729846Y-10484844D02*
X4729846Y-10351510D01*
X4729846Y-10370558D02*
X4739370Y-10361034D01*
X4739370Y-10361034D02*
X4758418Y-10351510D01*
X4758418Y-10351510D02*
X4786989Y-10351510D01*
X4786989Y-10351510D02*
X4806037Y-10361034D01*
X4806037Y-10361034D02*
X4815561Y-10380082D01*
X4815561Y-10380082D02*
X4815561Y-10484844D01*
X4815561Y-10380082D02*
X4825085Y-10361034D01*
X4825085Y-10361034D02*
X4844132Y-10351510D01*
X4844132Y-10351510D02*
X4872704Y-10351510D01*
X4872704Y-10351510D02*
X4891751Y-10361034D01*
X4891751Y-10361034D02*
X4901275Y-10380082D01*
X4901275Y-10380082D02*
X4901275Y-10484844D01*
X5291751Y-10275320D02*
X5120323Y-10532463D01*
X5548894Y-10284844D02*
X5567942Y-10284844D01*
X5567942Y-10284844D02*
X5586989Y-10294368D01*
X5586989Y-10294368D02*
X5596513Y-10303891D01*
X5596513Y-10303891D02*
X5606037Y-10322939D01*
X5606037Y-10322939D02*
X5615561Y-10361034D01*
X5615561Y-10361034D02*
X5615561Y-10408653D01*
X5615561Y-10408653D02*
X5606037Y-10446749D01*
X5606037Y-10446749D02*
X5596513Y-10465796D01*
X5596513Y-10465796D02*
X5586989Y-10475320D01*
X5586989Y-10475320D02*
X5567942Y-10484844D01*
X5567942Y-10484844D02*
X5548894Y-10484844D01*
X5548894Y-10484844D02*
X5529847Y-10475320D01*
X5529847Y-10475320D02*
X5520323Y-10465796D01*
X5520323Y-10465796D02*
X5510799Y-10446749D01*
X5510799Y-10446749D02*
X5501275Y-10408653D01*
X5501275Y-10408653D02*
X5501275Y-10361034D01*
X5501275Y-10361034D02*
X5510799Y-10322939D01*
X5510799Y-10322939D02*
X5520323Y-10303891D01*
X5520323Y-10303891D02*
X5529847Y-10294368D01*
X5529847Y-10294368D02*
X5548894Y-10284844D01*
X5701275Y-10465796D02*
X5710799Y-10475320D01*
X5710799Y-10475320D02*
X5701275Y-10484844D01*
X5701275Y-10484844D02*
X5691751Y-10475320D01*
X5691751Y-10475320D02*
X5701275Y-10465796D01*
X5701275Y-10465796D02*
X5701275Y-10484844D01*
X5834608Y-10284844D02*
X5853656Y-10284844D01*
X5853656Y-10284844D02*
X5872704Y-10294368D01*
X5872704Y-10294368D02*
X5882227Y-10303891D01*
X5882227Y-10303891D02*
X5891751Y-10322939D01*
X5891751Y-10322939D02*
X5901275Y-10361034D01*
X5901275Y-10361034D02*
X5901275Y-10408653D01*
X5901275Y-10408653D02*
X5891751Y-10446749D01*
X5891751Y-10446749D02*
X5882227Y-10465796D01*
X5882227Y-10465796D02*
X5872704Y-10475320D01*
X5872704Y-10475320D02*
X5853656Y-10484844D01*
X5853656Y-10484844D02*
X5834608Y-10484844D01*
X5834608Y-10484844D02*
X5815561Y-10475320D01*
X5815561Y-10475320D02*
X5806037Y-10465796D01*
X5806037Y-10465796D02*
X5796513Y-10446749D01*
X5796513Y-10446749D02*
X5786989Y-10408653D01*
X5786989Y-10408653D02*
X5786989Y-10361034D01*
X5786989Y-10361034D02*
X5796513Y-10322939D01*
X5796513Y-10322939D02*
X5806037Y-10303891D01*
X5806037Y-10303891D02*
X5815561Y-10294368D01*
X5815561Y-10294368D02*
X5834608Y-10284844D01*
X5967942Y-10284844D02*
X6091751Y-10284844D01*
X6091751Y-10284844D02*
X6025085Y-10361034D01*
X6025085Y-10361034D02*
X6053656Y-10361034D01*
X6053656Y-10361034D02*
X6072704Y-10370558D01*
X6072704Y-10370558D02*
X6082227Y-10380082D01*
X6082227Y-10380082D02*
X6091751Y-10399130D01*
X6091751Y-10399130D02*
X6091751Y-10446749D01*
X6091751Y-10446749D02*
X6082227Y-10465796D01*
X6082227Y-10465796D02*
X6072704Y-10475320D01*
X6072704Y-10475320D02*
X6053656Y-10484844D01*
X6053656Y-10484844D02*
X5996513Y-10484844D01*
X5996513Y-10484844D02*
X5977466Y-10475320D01*
X5977466Y-10475320D02*
X5967942Y-10465796D01*
X6215561Y-10284844D02*
X6234608Y-10284844D01*
X6234608Y-10284844D02*
X6253656Y-10294368D01*
X6253656Y-10294368D02*
X6263180Y-10303891D01*
X6263180Y-10303891D02*
X6272704Y-10322939D01*
X6272704Y-10322939D02*
X6282227Y-10361034D01*
X6282227Y-10361034D02*
X6282227Y-10408653D01*
X6282227Y-10408653D02*
X6272704Y-10446749D01*
X6272704Y-10446749D02*
X6263180Y-10465796D01*
X6263180Y-10465796D02*
X6253656Y-10475320D01*
X6253656Y-10475320D02*
X6234608Y-10484844D01*
X6234608Y-10484844D02*
X6215561Y-10484844D01*
X6215561Y-10484844D02*
X6196513Y-10475320D01*
X6196513Y-10475320D02*
X6186989Y-10465796D01*
X6186989Y-10465796D02*
X6177466Y-10446749D01*
X6177466Y-10446749D02*
X6167942Y-10408653D01*
X6167942Y-10408653D02*
X6167942Y-10361034D01*
X6167942Y-10361034D02*
X6177466Y-10322939D01*
X6177466Y-10322939D02*
X6186989Y-10303891D01*
X6186989Y-10303891D02*
X6196513Y-10294368D01*
X6196513Y-10294368D02*
X6215561Y-10284844D01*
X6348894Y-10284844D02*
X6472704Y-10284844D01*
X6472704Y-10284844D02*
X6406037Y-10361034D01*
X6406037Y-10361034D02*
X6434608Y-10361034D01*
X6434608Y-10361034D02*
X6453656Y-10370558D01*
X6453656Y-10370558D02*
X6463180Y-10380082D01*
X6463180Y-10380082D02*
X6472704Y-10399130D01*
X6472704Y-10399130D02*
X6472704Y-10446749D01*
X6472704Y-10446749D02*
X6463180Y-10465796D01*
X6463180Y-10465796D02*
X6453656Y-10475320D01*
X6453656Y-10475320D02*
X6434608Y-10484844D01*
X6434608Y-10484844D02*
X6377466Y-10484844D01*
X6377466Y-10484844D02*
X6358418Y-10475320D01*
X6358418Y-10475320D02*
X6348894Y-10465796D01*
X6548894Y-10284844D02*
X6548894Y-10322939D01*
X6625085Y-10284844D02*
X6625085Y-10322939D01*
X6920323Y-10561034D02*
X6910799Y-10551510D01*
X6910799Y-10551510D02*
X6891751Y-10522939D01*
X6891751Y-10522939D02*
X6882228Y-10503891D01*
X6882228Y-10503891D02*
X6872704Y-10475320D01*
X6872704Y-10475320D02*
X6863180Y-10427701D01*
X6863180Y-10427701D02*
X6863180Y-10389606D01*
X6863180Y-10389606D02*
X6872704Y-10341987D01*
X6872704Y-10341987D02*
X6882228Y-10313415D01*
X6882228Y-10313415D02*
X6891751Y-10294368D01*
X6891751Y-10294368D02*
X6910799Y-10265796D01*
X6910799Y-10265796D02*
X6920323Y-10256272D01*
X7101275Y-10484844D02*
X6986989Y-10484844D01*
X7044132Y-10484844D02*
X7044132Y-10284844D01*
X7044132Y-10284844D02*
X7025085Y-10313415D01*
X7025085Y-10313415D02*
X7006037Y-10332463D01*
X7006037Y-10332463D02*
X6986989Y-10341987D01*
X7272704Y-10351510D02*
X7272704Y-10484844D01*
X7225085Y-10275320D02*
X7177466Y-10418177D01*
X7177466Y-10418177D02*
X7301275Y-10418177D01*
X7529847Y-10484844D02*
X7529847Y-10284844D01*
X7615561Y-10484844D02*
X7615561Y-10380082D01*
X7615561Y-10380082D02*
X7606037Y-10361034D01*
X7606037Y-10361034D02*
X7586990Y-10351510D01*
X7586990Y-10351510D02*
X7558418Y-10351510D01*
X7558418Y-10351510D02*
X7539370Y-10361034D01*
X7539370Y-10361034D02*
X7529847Y-10370558D01*
X7739370Y-10484844D02*
X7720323Y-10475320D01*
X7720323Y-10475320D02*
X7710799Y-10465796D01*
X7710799Y-10465796D02*
X7701275Y-10446749D01*
X7701275Y-10446749D02*
X7701275Y-10389606D01*
X7701275Y-10389606D02*
X7710799Y-10370558D01*
X7710799Y-10370558D02*
X7720323Y-10361034D01*
X7720323Y-10361034D02*
X7739370Y-10351510D01*
X7739370Y-10351510D02*
X7767942Y-10351510D01*
X7767942Y-10351510D02*
X7786990Y-10361034D01*
X7786990Y-10361034D02*
X7796513Y-10370558D01*
X7796513Y-10370558D02*
X7806037Y-10389606D01*
X7806037Y-10389606D02*
X7806037Y-10446749D01*
X7806037Y-10446749D02*
X7796513Y-10465796D01*
X7796513Y-10465796D02*
X7786990Y-10475320D01*
X7786990Y-10475320D02*
X7767942Y-10484844D01*
X7767942Y-10484844D02*
X7739370Y-10484844D01*
X7920323Y-10484844D02*
X7901275Y-10475320D01*
X7901275Y-10475320D02*
X7891751Y-10456272D01*
X7891751Y-10456272D02*
X7891751Y-10284844D01*
X8072704Y-10475320D02*
X8053656Y-10484844D01*
X8053656Y-10484844D02*
X8015561Y-10484844D01*
X8015561Y-10484844D02*
X7996513Y-10475320D01*
X7996513Y-10475320D02*
X7986990Y-10456272D01*
X7986990Y-10456272D02*
X7986990Y-10380082D01*
X7986990Y-10380082D02*
X7996513Y-10361034D01*
X7996513Y-10361034D02*
X8015561Y-10351510D01*
X8015561Y-10351510D02*
X8053656Y-10351510D01*
X8053656Y-10351510D02*
X8072704Y-10361034D01*
X8072704Y-10361034D02*
X8082228Y-10380082D01*
X8082228Y-10380082D02*
X8082228Y-10399130D01*
X8082228Y-10399130D02*
X7986990Y-10418177D01*
X8158418Y-10475320D02*
X8177466Y-10484844D01*
X8177466Y-10484844D02*
X8215561Y-10484844D01*
X8215561Y-10484844D02*
X8234609Y-10475320D01*
X8234609Y-10475320D02*
X8244132Y-10456272D01*
X8244132Y-10456272D02*
X8244132Y-10446749D01*
X8244132Y-10446749D02*
X8234609Y-10427701D01*
X8234609Y-10427701D02*
X8215561Y-10418177D01*
X8215561Y-10418177D02*
X8186990Y-10418177D01*
X8186990Y-10418177D02*
X8167942Y-10408653D01*
X8167942Y-10408653D02*
X8158418Y-10389606D01*
X8158418Y-10389606D02*
X8158418Y-10380082D01*
X8158418Y-10380082D02*
X8167942Y-10361034D01*
X8167942Y-10361034D02*
X8186990Y-10351510D01*
X8186990Y-10351510D02*
X8215561Y-10351510D01*
X8215561Y-10351510D02*
X8234609Y-10361034D01*
X8310799Y-10561034D02*
X8320323Y-10551510D01*
X8320323Y-10551510D02*
X8339371Y-10522939D01*
X8339371Y-10522939D02*
X8348894Y-10503891D01*
X8348894Y-10503891D02*
X8358418Y-10475320D01*
X8358418Y-10475320D02*
X8367942Y-10427701D01*
X8367942Y-10427701D02*
X8367942Y-10389606D01*
X8367942Y-10389606D02*
X8358418Y-10341987D01*
X8358418Y-10341987D02*
X8348894Y-10313415D01*
X8348894Y-10313415D02*
X8339371Y-10294368D01*
X8339371Y-10294368D02*
X8320323Y-10265796D01*
X8320323Y-10265796D02*
X8310799Y-10256272D01*
D14*
X3305260Y-10617360D02*
X3305260Y-10697360D01*
X3265260Y-10657360D02*
X3345260Y-10657360D01*
D11*
X3644132Y-10548844D02*
X3663180Y-10548844D01*
X3663180Y-10548844D02*
X3682227Y-10558368D01*
X3682227Y-10558368D02*
X3691751Y-10567891D01*
X3691751Y-10567891D02*
X3701275Y-10586939D01*
X3701275Y-10586939D02*
X3710799Y-10625034D01*
X3710799Y-10625034D02*
X3710799Y-10672653D01*
X3710799Y-10672653D02*
X3701275Y-10710749D01*
X3701275Y-10710749D02*
X3691751Y-10729796D01*
X3691751Y-10729796D02*
X3682227Y-10739320D01*
X3682227Y-10739320D02*
X3663180Y-10748844D01*
X3663180Y-10748844D02*
X3644132Y-10748844D01*
X3644132Y-10748844D02*
X3625084Y-10739320D01*
X3625084Y-10739320D02*
X3615561Y-10729796D01*
X3615561Y-10729796D02*
X3606037Y-10710749D01*
X3606037Y-10710749D02*
X3596513Y-10672653D01*
X3596513Y-10672653D02*
X3596513Y-10625034D01*
X3596513Y-10625034D02*
X3606037Y-10586939D01*
X3606037Y-10586939D02*
X3615561Y-10567891D01*
X3615561Y-10567891D02*
X3625084Y-10558368D01*
X3625084Y-10558368D02*
X3644132Y-10548844D01*
X3796513Y-10729796D02*
X3806037Y-10739320D01*
X3806037Y-10739320D02*
X3796513Y-10748844D01*
X3796513Y-10748844D02*
X3786989Y-10739320D01*
X3786989Y-10739320D02*
X3796513Y-10729796D01*
X3796513Y-10729796D02*
X3796513Y-10748844D01*
X3920322Y-10634558D02*
X3901275Y-10625034D01*
X3901275Y-10625034D02*
X3891751Y-10615510D01*
X3891751Y-10615510D02*
X3882227Y-10596463D01*
X3882227Y-10596463D02*
X3882227Y-10586939D01*
X3882227Y-10586939D02*
X3891751Y-10567891D01*
X3891751Y-10567891D02*
X3901275Y-10558368D01*
X3901275Y-10558368D02*
X3920322Y-10548844D01*
X3920322Y-10548844D02*
X3958418Y-10548844D01*
X3958418Y-10548844D02*
X3977465Y-10558368D01*
X3977465Y-10558368D02*
X3986989Y-10567891D01*
X3986989Y-10567891D02*
X3996513Y-10586939D01*
X3996513Y-10586939D02*
X3996513Y-10596463D01*
X3996513Y-10596463D02*
X3986989Y-10615510D01*
X3986989Y-10615510D02*
X3977465Y-10625034D01*
X3977465Y-10625034D02*
X3958418Y-10634558D01*
X3958418Y-10634558D02*
X3920322Y-10634558D01*
X3920322Y-10634558D02*
X3901275Y-10644082D01*
X3901275Y-10644082D02*
X3891751Y-10653606D01*
X3891751Y-10653606D02*
X3882227Y-10672653D01*
X3882227Y-10672653D02*
X3882227Y-10710749D01*
X3882227Y-10710749D02*
X3891751Y-10729796D01*
X3891751Y-10729796D02*
X3901275Y-10739320D01*
X3901275Y-10739320D02*
X3920322Y-10748844D01*
X3920322Y-10748844D02*
X3958418Y-10748844D01*
X3958418Y-10748844D02*
X3977465Y-10739320D01*
X3977465Y-10739320D02*
X3986989Y-10729796D01*
X3986989Y-10729796D02*
X3996513Y-10710749D01*
X3996513Y-10710749D02*
X3996513Y-10672653D01*
X3996513Y-10672653D02*
X3986989Y-10653606D01*
X3986989Y-10653606D02*
X3977465Y-10644082D01*
X3977465Y-10644082D02*
X3958418Y-10634558D01*
X4120322Y-10548844D02*
X4139370Y-10548844D01*
X4139370Y-10548844D02*
X4158418Y-10558368D01*
X4158418Y-10558368D02*
X4167942Y-10567891D01*
X4167942Y-10567891D02*
X4177465Y-10586939D01*
X4177465Y-10586939D02*
X4186989Y-10625034D01*
X4186989Y-10625034D02*
X4186989Y-10672653D01*
X4186989Y-10672653D02*
X4177465Y-10710749D01*
X4177465Y-10710749D02*
X4167942Y-10729796D01*
X4167942Y-10729796D02*
X4158418Y-10739320D01*
X4158418Y-10739320D02*
X4139370Y-10748844D01*
X4139370Y-10748844D02*
X4120322Y-10748844D01*
X4120322Y-10748844D02*
X4101275Y-10739320D01*
X4101275Y-10739320D02*
X4091751Y-10729796D01*
X4091751Y-10729796D02*
X4082227Y-10710749D01*
X4082227Y-10710749D02*
X4072703Y-10672653D01*
X4072703Y-10672653D02*
X4072703Y-10625034D01*
X4072703Y-10625034D02*
X4082227Y-10586939D01*
X4082227Y-10586939D02*
X4091751Y-10567891D01*
X4091751Y-10567891D02*
X4101275Y-10558368D01*
X4101275Y-10558368D02*
X4120322Y-10548844D01*
X4310799Y-10548844D02*
X4329846Y-10548844D01*
X4329846Y-10548844D02*
X4348894Y-10558368D01*
X4348894Y-10558368D02*
X4358418Y-10567891D01*
X4358418Y-10567891D02*
X4367942Y-10586939D01*
X4367942Y-10586939D02*
X4377465Y-10625034D01*
X4377465Y-10625034D02*
X4377465Y-10672653D01*
X4377465Y-10672653D02*
X4367942Y-10710749D01*
X4367942Y-10710749D02*
X4358418Y-10729796D01*
X4358418Y-10729796D02*
X4348894Y-10739320D01*
X4348894Y-10739320D02*
X4329846Y-10748844D01*
X4329846Y-10748844D02*
X4310799Y-10748844D01*
X4310799Y-10748844D02*
X4291751Y-10739320D01*
X4291751Y-10739320D02*
X4282227Y-10729796D01*
X4282227Y-10729796D02*
X4272704Y-10710749D01*
X4272704Y-10710749D02*
X4263180Y-10672653D01*
X4263180Y-10672653D02*
X4263180Y-10625034D01*
X4263180Y-10625034D02*
X4272704Y-10586939D01*
X4272704Y-10586939D02*
X4282227Y-10567891D01*
X4282227Y-10567891D02*
X4291751Y-10558368D01*
X4291751Y-10558368D02*
X4310799Y-10548844D01*
X4463180Y-10748844D02*
X4463180Y-10615510D01*
X4463180Y-10634558D02*
X4472704Y-10625034D01*
X4472704Y-10625034D02*
X4491751Y-10615510D01*
X4491751Y-10615510D02*
X4520323Y-10615510D01*
X4520323Y-10615510D02*
X4539370Y-10625034D01*
X4539370Y-10625034D02*
X4548894Y-10644082D01*
X4548894Y-10644082D02*
X4548894Y-10748844D01*
X4548894Y-10644082D02*
X4558418Y-10625034D01*
X4558418Y-10625034D02*
X4577465Y-10615510D01*
X4577465Y-10615510D02*
X4606037Y-10615510D01*
X4606037Y-10615510D02*
X4625085Y-10625034D01*
X4625085Y-10625034D02*
X4634608Y-10644082D01*
X4634608Y-10644082D02*
X4634608Y-10748844D01*
X4729846Y-10748844D02*
X4729846Y-10615510D01*
X4729846Y-10634558D02*
X4739370Y-10625034D01*
X4739370Y-10625034D02*
X4758418Y-10615510D01*
X4758418Y-10615510D02*
X4786989Y-10615510D01*
X4786989Y-10615510D02*
X4806037Y-10625034D01*
X4806037Y-10625034D02*
X4815561Y-10644082D01*
X4815561Y-10644082D02*
X4815561Y-10748844D01*
X4815561Y-10644082D02*
X4825085Y-10625034D01*
X4825085Y-10625034D02*
X4844132Y-10615510D01*
X4844132Y-10615510D02*
X4872704Y-10615510D01*
X4872704Y-10615510D02*
X4891751Y-10625034D01*
X4891751Y-10625034D02*
X4901275Y-10644082D01*
X4901275Y-10644082D02*
X4901275Y-10748844D01*
X5291751Y-10539320D02*
X5120323Y-10796463D01*
X5548894Y-10548844D02*
X5567942Y-10548844D01*
X5567942Y-10548844D02*
X5586989Y-10558368D01*
X5586989Y-10558368D02*
X5596513Y-10567891D01*
X5596513Y-10567891D02*
X5606037Y-10586939D01*
X5606037Y-10586939D02*
X5615561Y-10625034D01*
X5615561Y-10625034D02*
X5615561Y-10672653D01*
X5615561Y-10672653D02*
X5606037Y-10710749D01*
X5606037Y-10710749D02*
X5596513Y-10729796D01*
X5596513Y-10729796D02*
X5586989Y-10739320D01*
X5586989Y-10739320D02*
X5567942Y-10748844D01*
X5567942Y-10748844D02*
X5548894Y-10748844D01*
X5548894Y-10748844D02*
X5529847Y-10739320D01*
X5529847Y-10739320D02*
X5520323Y-10729796D01*
X5520323Y-10729796D02*
X5510799Y-10710749D01*
X5510799Y-10710749D02*
X5501275Y-10672653D01*
X5501275Y-10672653D02*
X5501275Y-10625034D01*
X5501275Y-10625034D02*
X5510799Y-10586939D01*
X5510799Y-10586939D02*
X5520323Y-10567891D01*
X5520323Y-10567891D02*
X5529847Y-10558368D01*
X5529847Y-10558368D02*
X5548894Y-10548844D01*
X5701275Y-10729796D02*
X5710799Y-10739320D01*
X5710799Y-10739320D02*
X5701275Y-10748844D01*
X5701275Y-10748844D02*
X5691751Y-10739320D01*
X5691751Y-10739320D02*
X5701275Y-10729796D01*
X5701275Y-10729796D02*
X5701275Y-10748844D01*
X5834608Y-10548844D02*
X5853656Y-10548844D01*
X5853656Y-10548844D02*
X5872704Y-10558368D01*
X5872704Y-10558368D02*
X5882227Y-10567891D01*
X5882227Y-10567891D02*
X5891751Y-10586939D01*
X5891751Y-10586939D02*
X5901275Y-10625034D01*
X5901275Y-10625034D02*
X5901275Y-10672653D01*
X5901275Y-10672653D02*
X5891751Y-10710749D01*
X5891751Y-10710749D02*
X5882227Y-10729796D01*
X5882227Y-10729796D02*
X5872704Y-10739320D01*
X5872704Y-10739320D02*
X5853656Y-10748844D01*
X5853656Y-10748844D02*
X5834608Y-10748844D01*
X5834608Y-10748844D02*
X5815561Y-10739320D01*
X5815561Y-10739320D02*
X5806037Y-10729796D01*
X5806037Y-10729796D02*
X5796513Y-10710749D01*
X5796513Y-10710749D02*
X5786989Y-10672653D01*
X5786989Y-10672653D02*
X5786989Y-10625034D01*
X5786989Y-10625034D02*
X5796513Y-10586939D01*
X5796513Y-10586939D02*
X5806037Y-10567891D01*
X5806037Y-10567891D02*
X5815561Y-10558368D01*
X5815561Y-10558368D02*
X5834608Y-10548844D01*
X5967942Y-10548844D02*
X6091751Y-10548844D01*
X6091751Y-10548844D02*
X6025085Y-10625034D01*
X6025085Y-10625034D02*
X6053656Y-10625034D01*
X6053656Y-10625034D02*
X6072704Y-10634558D01*
X6072704Y-10634558D02*
X6082227Y-10644082D01*
X6082227Y-10644082D02*
X6091751Y-10663130D01*
X6091751Y-10663130D02*
X6091751Y-10710749D01*
X6091751Y-10710749D02*
X6082227Y-10729796D01*
X6082227Y-10729796D02*
X6072704Y-10739320D01*
X6072704Y-10739320D02*
X6053656Y-10748844D01*
X6053656Y-10748844D02*
X5996513Y-10748844D01*
X5996513Y-10748844D02*
X5977466Y-10739320D01*
X5977466Y-10739320D02*
X5967942Y-10729796D01*
X6282227Y-10748844D02*
X6167942Y-10748844D01*
X6225085Y-10748844D02*
X6225085Y-10548844D01*
X6225085Y-10548844D02*
X6206037Y-10577415D01*
X6206037Y-10577415D02*
X6186989Y-10596463D01*
X6186989Y-10596463D02*
X6167942Y-10605987D01*
X6463180Y-10548844D02*
X6367942Y-10548844D01*
X6367942Y-10548844D02*
X6358418Y-10644082D01*
X6358418Y-10644082D02*
X6367942Y-10634558D01*
X6367942Y-10634558D02*
X6386989Y-10625034D01*
X6386989Y-10625034D02*
X6434608Y-10625034D01*
X6434608Y-10625034D02*
X6453656Y-10634558D01*
X6453656Y-10634558D02*
X6463180Y-10644082D01*
X6463180Y-10644082D02*
X6472704Y-10663130D01*
X6472704Y-10663130D02*
X6472704Y-10710749D01*
X6472704Y-10710749D02*
X6463180Y-10729796D01*
X6463180Y-10729796D02*
X6453656Y-10739320D01*
X6453656Y-10739320D02*
X6434608Y-10748844D01*
X6434608Y-10748844D02*
X6386989Y-10748844D01*
X6386989Y-10748844D02*
X6367942Y-10739320D01*
X6367942Y-10739320D02*
X6358418Y-10729796D01*
X6548894Y-10548844D02*
X6548894Y-10586939D01*
X6625085Y-10548844D02*
X6625085Y-10586939D01*
X6920323Y-10825034D02*
X6910799Y-10815510D01*
X6910799Y-10815510D02*
X6891751Y-10786939D01*
X6891751Y-10786939D02*
X6882228Y-10767891D01*
X6882228Y-10767891D02*
X6872704Y-10739320D01*
X6872704Y-10739320D02*
X6863180Y-10691701D01*
X6863180Y-10691701D02*
X6863180Y-10653606D01*
X6863180Y-10653606D02*
X6872704Y-10605987D01*
X6872704Y-10605987D02*
X6882228Y-10577415D01*
X6882228Y-10577415D02*
X6891751Y-10558368D01*
X6891751Y-10558368D02*
X6910799Y-10529796D01*
X6910799Y-10529796D02*
X6920323Y-10520272D01*
X6977466Y-10548844D02*
X7101275Y-10548844D01*
X7101275Y-10548844D02*
X7034608Y-10625034D01*
X7034608Y-10625034D02*
X7063180Y-10625034D01*
X7063180Y-10625034D02*
X7082228Y-10634558D01*
X7082228Y-10634558D02*
X7091751Y-10644082D01*
X7091751Y-10644082D02*
X7101275Y-10663130D01*
X7101275Y-10663130D02*
X7101275Y-10710749D01*
X7101275Y-10710749D02*
X7091751Y-10729796D01*
X7091751Y-10729796D02*
X7082228Y-10739320D01*
X7082228Y-10739320D02*
X7063180Y-10748844D01*
X7063180Y-10748844D02*
X7006037Y-10748844D01*
X7006037Y-10748844D02*
X6986989Y-10739320D01*
X6986989Y-10739320D02*
X6977466Y-10729796D01*
X7272704Y-10615510D02*
X7272704Y-10748844D01*
X7225085Y-10539320D02*
X7177466Y-10682177D01*
X7177466Y-10682177D02*
X7301275Y-10682177D01*
X7529847Y-10748844D02*
X7529847Y-10548844D01*
X7615561Y-10748844D02*
X7615561Y-10644082D01*
X7615561Y-10644082D02*
X7606037Y-10625034D01*
X7606037Y-10625034D02*
X7586990Y-10615510D01*
X7586990Y-10615510D02*
X7558418Y-10615510D01*
X7558418Y-10615510D02*
X7539370Y-10625034D01*
X7539370Y-10625034D02*
X7529847Y-10634558D01*
X7739370Y-10748844D02*
X7720323Y-10739320D01*
X7720323Y-10739320D02*
X7710799Y-10729796D01*
X7710799Y-10729796D02*
X7701275Y-10710749D01*
X7701275Y-10710749D02*
X7701275Y-10653606D01*
X7701275Y-10653606D02*
X7710799Y-10634558D01*
X7710799Y-10634558D02*
X7720323Y-10625034D01*
X7720323Y-10625034D02*
X7739370Y-10615510D01*
X7739370Y-10615510D02*
X7767942Y-10615510D01*
X7767942Y-10615510D02*
X7786990Y-10625034D01*
X7786990Y-10625034D02*
X7796513Y-10634558D01*
X7796513Y-10634558D02*
X7806037Y-10653606D01*
X7806037Y-10653606D02*
X7806037Y-10710749D01*
X7806037Y-10710749D02*
X7796513Y-10729796D01*
X7796513Y-10729796D02*
X7786990Y-10739320D01*
X7786990Y-10739320D02*
X7767942Y-10748844D01*
X7767942Y-10748844D02*
X7739370Y-10748844D01*
X7920323Y-10748844D02*
X7901275Y-10739320D01*
X7901275Y-10739320D02*
X7891751Y-10720272D01*
X7891751Y-10720272D02*
X7891751Y-10548844D01*
X8072704Y-10739320D02*
X8053656Y-10748844D01*
X8053656Y-10748844D02*
X8015561Y-10748844D01*
X8015561Y-10748844D02*
X7996513Y-10739320D01*
X7996513Y-10739320D02*
X7986990Y-10720272D01*
X7986990Y-10720272D02*
X7986990Y-10644082D01*
X7986990Y-10644082D02*
X7996513Y-10625034D01*
X7996513Y-10625034D02*
X8015561Y-10615510D01*
X8015561Y-10615510D02*
X8053656Y-10615510D01*
X8053656Y-10615510D02*
X8072704Y-10625034D01*
X8072704Y-10625034D02*
X8082228Y-10644082D01*
X8082228Y-10644082D02*
X8082228Y-10663130D01*
X8082228Y-10663130D02*
X7986990Y-10682177D01*
X8158418Y-10739320D02*
X8177466Y-10748844D01*
X8177466Y-10748844D02*
X8215561Y-10748844D01*
X8215561Y-10748844D02*
X8234609Y-10739320D01*
X8234609Y-10739320D02*
X8244132Y-10720272D01*
X8244132Y-10720272D02*
X8244132Y-10710749D01*
X8244132Y-10710749D02*
X8234609Y-10691701D01*
X8234609Y-10691701D02*
X8215561Y-10682177D01*
X8215561Y-10682177D02*
X8186990Y-10682177D01*
X8186990Y-10682177D02*
X8167942Y-10672653D01*
X8167942Y-10672653D02*
X8158418Y-10653606D01*
X8158418Y-10653606D02*
X8158418Y-10644082D01*
X8158418Y-10644082D02*
X8167942Y-10625034D01*
X8167942Y-10625034D02*
X8186990Y-10615510D01*
X8186990Y-10615510D02*
X8215561Y-10615510D01*
X8215561Y-10615510D02*
X8234609Y-10625034D01*
X8310799Y-10825034D02*
X8320323Y-10815510D01*
X8320323Y-10815510D02*
X8339371Y-10786939D01*
X8339371Y-10786939D02*
X8348894Y-10767891D01*
X8348894Y-10767891D02*
X8358418Y-10739320D01*
X8358418Y-10739320D02*
X8367942Y-10691701D01*
X8367942Y-10691701D02*
X8367942Y-10653606D01*
X8367942Y-10653606D02*
X8358418Y-10605987D01*
X8358418Y-10605987D02*
X8348894Y-10577415D01*
X8348894Y-10577415D02*
X8339371Y-10558368D01*
X8339371Y-10558368D02*
X8320323Y-10529796D01*
X8320323Y-10529796D02*
X8310799Y-10520272D01*
D10*
X3330616Y-10956716D02*
X3330616Y-10886004D01*
X3259904Y-10886004D01*
X3259904Y-10956716D01*
X3330616Y-10956716D01*
D11*
X3710799Y-11012844D02*
X3596513Y-11012844D01*
X3653656Y-11012844D02*
X3653656Y-10812844D01*
X3653656Y-10812844D02*
X3634608Y-10841415D01*
X3634608Y-10841415D02*
X3615561Y-10860463D01*
X3615561Y-10860463D02*
X3596513Y-10869987D01*
X3796513Y-10993796D02*
X3806037Y-11003320D01*
X3806037Y-11003320D02*
X3796513Y-11012844D01*
X3796513Y-11012844D02*
X3786989Y-11003320D01*
X3786989Y-11003320D02*
X3796513Y-10993796D01*
X3796513Y-10993796D02*
X3796513Y-11012844D01*
X3929846Y-10812844D02*
X3948894Y-10812844D01*
X3948894Y-10812844D02*
X3967942Y-10822368D01*
X3967942Y-10822368D02*
X3977465Y-10831891D01*
X3977465Y-10831891D02*
X3986989Y-10850939D01*
X3986989Y-10850939D02*
X3996513Y-10889034D01*
X3996513Y-10889034D02*
X3996513Y-10936653D01*
X3996513Y-10936653D02*
X3986989Y-10974749D01*
X3986989Y-10974749D02*
X3977465Y-10993796D01*
X3977465Y-10993796D02*
X3967942Y-11003320D01*
X3967942Y-11003320D02*
X3948894Y-11012844D01*
X3948894Y-11012844D02*
X3929846Y-11012844D01*
X3929846Y-11012844D02*
X3910799Y-11003320D01*
X3910799Y-11003320D02*
X3901275Y-10993796D01*
X3901275Y-10993796D02*
X3891751Y-10974749D01*
X3891751Y-10974749D02*
X3882227Y-10936653D01*
X3882227Y-10936653D02*
X3882227Y-10889034D01*
X3882227Y-10889034D02*
X3891751Y-10850939D01*
X3891751Y-10850939D02*
X3901275Y-10831891D01*
X3901275Y-10831891D02*
X3910799Y-10822368D01*
X3910799Y-10822368D02*
X3929846Y-10812844D01*
X4120322Y-10812844D02*
X4139370Y-10812844D01*
X4139370Y-10812844D02*
X4158418Y-10822368D01*
X4158418Y-10822368D02*
X4167942Y-10831891D01*
X4167942Y-10831891D02*
X4177465Y-10850939D01*
X4177465Y-10850939D02*
X4186989Y-10889034D01*
X4186989Y-10889034D02*
X4186989Y-10936653D01*
X4186989Y-10936653D02*
X4177465Y-10974749D01*
X4177465Y-10974749D02*
X4167942Y-10993796D01*
X4167942Y-10993796D02*
X4158418Y-11003320D01*
X4158418Y-11003320D02*
X4139370Y-11012844D01*
X4139370Y-11012844D02*
X4120322Y-11012844D01*
X4120322Y-11012844D02*
X4101275Y-11003320D01*
X4101275Y-11003320D02*
X4091751Y-10993796D01*
X4091751Y-10993796D02*
X4082227Y-10974749D01*
X4082227Y-10974749D02*
X4072703Y-10936653D01*
X4072703Y-10936653D02*
X4072703Y-10889034D01*
X4072703Y-10889034D02*
X4082227Y-10850939D01*
X4082227Y-10850939D02*
X4091751Y-10831891D01*
X4091751Y-10831891D02*
X4101275Y-10822368D01*
X4101275Y-10822368D02*
X4120322Y-10812844D01*
X4310799Y-10812844D02*
X4329846Y-10812844D01*
X4329846Y-10812844D02*
X4348894Y-10822368D01*
X4348894Y-10822368D02*
X4358418Y-10831891D01*
X4358418Y-10831891D02*
X4367942Y-10850939D01*
X4367942Y-10850939D02*
X4377465Y-10889034D01*
X4377465Y-10889034D02*
X4377465Y-10936653D01*
X4377465Y-10936653D02*
X4367942Y-10974749D01*
X4367942Y-10974749D02*
X4358418Y-10993796D01*
X4358418Y-10993796D02*
X4348894Y-11003320D01*
X4348894Y-11003320D02*
X4329846Y-11012844D01*
X4329846Y-11012844D02*
X4310799Y-11012844D01*
X4310799Y-11012844D02*
X4291751Y-11003320D01*
X4291751Y-11003320D02*
X4282227Y-10993796D01*
X4282227Y-10993796D02*
X4272704Y-10974749D01*
X4272704Y-10974749D02*
X4263180Y-10936653D01*
X4263180Y-10936653D02*
X4263180Y-10889034D01*
X4263180Y-10889034D02*
X4272704Y-10850939D01*
X4272704Y-10850939D02*
X4282227Y-10831891D01*
X4282227Y-10831891D02*
X4291751Y-10822368D01*
X4291751Y-10822368D02*
X4310799Y-10812844D01*
X4463180Y-11012844D02*
X4463180Y-10879510D01*
X4463180Y-10898558D02*
X4472704Y-10889034D01*
X4472704Y-10889034D02*
X4491751Y-10879510D01*
X4491751Y-10879510D02*
X4520323Y-10879510D01*
X4520323Y-10879510D02*
X4539370Y-10889034D01*
X4539370Y-10889034D02*
X4548894Y-10908082D01*
X4548894Y-10908082D02*
X4548894Y-11012844D01*
X4548894Y-10908082D02*
X4558418Y-10889034D01*
X4558418Y-10889034D02*
X4577465Y-10879510D01*
X4577465Y-10879510D02*
X4606037Y-10879510D01*
X4606037Y-10879510D02*
X4625085Y-10889034D01*
X4625085Y-10889034D02*
X4634608Y-10908082D01*
X4634608Y-10908082D02*
X4634608Y-11012844D01*
X4729846Y-11012844D02*
X4729846Y-10879510D01*
X4729846Y-10898558D02*
X4739370Y-10889034D01*
X4739370Y-10889034D02*
X4758418Y-10879510D01*
X4758418Y-10879510D02*
X4786989Y-10879510D01*
X4786989Y-10879510D02*
X4806037Y-10889034D01*
X4806037Y-10889034D02*
X4815561Y-10908082D01*
X4815561Y-10908082D02*
X4815561Y-11012844D01*
X4815561Y-10908082D02*
X4825085Y-10889034D01*
X4825085Y-10889034D02*
X4844132Y-10879510D01*
X4844132Y-10879510D02*
X4872704Y-10879510D01*
X4872704Y-10879510D02*
X4891751Y-10889034D01*
X4891751Y-10889034D02*
X4901275Y-10908082D01*
X4901275Y-10908082D02*
X4901275Y-11012844D01*
X5291751Y-10803320D02*
X5120323Y-11060463D01*
X5548894Y-10812844D02*
X5567942Y-10812844D01*
X5567942Y-10812844D02*
X5586989Y-10822368D01*
X5586989Y-10822368D02*
X5596513Y-10831891D01*
X5596513Y-10831891D02*
X5606037Y-10850939D01*
X5606037Y-10850939D02*
X5615561Y-10889034D01*
X5615561Y-10889034D02*
X5615561Y-10936653D01*
X5615561Y-10936653D02*
X5606037Y-10974749D01*
X5606037Y-10974749D02*
X5596513Y-10993796D01*
X5596513Y-10993796D02*
X5586989Y-11003320D01*
X5586989Y-11003320D02*
X5567942Y-11012844D01*
X5567942Y-11012844D02*
X5548894Y-11012844D01*
X5548894Y-11012844D02*
X5529847Y-11003320D01*
X5529847Y-11003320D02*
X5520323Y-10993796D01*
X5520323Y-10993796D02*
X5510799Y-10974749D01*
X5510799Y-10974749D02*
X5501275Y-10936653D01*
X5501275Y-10936653D02*
X5501275Y-10889034D01*
X5501275Y-10889034D02*
X5510799Y-10850939D01*
X5510799Y-10850939D02*
X5520323Y-10831891D01*
X5520323Y-10831891D02*
X5529847Y-10822368D01*
X5529847Y-10822368D02*
X5548894Y-10812844D01*
X5701275Y-10993796D02*
X5710799Y-11003320D01*
X5710799Y-11003320D02*
X5701275Y-11012844D01*
X5701275Y-11012844D02*
X5691751Y-11003320D01*
X5691751Y-11003320D02*
X5701275Y-10993796D01*
X5701275Y-10993796D02*
X5701275Y-11012844D01*
X5834608Y-10812844D02*
X5853656Y-10812844D01*
X5853656Y-10812844D02*
X5872704Y-10822368D01*
X5872704Y-10822368D02*
X5882227Y-10831891D01*
X5882227Y-10831891D02*
X5891751Y-10850939D01*
X5891751Y-10850939D02*
X5901275Y-10889034D01*
X5901275Y-10889034D02*
X5901275Y-10936653D01*
X5901275Y-10936653D02*
X5891751Y-10974749D01*
X5891751Y-10974749D02*
X5882227Y-10993796D01*
X5882227Y-10993796D02*
X5872704Y-11003320D01*
X5872704Y-11003320D02*
X5853656Y-11012844D01*
X5853656Y-11012844D02*
X5834608Y-11012844D01*
X5834608Y-11012844D02*
X5815561Y-11003320D01*
X5815561Y-11003320D02*
X5806037Y-10993796D01*
X5806037Y-10993796D02*
X5796513Y-10974749D01*
X5796513Y-10974749D02*
X5786989Y-10936653D01*
X5786989Y-10936653D02*
X5786989Y-10889034D01*
X5786989Y-10889034D02*
X5796513Y-10850939D01*
X5796513Y-10850939D02*
X5806037Y-10831891D01*
X5806037Y-10831891D02*
X5815561Y-10822368D01*
X5815561Y-10822368D02*
X5834608Y-10812844D01*
X5967942Y-10812844D02*
X6091751Y-10812844D01*
X6091751Y-10812844D02*
X6025085Y-10889034D01*
X6025085Y-10889034D02*
X6053656Y-10889034D01*
X6053656Y-10889034D02*
X6072704Y-10898558D01*
X6072704Y-10898558D02*
X6082227Y-10908082D01*
X6082227Y-10908082D02*
X6091751Y-10927130D01*
X6091751Y-10927130D02*
X6091751Y-10974749D01*
X6091751Y-10974749D02*
X6082227Y-10993796D01*
X6082227Y-10993796D02*
X6072704Y-11003320D01*
X6072704Y-11003320D02*
X6053656Y-11012844D01*
X6053656Y-11012844D02*
X5996513Y-11012844D01*
X5996513Y-11012844D02*
X5977466Y-11003320D01*
X5977466Y-11003320D02*
X5967942Y-10993796D01*
X6186989Y-11012844D02*
X6225085Y-11012844D01*
X6225085Y-11012844D02*
X6244132Y-11003320D01*
X6244132Y-11003320D02*
X6253656Y-10993796D01*
X6253656Y-10993796D02*
X6272704Y-10965225D01*
X6272704Y-10965225D02*
X6282227Y-10927130D01*
X6282227Y-10927130D02*
X6282227Y-10850939D01*
X6282227Y-10850939D02*
X6272704Y-10831891D01*
X6272704Y-10831891D02*
X6263180Y-10822368D01*
X6263180Y-10822368D02*
X6244132Y-10812844D01*
X6244132Y-10812844D02*
X6206037Y-10812844D01*
X6206037Y-10812844D02*
X6186989Y-10822368D01*
X6186989Y-10822368D02*
X6177466Y-10831891D01*
X6177466Y-10831891D02*
X6167942Y-10850939D01*
X6167942Y-10850939D02*
X6167942Y-10898558D01*
X6167942Y-10898558D02*
X6177466Y-10917606D01*
X6177466Y-10917606D02*
X6186989Y-10927130D01*
X6186989Y-10927130D02*
X6206037Y-10936653D01*
X6206037Y-10936653D02*
X6244132Y-10936653D01*
X6244132Y-10936653D02*
X6263180Y-10927130D01*
X6263180Y-10927130D02*
X6272704Y-10917606D01*
X6272704Y-10917606D02*
X6282227Y-10898558D01*
X6453656Y-10879510D02*
X6453656Y-11012844D01*
X6406037Y-10803320D02*
X6358418Y-10946177D01*
X6358418Y-10946177D02*
X6482227Y-10946177D01*
X6548894Y-10812844D02*
X6548894Y-10850939D01*
X6625085Y-10812844D02*
X6625085Y-10850939D01*
X6920323Y-11089034D02*
X6910799Y-11079510D01*
X6910799Y-11079510D02*
X6891751Y-11050939D01*
X6891751Y-11050939D02*
X6882228Y-11031891D01*
X6882228Y-11031891D02*
X6872704Y-11003320D01*
X6872704Y-11003320D02*
X6863180Y-10955701D01*
X6863180Y-10955701D02*
X6863180Y-10917606D01*
X6863180Y-10917606D02*
X6872704Y-10869987D01*
X6872704Y-10869987D02*
X6882228Y-10841415D01*
X6882228Y-10841415D02*
X6891751Y-10822368D01*
X6891751Y-10822368D02*
X6910799Y-10793796D01*
X6910799Y-10793796D02*
X6920323Y-10784272D01*
X7082228Y-10879510D02*
X7082228Y-11012844D01*
X7034608Y-10803320D02*
X6986989Y-10946177D01*
X6986989Y-10946177D02*
X7110799Y-10946177D01*
X7339370Y-11012844D02*
X7339370Y-10812844D01*
X7425085Y-11012844D02*
X7425085Y-10908082D01*
X7425085Y-10908082D02*
X7415561Y-10889034D01*
X7415561Y-10889034D02*
X7396513Y-10879510D01*
X7396513Y-10879510D02*
X7367942Y-10879510D01*
X7367942Y-10879510D02*
X7348894Y-10889034D01*
X7348894Y-10889034D02*
X7339370Y-10898558D01*
X7548894Y-11012844D02*
X7529847Y-11003320D01*
X7529847Y-11003320D02*
X7520323Y-10993796D01*
X7520323Y-10993796D02*
X7510799Y-10974749D01*
X7510799Y-10974749D02*
X7510799Y-10917606D01*
X7510799Y-10917606D02*
X7520323Y-10898558D01*
X7520323Y-10898558D02*
X7529847Y-10889034D01*
X7529847Y-10889034D02*
X7548894Y-10879510D01*
X7548894Y-10879510D02*
X7577466Y-10879510D01*
X7577466Y-10879510D02*
X7596513Y-10889034D01*
X7596513Y-10889034D02*
X7606037Y-10898558D01*
X7606037Y-10898558D02*
X7615561Y-10917606D01*
X7615561Y-10917606D02*
X7615561Y-10974749D01*
X7615561Y-10974749D02*
X7606037Y-10993796D01*
X7606037Y-10993796D02*
X7596513Y-11003320D01*
X7596513Y-11003320D02*
X7577466Y-11012844D01*
X7577466Y-11012844D02*
X7548894Y-11012844D01*
X7729847Y-11012844D02*
X7710799Y-11003320D01*
X7710799Y-11003320D02*
X7701275Y-10984272D01*
X7701275Y-10984272D02*
X7701275Y-10812844D01*
X7882228Y-11003320D02*
X7863180Y-11012844D01*
X7863180Y-11012844D02*
X7825085Y-11012844D01*
X7825085Y-11012844D02*
X7806037Y-11003320D01*
X7806037Y-11003320D02*
X7796513Y-10984272D01*
X7796513Y-10984272D02*
X7796513Y-10908082D01*
X7796513Y-10908082D02*
X7806037Y-10889034D01*
X7806037Y-10889034D02*
X7825085Y-10879510D01*
X7825085Y-10879510D02*
X7863180Y-10879510D01*
X7863180Y-10879510D02*
X7882228Y-10889034D01*
X7882228Y-10889034D02*
X7891751Y-10908082D01*
X7891751Y-10908082D02*
X7891751Y-10927130D01*
X7891751Y-10927130D02*
X7796513Y-10946177D01*
X7967942Y-11003320D02*
X7986990Y-11012844D01*
X7986990Y-11012844D02*
X8025085Y-11012844D01*
X8025085Y-11012844D02*
X8044132Y-11003320D01*
X8044132Y-11003320D02*
X8053656Y-10984272D01*
X8053656Y-10984272D02*
X8053656Y-10974749D01*
X8053656Y-10974749D02*
X8044132Y-10955701D01*
X8044132Y-10955701D02*
X8025085Y-10946177D01*
X8025085Y-10946177D02*
X7996513Y-10946177D01*
X7996513Y-10946177D02*
X7977466Y-10936653D01*
X7977466Y-10936653D02*
X7967942Y-10917606D01*
X7967942Y-10917606D02*
X7967942Y-10908082D01*
X7967942Y-10908082D02*
X7977466Y-10889034D01*
X7977466Y-10889034D02*
X7996513Y-10879510D01*
X7996513Y-10879510D02*
X8025085Y-10879510D01*
X8025085Y-10879510D02*
X8044132Y-10889034D01*
X8120323Y-11089034D02*
X8129847Y-11079510D01*
X8129847Y-11079510D02*
X8148894Y-11050939D01*
X8148894Y-11050939D02*
X8158418Y-11031891D01*
X8158418Y-11031891D02*
X8167942Y-11003320D01*
X8167942Y-11003320D02*
X8177466Y-10955701D01*
X8177466Y-10955701D02*
X8177466Y-10917606D01*
X8177466Y-10917606D02*
X8167942Y-10869987D01*
X8167942Y-10869987D02*
X8158418Y-10841415D01*
X8158418Y-10841415D02*
X8148894Y-10822368D01*
X8148894Y-10822368D02*
X8129847Y-10793796D01*
X8129847Y-10793796D02*
X8120323Y-10784272D01*
D15*
X3292760Y-11237860D02*
X3345260Y-11185360D01*
X3292760Y-11132860D01*
X3240260Y-11185360D01*
X3292760Y-11237860D01*
D11*
X3710799Y-11276844D02*
X3596513Y-11276844D01*
X3653656Y-11276844D02*
X3653656Y-11076844D01*
X3653656Y-11076844D02*
X3634608Y-11105415D01*
X3634608Y-11105415D02*
X3615561Y-11124463D01*
X3615561Y-11124463D02*
X3596513Y-11133987D01*
X3796513Y-11257796D02*
X3806037Y-11267320D01*
X3806037Y-11267320D02*
X3796513Y-11276844D01*
X3796513Y-11276844D02*
X3786989Y-11267320D01*
X3786989Y-11267320D02*
X3796513Y-11257796D01*
X3796513Y-11257796D02*
X3796513Y-11276844D01*
X3929846Y-11076844D02*
X3948894Y-11076844D01*
X3948894Y-11076844D02*
X3967942Y-11086368D01*
X3967942Y-11086368D02*
X3977465Y-11095891D01*
X3977465Y-11095891D02*
X3986989Y-11114939D01*
X3986989Y-11114939D02*
X3996513Y-11153034D01*
X3996513Y-11153034D02*
X3996513Y-11200653D01*
X3996513Y-11200653D02*
X3986989Y-11238748D01*
X3986989Y-11238748D02*
X3977465Y-11257796D01*
X3977465Y-11257796D02*
X3967942Y-11267320D01*
X3967942Y-11267320D02*
X3948894Y-11276844D01*
X3948894Y-11276844D02*
X3929846Y-11276844D01*
X3929846Y-11276844D02*
X3910799Y-11267320D01*
X3910799Y-11267320D02*
X3901275Y-11257796D01*
X3901275Y-11257796D02*
X3891751Y-11238748D01*
X3891751Y-11238748D02*
X3882227Y-11200653D01*
X3882227Y-11200653D02*
X3882227Y-11153034D01*
X3882227Y-11153034D02*
X3891751Y-11114939D01*
X3891751Y-11114939D02*
X3901275Y-11095891D01*
X3901275Y-11095891D02*
X3910799Y-11086368D01*
X3910799Y-11086368D02*
X3929846Y-11076844D01*
X4177465Y-11076844D02*
X4082227Y-11076844D01*
X4082227Y-11076844D02*
X4072703Y-11172082D01*
X4072703Y-11172082D02*
X4082227Y-11162558D01*
X4082227Y-11162558D02*
X4101275Y-11153034D01*
X4101275Y-11153034D02*
X4148894Y-11153034D01*
X4148894Y-11153034D02*
X4167942Y-11162558D01*
X4167942Y-11162558D02*
X4177465Y-11172082D01*
X4177465Y-11172082D02*
X4186989Y-11191129D01*
X4186989Y-11191129D02*
X4186989Y-11238748D01*
X4186989Y-11238748D02*
X4177465Y-11257796D01*
X4177465Y-11257796D02*
X4167942Y-11267320D01*
X4167942Y-11267320D02*
X4148894Y-11276844D01*
X4148894Y-11276844D02*
X4101275Y-11276844D01*
X4101275Y-11276844D02*
X4082227Y-11267320D01*
X4082227Y-11267320D02*
X4072703Y-11257796D01*
X4310799Y-11076844D02*
X4329846Y-11076844D01*
X4329846Y-11076844D02*
X4348894Y-11086368D01*
X4348894Y-11086368D02*
X4358418Y-11095891D01*
X4358418Y-11095891D02*
X4367942Y-11114939D01*
X4367942Y-11114939D02*
X4377465Y-11153034D01*
X4377465Y-11153034D02*
X4377465Y-11200653D01*
X4377465Y-11200653D02*
X4367942Y-11238748D01*
X4367942Y-11238748D02*
X4358418Y-11257796D01*
X4358418Y-11257796D02*
X4348894Y-11267320D01*
X4348894Y-11267320D02*
X4329846Y-11276844D01*
X4329846Y-11276844D02*
X4310799Y-11276844D01*
X4310799Y-11276844D02*
X4291751Y-11267320D01*
X4291751Y-11267320D02*
X4282227Y-11257796D01*
X4282227Y-11257796D02*
X4272704Y-11238748D01*
X4272704Y-11238748D02*
X4263180Y-11200653D01*
X4263180Y-11200653D02*
X4263180Y-11153034D01*
X4263180Y-11153034D02*
X4272704Y-11114939D01*
X4272704Y-11114939D02*
X4282227Y-11095891D01*
X4282227Y-11095891D02*
X4291751Y-11086368D01*
X4291751Y-11086368D02*
X4310799Y-11076844D01*
X4463180Y-11276844D02*
X4463180Y-11143510D01*
X4463180Y-11162558D02*
X4472704Y-11153034D01*
X4472704Y-11153034D02*
X4491751Y-11143510D01*
X4491751Y-11143510D02*
X4520323Y-11143510D01*
X4520323Y-11143510D02*
X4539370Y-11153034D01*
X4539370Y-11153034D02*
X4548894Y-11172082D01*
X4548894Y-11172082D02*
X4548894Y-11276844D01*
X4548894Y-11172082D02*
X4558418Y-11153034D01*
X4558418Y-11153034D02*
X4577465Y-11143510D01*
X4577465Y-11143510D02*
X4606037Y-11143510D01*
X4606037Y-11143510D02*
X4625085Y-11153034D01*
X4625085Y-11153034D02*
X4634608Y-11172082D01*
X4634608Y-11172082D02*
X4634608Y-11276844D01*
X4729846Y-11276844D02*
X4729846Y-11143510D01*
X4729846Y-11162558D02*
X4739370Y-11153034D01*
X4739370Y-11153034D02*
X4758418Y-11143510D01*
X4758418Y-11143510D02*
X4786989Y-11143510D01*
X4786989Y-11143510D02*
X4806037Y-11153034D01*
X4806037Y-11153034D02*
X4815561Y-11172082D01*
X4815561Y-11172082D02*
X4815561Y-11276844D01*
X4815561Y-11172082D02*
X4825085Y-11153034D01*
X4825085Y-11153034D02*
X4844132Y-11143510D01*
X4844132Y-11143510D02*
X4872704Y-11143510D01*
X4872704Y-11143510D02*
X4891751Y-11153034D01*
X4891751Y-11153034D02*
X4901275Y-11172082D01*
X4901275Y-11172082D02*
X4901275Y-11276844D01*
X5291751Y-11067320D02*
X5120323Y-11324463D01*
X5548894Y-11076844D02*
X5567942Y-11076844D01*
X5567942Y-11076844D02*
X5586989Y-11086368D01*
X5586989Y-11086368D02*
X5596513Y-11095891D01*
X5596513Y-11095891D02*
X5606037Y-11114939D01*
X5606037Y-11114939D02*
X5615561Y-11153034D01*
X5615561Y-11153034D02*
X5615561Y-11200653D01*
X5615561Y-11200653D02*
X5606037Y-11238748D01*
X5606037Y-11238748D02*
X5596513Y-11257796D01*
X5596513Y-11257796D02*
X5586989Y-11267320D01*
X5586989Y-11267320D02*
X5567942Y-11276844D01*
X5567942Y-11276844D02*
X5548894Y-11276844D01*
X5548894Y-11276844D02*
X5529847Y-11267320D01*
X5529847Y-11267320D02*
X5520323Y-11257796D01*
X5520323Y-11257796D02*
X5510799Y-11238748D01*
X5510799Y-11238748D02*
X5501275Y-11200653D01*
X5501275Y-11200653D02*
X5501275Y-11153034D01*
X5501275Y-11153034D02*
X5510799Y-11114939D01*
X5510799Y-11114939D02*
X5520323Y-11095891D01*
X5520323Y-11095891D02*
X5529847Y-11086368D01*
X5529847Y-11086368D02*
X5548894Y-11076844D01*
X5701275Y-11257796D02*
X5710799Y-11267320D01*
X5710799Y-11267320D02*
X5701275Y-11276844D01*
X5701275Y-11276844D02*
X5691751Y-11267320D01*
X5691751Y-11267320D02*
X5701275Y-11257796D01*
X5701275Y-11257796D02*
X5701275Y-11276844D01*
X5834608Y-11076844D02*
X5853656Y-11076844D01*
X5853656Y-11076844D02*
X5872704Y-11086368D01*
X5872704Y-11086368D02*
X5882227Y-11095891D01*
X5882227Y-11095891D02*
X5891751Y-11114939D01*
X5891751Y-11114939D02*
X5901275Y-11153034D01*
X5901275Y-11153034D02*
X5901275Y-11200653D01*
X5901275Y-11200653D02*
X5891751Y-11238748D01*
X5891751Y-11238748D02*
X5882227Y-11257796D01*
X5882227Y-11257796D02*
X5872704Y-11267320D01*
X5872704Y-11267320D02*
X5853656Y-11276844D01*
X5853656Y-11276844D02*
X5834608Y-11276844D01*
X5834608Y-11276844D02*
X5815561Y-11267320D01*
X5815561Y-11267320D02*
X5806037Y-11257796D01*
X5806037Y-11257796D02*
X5796513Y-11238748D01*
X5796513Y-11238748D02*
X5786989Y-11200653D01*
X5786989Y-11200653D02*
X5786989Y-11153034D01*
X5786989Y-11153034D02*
X5796513Y-11114939D01*
X5796513Y-11114939D02*
X5806037Y-11095891D01*
X5806037Y-11095891D02*
X5815561Y-11086368D01*
X5815561Y-11086368D02*
X5834608Y-11076844D01*
X6072704Y-11143510D02*
X6072704Y-11276844D01*
X6025085Y-11067320D02*
X5977466Y-11210177D01*
X5977466Y-11210177D02*
X6101275Y-11210177D01*
X6282227Y-11276844D02*
X6167942Y-11276844D01*
X6225085Y-11276844D02*
X6225085Y-11076844D01*
X6225085Y-11076844D02*
X6206037Y-11105415D01*
X6206037Y-11105415D02*
X6186989Y-11124463D01*
X6186989Y-11124463D02*
X6167942Y-11133987D01*
X6348894Y-11076844D02*
X6472704Y-11076844D01*
X6472704Y-11076844D02*
X6406037Y-11153034D01*
X6406037Y-11153034D02*
X6434608Y-11153034D01*
X6434608Y-11153034D02*
X6453656Y-11162558D01*
X6453656Y-11162558D02*
X6463180Y-11172082D01*
X6463180Y-11172082D02*
X6472704Y-11191129D01*
X6472704Y-11191129D02*
X6472704Y-11238748D01*
X6472704Y-11238748D02*
X6463180Y-11257796D01*
X6463180Y-11257796D02*
X6453656Y-11267320D01*
X6453656Y-11267320D02*
X6434608Y-11276844D01*
X6434608Y-11276844D02*
X6377466Y-11276844D01*
X6377466Y-11276844D02*
X6358418Y-11267320D01*
X6358418Y-11267320D02*
X6348894Y-11257796D01*
X6548894Y-11076844D02*
X6548894Y-11114939D01*
X6625085Y-11076844D02*
X6625085Y-11114939D01*
X6920323Y-11353034D02*
X6910799Y-11343510D01*
X6910799Y-11343510D02*
X6891751Y-11314939D01*
X6891751Y-11314939D02*
X6882228Y-11295891D01*
X6882228Y-11295891D02*
X6872704Y-11267320D01*
X6872704Y-11267320D02*
X6863180Y-11219701D01*
X6863180Y-11219701D02*
X6863180Y-11181606D01*
X6863180Y-11181606D02*
X6872704Y-11133987D01*
X6872704Y-11133987D02*
X6882228Y-11105415D01*
X6882228Y-11105415D02*
X6891751Y-11086368D01*
X6891751Y-11086368D02*
X6910799Y-11057796D01*
X6910799Y-11057796D02*
X6920323Y-11048272D01*
X7101275Y-11276844D02*
X6986989Y-11276844D01*
X7044132Y-11276844D02*
X7044132Y-11076844D01*
X7044132Y-11076844D02*
X7025085Y-11105415D01*
X7025085Y-11105415D02*
X7006037Y-11124463D01*
X7006037Y-11124463D02*
X6986989Y-11133987D01*
X7225085Y-11076844D02*
X7244132Y-11076844D01*
X7244132Y-11076844D02*
X7263180Y-11086368D01*
X7263180Y-11086368D02*
X7272704Y-11095891D01*
X7272704Y-11095891D02*
X7282228Y-11114939D01*
X7282228Y-11114939D02*
X7291751Y-11153034D01*
X7291751Y-11153034D02*
X7291751Y-11200653D01*
X7291751Y-11200653D02*
X7282228Y-11238748D01*
X7282228Y-11238748D02*
X7272704Y-11257796D01*
X7272704Y-11257796D02*
X7263180Y-11267320D01*
X7263180Y-11267320D02*
X7244132Y-11276844D01*
X7244132Y-11276844D02*
X7225085Y-11276844D01*
X7225085Y-11276844D02*
X7206037Y-11267320D01*
X7206037Y-11267320D02*
X7196513Y-11257796D01*
X7196513Y-11257796D02*
X7186989Y-11238748D01*
X7186989Y-11238748D02*
X7177466Y-11200653D01*
X7177466Y-11200653D02*
X7177466Y-11153034D01*
X7177466Y-11153034D02*
X7186989Y-11114939D01*
X7186989Y-11114939D02*
X7196513Y-11095891D01*
X7196513Y-11095891D02*
X7206037Y-11086368D01*
X7206037Y-11086368D02*
X7225085Y-11076844D01*
X7529847Y-11276844D02*
X7529847Y-11076844D01*
X7615561Y-11276844D02*
X7615561Y-11172082D01*
X7615561Y-11172082D02*
X7606037Y-11153034D01*
X7606037Y-11153034D02*
X7586990Y-11143510D01*
X7586990Y-11143510D02*
X7558418Y-11143510D01*
X7558418Y-11143510D02*
X7539370Y-11153034D01*
X7539370Y-11153034D02*
X7529847Y-11162558D01*
X7739370Y-11276844D02*
X7720323Y-11267320D01*
X7720323Y-11267320D02*
X7710799Y-11257796D01*
X7710799Y-11257796D02*
X7701275Y-11238748D01*
X7701275Y-11238748D02*
X7701275Y-11181606D01*
X7701275Y-11181606D02*
X7710799Y-11162558D01*
X7710799Y-11162558D02*
X7720323Y-11153034D01*
X7720323Y-11153034D02*
X7739370Y-11143510D01*
X7739370Y-11143510D02*
X7767942Y-11143510D01*
X7767942Y-11143510D02*
X7786990Y-11153034D01*
X7786990Y-11153034D02*
X7796513Y-11162558D01*
X7796513Y-11162558D02*
X7806037Y-11181606D01*
X7806037Y-11181606D02*
X7806037Y-11238748D01*
X7806037Y-11238748D02*
X7796513Y-11257796D01*
X7796513Y-11257796D02*
X7786990Y-11267320D01*
X7786990Y-11267320D02*
X7767942Y-11276844D01*
X7767942Y-11276844D02*
X7739370Y-11276844D01*
X7920323Y-11276844D02*
X7901275Y-11267320D01*
X7901275Y-11267320D02*
X7891751Y-11248272D01*
X7891751Y-11248272D02*
X7891751Y-11076844D01*
X8072704Y-11267320D02*
X8053656Y-11276844D01*
X8053656Y-11276844D02*
X8015561Y-11276844D01*
X8015561Y-11276844D02*
X7996513Y-11267320D01*
X7996513Y-11267320D02*
X7986990Y-11248272D01*
X7986990Y-11248272D02*
X7986990Y-11172082D01*
X7986990Y-11172082D02*
X7996513Y-11153034D01*
X7996513Y-11153034D02*
X8015561Y-11143510D01*
X8015561Y-11143510D02*
X8053656Y-11143510D01*
X8053656Y-11143510D02*
X8072704Y-11153034D01*
X8072704Y-11153034D02*
X8082228Y-11172082D01*
X8082228Y-11172082D02*
X8082228Y-11191129D01*
X8082228Y-11191129D02*
X7986990Y-11210177D01*
X8158418Y-11267320D02*
X8177466Y-11276844D01*
X8177466Y-11276844D02*
X8215561Y-11276844D01*
X8215561Y-11276844D02*
X8234609Y-11267320D01*
X8234609Y-11267320D02*
X8244132Y-11248272D01*
X8244132Y-11248272D02*
X8244132Y-11238748D01*
X8244132Y-11238748D02*
X8234609Y-11219701D01*
X8234609Y-11219701D02*
X8215561Y-11210177D01*
X8215561Y-11210177D02*
X8186990Y-11210177D01*
X8186990Y-11210177D02*
X8167942Y-11200653D01*
X8167942Y-11200653D02*
X8158418Y-11181606D01*
X8158418Y-11181606D02*
X8158418Y-11172082D01*
X8158418Y-11172082D02*
X8167942Y-11153034D01*
X8167942Y-11153034D02*
X8186990Y-11143510D01*
X8186990Y-11143510D02*
X8215561Y-11143510D01*
X8215561Y-11143510D02*
X8234609Y-11153034D01*
X8310799Y-11353034D02*
X8320323Y-11343510D01*
X8320323Y-11343510D02*
X8339371Y-11314939D01*
X8339371Y-11314939D02*
X8348894Y-11295891D01*
X8348894Y-11295891D02*
X8358418Y-11267320D01*
X8358418Y-11267320D02*
X8367942Y-11219701D01*
X8367942Y-11219701D02*
X8367942Y-11181606D01*
X8367942Y-11181606D02*
X8358418Y-11133987D01*
X8358418Y-11133987D02*
X8348894Y-11105415D01*
X8348894Y-11105415D02*
X8339371Y-11086368D01*
X8339371Y-11086368D02*
X8320323Y-11057796D01*
X8320323Y-11057796D02*
X8310799Y-11048272D01*
D16*
X3235260Y-11394360D02*
X3345260Y-11504360D01*
X3345260Y-11394360D02*
X3235260Y-11504360D01*
X3345260Y-11449360D02*
G75*
G03*
X3345260Y-11449360I-55000J0D01*
G01*
D11*
X3710799Y-11540844D02*
X3596513Y-11540844D01*
X3653656Y-11540844D02*
X3653656Y-11340844D01*
X3653656Y-11340844D02*
X3634608Y-11369415D01*
X3634608Y-11369415D02*
X3615561Y-11388463D01*
X3615561Y-11388463D02*
X3596513Y-11397987D01*
X3796513Y-11521796D02*
X3806037Y-11531320D01*
X3806037Y-11531320D02*
X3796513Y-11540844D01*
X3796513Y-11540844D02*
X3786989Y-11531320D01*
X3786989Y-11531320D02*
X3796513Y-11521796D01*
X3796513Y-11521796D02*
X3796513Y-11540844D01*
X3996513Y-11540844D02*
X3882227Y-11540844D01*
X3939370Y-11540844D02*
X3939370Y-11340844D01*
X3939370Y-11340844D02*
X3920322Y-11369415D01*
X3920322Y-11369415D02*
X3901275Y-11388463D01*
X3901275Y-11388463D02*
X3882227Y-11397987D01*
X4120322Y-11340844D02*
X4139370Y-11340844D01*
X4139370Y-11340844D02*
X4158418Y-11350368D01*
X4158418Y-11350368D02*
X4167942Y-11359891D01*
X4167942Y-11359891D02*
X4177465Y-11378939D01*
X4177465Y-11378939D02*
X4186989Y-11417034D01*
X4186989Y-11417034D02*
X4186989Y-11464653D01*
X4186989Y-11464653D02*
X4177465Y-11502748D01*
X4177465Y-11502748D02*
X4167942Y-11521796D01*
X4167942Y-11521796D02*
X4158418Y-11531320D01*
X4158418Y-11531320D02*
X4139370Y-11540844D01*
X4139370Y-11540844D02*
X4120322Y-11540844D01*
X4120322Y-11540844D02*
X4101275Y-11531320D01*
X4101275Y-11531320D02*
X4091751Y-11521796D01*
X4091751Y-11521796D02*
X4082227Y-11502748D01*
X4082227Y-11502748D02*
X4072703Y-11464653D01*
X4072703Y-11464653D02*
X4072703Y-11417034D01*
X4072703Y-11417034D02*
X4082227Y-11378939D01*
X4082227Y-11378939D02*
X4091751Y-11359891D01*
X4091751Y-11359891D02*
X4101275Y-11350368D01*
X4101275Y-11350368D02*
X4120322Y-11340844D01*
X4310799Y-11340844D02*
X4329846Y-11340844D01*
X4329846Y-11340844D02*
X4348894Y-11350368D01*
X4348894Y-11350368D02*
X4358418Y-11359891D01*
X4358418Y-11359891D02*
X4367942Y-11378939D01*
X4367942Y-11378939D02*
X4377465Y-11417034D01*
X4377465Y-11417034D02*
X4377465Y-11464653D01*
X4377465Y-11464653D02*
X4367942Y-11502748D01*
X4367942Y-11502748D02*
X4358418Y-11521796D01*
X4358418Y-11521796D02*
X4348894Y-11531320D01*
X4348894Y-11531320D02*
X4329846Y-11540844D01*
X4329846Y-11540844D02*
X4310799Y-11540844D01*
X4310799Y-11540844D02*
X4291751Y-11531320D01*
X4291751Y-11531320D02*
X4282227Y-11521796D01*
X4282227Y-11521796D02*
X4272704Y-11502748D01*
X4272704Y-11502748D02*
X4263180Y-11464653D01*
X4263180Y-11464653D02*
X4263180Y-11417034D01*
X4263180Y-11417034D02*
X4272704Y-11378939D01*
X4272704Y-11378939D02*
X4282227Y-11359891D01*
X4282227Y-11359891D02*
X4291751Y-11350368D01*
X4291751Y-11350368D02*
X4310799Y-11340844D01*
X4463180Y-11540844D02*
X4463180Y-11407510D01*
X4463180Y-11426558D02*
X4472704Y-11417034D01*
X4472704Y-11417034D02*
X4491751Y-11407510D01*
X4491751Y-11407510D02*
X4520323Y-11407510D01*
X4520323Y-11407510D02*
X4539370Y-11417034D01*
X4539370Y-11417034D02*
X4548894Y-11436082D01*
X4548894Y-11436082D02*
X4548894Y-11540844D01*
X4548894Y-11436082D02*
X4558418Y-11417034D01*
X4558418Y-11417034D02*
X4577465Y-11407510D01*
X4577465Y-11407510D02*
X4606037Y-11407510D01*
X4606037Y-11407510D02*
X4625085Y-11417034D01*
X4625085Y-11417034D02*
X4634608Y-11436082D01*
X4634608Y-11436082D02*
X4634608Y-11540844D01*
X4729846Y-11540844D02*
X4729846Y-11407510D01*
X4729846Y-11426558D02*
X4739370Y-11417034D01*
X4739370Y-11417034D02*
X4758418Y-11407510D01*
X4758418Y-11407510D02*
X4786989Y-11407510D01*
X4786989Y-11407510D02*
X4806037Y-11417034D01*
X4806037Y-11417034D02*
X4815561Y-11436082D01*
X4815561Y-11436082D02*
X4815561Y-11540844D01*
X4815561Y-11436082D02*
X4825085Y-11417034D01*
X4825085Y-11417034D02*
X4844132Y-11407510D01*
X4844132Y-11407510D02*
X4872704Y-11407510D01*
X4872704Y-11407510D02*
X4891751Y-11417034D01*
X4891751Y-11417034D02*
X4901275Y-11436082D01*
X4901275Y-11436082D02*
X4901275Y-11540844D01*
X5291751Y-11331320D02*
X5120323Y-11588463D01*
X5548894Y-11340844D02*
X5567942Y-11340844D01*
X5567942Y-11340844D02*
X5586989Y-11350368D01*
X5586989Y-11350368D02*
X5596513Y-11359891D01*
X5596513Y-11359891D02*
X5606037Y-11378939D01*
X5606037Y-11378939D02*
X5615561Y-11417034D01*
X5615561Y-11417034D02*
X5615561Y-11464653D01*
X5615561Y-11464653D02*
X5606037Y-11502748D01*
X5606037Y-11502748D02*
X5596513Y-11521796D01*
X5596513Y-11521796D02*
X5586989Y-11531320D01*
X5586989Y-11531320D02*
X5567942Y-11540844D01*
X5567942Y-11540844D02*
X5548894Y-11540844D01*
X5548894Y-11540844D02*
X5529847Y-11531320D01*
X5529847Y-11531320D02*
X5520323Y-11521796D01*
X5520323Y-11521796D02*
X5510799Y-11502748D01*
X5510799Y-11502748D02*
X5501275Y-11464653D01*
X5501275Y-11464653D02*
X5501275Y-11417034D01*
X5501275Y-11417034D02*
X5510799Y-11378939D01*
X5510799Y-11378939D02*
X5520323Y-11359891D01*
X5520323Y-11359891D02*
X5529847Y-11350368D01*
X5529847Y-11350368D02*
X5548894Y-11340844D01*
X5701275Y-11521796D02*
X5710799Y-11531320D01*
X5710799Y-11531320D02*
X5701275Y-11540844D01*
X5701275Y-11540844D02*
X5691751Y-11531320D01*
X5691751Y-11531320D02*
X5701275Y-11521796D01*
X5701275Y-11521796D02*
X5701275Y-11540844D01*
X5834608Y-11340844D02*
X5853656Y-11340844D01*
X5853656Y-11340844D02*
X5872704Y-11350368D01*
X5872704Y-11350368D02*
X5882227Y-11359891D01*
X5882227Y-11359891D02*
X5891751Y-11378939D01*
X5891751Y-11378939D02*
X5901275Y-11417034D01*
X5901275Y-11417034D02*
X5901275Y-11464653D01*
X5901275Y-11464653D02*
X5891751Y-11502748D01*
X5891751Y-11502748D02*
X5882227Y-11521796D01*
X5882227Y-11521796D02*
X5872704Y-11531320D01*
X5872704Y-11531320D02*
X5853656Y-11540844D01*
X5853656Y-11540844D02*
X5834608Y-11540844D01*
X5834608Y-11540844D02*
X5815561Y-11531320D01*
X5815561Y-11531320D02*
X5806037Y-11521796D01*
X5806037Y-11521796D02*
X5796513Y-11502748D01*
X5796513Y-11502748D02*
X5786989Y-11464653D01*
X5786989Y-11464653D02*
X5786989Y-11417034D01*
X5786989Y-11417034D02*
X5796513Y-11378939D01*
X5796513Y-11378939D02*
X5806037Y-11359891D01*
X5806037Y-11359891D02*
X5815561Y-11350368D01*
X5815561Y-11350368D02*
X5834608Y-11340844D01*
X6072704Y-11407510D02*
X6072704Y-11540844D01*
X6025085Y-11331320D02*
X5977466Y-11474177D01*
X5977466Y-11474177D02*
X6101275Y-11474177D01*
X6158418Y-11340844D02*
X6282227Y-11340844D01*
X6282227Y-11340844D02*
X6215561Y-11417034D01*
X6215561Y-11417034D02*
X6244132Y-11417034D01*
X6244132Y-11417034D02*
X6263180Y-11426558D01*
X6263180Y-11426558D02*
X6272704Y-11436082D01*
X6272704Y-11436082D02*
X6282227Y-11455129D01*
X6282227Y-11455129D02*
X6282227Y-11502748D01*
X6282227Y-11502748D02*
X6272704Y-11521796D01*
X6272704Y-11521796D02*
X6263180Y-11531320D01*
X6263180Y-11531320D02*
X6244132Y-11540844D01*
X6244132Y-11540844D02*
X6186989Y-11540844D01*
X6186989Y-11540844D02*
X6167942Y-11531320D01*
X6167942Y-11531320D02*
X6158418Y-11521796D01*
X6348894Y-11340844D02*
X6472704Y-11340844D01*
X6472704Y-11340844D02*
X6406037Y-11417034D01*
X6406037Y-11417034D02*
X6434608Y-11417034D01*
X6434608Y-11417034D02*
X6453656Y-11426558D01*
X6453656Y-11426558D02*
X6463180Y-11436082D01*
X6463180Y-11436082D02*
X6472704Y-11455129D01*
X6472704Y-11455129D02*
X6472704Y-11502748D01*
X6472704Y-11502748D02*
X6463180Y-11521796D01*
X6463180Y-11521796D02*
X6453656Y-11531320D01*
X6453656Y-11531320D02*
X6434608Y-11540844D01*
X6434608Y-11540844D02*
X6377466Y-11540844D01*
X6377466Y-11540844D02*
X6358418Y-11531320D01*
X6358418Y-11531320D02*
X6348894Y-11521796D01*
X6548894Y-11340844D02*
X6548894Y-11378939D01*
X6625085Y-11340844D02*
X6625085Y-11378939D01*
X6920323Y-11617034D02*
X6910799Y-11607510D01*
X6910799Y-11607510D02*
X6891751Y-11578939D01*
X6891751Y-11578939D02*
X6882228Y-11559891D01*
X6882228Y-11559891D02*
X6872704Y-11531320D01*
X6872704Y-11531320D02*
X6863180Y-11483701D01*
X6863180Y-11483701D02*
X6863180Y-11445606D01*
X6863180Y-11445606D02*
X6872704Y-11397987D01*
X6872704Y-11397987D02*
X6882228Y-11369415D01*
X6882228Y-11369415D02*
X6891751Y-11350368D01*
X6891751Y-11350368D02*
X6910799Y-11321796D01*
X6910799Y-11321796D02*
X6920323Y-11312272D01*
X6986989Y-11359891D02*
X6996513Y-11350368D01*
X6996513Y-11350368D02*
X7015561Y-11340844D01*
X7015561Y-11340844D02*
X7063180Y-11340844D01*
X7063180Y-11340844D02*
X7082228Y-11350368D01*
X7082228Y-11350368D02*
X7091751Y-11359891D01*
X7091751Y-11359891D02*
X7101275Y-11378939D01*
X7101275Y-11378939D02*
X7101275Y-11397987D01*
X7101275Y-11397987D02*
X7091751Y-11426558D01*
X7091751Y-11426558D02*
X6977466Y-11540844D01*
X6977466Y-11540844D02*
X7101275Y-11540844D01*
X7167942Y-11340844D02*
X7301275Y-11340844D01*
X7301275Y-11340844D02*
X7215561Y-11540844D01*
X7529847Y-11540844D02*
X7529847Y-11340844D01*
X7615561Y-11540844D02*
X7615561Y-11436082D01*
X7615561Y-11436082D02*
X7606037Y-11417034D01*
X7606037Y-11417034D02*
X7586990Y-11407510D01*
X7586990Y-11407510D02*
X7558418Y-11407510D01*
X7558418Y-11407510D02*
X7539370Y-11417034D01*
X7539370Y-11417034D02*
X7529847Y-11426558D01*
X7739370Y-11540844D02*
X7720323Y-11531320D01*
X7720323Y-11531320D02*
X7710799Y-11521796D01*
X7710799Y-11521796D02*
X7701275Y-11502748D01*
X7701275Y-11502748D02*
X7701275Y-11445606D01*
X7701275Y-11445606D02*
X7710799Y-11426558D01*
X7710799Y-11426558D02*
X7720323Y-11417034D01*
X7720323Y-11417034D02*
X7739370Y-11407510D01*
X7739370Y-11407510D02*
X7767942Y-11407510D01*
X7767942Y-11407510D02*
X7786990Y-11417034D01*
X7786990Y-11417034D02*
X7796513Y-11426558D01*
X7796513Y-11426558D02*
X7806037Y-11445606D01*
X7806037Y-11445606D02*
X7806037Y-11502748D01*
X7806037Y-11502748D02*
X7796513Y-11521796D01*
X7796513Y-11521796D02*
X7786990Y-11531320D01*
X7786990Y-11531320D02*
X7767942Y-11540844D01*
X7767942Y-11540844D02*
X7739370Y-11540844D01*
X7920323Y-11540844D02*
X7901275Y-11531320D01*
X7901275Y-11531320D02*
X7891751Y-11512272D01*
X7891751Y-11512272D02*
X7891751Y-11340844D01*
X8072704Y-11531320D02*
X8053656Y-11540844D01*
X8053656Y-11540844D02*
X8015561Y-11540844D01*
X8015561Y-11540844D02*
X7996513Y-11531320D01*
X7996513Y-11531320D02*
X7986990Y-11512272D01*
X7986990Y-11512272D02*
X7986990Y-11436082D01*
X7986990Y-11436082D02*
X7996513Y-11417034D01*
X7996513Y-11417034D02*
X8015561Y-11407510D01*
X8015561Y-11407510D02*
X8053656Y-11407510D01*
X8053656Y-11407510D02*
X8072704Y-11417034D01*
X8072704Y-11417034D02*
X8082228Y-11436082D01*
X8082228Y-11436082D02*
X8082228Y-11455129D01*
X8082228Y-11455129D02*
X7986990Y-11474177D01*
X8158418Y-11531320D02*
X8177466Y-11540844D01*
X8177466Y-11540844D02*
X8215561Y-11540844D01*
X8215561Y-11540844D02*
X8234609Y-11531320D01*
X8234609Y-11531320D02*
X8244132Y-11512272D01*
X8244132Y-11512272D02*
X8244132Y-11502748D01*
X8244132Y-11502748D02*
X8234609Y-11483701D01*
X8234609Y-11483701D02*
X8215561Y-11474177D01*
X8215561Y-11474177D02*
X8186990Y-11474177D01*
X8186990Y-11474177D02*
X8167942Y-11464653D01*
X8167942Y-11464653D02*
X8158418Y-11445606D01*
X8158418Y-11445606D02*
X8158418Y-11436082D01*
X8158418Y-11436082D02*
X8167942Y-11417034D01*
X8167942Y-11417034D02*
X8186990Y-11407510D01*
X8186990Y-11407510D02*
X8215561Y-11407510D01*
X8215561Y-11407510D02*
X8234609Y-11417034D01*
X8310799Y-11617034D02*
X8320323Y-11607510D01*
X8320323Y-11607510D02*
X8339371Y-11578939D01*
X8339371Y-11578939D02*
X8348894Y-11559891D01*
X8348894Y-11559891D02*
X8358418Y-11531320D01*
X8358418Y-11531320D02*
X8367942Y-11483701D01*
X8367942Y-11483701D02*
X8367942Y-11445606D01*
X8367942Y-11445606D02*
X8358418Y-11397987D01*
X8358418Y-11397987D02*
X8348894Y-11369415D01*
X8348894Y-11369415D02*
X8339371Y-11350368D01*
X8339371Y-11350368D02*
X8320323Y-11321796D01*
X8320323Y-11321796D02*
X8310799Y-11312272D01*
D17*
X3225260Y-11653360D02*
X3345260Y-11773360D01*
X3345260Y-11653360D02*
X3225260Y-11773360D01*
X3285260Y-11653360D02*
X3285260Y-11773360D01*
X3225260Y-11713360D02*
X3345260Y-11713360D01*
D11*
X3710799Y-11804844D02*
X3596513Y-11804844D01*
X3653656Y-11804844D02*
X3653656Y-11604844D01*
X3653656Y-11604844D02*
X3634608Y-11633415D01*
X3634608Y-11633415D02*
X3615561Y-11652463D01*
X3615561Y-11652463D02*
X3596513Y-11661987D01*
X3796513Y-11785796D02*
X3806037Y-11795320D01*
X3806037Y-11795320D02*
X3796513Y-11804844D01*
X3796513Y-11804844D02*
X3786989Y-11795320D01*
X3786989Y-11795320D02*
X3796513Y-11785796D01*
X3796513Y-11785796D02*
X3796513Y-11804844D01*
X3882227Y-11623891D02*
X3891751Y-11614368D01*
X3891751Y-11614368D02*
X3910799Y-11604844D01*
X3910799Y-11604844D02*
X3958418Y-11604844D01*
X3958418Y-11604844D02*
X3977465Y-11614368D01*
X3977465Y-11614368D02*
X3986989Y-11623891D01*
X3986989Y-11623891D02*
X3996513Y-11642939D01*
X3996513Y-11642939D02*
X3996513Y-11661987D01*
X3996513Y-11661987D02*
X3986989Y-11690558D01*
X3986989Y-11690558D02*
X3872703Y-11804844D01*
X3872703Y-11804844D02*
X3996513Y-11804844D01*
X4120322Y-11604844D02*
X4139370Y-11604844D01*
X4139370Y-11604844D02*
X4158418Y-11614368D01*
X4158418Y-11614368D02*
X4167942Y-11623891D01*
X4167942Y-11623891D02*
X4177465Y-11642939D01*
X4177465Y-11642939D02*
X4186989Y-11681034D01*
X4186989Y-11681034D02*
X4186989Y-11728653D01*
X4186989Y-11728653D02*
X4177465Y-11766748D01*
X4177465Y-11766748D02*
X4167942Y-11785796D01*
X4167942Y-11785796D02*
X4158418Y-11795320D01*
X4158418Y-11795320D02*
X4139370Y-11804844D01*
X4139370Y-11804844D02*
X4120322Y-11804844D01*
X4120322Y-11804844D02*
X4101275Y-11795320D01*
X4101275Y-11795320D02*
X4091751Y-11785796D01*
X4091751Y-11785796D02*
X4082227Y-11766748D01*
X4082227Y-11766748D02*
X4072703Y-11728653D01*
X4072703Y-11728653D02*
X4072703Y-11681034D01*
X4072703Y-11681034D02*
X4082227Y-11642939D01*
X4082227Y-11642939D02*
X4091751Y-11623891D01*
X4091751Y-11623891D02*
X4101275Y-11614368D01*
X4101275Y-11614368D02*
X4120322Y-11604844D01*
X4310799Y-11604844D02*
X4329846Y-11604844D01*
X4329846Y-11604844D02*
X4348894Y-11614368D01*
X4348894Y-11614368D02*
X4358418Y-11623891D01*
X4358418Y-11623891D02*
X4367942Y-11642939D01*
X4367942Y-11642939D02*
X4377465Y-11681034D01*
X4377465Y-11681034D02*
X4377465Y-11728653D01*
X4377465Y-11728653D02*
X4367942Y-11766748D01*
X4367942Y-11766748D02*
X4358418Y-11785796D01*
X4358418Y-11785796D02*
X4348894Y-11795320D01*
X4348894Y-11795320D02*
X4329846Y-11804844D01*
X4329846Y-11804844D02*
X4310799Y-11804844D01*
X4310799Y-11804844D02*
X4291751Y-11795320D01*
X4291751Y-11795320D02*
X4282227Y-11785796D01*
X4282227Y-11785796D02*
X4272704Y-11766748D01*
X4272704Y-11766748D02*
X4263180Y-11728653D01*
X4263180Y-11728653D02*
X4263180Y-11681034D01*
X4263180Y-11681034D02*
X4272704Y-11642939D01*
X4272704Y-11642939D02*
X4282227Y-11623891D01*
X4282227Y-11623891D02*
X4291751Y-11614368D01*
X4291751Y-11614368D02*
X4310799Y-11604844D01*
X4463180Y-11804844D02*
X4463180Y-11671510D01*
X4463180Y-11690558D02*
X4472704Y-11681034D01*
X4472704Y-11681034D02*
X4491751Y-11671510D01*
X4491751Y-11671510D02*
X4520323Y-11671510D01*
X4520323Y-11671510D02*
X4539370Y-11681034D01*
X4539370Y-11681034D02*
X4548894Y-11700082D01*
X4548894Y-11700082D02*
X4548894Y-11804844D01*
X4548894Y-11700082D02*
X4558418Y-11681034D01*
X4558418Y-11681034D02*
X4577465Y-11671510D01*
X4577465Y-11671510D02*
X4606037Y-11671510D01*
X4606037Y-11671510D02*
X4625085Y-11681034D01*
X4625085Y-11681034D02*
X4634608Y-11700082D01*
X4634608Y-11700082D02*
X4634608Y-11804844D01*
X4729846Y-11804844D02*
X4729846Y-11671510D01*
X4729846Y-11690558D02*
X4739370Y-11681034D01*
X4739370Y-11681034D02*
X4758418Y-11671510D01*
X4758418Y-11671510D02*
X4786989Y-11671510D01*
X4786989Y-11671510D02*
X4806037Y-11681034D01*
X4806037Y-11681034D02*
X4815561Y-11700082D01*
X4815561Y-11700082D02*
X4815561Y-11804844D01*
X4815561Y-11700082D02*
X4825085Y-11681034D01*
X4825085Y-11681034D02*
X4844132Y-11671510D01*
X4844132Y-11671510D02*
X4872704Y-11671510D01*
X4872704Y-11671510D02*
X4891751Y-11681034D01*
X4891751Y-11681034D02*
X4901275Y-11700082D01*
X4901275Y-11700082D02*
X4901275Y-11804844D01*
X5291751Y-11595320D02*
X5120323Y-11852463D01*
X5548894Y-11604844D02*
X5567942Y-11604844D01*
X5567942Y-11604844D02*
X5586989Y-11614368D01*
X5586989Y-11614368D02*
X5596513Y-11623891D01*
X5596513Y-11623891D02*
X5606037Y-11642939D01*
X5606037Y-11642939D02*
X5615561Y-11681034D01*
X5615561Y-11681034D02*
X5615561Y-11728653D01*
X5615561Y-11728653D02*
X5606037Y-11766748D01*
X5606037Y-11766748D02*
X5596513Y-11785796D01*
X5596513Y-11785796D02*
X5586989Y-11795320D01*
X5586989Y-11795320D02*
X5567942Y-11804844D01*
X5567942Y-11804844D02*
X5548894Y-11804844D01*
X5548894Y-11804844D02*
X5529847Y-11795320D01*
X5529847Y-11795320D02*
X5520323Y-11785796D01*
X5520323Y-11785796D02*
X5510799Y-11766748D01*
X5510799Y-11766748D02*
X5501275Y-11728653D01*
X5501275Y-11728653D02*
X5501275Y-11681034D01*
X5501275Y-11681034D02*
X5510799Y-11642939D01*
X5510799Y-11642939D02*
X5520323Y-11623891D01*
X5520323Y-11623891D02*
X5529847Y-11614368D01*
X5529847Y-11614368D02*
X5548894Y-11604844D01*
X5701275Y-11785796D02*
X5710799Y-11795320D01*
X5710799Y-11795320D02*
X5701275Y-11804844D01*
X5701275Y-11804844D02*
X5691751Y-11795320D01*
X5691751Y-11795320D02*
X5701275Y-11785796D01*
X5701275Y-11785796D02*
X5701275Y-11804844D01*
X5834608Y-11604844D02*
X5853656Y-11604844D01*
X5853656Y-11604844D02*
X5872704Y-11614368D01*
X5872704Y-11614368D02*
X5882227Y-11623891D01*
X5882227Y-11623891D02*
X5891751Y-11642939D01*
X5891751Y-11642939D02*
X5901275Y-11681034D01*
X5901275Y-11681034D02*
X5901275Y-11728653D01*
X5901275Y-11728653D02*
X5891751Y-11766748D01*
X5891751Y-11766748D02*
X5882227Y-11785796D01*
X5882227Y-11785796D02*
X5872704Y-11795320D01*
X5872704Y-11795320D02*
X5853656Y-11804844D01*
X5853656Y-11804844D02*
X5834608Y-11804844D01*
X5834608Y-11804844D02*
X5815561Y-11795320D01*
X5815561Y-11795320D02*
X5806037Y-11785796D01*
X5806037Y-11785796D02*
X5796513Y-11766748D01*
X5796513Y-11766748D02*
X5786989Y-11728653D01*
X5786989Y-11728653D02*
X5786989Y-11681034D01*
X5786989Y-11681034D02*
X5796513Y-11642939D01*
X5796513Y-11642939D02*
X5806037Y-11623891D01*
X5806037Y-11623891D02*
X5815561Y-11614368D01*
X5815561Y-11614368D02*
X5834608Y-11604844D01*
X6072704Y-11671510D02*
X6072704Y-11804844D01*
X6025085Y-11595320D02*
X5977466Y-11738177D01*
X5977466Y-11738177D02*
X6101275Y-11738177D01*
X6158418Y-11604844D02*
X6291751Y-11604844D01*
X6291751Y-11604844D02*
X6206037Y-11804844D01*
X6358418Y-11623891D02*
X6367942Y-11614368D01*
X6367942Y-11614368D02*
X6386989Y-11604844D01*
X6386989Y-11604844D02*
X6434608Y-11604844D01*
X6434608Y-11604844D02*
X6453656Y-11614368D01*
X6453656Y-11614368D02*
X6463180Y-11623891D01*
X6463180Y-11623891D02*
X6472704Y-11642939D01*
X6472704Y-11642939D02*
X6472704Y-11661987D01*
X6472704Y-11661987D02*
X6463180Y-11690558D01*
X6463180Y-11690558D02*
X6348894Y-11804844D01*
X6348894Y-11804844D02*
X6472704Y-11804844D01*
X6548894Y-11604844D02*
X6548894Y-11642939D01*
X6625085Y-11604844D02*
X6625085Y-11642939D01*
X6920323Y-11881034D02*
X6910799Y-11871510D01*
X6910799Y-11871510D02*
X6891751Y-11842939D01*
X6891751Y-11842939D02*
X6882228Y-11823891D01*
X6882228Y-11823891D02*
X6872704Y-11795320D01*
X6872704Y-11795320D02*
X6863180Y-11747701D01*
X6863180Y-11747701D02*
X6863180Y-11709606D01*
X6863180Y-11709606D02*
X6872704Y-11661987D01*
X6872704Y-11661987D02*
X6882228Y-11633415D01*
X6882228Y-11633415D02*
X6891751Y-11614368D01*
X6891751Y-11614368D02*
X6910799Y-11585796D01*
X6910799Y-11585796D02*
X6920323Y-11576272D01*
X7082228Y-11604844D02*
X7044132Y-11604844D01*
X7044132Y-11604844D02*
X7025085Y-11614368D01*
X7025085Y-11614368D02*
X7015561Y-11623891D01*
X7015561Y-11623891D02*
X6996513Y-11652463D01*
X6996513Y-11652463D02*
X6986989Y-11690558D01*
X6986989Y-11690558D02*
X6986989Y-11766748D01*
X6986989Y-11766748D02*
X6996513Y-11785796D01*
X6996513Y-11785796D02*
X7006037Y-11795320D01*
X7006037Y-11795320D02*
X7025085Y-11804844D01*
X7025085Y-11804844D02*
X7063180Y-11804844D01*
X7063180Y-11804844D02*
X7082228Y-11795320D01*
X7082228Y-11795320D02*
X7091751Y-11785796D01*
X7091751Y-11785796D02*
X7101275Y-11766748D01*
X7101275Y-11766748D02*
X7101275Y-11719129D01*
X7101275Y-11719129D02*
X7091751Y-11700082D01*
X7091751Y-11700082D02*
X7082228Y-11690558D01*
X7082228Y-11690558D02*
X7063180Y-11681034D01*
X7063180Y-11681034D02*
X7025085Y-11681034D01*
X7025085Y-11681034D02*
X7006037Y-11690558D01*
X7006037Y-11690558D02*
X6996513Y-11700082D01*
X6996513Y-11700082D02*
X6986989Y-11719129D01*
X7339370Y-11804844D02*
X7339370Y-11604844D01*
X7425085Y-11804844D02*
X7425085Y-11700082D01*
X7425085Y-11700082D02*
X7415561Y-11681034D01*
X7415561Y-11681034D02*
X7396513Y-11671510D01*
X7396513Y-11671510D02*
X7367942Y-11671510D01*
X7367942Y-11671510D02*
X7348894Y-11681034D01*
X7348894Y-11681034D02*
X7339370Y-11690558D01*
X7548894Y-11804844D02*
X7529847Y-11795320D01*
X7529847Y-11795320D02*
X7520323Y-11785796D01*
X7520323Y-11785796D02*
X7510799Y-11766748D01*
X7510799Y-11766748D02*
X7510799Y-11709606D01*
X7510799Y-11709606D02*
X7520323Y-11690558D01*
X7520323Y-11690558D02*
X7529847Y-11681034D01*
X7529847Y-11681034D02*
X7548894Y-11671510D01*
X7548894Y-11671510D02*
X7577466Y-11671510D01*
X7577466Y-11671510D02*
X7596513Y-11681034D01*
X7596513Y-11681034D02*
X7606037Y-11690558D01*
X7606037Y-11690558D02*
X7615561Y-11709606D01*
X7615561Y-11709606D02*
X7615561Y-11766748D01*
X7615561Y-11766748D02*
X7606037Y-11785796D01*
X7606037Y-11785796D02*
X7596513Y-11795320D01*
X7596513Y-11795320D02*
X7577466Y-11804844D01*
X7577466Y-11804844D02*
X7548894Y-11804844D01*
X7729847Y-11804844D02*
X7710799Y-11795320D01*
X7710799Y-11795320D02*
X7701275Y-11776272D01*
X7701275Y-11776272D02*
X7701275Y-11604844D01*
X7882228Y-11795320D02*
X7863180Y-11804844D01*
X7863180Y-11804844D02*
X7825085Y-11804844D01*
X7825085Y-11804844D02*
X7806037Y-11795320D01*
X7806037Y-11795320D02*
X7796513Y-11776272D01*
X7796513Y-11776272D02*
X7796513Y-11700082D01*
X7796513Y-11700082D02*
X7806037Y-11681034D01*
X7806037Y-11681034D02*
X7825085Y-11671510D01*
X7825085Y-11671510D02*
X7863180Y-11671510D01*
X7863180Y-11671510D02*
X7882228Y-11681034D01*
X7882228Y-11681034D02*
X7891751Y-11700082D01*
X7891751Y-11700082D02*
X7891751Y-11719129D01*
X7891751Y-11719129D02*
X7796513Y-11738177D01*
X7967942Y-11795320D02*
X7986990Y-11804844D01*
X7986990Y-11804844D02*
X8025085Y-11804844D01*
X8025085Y-11804844D02*
X8044132Y-11795320D01*
X8044132Y-11795320D02*
X8053656Y-11776272D01*
X8053656Y-11776272D02*
X8053656Y-11766748D01*
X8053656Y-11766748D02*
X8044132Y-11747701D01*
X8044132Y-11747701D02*
X8025085Y-11738177D01*
X8025085Y-11738177D02*
X7996513Y-11738177D01*
X7996513Y-11738177D02*
X7977466Y-11728653D01*
X7977466Y-11728653D02*
X7967942Y-11709606D01*
X7967942Y-11709606D02*
X7967942Y-11700082D01*
X7967942Y-11700082D02*
X7977466Y-11681034D01*
X7977466Y-11681034D02*
X7996513Y-11671510D01*
X7996513Y-11671510D02*
X8025085Y-11671510D01*
X8025085Y-11671510D02*
X8044132Y-11681034D01*
X8120323Y-11881034D02*
X8129847Y-11871510D01*
X8129847Y-11871510D02*
X8148894Y-11842939D01*
X8148894Y-11842939D02*
X8158418Y-11823891D01*
X8158418Y-11823891D02*
X8167942Y-11795320D01*
X8167942Y-11795320D02*
X8177466Y-11747701D01*
X8177466Y-11747701D02*
X8177466Y-11709606D01*
X8177466Y-11709606D02*
X8167942Y-11661987D01*
X8167942Y-11661987D02*
X8158418Y-11633415D01*
X8158418Y-11633415D02*
X8148894Y-11614368D01*
X8148894Y-11614368D02*
X8129847Y-11585796D01*
X8129847Y-11585796D02*
X8120323Y-11576272D01*
D18*
X3215260Y-11912360D02*
X3345260Y-12042360D01*
X3345260Y-11912360D02*
X3215260Y-12042360D01*
X3326222Y-12023322D02*
X3326222Y-11931398D01*
X3234298Y-11931398D01*
X3234298Y-12023322D01*
X3326222Y-12023322D01*
D11*
X3710799Y-12068844D02*
X3596513Y-12068844D01*
X3653656Y-12068844D02*
X3653656Y-11868844D01*
X3653656Y-11868844D02*
X3634608Y-11897415D01*
X3634608Y-11897415D02*
X3615561Y-11916463D01*
X3615561Y-11916463D02*
X3596513Y-11925987D01*
X3796513Y-12049796D02*
X3806037Y-12059320D01*
X3806037Y-12059320D02*
X3796513Y-12068844D01*
X3796513Y-12068844D02*
X3786989Y-12059320D01*
X3786989Y-12059320D02*
X3796513Y-12049796D01*
X3796513Y-12049796D02*
X3796513Y-12068844D01*
X3872703Y-11868844D02*
X3996513Y-11868844D01*
X3996513Y-11868844D02*
X3929846Y-11945034D01*
X3929846Y-11945034D02*
X3958418Y-11945034D01*
X3958418Y-11945034D02*
X3977465Y-11954558D01*
X3977465Y-11954558D02*
X3986989Y-11964082D01*
X3986989Y-11964082D02*
X3996513Y-11983129D01*
X3996513Y-11983129D02*
X3996513Y-12030748D01*
X3996513Y-12030748D02*
X3986989Y-12049796D01*
X3986989Y-12049796D02*
X3977465Y-12059320D01*
X3977465Y-12059320D02*
X3958418Y-12068844D01*
X3958418Y-12068844D02*
X3901275Y-12068844D01*
X3901275Y-12068844D02*
X3882227Y-12059320D01*
X3882227Y-12059320D02*
X3872703Y-12049796D01*
X4120322Y-11868844D02*
X4139370Y-11868844D01*
X4139370Y-11868844D02*
X4158418Y-11878368D01*
X4158418Y-11878368D02*
X4167942Y-11887891D01*
X4167942Y-11887891D02*
X4177465Y-11906939D01*
X4177465Y-11906939D02*
X4186989Y-11945034D01*
X4186989Y-11945034D02*
X4186989Y-11992653D01*
X4186989Y-11992653D02*
X4177465Y-12030748D01*
X4177465Y-12030748D02*
X4167942Y-12049796D01*
X4167942Y-12049796D02*
X4158418Y-12059320D01*
X4158418Y-12059320D02*
X4139370Y-12068844D01*
X4139370Y-12068844D02*
X4120322Y-12068844D01*
X4120322Y-12068844D02*
X4101275Y-12059320D01*
X4101275Y-12059320D02*
X4091751Y-12049796D01*
X4091751Y-12049796D02*
X4082227Y-12030748D01*
X4082227Y-12030748D02*
X4072703Y-11992653D01*
X4072703Y-11992653D02*
X4072703Y-11945034D01*
X4072703Y-11945034D02*
X4082227Y-11906939D01*
X4082227Y-11906939D02*
X4091751Y-11887891D01*
X4091751Y-11887891D02*
X4101275Y-11878368D01*
X4101275Y-11878368D02*
X4120322Y-11868844D01*
X4310799Y-11868844D02*
X4329846Y-11868844D01*
X4329846Y-11868844D02*
X4348894Y-11878368D01*
X4348894Y-11878368D02*
X4358418Y-11887891D01*
X4358418Y-11887891D02*
X4367942Y-11906939D01*
X4367942Y-11906939D02*
X4377465Y-11945034D01*
X4377465Y-11945034D02*
X4377465Y-11992653D01*
X4377465Y-11992653D02*
X4367942Y-12030748D01*
X4367942Y-12030748D02*
X4358418Y-12049796D01*
X4358418Y-12049796D02*
X4348894Y-12059320D01*
X4348894Y-12059320D02*
X4329846Y-12068844D01*
X4329846Y-12068844D02*
X4310799Y-12068844D01*
X4310799Y-12068844D02*
X4291751Y-12059320D01*
X4291751Y-12059320D02*
X4282227Y-12049796D01*
X4282227Y-12049796D02*
X4272704Y-12030748D01*
X4272704Y-12030748D02*
X4263180Y-11992653D01*
X4263180Y-11992653D02*
X4263180Y-11945034D01*
X4263180Y-11945034D02*
X4272704Y-11906939D01*
X4272704Y-11906939D02*
X4282227Y-11887891D01*
X4282227Y-11887891D02*
X4291751Y-11878368D01*
X4291751Y-11878368D02*
X4310799Y-11868844D01*
X4463180Y-12068844D02*
X4463180Y-11935510D01*
X4463180Y-11954558D02*
X4472704Y-11945034D01*
X4472704Y-11945034D02*
X4491751Y-11935510D01*
X4491751Y-11935510D02*
X4520323Y-11935510D01*
X4520323Y-11935510D02*
X4539370Y-11945034D01*
X4539370Y-11945034D02*
X4548894Y-11964082D01*
X4548894Y-11964082D02*
X4548894Y-12068844D01*
X4548894Y-11964082D02*
X4558418Y-11945034D01*
X4558418Y-11945034D02*
X4577465Y-11935510D01*
X4577465Y-11935510D02*
X4606037Y-11935510D01*
X4606037Y-11935510D02*
X4625085Y-11945034D01*
X4625085Y-11945034D02*
X4634608Y-11964082D01*
X4634608Y-11964082D02*
X4634608Y-12068844D01*
X4729846Y-12068844D02*
X4729846Y-11935510D01*
X4729846Y-11954558D02*
X4739370Y-11945034D01*
X4739370Y-11945034D02*
X4758418Y-11935510D01*
X4758418Y-11935510D02*
X4786989Y-11935510D01*
X4786989Y-11935510D02*
X4806037Y-11945034D01*
X4806037Y-11945034D02*
X4815561Y-11964082D01*
X4815561Y-11964082D02*
X4815561Y-12068844D01*
X4815561Y-11964082D02*
X4825085Y-11945034D01*
X4825085Y-11945034D02*
X4844132Y-11935510D01*
X4844132Y-11935510D02*
X4872704Y-11935510D01*
X4872704Y-11935510D02*
X4891751Y-11945034D01*
X4891751Y-11945034D02*
X4901275Y-11964082D01*
X4901275Y-11964082D02*
X4901275Y-12068844D01*
X5291751Y-11859320D02*
X5120323Y-12116463D01*
X5548894Y-11868844D02*
X5567942Y-11868844D01*
X5567942Y-11868844D02*
X5586989Y-11878368D01*
X5586989Y-11878368D02*
X5596513Y-11887891D01*
X5596513Y-11887891D02*
X5606037Y-11906939D01*
X5606037Y-11906939D02*
X5615561Y-11945034D01*
X5615561Y-11945034D02*
X5615561Y-11992653D01*
X5615561Y-11992653D02*
X5606037Y-12030748D01*
X5606037Y-12030748D02*
X5596513Y-12049796D01*
X5596513Y-12049796D02*
X5586989Y-12059320D01*
X5586989Y-12059320D02*
X5567942Y-12068844D01*
X5567942Y-12068844D02*
X5548894Y-12068844D01*
X5548894Y-12068844D02*
X5529847Y-12059320D01*
X5529847Y-12059320D02*
X5520323Y-12049796D01*
X5520323Y-12049796D02*
X5510799Y-12030748D01*
X5510799Y-12030748D02*
X5501275Y-11992653D01*
X5501275Y-11992653D02*
X5501275Y-11945034D01*
X5501275Y-11945034D02*
X5510799Y-11906939D01*
X5510799Y-11906939D02*
X5520323Y-11887891D01*
X5520323Y-11887891D02*
X5529847Y-11878368D01*
X5529847Y-11878368D02*
X5548894Y-11868844D01*
X5701275Y-12049796D02*
X5710799Y-12059320D01*
X5710799Y-12059320D02*
X5701275Y-12068844D01*
X5701275Y-12068844D02*
X5691751Y-12059320D01*
X5691751Y-12059320D02*
X5701275Y-12049796D01*
X5701275Y-12049796D02*
X5701275Y-12068844D01*
X5834608Y-11868844D02*
X5853656Y-11868844D01*
X5853656Y-11868844D02*
X5872704Y-11878368D01*
X5872704Y-11878368D02*
X5882227Y-11887891D01*
X5882227Y-11887891D02*
X5891751Y-11906939D01*
X5891751Y-11906939D02*
X5901275Y-11945034D01*
X5901275Y-11945034D02*
X5901275Y-11992653D01*
X5901275Y-11992653D02*
X5891751Y-12030748D01*
X5891751Y-12030748D02*
X5882227Y-12049796D01*
X5882227Y-12049796D02*
X5872704Y-12059320D01*
X5872704Y-12059320D02*
X5853656Y-12068844D01*
X5853656Y-12068844D02*
X5834608Y-12068844D01*
X5834608Y-12068844D02*
X5815561Y-12059320D01*
X5815561Y-12059320D02*
X5806037Y-12049796D01*
X5806037Y-12049796D02*
X5796513Y-12030748D01*
X5796513Y-12030748D02*
X5786989Y-11992653D01*
X5786989Y-11992653D02*
X5786989Y-11945034D01*
X5786989Y-11945034D02*
X5796513Y-11906939D01*
X5796513Y-11906939D02*
X5806037Y-11887891D01*
X5806037Y-11887891D02*
X5815561Y-11878368D01*
X5815561Y-11878368D02*
X5834608Y-11868844D01*
X6082227Y-11868844D02*
X5986989Y-11868844D01*
X5986989Y-11868844D02*
X5977466Y-11964082D01*
X5977466Y-11964082D02*
X5986989Y-11954558D01*
X5986989Y-11954558D02*
X6006037Y-11945034D01*
X6006037Y-11945034D02*
X6053656Y-11945034D01*
X6053656Y-11945034D02*
X6072704Y-11954558D01*
X6072704Y-11954558D02*
X6082227Y-11964082D01*
X6082227Y-11964082D02*
X6091751Y-11983129D01*
X6091751Y-11983129D02*
X6091751Y-12030748D01*
X6091751Y-12030748D02*
X6082227Y-12049796D01*
X6082227Y-12049796D02*
X6072704Y-12059320D01*
X6072704Y-12059320D02*
X6053656Y-12068844D01*
X6053656Y-12068844D02*
X6006037Y-12068844D01*
X6006037Y-12068844D02*
X5986989Y-12059320D01*
X5986989Y-12059320D02*
X5977466Y-12049796D01*
X6282227Y-12068844D02*
X6167942Y-12068844D01*
X6225085Y-12068844D02*
X6225085Y-11868844D01*
X6225085Y-11868844D02*
X6206037Y-11897415D01*
X6206037Y-11897415D02*
X6186989Y-11916463D01*
X6186989Y-11916463D02*
X6167942Y-11925987D01*
X6358418Y-11887891D02*
X6367942Y-11878368D01*
X6367942Y-11878368D02*
X6386989Y-11868844D01*
X6386989Y-11868844D02*
X6434608Y-11868844D01*
X6434608Y-11868844D02*
X6453656Y-11878368D01*
X6453656Y-11878368D02*
X6463180Y-11887891D01*
X6463180Y-11887891D02*
X6472704Y-11906939D01*
X6472704Y-11906939D02*
X6472704Y-11925987D01*
X6472704Y-11925987D02*
X6463180Y-11954558D01*
X6463180Y-11954558D02*
X6348894Y-12068844D01*
X6348894Y-12068844D02*
X6472704Y-12068844D01*
X6548894Y-11868844D02*
X6548894Y-11906939D01*
X6625085Y-11868844D02*
X6625085Y-11906939D01*
X6920323Y-12145034D02*
X6910799Y-12135510D01*
X6910799Y-12135510D02*
X6891751Y-12106939D01*
X6891751Y-12106939D02*
X6882228Y-12087891D01*
X6882228Y-12087891D02*
X6872704Y-12059320D01*
X6872704Y-12059320D02*
X6863180Y-12011701D01*
X6863180Y-12011701D02*
X6863180Y-11973606D01*
X6863180Y-11973606D02*
X6872704Y-11925987D01*
X6872704Y-11925987D02*
X6882228Y-11897415D01*
X6882228Y-11897415D02*
X6891751Y-11878368D01*
X6891751Y-11878368D02*
X6910799Y-11849796D01*
X6910799Y-11849796D02*
X6920323Y-11840272D01*
X6977466Y-11868844D02*
X7101275Y-11868844D01*
X7101275Y-11868844D02*
X7034608Y-11945034D01*
X7034608Y-11945034D02*
X7063180Y-11945034D01*
X7063180Y-11945034D02*
X7082228Y-11954558D01*
X7082228Y-11954558D02*
X7091751Y-11964082D01*
X7091751Y-11964082D02*
X7101275Y-11983129D01*
X7101275Y-11983129D02*
X7101275Y-12030748D01*
X7101275Y-12030748D02*
X7091751Y-12049796D01*
X7091751Y-12049796D02*
X7082228Y-12059320D01*
X7082228Y-12059320D02*
X7063180Y-12068844D01*
X7063180Y-12068844D02*
X7006037Y-12068844D01*
X7006037Y-12068844D02*
X6986989Y-12059320D01*
X6986989Y-12059320D02*
X6977466Y-12049796D01*
X7291751Y-12068844D02*
X7177466Y-12068844D01*
X7234608Y-12068844D02*
X7234608Y-11868844D01*
X7234608Y-11868844D02*
X7215561Y-11897415D01*
X7215561Y-11897415D02*
X7196513Y-11916463D01*
X7196513Y-11916463D02*
X7177466Y-11925987D01*
X7529847Y-12068844D02*
X7529847Y-11868844D01*
X7615561Y-12068844D02*
X7615561Y-11964082D01*
X7615561Y-11964082D02*
X7606037Y-11945034D01*
X7606037Y-11945034D02*
X7586990Y-11935510D01*
X7586990Y-11935510D02*
X7558418Y-11935510D01*
X7558418Y-11935510D02*
X7539370Y-11945034D01*
X7539370Y-11945034D02*
X7529847Y-11954558D01*
X7739370Y-12068844D02*
X7720323Y-12059320D01*
X7720323Y-12059320D02*
X7710799Y-12049796D01*
X7710799Y-12049796D02*
X7701275Y-12030748D01*
X7701275Y-12030748D02*
X7701275Y-11973606D01*
X7701275Y-11973606D02*
X7710799Y-11954558D01*
X7710799Y-11954558D02*
X7720323Y-11945034D01*
X7720323Y-11945034D02*
X7739370Y-11935510D01*
X7739370Y-11935510D02*
X7767942Y-11935510D01*
X7767942Y-11935510D02*
X7786990Y-11945034D01*
X7786990Y-11945034D02*
X7796513Y-11954558D01*
X7796513Y-11954558D02*
X7806037Y-11973606D01*
X7806037Y-11973606D02*
X7806037Y-12030748D01*
X7806037Y-12030748D02*
X7796513Y-12049796D01*
X7796513Y-12049796D02*
X7786990Y-12059320D01*
X7786990Y-12059320D02*
X7767942Y-12068844D01*
X7767942Y-12068844D02*
X7739370Y-12068844D01*
X7920323Y-12068844D02*
X7901275Y-12059320D01*
X7901275Y-12059320D02*
X7891751Y-12040272D01*
X7891751Y-12040272D02*
X7891751Y-11868844D01*
X8072704Y-12059320D02*
X8053656Y-12068844D01*
X8053656Y-12068844D02*
X8015561Y-12068844D01*
X8015561Y-12068844D02*
X7996513Y-12059320D01*
X7996513Y-12059320D02*
X7986990Y-12040272D01*
X7986990Y-12040272D02*
X7986990Y-11964082D01*
X7986990Y-11964082D02*
X7996513Y-11945034D01*
X7996513Y-11945034D02*
X8015561Y-11935510D01*
X8015561Y-11935510D02*
X8053656Y-11935510D01*
X8053656Y-11935510D02*
X8072704Y-11945034D01*
X8072704Y-11945034D02*
X8082228Y-11964082D01*
X8082228Y-11964082D02*
X8082228Y-11983129D01*
X8082228Y-11983129D02*
X7986990Y-12002177D01*
X8158418Y-12059320D02*
X8177466Y-12068844D01*
X8177466Y-12068844D02*
X8215561Y-12068844D01*
X8215561Y-12068844D02*
X8234609Y-12059320D01*
X8234609Y-12059320D02*
X8244132Y-12040272D01*
X8244132Y-12040272D02*
X8244132Y-12030748D01*
X8244132Y-12030748D02*
X8234609Y-12011701D01*
X8234609Y-12011701D02*
X8215561Y-12002177D01*
X8215561Y-12002177D02*
X8186990Y-12002177D01*
X8186990Y-12002177D02*
X8167942Y-11992653D01*
X8167942Y-11992653D02*
X8158418Y-11973606D01*
X8158418Y-11973606D02*
X8158418Y-11964082D01*
X8158418Y-11964082D02*
X8167942Y-11945034D01*
X8167942Y-11945034D02*
X8186990Y-11935510D01*
X8186990Y-11935510D02*
X8215561Y-11935510D01*
X8215561Y-11935510D02*
X8234609Y-11945034D01*
X8310799Y-12145034D02*
X8320323Y-12135510D01*
X8320323Y-12135510D02*
X8339371Y-12106939D01*
X8339371Y-12106939D02*
X8348894Y-12087891D01*
X8348894Y-12087891D02*
X8358418Y-12059320D01*
X8358418Y-12059320D02*
X8367942Y-12011701D01*
X8367942Y-12011701D02*
X8367942Y-11973606D01*
X8367942Y-11973606D02*
X8358418Y-11925987D01*
X8358418Y-11925987D02*
X8348894Y-11897415D01*
X8348894Y-11897415D02*
X8339371Y-11878368D01*
X8339371Y-11878368D02*
X8320323Y-11849796D01*
X8320323Y-11849796D02*
X8310799Y-11840272D01*
D19*
X3195260Y-12166360D02*
X3345260Y-12316360D01*
X3345260Y-12166360D02*
X3195260Y-12316360D01*
X3270260Y-12316360D02*
X3345260Y-12241360D01*
X3270260Y-12166360D01*
X3195260Y-12241360D01*
X3270260Y-12316360D01*
D11*
X3710799Y-12332844D02*
X3596513Y-12332844D01*
X3653656Y-12332844D02*
X3653656Y-12132844D01*
X3653656Y-12132844D02*
X3634608Y-12161415D01*
X3634608Y-12161415D02*
X3615561Y-12180463D01*
X3615561Y-12180463D02*
X3596513Y-12189987D01*
X3796513Y-12313796D02*
X3806037Y-12323320D01*
X3806037Y-12323320D02*
X3796513Y-12332844D01*
X3796513Y-12332844D02*
X3786989Y-12323320D01*
X3786989Y-12323320D02*
X3796513Y-12313796D01*
X3796513Y-12313796D02*
X3796513Y-12332844D01*
X3986989Y-12132844D02*
X3891751Y-12132844D01*
X3891751Y-12132844D02*
X3882227Y-12228082D01*
X3882227Y-12228082D02*
X3891751Y-12218558D01*
X3891751Y-12218558D02*
X3910799Y-12209034D01*
X3910799Y-12209034D02*
X3958418Y-12209034D01*
X3958418Y-12209034D02*
X3977465Y-12218558D01*
X3977465Y-12218558D02*
X3986989Y-12228082D01*
X3986989Y-12228082D02*
X3996513Y-12247129D01*
X3996513Y-12247129D02*
X3996513Y-12294748D01*
X3996513Y-12294748D02*
X3986989Y-12313796D01*
X3986989Y-12313796D02*
X3977465Y-12323320D01*
X3977465Y-12323320D02*
X3958418Y-12332844D01*
X3958418Y-12332844D02*
X3910799Y-12332844D01*
X3910799Y-12332844D02*
X3891751Y-12323320D01*
X3891751Y-12323320D02*
X3882227Y-12313796D01*
X4120322Y-12132844D02*
X4139370Y-12132844D01*
X4139370Y-12132844D02*
X4158418Y-12142368D01*
X4158418Y-12142368D02*
X4167942Y-12151891D01*
X4167942Y-12151891D02*
X4177465Y-12170939D01*
X4177465Y-12170939D02*
X4186989Y-12209034D01*
X4186989Y-12209034D02*
X4186989Y-12256653D01*
X4186989Y-12256653D02*
X4177465Y-12294748D01*
X4177465Y-12294748D02*
X4167942Y-12313796D01*
X4167942Y-12313796D02*
X4158418Y-12323320D01*
X4158418Y-12323320D02*
X4139370Y-12332844D01*
X4139370Y-12332844D02*
X4120322Y-12332844D01*
X4120322Y-12332844D02*
X4101275Y-12323320D01*
X4101275Y-12323320D02*
X4091751Y-12313796D01*
X4091751Y-12313796D02*
X4082227Y-12294748D01*
X4082227Y-12294748D02*
X4072703Y-12256653D01*
X4072703Y-12256653D02*
X4072703Y-12209034D01*
X4072703Y-12209034D02*
X4082227Y-12170939D01*
X4082227Y-12170939D02*
X4091751Y-12151891D01*
X4091751Y-12151891D02*
X4101275Y-12142368D01*
X4101275Y-12142368D02*
X4120322Y-12132844D01*
X4310799Y-12132844D02*
X4329846Y-12132844D01*
X4329846Y-12132844D02*
X4348894Y-12142368D01*
X4348894Y-12142368D02*
X4358418Y-12151891D01*
X4358418Y-12151891D02*
X4367942Y-12170939D01*
X4367942Y-12170939D02*
X4377465Y-12209034D01*
X4377465Y-12209034D02*
X4377465Y-12256653D01*
X4377465Y-12256653D02*
X4367942Y-12294748D01*
X4367942Y-12294748D02*
X4358418Y-12313796D01*
X4358418Y-12313796D02*
X4348894Y-12323320D01*
X4348894Y-12323320D02*
X4329846Y-12332844D01*
X4329846Y-12332844D02*
X4310799Y-12332844D01*
X4310799Y-12332844D02*
X4291751Y-12323320D01*
X4291751Y-12323320D02*
X4282227Y-12313796D01*
X4282227Y-12313796D02*
X4272704Y-12294748D01*
X4272704Y-12294748D02*
X4263180Y-12256653D01*
X4263180Y-12256653D02*
X4263180Y-12209034D01*
X4263180Y-12209034D02*
X4272704Y-12170939D01*
X4272704Y-12170939D02*
X4282227Y-12151891D01*
X4282227Y-12151891D02*
X4291751Y-12142368D01*
X4291751Y-12142368D02*
X4310799Y-12132844D01*
X4463180Y-12332844D02*
X4463180Y-12199510D01*
X4463180Y-12218558D02*
X4472704Y-12209034D01*
X4472704Y-12209034D02*
X4491751Y-12199510D01*
X4491751Y-12199510D02*
X4520323Y-12199510D01*
X4520323Y-12199510D02*
X4539370Y-12209034D01*
X4539370Y-12209034D02*
X4548894Y-12228082D01*
X4548894Y-12228082D02*
X4548894Y-12332844D01*
X4548894Y-12228082D02*
X4558418Y-12209034D01*
X4558418Y-12209034D02*
X4577465Y-12199510D01*
X4577465Y-12199510D02*
X4606037Y-12199510D01*
X4606037Y-12199510D02*
X4625085Y-12209034D01*
X4625085Y-12209034D02*
X4634608Y-12228082D01*
X4634608Y-12228082D02*
X4634608Y-12332844D01*
X4729846Y-12332844D02*
X4729846Y-12199510D01*
X4729846Y-12218558D02*
X4739370Y-12209034D01*
X4739370Y-12209034D02*
X4758418Y-12199510D01*
X4758418Y-12199510D02*
X4786989Y-12199510D01*
X4786989Y-12199510D02*
X4806037Y-12209034D01*
X4806037Y-12209034D02*
X4815561Y-12228082D01*
X4815561Y-12228082D02*
X4815561Y-12332844D01*
X4815561Y-12228082D02*
X4825085Y-12209034D01*
X4825085Y-12209034D02*
X4844132Y-12199510D01*
X4844132Y-12199510D02*
X4872704Y-12199510D01*
X4872704Y-12199510D02*
X4891751Y-12209034D01*
X4891751Y-12209034D02*
X4901275Y-12228082D01*
X4901275Y-12228082D02*
X4901275Y-12332844D01*
X5291751Y-12123320D02*
X5120323Y-12380463D01*
X5548894Y-12132844D02*
X5567942Y-12132844D01*
X5567942Y-12132844D02*
X5586989Y-12142368D01*
X5586989Y-12142368D02*
X5596513Y-12151891D01*
X5596513Y-12151891D02*
X5606037Y-12170939D01*
X5606037Y-12170939D02*
X5615561Y-12209034D01*
X5615561Y-12209034D02*
X5615561Y-12256653D01*
X5615561Y-12256653D02*
X5606037Y-12294748D01*
X5606037Y-12294748D02*
X5596513Y-12313796D01*
X5596513Y-12313796D02*
X5586989Y-12323320D01*
X5586989Y-12323320D02*
X5567942Y-12332844D01*
X5567942Y-12332844D02*
X5548894Y-12332844D01*
X5548894Y-12332844D02*
X5529847Y-12323320D01*
X5529847Y-12323320D02*
X5520323Y-12313796D01*
X5520323Y-12313796D02*
X5510799Y-12294748D01*
X5510799Y-12294748D02*
X5501275Y-12256653D01*
X5501275Y-12256653D02*
X5501275Y-12209034D01*
X5501275Y-12209034D02*
X5510799Y-12170939D01*
X5510799Y-12170939D02*
X5520323Y-12151891D01*
X5520323Y-12151891D02*
X5529847Y-12142368D01*
X5529847Y-12142368D02*
X5548894Y-12132844D01*
X5701275Y-12313796D02*
X5710799Y-12323320D01*
X5710799Y-12323320D02*
X5701275Y-12332844D01*
X5701275Y-12332844D02*
X5691751Y-12323320D01*
X5691751Y-12323320D02*
X5701275Y-12313796D01*
X5701275Y-12313796D02*
X5701275Y-12332844D01*
X5834608Y-12132844D02*
X5853656Y-12132844D01*
X5853656Y-12132844D02*
X5872704Y-12142368D01*
X5872704Y-12142368D02*
X5882227Y-12151891D01*
X5882227Y-12151891D02*
X5891751Y-12170939D01*
X5891751Y-12170939D02*
X5901275Y-12209034D01*
X5901275Y-12209034D02*
X5901275Y-12256653D01*
X5901275Y-12256653D02*
X5891751Y-12294748D01*
X5891751Y-12294748D02*
X5882227Y-12313796D01*
X5882227Y-12313796D02*
X5872704Y-12323320D01*
X5872704Y-12323320D02*
X5853656Y-12332844D01*
X5853656Y-12332844D02*
X5834608Y-12332844D01*
X5834608Y-12332844D02*
X5815561Y-12323320D01*
X5815561Y-12323320D02*
X5806037Y-12313796D01*
X5806037Y-12313796D02*
X5796513Y-12294748D01*
X5796513Y-12294748D02*
X5786989Y-12256653D01*
X5786989Y-12256653D02*
X5786989Y-12209034D01*
X5786989Y-12209034D02*
X5796513Y-12170939D01*
X5796513Y-12170939D02*
X5806037Y-12151891D01*
X5806037Y-12151891D02*
X5815561Y-12142368D01*
X5815561Y-12142368D02*
X5834608Y-12132844D01*
X6082227Y-12132844D02*
X5986989Y-12132844D01*
X5986989Y-12132844D02*
X5977466Y-12228082D01*
X5977466Y-12228082D02*
X5986989Y-12218558D01*
X5986989Y-12218558D02*
X6006037Y-12209034D01*
X6006037Y-12209034D02*
X6053656Y-12209034D01*
X6053656Y-12209034D02*
X6072704Y-12218558D01*
X6072704Y-12218558D02*
X6082227Y-12228082D01*
X6082227Y-12228082D02*
X6091751Y-12247129D01*
X6091751Y-12247129D02*
X6091751Y-12294748D01*
X6091751Y-12294748D02*
X6082227Y-12313796D01*
X6082227Y-12313796D02*
X6072704Y-12323320D01*
X6072704Y-12323320D02*
X6053656Y-12332844D01*
X6053656Y-12332844D02*
X6006037Y-12332844D01*
X6006037Y-12332844D02*
X5986989Y-12323320D01*
X5986989Y-12323320D02*
X5977466Y-12313796D01*
X6186989Y-12332844D02*
X6225085Y-12332844D01*
X6225085Y-12332844D02*
X6244132Y-12323320D01*
X6244132Y-12323320D02*
X6253656Y-12313796D01*
X6253656Y-12313796D02*
X6272704Y-12285225D01*
X6272704Y-12285225D02*
X6282227Y-12247129D01*
X6282227Y-12247129D02*
X6282227Y-12170939D01*
X6282227Y-12170939D02*
X6272704Y-12151891D01*
X6272704Y-12151891D02*
X6263180Y-12142368D01*
X6263180Y-12142368D02*
X6244132Y-12132844D01*
X6244132Y-12132844D02*
X6206037Y-12132844D01*
X6206037Y-12132844D02*
X6186989Y-12142368D01*
X6186989Y-12142368D02*
X6177466Y-12151891D01*
X6177466Y-12151891D02*
X6167942Y-12170939D01*
X6167942Y-12170939D02*
X6167942Y-12218558D01*
X6167942Y-12218558D02*
X6177466Y-12237606D01*
X6177466Y-12237606D02*
X6186989Y-12247129D01*
X6186989Y-12247129D02*
X6206037Y-12256653D01*
X6206037Y-12256653D02*
X6244132Y-12256653D01*
X6244132Y-12256653D02*
X6263180Y-12247129D01*
X6263180Y-12247129D02*
X6272704Y-12237606D01*
X6272704Y-12237606D02*
X6282227Y-12218558D01*
X6472704Y-12332844D02*
X6358418Y-12332844D01*
X6415561Y-12332844D02*
X6415561Y-12132844D01*
X6415561Y-12132844D02*
X6396513Y-12161415D01*
X6396513Y-12161415D02*
X6377466Y-12180463D01*
X6377466Y-12180463D02*
X6358418Y-12189987D01*
X6548894Y-12132844D02*
X6548894Y-12170939D01*
X6625085Y-12132844D02*
X6625085Y-12170939D01*
X6920323Y-12409034D02*
X6910799Y-12399510D01*
X6910799Y-12399510D02*
X6891751Y-12370939D01*
X6891751Y-12370939D02*
X6882228Y-12351891D01*
X6882228Y-12351891D02*
X6872704Y-12323320D01*
X6872704Y-12323320D02*
X6863180Y-12275701D01*
X6863180Y-12275701D02*
X6863180Y-12237606D01*
X6863180Y-12237606D02*
X6872704Y-12189987D01*
X6872704Y-12189987D02*
X6882228Y-12161415D01*
X6882228Y-12161415D02*
X6891751Y-12142368D01*
X6891751Y-12142368D02*
X6910799Y-12113796D01*
X6910799Y-12113796D02*
X6920323Y-12104272D01*
X6986989Y-12151891D02*
X6996513Y-12142368D01*
X6996513Y-12142368D02*
X7015561Y-12132844D01*
X7015561Y-12132844D02*
X7063180Y-12132844D01*
X7063180Y-12132844D02*
X7082228Y-12142368D01*
X7082228Y-12142368D02*
X7091751Y-12151891D01*
X7091751Y-12151891D02*
X7101275Y-12170939D01*
X7101275Y-12170939D02*
X7101275Y-12189987D01*
X7101275Y-12189987D02*
X7091751Y-12218558D01*
X7091751Y-12218558D02*
X6977466Y-12332844D01*
X6977466Y-12332844D02*
X7101275Y-12332844D01*
X7272704Y-12199510D02*
X7272704Y-12332844D01*
X7225085Y-12123320D02*
X7177466Y-12266177D01*
X7177466Y-12266177D02*
X7301275Y-12266177D01*
X7529847Y-12332844D02*
X7529847Y-12132844D01*
X7615561Y-12332844D02*
X7615561Y-12228082D01*
X7615561Y-12228082D02*
X7606037Y-12209034D01*
X7606037Y-12209034D02*
X7586990Y-12199510D01*
X7586990Y-12199510D02*
X7558418Y-12199510D01*
X7558418Y-12199510D02*
X7539370Y-12209034D01*
X7539370Y-12209034D02*
X7529847Y-12218558D01*
X7739370Y-12332844D02*
X7720323Y-12323320D01*
X7720323Y-12323320D02*
X7710799Y-12313796D01*
X7710799Y-12313796D02*
X7701275Y-12294748D01*
X7701275Y-12294748D02*
X7701275Y-12237606D01*
X7701275Y-12237606D02*
X7710799Y-12218558D01*
X7710799Y-12218558D02*
X7720323Y-12209034D01*
X7720323Y-12209034D02*
X7739370Y-12199510D01*
X7739370Y-12199510D02*
X7767942Y-12199510D01*
X7767942Y-12199510D02*
X7786990Y-12209034D01*
X7786990Y-12209034D02*
X7796513Y-12218558D01*
X7796513Y-12218558D02*
X7806037Y-12237606D01*
X7806037Y-12237606D02*
X7806037Y-12294748D01*
X7806037Y-12294748D02*
X7796513Y-12313796D01*
X7796513Y-12313796D02*
X7786990Y-12323320D01*
X7786990Y-12323320D02*
X7767942Y-12332844D01*
X7767942Y-12332844D02*
X7739370Y-12332844D01*
X7920323Y-12332844D02*
X7901275Y-12323320D01*
X7901275Y-12323320D02*
X7891751Y-12304272D01*
X7891751Y-12304272D02*
X7891751Y-12132844D01*
X8072704Y-12323320D02*
X8053656Y-12332844D01*
X8053656Y-12332844D02*
X8015561Y-12332844D01*
X8015561Y-12332844D02*
X7996513Y-12323320D01*
X7996513Y-12323320D02*
X7986990Y-12304272D01*
X7986990Y-12304272D02*
X7986990Y-12228082D01*
X7986990Y-12228082D02*
X7996513Y-12209034D01*
X7996513Y-12209034D02*
X8015561Y-12199510D01*
X8015561Y-12199510D02*
X8053656Y-12199510D01*
X8053656Y-12199510D02*
X8072704Y-12209034D01*
X8072704Y-12209034D02*
X8082228Y-12228082D01*
X8082228Y-12228082D02*
X8082228Y-12247129D01*
X8082228Y-12247129D02*
X7986990Y-12266177D01*
X8158418Y-12323320D02*
X8177466Y-12332844D01*
X8177466Y-12332844D02*
X8215561Y-12332844D01*
X8215561Y-12332844D02*
X8234609Y-12323320D01*
X8234609Y-12323320D02*
X8244132Y-12304272D01*
X8244132Y-12304272D02*
X8244132Y-12294748D01*
X8244132Y-12294748D02*
X8234609Y-12275701D01*
X8234609Y-12275701D02*
X8215561Y-12266177D01*
X8215561Y-12266177D02*
X8186990Y-12266177D01*
X8186990Y-12266177D02*
X8167942Y-12256653D01*
X8167942Y-12256653D02*
X8158418Y-12237606D01*
X8158418Y-12237606D02*
X8158418Y-12228082D01*
X8158418Y-12228082D02*
X8167942Y-12209034D01*
X8167942Y-12209034D02*
X8186990Y-12199510D01*
X8186990Y-12199510D02*
X8215561Y-12199510D01*
X8215561Y-12199510D02*
X8234609Y-12209034D01*
X8310799Y-12409034D02*
X8320323Y-12399510D01*
X8320323Y-12399510D02*
X8339371Y-12370939D01*
X8339371Y-12370939D02*
X8348894Y-12351891D01*
X8348894Y-12351891D02*
X8358418Y-12323320D01*
X8358418Y-12323320D02*
X8367942Y-12275701D01*
X8367942Y-12275701D02*
X8367942Y-12237606D01*
X8367942Y-12237606D02*
X8358418Y-12189987D01*
X8358418Y-12189987D02*
X8348894Y-12161415D01*
X8348894Y-12161415D02*
X8339371Y-12142368D01*
X8339371Y-12142368D02*
X8320323Y-12113796D01*
X8320323Y-12113796D02*
X8310799Y-12104272D01*
M02*
